@ File generated by m4a2s Song-Module
	.include "MPlayDef.s"

	.equ	seq_148_grp, bank_044
	.equ	seq_148_pri, 10
	.equ	seq_148_rev, 0
	.equ	seq_148_mvl, 127
	.equ	seq_148_key, 0

	.section .rodata
	.global	seq_148
	.align	2

@*********************** Track 01 ***********************@

seq_148_0:
	.byte		VOL   , 70*seq_148_mvl/mxv
	.byte	KEYSH , seq_148_key+0
	.byte	TEMPO , 150/2
	.byte		VOICE , 40
	.byte		BEND  , c_v+0
	.byte		N01   , Bn5 , v092
	.byte	W01
	.byte		        En6 , v100
	.byte	W01
	.byte		        Bn5 , v072
	.byte	W01
	.byte		        En6 , v080
	.byte	W01
	.byte		        Bn5 , v068
	.byte	W01
	.byte		        En6 , v076
	.byte	W01
	.byte		        Bn5 , v060
	.byte	W01
	.byte		        En6 , v072
	.byte	W01
	.byte		        Bn5 , v056
	.byte	W01
	.byte		N02   , En6 , v068
	.byte	W02
	.byte		N01   , Bn5 , v052
	.byte	W01
	.byte		N02   , En6 , v060
	.byte	W02
	.byte		N01   , Bn5 , v048
	.byte	W01
	.byte		N02   , En6 , v056
	.byte	W02
	.byte		N01   , Bn5 , v040
	.byte	W01
	.byte		N02   , En6 , v052
	.byte	W02
	.byte		        Bn5 , v036
	.byte	W02
	.byte		        En6 , v048
	.byte	W02
	.byte		        Bn5 , v032
	.byte	W02
	.byte		        En6 , v040
	.byte	W02
	.byte		        Bn5 , v028
	.byte	W02
	.byte		        En6 , v036
	.byte	W02
	.byte		N03   , Bn5 , v020
	.byte	W03
	.byte		N09   , En6 
	.byte	W13
	.byte	FINE

@******************************************************@

	.align	2

seq_148:
	.byte	1	@ NumTrks
	.byte	0	@ NumBlks
	.byte	seq_148_pri	@ Priority
	.byte	seq_148_rev	@ Reverb

	.word	seq_148_grp

	.word	seq_148_0

	.end
