@ File generated by m4a2s Song-Module
	.include "MPlayDef.s"

	.equ	seq_047_grp, bank_036
	.equ	seq_047_pri, 0
	.equ	seq_047_rev, 178
	.equ	seq_047_mvl, 127
	.equ	seq_047_key, 0

	.section .rodata
	.global	seq_047
	.align	2

@*********************** Track 01 ***********************@

seq_047_0:
	.byte	KEYSH , seq_047_key+0
	.byte	TEMPO , 110/2
	.byte		VOICE , 123
	.byte		PAN   , c_v+63
	.byte		VOL   , 70*seq_047_mvl/mxv
	.byte		N48   , Ds2 , v064
	.byte	W48
	.byte		VOICE , 125
	.byte		N48   , Ds3 
	.byte	W48
	.byte		VOICE , 123
	.byte		N96   , Bn3 
	.byte	W48
	.byte		BEND  , c_v+0
	.byte	W02
	.byte		        c_v-1
	.byte	W03
	.byte		        c_v-1
	.byte	W03
	.byte		        c_v-3
	.byte	W03
	.byte		        c_v-4
	.byte	W03
	.byte		        c_v-6
	.byte	W02
	.byte		        c_v-9
	.byte	W03
	.byte		        c_v-12
	.byte	W03
	.byte		        c_v-15
	.byte	W03
	.byte		        c_v-19
	.byte	W01
	.byte		VOL   , 69*seq_047_mvl/mxv
	.byte	W02
	.byte		BEND  , c_v-23
	.byte	W01
	.byte		VOL   , 67*seq_047_mvl/mxv
	.byte	W01
	.byte		BEND  , c_v-28
	.byte	W02
	.byte		VOL   , 63*seq_047_mvl/mxv
	.byte	W01
	.byte		BEND  , c_v-33
	.byte	W02
	.byte		VOL   , 58*seq_047_mvl/mxv
	.byte	W01
	.byte		BEND  , c_v-39
	.byte	W02
	.byte		VOL   , 51*seq_047_mvl/mxv
	.byte	W01
	.byte		BEND  , c_v-45
	.byte	W01
	.byte		VOL   , 42*seq_047_mvl/mxv
	.byte	W02
	.byte		BEND  , c_v-52
	.byte	W01
	.byte		VOL   , 32*seq_047_mvl/mxv
	.byte	W01
	.byte		BEND  , c_v-59
	.byte	W02
	.byte		VOL   , 20*seq_047_mvl/mxv
	.byte	W01
	.byte		BEND  , c_v-64
	.byte	W01
	.byte	TEMPO , 144/2
	.byte		VOL   , 70*seq_047_mvl/mxv
	.byte		PAN   , c_v+0
	.byte		BEND  , c_v+0
	.byte	W96
	.byte	W96
	.byte	W96
	.byte	W96
	.byte		VOICE , 30
	.byte		VOL   , 45*seq_047_mvl/mxv
	.byte	W24
	.byte		N24   , Dn3 , v108
	.byte	W24
	.byte		N36   , Cs3 
	.byte	W36
	.byte		TIE   , Gn2 , v112
	.byte	W12
	.byte	W90
	.byte	W01
	.byte		VOL   , 40*seq_047_mvl/mxv
	.byte	W04
	.byte		        35*seq_047_mvl/mxv
	.byte	W01
	.byte	PEND
	.byte	W02
	.byte		VOL   , 27*seq_047_mvl/mxv
	.byte	W04
	.byte		        18*seq_047_mvl/mxv
	.byte	W04
	.byte		        6*seq_047_mvl/mxv
	.byte	W02
	.byte	PEND
	.byte		EOT   , Gn2 
	.byte		VOL   , 0*seq_047_mvl/mxv
	.byte	W12
	.byte		        45*seq_047_mvl/mxv
	.byte		N24   , Dn3 , v108
	.byte	W24
	.byte		N36   , Cs3 
	.byte	W36
	.byte		N12   , Gn3 
	.byte	W12
	.byte	W12
	.byte		N12   , Fs3 , v108
	.byte	W12
	.byte		N84   , Fn3 
	.byte	W66
	.byte	W01
	.byte		VOL   , 40*seq_047_mvl/mxv
	.byte	W04
	.byte		        35*seq_047_mvl/mxv
	.byte	W01
	.byte	PEND
	.byte	W02
	.byte		        27*seq_047_mvl/mxv
	.byte	W04
	.byte		        18*seq_047_mvl/mxv
	.byte	W04
	.byte		        6*seq_047_mvl/mxv
	.byte	W02
	.byte		        0*seq_047_mvl/mxv
	.byte	W12
	.byte		        45*seq_047_mvl/mxv
	.byte		N24   , Dn3 
	.byte	W24
	.byte		N36   , Cs3 
	.byte	W36
	.byte		TIE   , Gn2 , v112
	.byte	W12
	.byte	PATT
	 .word	seq_047_0 + 0x79
	.byte	PATT
	 .word	seq_047_0 + 0x81
	.byte		EOT   , Gn2 
	.byte		VOL   , 0*seq_047_mvl/mxv
	.byte	W12
	.byte		        45*seq_047_mvl/mxv
	.byte		N24   , Dn3 , v108
	.byte	W24
	.byte		N36   , Cs3 
	.byte	W36
	.byte		N12   , Gn3 
	.byte	W12
	.byte	PATT
	 .word	seq_047_0 + 0x9A
	.byte	W02
	.byte		VOL   , 27*seq_047_mvl/mxv
	.byte	W04
	.byte		        18*seq_047_mvl/mxv
	.byte	W04
	.byte		        6*seq_047_mvl/mxv
	.byte	W02
	.byte		        0*seq_047_mvl/mxv
	.byte	W12
	.byte		        56*seq_047_mvl/mxv
	.byte		N24   , En3 , v108
	.byte	W24
	.byte		N36   , Ds3 
	.byte	W36
	.byte		TIE   , Gn2 , v112
	.byte	W12
	.byte	W90
	.byte	W01
	.byte		VOL   , 51*seq_047_mvl/mxv
	.byte	W04
	.byte		        44*seq_047_mvl/mxv
	.byte	W01
	.byte	PEND
	.byte	W02
	.byte		VOL   , 34*seq_047_mvl/mxv
	.byte	W04
	.byte		        23*seq_047_mvl/mxv
	.byte	W04
	.byte		        8*seq_047_mvl/mxv
	.byte	W02
	.byte	PEND
	.byte		EOT   , Gn2 
	.byte		VOL   , 0*seq_047_mvl/mxv
	.byte	W12
	.byte		        56*seq_047_mvl/mxv
	.byte		N24   , Gn3 , v108
	.byte	W24
	.byte		N36   , Fs3 
	.byte	W36
	.byte		TIE   , As2 
	.byte	W12
	.byte	PATT
	 .word	seq_047_0 + 0xF2
	.byte	PATT
	 .word	seq_047_0 + 0xFA
	.byte		EOT   , As2 
	.byte		VOL   , 0*seq_047_mvl/mxv
	.byte	W12
	.byte		        56*seq_047_mvl/mxv
	.byte		N24   , Dn3 , v108
	.byte	W24
	.byte		N36   , Cs3 
	.byte	W36
	.byte		TIE   , Fn2 , v112
	.byte	W12
	.byte	PATT
	 .word	seq_047_0 + 0xF2
	.byte	PATT
	 .word	seq_047_0 + 0xFA
	.byte		EOT   , Fn2 
	.byte		VOL   , 0*seq_047_mvl/mxv
	.byte	W12
	.byte		        56*seq_047_mvl/mxv
	.byte		N24   , Fn3 , v108
	.byte	W24
	.byte		N36   , En3 
	.byte	W36
	.byte		TIE   , Gs2 , v112
	.byte	W12
	.byte	W96
	.byte	W66
	.byte	W01
	.byte		VOL   , 51*seq_047_mvl/mxv
	.byte	W04
	.byte		        44*seq_047_mvl/mxv
	.byte	W03
	.byte		        34*seq_047_mvl/mxv
	.byte	W04
	.byte		        23*seq_047_mvl/mxv
	.byte	W04
	.byte		        8*seq_047_mvl/mxv
	.byte	W02
	.byte		EOT
	.byte		VOL   , 0*seq_047_mvl/mxv
	.byte	W12
	.byte	GOTO
	 .word	seq_047_0 + 0x5D
	.byte	FINE

@*********************** Track 02 ***********************@

seq_047_1:
	.byte	KEYSH , seq_047_key+0
	.byte		VOICE , 34
	.byte		VOL   , 90*seq_047_mvl/mxv
	.byte		PAN   , c_v+0
	.byte	W96
	.byte	W96
	.byte		N08   , En1 , v127
	.byte	W12
	.byte		N08
	.byte	W12
	.byte		N08
	.byte	W12
	.byte		N08
	.byte	W12
	.byte		N08
	.byte	W12
	.byte		N06
	.byte	W06
	.byte		N08   , Bn0 
	.byte	W12
	.byte		N06
	.byte	W06
	.byte		N08   , En1 
	.byte	W12
	.byte	PEND
	.byte	PATT
	 .word	seq_047_1 + 0xA
	.byte	PATT
	 .word	seq_047_1 + 0xA
	.byte	PATT
	 .word	seq_047_1 + 0xA
	.byte	PATT
	 .word	seq_047_1 + 0xA
	.byte	PATT
	 .word	seq_047_1 + 0xA
	.byte	PATT
	 .word	seq_047_1 + 0xA
	.byte	PATT
	 .word	seq_047_1 + 0xA
	.byte	PATT
	 .word	seq_047_1 + 0xA
	.byte	PATT
	 .word	seq_047_1 + 0xA
	.byte	PATT
	 .word	seq_047_1 + 0xA
	.byte	PATT
	 .word	seq_047_1 + 0xA
	.byte		N08   , En1 , v127
	.byte	W12
	.byte		N08
	.byte	W12
	.byte		N08
	.byte	W12
	.byte		N08
	.byte	W12
	.byte		N17
	.byte	W18
	.byte		N06
	.byte	W12
	.byte		N06
	.byte	W06
	.byte		N11
	.byte	W12
	.byte		N08   , Ds1 
	.byte	W12
	.byte		N08
	.byte	W12
	.byte		N08
	.byte	W12
	.byte		N08
	.byte	W12
	.byte		N17
	.byte	W18
	.byte		N06
	.byte	W12
	.byte		N06
	.byte	W06
	.byte		N11
	.byte	W12
	.byte		N08   , Gn1 
	.byte	W12
	.byte		N08
	.byte	W12
	.byte		N08
	.byte	W12
	.byte		N08
	.byte	W12
	.byte		N17
	.byte	W18
	.byte		N06
	.byte	W12
	.byte		N06
	.byte	W06
	.byte		N11
	.byte	W12
	.byte		N08   , Fs1 
	.byte	W12
	.byte		N08
	.byte	W12
	.byte		N08
	.byte	W12
	.byte		N08
	.byte	W12
	.byte		N17
	.byte	W18
	.byte		N06
	.byte	W12
	.byte		N06
	.byte	W06
	.byte		N11
	.byte	W12
	.byte		N08   , Dn1 
	.byte	W12
	.byte		N08
	.byte	W12
	.byte		N08
	.byte	W12
	.byte		N08
	.byte	W12
	.byte		N17
	.byte	W18
	.byte		N06
	.byte	W12
	.byte		N06
	.byte	W06
	.byte		N11
	.byte	W12
	.byte		N08   , Cs1 
	.byte	W12
	.byte		N08
	.byte	W12
	.byte		N08
	.byte	W12
	.byte		N08
	.byte	W12
	.byte		N17
	.byte	W18
	.byte		N06
	.byte	W12
	.byte		N06
	.byte	W06
	.byte		N11
	.byte	W12
	.byte		N08   , Fn1 
	.byte	W12
	.byte		N08
	.byte	W12
	.byte		N08
	.byte	W12
	.byte		N08
	.byte	W12
	.byte		N11
	.byte	W12
	.byte		N06   , En1 
	.byte	W12
	.byte		        Ds1 
	.byte	W12
	.byte		N42   , Dn1 
	.byte	W12
	.byte	W36
	.byte		N23
	.byte	W24
	.byte		N06   , Cs1 
	.byte	W12
	.byte		        Cn1 
	.byte	W12
	.byte		N96   , Bn0 
	.byte	W12
	.byte	W96
	.byte	GOTO
	 .word	seq_047_1 + 0xA
	.byte	FINE

@*********************** Track 03 ***********************@

seq_047_2:
	.byte	KEYSH , seq_047_key+0
	.byte		VOICE , 30
	.byte		VOL   , 77*seq_047_mvl/mxv
	.byte		PAN   , c_v+0
	.byte		N20   , Fn0 , v056
	.byte	W20
	.byte		N12   , As0 , v064
	.byte	W12
	.byte		N08   , Ds1 , v068
	.byte	W08
	.byte		        Gs1 
	.byte	W08
	.byte		        Cs2 
	.byte	W08
	.byte		        Fs2 , v064
	.byte	W08
	.byte		        As2 
	.byte	W08
	.byte		        Ds3 
	.byte	W08
	.byte		        Gs3 , v060
	.byte	W08
	.byte		        As3 
	.byte	W08
	.byte		BEND  , c_v-8
	.byte		N96   , Cs4 , v056
	.byte	W36
	.byte		BEND  , c_v-8
	.byte	W01
	.byte		        c_v-9
	.byte	W01
	.byte		        c_v-9
	.byte	W02
	.byte		        c_v-9
	.byte	W01
	.byte		        c_v-9
	.byte	W02
	.byte		        c_v-9
	.byte	W01
	.byte		        c_v-10
	.byte	W02
	.byte		        c_v-10
	.byte	W01
	.byte		        c_v-11
	.byte	W02
	.byte		        c_v-11
	.byte	W01
	.byte		        c_v-12
	.byte	W02
	.byte		        c_v-13
	.byte	W01
	.byte		        c_v-13
	.byte	W02
	.byte		        c_v-14
	.byte	W01
	.byte		        c_v-15
	.byte	W02
	.byte		        c_v-16
	.byte	W01
	.byte		        c_v-17
	.byte	W01
	.byte		        c_v-18
	.byte	W02
	.byte		        c_v-19
	.byte	W01
	.byte		        c_v-21
	.byte	W02
	.byte		        c_v-22
	.byte	W01
	.byte		        c_v-23
	.byte	W02
	.byte		        c_v-25
	.byte	W01
	.byte		        c_v-26
	.byte	W02
	.byte		        c_v-28
	.byte	W01
	.byte		        c_v-29
	.byte	W02
	.byte		        c_v-31
	.byte	W01
	.byte		        c_v-33
	.byte	W02
	.byte		        c_v-35
	.byte	W01
	.byte		        c_v-37
	.byte	W02
	.byte		VOL   , 76*seq_047_mvl/mxv
	.byte		BEND  , c_v-39
	.byte	W01
	.byte		        c_v-41
	.byte	W01
	.byte		        c_v-43
	.byte	W01
	.byte		VOL   , 72*seq_047_mvl/mxv
	.byte	W01
	.byte		BEND  , c_v-45
	.byte	W01
	.byte		        c_v-47
	.byte	W01
	.byte		VOL   , 65*seq_047_mvl/mxv
	.byte	W01
	.byte		BEND  , c_v-50
	.byte	W01
	.byte		        c_v-52
	.byte	W01
	.byte		VOL   , 55*seq_047_mvl/mxv
	.byte	W01
	.byte		BEND  , c_v-54
	.byte	W01
	.byte		        c_v-57
	.byte	W01
	.byte		VOL   , 43*seq_047_mvl/mxv
	.byte	W01
	.byte		BEND  , c_v-59
	.byte	W01
	.byte		VOL   , 27*seq_047_mvl/mxv
	.byte		BEND  , c_v-62
	.byte	W02
	.byte		VOL   , 90*seq_047_mvl/mxv
	.byte		BEND  , c_v+0
	.byte	W24
	.byte		VOICE , 55
	.byte	W24
	.byte		N18   , Cs3 , v116
	.byte	W36
	.byte		        En3 
	.byte	W12
	.byte	W96
	.byte	W48
	.byte		N18   , En3 , v116
	.byte	W36
	.byte		        As3 , v112
	.byte	W12
	.byte	PEND
	.byte	W96
	.byte	W48
	.byte		N18   , Cs3 , v116
	.byte	W36
	.byte		        En3 
	.byte	W12
	.byte	PEND
	.byte	W96
	.byte	PATT
	 .word	seq_047_2 + 0xA2
	.byte	W96
	.byte	PATT
	 .word	seq_047_2 + 0xAC
	.byte	W96
	.byte	PATT
	 .word	seq_047_2 + 0xA2
	.byte	W96
	.byte	W48
	.byte		N18   , Cn3 , v116
	.byte	W36
	.byte		        Bn2 
	.byte	W12
	.byte	W96
	.byte	W48
	.byte		        Ds3 
	.byte	W36
	.byte		        Dn3 
	.byte	W12
	.byte	W96
	.byte	W48
	.byte		        Bn2 
	.byte	W36
	.byte		        As2 
	.byte	W12
	.byte	W96
	.byte	W48
	.byte		        Cs3 
	.byte	W36
	.byte		        Cn3 
	.byte	W12
	.byte	W96
	.byte	W96
	.byte	GOTO
	 .word	seq_047_2 + 0x93
	.byte	FINE

@*********************** Track 04 ***********************@

seq_047_3:
	.byte	KEYSH , seq_047_key+0
	.byte		VOICE , 102
	.byte		PAN   , c_v-64
	.byte		VOL   , 21*seq_047_mvl/mxv
	.byte		N96   , Gs2 , v060
	.byte	W06
	.byte		VOL   , 24*seq_047_mvl/mxv
	.byte	W06
	.byte		        29*seq_047_mvl/mxv
	.byte	W06
	.byte		        33*seq_047_mvl/mxv
	.byte	W06
	.byte		        37*seq_047_mvl/mxv
	.byte	W06
	.byte		        41*seq_047_mvl/mxv
	.byte	W06
	.byte		        45*seq_047_mvl/mxv
	.byte	W06
	.byte		        49*seq_047_mvl/mxv
	.byte	W06
	.byte		        53*seq_047_mvl/mxv
	.byte	W06
	.byte		        58*seq_047_mvl/mxv
	.byte	W06
	.byte		        62*seq_047_mvl/mxv
	.byte	W06
	.byte		        66*seq_047_mvl/mxv
	.byte	W06
	.byte		        70*seq_047_mvl/mxv
	.byte	W24
	.byte		N96   , Fn3 
	.byte	W48
	.byte		BEND  , c_v+0
	.byte	W02
	.byte		        c_v-1
	.byte	W03
	.byte		        c_v-1
	.byte	W03
	.byte		        c_v-3
	.byte	W03
	.byte		        c_v-4
	.byte	W03
	.byte		        c_v-6
	.byte	W02
	.byte		        c_v-9
	.byte	W03
	.byte		        c_v-12
	.byte	W03
	.byte		        c_v-15
	.byte	W03
	.byte		        c_v-19
	.byte	W01
	.byte		VOL   , 69*seq_047_mvl/mxv
	.byte	W02
	.byte		BEND  , c_v-23
	.byte	W01
	.byte		VOL   , 67*seq_047_mvl/mxv
	.byte	W01
	.byte		BEND  , c_v-28
	.byte	W02
	.byte		VOL   , 63*seq_047_mvl/mxv
	.byte	W01
	.byte		BEND  , c_v-33
	.byte	W02
	.byte		VOL   , 58*seq_047_mvl/mxv
	.byte	W01
	.byte		BEND  , c_v-39
	.byte	W02
	.byte		VOL   , 51*seq_047_mvl/mxv
	.byte	W01
	.byte		BEND  , c_v-45
	.byte	W01
	.byte		VOL   , 42*seq_047_mvl/mxv
	.byte	W02
	.byte		BEND  , c_v-52
	.byte	W01
	.byte		VOL   , 32*seq_047_mvl/mxv
	.byte	W01
	.byte		BEND  , c_v-59
	.byte	W02
	.byte		VOL   , 20*seq_047_mvl/mxv
	.byte	W01
	.byte		BEND  , c_v-64
	.byte	W01
	.byte		VOL   , 70*seq_047_mvl/mxv
	.byte		PAN   , c_v+0
	.byte		BEND  , c_v+0
	.byte	W96
	.byte	W96
	.byte	W96
	.byte	W96
	.byte		VOICE , 123
	.byte	W24
	.byte		N24   , An2 , v100
	.byte	W24
	.byte		N36   , Gs2 
	.byte	W36
	.byte		TIE   , Dn2 
	.byte	W12
	.byte	W96
	.byte		EOT
	.byte	W24
	.byte		N24   , An2 , v100
	.byte	W24
	.byte		N36   , Gs2 
	.byte	W36
	.byte		N12   , Dn3 
	.byte	W12
	.byte	PEND
	.byte	W12
	.byte		N12   , Cs3 , v100
	.byte	W12
	.byte		N72   , Cn3 
	.byte	W72
	.byte	PEND
	.byte	W24
	.byte		N24   , An2 
	.byte	W24
	.byte		N36   , Gs2 
	.byte	W36
	.byte		TIE   , Dn2 
	.byte	W12
	.byte	W96
	.byte		EOT
	.byte	PATT
	 .word	seq_047_3 + 0x86
	.byte	PATT
	 .word	seq_047_3 + 0x92
	.byte	W96
	.byte	W96
	.byte	W96
	.byte	W96
	.byte	W96
	.byte	W96
	.byte	W96
	.byte	W96
	.byte	W96
	.byte	GOTO
	 .word	seq_047_3 + 0x6D
	.byte	FINE

@*********************** Track 05 ***********************@

seq_047_4:
	.byte	KEYSH , seq_047_key+0
	.byte		VOICE , 30
	.byte		VOL   , 63*seq_047_mvl/mxv
	.byte		PAN   , c_v+0
	.byte		BENDR , 8
	.byte		BEND  , c_v+0
	.byte		N20   , Fn1 , v060
	.byte	W20
	.byte		N12   , As1 , v068
	.byte	W12
	.byte		N08   , Ds2 , v072
	.byte	W08
	.byte		        Gs2 
	.byte	W08
	.byte		VOICE , 29
	.byte		N08   , Cs3 
	.byte	W08
	.byte		        Fs3 , v068
	.byte	W08
	.byte		        As3 
	.byte	W08
	.byte		        Ds4 
	.byte	W08
	.byte		        Gs4 , v064
	.byte	W08
	.byte		        As4 
	.byte	W08
	.byte		N96   , Bn4 , v068
	.byte	W48
	.byte		BEND  , c_v+0
	.byte	W02
	.byte		        c_v-1
	.byte	W03
	.byte		        c_v-1
	.byte	W03
	.byte		        c_v-3
	.byte	W03
	.byte		        c_v-4
	.byte	W03
	.byte		        c_v-6
	.byte	W02
	.byte		        c_v-9
	.byte	W03
	.byte		        c_v-12
	.byte	W03
	.byte		        c_v-15
	.byte	W03
	.byte		        c_v-19
	.byte	W03
	.byte		        c_v-23
	.byte	W01
	.byte		VOL   , 60*seq_047_mvl/mxv
	.byte	W01
	.byte		BEND  , c_v-28
	.byte	W02
	.byte		VOL   , 55*seq_047_mvl/mxv
	.byte	W01
	.byte		BEND  , c_v-33
	.byte	W02
	.byte		VOL   , 49*seq_047_mvl/mxv
	.byte	W01
	.byte		BEND  , c_v-39
	.byte	W02
	.byte		VOL   , 41*seq_047_mvl/mxv
	.byte	W01
	.byte		BEND  , c_v-45
	.byte	W01
	.byte		VOL   , 31*seq_047_mvl/mxv
	.byte	W02
	.byte		BEND  , c_v-52
	.byte	W01
	.byte		VOL   , 20*seq_047_mvl/mxv
	.byte	W01
	.byte		BEND  , c_v-59
	.byte	W02
	.byte		VOL   , 7*seq_047_mvl/mxv
	.byte	W01
	.byte		BEND  , c_v-64
	.byte	W01
	.byte		VOICE , 102
	.byte		PAN   , c_v+63
	.byte		VOL   , 65*seq_047_mvl/mxv
	.byte		BEND  , c_v+0
	.byte		N12   , En2 , v072
	.byte	W12
	.byte		N12
	.byte	W12
	.byte		N12
	.byte	W12
	.byte		N12
	.byte	W12
	.byte		        Ds2 
	.byte	W12
	.byte		N12
	.byte	W12
	.byte		N12
	.byte	W12
	.byte		N12
	.byte	W12
	.byte		N12   , Dn2 , v072
	.byte	W12
	.byte		N12
	.byte	W12
	.byte		N12
	.byte	W12
	.byte		N12
	.byte	W12
	.byte		        Cs2 
	.byte	W12
	.byte		N12
	.byte	W12
	.byte		N12
	.byte	W12
	.byte		N12
	.byte	W12
	.byte	PEND
	.byte		N12   , En2 , v072
	.byte	W12
	.byte		N12
	.byte	W12
	.byte		N12
	.byte	W12
	.byte		N12
	.byte	W12
	.byte		        Ds2 
	.byte	W12
	.byte		N12
	.byte	W12
	.byte		N12
	.byte	W12
	.byte		N12
	.byte	W12
	.byte	PEND
	.byte	PATT
	 .word	seq_047_4 + 0x8A
	.byte	PATT
	 .word	seq_047_4 + 0x9D
	.byte	PATT
	 .word	seq_047_4 + 0x8A
	.byte	PATT
	 .word	seq_047_4 + 0x9D
	.byte	PATT
	 .word	seq_047_4 + 0x8A
	.byte	PATT
	 .word	seq_047_4 + 0x9D
	.byte	PATT
	 .word	seq_047_4 + 0x8A
	.byte	PATT
	 .word	seq_047_4 + 0x9D
	.byte	PATT
	 .word	seq_047_4 + 0x8A
	.byte		VOICE , 122
	.byte	W12
	.byte		N09   , Dn4 , v072
	.byte	W24
	.byte		N09
	.byte	W12
	.byte		N16
	.byte	W18
	.byte		N03
	.byte	W18
	.byte		N12
	.byte	W12
	.byte	W12
	.byte		N09   , Cs4 
	.byte	W24
	.byte		N09
	.byte	W12
	.byte		N16
	.byte	W18
	.byte		N03
	.byte	W18
	.byte		N12
	.byte	W12
	.byte	W12
	.byte		N09   , Fn4 , v072
	.byte	W24
	.byte		N09
	.byte	W12
	.byte		N16
	.byte	W18
	.byte		N03
	.byte	W18
	.byte		N12
	.byte	W12
	.byte	PEND
	.byte	W12
	.byte		N09   , En4 , v072
	.byte	W24
	.byte		N09
	.byte	W12
	.byte		N16
	.byte	W18
	.byte		N03
	.byte	W18
	.byte		N12
	.byte	W12
	.byte	PEND
	.byte	PATT
	 .word	seq_047_4 + 0xF8
	.byte	PATT
	 .word	seq_047_4 + 0x106
	.byte	W12
	.byte		N09   , Gs4 , v072
	.byte	W24
	.byte		N09
	.byte	W12
	.byte		N11
	.byte	W12
	.byte		N06   , Gn4 
	.byte	W12
	.byte		        Fs4 
	.byte	W12
	.byte		N42   , Fn4 
	.byte	W12
	.byte	W36
	.byte		N23
	.byte	W24
	.byte		N06   , En4 
	.byte	W12
	.byte		        Ds4 
	.byte	W12
	.byte		N36   , Dn4 
	.byte	W12
	.byte	W24
	.byte		N24
	.byte	W24
	.byte		N24
	.byte	W24
	.byte		N24
	.byte	W07
	.byte		VOL   , 63*seq_047_mvl/mxv
	.byte	W04
	.byte		        55*seq_047_mvl/mxv
	.byte	W03
	.byte		        43*seq_047_mvl/mxv
	.byte	W04
	.byte		        29*seq_047_mvl/mxv
	.byte	W04
	.byte		        10*seq_047_mvl/mxv
	.byte	W02
	.byte	GOTO
	 .word	seq_047_4 + 0x70
	.byte		VOL   , 0*seq_047_mvl/mxv
	.byte	FINE

@*********************** Track 06 ***********************@

seq_047_5:
	.byte	KEYSH , seq_047_key+0
	.byte		VOICE , 30
	.byte		PAN   , c_v+0
	.byte		VOL   , 77*seq_047_mvl/mxv
	.byte		BENDR , 8
	.byte		BEND  , c_v+0
	.byte		N20   , As0 , v036
	.byte	W20
	.byte		N12   , Ds1 , v040
	.byte	W12
	.byte		N08   , Gs1 , v044
	.byte	W08
	.byte		        Ds2 , v048
	.byte	W08
	.byte		        Gs2 , v052
	.byte	W08
	.byte		        As2 , v048
	.byte	W08
	.byte		        Ds3 
	.byte	W08
	.byte		        Gs3 
	.byte	W08
	.byte		        As3 , v044
	.byte	W08
	.byte		        Ds4 
	.byte	W08
	.byte		N96   , Fn4 , v040
	.byte	W48
	.byte		BEND  , c_v+0
	.byte	W02
	.byte		        c_v-1
	.byte	W03
	.byte		        c_v-1
	.byte	W03
	.byte		        c_v-3
	.byte	W03
	.byte		        c_v-4
	.byte	W03
	.byte		        c_v-6
	.byte	W02
	.byte		        c_v-9
	.byte	W03
	.byte		        c_v-12
	.byte	W03
	.byte		        c_v-15
	.byte	W03
	.byte		        c_v-19
	.byte	W03
	.byte		        c_v-23
	.byte	W02
	.byte		        c_v-28
	.byte	W02
	.byte		VOL   , 76*seq_047_mvl/mxv
	.byte	W01
	.byte		BEND  , c_v-33
	.byte	W02
	.byte		VOL   , 72*seq_047_mvl/mxv
	.byte	W01
	.byte		BEND  , c_v-39
	.byte	W02
	.byte		VOL   , 65*seq_047_mvl/mxv
	.byte	W01
	.byte		BEND  , c_v-45
	.byte	W02
	.byte		VOL   , 55*seq_047_mvl/mxv
	.byte	W01
	.byte		BEND  , c_v-52
	.byte	W02
	.byte		VOL   , 43*seq_047_mvl/mxv
	.byte		BEND  , c_v-59
	.byte	W02
	.byte		VOL   , 27*seq_047_mvl/mxv
	.byte	W01
	.byte		BEND  , c_v-64
	.byte	W01
	.byte		VOICE , 101
	.byte		PAN   , c_v-64
	.byte		VOL   , 63*seq_047_mvl/mxv
	.byte		BEND  , c_v+0
	.byte		N12   , Bn1 , v072
	.byte	W12
	.byte		N12
	.byte	W12
	.byte		N12
	.byte	W12
	.byte		N12
	.byte	W12
	.byte		        As1 
	.byte	W12
	.byte		N12
	.byte	W12
	.byte		N12
	.byte	W12
	.byte		N12
	.byte	W12
	.byte		N12   , An1 , v072
	.byte	W12
	.byte		N12
	.byte	W12
	.byte		N12
	.byte	W12
	.byte		N12
	.byte	W12
	.byte		        Gs1 
	.byte	W12
	.byte		N12
	.byte	W12
	.byte		N12
	.byte	W12
	.byte		N12
	.byte	W12
	.byte	PEND
	.byte		N12   , Bn1 , v072
	.byte	W12
	.byte		N12
	.byte	W12
	.byte		N12
	.byte	W12
	.byte		N12
	.byte	W12
	.byte		        As1 
	.byte	W12
	.byte		N12
	.byte	W12
	.byte		N12
	.byte	W12
	.byte		N12
	.byte	W12
	.byte	PEND
	.byte	PATT
	 .word	seq_047_5 + 0x84
	.byte	PATT
	 .word	seq_047_5 + 0x97
	.byte	PATT
	 .word	seq_047_5 + 0x84
	.byte	PATT
	 .word	seq_047_5 + 0x97
	.byte	PATT
	 .word	seq_047_5 + 0x84
	.byte	PATT
	 .word	seq_047_5 + 0x97
	.byte	PATT
	 .word	seq_047_5 + 0x84
	.byte	PATT
	 .word	seq_047_5 + 0x97
	.byte	PATT
	 .word	seq_047_5 + 0x84
	.byte		VOICE , 124
	.byte	W12
	.byte		N09   , Gs4 , v080
	.byte	W24
	.byte		N09
	.byte	W12
	.byte		N16
	.byte	W18
	.byte		N03
	.byte	W18
	.byte		N12
	.byte	W12
	.byte	W12
	.byte		N09   , Gn4 
	.byte	W24
	.byte		N09
	.byte	W12
	.byte		N16
	.byte	W18
	.byte		N03
	.byte	W18
	.byte		N12
	.byte	W12
	.byte	W12
	.byte		N09   , Bn4 
	.byte	W24
	.byte		N09
	.byte	W12
	.byte		N16
	.byte	W18
	.byte		N03
	.byte	W18
	.byte		N12
	.byte	W12
	.byte	W12
	.byte		N09   , As4 
	.byte	W24
	.byte		N09
	.byte	W12
	.byte		N16
	.byte	W18
	.byte		N03
	.byte	W18
	.byte		N12
	.byte	W12
	.byte	W12
	.byte		N09   , Cs5 
	.byte	W24
	.byte		N09
	.byte	W12
	.byte		N16
	.byte	W18
	.byte		N03
	.byte	W18
	.byte		N12
	.byte	W12
	.byte	W12
	.byte		N09   , Cn5 
	.byte	W24
	.byte		N09
	.byte	W12
	.byte		N16
	.byte	W18
	.byte		N03
	.byte	W18
	.byte		N12
	.byte	W12
	.byte	W12
	.byte		N09   , Ds5 
	.byte	W24
	.byte		N09
	.byte	W12
	.byte		N11
	.byte	W12
	.byte		N06   , Dn5 
	.byte	W12
	.byte		        Cs5 
	.byte	W12
	.byte		N42   , Cn5 
	.byte	W12
	.byte	W36
	.byte		N23
	.byte	W24
	.byte		N06   , Bn4 
	.byte	W12
	.byte		        As4 
	.byte	W12
	.byte		N36   , An4 
	.byte	W12
	.byte	W24
	.byte		N24
	.byte	W24
	.byte		N24
	.byte	W24
	.byte		N24
	.byte	W07
	.byte		VOL   , 63*seq_047_mvl/mxv
	.byte	W04
	.byte		        55*seq_047_mvl/mxv
	.byte	W03
	.byte		        43*seq_047_mvl/mxv
	.byte	W04
	.byte		        29*seq_047_mvl/mxv
	.byte	W04
	.byte		        10*seq_047_mvl/mxv
	.byte	W02
	.byte	GOTO
	 .word	seq_047_5 + 0x6A
	.byte		VOL   , 0*seq_047_mvl/mxv
	.byte	FINE

@*********************** Track 07 ***********************@

seq_047_6:
	.byte	KEYSH , seq_047_key+0
	.byte		VOICE , 127
	.byte		VOL   , 90*seq_047_mvl/mxv
	.byte		PAN   , c_v+0
	.byte	W96
	.byte	W96
	.byte		N06   , Cn1 , v120
	.byte	W12
	.byte		N12   , Ds7 , v096
	.byte	W18
	.byte		N06   , Cn1 , v120
	.byte	W06
	.byte		N12   , Ds7 , v096
	.byte	W12
	.byte		N06   , Cn1 , v120
	.byte	W12
	.byte		        Ds7 , v096
	.byte	W06
	.byte		        Cn1 , v120
	.byte	W12
	.byte		N06
	.byte	W06
	.byte		N12   , Ds7 , v096
	.byte	W12
	.byte	PEND
	.byte	PATT
	 .word	seq_047_6 + 0xA
	.byte	PATT
	 .word	seq_047_6 + 0xA
	.byte		N06   , Cn1 , v120
	.byte	W12
	.byte		N12   , Ds7 , v096
	.byte	W18
	.byte		N06   , Cn1 , v120
	.byte	W06
	.byte		N12   , Ds7 , v096
	.byte	W12
	.byte		N06   , Cn1 , v120
	.byte	W12
	.byte		        Ds7 , v096
	.byte	W06
	.byte		        Cn1 , v120
	.byte	W12
	.byte		        Ds7 , v096
	.byte	W06
	.byte		N06
	.byte	W06
	.byte		N06
	.byte	W06
	.byte	PEND
	.byte	PATT
	 .word	seq_047_6 + 0xA
	.byte	PATT
	 .word	seq_047_6 + 0xA
	.byte	PATT
	 .word	seq_047_6 + 0xA
	.byte	PATT
	 .word	seq_047_6 + 0x35
	.byte	PATT
	 .word	seq_047_6 + 0xA
	.byte	PATT
	 .word	seq_047_6 + 0xA
	.byte	PATT
	 .word	seq_047_6 + 0xA
	.byte	PATT
	 .word	seq_047_6 + 0x35
	.byte	PATT
	 .word	seq_047_6 + 0xA
	.byte	PATT
	 .word	seq_047_6 + 0xA
	.byte	PATT
	 .word	seq_047_6 + 0xA
	.byte	PATT
	 .word	seq_047_6 + 0x35
	.byte	PATT
	 .word	seq_047_6 + 0xA
	.byte	PATT
	 .word	seq_047_6 + 0xA
	.byte	PATT
	 .word	seq_047_6 + 0xA
	.byte	PATT
	 .word	seq_047_6 + 0x35
	.byte		N06   , Cn1 , v120
	.byte	W24
	.byte		N06
	.byte	W24
	.byte		        Ds7 , v096
	.byte	W06
	.byte		        Cn1 , v120
	.byte	W06
	.byte		N06
	.byte	W06
	.byte		N06
	.byte	W06
	.byte		N12   , Ds7 , v096
	.byte	W12
	.byte		N06
	.byte	W06
	.byte		N06
	.byte	W06
	.byte	GOTO
	 .word	seq_047_6 + 0xA
	.byte	FINE

@******************************************************@

	.align	2

seq_047:
	.byte	7	@ NumTrks
	.byte	0	@ NumBlks
	.byte	seq_047_pri	@ Priority
	.byte	seq_047_rev	@ Reverb

	.word	seq_047_grp

	.word	seq_047_0
	.word	seq_047_1
	.word	seq_047_2
	.word	seq_047_3
	.word	seq_047_4
	.word	seq_047_5
	.word	seq_047_6

	.end
