@ File generated by m4a2s Song-Module
	.include "MPlayDef.s"

	.equ	seq_055_grp, bank_041
	.equ	seq_055_pri, 0
	.equ	seq_055_rev, 148
	.equ	seq_055_mvl, 127
	.equ	seq_055_key, 0

	.section .rodata
	.global	seq_055
	.align	2

@*********************** Track 01 ***********************@

seq_055_0:
	.byte	KEYSH , seq_055_key+0
	.byte	TEMPO , 138/2
	.byte		VOICE , 60
	.byte		VOL   , 95*seq_055_mvl/mxv
	.byte		PAN   , c_v+25
	.byte	W96
	.byte		N10   , Cn3 , v112
	.byte	W24
	.byte		N13   , Gn2 
	.byte	W16
	.byte		N04   , Gn2 , v127
	.byte	W08
	.byte		N05   , An2 , v112
	.byte	W12
	.byte		TIE   , En3 
	.byte	W32
	.byte	W01
	.byte		VOL   , 79*seq_055_mvl/mxv
	.byte	W03
	.byte	W02
	.byte		        78*seq_055_mvl/mxv
	.byte	W05
	.byte		        77*seq_055_mvl/mxv
	.byte	W05
	.byte		        77*seq_055_mvl/mxv
	.byte	W05
	.byte		        76*seq_055_mvl/mxv
	.byte	W05
	.byte		        75*seq_055_mvl/mxv
	.byte	W05
	.byte		        74*seq_055_mvl/mxv
	.byte	W05
	.byte		        73*seq_055_mvl/mxv
	.byte	W05
	.byte		        72*seq_055_mvl/mxv
	.byte	W05
	.byte		        71*seq_055_mvl/mxv
	.byte	W05
	.byte		        71*seq_055_mvl/mxv
	.byte	W05
	.byte		        70*seq_055_mvl/mxv
	.byte	W05
	.byte		        69*seq_055_mvl/mxv
	.byte	W05
	.byte		        68*seq_055_mvl/mxv
	.byte	W05
	.byte		        67*seq_055_mvl/mxv
	.byte	W05
	.byte		        66*seq_055_mvl/mxv
	.byte	W05
	.byte		        65*seq_055_mvl/mxv
	.byte	W05
	.byte		        64*seq_055_mvl/mxv
	.byte	W05
	.byte		        64*seq_055_mvl/mxv
	.byte	W05
	.byte		        63*seq_055_mvl/mxv
	.byte	W02
	.byte		        62*seq_055_mvl/mxv
	.byte	W02
	.byte		EOT
	.byte	W96
	.byte		VOL   , 82*seq_055_mvl/mxv
	.byte		N10   , Dn3 
	.byte	W24
	.byte		N13   , An2 
	.byte	W16
	.byte		N04   , An2 , v127
	.byte	W08
	.byte		N05   , Bn2 , v112
	.byte	W12
	.byte		TIE   , Fs3 
	.byte	W12
	.byte		VOL   , 81*seq_055_mvl/mxv
	.byte	W09
	.byte		        80*seq_055_mvl/mxv
	.byte	W10
	.byte		        79*seq_055_mvl/mxv
	.byte	W05
	.byte	W04
	.byte		        78*seq_055_mvl/mxv
	.byte	W10
	.byte		        77*seq_055_mvl/mxv
	.byte	W10
	.byte		        77*seq_055_mvl/mxv
	.byte	W09
	.byte		        76*seq_055_mvl/mxv
	.byte	W10
	.byte		        75*seq_055_mvl/mxv
	.byte	W09
	.byte		        74*seq_055_mvl/mxv
	.byte	W10
	.byte		        73*seq_055_mvl/mxv
	.byte	W10
	.byte		        72*seq_055_mvl/mxv
	.byte	W09
	.byte		        71*seq_055_mvl/mxv
	.byte	W10
	.byte		        71*seq_055_mvl/mxv
	.byte	W05
	.byte	W04
	.byte		        70*seq_055_mvl/mxv
	.byte	W10
	.byte		        69*seq_055_mvl/mxv
	.byte	W10
	.byte		        68*seq_055_mvl/mxv
	.byte	W09
	.byte		        67*seq_055_mvl/mxv
	.byte	W10
	.byte		        66*seq_055_mvl/mxv
	.byte	W09
	.byte		        65*seq_055_mvl/mxv
	.byte	W10
	.byte		        64*seq_055_mvl/mxv
	.byte	W10
	.byte		        64*seq_055_mvl/mxv
	.byte	W24
	.byte		EOT
	.byte	FINE

@*********************** Track 02 ***********************@

seq_055_1:
	.byte	KEYSH , seq_055_key+0
	.byte		VOICE , 61
	.byte		VOL   , 95*seq_055_mvl/mxv
	.byte		PAN   , c_v+10
	.byte		BEND  , c_v+0
	.byte		N10   , Cn4 , v112
	.byte	W24
	.byte		N13   , Gn3 
	.byte	W16
	.byte		N04   , Gn3 , v120
	.byte	W08
	.byte		N05   , An3 , v108
	.byte	W12
	.byte		TIE   , En4 , v096
	.byte	W36
	.byte	W96
	.byte	W84
	.byte		EOT
	.byte	W12
	.byte		N10   , Dn4 , v112
	.byte	W24
	.byte		N13   , An3 
	.byte	W16
	.byte		N04   , An3 , v120
	.byte	W08
	.byte		N05   , Bn3 , v108
	.byte	W12
	.byte		TIE   , Fs4 , v092
	.byte	W36
	.byte	W96
	.byte	W96
	.byte	W96
	.byte		EOT
	.byte	FINE

@*********************** Track 03 ***********************@

seq_055_2:
	.byte	KEYSH , seq_055_key+0
	.byte		VOICE , 61
	.byte		VOL   , 90*seq_055_mvl/mxv
	.byte		PAN   , c_v-10
	.byte		BEND  , c_v+0
	.byte		N10   , Gn3 , v112
	.byte	W24
	.byte		N13   , Cn3 
	.byte	W16
	.byte		N04   , Cn3 , v120
	.byte	W08
	.byte		N05   , En3 , v108
	.byte	W12
	.byte		TIE   , An3 , v096
	.byte	W36
	.byte	W96
	.byte	W84
	.byte		EOT
	.byte	W12
	.byte		N10   , An3 , v112
	.byte	W24
	.byte		N13   , Dn3 
	.byte	W16
	.byte		N04   , Dn3 , v120
	.byte	W08
	.byte		N05   , Fs3 , v108
	.byte	W12
	.byte		TIE   , Bn3 , v092
	.byte	W36
	.byte	W96
	.byte	W96
	.byte	W96
	.byte		EOT
	.byte	FINE

@*********************** Track 04 ***********************@

seq_055_3:
	.byte	KEYSH , seq_055_key+0
	.byte		VOICE , 122
	.byte		VOL   , 43*seq_055_mvl/mxv
	.byte		PAN   , c_v-64
	.byte		TIE   , Gn2 , v112
	.byte	W96
	.byte	W92
	.byte		EOT
	.byte	W04
	.byte		N32
	.byte	W36
	.byte	W01
	.byte		N30   , Gn2 , v108
	.byte	W32
	.byte	W03
	.byte		N18   , Gn2 , v112
	.byte	W24
	.byte		TIE   , An2 
	.byte	W96
	.byte	W92
	.byte		EOT
	.byte	W04
	.byte		N06
	.byte	W12
	.byte		TIE
	.byte	W84
	.byte	W96
	.byte		EOT
	.byte	FINE

@*********************** Track 05 ***********************@

seq_055_4:
	.byte	KEYSH , seq_055_key+0
	.byte		VOICE , 121
	.byte		VOL   , 43*seq_055_mvl/mxv
	.byte		PAN   , c_v+63
	.byte		TIE   , Cn2 , v112
	.byte	W96
	.byte	W92
	.byte		EOT
	.byte	W04
	.byte		N32
	.byte	W36
	.byte	W01
	.byte		N30   , Cn2 , v108
	.byte	W32
	.byte	W03
	.byte		N18   , Cn2 , v112
	.byte	W24
	.byte		TIE   , Dn2 
	.byte	W96
	.byte	W92
	.byte		EOT
	.byte	W04
	.byte		N06
	.byte	W12
	.byte		TIE
	.byte	W84
	.byte	W96
	.byte		EOT
	.byte	FINE

@*********************** Track 06 ***********************@

seq_055_5:
	.byte	KEYSH , seq_055_key+0
	.byte		VOICE , 72
	.byte		VOL   , 38*seq_055_mvl/mxv
	.byte		PAN   , c_v-25
	.byte	W96
	.byte	W24
	.byte		N04   , An4 , v084
	.byte	W04
	.byte		        Bn4 , v092
	.byte	W04
	.byte		        Cn5 , v080
	.byte	W04
	.byte		        Dn5 , v072
	.byte	W04
	.byte		        En5 , v064
	.byte	W04
	.byte		        Fs5 , v060
	.byte	W04
	.byte		        Gn5 , v108
	.byte	W04
	.byte		        An5 , v100
	.byte	W04
	.byte		        Gn5 , v092
	.byte	W04
	.byte		        An5 , v088
	.byte	W04
	.byte		        Gn5 , v080
	.byte	W04
	.byte		        An5 , v076
	.byte	W04
	.byte		        Gn5 , v072
	.byte	W04
	.byte		        An5 , v068
	.byte	W04
	.byte		        Gn5 , v064
	.byte	W04
	.byte		        An5 
	.byte	W04
	.byte		        Gn5 , v060
	.byte	W04
	.byte		        An5 , v056
	.byte	W04
	.byte		        Gn5 
	.byte	W04
	.byte		        An5 
	.byte	W04
	.byte		        Gn5 
	.byte	W04
	.byte		        An5 
	.byte	W04
	.byte		        Gn5 , v060
	.byte	W04
	.byte		        An5 
	.byte	W04
	.byte		        Gn5 , v064
	.byte	W04
	.byte		        An5 , v072
	.byte	W04
	.byte		        Gn5 , v076
	.byte	W04
	.byte		        An5 , v080
	.byte	W04
	.byte		        Gn5 , v088
	.byte	W04
	.byte		        An5 , v096
	.byte	W04
	.byte		        Gn5 , v100
	.byte	W04
	.byte		        An5 , v104
	.byte	W04
	.byte		        Gn5 , v108
	.byte	W04
	.byte		        An5 
	.byte	W04
	.byte		        Gn5 
	.byte	W04
	.byte		        An5 , v104
	.byte	W04
	.byte		        Gn5 
	.byte	W04
	.byte		        An5 , v100
	.byte	W04
	.byte		        Gn5 , v092
	.byte	W04
	.byte		        An5 , v088
	.byte	W04
	.byte		        Gn5 , v076
	.byte	W04
	.byte		        An5 , v052
	.byte	W04
	.byte	W96
	.byte	W24
	.byte		        Bn4 , v084
	.byte	W04
	.byte		        Cn5 , v092
	.byte	W04
	.byte		        Dn5 , v080
	.byte	W04
	.byte		        En5 , v072
	.byte	W04
	.byte		        Fs5 , v064
	.byte	W04
	.byte		        Gn5 , v060
	.byte	W04
	.byte		        An5 , v108
	.byte	W04
	.byte		        Bn5 , v100
	.byte	W04
	.byte		        An5 , v092
	.byte	W04
	.byte		        Bn5 , v088
	.byte	W04
	.byte		        An5 , v080
	.byte	W04
	.byte		        Bn5 , v076
	.byte	W04
	.byte		        An5 , v068
	.byte	W04
	.byte		        Bn5 , v064
	.byte	W04
	.byte		        An5 , v060
	.byte	W04
	.byte		        Bn5 , v056
	.byte	W04
	.byte		        An5 
	.byte	W04
	.byte		        Bn5 , v052
	.byte	W04
	.byte		        An5 
	.byte	W04
	.byte		        Bn5 
	.byte	W04
	.byte		        An5 , v056
	.byte	W04
	.byte		        Bn5 
	.byte	W04
	.byte		        An5 , v060
	.byte	W04
	.byte		        Bn5 , v064
	.byte	W04
	.byte		        An5 , v068
	.byte	W04
	.byte		        Bn5 , v072
	.byte	W04
	.byte		        An5 , v076
	.byte	W04
	.byte		        Bn5 , v080
	.byte	W04
	.byte		        An5 , v084
	.byte	W04
	.byte		        Bn5 , v088
	.byte	W04
	.byte		        An5 , v092
	.byte	W04
	.byte		        Bn5 , v096
	.byte	W04
	.byte		        An5 
	.byte	W04
	.byte		        Bn5 
	.byte	W04
	.byte		        An5 
	.byte	W04
	.byte		        Bn5 
	.byte	W04
	.byte		        An5 
	.byte	W04
	.byte		        Bn5 
	.byte	W04
	.byte		        An5 
	.byte	W04
	.byte		        Bn5 
	.byte	W04
	.byte		        An5 
	.byte	W04
	.byte		        Bn5 
	.byte	W04
	.byte		        An5 
	.byte	W04
	.byte		        Bn5 
	.byte	W04
	.byte		        An5 
	.byte	W04
	.byte		        Bn5 
	.byte	W04
	.byte		        An5 
	.byte	W04
	.byte		        Bn5 
	.byte	W04
	.byte		        An5 
	.byte	W04
	.byte		        Bn5 
	.byte	W04
	.byte		        An5 
	.byte	W04
	.byte		        Bn5 
	.byte	W04
	.byte		        An5 
	.byte	W04
	.byte		        Bn5 
	.byte	W04
	.byte		        An5 
	.byte	W04
	.byte		        Bn5 
	.byte	W04
	.byte		        An5 
	.byte	W04
	.byte		        Bn5 
	.byte	W04
	.byte		        An5 
	.byte	W04
	.byte		        Bn5 
	.byte	W04
	.byte		        An5 
	.byte	W04
	.byte		        Bn5 
	.byte	W04
	.byte		        An5 
	.byte	W04
	.byte		        Bn5 
	.byte	W04
	.byte		        An5 
	.byte	W04
	.byte		        Bn5 
	.byte	W04
	.byte	FINE

@*********************** Track 07 ***********************@

seq_055_6:
	.byte	KEYSH , seq_055_key+0
	.byte		VOICE , 127
	.byte		VOL   , 99*seq_055_mvl/mxv
	.byte		N08   , Cn0 , v100
	.byte	W01
	.byte		N48   , Bn2 
	.byte	W07
	.byte		N04   , Cn0 , v020
	.byte	W04
	.byte		        Cn0 , v028
	.byte	W04
	.byte		        Cn0 , v044
	.byte	W04
	.byte		        Cn0 , v068
	.byte	W04
	.byte		N08   , Cn0 , v096
	.byte	W08
	.byte		N04   , Cn0 , v020
	.byte	W04
	.byte		        Cn0 , v028
	.byte	W04
	.byte		        Cn0 , v044
	.byte	W04
	.byte		        Cn0 , v068
	.byte	W04
	.byte		N08   , Cn0 , v108
	.byte	W08
	.byte		N04   , Cn0 , v020
	.byte	W04
	.byte		        Cn0 , v028
	.byte	W04
	.byte		        Cn0 , v044
	.byte	W04
	.byte		        Cn0 , v068
	.byte	W04
	.byte		N08   , Cn0 , v096
	.byte	W08
	.byte		N04   , Cn0 , v020
	.byte	W04
	.byte		        Cn0 , v028
	.byte	W04
	.byte		        Cn0 , v044
	.byte	W04
	.byte		        Cn0 , v068
	.byte	W04
	.byte		N08   , Cn0 , v100
	.byte	W08
	.byte		N04   , Cn0 , v020
	.byte	W04
	.byte		        Cn0 , v028
	.byte	W04
	.byte		        Cn0 , v044
	.byte	W04
	.byte		        Cn0 , v068
	.byte	W04
	.byte		N08   , Cn0 , v096
	.byte	W08
	.byte		N04   , Cn0 , v020
	.byte	W04
	.byte		        Cn0 , v028
	.byte	W04
	.byte		        Cn0 , v044
	.byte	W04
	.byte		        Cn0 , v068
	.byte	W04
	.byte		N08   , Cn0 , v108
	.byte	W08
	.byte		N04   , Cn0 , v020
	.byte	W04
	.byte		        Cn0 , v028
	.byte	W04
	.byte		        Cn0 , v044
	.byte	W04
	.byte		        Cn0 , v068
	.byte	W04
	.byte		N08   , Cn0 , v096
	.byte	W08
	.byte		N04   , Cn0 , v020
	.byte	W04
	.byte		        Cn0 , v028
	.byte	W04
	.byte		        Cn0 , v044
	.byte	W04
	.byte		        Cn0 , v068
	.byte	W04
	.byte		N12   , Cn0 , v112
	.byte	W24
	.byte		N05   , Cn0 , v072
	.byte	W05
	.byte		N03   , Cn0 , v088
	.byte	W03
	.byte		        Cn0 , v072
	.byte	W04
	.byte		N04   , Cn0 , v040
	.byte	W04
	.byte		N03   , Cn0 , v060
	.byte	W03
	.byte		N04   , Cn0 , v048
	.byte	W05
	.byte		N12   , Cn0 , v108
	.byte	W16
	.byte		N08   , Cn0 , v084
	.byte	W08
	.byte		N03   , Cn0 , v104
	.byte	W03
	.byte		        Cn0 , v068
	.byte	W03
	.byte		        Cn0 , v056
	.byte	W03
	.byte		        Cn0 , v064
	.byte	W03
	.byte		        Cn0 , v060
	.byte	W03
	.byte		        Cn0 , v052
	.byte	W03
	.byte		        Cn0 , v064
	.byte	W03
	.byte		        Cn0 , v072
	.byte	W03
	.byte		N08   , Cn0 , v100
	.byte	W01
	.byte		N48   , Bn2 
	.byte	W07
	.byte		N04   , Cn0 , v020
	.byte	W04
	.byte		        Cn0 , v028
	.byte	W04
	.byte		        Cn0 , v044
	.byte	W04
	.byte		        Cn0 , v068
	.byte	W04
	.byte		N08   , Cn0 , v096
	.byte	W08
	.byte		N04   , Cn0 , v020
	.byte	W04
	.byte		        Cn0 , v028
	.byte	W04
	.byte		        Cn0 , v044
	.byte	W04
	.byte		        Cn0 , v068
	.byte	W04
	.byte		N08   , Cn0 , v108
	.byte	W08
	.byte		N04   , Cn0 , v020
	.byte	W04
	.byte		        Cn0 , v028
	.byte	W04
	.byte		        Cn0 , v044
	.byte	W04
	.byte		        Cn0 , v068
	.byte	W04
	.byte		N08   , Cn0 , v096
	.byte	W08
	.byte		N04   , Cn0 , v020
	.byte	W04
	.byte		        Cn0 , v028
	.byte	W04
	.byte		        Cn0 , v044
	.byte	W04
	.byte		        Cn0 , v068
	.byte	W04
	.byte		N08   , Cn0 , v100
	.byte	W08
	.byte		N04   , Cn0 , v020
	.byte	W04
	.byte		        Cn0 , v028
	.byte	W04
	.byte		        Cn0 , v044
	.byte	W04
	.byte		        Cn0 , v068
	.byte	W04
	.byte		N08   , Cn0 , v096
	.byte	W08
	.byte		N04   , Cn0 , v020
	.byte	W04
	.byte		        Cn0 , v028
	.byte	W04
	.byte		        Cn0 , v044
	.byte	W04
	.byte		        Cn0 , v068
	.byte	W04
	.byte		N08   , Cn0 , v108
	.byte	W08
	.byte		N04   , Cn0 , v020
	.byte	W04
	.byte		        Cn0 , v028
	.byte	W04
	.byte		        Cn0 , v044
	.byte	W04
	.byte		        Cn0 , v068
	.byte	W04
	.byte		N08   , Cn0 , v096
	.byte	W08
	.byte		N04   , Cn0 , v020
	.byte	W04
	.byte		        Cn0 , v028
	.byte	W04
	.byte		        Cn0 , v044
	.byte	W04
	.byte		        Cn0 , v048
	.byte	W04
	.byte		N08   , Cn0 , v104
	.byte	W01
	.byte		N48   , Bn2 , v092
	.byte	W07
	.byte		N08   , Cn0 , v088
	.byte	W08
	.byte		N04   , Cn0 , v068
	.byte	W04
	.byte		        Cn0 , v060
	.byte	W04
	.byte		        Cn0 , v052
	.byte	W04
	.byte		        Cn0 , v048
	.byte	W04
	.byte		N04
	.byte	W04
	.byte		        Cn0 , v052
	.byte	W04
	.byte		        Cn0 , v060
	.byte	W04
	.byte		        Cn0 , v068
	.byte	W04
	.byte		        Cn0 , v076
	.byte	W04
	.byte		N04
	.byte	W04
	.byte		        Cn0 , v072
	.byte	W04
	.byte		N04
	.byte	W04
	.byte		        Cn0 , v068
	.byte	W04
	.byte		        Cn0 , v060
	.byte	W04
	.byte		        Cn0 , v052
	.byte	W04
	.byte		        Cn0 , v048
	.byte	W04
	.byte		N04
	.byte	W04
	.byte		        Cn0 , v052
	.byte	W04
	.byte		        Cn0 , v060
	.byte	W04
	.byte		        Cn0 , v068
	.byte	W04
	.byte		        Cn0 , v076
	.byte	W04
	.byte		N04
	.byte	W04
	.byte		        Cn0 , v072
	.byte	W04
	.byte		N04
	.byte	W04
	.byte		        Cn0 , v068
	.byte	W04
	.byte		        Cn0 , v060
	.byte	W04
	.byte		        Cn0 , v052
	.byte	W04
	.byte		        Cn0 , v048
	.byte	W04
	.byte		N04
	.byte	W04
	.byte		        Cn0 , v052
	.byte	W04
	.byte		        Cn0 , v060
	.byte	W04
	.byte		        Cn0 , v068
	.byte	W04
	.byte		        Cn0 , v076
	.byte	W04
	.byte		N04
	.byte	W04
	.byte		        Cn0 , v072
	.byte	W04
	.byte		N04
	.byte	W04
	.byte		        Cn0 , v068
	.byte	W04
	.byte		        Cn0 , v060
	.byte	W04
	.byte		        Cn0 , v052
	.byte	W04
	.byte		        Cn0 , v048
	.byte	W04
	.byte		N04
	.byte	W04
	.byte		        Cn0 , v052
	.byte	W04
	.byte		        Cn0 , v060
	.byte	W04
	.byte		        Cn0 , v068
	.byte	W04
	.byte	FINE

@******************************************************@

	.align	2

seq_055:
	.byte	7	@ NumTrks
	.byte	0	@ NumBlks
	.byte	seq_055_pri	@ Priority
	.byte	seq_055_rev	@ Reverb

	.word	seq_055_grp

	.word	seq_055_0
	.word	seq_055_1
	.word	seq_055_2
	.word	seq_055_3
	.word	seq_055_4
	.word	seq_055_5
	.word	seq_055_6

	.end
