@ File generated by m4a2s Song-Module
	.include "MPlayDef.s"

	.equ	seq_140_grp, bank_044
	.equ	seq_140_pri, 32
	.equ	seq_140_rev, 0
	.equ	seq_140_mvl, 127
	.equ	seq_140_key, 0

	.section .rodata
	.global	seq_140
	.align	2

@*********************** Track 01 ***********************@

seq_140_0:
	.byte	KEYSH , seq_140_key+0
	.byte	TEMPO , 150/2
	.byte		VOICE , 103
	.byte		VOL   , 80*seq_140_mvl/mxv
	.byte		N01   , Fn5 , v068
	.byte	W01
	.byte		        Cs5 , v080
	.byte	W01
	.byte		        An4 , v100
	.byte	W01
	.byte		        Fs4 , v120
	.byte	W01
	.byte		        Ds4 , v127
	.byte	W01
	.byte		        Cs4 , v124
	.byte	W01
	.byte		        Bn3 
	.byte	W01
	.byte		        As3 , v120
	.byte	W01
	.byte		        An3 
	.byte	W01
	.byte		        Gs3 
	.byte	W01
	.byte		        Gn3 , v116
	.byte	W01
	.byte		        Fs3 
	.byte	W01
	.byte		        Fn3 , v112
	.byte	W01
	.byte		        En3 
	.byte	W01
	.byte		        Ds3 
	.byte	W01
	.byte		        Dn3 , v108
	.byte	W01
	.byte		        Cs3 
	.byte	W01
	.byte		        Cn3 , v100
	.byte	W01
	.byte		        Bn2 , v096
	.byte	W01
	.byte		        As2 , v092
	.byte	W01
	.byte		        An2 , v084
	.byte	W01
	.byte		        Gs2 , v076
	.byte	W01
	.byte		        Gn2 , v060
	.byte	W01
	.byte		        Fs2 , v044
	.byte	W01
	.byte	W24
	.byte	FINE

@*********************** Track 02 ***********************@

seq_140_1:
	.byte		VOL   , 80*seq_140_mvl/mxv
	.byte	KEYSH , seq_140_key+0
	.byte		VOICE , 98
	.byte		BENDR , 24
	.byte		BEND  , c_v+0
	.byte		N32   , Dn2 , v080
	.byte	W02
	.byte		BEND  , c_v+2
	.byte	W02
	.byte		        c_v+5
	.byte	W02
	.byte		        c_v+10
	.byte	W02
	.byte		        c_v+15
	.byte	W02
	.byte		        c_v+20
	.byte	W02
	.byte		        c_v+24
	.byte	W02
	.byte		        c_v+28
	.byte	W02
	.byte		        c_v+32
	.byte	W02
	.byte		        c_v+36
	.byte	W02
	.byte		        c_v+40
	.byte	W02
	.byte		        c_v+43
	.byte	W02
	.byte		        c_v+46
	.byte	W02
	.byte		        c_v+49
	.byte	W02
	.byte		        c_v+51
	.byte	W02
	.byte		        c_v+53
	.byte	W18
	.byte	FINE

@******************************************************@

	.align	2

seq_140:
	.byte	2	@ NumTrks
	.byte	0	@ NumBlks
	.byte	seq_140_pri	@ Priority
	.byte	seq_140_rev	@ Reverb

	.word	seq_140_grp

	.word	seq_140_0
	.word	seq_140_1

	.end
