@ File generated by m4a2s Song-Module
	.include "MPlayDef.s"

	.equ	seq_002_grp, bank_000
	.equ	seq_002_pri, 0
	.equ	seq_002_rev, 148
	.equ	seq_002_mvl, 127
	.equ	seq_002_key, 0

	.section .rodata
	.global	seq_002
	.align	2

@*********************** Track 01 ***********************@

seq_002_0:
	.byte	KEYSH , seq_002_key+0
	.byte	TEMPO , 128/2
	.byte		VOICE , 38
	.byte		VOL   , 100*seq_002_mvl/mxv
	.byte		N03   , Cn2 , v112
	.byte	W06
	.byte		N06   , Cn1 , v108
	.byte	W12
	.byte		        Cn1 , v112
	.byte	W12
	.byte		        Cn1 , v116
	.byte	W06
	.byte		        Dn1 , v084
	.byte	W06
	.byte		N04   , Cn1 , v112
	.byte	W06
	.byte		VOL   , 90*seq_002_mvl/mxv
	.byte		N03   , Dn1 , v124
	.byte	W12
	.byte		N07
	.byte	W12
	.byte		N03   , Cn1 , v100
	.byte	W06
	.byte		N07   , Dn1 , v120
	.byte	W12
	.byte		N03   , Cn1 , v127
	.byte	W06
	.byte		N09   , Dn1 , v100
	.byte	W12
	.byte		N03   , Cn1 , v120
	.byte	W06
	.byte		N09   , Dn1 , v104
	.byte	W12
	.byte		N04   , Cn1 , v120
	.byte	W06
	.byte		N03   , An1 , v112
	.byte	W06
	.byte		        Dn1 , v124
	.byte	W06
	.byte	PEND
	.byte		N03   , Dn1 , v116
	.byte	W12
	.byte		N07   , Dn1 , v120
	.byte	W12
	.byte		N03   , Cn1 , v108
	.byte	W06
	.byte		N07   , Dn1 , v120
	.byte	W12
	.byte		N03   , Cn1 
	.byte	W06
	.byte		        Cn2 
	.byte	W06
	.byte		N06   , Cn1 , v108
	.byte	W12
	.byte		        Cn1 , v112
	.byte	W12
	.byte		        Cn1 , v116
	.byte	W06
	.byte		        Dn1 , v084
	.byte	W06
	.byte		N04   , Cn1 , v112
	.byte	W06
	.byte	PEND
	.byte		N03   , Dn1 , v108
	.byte	W12
	.byte		N07   , Dn1 , v124
	.byte	W12
	.byte		N03   , Cn1 , v100
	.byte	W06
	.byte		N07   , Dn1 , v120
	.byte	W12
	.byte		N03   , Cn1 , v127
	.byte	W06
	.byte		N09   , Dn1 , v100
	.byte	W12
	.byte		N03   , Cn1 , v120
	.byte	W06
	.byte		N09   , Dn1 , v104
	.byte	W12
	.byte		N04   , Cn1 , v120
	.byte	W06
	.byte		N03   , An1 , v112
	.byte	W06
	.byte		        Dn1 , v124
	.byte	W06
	.byte	PEND
	.byte		N03   , Dn1 , v108
	.byte	W12
	.byte		N07   , Dn1 , v120
	.byte	W12
	.byte		N03   , Cn1 , v108
	.byte	W06
	.byte		N07   , Dn1 , v120
	.byte	W12
	.byte		N03   , Cn1 
	.byte	W06
	.byte		        Cn2 
	.byte	W06
	.byte		N06   , Cn1 , v108
	.byte	W12
	.byte		        Cn1 , v112
	.byte	W12
	.byte		        Cn1 , v116
	.byte	W06
	.byte		        Dn1 , v084
	.byte	W06
	.byte		N04   , Cn1 , v112
	.byte	W06
	.byte	PEND
	.byte		VOL   , 77*seq_002_mvl/mxv
	.byte		N03   , Dn1 , v124
	.byte	W12
	.byte		N07
	.byte	W12
	.byte		N03   , Cn1 , v100
	.byte	W06
	.byte		N07   , Dn1 , v120
	.byte	W12
	.byte		N03   , Cn1 , v127
	.byte	W06
	.byte		N09   , Dn1 , v100
	.byte	W12
	.byte		N03   , Cn1 , v120
	.byte	W06
	.byte		N09   , Dn1 , v104
	.byte	W12
	.byte		N04   , Cn1 , v120
	.byte	W06
	.byte		N03   , An1 , v112
	.byte	W06
	.byte		        Dn1 , v124
	.byte	W06
	.byte	PATT
	 .word	seq_002_0 + 0x49
	.byte	PATT
	 .word	seq_002_0 + 0x70
	.byte	PATT
	 .word	seq_002_0 + 0x9C
	.byte		N03   , Dn1 , v124
	.byte	W12
	.byte		N07
	.byte	W12
	.byte		N03   , Cn1 , v100
	.byte	W06
	.byte		N07   , Dn1 , v120
	.byte	W12
	.byte		N03   , Cn1 , v127
	.byte	W06
	.byte		N09   , Dn1 , v100
	.byte	W12
	.byte		N03   , Cn1 , v120
	.byte	W06
	.byte		N09   , Dn1 , v104
	.byte	W12
	.byte		N04   , Cn1 , v120
	.byte	W06
	.byte		N03   , An1 , v112
	.byte	W06
	.byte		        Dn1 , v124
	.byte	W06
	.byte	PATT
	 .word	seq_002_0 + 0x49
	.byte	PATT
	 .word	seq_002_0 + 0x70
	.byte	PATT
	 .word	seq_002_0 + 0x9C
	.byte	PATT
	 .word	seq_002_0 + 0x1D
	.byte	GOTO
	 .word	seq_002_0 + 0x49
	.byte	W96
	.byte	FINE

@*********************** Track 02 ***********************@

seq_002_1:
	.byte	KEYSH , seq_002_key+0
	.byte	W48
	.byte	W96
	.byte	W96
	.byte	W96
	.byte	W96
	.byte		VOICE , 80
	.byte		VOL   , 64*seq_002_mvl/mxv
	.byte		PAN   , c_v+0
	.byte		BENDR , 12
	.byte		BEND  , c_v+0
	.byte	W12
	.byte		N12   , Gn3 , v080
	.byte		N12   , Bn3 
	.byte	W18
	.byte		N09   , Gn3 , v088
	.byte		N09   , Bn3 
	.byte	W18
	.byte		N17   , Gn3 , v080
	.byte		N17   , Bn3 
	.byte	W18
	.byte		N06   , Gn3 , v088
	.byte		N06   , An3 
	.byte	W19
	.byte		N18   , Gn3 , v080
	.byte		N18   , Cn4 
	.byte	W11
	.byte	W12
	.byte		N12   , Gn3 , v076
	.byte		N12   , Cn4 , v080
	.byte	W18
	.byte		N10   , Gn3 , v088
	.byte		N10   , Cn4 
	.byte	W18
	.byte		N17   , Gn3 , v080
	.byte		N17   , Cn4 
	.byte	W18
	.byte		N07   , Gn3 , v088
	.byte		N07   , Dn4 
	.byte	W18
	.byte		N15   , Gn3 , v080
	.byte		N15   , Dn4 
	.byte	W12
	.byte	PEND
	.byte	W12
	.byte		N12   , Gn3 , v080
	.byte		N12   , Bn3 
	.byte	W18
	.byte		N09   , Gn3 , v088
	.byte		N09   , Bn3 
	.byte	W18
	.byte		N17   , Gn3 , v080
	.byte		N17   , Bn3 
	.byte	W18
	.byte		N06   , Gn3 , v088
	.byte		N06   , An3 
	.byte	W19
	.byte		N18   , Gn3 , v080
	.byte		N18   , Cn4 
	.byte	W11
	.byte	PEND
	.byte	W12
	.byte		N12   , Gn3 , v076
	.byte		N12   , Cn4 , v080
	.byte	W18
	.byte		N10   , Gn3 , v088
	.byte		N10   , Cn4 
	.byte	W18
	.byte		N17   , Gn3 , v080
	.byte		N17   , Cn4 
	.byte	W18
	.byte		N07   , Gn3 , v088
	.byte		N07   , Dn4 
	.byte	W18
	.byte		N15   , Gn3 , v080
	.byte		N15   , Bn3 
	.byte	W12
	.byte	PATT
	 .word	seq_002_1 + 0x51
	.byte	PATT
	 .word	seq_002_1 + 0x30
	.byte	PATT
	 .word	seq_002_1 + 0x51
	.byte	W12
	.byte		N04   , Gn3 , v080
	.byte		N04   , Cn4 , v088
	.byte	W12
	.byte		N16   , Gn3 
	.byte		N16   , Cn4 
	.byte	W24
	.byte		        Gn3 , v080
	.byte		N16   , Cn4 
	.byte	W18
	.byte		N05   , Gn3 , v088
	.byte		N05   , Dn4 
	.byte	W18
	.byte		BEND  , c_v+0
	.byte		N24   , An3 , v092
	.byte		N24   , Dn4 
	.byte	W04
	.byte		BEND  , c_v+0
	.byte	W01
	.byte		        c_v-1
	.byte	W01
	.byte		        c_v-1
	.byte	W01
	.byte		        c_v-2
	.byte	W01
	.byte		        c_v-4
	.byte	W01
	.byte		        c_v-5
	.byte	W01
	.byte		        c_v-7
	.byte	W01
	.byte		        c_v-10
	.byte	W01
	.byte		        c_v-12
	.byte	W01
	.byte		        c_v-16
	.byte	W01
	.byte		        c_v-19
	.byte	W01
	.byte		        c_v-23
	.byte	W01
	.byte		        c_v-27
	.byte	W01
	.byte		        c_v-32
	.byte	W01
	.byte		        c_v-37
	.byte	W01
	.byte		        c_v-42
	.byte	W01
	.byte		        c_v-48
	.byte	W01
	.byte		        c_v-54
	.byte	W01
	.byte		        c_v-61
	.byte	W01
	.byte		        c_v-64
	.byte	W84
	.byte	W01
	.byte	GOTO
	 .word	seq_002_1 + 0x4
	.byte	W96
	.byte	FINE

@*********************** Track 03 ***********************@

seq_002_2:
	.byte	KEYSH , seq_002_key+0
	.byte		VOICE , 55
	.byte		VOL   , 99*seq_002_mvl/mxv
	.byte		PAN   , c_v+0
	.byte	W48
	.byte		N48   , Dn3 , v092
	.byte	W84
	.byte		N06   , Dn3 , v080
	.byte	W06
	.byte		N54   , Dn3 , v064
	.byte	W06
	.byte	PEND
	.byte	W96
	.byte	W84
	.byte		N06   , Dn3 , v080
	.byte	W06
	.byte		N54   , Dn3 , v064
	.byte	W06
	.byte	PEND
	.byte	W96
	.byte	PATT
	 .word	seq_002_2 + 0x9
	.byte	W96
	.byte	PATT
	 .word	seq_002_2 + 0x17
	.byte	W96
	.byte	PATT
	 .word	seq_002_2 + 0x17
	.byte	W96
	.byte	PATT
	 .word	seq_002_2 + 0x17
	.byte	W96
	.byte	PATT
	 .word	seq_002_2 + 0x9
	.byte	GOTO
	 .word	seq_002_2 + 0x16
	.byte	W96
	.byte	FINE

@*********************** Track 04 ***********************@

seq_002_3:
	.byte	KEYSH , seq_002_key+0
	.byte	W48
	.byte	W96
	.byte	W96
	.byte	W96
	.byte	W96
	.byte		VOICE , 102
	.byte		VOL   , 82*seq_002_mvl/mxv
	.byte		PAN   , c_v+63
	.byte		BENDR , 12
	.byte		BEND  , c_v+0
	.byte	W12
	.byte		N12   , Bn2 , v080
	.byte	W18
	.byte		N09   , Bn2 , v088
	.byte	W18
	.byte		N17   , Bn2 , v080
	.byte	W18
	.byte		N06   , An2 , v088
	.byte	W19
	.byte		N18   , Cn3 , v080
	.byte	W11
	.byte	W12
	.byte		N12   , Cn3 , v080
	.byte	W18
	.byte		N10   , Cn3 , v088
	.byte	W18
	.byte		N17   , Cn3 , v080
	.byte	W18
	.byte		N07   , Dn3 , v088
	.byte	W18
	.byte		N15   , Dn3 , v080
	.byte	W12
	.byte	PEND
	.byte	W12
	.byte		N12   , Bn2 , v080
	.byte	W18
	.byte		N09   , Bn2 , v088
	.byte	W18
	.byte		N17   , Bn2 , v080
	.byte	W18
	.byte		N06   , An2 , v088
	.byte	W19
	.byte		N18   , Cn3 , v080
	.byte	W11
	.byte	PEND
	.byte	W12
	.byte		N12
	.byte	W18
	.byte		N10   , Cn3 , v088
	.byte	W18
	.byte		N17   , Cn3 , v080
	.byte	W18
	.byte		N07   , Dn3 , v088
	.byte	W18
	.byte		N15   , Bn2 , v080
	.byte	W12
	.byte	PATT
	 .word	seq_002_3 + 0x3C
	.byte	PATT
	 .word	seq_002_3 + 0x26
	.byte	PATT
	 .word	seq_002_3 + 0x3C
	.byte	W12
	.byte		N04   , Cn3 , v080
	.byte	W12
	.byte		N16   , Cn3 , v088
	.byte	W24
	.byte		        Cn3 , v080
	.byte	W18
	.byte		N05   , Dn3 , v088
	.byte	W18
	.byte		BEND  , c_v+0
	.byte		N15   , Dn3 , v080
	.byte	W04
	.byte		BEND  , c_v+0
	.byte	W01
	.byte		        c_v-1
	.byte	W01
	.byte		        c_v-1
	.byte	W01
	.byte		        c_v-2
	.byte	W01
	.byte		        c_v-4
	.byte	W01
	.byte		        c_v-5
	.byte	W01
	.byte		        c_v-7
	.byte	W01
	.byte		        c_v-10
	.byte	W01
	.byte		        c_v-12
	.byte	W01
	.byte		        c_v-16
	.byte	W01
	.byte		        c_v-19
	.byte	W01
	.byte		        c_v-23
	.byte	W01
	.byte		        c_v-27
	.byte	W01
	.byte		        c_v-32
	.byte	W01
	.byte		        c_v-37
	.byte	W01
	.byte		        c_v-42
	.byte	W01
	.byte		        c_v-48
	.byte	W01
	.byte		        c_v-54
	.byte	W01
	.byte		        c_v-61
	.byte	W01
	.byte		        c_v-64
	.byte	W84
	.byte	W01
	.byte	GOTO
	 .word	seq_002_3 + 0x4
	.byte	W96
	.byte	FINE

@*********************** Track 05 ***********************@

seq_002_4:
	.byte	KEYSH , seq_002_key+0
	.byte	W48
	.byte	W96
	.byte	W96
	.byte	W96
	.byte	W96
	.byte		VOICE , 101
	.byte		VOL   , 82*seq_002_mvl/mxv
	.byte		PAN   , c_v-64
	.byte		BENDR , 12
	.byte		BEND  , c_v+0
	.byte	W12
	.byte		N12   , Gn2 , v080
	.byte	W18
	.byte		N09   , Gn2 , v088
	.byte	W18
	.byte		N17   , Gn2 , v080
	.byte	W18
	.byte		N06   , Gn2 , v088
	.byte	W19
	.byte		N18   , Gn2 , v080
	.byte	W11
	.byte	W12
	.byte		N12   , Gn2 , v076
	.byte	W18
	.byte		N10   , Gn2 , v088
	.byte	W18
	.byte		N17   , Gn2 , v080
	.byte	W18
	.byte		N07   , Gn2 , v088
	.byte	W18
	.byte		N15   , Gn2 , v080
	.byte	W12
	.byte	PEND
	.byte	W12
	.byte		N12   , Gn2 , v080
	.byte	W18
	.byte		N09   , Gn2 , v088
	.byte	W18
	.byte		N17   , Gn2 , v080
	.byte	W18
	.byte		N06   , Gn2 , v088
	.byte	W19
	.byte		N18   , Gn2 , v080
	.byte	W11
	.byte	PEND
	.byte	PATT
	 .word	seq_002_4 + 0x26
	.byte	PATT
	 .word	seq_002_4 + 0x3C
	.byte	PATT
	 .word	seq_002_4 + 0x26
	.byte	PATT
	 .word	seq_002_4 + 0x3C
	.byte	W12
	.byte		N04   , Gn2 , v076
	.byte	W12
	.byte		N16   , Gn2 , v088
	.byte	W24
	.byte		        Gn2 , v080
	.byte	W18
	.byte		N05   , Gn2 , v088
	.byte	W18
	.byte		BEND  , c_v+0
	.byte		N15   , An2 , v080
	.byte	W04
	.byte		BEND  , c_v+0
	.byte	W01
	.byte		        c_v-1
	.byte	W01
	.byte		        c_v-1
	.byte	W01
	.byte		        c_v-2
	.byte	W01
	.byte		        c_v-4
	.byte	W01
	.byte		        c_v-5
	.byte	W01
	.byte		        c_v-7
	.byte	W01
	.byte		        c_v-10
	.byte	W01
	.byte		        c_v-12
	.byte	W01
	.byte		        c_v-16
	.byte	W01
	.byte		        c_v-19
	.byte	W01
	.byte		        c_v-23
	.byte	W01
	.byte		        c_v-27
	.byte	W01
	.byte		        c_v-32
	.byte	W01
	.byte		        c_v-37
	.byte	W01
	.byte		        c_v-42
	.byte	W01
	.byte		        c_v-48
	.byte	W01
	.byte		        c_v-54
	.byte	W01
	.byte		        c_v-61
	.byte	W01
	.byte		        c_v-64
	.byte	W84
	.byte	W01
	.byte	GOTO
	 .word	seq_002_4 + 0x4
	.byte	W96
	.byte	FINE

@*********************** Track 06 ***********************@

seq_002_5:
	.byte	KEYSH , seq_002_key+0
	.byte		VOICE , 103
	.byte		VOL   , 66*seq_002_mvl/mxv
	.byte		PAN   , c_v+63
	.byte		BEND  , c_v+0
	.byte	W48
	.byte		N03   , Dn2 , v127
	.byte	W12
	.byte		N07
	.byte	W12
	.byte		N03   , Cn2 
	.byte	W06
	.byte		N07   , Dn2 
	.byte	W12
	.byte		N03   , Cn2 
	.byte	W06
	.byte		N09   , Dn2 
	.byte	W12
	.byte		N03   , Cn2 
	.byte	W06
	.byte		N09   , Dn2 
	.byte	W12
	.byte		N04   , Cn2 
	.byte	W06
	.byte		N03   , An2 
	.byte	W06
	.byte		        Dn2 
	.byte	W06
	.byte	PEND
	.byte		N03   , Dn2 , v127
	.byte	W12
	.byte		N07
	.byte	W12
	.byte		N03   , Cn2 
	.byte	W06
	.byte		N07   , Dn2 
	.byte	W12
	.byte		N03   , Cn2 
	.byte	W06
	.byte		        Cn3 
	.byte	W06
	.byte		N06   , Cn2 
	.byte	W12
	.byte		N06
	.byte	W12
	.byte		N06
	.byte	W06
	.byte		        Dn2 
	.byte	W06
	.byte		N04   , Cn2 
	.byte	W06
	.byte	PEND
	.byte	PATT
	 .word	seq_002_5 + 0xB
	.byte	PATT
	 .word	seq_002_5 + 0x2C
	.byte		VOL   , 66*seq_002_mvl/mxv
	.byte		N03   , Dn2 , v127
	.byte	W12
	.byte		N07
	.byte	W12
	.byte		N03   , Cn2 
	.byte	W06
	.byte		N07   , Dn2 
	.byte	W12
	.byte		N03   , Cn2 
	.byte	W06
	.byte		N09   , Dn2 
	.byte	W12
	.byte		N03   , Cn2 
	.byte	W06
	.byte		N09   , Dn2 
	.byte	W12
	.byte		N04   , Cn2 
	.byte	W06
	.byte		N03   , An2 
	.byte	W06
	.byte		        Dn2 
	.byte	W06
	.byte	PEND
	.byte	PATT
	 .word	seq_002_5 + 0x2C
	.byte	PATT
	 .word	seq_002_5 + 0xB
	.byte	PATT
	 .word	seq_002_5 + 0x2C
	.byte	PATT
	 .word	seq_002_5 + 0xB
	.byte	PATT
	 .word	seq_002_5 + 0x2C
	.byte	PATT
	 .word	seq_002_5 + 0xB
	.byte	PATT
	 .word	seq_002_5 + 0x2C
	.byte	PATT
	 .word	seq_002_5 + 0x54
	.byte	GOTO
	 .word	seq_002_5 + 0x2C
	.byte	W96
	.byte	FINE

@*********************** Track 07 ***********************@

seq_002_6:
	.byte	KEYSH , seq_002_key+0
	.byte		VOICE , 127
	.byte		VOL   , 110*seq_002_mvl/mxv
	.byte		N12   , DsM2, v080
	.byte	W06
	.byte		        CsM2, v127
	.byte		N42   , An2 , v072
	.byte	W12
	.byte		N12   , CsM2, v127
	.byte	W12
	.byte		N12
	.byte	W12
	.byte		N06   , CsM2, v112
	.byte	W06
	.byte		N12   , DnM2, v112
	.byte		N48   , An2 , v068
	.byte	W12
	.byte		N12   , DnM2, v092
	.byte	W12
	.byte		        DsM2
	.byte	W24
	.byte		        DnM2, v112
	.byte	W12
	.byte		        DnM2, v096
	.byte	W12
	.byte		        DsM2, v092
	.byte	W18
	.byte		        DnM2, v120
	.byte	W06
	.byte	PEND
	.byte	W13
	.byte		N12   , DnM2, v112
	.byte	W11
	.byte		        DsM2, v092
	.byte	W07
	.byte		N11   , DnM2
	.byte	W11
	.byte		N06   , DnM2, v112
	.byte	W05
	.byte		N12   , DsM2, v080
	.byte	W07
	.byte		        CsM2, v127
	.byte	W12
	.byte		N12
	.byte	W12
	.byte		N12
	.byte	W12
	.byte		N06   , CsM2, v112
	.byte	W06
	.byte	PEND
	.byte		N12   , DnM2, v116
	.byte		N48   , An2 , v060
	.byte	W12
	.byte		N12   , DnM2, v092
	.byte	W12
	.byte		        DsM2
	.byte	W24
	.byte		        DnM2, v112
	.byte	W12
	.byte		        DnM2, v096
	.byte	W12
	.byte		        DsM2, v092
	.byte	W18
	.byte		        DnM2, v120
	.byte	W06
	.byte	W12
	.byte		N12   , DnM2, v120
	.byte	W12
	.byte		        DsM2, v092
	.byte	W06
	.byte		N06   , DnM2, v112
	.byte	W06
	.byte		N12   , DnM2, v120
	.byte	W13
	.byte		N05   , DsM2, v080
	.byte	W05
	.byte		N12   , DsM2, v060
	.byte	W06
	.byte		        CsM2, v120
	.byte	W12
	.byte		        CsM2, v127
	.byte	W12
	.byte		N06   , DsM2, v084
	.byte	W06
	.byte		        DsM2, v064
	.byte	W06
	.byte	PEND
	.byte		N12   , DnM2, v112
	.byte		N24   , An2 , v056
	.byte	W12
	.byte		N12   , DnM2, v092
	.byte	W12
	.byte		        DsM2
	.byte	W24
	.byte		        DnM2, v112
	.byte	W12
	.byte		        DnM2, v096
	.byte	W12
	.byte		        DsM2, v092
	.byte	W18
	.byte		        DnM2, v120
	.byte	W06
	.byte	PEND
	.byte	PATT
	 .word	seq_002_6 + 0x34
	.byte		N12   , DnM2, v116
	.byte	W12
	.byte		        DnM2, v092
	.byte	W12
	.byte		        DsM2
	.byte	W24
	.byte		        DnM2, v112
	.byte	W12
	.byte		        DnM2, v096
	.byte	W12
	.byte		        DsM2, v092
	.byte	W18
	.byte		        DnM2, v120
	.byte	W06
	.byte	PEND
	.byte	PATT
	 .word	seq_002_6 + 0x6C
	.byte	PATT
	 .word	seq_002_6 + 0x92
	.byte	PATT
	 .word	seq_002_6 + 0x34
	.byte	PATT
	 .word	seq_002_6 + 0xB1
	.byte	W12
	.byte		N12   , DnM2, v120
	.byte	W12
	.byte		        DsM2, v092
	.byte	W06
	.byte		N06   , DnM2, v112
	.byte	W06
	.byte		N12   , DnM2, v120
	.byte	W13
	.byte		N05   , DsM2, v080
	.byte	W05
	.byte		N12   , DsM2, v060
	.byte	W06
	.byte		        CsM2, v120
	.byte	W06
	.byte		N06   , DsM2, v084
	.byte	W06
	.byte		N12   , CsM2, v127
	.byte	W12
	.byte		N06   , DsM2, v084
	.byte	W06
	.byte		        DsM2, v064
	.byte	W06
	.byte	PATT
	 .word	seq_002_6 + 0x1A
	.byte	GOTO
	 .word	seq_002_6 + 0x34
	.byte	W96
	.byte	FINE

@*********************** Track 08 ***********************@

seq_002_7:
	.byte	KEYSH , seq_002_key+0
	.byte	W48
	.byte		VOICE , 127
	.byte		VOL   , 103*seq_002_mvl/mxv
	.byte		PAN   , c_v-64
	.byte		N01   , Dn6 , v052
	.byte	W06
	.byte		        Dn6 , v028
	.byte	W06
	.byte		        Dn6 , v048
	.byte	W06
	.byte		        Dn6 , v032
	.byte	W06
	.byte		        Dn6 , v048
	.byte	W06
	.byte		        Dn6 , v056
	.byte	W06
	.byte		        Dn6 , v028
	.byte	W06
	.byte		        Dn6 , v040
	.byte	W06
	.byte		        Dn6 , v052
	.byte	W06
	.byte		        Dn6 , v032
	.byte	W06
	.byte		        Dn6 , v056
	.byte	W06
	.byte		        Dn6 , v036
	.byte	W06
	.byte		        Dn6 , v048
	.byte	W06
	.byte		        Dn6 , v032
	.byte	W06
	.byte		N05   , Ds6 , v036
	.byte	W06
	.byte		N01   , Dn6 , v048
	.byte	W06
	.byte		N01   , Dn6 , v052
	.byte	W06
	.byte		        Dn6 , v028
	.byte	W06
	.byte		        Dn6 , v048
	.byte	W06
	.byte		        Dn6 , v032
	.byte	W06
	.byte		        Dn6 , v048
	.byte	W06
	.byte		        Dn6 , v056
	.byte	W06
	.byte		        Dn6 , v028
	.byte	W06
	.byte		        Dn6 , v040
	.byte	W06
	.byte		        Dn6 , v052
	.byte	W06
	.byte		        Dn6 , v032
	.byte	W06
	.byte		        Dn6 , v056
	.byte	W06
	.byte		        Dn6 , v036
	.byte	W06
	.byte		        Dn6 , v048
	.byte	W06
	.byte		        Dn6 , v032
	.byte	W06
	.byte		        Dn6 , v052
	.byte	W06
	.byte		        Dn6 , v036
	.byte	W06
	.byte	PEND
	.byte		N01   , Dn6 , v052
	.byte	W06
	.byte		        Dn6 , v028
	.byte	W06
	.byte		        Dn6 , v048
	.byte	W06
	.byte		        Dn6 , v032
	.byte	W06
	.byte		        Dn6 , v048
	.byte	W06
	.byte		        Dn6 , v056
	.byte	W06
	.byte		        Dn6 , v028
	.byte	W06
	.byte		        Dn6 , v040
	.byte	W06
	.byte		        Dn6 , v052
	.byte	W06
	.byte		        Dn6 , v032
	.byte	W06
	.byte		        Dn6 , v056
	.byte	W06
	.byte		        Dn6 , v036
	.byte	W06
	.byte		        Dn6 , v048
	.byte	W06
	.byte		        Dn6 , v032
	.byte	W06
	.byte		N05   , Ds6 , v036
	.byte	W06
	.byte		N01   , Dn6 , v048
	.byte	W06
	.byte	PEND
	.byte	PATT
	 .word	seq_002_7 + 0x3C
	.byte	PATT
	 .word	seq_002_7 + 0x6E
	.byte	PATT
	 .word	seq_002_7 + 0x3C
	.byte	PATT
	 .word	seq_002_7 + 0x6E
	.byte	PATT
	 .word	seq_002_7 + 0x3C
	.byte	PATT
	 .word	seq_002_7 + 0x6E
	.byte	PATT
	 .word	seq_002_7 + 0x3C
	.byte	PATT
	 .word	seq_002_7 + 0x6E
	.byte	PATT
	 .word	seq_002_7 + 0x3C
	.byte	PATT
	 .word	seq_002_7 + 0x6E
	.byte	GOTO
	 .word	seq_002_7 + 0x3C
	.byte	W96
	.byte	FINE

@******************************************************@

	.align	2

seq_002:
	.byte	8	@ NumTrks
	.byte	0	@ NumBlks
	.byte	seq_002_pri	@ Priority
	.byte	seq_002_rev	@ Reverb

	.word	seq_002_grp

	.word	seq_002_0
	.word	seq_002_1
	.word	seq_002_2
	.word	seq_002_3
	.word	seq_002_4
	.word	seq_002_5
	.word	seq_002_6
	.word	seq_002_7

	.end
