@ File generated by m4a2s Song-Module
	.include "MPlayDef.s"

	.equ	seq_004_grp, bank_003
	.equ	seq_004_pri, 0
	.equ	seq_004_rev, 0
	.equ	seq_004_mvl, 127
	.equ	seq_004_key, 0

	.section .rodata
	.global	seq_004
	.align	2

@*********************** Track 01 ***********************@

seq_004_0:
	.byte	KEYSH , seq_004_key+0
	.byte	TEMPO , 136/2
	.byte		VOICE , 61
	.byte		VOL   , 95*seq_004_mvl/mxv
	.byte		PAN   , c_v-25
	.byte		BENDR , 0
	.byte		MOD   , 0
	.byte		BEND  , c_v+0
	.byte	W24
	.byte		N03   , En4 , v127
	.byte	W06
	.byte		N04   , En4 , v112
	.byte	W12
	.byte		N02   , Dn4 , v104
	.byte	W06
	.byte		N03   , Dn4 , v120
	.byte	W12
	.byte		N60   , En4 , v116
	.byte	W03
	.byte		VOL   , 93*seq_004_mvl/mxv
	.byte	W01
	.byte		        91*seq_004_mvl/mxv
	.byte	W01
	.byte		        89*seq_004_mvl/mxv
	.byte	W01
	.byte		        84*seq_004_mvl/mxv
	.byte	W01
	.byte		        78*seq_004_mvl/mxv
	.byte	W01
	.byte		        71*seq_004_mvl/mxv
	.byte	W01
	.byte		        69*seq_004_mvl/mxv
	.byte	W03
	.byte		        71*seq_004_mvl/mxv
	.byte	W01
	.byte		        71*seq_004_mvl/mxv
	.byte	W01
	.byte		        73*seq_004_mvl/mxv
	.byte	W01
	.byte		        74*seq_004_mvl/mxv
	.byte	W01
	.byte		        76*seq_004_mvl/mxv
	.byte	W01
	.byte		        77*seq_004_mvl/mxv
	.byte	W01
	.byte		        78*seq_004_mvl/mxv
	.byte	W02
	.byte		        79*seq_004_mvl/mxv
	.byte	W01
	.byte		        80*seq_004_mvl/mxv
	.byte	W01
	.byte		        82*seq_004_mvl/mxv
	.byte	W01
	.byte		        83*seq_004_mvl/mxv
	.byte	W01
	.byte		        84*seq_004_mvl/mxv
	.byte	W01
	.byte		        84*seq_004_mvl/mxv
	.byte	W02
	.byte		        85*seq_004_mvl/mxv
	.byte	W01
	.byte		        87*seq_004_mvl/mxv
	.byte	W01
	.byte		        88*seq_004_mvl/mxv
	.byte	W01
	.byte		        89*seq_004_mvl/mxv
	.byte	W01
	.byte		        90*seq_004_mvl/mxv
	.byte	W01
	.byte		        90*seq_004_mvl/mxv
	.byte	W03
	.byte		        91*seq_004_mvl/mxv
	.byte	W01
	.byte		        92*seq_004_mvl/mxv
	.byte		BEND  , c_v+0
	.byte	W01
	.byte		VOL   , 93*seq_004_mvl/mxv
	.byte		BEND  , c_v-1
	.byte	W01
	.byte		VOL   , 94*seq_004_mvl/mxv
	.byte		BEND  , c_v-1
	.byte	W01
	.byte		        c_v-1
	.byte	W01
	.byte		VOL   , 95*seq_004_mvl/mxv
	.byte		BEND  , c_v-2
	.byte	W01
	.byte		        c_v-2
	.byte	W01
	.byte		VOL   , 96*seq_004_mvl/mxv
	.byte		BEND  , c_v-3
	.byte	W02
	.byte		VOL   , 97*seq_004_mvl/mxv
	.byte		BEND  , c_v-4
	.byte	W01
	.byte		        c_v-5
	.byte	W01
	.byte		VOL   , 97*seq_004_mvl/mxv
	.byte		BEND  , c_v-7
	.byte	W01
	.byte		        c_v-8
	.byte	W01
	.byte		        c_v-9
	.byte	W01
	.byte		VOL   , 98*seq_004_mvl/mxv
	.byte		BEND  , c_v-11
	.byte	W02
	.byte		        c_v-13
	.byte	W01
	.byte		VOL   , 99*seq_004_mvl/mxv
	.byte		BEND  , c_v-15
	.byte	W01
	.byte		        c_v-17
	.byte	W01
	.byte		        c_v-20
	.byte	W01
	.byte		        c_v-22
	.byte	W01
	.byte		        c_v-25
	.byte	W01
	.byte		        c_v-27
	.byte	W02
	.byte		        c_v-30
	.byte	W01
	.byte		VOL   , 100*seq_004_mvl/mxv
	.byte		BEND  , c_v-32
	.byte	W96
	.byte	FINE

@*********************** Track 02 ***********************@

seq_004_1:
	.byte	KEYSH , seq_004_key+0
	.byte		VOICE , 61
	.byte		VOL   , 95*seq_004_mvl/mxv
	.byte		PAN   , c_v+25
	.byte		BENDR , 0
	.byte		MOD   , 0
	.byte		BEND  , c_v+0
	.byte	W24
	.byte		N03   , Gs3 , v120
	.byte	W06
	.byte		N04   , Gs3 , v104
	.byte	W12
	.byte		N02   , Fs3 , v100
	.byte	W06
	.byte		N03   , Fs3 , v112
	.byte	W12
	.byte		N60   , Gs3 , v108
	.byte	W03
	.byte		VOL   , 93*seq_004_mvl/mxv
	.byte	W01
	.byte		        91*seq_004_mvl/mxv
	.byte	W01
	.byte		        89*seq_004_mvl/mxv
	.byte	W01
	.byte		        84*seq_004_mvl/mxv
	.byte	W01
	.byte		        78*seq_004_mvl/mxv
	.byte	W01
	.byte		        71*seq_004_mvl/mxv
	.byte	W01
	.byte		        69*seq_004_mvl/mxv
	.byte	W03
	.byte		        71*seq_004_mvl/mxv
	.byte	W01
	.byte		        71*seq_004_mvl/mxv
	.byte	W01
	.byte		        73*seq_004_mvl/mxv
	.byte	W01
	.byte		        74*seq_004_mvl/mxv
	.byte	W01
	.byte		        76*seq_004_mvl/mxv
	.byte	W01
	.byte		        77*seq_004_mvl/mxv
	.byte	W01
	.byte		        78*seq_004_mvl/mxv
	.byte	W02
	.byte		        79*seq_004_mvl/mxv
	.byte	W01
	.byte		        80*seq_004_mvl/mxv
	.byte	W01
	.byte		        82*seq_004_mvl/mxv
	.byte	W01
	.byte		        83*seq_004_mvl/mxv
	.byte	W01
	.byte		        84*seq_004_mvl/mxv
	.byte	W01
	.byte		        84*seq_004_mvl/mxv
	.byte	W02
	.byte		        85*seq_004_mvl/mxv
	.byte	W01
	.byte		        87*seq_004_mvl/mxv
	.byte	W01
	.byte		        88*seq_004_mvl/mxv
	.byte	W01
	.byte		        89*seq_004_mvl/mxv
	.byte	W01
	.byte		        90*seq_004_mvl/mxv
	.byte	W01
	.byte		        90*seq_004_mvl/mxv
	.byte	W03
	.byte		        91*seq_004_mvl/mxv
	.byte	W01
	.byte		        92*seq_004_mvl/mxv
	.byte		BEND  , c_v+0
	.byte	W01
	.byte		VOL   , 93*seq_004_mvl/mxv
	.byte		BEND  , c_v-1
	.byte	W01
	.byte		VOL   , 94*seq_004_mvl/mxv
	.byte		BEND  , c_v-1
	.byte	W01
	.byte		        c_v-1
	.byte	W01
	.byte		VOL   , 95*seq_004_mvl/mxv
	.byte		BEND  , c_v-2
	.byte	W01
	.byte		        c_v-2
	.byte	W01
	.byte		VOL   , 96*seq_004_mvl/mxv
	.byte		BEND  , c_v-3
	.byte	W02
	.byte		VOL   , 97*seq_004_mvl/mxv
	.byte		BEND  , c_v-4
	.byte	W01
	.byte		        c_v-5
	.byte	W01
	.byte		VOL   , 97*seq_004_mvl/mxv
	.byte		BEND  , c_v-7
	.byte	W01
	.byte		        c_v-8
	.byte	W01
	.byte		        c_v-9
	.byte	W01
	.byte		VOL   , 98*seq_004_mvl/mxv
	.byte		BEND  , c_v-11
	.byte	W02
	.byte		        c_v-13
	.byte	W01
	.byte		VOL   , 99*seq_004_mvl/mxv
	.byte		BEND  , c_v-15
	.byte	W01
	.byte		        c_v-17
	.byte	W01
	.byte		        c_v-20
	.byte	W01
	.byte		        c_v-22
	.byte	W01
	.byte		        c_v-25
	.byte	W01
	.byte		        c_v-27
	.byte	W02
	.byte		        c_v-30
	.byte	W01
	.byte		VOL   , 100*seq_004_mvl/mxv
	.byte		BEND  , c_v-32
	.byte	W96
	.byte	FINE

@*********************** Track 03 ***********************@

seq_004_2:
	.byte	KEYSH , seq_004_key+0
	.byte		VOICE , 34
	.byte		VOL   , 110*seq_004_mvl/mxv
	.byte		PAN   , c_v+0
	.byte		BENDR , 0
	.byte		MOD   , 0
	.byte		BEND  , c_v+0
	.byte	W24
	.byte		N04   , Bn0 , v120
	.byte	W06
	.byte		N07   , Bn0 , v108
	.byte	W12
	.byte		N04   , An0 
	.byte	W18
	.byte		N52   , Bn0 , v104
	.byte	W36
	.byte		BEND  , c_v+0
	.byte	W01
	.byte		        c_v-1
	.byte	W01
	.byte		        c_v-1
	.byte	W01
	.byte		        c_v-1
	.byte	W01
	.byte		        c_v-2
	.byte	W01
	.byte		        c_v-2
	.byte	W01
	.byte		        c_v-3
	.byte	W02
	.byte		        c_v-4
	.byte	W01
	.byte		        c_v-5
	.byte	W01
	.byte		        c_v-7
	.byte	W01
	.byte		        c_v-8
	.byte	W01
	.byte		        c_v-9
	.byte	W01
	.byte		        c_v-11
	.byte	W02
	.byte		        c_v-13
	.byte	W01
	.byte		        c_v-15
	.byte	W01
	.byte		        c_v-17
	.byte	W01
	.byte		        c_v-20
	.byte	W01
	.byte		        c_v-22
	.byte	W01
	.byte		        c_v-25
	.byte	W01
	.byte		        c_v-27
	.byte	W02
	.byte		        c_v-30
	.byte	W01
	.byte		        c_v-32
	.byte	W96
	.byte	FINE

@*********************** Track 04 ***********************@

seq_004_3:
	.byte	KEYSH , seq_004_key+0
	.byte		VOICE , 19
	.byte		VOL   , 77*seq_004_mvl/mxv
	.byte		PAN   , c_v+30
	.byte		MOD   , 0
	.byte		BEND  , c_v+0
	.byte	W12
	.byte		N01   , Dn3 , v048
	.byte	W01
	.byte		        En3 , v068
	.byte	W02
	.byte		        Fs3 , v076
	.byte	W01
	.byte		        Gs3 , v068
	.byte	W02
	.byte		        An3 , v088
	.byte	W01
	.byte		        Bn3 , v096
	.byte	W02
	.byte		        Cs4 , v080
	.byte	W01
	.byte		        Dn4 , v108
	.byte	W02
	.byte		N16   , En4 , v072
	.byte	W36
	.byte		N60   , En4 , v076
	.byte	W07
	.byte		VOL   , 77*seq_004_mvl/mxv
	.byte	W01
	.byte		        77*seq_004_mvl/mxv
	.byte	W01
	.byte		        76*seq_004_mvl/mxv
	.byte	W01
	.byte		        74*seq_004_mvl/mxv
	.byte	W01
	.byte		        72*seq_004_mvl/mxv
	.byte	W01
	.byte		MOD   , 2
	.byte		VOL   , 69*seq_004_mvl/mxv
	.byte	W01
	.byte		        65*seq_004_mvl/mxv
	.byte	W02
	.byte		        61*seq_004_mvl/mxv
	.byte	W01
	.byte		        57*seq_004_mvl/mxv
	.byte	W01
	.byte		        51*seq_004_mvl/mxv
	.byte	W01
	.byte		        45*seq_004_mvl/mxv
	.byte	W01
	.byte		        43*seq_004_mvl/mxv
	.byte	W02
	.byte		        45*seq_004_mvl/mxv
	.byte	W01
	.byte		        47*seq_004_mvl/mxv
	.byte		MOD   , 3
	.byte	W01
	.byte		VOL   , 50*seq_004_mvl/mxv
	.byte	W01
	.byte		        52*seq_004_mvl/mxv
	.byte	W01
	.byte		        55*seq_004_mvl/mxv
	.byte	W01
	.byte		MOD   , 4
	.byte		VOL   , 58*seq_004_mvl/mxv
	.byte	W01
	.byte		        60*seq_004_mvl/mxv
	.byte	W02
	.byte		        63*seq_004_mvl/mxv
	.byte	W01
	.byte		        65*seq_004_mvl/mxv
	.byte		MOD   , 5
	.byte	W01
	.byte		VOL   , 67*seq_004_mvl/mxv
	.byte	W01
	.byte		        70*seq_004_mvl/mxv
	.byte	W01
	.byte		MOD   , 6
	.byte		VOL   , 71*seq_004_mvl/mxv
	.byte	W01
	.byte		        73*seq_004_mvl/mxv
	.byte	W01
	.byte		MOD   , 7
	.byte	W01
	.byte		VOL   , 76*seq_004_mvl/mxv
	.byte	W01
	.byte		        77*seq_004_mvl/mxv
	.byte		MOD   , 8
	.byte	W01
	.byte		VOL   , 79*seq_004_mvl/mxv
	.byte	W01
	.byte		MOD   , 9
	.byte		VOL   , 80*seq_004_mvl/mxv
	.byte	W01
	.byte		        82*seq_004_mvl/mxv
	.byte	W01
	.byte		MOD   , 10
	.byte		VOL   , 84*seq_004_mvl/mxv
	.byte	W01
	.byte		        84*seq_004_mvl/mxv
	.byte	W01
	.byte		MOD   , 11
	.byte	W01
	.byte		VOL   , 86*seq_004_mvl/mxv
	.byte	W01
	.byte		MOD   , 12
	.byte		VOL   , 87*seq_004_mvl/mxv
	.byte	W01
	.byte		MOD   , 13
	.byte		VOL   , 88*seq_004_mvl/mxv
	.byte	W01
	.byte		        90*seq_004_mvl/mxv
	.byte	W01
	.byte		MOD   , 14
	.byte		VOL   , 90*seq_004_mvl/mxv
	.byte	W01
	.byte		MOD   , 15
	.byte		VOL   , 91*seq_004_mvl/mxv
	.byte	W02
	.byte		MOD   , 17
	.byte	W01
	.byte		VOL   , 92*seq_004_mvl/mxv
	.byte	W01
	.byte		        93*seq_004_mvl/mxv
	.byte		MOD   , 18
	.byte	W01
	.byte		        19
	.byte	W01
	.byte		        20
	.byte		VOL   , 94*seq_004_mvl/mxv
	.byte	W05
	.byte		        95*seq_004_mvl/mxv
	.byte	W96
	.byte	FINE

@*********************** Track 05 ***********************@

seq_004_4:
	.byte	KEYSH , seq_004_key+0
	.byte		VOICE , 101
	.byte		VOL   , 83*seq_004_mvl/mxv
	.byte		PAN   , c_v+63
	.byte		MOD   , 0
	.byte		LFODL , 5
	.byte		BEND  , c_v+0
	.byte	W24
	.byte		N16   , Bn3 , v064
	.byte	W36
	.byte		N60   , Bn3 , v076
	.byte	W07
	.byte		VOL   , 77*seq_004_mvl/mxv
	.byte	W01
	.byte		        77*seq_004_mvl/mxv
	.byte	W01
	.byte		        76*seq_004_mvl/mxv
	.byte	W01
	.byte		        74*seq_004_mvl/mxv
	.byte	W01
	.byte		        72*seq_004_mvl/mxv
	.byte	W01
	.byte		MOD   , 2
	.byte		VOL   , 69*seq_004_mvl/mxv
	.byte	W01
	.byte		        65*seq_004_mvl/mxv
	.byte	W02
	.byte		        61*seq_004_mvl/mxv
	.byte	W01
	.byte		        57*seq_004_mvl/mxv
	.byte	W01
	.byte		        51*seq_004_mvl/mxv
	.byte	W01
	.byte		        45*seq_004_mvl/mxv
	.byte	W01
	.byte		        43*seq_004_mvl/mxv
	.byte	W02
	.byte		        45*seq_004_mvl/mxv
	.byte	W01
	.byte		        47*seq_004_mvl/mxv
	.byte		MOD   , 3
	.byte	W01
	.byte		VOL   , 50*seq_004_mvl/mxv
	.byte	W01
	.byte		        52*seq_004_mvl/mxv
	.byte	W01
	.byte		        55*seq_004_mvl/mxv
	.byte	W01
	.byte		        58*seq_004_mvl/mxv
	.byte	W01
	.byte		        60*seq_004_mvl/mxv
	.byte	W02
	.byte		        63*seq_004_mvl/mxv
	.byte		MOD   , 4
	.byte	W01
	.byte		VOL   , 65*seq_004_mvl/mxv
	.byte	W01
	.byte		        67*seq_004_mvl/mxv
	.byte	W01
	.byte		        70*seq_004_mvl/mxv
	.byte		MOD   , 6
	.byte	W01
	.byte		VOL   , 71*seq_004_mvl/mxv
	.byte	W01
	.byte		        73*seq_004_mvl/mxv
	.byte	W02
	.byte		        76*seq_004_mvl/mxv
	.byte		MOD   , 7
	.byte	W01
	.byte		VOL   , 77*seq_004_mvl/mxv
	.byte	W01
	.byte		        79*seq_004_mvl/mxv
	.byte	W01
	.byte		        80*seq_004_mvl/mxv
	.byte		MOD   , 9
	.byte	W01
	.byte		VOL   , 82*seq_004_mvl/mxv
	.byte	W01
	.byte		        84*seq_004_mvl/mxv
	.byte	W01
	.byte		        84*seq_004_mvl/mxv
	.byte	W01
	.byte		MOD   , 11
	.byte	W01
	.byte		VOL   , 86*seq_004_mvl/mxv
	.byte	W01
	.byte		        87*seq_004_mvl/mxv
	.byte	W01
	.byte		        88*seq_004_mvl/mxv
	.byte		MOD   , 13
	.byte	W01
	.byte		VOL   , 90*seq_004_mvl/mxv
	.byte	W01
	.byte		        90*seq_004_mvl/mxv
	.byte	W01
	.byte		        91*seq_004_mvl/mxv
	.byte	W01
	.byte		MOD   , 16
	.byte	W02
	.byte		VOL   , 92*seq_004_mvl/mxv
	.byte	W01
	.byte		        93*seq_004_mvl/mxv
	.byte		MOD   , 18
	.byte	W02
	.byte		        20
	.byte		VOL   , 94*seq_004_mvl/mxv
	.byte	W05
	.byte		        95*seq_004_mvl/mxv
	.byte	W96
	.byte	FINE

@*********************** Track 06 ***********************@

seq_004_5:
	.byte	KEYSH , seq_004_key+0
	.byte		VOICE , 102
	.byte		VOL   , 83*seq_004_mvl/mxv
	.byte		PAN   , c_v-64
	.byte		MOD   , 0
	.byte		LFODL , 5
	.byte		BEND  , c_v+0
	.byte	W24
	.byte		N16   , Gs3 , v064
	.byte	W36
	.byte		N60   , Gs3 , v072
	.byte	W07
	.byte		VOL   , 77*seq_004_mvl/mxv
	.byte	W01
	.byte		        77*seq_004_mvl/mxv
	.byte	W01
	.byte		        76*seq_004_mvl/mxv
	.byte	W01
	.byte		        74*seq_004_mvl/mxv
	.byte	W01
	.byte		        72*seq_004_mvl/mxv
	.byte	W01
	.byte		MOD   , 2
	.byte		VOL   , 69*seq_004_mvl/mxv
	.byte	W01
	.byte		        65*seq_004_mvl/mxv
	.byte	W02
	.byte		        61*seq_004_mvl/mxv
	.byte	W01
	.byte		        57*seq_004_mvl/mxv
	.byte	W01
	.byte		        51*seq_004_mvl/mxv
	.byte	W01
	.byte		        45*seq_004_mvl/mxv
	.byte	W01
	.byte		        43*seq_004_mvl/mxv
	.byte	W02
	.byte		        45*seq_004_mvl/mxv
	.byte	W01
	.byte		        47*seq_004_mvl/mxv
	.byte		MOD   , 3
	.byte	W01
	.byte		VOL   , 50*seq_004_mvl/mxv
	.byte	W01
	.byte		        52*seq_004_mvl/mxv
	.byte	W01
	.byte		        55*seq_004_mvl/mxv
	.byte	W01
	.byte		        58*seq_004_mvl/mxv
	.byte	W01
	.byte		        60*seq_004_mvl/mxv
	.byte	W02
	.byte		        63*seq_004_mvl/mxv
	.byte		MOD   , 4
	.byte	W01
	.byte		VOL   , 65*seq_004_mvl/mxv
	.byte	W01
	.byte		        67*seq_004_mvl/mxv
	.byte	W01
	.byte		        70*seq_004_mvl/mxv
	.byte		MOD   , 6
	.byte	W01
	.byte		VOL   , 71*seq_004_mvl/mxv
	.byte	W01
	.byte		        73*seq_004_mvl/mxv
	.byte	W02
	.byte		        76*seq_004_mvl/mxv
	.byte		MOD   , 7
	.byte	W01
	.byte		VOL   , 77*seq_004_mvl/mxv
	.byte	W01
	.byte		        79*seq_004_mvl/mxv
	.byte	W01
	.byte		        80*seq_004_mvl/mxv
	.byte		MOD   , 9
	.byte	W01
	.byte		VOL   , 82*seq_004_mvl/mxv
	.byte	W01
	.byte		        84*seq_004_mvl/mxv
	.byte	W01
	.byte		        84*seq_004_mvl/mxv
	.byte	W01
	.byte		MOD   , 11
	.byte	W01
	.byte		VOL   , 86*seq_004_mvl/mxv
	.byte	W01
	.byte		        87*seq_004_mvl/mxv
	.byte	W01
	.byte		        88*seq_004_mvl/mxv
	.byte		MOD   , 13
	.byte	W01
	.byte		VOL   , 90*seq_004_mvl/mxv
	.byte	W01
	.byte		        90*seq_004_mvl/mxv
	.byte	W01
	.byte		        91*seq_004_mvl/mxv
	.byte	W01
	.byte		MOD   , 16
	.byte	W02
	.byte		VOL   , 92*seq_004_mvl/mxv
	.byte	W01
	.byte		        93*seq_004_mvl/mxv
	.byte		MOD   , 18
	.byte	W02
	.byte		        20
	.byte		VOL   , 94*seq_004_mvl/mxv
	.byte	W05
	.byte		        95*seq_004_mvl/mxv
	.byte	W96
	.byte	FINE

@*********************** Track 07 ***********************@

seq_004_6:
	.byte		VOL   , 110*seq_004_mvl/mxv
	.byte	KEYSH , seq_004_key+0
	.byte		VOICE , 127
	.byte	W12
	.byte		N03   , Dn1 , v100
	.byte	W06
	.byte		        Dn1 , v076
	.byte	W06
	.byte		VOL   , 99*seq_004_mvl/mxv
	.byte		N06   , Dn1 , v116
	.byte	W06
	.byte		N12   , Dn1 , v084
	.byte	W12
	.byte		        Dn1 , v100
	.byte	W18
	.byte		        Dn1 , v127
	.byte	W36
	.byte	W02
	.byte		N04   , Cn2 , v060
	.byte	W05
	.byte		        Bn1 , v084
	.byte	W05
	.byte		        An1 , v100
	.byte	W06
	.byte		N05   , Cn1 
	.byte		N04   , Gn1 , v104
	.byte	W06
	.byte	W96
	.byte	FINE

@******************************************************@

	.align	2

seq_004:
	.byte	7	@ NumTrks
	.byte	0	@ NumBlks
	.byte	seq_004_pri	@ Priority
	.byte	seq_004_rev	@ Reverb

	.word	seq_004_grp

	.word	seq_004_0
	.word	seq_004_1
	.word	seq_004_2
	.word	seq_004_3
	.word	seq_004_4
	.word	seq_004_5
	.word	seq_004_6

	.end
