@ File generated by m4a2s Song-Module
	.include "MPlayDef.s"

	.equ	seq_056_grp, bank_041
	.equ	seq_056_pri, 0
	.equ	seq_056_rev, 148
	.equ	seq_056_mvl, 127
	.equ	seq_056_key, 0

	.section .rodata
	.global	seq_056
	.align	2

@*********************** Track 01 ***********************@

seq_056_0:
	.byte	KEYSH , seq_056_key+0
	.byte	TEMPO , 144/2
	.byte		VOICE , 33
	.byte		VOL   , 110*seq_056_mvl/mxv
	.byte		PAN   , c_v+0
	.byte		N14   , Gn1 , v120
	.byte	W24
	.byte		        Fs1 , v112
	.byte	W24
	.byte		        En1 
	.byte	W24
	.byte		        Dn1 
	.byte	W24
	.byte		N14   , Gn1 , v116
	.byte	W24
	.byte		        Fs1 , v108
	.byte	W24
	.byte		        En1 , v112
	.byte	W24
	.byte		        Dn1 , v108
	.byte	W24
	.byte	PEND
	.byte		N14   , Gn1 , v120
	.byte	W24
	.byte		        Fs1 , v112
	.byte	W24
	.byte		        En1 
	.byte	W24
	.byte		        Dn1 
	.byte	W24
	.byte	PEND
	.byte	PATT
	 .word	seq_056_0 + 0x15
	.byte		N14   , Cn1 , v120
	.byte	W24
	.byte		        Cn1 , v112
	.byte	W24
	.byte		N14
	.byte	W24
	.byte		N14
	.byte	W24
	.byte	PEND
	.byte		N14   , Cs1 , v120
	.byte	W24
	.byte		        Cs1 , v112
	.byte	W24
	.byte		N14
	.byte	W24
	.byte		N14
	.byte	W24
	.byte	PEND
	.byte		N14   , Dn1 , v120
	.byte	W24
	.byte		        Dn1 , v112
	.byte	W24
	.byte		N14
	.byte	W24
	.byte		N14
	.byte	W24
	.byte	PEND
	.byte		N14   , Dn1 , v120
	.byte	W24
	.byte		        Dn1 , v112
	.byte	W24
	.byte		        En1 
	.byte	W24
	.byte		        Fs1 
	.byte	W24
	.byte	PEND
	.byte	PATT
	 .word	seq_056_0 + 0x23
	.byte	PATT
	 .word	seq_056_0 + 0x15
	.byte	PATT
	 .word	seq_056_0 + 0x23
	.byte	PATT
	 .word	seq_056_0 + 0x15
	.byte	PATT
	 .word	seq_056_0 + 0x34
	.byte	PATT
	 .word	seq_056_0 + 0x40
	.byte	PATT
	 .word	seq_056_0 + 0x4C
	.byte	PATT
	 .word	seq_056_0 + 0x58
	.byte	GOTO
	 .word	seq_056_0 + 0x64
	.byte	FINE

@*********************** Track 02 ***********************@

seq_056_1:
	.byte	KEYSH , seq_056_key+0
	.byte		VOICE , 61
	.byte		VOL   , 103*seq_056_mvl/mxv
	.byte		PAN   , c_v+10
	.byte		N11   , Gn3 , v112
	.byte	W48
	.byte		        Dn3 
	.byte	W48
	.byte		N60   , Bn2 , v112
	.byte	W72
	.byte		N18   , Gn2 
	.byte	W18
	.byte		N06   , An2 , v092
	.byte	W06
	.byte	PEND
	.byte		N12   , Bn2 , v112
	.byte	W24
	.byte		        Cn3 
	.byte	W24
	.byte		N11   , Dn3 
	.byte	W24
	.byte		N10   , En3 
	.byte	W24
	.byte	PEND
	.byte		N40   , Dn3 
	.byte	W48
	.byte		        Bn2 
	.byte	W48
	.byte		N36   , Cn3 
	.byte	W42
	.byte		N04   , Cn3 , v092
	.byte	W06
	.byte		N36   , En3 , v112
	.byte	W42
	.byte		N03   , Cn3 , v092
	.byte	W06
	.byte		N10   , Cs3 , v112
	.byte	W24
	.byte		N60   , En3 
	.byte	W72
	.byte		N22   , Dn3 
	.byte	W24
	.byte		N18   , Dn3 , v100
	.byte	W18
	.byte		N06   , En3 , v092
	.byte	W06
	.byte		N08   , Dn3 , v112
	.byte	W24
	.byte		N11
	.byte	W24
	.byte		N72
	.byte	W96
	.byte		N11   , Gn3 , v112
	.byte	W48
	.byte		        Dn3 
	.byte	W48
	.byte	PATT
	 .word	seq_056_1 + 0xE
	.byte	PATT
	 .word	seq_056_1 + 0x1A
	.byte		N40   , Dn3 , v112
	.byte	W48
	.byte		        Gn3 
	.byte	W48
	.byte		N36   , En3 
	.byte	W42
	.byte		N04   , En3 , v092
	.byte	W06
	.byte		N36   , Gn3 , v112
	.byte	W42
	.byte		N03   , En3 , v092
	.byte	W06
	.byte		N10   , En3 , v112
	.byte	W24
	.byte		N42   , An3 
	.byte	W48
	.byte		N22   , Gn3 
	.byte	W24
	.byte		        Dn3 
	.byte	W24
	.byte		N18   , Dn3 , v100
	.byte	W18
	.byte		N06   , En3 , v092
	.byte	W06
	.byte		N08   , Dn3 , v112
	.byte	W24
	.byte		N11   , En3 
	.byte	W24
	.byte		N92   , Dn3 
	.byte	W96
	.byte	GOTO
	 .word	seq_056_1 + 0x55
	.byte	FINE

@*********************** Track 03 ***********************@

seq_056_2:
	.byte	KEYSH , seq_056_key+0
	.byte		VOICE , 61
	.byte		VOL   , 95*seq_056_mvl/mxv
	.byte		PAN   , c_v+0
	.byte		N11   , Dn3 , v112
	.byte	W48
	.byte		        Bn2 
	.byte	W48
	.byte		N60   , Gn2 
	.byte	W96
	.byte		N12   , Gn2 , v112
	.byte	W24
	.byte		        En2 
	.byte	W24
	.byte		N11   , Fs2 
	.byte	W24
	.byte		N10   , Gn2 
	.byte	W24
	.byte	PEND
	.byte		N40   , Bn2 
	.byte	W48
	.byte		        Gn2 
	.byte	W48
	.byte		N36   , An2 
	.byte	W42
	.byte		N04   , An2 , v092
	.byte	W06
	.byte		N36   , Cn3 , v112
	.byte	W42
	.byte		N03   , An2 , v092
	.byte	W06
	.byte		N10   , An2 , v112
	.byte	W24
	.byte		N60
	.byte	W72
	.byte		N22   , An2 , v112
	.byte	W24
	.byte		N18   , An2 , v100
	.byte	W18
	.byte		N06   , An2 , v092
	.byte	W06
	.byte		N08   , An2 , v112
	.byte	W24
	.byte		N11
	.byte	W24
	.byte	PEND
	.byte		N72
	.byte	W96
	.byte		N11   , Dn3 , v112
	.byte	W48
	.byte		        Bn2 
	.byte	W48
	.byte		N60   , Gn2 
	.byte	W96
	.byte	PATT
	 .word	seq_056_2 + 0x11
	.byte		N40   , Bn2 , v112
	.byte	W48
	.byte		N40
	.byte	W48
	.byte		N36   , Gn2 
	.byte	W42
	.byte		N04   , Gn2 , v092
	.byte	W06
	.byte		N36   , Cn3 , v112
	.byte	W42
	.byte		N03   , Gn2 , v092
	.byte	W06
	.byte		N10   , An2 , v112
	.byte	W24
	.byte		N42   , Cs3 
	.byte	W48
	.byte		N22
	.byte	W24
	.byte	PATT
	 .word	seq_056_2 + 0x38
	.byte		N92   , An2 , v112
	.byte	W96
	.byte	GOTO
	 .word	seq_056_2 + 0x4D
	.byte	FINE

@*********************** Track 04 ***********************@

seq_056_3:
	.byte	KEYSH , seq_056_key+0
	.byte		VOICE , 61
	.byte		VOL   , 95*seq_056_mvl/mxv
	.byte		PAN   , c_v+0
	.byte	W96
	.byte	W24
	.byte		N04   , Bn3 , v112
	.byte	W08
	.byte		        Bn3 , v100
	.byte	W08
	.byte		N04
	.byte	W08
	.byte		N36   , Bn3 , v112
	.byte	W48
	.byte	PEND
	.byte	W96
	.byte	W24
	.byte		N04   , Dn4 , v112
	.byte	W08
	.byte		        Dn4 , v100
	.byte	W08
	.byte		N04
	.byte	W08
	.byte		N36   , Dn4 , v112
	.byte	W48
	.byte	PEND
	.byte		N24   , En4 , v112
	.byte	W42
	.byte		N04   , En4 , v100
	.byte	W06
	.byte		N24   , En4 , v112
	.byte	W42
	.byte		N03   , En4 , v100
	.byte	W06
	.byte	PEND
	.byte		N06   , En4 , v112
	.byte	W24
	.byte		N48
	.byte	W72
	.byte	PEND
	.byte		N32   , Fs4 , v112
	.byte	W42
	.byte		N04   , Fs4 , v100
	.byte	W06
	.byte		N06   , Fs4 , v112
	.byte	W24
	.byte		        Gn4 
	.byte	W24
	.byte	PEND
	.byte		N72   , Fs4 
	.byte	W96
	.byte	W96
	.byte	PATT
	 .word	seq_056_3 + 0x9
	.byte	W96
	.byte	PATT
	 .word	seq_056_3 + 0x19
	.byte	PATT
	 .word	seq_056_3 + 0x28
	.byte	PATT
	 .word	seq_056_3 + 0x39
	.byte	PATT
	 .word	seq_056_3 + 0x40
	.byte		N72   , Fs4 , v112
	.byte	W96
	.byte	GOTO
	 .word	seq_056_3 + 0x52
	.byte	FINE

@*********************** Track 05 ***********************@

seq_056_4:
	.byte	KEYSH , seq_056_key+0
	.byte		VOICE , 102
	.byte		VOL   , 56*seq_056_mvl/mxv
	.byte		PAN   , c_v+0
	.byte	W96
	.byte	W24
	.byte		N04   , Gn3 , v112
	.byte	W08
	.byte		        Gn3 , v100
	.byte	W08
	.byte		N04
	.byte	W08
	.byte		N36   , Gn3 , v112
	.byte	W48
	.byte	PEND
	.byte	W96
	.byte	W24
	.byte		N04   , Bn3 , v112
	.byte	W08
	.byte		        Bn3 , v100
	.byte	W08
	.byte		N04
	.byte	W08
	.byte		N36   , Bn3 , v112
	.byte	W48
	.byte	PEND
	.byte		N24   , Cn4 , v112
	.byte	W42
	.byte		N04   , Cn4 , v100
	.byte	W06
	.byte		N24   , Cn4 , v112
	.byte	W42
	.byte		N03   , Cn4 , v100
	.byte	W06
	.byte	PEND
	.byte		N06   , Cs4 , v112
	.byte	W24
	.byte		N48
	.byte	W72
	.byte	PEND
	.byte		N32   , Dn4 , v112
	.byte	W42
	.byte		N04   , Dn4 , v100
	.byte	W06
	.byte		N06   , Dn4 , v112
	.byte	W24
	.byte		        En4 
	.byte	W24
	.byte	PEND
	.byte		N72   , Dn4 
	.byte	W96
	.byte	W96
	.byte	PATT
	 .word	seq_056_4 + 0x9
	.byte	W96
	.byte	PATT
	 .word	seq_056_4 + 0x19
	.byte	PATT
	 .word	seq_056_4 + 0x28
	.byte	PATT
	 .word	seq_056_4 + 0x39
	.byte	PATT
	 .word	seq_056_4 + 0x40
	.byte		N72   , Dn4 , v112
	.byte	W96
	.byte	GOTO
	 .word	seq_056_4 + 0x52
	.byte	FINE

@*********************** Track 06 ***********************@

seq_056_5:
	.byte	KEYSH , seq_056_key+0
	.byte	W96
	.byte	W96
	.byte	W96
	.byte	W96
	.byte	W96
	.byte	W96
	.byte	W96
	.byte	W96
	.byte		VOICE , 10
	.byte		VOL   , 47*seq_056_mvl/mxv
	.byte		PAN   , c_v+20
	.byte	W01
	.byte		N24   , Gn5 , v100
	.byte	W24
	.byte		        Dn5 , v112
	.byte	W24
	.byte		        En5 
	.byte	W24
	.byte		        Bn4 , v100
	.byte	W23
	.byte		N14   , Gn5 
	.byte	W15
	.byte		N22   , Dn5 , v108
	.byte	W23
	.byte		N32   , Bn4 , v104
	.byte	W32
	.byte	W02
	.byte		N20   , Cn5 , v100
	.byte	W24
	.byte	W01
	.byte		N22   , Bn4 
	.byte	W23
	.byte		        Cn5 
	.byte	W24
	.byte	W01
	.byte		        Dn5 
	.byte	W24
	.byte		        En5 , v112
	.byte	W23
	.byte		N44   , Dn5 , v096
	.byte	W48
	.byte	W01
	.byte		        Gn5 , v104
	.byte	W44
	.byte	W03
	.byte		N40   , Cn5 , v100
	.byte	W42
	.byte		N06   , Cn5 , v088
	.byte	W07
	.byte		N36   , En5 , v100
	.byte	W40
	.byte		N07   , Dn5 , v088
	.byte	W07
	.byte		N22   , Gn5 , v100
	.byte	W24
	.byte	W01
	.byte		N40   , An5 
	.byte	W44
	.byte	W03
	.byte		N22   , Gn5 
	.byte	W24
	.byte		N32   , Fs5 
	.byte	W36
	.byte	W01
	.byte		N09   , Gn5 , v092
	.byte	W11
	.byte		N22   , Fs5 , v108
	.byte	W24
	.byte		N16   , En5 , v100
	.byte	W23
	.byte		N72   , Dn5 
	.byte	W01
	.byte	W96
	.byte	GOTO
	 .word	seq_056_5 + 0xA
	.byte	FINE

@*********************** Track 07 ***********************@

seq_056_6:
	.byte	KEYSH , seq_056_key+0
	.byte		VOICE , 127
	.byte		VOL   , 99*seq_056_mvl/mxv
	.byte		N08   , Cn0 , v100
	.byte	W01
	.byte		N48   , Bn2 , v104
	.byte	W23
	.byte		N08   , Cn0 , v096
	.byte	W08
	.byte		        Cn0 , v056
	.byte	W08
	.byte		        Cn0 , v064
	.byte	W08
	.byte		        Cn0 , v108
	.byte	W24
	.byte		        Cn0 , v096
	.byte	W24
	.byte		N08   , Cn0 , v100
	.byte	W24
	.byte		        Cn0 , v096
	.byte	W08
	.byte		        Cn0 , v056
	.byte	W08
	.byte		        Cn0 , v064
	.byte	W08
	.byte		N12   , Cn0 , v108
	.byte	W16
	.byte		N08   , Cn0 , v084
	.byte	W08
	.byte		N03   , Cn0 , v104
	.byte	W03
	.byte		        Cn0 , v068
	.byte	W03
	.byte		        Cn0 , v056
	.byte	W03
	.byte		        Cn0 , v064
	.byte	W03
	.byte		        Cn0 , v060
	.byte	W03
	.byte		        Cn0 , v052
	.byte	W03
	.byte		        Cn0 , v064
	.byte	W03
	.byte		        Cn0 , v072
	.byte	W03
	.byte	PEND
	.byte		N08   , Cn0 , v100
	.byte	W24
	.byte		        Cn0 , v096
	.byte	W08
	.byte		        Cn0 , v056
	.byte	W08
	.byte		        Cn0 , v064
	.byte	W08
	.byte		        Cn0 , v108
	.byte	W24
	.byte		        Cn0 , v096
	.byte	W24
	.byte	PEND
	.byte	PATT
	 .word	seq_056_6 + 0x1E
	.byte		N08   , Cn0 , v100
	.byte	W24
	.byte		        Cn0 , v096
	.byte	W08
	.byte		        Cn0 , v056
	.byte	W08
	.byte		        Cn0 , v064
	.byte	W08
	.byte		        Cn0 , v108
	.byte	W24
	.byte		        Cn0 , v096
	.byte	W08
	.byte		        Cn0 , v056
	.byte	W08
	.byte		        Cn0 , v064
	.byte	W08
	.byte	PEND
	.byte	PATT
	 .word	seq_056_6 + 0x1E
	.byte	PATT
	 .word	seq_056_6 + 0x4D
	.byte	PATT
	 .word	seq_056_6 + 0x1E
	.byte		N08   , Cn0 , v100
	.byte	W01
	.byte		N48   , Bn2 , v092
	.byte	W23
	.byte		N08   , Cn0 , v096
	.byte	W08
	.byte		        Cn0 , v056
	.byte	W08
	.byte		        Cn0 , v064
	.byte	W08
	.byte		        Cn0 , v108
	.byte	W24
	.byte		        Cn0 , v096
	.byte	W24
	.byte	PATT
	 .word	seq_056_6 + 0x1E
	.byte	PATT
	 .word	seq_056_6 + 0x4D
	.byte	PATT
	 .word	seq_056_6 + 0x1E
	.byte	PATT
	 .word	seq_056_6 + 0x66
	.byte	PATT
	 .word	seq_056_6 + 0x1E
	.byte	PATT
	 .word	seq_056_6 + 0x4D
	.byte	PATT
	 .word	seq_056_6 + 0x1E
	.byte	GOTO
	 .word	seq_056_6 + 0x8F
	.byte	FINE

@******************************************************@

	.align	2

seq_056:
	.byte	7	@ NumTrks
	.byte	0	@ NumBlks
	.byte	seq_056_pri	@ Priority
	.byte	seq_056_rev	@ Reverb

	.word	seq_056_grp

	.word	seq_056_0
	.word	seq_056_1
	.word	seq_056_2
	.word	seq_056_3
	.word	seq_056_4
	.word	seq_056_5
	.word	seq_056_6

	.end
