@ File generated by m4a2s Song-Module
	.include "MPlayDef.s"

	.equ	seq_054_grp, bank_039
	.equ	seq_054_pri, 0
	.equ	seq_054_rev, 0
	.equ	seq_054_mvl, 127
	.equ	seq_054_key, 0

	.section .rodata
	.global	seq_054
	.align	2

@*********************** Track 01 ***********************@

seq_054_0:
	.byte	KEYSH , seq_054_key+0
	.byte	TEMPO , 130/2
	.byte		VOICE , 29
	.byte		VOL   , 115*seq_054_mvl/mxv
	.byte	MEMACC, 0, 1, 0
	.byte		BENDR , 2
	.byte	W80
	.byte	W02
	.byte	MEMACC, 0, 1, 1
	.byte	W14
	.byte	W90
	.byte	W01
	.byte	MEMACC, 0, 1, 2
	.byte	W05
	.byte	W19
	.byte	MEMACC, 0, 1, 3
	.byte	W24
	.byte	MEMACC, 0, 1, 4
	.byte	W24
	.byte	MEMACC, 0, 1, 5
	.byte	W24
	.byte	W02
	.byte	MEMACC, 0, 1, 6
	.byte	W03
	.byte	W96
	.byte	W92
	.byte	W01
	.byte	MEMACC, 0, 1, 7
	.byte	W03
	.byte	W96
	.byte	W96
	.byte	W68
	.byte	W01
	.byte	MEMACC, 0, 1, 8
	.byte	W24
	.byte	W03
	.byte		VOL   , 90*seq_054_mvl/mxv
	.byte	W24
	.byte		N24   , En3 , v072
	.byte	W24
	.byte		        An3 
	.byte	W24
	.byte		        Fs4 
	.byte	W21
	.byte	MEMACC, 0, 1, 9
	.byte	W03
	.byte		TIE   , En4 , v072
	.byte	W78
	.byte		VOL   , 86*seq_054_mvl/mxv
	.byte	W07
	.byte		        76*seq_054_mvl/mxv
	.byte	W06
	.byte		        57*seq_054_mvl/mxv
	.byte	W05
	.byte	PEND
	.byte	W02
	.byte		        32*seq_054_mvl/mxv
	.byte	W04
	.byte		EOT
	.byte	W06
	.byte		BEND  , c_v+0
	.byte	W12
	.byte		VOL   , 90*seq_054_mvl/mxv
	.byte	W24
	.byte		BEND  , c_v-32
	.byte		N18   , Cs4 
	.byte	W02
	.byte		BEND  , c_v-17
	.byte	W02
	.byte		        c_v-6
	.byte	W03
	.byte		        c_v-1
	.byte	W01
	.byte		        c_v+0
	.byte	W10
	.byte		N18   , Dn4 
	.byte	W18
	.byte		N12   , En4 
	.byte	W12
	.byte		N36   , En4 , v072
	.byte	W36
	.byte		N06   , Dn4 
	.byte	W06
	.byte		        Cs4 
	.byte	W06
	.byte		N54   , An3 
	.byte	W24
	.byte		BEND  , c_v+0
	.byte	W06
	.byte		VOL   , 86*seq_054_mvl/mxv
	.byte	W01
	.byte		BEND  , c_v-1
	.byte	W06
	.byte		VOL   , 76*seq_054_mvl/mxv
	.byte	W06
	.byte		        57*seq_054_mvl/mxv
	.byte	W02
	.byte		BEND  , c_v-3
	.byte	W03
	.byte	PEND
	.byte	W02
	.byte		VOL   , 32*seq_054_mvl/mxv
	.byte	W09
	.byte		BEND  , c_v-6
	.byte	W01
	.byte		VOL   , 90*seq_054_mvl/mxv
	.byte	W06
	.byte		BEND  , c_v-9
	.byte	W06
	.byte		        c_v+0
	.byte		N24   , Fs3 , v072
	.byte	W24
	.byte		        An3 
	.byte	W24
	.byte		        Dn4 
	.byte	W24
	.byte	PEND
	.byte		TIE   , Cs4 , v072
	.byte	W78
	.byte		VOL   , 86*seq_054_mvl/mxv
	.byte	W07
	.byte		        76*seq_054_mvl/mxv
	.byte	W06
	.byte		        57*seq_054_mvl/mxv
	.byte	W05
	.byte	PEND
	.byte	W02
	.byte		        32*seq_054_mvl/mxv
	.byte	W04
	.byte		EOT
	.byte	W18
	.byte		VOL   , 90*seq_054_mvl/mxv
	.byte	W24
	.byte		BEND  , c_v-32
	.byte		N18
	.byte	W02
	.byte		BEND  , c_v-17
	.byte	W02
	.byte		        c_v-6
	.byte	W03
	.byte		        c_v-1
	.byte	W01
	.byte		        c_v+0
	.byte	W10
	.byte		N18   , Dn4 
	.byte	W18
	.byte		N12   , Cs4 
	.byte	W12
	.byte		N36   , En4 , v072
	.byte	W36
	.byte		N06   , Dn4 
	.byte	W06
	.byte		        Cs4 
	.byte	W06
	.byte		N54   , Bn3 
	.byte	W30
	.byte		VOL   , 86*seq_054_mvl/mxv
	.byte	W07
	.byte		        76*seq_054_mvl/mxv
	.byte	W06
	.byte		        57*seq_054_mvl/mxv
	.byte	W05
	.byte	PEND
	.byte	W02
	.byte		VOL   , 32*seq_054_mvl/mxv
	.byte	W10
	.byte		        90*seq_054_mvl/mxv
	.byte	W12
	.byte		N24   , En3 , v072
	.byte	W24
	.byte		        An3 
	.byte	W24
	.byte		        Fs4 
	.byte	W24
	.byte	PEND
	.byte	PATT
	 .word	seq_054_0 + 0x54
	.byte	W02
	.byte		VOL   , 32*seq_054_mvl/mxv
	.byte	W04
	.byte		EOT   , En4 
	.byte	W18
	.byte		VOL   , 90*seq_054_mvl/mxv
	.byte	W24
	.byte		BEND  , c_v-32
	.byte		N18   , Cs4 , v072
	.byte	W02
	.byte		BEND  , c_v-17
	.byte	W02
	.byte		        c_v-6
	.byte	W03
	.byte		        c_v-1
	.byte	W01
	.byte		        c_v+0
	.byte	W10
	.byte		N18   , Dn4 
	.byte	W18
	.byte		N12   , En4 
	.byte	W12
	.byte		N36   , En4 , v072
	.byte	W36
	.byte		N06   , Dn4 
	.byte	W06
	.byte		        Cs4 
	.byte	W06
	.byte		N54   , Dn4 
	.byte	W24
	.byte		BEND  , c_v+0
	.byte	W06
	.byte		VOL   , 86*seq_054_mvl/mxv
	.byte	W01
	.byte		BEND  , c_v-1
	.byte	W06
	.byte		VOL   , 76*seq_054_mvl/mxv
	.byte	W06
	.byte		        57*seq_054_mvl/mxv
	.byte	W02
	.byte		BEND  , c_v-3
	.byte	W03
	.byte	PEND
	.byte	W02
	.byte		VOL   , 32*seq_054_mvl/mxv
	.byte	W09
	.byte		BEND  , c_v-6
	.byte	W01
	.byte		VOL   , 90*seq_054_mvl/mxv
	.byte	W06
	.byte		BEND  , c_v-9
	.byte	W06
	.byte		        c_v+0
	.byte		N24   , Fs3 
	.byte	W24
	.byte		        Fs4 
	.byte	W24
	.byte		        Dn4 
	.byte	W24
	.byte	PATT
	 .word	seq_054_0 + 0xB4
	.byte	W02
	.byte		VOL   , 32*seq_054_mvl/mxv
	.byte	W04
	.byte		EOT   , Cs4 
	.byte	W18
	.byte		VOL   , 90*seq_054_mvl/mxv
	.byte	W24
	.byte		BEND  , c_v-32
	.byte		N18   , Cs4 , v072
	.byte	W02
	.byte		BEND  , c_v-17
	.byte	W02
	.byte		        c_v-6
	.byte	W03
	.byte		        c_v-1
	.byte	W01
	.byte		        c_v+0
	.byte	W10
	.byte		N18   , Dn4 
	.byte	W18
	.byte		N12   , Cs4 
	.byte	W12
	.byte		N60   , En4 , v072
	.byte	W56
	.byte	W03
	.byte		BEND  , c_v-32
	.byte	W01
	.byte		N24   , Dn4 
	.byte	W01
	.byte		BEND  , c_v-17
	.byte	W02
	.byte		        c_v-6
	.byte	W03
	.byte		        c_v-1
	.byte	W01
	.byte		        c_v+0
	.byte	W17
	.byte		N12   , Cs4 
	.byte	W12
	.byte	PEND
	.byte		N12   , Dn4 , v072
	.byte	W06
	.byte		BEND  , c_v-32
	.byte	W06
	.byte		        c_v+0
	.byte		N60   , Bn3 
	.byte	W36
	.byte		VOL   , 86*seq_054_mvl/mxv
	.byte	W07
	.byte		        76*seq_054_mvl/mxv
	.byte	W06
	.byte		        57*seq_054_mvl/mxv
	.byte	W07
	.byte		        32*seq_054_mvl/mxv
	.byte	W28
	.byte	PEND
	.byte		        90*seq_054_mvl/mxv
	.byte	W96
	.byte	TEMPO , 132/2
	.byte	W96
	.byte		VOICE , 12
	.byte	W84
	.byte		N12   , En4 , v112
	.byte	W12
	.byte		N18   , Cs5 
	.byte	W18
	.byte		N06   , An4 
	.byte	W18
	.byte		N12   , En4 
	.byte	W12
	.byte		N06   , An4 
	.byte		N06   , Cs5 
	.byte	W06
	.byte		N09   , An4 
	.byte		N09   , Cs5 
	.byte	W18
	.byte		N06   , An4 
	.byte		N06   , Cn5 
	.byte	W06
	.byte		N09   , An4 
	.byte		N09   , Cn5 
	.byte	W18
	.byte	W96
	.byte		VOICE , 48
	.byte	W96
	.byte		VOL   , 72*seq_054_mvl/mxv
	.byte		N48   , Cs4 , v120
	.byte	W48
	.byte		        Dn4 
	.byte	W48
	.byte		N18   , Ds4 , v120
	.byte	W18
	.byte		N06   , An3 
	.byte	W18
	.byte		N36   , En4 
	.byte	W60
	.byte	PEND
	.byte		N96   , Dn4 
	.byte	W96
	.byte		N60   , Cs4 , v120
	.byte	W64
	.byte		N16
	.byte	W16
	.byte		        An3 
	.byte	W16
	.byte	PEND
	.byte		N64   , Bn3 , v120
	.byte	W64
	.byte		N16   , Gs3 
	.byte	W16
	.byte		        Bn3 
	.byte	W16
	.byte	PEND
	.byte		N24   , An3 , v120
	.byte	W24
	.byte		        Bn3 
	.byte	W24
	.byte		N18   , Cn4 
	.byte	W18
	.byte		        Cs4 
	.byte	W18
	.byte		N06   , An3 
	.byte	W06
	.byte		        Bn3 
	.byte	W06
	.byte	PEND
	.byte		N84   , Cs4 , v120
	.byte	W84
	.byte		N12   , An3 
	.byte	W12
	.byte	PEND
	.byte		N17   , Bn3 , v120
	.byte	W18
	.byte		N06
	.byte	W18
	.byte		N60   , As3 
	.byte	W60
	.byte	PEND
	.byte		N96   , An3 
	.byte	W96
	.byte		N48   , Gs3 
	.byte	W48
	.byte		N24   , Bn3 
	.byte	W24
	.byte		        Cs4 
	.byte	W24
	.byte		N06   , Dn4 , v112
	.byte	W06
	.byte		        Bn3 
	.byte	W06
	.byte		        Gn3 
	.byte	W06
	.byte		        Dn3 
	.byte	W06
	.byte		        Gn3 
	.byte	W06
	.byte		        Bn3 
	.byte	W06
	.byte		        Gn3 
	.byte	W06
	.byte		        Bn3 
	.byte	W06
	.byte		        Dn4 
	.byte	W06
	.byte		        Bn3 
	.byte	W06
	.byte		        Dn4 
	.byte	W06
	.byte		        Gn4 , v092
	.byte	W06
	.byte		        Dn4 , v112
	.byte	W06
	.byte		        Gn4 , v092
	.byte	W06
	.byte		        Bn4 , v080
	.byte	W06
	.byte		N06
	.byte	W06
	.byte	TEMPO , 130/2
	.byte		VOICE , 29
	.byte		VOL   , 90*seq_054_mvl/mxv
	.byte	W24
	.byte		N24   , En3 , v072
	.byte	W24
	.byte		        An3 
	.byte	W24
	.byte		        Fs4 
	.byte	W24
	.byte	PATT
	 .word	seq_054_0 + 0x54
	.byte	W02
	.byte		VOL   , 32*seq_054_mvl/mxv
	.byte	W04
	.byte		EOT   , En4 
	.byte	W06
	.byte		BEND  , c_v+0
	.byte	W12
	.byte		VOL   , 90*seq_054_mvl/mxv
	.byte	W24
	.byte		BEND  , c_v-32
	.byte		N18   , Cs4 , v072
	.byte	W02
	.byte		BEND  , c_v-17
	.byte	W02
	.byte		        c_v-6
	.byte	W03
	.byte		        c_v-1
	.byte	W01
	.byte		        c_v+0
	.byte	W10
	.byte		N18   , Dn4 
	.byte	W18
	.byte		N12   , En4 
	.byte	W12
	.byte	PATT
	 .word	seq_054_0 + 0x7F
	.byte	PATT
	 .word	seq_054_0 + 0x9D
	.byte	PATT
	 .word	seq_054_0 + 0xB4
	.byte	W02
	.byte		VOL   , 32*seq_054_mvl/mxv
	.byte	W04
	.byte		EOT   , Cs4 
	.byte	W18
	.byte		VOL   , 90*seq_054_mvl/mxv
	.byte	W24
	.byte		BEND  , c_v-32
	.byte		N18   , Cs4 , v072
	.byte	W02
	.byte		BEND  , c_v-17
	.byte	W02
	.byte		        c_v-6
	.byte	W03
	.byte		        c_v-1
	.byte	W01
	.byte		        c_v+0
	.byte	W10
	.byte		N18   , Dn4 
	.byte	W18
	.byte		N12   , Cs4 
	.byte	W12
	.byte	PATT
	 .word	seq_054_0 + 0xDB
	.byte	PATT
	 .word	seq_054_0 + 0xEF
	.byte	PATT
	 .word	seq_054_0 + 0x54
	.byte	W02
	.byte		VOL   , 32*seq_054_mvl/mxv
	.byte	W04
	.byte		EOT   , En4 
	.byte	W18
	.byte		VOL   , 90*seq_054_mvl/mxv
	.byte	W24
	.byte		BEND  , c_v-32
	.byte		N18   , Cs4 , v072
	.byte	W02
	.byte		BEND  , c_v-17
	.byte	W02
	.byte		        c_v-6
	.byte	W03
	.byte		        c_v-1
	.byte	W01
	.byte		        c_v+0
	.byte	W10
	.byte		N18   , Dn4 
	.byte	W18
	.byte		N12   , En4 
	.byte	W12
	.byte	PATT
	 .word	seq_054_0 + 0x122
	.byte	W02
	.byte		VOL   , 32*seq_054_mvl/mxv
	.byte	W09
	.byte		BEND  , c_v-6
	.byte	W01
	.byte		VOL   , 90*seq_054_mvl/mxv
	.byte	W06
	.byte		BEND  , c_v-9
	.byte	W06
	.byte		        c_v+0
	.byte		N24   , Fs3 , v072
	.byte	W24
	.byte		        Dn4 
	.byte	W24
	.byte		        Bn3 
	.byte	W24
	.byte	PATT
	 .word	seq_054_0 + 0xB4
	.byte	W02
	.byte		VOL   , 32*seq_054_mvl/mxv
	.byte	W04
	.byte		EOT   , Cs4 
	.byte	W18
	.byte		VOL   , 90*seq_054_mvl/mxv
	.byte	W24
	.byte		BEND  , c_v-32
	.byte		N18   , Cs4 , v072
	.byte	W02
	.byte		BEND  , c_v-17
	.byte	W02
	.byte		        c_v-6
	.byte	W03
	.byte		        c_v-1
	.byte	W01
	.byte		        c_v+0
	.byte	W10
	.byte		N18   , Dn4 
	.byte	W18
	.byte		N12   , Cs4 
	.byte	W12
	.byte	PATT
	 .word	seq_054_0 + 0x179
	.byte	PATT
	 .word	seq_054_0 + 0x191
	.byte	TEMPO , 132/2
	.byte		VOICE , 12
	.byte		VOL   , 90*seq_054_mvl/mxv
	.byte	W48
	.byte		N16   , Dn5 , v080
	.byte	W18
	.byte		        An4 
	.byte	W18
	.byte		N12   , Fs4 
	.byte	W12
	.byte		N04   , Dn5 
	.byte	W04
	.byte		        Dn5 , v060
	.byte	W04
	.byte		        Dn5 , v076
	.byte	W04
	.byte		        Dn5 , v056
	.byte	W04
	.byte		        Dn5 , v068
	.byte	W04
	.byte		        Dn5 , v048
	.byte	W04
	.byte		        Dn5 , v064
	.byte	W04
	.byte		        Dn5 , v044
	.byte	W04
	.byte		        Dn5 , v056
	.byte	W04
	.byte		        Dn5 , v036
	.byte	W04
	.byte		        Dn5 , v052
	.byte	W04
	.byte		        Dn5 , v032
	.byte	W04
	.byte		        Dn5 , v044
	.byte	W04
	.byte		        Dn5 , v028
	.byte	W04
	.byte		        Dn5 , v044
	.byte	W04
	.byte		        Dn5 , v024
	.byte	W04
	.byte		        Dn5 , v040
	.byte	W04
	.byte		        Dn5 , v020
	.byte	W04
	.byte		        Dn5 , v036
	.byte	W04
	.byte		        Dn5 , v016
	.byte	W04
	.byte		        Dn5 , v032
	.byte	W04
	.byte		        Dn5 , v016
	.byte	W04
	.byte		        Dn5 , v028
	.byte	W04
	.byte		        Dn5 , v012
	.byte	W04
	.byte	W84
	.byte		N12   , En4 , v112
	.byte	W12
	.byte		N18   , Cs5 
	.byte	W18
	.byte		N06   , An4 
	.byte	W18
	.byte		N12   , En4 
	.byte	W12
	.byte		N06   , An4 
	.byte		N16   , Cs6 , v060
	.byte	W06
	.byte		N09   , An4 , v112
	.byte	W18
	.byte		N06
	.byte		N16   , Cn6 , v060
	.byte	W06
	.byte		N09   , An4 , v112
	.byte	W18
	.byte	W48
	.byte		N16   , Bn4 , v088
	.byte	W18
	.byte		        Gs4 
	.byte	W18
	.byte		N12   , En4 
	.byte	W12
	.byte		N04   , Bn4 , v080
	.byte	W04
	.byte		        Bn4 , v064
	.byte	W04
	.byte		        Bn4 , v076
	.byte	W04
	.byte		        Bn4 , v056
	.byte	W04
	.byte		        Bn4 , v072
	.byte	W04
	.byte		        Bn4 , v052
	.byte	W04
	.byte		        Bn4 , v064
	.byte	W04
	.byte		        Bn4 , v048
	.byte	W04
	.byte		        Bn4 , v060
	.byte	W04
	.byte		        Bn4 , v040
	.byte	W04
	.byte		        Bn4 , v056
	.byte	W04
	.byte		        Bn4 , v036
	.byte	W04
	.byte		        Bn4 , v048
	.byte	W04
	.byte		        Bn4 , v032
	.byte	W04
	.byte		        Bn4 , v044
	.byte	W04
	.byte		        Bn4 , v028
	.byte	W04
	.byte		        Bn4 , v040
	.byte	W04
	.byte		        Bn4 , v024
	.byte	W04
	.byte		        Bn4 , v036
	.byte	W04
	.byte		        Bn4 , v020
	.byte	W04
	.byte		        Bn4 , v036
	.byte	W04
	.byte		        Bn4 , v020
	.byte	W04
	.byte		        Bn4 , v032
	.byte	W04
	.byte		        Bn4 , v016
	.byte	W04
	.byte		VOICE , 48
	.byte		VOL   , 72*seq_054_mvl/mxv
	.byte		N48   , Cs4 , v120
	.byte	W48
	.byte		        Dn4 
	.byte	W48
	.byte	PATT
	 .word	seq_054_0 + 0x1DB
	.byte		N96   , Dn4 , v120
	.byte	W96
	.byte	PATT
	 .word	seq_054_0 + 0x1E9
	.byte	PATT
	 .word	seq_054_0 + 0x1F2
	.byte	PATT
	 .word	seq_054_0 + 0x1FC
	.byte	PATT
	 .word	seq_054_0 + 0x20D
	.byte	PATT
	 .word	seq_054_0 + 0x215
	.byte		N96   , An3 , v120
	.byte	W96
	.byte		N48   , Gs3 
	.byte	W48
	.byte		N24   , Bn3 
	.byte	W24
	.byte		N36   , Cs4 
	.byte	W24
	.byte	W12
	.byte		N60   , Dn4 
	.byte	W54
	.byte		VOL   , 86*seq_054_mvl/mxv
	.byte	W06
	.byte		N06   , Gn3 , v124
	.byte	W06
	.byte		        Bn3 , v120
	.byte	W06
	.byte		        Dn4 , v112
	.byte	W06
	.byte		        Fs4 , v100
	.byte	W06
	.byte	W24
	.byte		N21   , Dn4 , v120
	.byte	W24
	.byte		N18
	.byte	W18
	.byte		        Cs4 
	.byte	W18
	.byte		N12   , Dn4 
	.byte	W12
	.byte		VOICE , 80
	.byte		N96   , Gs4 , v060
	.byte	W96
	.byte		N84   , En4 , v072
	.byte	W84
	.byte		N06   , Fs4 , v060
	.byte	W06
	.byte		        Gs4 
	.byte	W06
	.byte		N84   , An4 
	.byte	W84
	.byte		N06   , Gs4 
	.byte	W06
	.byte		        An4 
	.byte	W06
	.byte		N96   , Bn4 , v056
	.byte	W96
	.byte		TIE   , Fn4 , v060
	.byte	W96
	.byte	W11
	.byte		VOL   , 84*seq_054_mvl/mxv
	.byte	W11
	.byte		        81*seq_054_mvl/mxv
	.byte	W11
	.byte		        76*seq_054_mvl/mxv
	.byte	W11
	.byte		        69*seq_054_mvl/mxv
	.byte	W11
	.byte		        61*seq_054_mvl/mxv
	.byte	W11
	.byte		        50*seq_054_mvl/mxv
	.byte	W11
	.byte		        38*seq_054_mvl/mxv
	.byte	W11
	.byte		        23*seq_054_mvl/mxv
	.byte	W08
	.byte		EOT
	.byte		VOL   , 13*seq_054_mvl/mxv
	.byte	W96
	.byte	W96
	.byte	W96
	.byte	W96
	.byte	W96
	.byte	W96
	.byte	W96
	.byte	W96
	.byte	W96
	.byte		VOICE , 29
	.byte		VOL   , 90*seq_054_mvl/mxv
	.byte	W24
	.byte		N24   , En3 , v072
	.byte	W24
	.byte		        An3 
	.byte	W24
	.byte		        Fs4 
	.byte	W24
	.byte	PATT
	 .word	seq_054_0 + 0x54
	.byte	W02
	.byte		VOL   , 32*seq_054_mvl/mxv
	.byte	W04
	.byte		EOT   , En4 
	.byte	W18
	.byte		VOL   , 90*seq_054_mvl/mxv
	.byte	W24
	.byte		BEND  , c_v-32
	.byte		N18   , Cs4 , v072
	.byte	W02
	.byte		BEND  , c_v-17
	.byte	W02
	.byte		        c_v-6
	.byte	W03
	.byte		        c_v-1
	.byte	W01
	.byte		        c_v+0
	.byte	W10
	.byte		N18   , Dn4 
	.byte	W18
	.byte		N12   , En4 
	.byte	W12
	.byte	PATT
	 .word	seq_054_0 + 0x7F
	.byte	PATT
	 .word	seq_054_0 + 0x9D
	.byte	PATT
	 .word	seq_054_0 + 0xB4
	.byte	W02
	.byte		VOL   , 32*seq_054_mvl/mxv
	.byte	W04
	.byte		EOT   , Cs4 
	.byte	W18
	.byte		VOL   , 90*seq_054_mvl/mxv
	.byte	W24
	.byte		BEND  , c_v-32
	.byte		N18   , Cs4 , v072
	.byte	W02
	.byte		BEND  , c_v-17
	.byte	W02
	.byte		        c_v-6
	.byte	W03
	.byte		        c_v-1
	.byte	W01
	.byte		        c_v+0
	.byte	W10
	.byte		N18   , Dn4 
	.byte	W18
	.byte		N12   , Cs4 
	.byte	W12
	.byte	PATT
	 .word	seq_054_0 + 0xDB
	.byte	PATT
	 .word	seq_054_0 + 0xEF
	.byte	PATT
	 .word	seq_054_0 + 0x54
	.byte	W02
	.byte		VOL   , 32*seq_054_mvl/mxv
	.byte	W04
	.byte		EOT   , En4 
	.byte	W18
	.byte		VOL   , 90*seq_054_mvl/mxv
	.byte	W24
	.byte		BEND  , c_v-32
	.byte		N18   , Cs4 , v072
	.byte	W02
	.byte		BEND  , c_v-17
	.byte	W02
	.byte		        c_v-6
	.byte	W03
	.byte		        c_v-1
	.byte	W01
	.byte		        c_v+0
	.byte	W10
	.byte		N18   , Dn4 
	.byte	W18
	.byte		N12   , En4 
	.byte	W12
	.byte		N36   , Dn4 
	.byte	W36
	.byte		N05   , An4 , v068
	.byte	W06
	.byte		N60   , An4 , v064
	.byte	W30
	.byte		BEND  , c_v+0
	.byte	W06
	.byte		VOL   , 86*seq_054_mvl/mxv
	.byte	W01
	.byte		BEND  , c_v-1
	.byte	W06
	.byte		VOL   , 76*seq_054_mvl/mxv
	.byte	W06
	.byte		        57*seq_054_mvl/mxv
	.byte	W02
	.byte		BEND  , c_v-3
	.byte	W03
	.byte	W02
	.byte		VOL   , 32*seq_054_mvl/mxv
	.byte	W09
	.byte		BEND  , c_v-6
	.byte	W01
	.byte		VOL   , 90*seq_054_mvl/mxv
	.byte	W06
	.byte		BEND  , c_v-9
	.byte	W06
	.byte		        c_v-32
	.byte		N24   , Fs4 , v072
	.byte	W02
	.byte		BEND  , c_v-17
	.byte	W02
	.byte		        c_v-6
	.byte	W04
	.byte		        c_v+0
	.byte	W01
	.byte		        c_v+0
	.byte	W03
	.byte		        c_v-3
	.byte	W03
	.byte		        c_v-12
	.byte	W03
	.byte		        c_v-26
	.byte	W04
	.byte		        c_v-44
	.byte	W02
	.byte		        c_v-32
	.byte		N18   , An3 
	.byte	W02
	.byte		BEND  , c_v-17
	.byte	W02
	.byte		        c_v-6
	.byte	W04
	.byte		        c_v+0
	.byte	W01
	.byte		        c_v+0
	.byte	W09
	.byte		N18   , Dn4 
	.byte	W18
	.byte		N12   , Fs4 
	.byte	W12
	.byte		N36   , En4 
	.byte	W36
	.byte		N06   , Dn4 
	.byte	W06
	.byte		N60   , Cs4 
	.byte	W36
	.byte		VOL   , 86*seq_054_mvl/mxv
	.byte	W07
	.byte		        76*seq_054_mvl/mxv
	.byte	W06
	.byte		        57*seq_054_mvl/mxv
	.byte	W05
	.byte	W02
	.byte		        32*seq_054_mvl/mxv
	.byte	W22
	.byte		        90*seq_054_mvl/mxv
	.byte	W24
	.byte		BEND  , c_v-32
	.byte		N18
	.byte	W02
	.byte		BEND  , c_v-17
	.byte	W02
	.byte		        c_v-6
	.byte	W03
	.byte		        c_v-1
	.byte	W01
	.byte		        c_v+0
	.byte	W10
	.byte		N18   , Dn4 
	.byte	W18
	.byte		N12   , Cs4 
	.byte	W12
	.byte		N60   , En4 
	.byte	W60
	.byte		N24   , Dn4 
	.byte	W24
	.byte		N12   , Cs4 
	.byte	W12
	.byte		N06   , Dn4 
	.byte	W06
	.byte		        Cs4 
	.byte	W06
	.byte		BEND  , c_v+0
	.byte		N36   , Bn3 
	.byte	W03
	.byte		BEND  , c_v-1
	.byte	W03
	.byte		        c_v-1
	.byte	W03
	.byte		        c_v-2
	.byte	W04
	.byte		        c_v-4
	.byte	W03
	.byte		        c_v-5
	.byte	W03
	.byte		        c_v-7
	.byte	W04
	.byte		        c_v-10
	.byte	W03
	.byte		        c_v-13
	.byte	W03
	.byte		        c_v-16
	.byte	W04
	.byte		        c_v-20
	.byte	W03
	.byte		        c_v-32
	.byte		N18   , Dn4 
	.byte	W02
	.byte		BEND  , c_v-17
	.byte	W02
	.byte		        c_v-6
	.byte	W03
	.byte		        c_v-1
	.byte	W01
	.byte		        c_v+0
	.byte	W10
	.byte		N18   , Cs4 
	.byte	W18
	.byte		N12   , Bn3 
	.byte	W12
	.byte		BENDR , 3
	.byte		TIE   , An3 
	.byte	W72
	.byte		BEND  , c_v-2
	.byte	W08
	.byte		        c_v-4
	.byte	W10
	.byte		        c_v-6
	.byte	W06
	.byte	W18
	.byte		        c_v-4
	.byte	W12
	.byte		        c_v-2
	.byte	W06
	.byte		        c_v+0
	.byte	W30
	.byte		        c_v+0
	.byte	W02
	.byte		        c_v-1
	.byte	W02
	.byte		        c_v-2
	.byte	W02
	.byte		        c_v-4
	.byte	W02
	.byte		        c_v-7
	.byte	W03
	.byte		        c_v-11
	.byte	W02
	.byte		        c_v-15
	.byte	W02
	.byte		        c_v-20
	.byte	W02
	.byte		        c_v-26
	.byte	W02
	.byte		        c_v-33
	.byte	W03
	.byte		        c_v-40
	.byte	W02
	.byte		        c_v-49
	.byte	W02
	.byte		        c_v-58
	.byte	W02
	.byte		        c_v-64
	.byte	W02
	.byte		EOT
	.byte		BENDR , 2
	.byte		BEND  , c_v-50
	.byte		TIE   , An4 
	.byte	W03
	.byte		BEND  , c_v-42
	.byte	W03
	.byte		        c_v-34
	.byte	W03
	.byte		        c_v-27
	.byte	W04
	.byte		        c_v-21
	.byte	W03
	.byte		        c_v-15
	.byte	W03
	.byte		        c_v-11
	.byte	W04
	.byte		        c_v-7
	.byte	W03
	.byte		        c_v-4
	.byte	W03
	.byte		        c_v-2
	.byte	W04
	.byte		        c_v-1
	.byte	W03
	.byte		        c_v+0
	.byte	W42
	.byte		VOL   , 86*seq_054_mvl/mxv
	.byte	W13
	.byte		        85*seq_054_mvl/mxv
	.byte	W05
	.byte	W09
	.byte		        81*seq_054_mvl/mxv
	.byte	W06
	.byte		        79*seq_054_mvl/mxv
	.byte	W07
	.byte		        76*seq_054_mvl/mxv
	.byte	W02
	.byte		BEND  , c_v+0
	.byte	W05
	.byte		VOL   , 73*seq_054_mvl/mxv
	.byte	W01
	.byte		BEND  , c_v-1
	.byte	W05
	.byte		VOL   , 69*seq_054_mvl/mxv
	.byte	W02
	.byte		BEND  , c_v-1
	.byte	W05
	.byte		VOL   , 65*seq_054_mvl/mxv
	.byte	W01
	.byte		BEND  , c_v-1
	.byte	W06
	.byte		VOL   , 60*seq_054_mvl/mxv
	.byte	W01
	.byte		BEND  , c_v-2
	.byte	W05
	.byte		VOL   , 55*seq_054_mvl/mxv
	.byte	W02
	.byte		BEND  , c_v-3
	.byte	W05
	.byte		VOL   , 49*seq_054_mvl/mxv
	.byte	W01
	.byte		BEND  , c_v-4
	.byte	W06
	.byte		VOL   , 43*seq_054_mvl/mxv
	.byte	W01
	.byte		BEND  , c_v-5
	.byte	W05
	.byte		VOL   , 37*seq_054_mvl/mxv
	.byte	W02
	.byte		BEND  , c_v-7
	.byte	W05
	.byte		VOL   , 30*seq_054_mvl/mxv
	.byte	W01
	.byte		BEND  , c_v-9
	.byte	W06
	.byte		VOL   , 22*seq_054_mvl/mxv
	.byte	W01
	.byte		BEND  , c_v-10
	.byte	W05
	.byte		VOL   , 15*seq_054_mvl/mxv
	.byte	W01
	.byte		EOT
	.byte		BEND  , c_v+0
	.byte	W96
	.byte	W96
	.byte	W96
	.byte	W96
	.byte	W96
	.byte	W96
	.byte	W96
	.byte	W96
	.byte	W96
	.byte	W96
	.byte	W96
	.byte		VOL   , 99*seq_054_mvl/mxv
	.byte	W72
	.byte		N06   , En3 , v104
	.byte	W06
	.byte		        Gs3 , v092
	.byte	W06
	.byte		        Bn3 , v084
	.byte	W06
	.byte		        Cn4 , v080
	.byte	W06
	.byte		N72   , Cs4 , v080
	.byte	W36
	.byte		BEND  , c_v-2
	.byte	W02
	.byte		        c_v+6
	.byte	W02
	.byte		        c_v+12
	.byte	W02
	.byte		        c_v+0
	.byte	W02
	.byte		        c_v-18
	.byte	W03
	.byte		        c_v-4
	.byte	W02
	.byte		        c_v+13
	.byte	W02
	.byte		        c_v+10
	.byte	W02
	.byte		        c_v-14
	.byte	W02
	.byte		        c_v-9
	.byte	W03
	.byte		        c_v+10
	.byte	W02
	.byte		        c_v+14
	.byte	W02
	.byte		        c_v-6
	.byte	W02
	.byte		        c_v-16
	.byte	W02
	.byte		        c_v-2
	.byte	W01
	.byte		        c_v-8
	.byte	W02
	.byte		        c_v+4
	.byte	W02
	.byte		        c_v+0
	.byte	W01
	.byte		N24   , An3 
	.byte	W24
	.byte	PEND
	.byte		BEND  , c_v-32
	.byte		N48   , Dn4 
	.byte	W02
	.byte		BEND  , c_v-22
	.byte	W02
	.byte		        c_v-13
	.byte	W02
	.byte		        c_v-7
	.byte	W02
	.byte		        c_v-3
	.byte	W03
	.byte		        c_v-1
	.byte	W01
	.byte		        c_v+0
	.byte	W36
	.byte		N18   , An3 
	.byte	W18
	.byte		BEND  , c_v-32
	.byte		N18   , Fs4 
	.byte	W02
	.byte		BEND  , c_v-22
	.byte	W02
	.byte		        c_v-13
	.byte	W02
	.byte		        c_v-7
	.byte	W02
	.byte		        c_v-3
	.byte	W03
	.byte		        c_v-1
	.byte	W01
	.byte		        c_v+0
	.byte	W06
	.byte		N12   , Dn4 
	.byte	W12
	.byte	PATT
	 .word	seq_054_0 + 0x68A
	.byte		N72   , Bn3 , v080
	.byte	W24
	.byte		BEND  , c_v+0
	.byte	W06
	.byte		        c_v-1
	.byte	W07
	.byte		        c_v-4
	.byte	W06
	.byte		        c_v-9
	.byte	W07
	.byte		        c_v-15
	.byte	W04
	.byte		VOL   , 95*seq_054_mvl/mxv
	.byte	W03
	.byte		BEND  , c_v-23
	.byte	W04
	.byte		VOL   , 82*seq_054_mvl/mxv
	.byte	W02
	.byte		BEND  , c_v-33
	.byte	W04
	.byte		VOL   , 61*seq_054_mvl/mxv
	.byte	W01
	.byte		BEND  , c_v-40
	.byte	W04
	.byte		VOL   , 99*seq_054_mvl/mxv
	.byte		BEND  , c_v+0
	.byte		N06   , En3 , v104
	.byte	W06
	.byte		        Gs3 , v092
	.byte	W06
	.byte		        Bn3 , v084
	.byte	W06
	.byte		        Cn4 
	.byte	W06
	.byte	PATT
	 .word	seq_054_0 + 0x68A
	.byte		N48   , Dn4 , v080
	.byte	W48
	.byte		BEND  , c_v-32
	.byte		N18   , Fs4 
	.byte	W02
	.byte		BEND  , c_v-22
	.byte	W02
	.byte		        c_v-13
	.byte	W02
	.byte		        c_v-7
	.byte	W02
	.byte		        c_v-3
	.byte	W03
	.byte		        c_v-1
	.byte	W01
	.byte		        c_v+0
	.byte	W06
	.byte		N18   , Dn4 
	.byte	W18
	.byte		N12   , Fs4 
	.byte	W12
	.byte		N72   , En4 
	.byte	W24
	.byte		BEND  , c_v-2
	.byte	W08
	.byte		        c_v-4
	.byte	W05
	.byte		        c_v-8
	.byte	W10
	.byte		        c_v-6
	.byte	W04
	.byte		        c_v-2
	.byte	W06
	.byte		        c_v+0
	.byte	W15
	.byte		        c_v-32
	.byte		N24   , An4 , v072
	.byte	W02
	.byte		BEND  , c_v-22
	.byte	W02
	.byte		        c_v-13
	.byte	W02
	.byte		        c_v-7
	.byte	W02
	.byte		        c_v-3
	.byte	W03
	.byte		        c_v-1
	.byte	W01
	.byte		        c_v+0
	.byte	W12
	.byte		N96   , Gs4 
	.byte	W36
	.byte		BEND  , c_v-2
	.byte	W08
	.byte		        c_v-4
	.byte	W05
	.byte		        c_v-8
	.byte	W05
	.byte		VOL   , 98*seq_054_mvl/mxv
	.byte	W05
	.byte		BEND  , c_v-6
	.byte	W02
	.byte		VOL   , 95*seq_054_mvl/mxv
	.byte	W02
	.byte		BEND  , c_v-2
	.byte	W04
	.byte		VOL   , 93*seq_054_mvl/mxv
	.byte	W02
	.byte		BEND  , c_v+0
	.byte	W05
	.byte		VOL   , 87*seq_054_mvl/mxv
	.byte	W07
	.byte		        81*seq_054_mvl/mxv
	.byte	W06
	.byte		        74*seq_054_mvl/mxv
	.byte	W09
	.byte		        90*seq_054_mvl/mxv
	.byte		BEND  , c_v-50
	.byte		TIE   , An4 
	.byte	W02
	.byte		BEND  , c_v-34
	.byte	W02
	.byte		        c_v-20
	.byte	W02
	.byte		        c_v-11
	.byte	W02
	.byte		        c_v-4
	.byte	W03
	.byte		        c_v-1
	.byte	W01
	.byte		        c_v+0
	.byte	W12
	.byte		        c_v+0
	.byte	W06
	.byte		        c_v-1
	.byte	W24
	.byte		        c_v-3
	.byte	W20
	.byte		        c_v-5
	.byte	W04
	.byte		VOL   , 89*seq_054_mvl/mxv
	.byte	W08
	.byte		BEND  , c_v-8
	.byte	W05
	.byte		VOL   , 86*seq_054_mvl/mxv
	.byte	W05
	.byte	W02
	.byte		        83*seq_054_mvl/mxv
	.byte	W01
	.byte		BEND  , c_v-6
	.byte	W06
	.byte		VOL   , 78*seq_054_mvl/mxv
	.byte		BEND  , c_v-4
	.byte	W06
	.byte		VOL   , 74*seq_054_mvl/mxv
	.byte	W01
	.byte		BEND  , c_v-3
	.byte	W06
	.byte		VOL   , 68*seq_054_mvl/mxv
	.byte	W01
	.byte		BEND  , c_v-2
	.byte	W06
	.byte		VOL   , 62*seq_054_mvl/mxv
	.byte		BEND  , c_v-2
	.byte	W06
	.byte		VOL   , 55*seq_054_mvl/mxv
	.byte	W07
	.byte		        46*seq_054_mvl/mxv
	.byte	W07
	.byte		        37*seq_054_mvl/mxv
	.byte	W03
	.byte		BEND  , c_v-1
	.byte	W03
	.byte		VOL   , 27*seq_054_mvl/mxv
	.byte	W04
	.byte		BEND  , c_v-1
	.byte	W03
	.byte		VOL   , 18*seq_054_mvl/mxv
	.byte	W03
	.byte		BEND  , c_v-1
	.byte	W07
	.byte		EOT
	.byte		BEND  , c_v+0
	.byte	W24
	.byte	W96
	.byte	W96
	.byte	W96
	.byte	W96
	.byte	GOTO
	 .word	seq_054_0 + 0x7D7
	.byte	FINE

@*********************** Track 02 ***********************@

seq_054_1:
	.byte	KEYSH , seq_054_key+0
	.byte		VOICE , 36
	.byte		VOL   , 115*seq_054_mvl/mxv
	.byte		BENDR , 12
	.byte	W72
	.byte		BEND  , c_v+0
	.byte		N24   , An1 , v127
	.byte	W03
	.byte		BEND  , c_v-2
	.byte	W01
	.byte		        c_v-3
	.byte	W02
	.byte		        c_v-6
	.byte	W02
	.byte		        c_v-9
	.byte	W01
	.byte		        c_v-14
	.byte	W02
	.byte		        c_v-18
	.byte	W01
	.byte		        c_v-23
	.byte	W01
	.byte		        c_v-24
	.byte	W01
	.byte		        c_v-29
	.byte	W02
	.byte		        c_v-37
	.byte	W01
	.byte		        c_v-40
	.byte	W01
	.byte		        c_v-47
	.byte	W01
	.byte		        c_v-53
	.byte	W01
	.byte		        c_v-56
	.byte	W01
	.byte		        c_v-60
	.byte	W01
	.byte		        c_v-40
	.byte	W01
	.byte		        c_v-16
	.byte	W01
	.byte		        c_v+0
	.byte		N06   , An0 
	.byte	W12
	.byte		N06
	.byte	W12
	.byte		N12   , Cs1 
	.byte	W12
	.byte		N06   , Dn1 
	.byte	W06
	.byte		        En1 
	.byte	W12
	.byte		N06
	.byte	W12
	.byte		N06
	.byte	W06
	.byte		        Fs1 
	.byte	W12
	.byte		        En1 
	.byte	W12
	.byte		N06   , Dn1 , v127
	.byte	W12
	.byte		N06
	.byte	W12
	.byte		N12   , Fs1 
	.byte	W12
	.byte		N06   , An1 
	.byte	W06
	.byte		        Cn2 
	.byte	W12
	.byte		N06
	.byte	W12
	.byte		N06
	.byte	W06
	.byte		        Bn1 
	.byte	W12
	.byte		        An1 
	.byte	W12
	.byte	PEND
	.byte		N06   , An0 , v127
	.byte	W12
	.byte		N06
	.byte	W12
	.byte		N12   , Cs1 
	.byte	W12
	.byte		N06   , Dn1 
	.byte	W06
	.byte		        En1 
	.byte	W12
	.byte		N06
	.byte	W12
	.byte		N06
	.byte	W06
	.byte		        Fs1 
	.byte	W12
	.byte		        En1 
	.byte	W12
	.byte	PEND
	.byte		N06   , Dn1 , v127
	.byte	W12
	.byte		        Fs1 
	.byte	W12
	.byte		N12   , An1 
	.byte	W12
	.byte		N06   , Bn1 
	.byte	W06
	.byte		        Cn2 
	.byte	W12
	.byte		N06
	.byte	W12
	.byte		N06
	.byte	W06
	.byte		N06
	.byte	W06
	.byte		        Bn1 
	.byte	W06
	.byte		        Fs1 
	.byte	W06
	.byte		        An1 
	.byte	W06
	.byte	PEND
	.byte	PATT
	 .word	seq_054_1 + 0x5F
	.byte	PATT
	 .word	seq_054_1 + 0x48
	.byte	PATT
	 .word	seq_054_1 + 0x5F
	.byte		BEND  , c_v+0
	.byte		N72   , Dn1 , v127
	.byte	W72
	.byte		BEND  , c_v+0
	.byte		N24   , An1 
	.byte	W03
	.byte		BEND  , c_v-2
	.byte	W03
	.byte		        c_v-6
	.byte	W02
	.byte		        c_v-9
	.byte	W01
	.byte		        c_v-14
	.byte	W02
	.byte		        c_v-18
	.byte	W01
	.byte		        c_v-23
	.byte	W01
	.byte		        c_v-24
	.byte	W01
	.byte		        c_v-29
	.byte	W02
	.byte		        c_v-37
	.byte	W01
	.byte		        c_v-40
	.byte	W01
	.byte		        c_v-48
	.byte	W01
	.byte		        c_v-52
	.byte	W01
	.byte		        c_v-55
	.byte	W01
	.byte		        c_v-63
	.byte	W01
	.byte		        c_v-40
	.byte	W01
	.byte		        c_v-16
	.byte	W01
	.byte		BEND  , c_v+0
	.byte		N12   , An0 , v127
	.byte	W18
	.byte		N06
	.byte	W06
	.byte		N04   , An1 
	.byte	W12
	.byte		N12   , An0 
	.byte	W18
	.byte		N06
	.byte	W06
	.byte		N04   , An1 
	.byte	W12
	.byte		N06   , En0 
	.byte	W12
	.byte		N04   , An1 
	.byte	W12
	.byte	PEND
	.byte		N12   , An0 , v127
	.byte	W18
	.byte		N06
	.byte	W06
	.byte		N04   , An1 
	.byte	W12
	.byte		N12   , An0 
	.byte	W18
	.byte		N06
	.byte	W06
	.byte		N04   , An1 
	.byte	W12
	.byte		N06   , En0 
	.byte	W06
	.byte		N04   , An1 
	.byte	W06
	.byte		N12   , An0 
	.byte	W12
	.byte	PEND
	.byte		N12   , Dn1 , v127
	.byte	W18
	.byte		N06
	.byte	W06
	.byte		N04   , Dn2 
	.byte	W12
	.byte		N12   , Dn1 
	.byte	W18
	.byte		N06
	.byte	W06
	.byte		N04   , Dn2 
	.byte	W12
	.byte		N06   , An0 
	.byte	W12
	.byte		N04   , Dn2 
	.byte	W12
	.byte	PEND
	.byte		N12   , Dn1 , v127
	.byte	W18
	.byte		N06
	.byte	W06
	.byte		N04   , Dn2 
	.byte	W12
	.byte		N12   , Dn1 
	.byte	W18
	.byte		N04   , Dn2 
	.byte	W12
	.byte		N06   , Dn1 
	.byte	W06
	.byte		        Bn0 
	.byte	W06
	.byte		N04   , Dn2 
	.byte	W06
	.byte		N12   , Bn1 
	.byte	W12
	.byte	PEND
	.byte		N12   , An0 , v127
	.byte	W18
	.byte		N06
	.byte	W06
	.byte		N04   , An1 
	.byte	W12
	.byte		N12   , An0 
	.byte	W18
	.byte		N06
	.byte	W06
	.byte		N04   , An1 
	.byte	W12
	.byte		N06   , En0 
	.byte	W12
	.byte		N04   , An1 
	.byte	W12
	.byte	PEND
	.byte		N12   , An0 , v127
	.byte	W18
	.byte		N06
	.byte	W06
	.byte		N04   , An1 
	.byte	W12
	.byte		N12   , An0 
	.byte	W18
	.byte		N06
	.byte	W06
	.byte		N04   , An1 
	.byte	W12
	.byte		N06   , En0 
	.byte	W06
	.byte		N04   , An1 
	.byte	W12
	.byte		        As0 
	.byte	W06
	.byte	PEND
	.byte		N12   , Bn0 , v127
	.byte	W18
	.byte		N06
	.byte	W06
	.byte		N04   , Bn1 
	.byte	W12
	.byte		N12   , Bn0 
	.byte	W18
	.byte		N06
	.byte	W06
	.byte		N04   , Bn1 
	.byte	W12
	.byte		N06   , En0 
	.byte	W12
	.byte		N04   , Bn1 
	.byte	W12
	.byte	PEND
	.byte		N12   , Bn0 , v127
	.byte	W18
	.byte		N06
	.byte	W06
	.byte		N04   , Bn1 
	.byte	W12
	.byte		N12   , Bn0 
	.byte	W18
	.byte		N04   , Bn1 
	.byte	W12
	.byte		N06   , En0 
	.byte	W06
	.byte		        Bn0 
	.byte	W06
	.byte		N04   , Bn1 
	.byte	W06
	.byte		BEND  , c_v+0
	.byte		N12   , En1 
	.byte	W01
	.byte		BEND  , c_v-2
	.byte	W01
	.byte		        c_v-3
	.byte	W01
	.byte		        c_v-8
	.byte	W01
	.byte		        c_v-11
	.byte	W01
	.byte		        c_v-19
	.byte	W01
	.byte		        c_v-24
	.byte	W01
	.byte		        c_v-30
	.byte	W01
	.byte		        c_v-42
	.byte	W01
	.byte		        c_v-49
	.byte	W01
	.byte		        c_v-57
	.byte	W01
	.byte		        c_v-16
	.byte	W01
	.byte	PEND
	.byte	PATT
	 .word	seq_054_1 + 0xCC
	.byte	PATT
	 .word	seq_054_1 + 0xE6
	.byte	PATT
	 .word	seq_054_1 + 0x101
	.byte	PATT
	 .word	seq_054_1 + 0x119
	.byte	PATT
	 .word	seq_054_1 + 0x134
	.byte	PATT
	 .word	seq_054_1 + 0x14C
	.byte	PATT
	 .word	seq_054_1 + 0x166
	.byte		N05   , Bn0 , v127
	.byte	W06
	.byte		N06
	.byte	W12
	.byte		N04   , Bn1 
	.byte	W06
	.byte		N06   , Bn0 
	.byte	W12
	.byte		N05
	.byte	W06
	.byte		N06
	.byte	W12
	.byte		N04   , Bn1 
	.byte	W12
	.byte		N06   , En0 
	.byte	W06
	.byte		        Bn0 
	.byte	W06
	.byte		N04   , Bn1 
	.byte	W06
	.byte		BEND  , c_v+0
	.byte		N12   , En1 
	.byte	W01
	.byte		BEND  , c_v-2
	.byte	W01
	.byte		        c_v-3
	.byte	W01
	.byte		        c_v-8
	.byte	W01
	.byte		        c_v-11
	.byte	W01
	.byte		        c_v-19
	.byte	W01
	.byte		        c_v-24
	.byte	W01
	.byte		        c_v-30
	.byte	W01
	.byte		        c_v-42
	.byte	W01
	.byte		        c_v-49
	.byte	W01
	.byte		        c_v-57
	.byte	W01
	.byte		        c_v-16
	.byte	W01
	.byte	PEND
	.byte		BEND  , c_v+0
	.byte		N18   , Dn1 , v127
	.byte	W18
	.byte		N06   , An0 
	.byte	W06
	.byte		        Fs0 
	.byte	W06
	.byte		N03   , Dn2 
	.byte	W06
	.byte		N12   , Dn1 
	.byte	W12
	.byte		N18   , An0 
	.byte	W18
	.byte		        Fs1 
	.byte	W18
	.byte		N12   , Fs0 
	.byte	W12
	.byte	PEND
	.byte		N18   , Dn1 , v127
	.byte	W18
	.byte		N06   , An0 
	.byte	W06
	.byte		        Fs0 
	.byte	W06
	.byte		N03   , Dn2 
	.byte	W06
	.byte		N12   , Dn1 
	.byte	W12
	.byte		N24   , An0 
	.byte	W24
	.byte		        Bn0 
	.byte	W24
	.byte	PEND
	.byte		N18   , Cs1 , v127
	.byte	W18
	.byte		N06   , An0 
	.byte	W06
	.byte		        En0 
	.byte	W06
	.byte		N03   , Cs2 
	.byte	W06
	.byte		N12   , Cs1 
	.byte	W12
	.byte		N18   , An0 
	.byte	W18
	.byte		        En1 
	.byte	W18
	.byte		N12   , En0 
	.byte	W12
	.byte	PEND
	.byte		N18   , Cs1 , v127
	.byte	W18
	.byte		N06   , An0 
	.byte	W06
	.byte		        En0 
	.byte	W06
	.byte		N03   , Cs2 
	.byte	W06
	.byte		N12   , Cs1 
	.byte	W12
	.byte		N06   , An0 
	.byte	W06
	.byte		N03   , An1 
	.byte	W12
	.byte		N06   , En0 
	.byte	W06
	.byte		        As0 
	.byte	W06
	.byte		N03   , As1 
	.byte	W18
	.byte	PEND
	.byte		N18   , Bn0 , v127
	.byte	W18
	.byte		N06   , Gs0 
	.byte	W06
	.byte		        En0 
	.byte	W06
	.byte		N03   , En2 
	.byte	W06
	.byte		N12   , Bn0 
	.byte	W12
	.byte		N18   , En0 
	.byte	W18
	.byte		        En1 
	.byte	W18
	.byte		N12   , Gs0 
	.byte	W12
	.byte	PEND
	.byte		N18   , Bn0 , v127
	.byte	W18
	.byte		N06   , Gs0 
	.byte	W06
	.byte		        En0 
	.byte	W06
	.byte		N03   , En2 
	.byte	W06
	.byte		N12   , Bn0 
	.byte	W12
	.byte		N24   , Gs0 
	.byte	W24
	.byte		N06   , Bn0 
	.byte	W06
	.byte		N03   , Bn1 
	.byte	W12
	.byte		N06   , En0 
	.byte	W06
	.byte	PEND
	.byte		N48   , An0 , v127
	.byte	W48
	.byte		        Bn0 
	.byte	W48
	.byte	PEND
	.byte		N18   , Cn1 , v127
	.byte	W18
	.byte		N06   , En0 
	.byte	W18
	.byte		N18   , Cs1 
	.byte	W24
	.byte		N36   , An1 
	.byte	W12
	.byte		BEND  , c_v+0
	.byte	W03
	.byte		        c_v-2
	.byte	W01
	.byte		        c_v-4
	.byte	W02
	.byte		        c_v-7
	.byte	W02
	.byte		        c_v-10
	.byte	W01
	.byte		        c_v-13
	.byte	W01
	.byte		        c_v-14
	.byte	W01
	.byte		        c_v-19
	.byte	W02
	.byte		        c_v-24
	.byte	W01
	.byte		        c_v-30
	.byte	W02
	.byte		        c_v-38
	.byte	W01
	.byte		        c_v-41
	.byte	W01
	.byte		        c_v-45
	.byte	W01
	.byte		        c_v-53
	.byte	W01
	.byte		        c_v-58
	.byte	W01
	.byte		        c_v-62
	.byte	W01
	.byte		        c_v-40
	.byte	W01
	.byte		        c_v-16
	.byte	W01
	.byte	PEND
	.byte		BEND  , c_v+0
	.byte		N18   , Dn1 , v127
	.byte	W18
	.byte		N06   , An0 
	.byte	W06
	.byte		        Fs0 
	.byte	W06
	.byte		N03   , Dn2 
	.byte	W06
	.byte		N12   , Dn1 
	.byte	W12
	.byte		N18   , An0 
	.byte	W18
	.byte		        An1 
	.byte	W18
	.byte		N12   , Dn1 
	.byte	W12
	.byte	PEND
	.byte		N18   , Cs1 , v127
	.byte	W18
	.byte		N06   , An0 
	.byte	W06
	.byte		        En0 
	.byte	W06
	.byte		N03   , Cs2 
	.byte	W06
	.byte		N12   , Cs1 
	.byte	W12
	.byte		N18   , An0 
	.byte	W18
	.byte		        An1 
	.byte	W18
	.byte		N12   , An0 
	.byte	W12
	.byte	PEND
	.byte		N18   , Bn0 , v127
	.byte	W18
	.byte		N06   , En0 
	.byte	W06
	.byte		        Gs0 
	.byte	W06
	.byte		N03   , Bn1 
	.byte	W06
	.byte		N12   , Bn0 
	.byte	W12
	.byte		N18   , En0 
	.byte	W18
	.byte		N12   , En1 
	.byte	W12
	.byte		N06   , Gs0 
	.byte	W06
	.byte		N12   , Bn0 
	.byte	W12
	.byte	PEND
	.byte		N06   , An0 , v127
	.byte	W06
	.byte		N03   , An1 
	.byte	W06
	.byte		N12   , En0 
	.byte	W12
	.byte		        Bn0 
	.byte	W12
	.byte		        En0 
	.byte	W12
	.byte		        Cn1 
	.byte	W12
	.byte		N06   , Gs0 
	.byte	W06
	.byte		        Cs1 
	.byte	W12
	.byte		N18   , An0 
	.byte	W18
	.byte	PEND
	.byte		N18   , Dn1 , v127
	.byte	W18
	.byte		N06   , An0 
	.byte	W06
	.byte		        Fs0 
	.byte	W06
	.byte		N03   , Dn2 
	.byte	W06
	.byte		N12   , Dn1 
	.byte	W12
	.byte		N18   , An0 
	.byte	W18
	.byte		        An1 
	.byte	W18
	.byte		N12   , Dn1 
	.byte	W12
	.byte	PEND
	.byte		N18   , Cs1 , v127
	.byte	W18
	.byte		N06   , Gn1 
	.byte	W06
	.byte		        Gn0 
	.byte	W06
	.byte		N03   , Cs2 
	.byte	W06
	.byte		N30   , Fs0 
	.byte	W30
	.byte		N18   , Cs1 
	.byte	W18
	.byte		N12   , Dn1 
	.byte	W12
	.byte	PEND
	.byte		N03   , An1 , v127
	.byte	W06
	.byte		N06   , En0 
	.byte	W06
	.byte		        En1 
	.byte	W06
	.byte		        En0 
	.byte	W18
	.byte		N06
	.byte	W06
	.byte		N03   , En1 
	.byte	W18
	.byte		N06   , En0 
	.byte	W18
	.byte		N18
	.byte	W18
	.byte	PEND
	.byte	W06
	.byte		N06   , En0 , v127
	.byte	W06
	.byte		        En1 
	.byte	W06
	.byte		        En0 
	.byte	W18
	.byte		N06
	.byte	W24
	.byte		N06
	.byte	W06
	.byte		N03   , En1 
	.byte	W12
	.byte		N18   , Fs0 
	.byte	W18
	.byte	PEND
	.byte		N03   , Gn1 
	.byte	W06
	.byte		N06   , Gn0 
	.byte	W12
	.byte		N06
	.byte	W06
	.byte		        Bn0 
	.byte	W06
	.byte		        Gn0 
	.byte	W06
	.byte		        Fs0 
	.byte	W06
	.byte		N03   , Dn2 
	.byte	W12
	.byte		N06   , Gn0 
	.byte	W06
	.byte		        Bn0 
	.byte	W06
	.byte		        Gn0 
	.byte	W06
	.byte		        Dn0 
	.byte	W06
	.byte		N03   , Gs1 
	.byte	W06
	.byte		N05   , En1 
	.byte	W06
	.byte		N06
	.byte	W06
	.byte		BEND  , c_v+0
	.byte	W72
	.byte		        c_v+0
	.byte		N24   , An1 
	.byte	W03
	.byte		BEND  , c_v-2
	.byte	W03
	.byte		        c_v-6
	.byte	W02
	.byte		        c_v-9
	.byte	W01
	.byte		        c_v-14
	.byte	W02
	.byte		        c_v-18
	.byte	W01
	.byte		        c_v-23
	.byte	W01
	.byte		        c_v-24
	.byte	W01
	.byte		        c_v-29
	.byte	W02
	.byte		        c_v-37
	.byte	W01
	.byte		        c_v-40
	.byte	W01
	.byte		        c_v-48
	.byte	W01
	.byte		        c_v-52
	.byte	W01
	.byte		        c_v-55
	.byte	W01
	.byte		        c_v-63
	.byte	W01
	.byte		        c_v-40
	.byte	W01
	.byte		        c_v-16
	.byte	W01
	.byte	PATT
	 .word	seq_054_1 + 0xCC
	.byte	PATT
	 .word	seq_054_1 + 0xE6
	.byte	PATT
	 .word	seq_054_1 + 0x101
	.byte	PATT
	 .word	seq_054_1 + 0x119
	.byte	PATT
	 .word	seq_054_1 + 0x134
	.byte	PATT
	 .word	seq_054_1 + 0x14C
	.byte	PATT
	 .word	seq_054_1 + 0x166
	.byte	PATT
	 .word	seq_054_1 + 0x17E
	.byte	PATT
	 .word	seq_054_1 + 0xCC
	.byte	PATT
	 .word	seq_054_1 + 0xE6
	.byte	PATT
	 .word	seq_054_1 + 0x101
	.byte	PATT
	 .word	seq_054_1 + 0x119
	.byte	PATT
	 .word	seq_054_1 + 0x134
	.byte	PATT
	 .word	seq_054_1 + 0x14C
	.byte	PATT
	 .word	seq_054_1 + 0x166
	.byte	PATT
	 .word	seq_054_1 + 0x1D5
	.byte	PATT
	 .word	seq_054_1 + 0x20D
	.byte	PATT
	 .word	seq_054_1 + 0x227
	.byte	PATT
	 .word	seq_054_1 + 0x23C
	.byte	PATT
	 .word	seq_054_1 + 0x254
	.byte	PATT
	 .word	seq_054_1 + 0x272
	.byte	PATT
	 .word	seq_054_1 + 0x28A
	.byte	PATT
	 .word	seq_054_1 + 0x2A6
	.byte	PATT
	 .word	seq_054_1 + 0x2AD
	.byte	PATT
	 .word	seq_054_1 + 0x2E0
	.byte	PATT
	 .word	seq_054_1 + 0x2FA
	.byte	PATT
	 .word	seq_054_1 + 0x312
	.byte	PATT
	 .word	seq_054_1 + 0x32E
	.byte	PATT
	 .word	seq_054_1 + 0x347
	.byte	PATT
	 .word	seq_054_1 + 0x35F
	.byte	PATT
	 .word	seq_054_1 + 0x375
	.byte	PATT
	 .word	seq_054_1 + 0x38B
	.byte		N03   , Gn1 , v127
	.byte	W06
	.byte		N06   , Gn0 
	.byte	W06
	.byte		        Bn1 
	.byte	W06
	.byte		        Gn0 
	.byte	W18
	.byte		N06
	.byte	W06
	.byte		N03   , Gn1 
	.byte	W18
	.byte		N06   , Gn0 
	.byte	W18
	.byte		N18   , Gn1 
	.byte	W18
	.byte		N05   , Gn0 
	.byte	W06
	.byte		N06
	.byte	W18
	.byte		BEND  , c_v+0
	.byte		N24   , Bn1 
	.byte	W03
	.byte		BEND  , c_v-2
	.byte	W03
	.byte		        c_v-7
	.byte	W04
	.byte		        c_v-14
	.byte	W03
	.byte		        c_v-25
	.byte	W03
	.byte		        c_v-38
	.byte	W04
	.byte		        c_v-55
	.byte	W02
	.byte		        c_v-64
	.byte	W02
	.byte		        c_v+0
	.byte		N12   , Gn0 
	.byte	W12
	.byte		N03   , Gn1 
	.byte	W06
	.byte		N12   , Fs0 
	.byte	W12
	.byte		N03   , Fs1 
	.byte	W06
	.byte		N12   , Gn0 
	.byte	W12
	.byte		N03   , Gs1 , v127
	.byte	W06
	.byte		N06   , En0 
	.byte	W06
	.byte		        En1 
	.byte	W06
	.byte		        En0 
	.byte	W18
	.byte		N06
	.byte	W06
	.byte		N03   , En1 
	.byte	W18
	.byte		N06   , En0 
	.byte	W18
	.byte		N18
	.byte	W18
	.byte	PEND
	.byte	W06
	.byte		N06   , En0 , v127
	.byte	W06
	.byte		        En1 
	.byte	W06
	.byte		        En0 
	.byte	W18
	.byte		N06
	.byte	W24
	.byte		N06
	.byte	W06
	.byte		N03   , En1 
	.byte	W12
	.byte		N18   , En0 
	.byte	W18
	.byte	PEND
	.byte	PATT
	 .word	seq_054_1 + 0x4C8
	.byte	PATT
	 .word	seq_054_1 + 0x4DE
	.byte		N03   , An1 , v127
	.byte	W06
	.byte		N06   , Fn0 
	.byte	W06
	.byte		        Fn1 
	.byte	W06
	.byte		        Fn0 
	.byte	W18
	.byte		N06
	.byte	W06
	.byte		N03   , Fn1 
	.byte	W18
	.byte		N06   , Fn0 
	.byte	W18
	.byte		N18
	.byte	W18
	.byte	W06
	.byte		N06
	.byte	W06
	.byte		        Fn1 
	.byte	W06
	.byte		        Fn0 
	.byte	W18
	.byte		N06
	.byte	W06
	.byte		N06
	.byte	W18
	.byte		N06
	.byte	W18
	.byte		N18
	.byte	W18
	.byte	W06
	.byte		N06
	.byte	W06
	.byte		        Fn1 
	.byte	W06
	.byte		        Fn0 
	.byte	W18
	.byte		N06
	.byte	W06
	.byte		N06
	.byte	W18
	.byte		N06
	.byte	W06
	.byte		N03   , Fn1 
	.byte	W12
	.byte		N18   , Fn0 
	.byte	W18
	.byte	W06
	.byte		N06
	.byte	W06
	.byte		        Fn1 
	.byte	W06
	.byte		        Fn0 
	.byte	W12
	.byte		N03   , Fn1 
	.byte	W06
	.byte		N06   , Fn0 
	.byte	W06
	.byte		N06
	.byte	W12
	.byte		N03   , An1 
	.byte	W12
	.byte		N06   , Fn0 
	.byte	W06
	.byte		N06
	.byte	W06
	.byte		N03   , Fn1 
	.byte	W06
	.byte		N06   , Fn0 
	.byte	W06
	.byte		N30
	.byte	W06
	.byte		BEND  , c_v+0
	.byte	W03
	.byte		VOL   , 112*seq_054_mvl/mxv
	.byte		BEND  , c_v-1
	.byte	W03
	.byte		VOL   , 105*seq_054_mvl/mxv
	.byte		BEND  , c_v-3
	.byte	W04
	.byte		VOL   , 94*seq_054_mvl/mxv
	.byte		BEND  , c_v-6
	.byte	W03
	.byte		VOL   , 77*seq_054_mvl/mxv
	.byte		BEND  , c_v-11
	.byte	W03
	.byte		VOL   , 57*seq_054_mvl/mxv
	.byte		BEND  , c_v-16
	.byte	W04
	.byte		VOL   , 32*seq_054_mvl/mxv
	.byte		BEND  , c_v-23
	.byte	W02
	.byte		        c_v-32
	.byte	W01
	.byte		VOL   , 3*seq_054_mvl/mxv
	.byte	W01
	.byte		        0*seq_054_mvl/mxv
	.byte	W24
	.byte		        115*seq_054_mvl/mxv
	.byte		BEND  , c_v+0
	.byte	W48
	.byte	W96
	.byte	W96
	.byte	W78
	.byte		N18   , En0 
	.byte	W18
	.byte		N06   , An0 
	.byte	W06
	.byte		N06
	.byte	W30
	.byte		N06
	.byte	W06
	.byte		N06
	.byte	W54
	.byte		N06
	.byte	W06
	.byte		N06
	.byte	W30
	.byte		N06
	.byte	W06
	.byte		N06
	.byte	W36
	.byte		N18   , En0 
	.byte	W18
	.byte		N06   , An0 
	.byte	W06
	.byte		N06
	.byte	W30
	.byte		N06
	.byte	W06
	.byte		N06
	.byte	W30
	.byte		N06
	.byte	W06
	.byte		N06
	.byte	W12
	.byte		N06
	.byte	W06
	.byte		N72   , En0 
	.byte	W72
	.byte		BEND  , c_v+0
	.byte		N24   , Fs1 
	.byte	W03
	.byte		BEND  , c_v-2
	.byte	W03
	.byte		        c_v-6
	.byte	W03
	.byte		        c_v-14
	.byte	W04
	.byte		        c_v-24
	.byte	W03
	.byte		        c_v-37
	.byte	W03
	.byte		        c_v-53
	.byte	W03
	.byte		        c_v-64
	.byte	W02
	.byte	PATT
	 .word	seq_054_1 + 0xCC
	.byte	PATT
	 .word	seq_054_1 + 0xE6
	.byte	PATT
	 .word	seq_054_1 + 0x101
	.byte	PATT
	 .word	seq_054_1 + 0x119
	.byte	PATT
	 .word	seq_054_1 + 0x134
	.byte	PATT
	 .word	seq_054_1 + 0x14C
	.byte	PATT
	 .word	seq_054_1 + 0x166
	.byte		N12   , Bn0 , v127
	.byte	W18
	.byte		N06
	.byte	W06
	.byte		N04   , Bn1 
	.byte	W12
	.byte		N12   , Bn0 
	.byte	W18
	.byte		N04   , Bn1 
	.byte	W12
	.byte		N06   , En0 
	.byte	W06
	.byte		        Bn0 
	.byte	W06
	.byte		N04   , Bn1 
	.byte	W06
	.byte		BEND  , c_v+0
	.byte		N12   , En1 
	.byte	W02
	.byte		BEND  , c_v-3
	.byte	W02
	.byte		        c_v-11
	.byte	W02
	.byte		        c_v-24
	.byte	W02
	.byte		        c_v-42
	.byte	W03
	.byte		        c_v-64
	.byte	W01
	.byte	PATT
	 .word	seq_054_1 + 0xCC
	.byte	PATT
	 .word	seq_054_1 + 0xE6
	.byte	PATT
	 .word	seq_054_1 + 0x101
	.byte		N12   , Dn1 , v127
	.byte	W18
	.byte		N06
	.byte	W06
	.byte		N04   , Dn2 
	.byte	W12
	.byte		N06   , Dn1 
	.byte	W06
	.byte		        An0 
	.byte	W06
	.byte		        Dn1 
	.byte	W06
	.byte		N04   , Dn2 
	.byte	W12
	.byte		N06   , Dn1 
	.byte	W06
	.byte		N04   , Dn2 
	.byte	W12
	.byte		N06   , Bn0 
	.byte	W06
	.byte		N04   , Bn1 
	.byte	W06
	.byte	PATT
	 .word	seq_054_1 + 0x134
	.byte	PATT
	 .word	seq_054_1 + 0x14C
	.byte	PATT
	 .word	seq_054_1 + 0x166
	.byte		N12   , Bn0 , v127
	.byte	W18
	.byte		N06
	.byte	W06
	.byte		N04   , Bn1 
	.byte	W12
	.byte		N12   , Bn0 
	.byte	W18
	.byte		N04   , Bn1 
	.byte	W12
	.byte		N06   , En0 
	.byte	W06
	.byte		        Bn0 
	.byte	W06
	.byte		N04   , Bn1 
	.byte	W06
	.byte		BEND  , c_v+0
	.byte		N12   , An0 
	.byte	W02
	.byte		BEND  , c_v-3
	.byte	W02
	.byte		        c_v-11
	.byte	W02
	.byte		        c_v-24
	.byte	W02
	.byte		        c_v-42
	.byte	W03
	.byte		        c_v-64
	.byte	W01
	.byte		        c_v+0
	.byte		N12   , Gn0 
	.byte	W18
	.byte		N06
	.byte	W06
	.byte		N04   , Gn1 
	.byte	W12
	.byte		N12   , Gn0 
	.byte	W18
	.byte		N04   , Gn1 
	.byte	W12
	.byte		N06   , Dn0 
	.byte	W06
	.byte		        Gn0 
	.byte	W06
	.byte		N04   , Gn1 
	.byte	W06
	.byte		N12   , Dn1 
	.byte	W12
	.byte		        Gn0 
	.byte	W18
	.byte		N06
	.byte	W06
	.byte		N04   , Gn1 
	.byte	W12
	.byte		N12   , Gn0 
	.byte	W18
	.byte		N04   , Gn1 
	.byte	W12
	.byte		N06   , Dn0 
	.byte	W06
	.byte		        Gn0 
	.byte	W06
	.byte		N04   , Gn1 
	.byte	W06
	.byte		N12   , Gs0 
	.byte	W12
	.byte		        An0 
	.byte	W18
	.byte		N06
	.byte	W06
	.byte		N04   , An1 
	.byte	W12
	.byte		N12   , An0 
	.byte	W18
	.byte		N04   , An1 
	.byte	W12
	.byte		N06   , En0 
	.byte	W06
	.byte		        An0 
	.byte	W06
	.byte		N04   , An1 
	.byte	W06
	.byte		N12   , En1 
	.byte	W12
	.byte		        An0 
	.byte	W18
	.byte		N06
	.byte	W06
	.byte		N04   , An1 
	.byte	W12
	.byte		N12   , An0 
	.byte	W18
	.byte		N04   , An1 
	.byte	W12
	.byte		N06   , En0 
	.byte	W06
	.byte		        An0 
	.byte	W06
	.byte		N30   , An1 
	.byte	W06
	.byte		BEND  , c_v+0
	.byte	W03
	.byte		        c_v-2
	.byte	W03
	.byte		        c_v-6
	.byte	W03
	.byte		        c_v-14
	.byte	W03
	.byte	W01
	.byte		        c_v-24
	.byte	W03
	.byte		        c_v-37
	.byte	W03
	.byte		        c_v-53
	.byte	W03
	.byte		        c_v-64
	.byte	W02
	.byte		        c_v+0
	.byte		N06   , An0 
	.byte	W12
	.byte		N12   , Cs1 
	.byte	W12
	.byte		N06   , Dn1 
	.byte	W06
	.byte		        En1 
	.byte	W12
	.byte		N06
	.byte	W12
	.byte		N06
	.byte	W06
	.byte		        Fs1 
	.byte	W12
	.byte		        En1 
	.byte	W12
	.byte	PATT
	 .word	seq_054_1 + 0x48
	.byte	PATT
	 .word	seq_054_1 + 0x5F
	.byte	PATT
	 .word	seq_054_1 + 0x76
	.byte	PATT
	 .word	seq_054_1 + 0x5F
	.byte	PATT
	 .word	seq_054_1 + 0x48
	.byte	PATT
	 .word	seq_054_1 + 0x5F
	.byte	PATT
	 .word	seq_054_1 + 0x76
	.byte	PATT
	 .word	seq_054_1 + 0x5F
	.byte	PATT
	 .word	seq_054_1 + 0x48
	.byte	PATT
	 .word	seq_054_1 + 0x5F
	.byte		N06   , En0 , v127
	.byte	W12
	.byte		        Gs0 
	.byte	W12
	.byte		N12   , Bn0 
	.byte	W12
	.byte		N06   , Dn1 
	.byte	W06
	.byte		        En1 
	.byte	W12
	.byte		N06
	.byte	W12
	.byte		N06
	.byte	W06
	.byte		N06
	.byte	W06
	.byte		        Dn1 
	.byte	W06
	.byte		        Cs1 
	.byte	W06
	.byte		        Bn0 
	.byte	W06
	.byte	PEND
	.byte	PATT
	 .word	seq_054_1 + 0x5F
	.byte	PATT
	 .word	seq_054_1 + 0x48
	.byte	PATT
	 .word	seq_054_1 + 0x5F
	.byte	PATT
	 .word	seq_054_1 + 0x723
	.byte	PATT
	 .word	seq_054_1 + 0x5F
	.byte	PATT
	 .word	seq_054_1 + 0x48
	.byte	PATT
	 .word	seq_054_1 + 0x5F
	.byte	PATT
	 .word	seq_054_1 + 0x723
	.byte	PATT
	 .word	seq_054_1 + 0x5F
	.byte	PATT
	 .word	seq_054_1 + 0x48
	.byte	PATT
	 .word	seq_054_1 + 0x5F
	.byte	PATT
	 .word	seq_054_1 + 0x76
	.byte	PATT
	 .word	seq_054_1 + 0x5F
	.byte	PATT
	 .word	seq_054_1 + 0x48
	.byte	GOTO
	 .word	seq_054_1 + 0x770
	.byte	FINE

@*********************** Track 03 ***********************@

seq_054_2:
	.byte	KEYSH , seq_054_key+0
	.byte		VOICE , 31
	.byte		BENDR , 12
	.byte		VOL   , 81*seq_054_mvl/mxv
	.byte	W96
	.byte	W96
	.byte	W96
	.byte	W96
	.byte		BEND  , c_v+0
	.byte	W72
	.byte		N05   , En2 , v068
	.byte		N05   , Bn2 
	.byte	W06
	.byte		N02   , En2 , v056
	.byte		N02   , Bn2 
	.byte	W06
	.byte		N11   , En2 , v068
	.byte		N11   , Cn3 
	.byte	W12
	.byte		N11   , En2 , v068
	.byte		N11   , Cs3 
	.byte	W12
	.byte		N02   , En2 
	.byte		N02   , Cs3 
	.byte	W06
	.byte		        En2 , v056
	.byte		N02   , Cs3 
	.byte	W18
	.byte		N11   , En2 , v068
	.byte		N11   , Cs3 
	.byte	W12
	.byte		N02   , En2 
	.byte		N02   , Cs3 
	.byte	W06
	.byte		        En2 , v056
	.byte		N02   , Cs3 
	.byte	W18
	.byte		N05   , En2 , v068
	.byte		N05   , Cs3 
	.byte	W06
	.byte		N02   , En2 , v056
	.byte		N02   , Cs3 
	.byte	W06
	.byte		        En2 , v068
	.byte		N02   , Cs3 
	.byte	W06
	.byte		        En2 , v056
	.byte		N02   , Cs3 
	.byte	W06
	.byte	PEND
	.byte		N11   , Fs2 , v068
	.byte		N11   , Dn3 
	.byte	W12
	.byte		N02   , Fs2 
	.byte		N02   , Dn3 
	.byte	W06
	.byte		        Fs2 , v056
	.byte		N02   , Dn3 
	.byte	W18
	.byte		N11   , Fs2 , v068
	.byte		N11   , Dn3 
	.byte	W12
	.byte		N02   , Fs2 
	.byte		N02   , Dn3 
	.byte	W06
	.byte		        Fs2 , v056
	.byte		N02   , Dn3 
	.byte	W18
	.byte		N05   , Fs2 , v068
	.byte		N05   , Dn3 
	.byte	W06
	.byte		N02   , Fs2 , v056
	.byte		N02   , Dn3 
	.byte	W06
	.byte		        Fs2 , v068
	.byte		N02   , Dn3 
	.byte	W06
	.byte		        Fs2 , v056
	.byte		N02   , Dn3 
	.byte	W06
	.byte	PEND
	.byte		N11   , En2 , v068
	.byte		N11   , Cs3 
	.byte	W12
	.byte		N02   , En2 
	.byte		N02   , Cs3 
	.byte	W06
	.byte		        En2 , v056
	.byte		N02   , Cs3 
	.byte	W18
	.byte		N11   , En2 , v068
	.byte		N11   , Cs3 
	.byte	W12
	.byte		N02   , En2 
	.byte		N02   , Cs3 
	.byte	W06
	.byte		        En2 , v056
	.byte		N02   , Cs3 
	.byte	W18
	.byte		N24   , En2 , v068
	.byte		N24   , Cs3 
	.byte	W24
	.byte	PEND
	.byte		N96   , Fs2 , v068
	.byte	W01
	.byte		N92   , Dn3 
	.byte	W92
	.byte	W03
	.byte	PEND
	.byte		BEND  , c_v+0
	.byte		N17   , An2 , v068
	.byte		N17   , Cs3 
	.byte	W18
	.byte		N02   , An2 , v056
	.byte		N02   , Cs3 
	.byte	W18
	.byte		N17   , An2 , v068
	.byte		N17   , Cs3 
	.byte	W18
	.byte		N02   , An2 , v056
	.byte		N02   , Cs3 
	.byte	W30
	.byte		        An2 , v068
	.byte		N02   , Cs3 
	.byte	W06
	.byte		        An2 , v056
	.byte		N02   , Cs3 
	.byte	W06
	.byte	PEND
	.byte		N17   , An2 , v068
	.byte		N17   , Cs3 
	.byte	W18
	.byte		N02   , An2 , v056
	.byte		N02   , Cs3 
	.byte	W18
	.byte		N17   , An2 , v068
	.byte		N17   , Cs3 
	.byte	W18
	.byte		N02   , An2 , v056
	.byte		N02   , Cs3 
	.byte	W18
	.byte		N04   , An2 , v068
	.byte		N04   , Cs3 
	.byte	W06
	.byte		N02   , An2 , v056
	.byte		N02   , Cs3 
	.byte	W06
	.byte		N12   , An2 , v068
	.byte		N12   , Cs3 
	.byte	W12
	.byte	PEND
	.byte		N17   , An2 , v068
	.byte		N17   , Dn3 
	.byte	W18
	.byte		N02   , An2 , v056
	.byte		N02   , Dn3 
	.byte	W18
	.byte		N17   , An2 , v068
	.byte		N17   , Dn3 
	.byte	W18
	.byte		N02   , An2 , v056
	.byte		N02   , Dn3 
	.byte	W30
	.byte		        An2 , v068
	.byte		N02   , Dn3 
	.byte	W06
	.byte		        An2 , v056
	.byte		N02   , Dn3 
	.byte	W06
	.byte	PEND
	.byte		N17   , An2 , v068
	.byte		N17   , Dn3 
	.byte	W18
	.byte		N02   , An2 , v056
	.byte		N02   , Dn3 
	.byte	W18
	.byte		N17   , An2 , v068
	.byte		N17   , Dn3 
	.byte	W18
	.byte		N02   , An2 , v056
	.byte		N02   , Dn3 
	.byte	W18
	.byte		N04   , An2 , v068
	.byte		N04   , Dn3 
	.byte	W06
	.byte		N02   , An2 , v056
	.byte		N02   , Dn3 
	.byte	W06
	.byte		        An2 , v068
	.byte		N02   , Dn3 
	.byte	W06
	.byte		        An2 , v056
	.byte		N02   , Dn3 
	.byte	W06
	.byte	PEND
	.byte		N17   , An2 , v068
	.byte		N17   , Cs3 
	.byte	W18
	.byte		N02   , An2 , v056
	.byte		N02   , Cs3 
	.byte	W18
	.byte		N17   , An2 , v068
	.byte		N17   , Cs3 
	.byte	W12
	.byte		BEND  , c_v+0
	.byte	W06
	.byte		N02   , An2 , v056
	.byte		N02   , Cs3 
	.byte	W30
	.byte		        An2 , v068
	.byte		N02   , Cs3 
	.byte	W06
	.byte		        An2 , v056
	.byte		N02   , Cs3 
	.byte	W06
	.byte	PEND
	.byte		N17   , An2 , v068
	.byte		N17   , Cs3 
	.byte	W18
	.byte		N02   , An2 , v056
	.byte		N02   , Cs3 
	.byte	W18
	.byte		N17   , An2 , v068
	.byte		N17   , Cs3 
	.byte	W18
	.byte		N02   , An2 , v056
	.byte		N02   , Cs3 
	.byte	W18
	.byte		N04   , An2 , v068
	.byte		N04   , Cs3 
	.byte	W06
	.byte		N02   , An2 , v056
	.byte		N02   , Cs3 
	.byte	W06
	.byte		N12   , En2 , v068
	.byte		N12   , An2 
	.byte	W12
	.byte	PEND
	.byte		N17   , En2 , v068
	.byte		N17   , Bn2 
	.byte	W18
	.byte		N02   , En2 , v056
	.byte		N02   , Bn2 
	.byte	W18
	.byte		N17   , En2 , v068
	.byte		N17   , Bn2 
	.byte	W18
	.byte		N02   , En2 , v056
	.byte		N02   , Bn2 
	.byte	W30
	.byte		N03   , En2 , v068
	.byte		N03   , Bn2 
	.byte	W06
	.byte		        En2 , v056
	.byte		N03   , Bn2 
	.byte	W06
	.byte	PEND
	.byte		N17   , En2 , v068
	.byte		N17   , Bn2 
	.byte	W18
	.byte		N02   , En2 , v056
	.byte		N02   , Bn2 
	.byte	W18
	.byte		N17   , En2 , v068
	.byte		N17   , Bn2 
	.byte	W18
	.byte		N02   , En2 , v056
	.byte		N02   , Bn2 
	.byte	W18
	.byte		N11   , Gs2 , v068
	.byte		N11   , Bn2 
	.byte	W12
	.byte		N02   , Gs2 , v056
	.byte		N02   , Bn2 
	.byte	W06
	.byte		        Gs2 
	.byte		N02   , Bn2 
	.byte	W06
	.byte	PEND
	.byte	PATT
	 .word	seq_054_2 + 0xBF
	.byte	PATT
	 .word	seq_054_2 + 0xE4
	.byte	PATT
	 .word	seq_054_2 + 0x10F
	.byte	PATT
	 .word	seq_054_2 + 0x132
	.byte	PATT
	 .word	seq_054_2 + 0x161
	.byte	PATT
	 .word	seq_054_2 + 0x187
	.byte		N17   , En2 , v068
	.byte		N17   , Bn2 
	.byte	W18
	.byte		N02   , En2 , v056
	.byte		N02   , Bn2 
	.byte	W18
	.byte		N17   , En2 , v068
	.byte		N17   , Bn2 
	.byte	W18
	.byte		N02   , En2 , v056
	.byte		N02   , Bn2 
	.byte	W30
	.byte		N03   , Bn2 , v068
	.byte		N03   , En3 
	.byte	W06
	.byte		        Bn2 , v056
	.byte		N03   , En3 
	.byte	W06
	.byte	PEND
	.byte		N17   , En3 , v068
	.byte	W18
	.byte		N02   , Bn2 , v056
	.byte		N02   , En3 
	.byte	W18
	.byte		N12   , Bn2 , v068
	.byte		N11   , En3 
	.byte	W12
	.byte		N05   , En3 , v060
	.byte	W06
	.byte		N02   , En3 , v068
	.byte	W18
	.byte		BEND  , c_v+0
	.byte		N24   , Bn2 , v060
	.byte		N24   , En3 
	.byte	W02
	.byte		BEND  , c_v-1
	.byte	W02
	.byte		        c_v-3
	.byte	W02
	.byte		        c_v-6
	.byte	W02
	.byte		        c_v-10
	.byte	W03
	.byte		        c_v-15
	.byte	W02
	.byte		        c_v-22
	.byte	W02
	.byte		        c_v-29
	.byte	W02
	.byte		        c_v-38
	.byte	W02
	.byte		        c_v-49
	.byte	W03
	.byte		        c_v-64
	.byte	W02
	.byte	PEND
	.byte		BEND  , c_v+0
	.byte		N17   , An2 , v068
	.byte		N17   , Dn3 
	.byte	W18
	.byte		N02   , An2 , v056
	.byte		N02   , Dn3 
	.byte	W18
	.byte		N17   , An2 , v068
	.byte		N17   , Dn3 
	.byte	W18
	.byte		N02   , An2 , v056
	.byte		N02   , Dn3 
	.byte	W18
	.byte		N04   , An2 , v068
	.byte		N04   , Dn3 
	.byte	W06
	.byte		N02   , An2 , v056
	.byte		N02   , Dn3 
	.byte	W06
	.byte		        An2 , v068
	.byte		N02   , Dn3 
	.byte	W06
	.byte		        An2 , v056
	.byte		N02   , Dn3 
	.byte	W06
	.byte	PEND
	.byte		N17   , An2 , v068
	.byte		N17   , Dn3 
	.byte	W18
	.byte		N02   , An2 
	.byte		N02   , Dn3 
	.byte	W18
	.byte		N17   , An2 
	.byte		N17   , Dn3 
	.byte	W18
	.byte		N02   , An2 
	.byte		N02   , Dn3 
	.byte	W18
	.byte		N04   , An2 
	.byte		N04   , Dn3 
	.byte	W06
	.byte		N03   , An2 , v056
	.byte		N03   , Dn3 
	.byte	W06
	.byte		N12   , An2 , v068
	.byte		N12   , Dn3 
	.byte	W12
	.byte	PEND
	.byte		N17   , An2 , v068
	.byte		N17   , Cs3 
	.byte	W18
	.byte		N02   , An2 , v056
	.byte		N02   , Cs3 
	.byte	W18
	.byte		N17   , An2 , v068
	.byte		N17   , Cs3 
	.byte	W18
	.byte		N02   , An2 , v056
	.byte		N02   , Cs3 
	.byte	W30
	.byte		        An2 , v068
	.byte		N02   , Cs3 
	.byte	W06
	.byte		        An2 , v056
	.byte		N02   , Cs3 
	.byte	W06
	.byte	PEND
	.byte		N17   , An2 , v068
	.byte		N17   , Cs3 
	.byte	W18
	.byte		N02   , An2 
	.byte		N02   , Cs3 
	.byte	W18
	.byte		N11   , An2 
	.byte		N11   , Cs3 
	.byte	W12
	.byte		N04   , An2 
	.byte		N04   , Cs3 
	.byte	W06
	.byte		N02   , An2 
	.byte		N02   , Cs3 
	.byte	W18
	.byte		N04   , Cn3 
	.byte	W06
	.byte		N02   , Gs2 , v056
	.byte	W12
	.byte		N04   , An2 , v068
	.byte		N04   , Cn3 
	.byte	W06
	.byte	PEND
	.byte	PATT
	 .word	seq_054_2 + 0x1B2
	.byte		N17   , En2 , v068
	.byte		N17   , Bn2 
	.byte	W18
	.byte		N02   , En2 
	.byte		N02   , Bn2 
	.byte	W18
	.byte		N17   , En2 
	.byte		N17   , Bn2 
	.byte	W18
	.byte		N02   , En2 
	.byte		N02   , Bn2 
	.byte	W18
	.byte		N04   , En2 
	.byte		N04   , Bn2 
	.byte	W06
	.byte		N02   , En2 , v056
	.byte		N02   , Bn2 
	.byte	W06
	.byte		N12   , En2 , v068
	.byte		N12   , Bn2 
	.byte	W12
	.byte	PEND
	.byte		N11   , Cs2 , v068
	.byte		N11   , An2 
	.byte	W12
	.byte		N02   , Cs2 
	.byte		N02   , An2 
	.byte	W06
	.byte		N11   , Cs2 
	.byte		N11   , An2 
	.byte	W12
	.byte		N02   , Cs2 , v056
	.byte		N02   , An2 
	.byte	W06
	.byte		        Cs2 , v068
	.byte		N02   , An2 
	.byte	W12
	.byte		N11   , Dn2 
	.byte		N11   , Bn2 
	.byte	W12
	.byte		N02   , Dn2 
	.byte		N02   , Bn2 
	.byte	W06
	.byte		N11   , Dn2 
	.byte		N11   , Bn2 
	.byte	W12
	.byte		N02   , Dn2 , v056
	.byte		N02   , Bn2 
	.byte	W06
	.byte		        Dn2 , v068
	.byte		N02   , Bn2 
	.byte	W12
	.byte	PEND
	.byte		N17   , En2 , v068
	.byte		N17   , Cn3 
	.byte	W18
	.byte		N02   , En2 , v056
	.byte		N02   , An2 
	.byte	W18
	.byte		N24   , An2 , v068
	.byte		N24   , Cs3 
	.byte	W36
	.byte		N03   , An2 
	.byte	W06
	.byte		N18   , An3 
	.byte	W18
	.byte	PEND
	.byte		N17   , An2 , v068
	.byte		N17   , Fs3 
	.byte	W18
	.byte		N02   , An2 
	.byte		N02   , Fs3 
	.byte	W18
	.byte		N17   , An2 
	.byte		N17   , Fs3 
	.byte	W18
	.byte		N02   , An2 
	.byte		N02   , Fs3 
	.byte	W18
	.byte		N04   , An2 
	.byte		N04   , Fs3 
	.byte	W06
	.byte		N02   , An2 , v056
	.byte		N02   , Fs3 
	.byte	W06
	.byte		        An2 , v068
	.byte		N02   , Fs3 
	.byte	W06
	.byte		        An2 , v056
	.byte		N02   , Fs3 
	.byte	W06
	.byte	PEND
	.byte		N17   , An2 , v068
	.byte		N17   , En3 
	.byte	W18
	.byte		N02   , An2 
	.byte		N02   , En3 
	.byte	W18
	.byte		N17   , An2 
	.byte		N17   , En3 
	.byte	W18
	.byte		N02   , An2 
	.byte		N02   , En3 
	.byte	W18
	.byte		N04   , An2 
	.byte		N04   , En3 
	.byte	W06
	.byte		N02   , An2 , v056
	.byte		N02   , En3 
	.byte	W06
	.byte		N11   , An2 , v068
	.byte		N11   , En3 
	.byte	W12
	.byte		N17   , Fs2 
	.byte		N17   , Dn3 
	.byte	W18
	.byte		N02   , Fs2 
	.byte		N02   , Dn3 
	.byte	W18
	.byte		N17   , Fs2 
	.byte		N17   , Dn3 
	.byte	W18
	.byte		N02   , Fs2 
	.byte		N02   , Dn3 
	.byte	W18
	.byte		N04   , Fs2 
	.byte		N04   , Dn3 
	.byte	W06
	.byte		N03   , Fs2 , v056
	.byte		N03   , Dn3 
	.byte	W06
	.byte		N12   , Fs2 , v068
	.byte		N12   , Dn3 
	.byte	W12
	.byte		N11   , En2 , v068
	.byte		N11   , Cs3 
	.byte	W12
	.byte		N03   , En2 
	.byte		N03   , An2 
	.byte	W06
	.byte		N11   , Fs2 
	.byte		N11   , Dn3 
	.byte	W12
	.byte		N02   , Fs2 
	.byte	W06
	.byte		        Fs2 , v056
	.byte	W06
	.byte		        Fs2 , v068
	.byte	W06
	.byte		N12
	.byte		N12   , Ds3 
	.byte	W12
	.byte		N03   , Fs2 
	.byte		N03   , An2 
	.byte	W06
	.byte		N11   , En3 
	.byte	W12
	.byte		N18   , Cs4 
	.byte	W18
	.byte	PEND
	.byte	PATT
	 .word	seq_054_2 + 0x395
	.byte		N17   , En3 , v068
	.byte	W18
	.byte		N02
	.byte	W18
	.byte		N36   , As2 
	.byte		N36   , Fs3 
	.byte	W36
	.byte		N11   , Cs3 
	.byte	W12
	.byte		N02
	.byte	W06
	.byte		        Cs3 , v056
	.byte	W06
	.byte	PEND
	.byte		N17   , Bn2 , v068
	.byte		N17   , En3 
	.byte	W18
	.byte		N02   , Bn2 
	.byte		N02   , En3 
	.byte	W18
	.byte		N17   , Bn2 
	.byte		N17   , En3 
	.byte	W18
	.byte		N02   , Bn2 
	.byte		N02   , En3 
	.byte	W18
	.byte		N04   , Bn2 
	.byte		N04   , En3 
	.byte	W06
	.byte		N02   , Bn2 , v056
	.byte		N02   , En3 
	.byte	W06
	.byte		        Bn2 , v068
	.byte		N02   , En3 
	.byte	W06
	.byte		        Bn2 , v056
	.byte		N02   , En3 
	.byte	W06
	.byte	PEND
	.byte		N17   , Bn2 , v068
	.byte		N17   , En3 
	.byte	W18
	.byte		N02   , Bn2 
	.byte		N02   , En3 
	.byte	W18
	.byte		N17   , Bn2 
	.byte		N17   , En3 
	.byte	W18
	.byte		N02   , Bn2 
	.byte		N02   , En3 
	.byte	W18
	.byte		N05   , Bn2 
	.byte		N05   , En3 
	.byte	W06
	.byte		N02   , Bn2 , v056
	.byte		N02   , En3 
	.byte	W06
	.byte		N11   , Bn2 , v068
	.byte		N11   , Fs3 
	.byte	W12
	.byte	PEND
	.byte		N03   , Dn3 
	.byte		N03   , Gn3 
	.byte	W06
	.byte		N02   , Dn3 , v060
	.byte		N02   , Gn3 
	.byte	W06
	.byte		        Dn3 , v068
	.byte		N02   , Gn3 
	.byte	W06
	.byte		        Dn3 , v056
	.byte		N02   , Gn3 
	.byte	W06
	.byte		N11   , Dn3 , v068
	.byte		N11   , Gn3 
	.byte	W12
	.byte		N03   , Dn3 
	.byte		N03   , Gn3 
	.byte	W06
	.byte		N02   , Dn3 , v060
	.byte		N02   , Gn3 
	.byte	W06
	.byte		        Dn3 , v068
	.byte		N02   , Gn3 
	.byte	W06
	.byte		        Dn3 , v056
	.byte		N02   , Gn3 
	.byte	W06
	.byte		N11   , Dn3 , v068
	.byte		N11   , Gn3 
	.byte	W12
	.byte		N03   , Dn3 
	.byte		N03   , Gn3 
	.byte	W06
	.byte		N02   , Dn3 , v060
	.byte		N02   , Gn3 
	.byte	W06
	.byte		N05   , En3 , v068
	.byte		N05   , Bn3 
	.byte	W06
	.byte		N02   , En3 , v080
	.byte		N02   , Bn3 
	.byte	W06
	.byte	W96
	.byte	PATT
	 .word	seq_054_2 + 0xBF
	.byte	PATT
	 .word	seq_054_2 + 0xE4
	.byte	PATT
	 .word	seq_054_2 + 0x10F
	.byte	PATT
	 .word	seq_054_2 + 0x132
	.byte	PATT
	 .word	seq_054_2 + 0x161
	.byte	PATT
	 .word	seq_054_2 + 0x187
	.byte	PATT
	 .word	seq_054_2 + 0x1B2
	.byte	PATT
	 .word	seq_054_2 + 0x1D6
	.byte	PATT
	 .word	seq_054_2 + 0xBF
	.byte	PATT
	 .word	seq_054_2 + 0xE4
	.byte	PATT
	 .word	seq_054_2 + 0x10F
	.byte	PATT
	 .word	seq_054_2 + 0x132
	.byte	PATT
	 .word	seq_054_2 + 0x161
	.byte	PATT
	 .word	seq_054_2 + 0x187
	.byte	PATT
	 .word	seq_054_2 + 0x21D
	.byte	PATT
	 .word	seq_054_2 + 0x241
	.byte	PATT
	 .word	seq_054_2 + 0x277
	.byte	PATT
	 .word	seq_054_2 + 0x2A8
	.byte	PATT
	 .word	seq_054_2 + 0x2CF
	.byte	PATT
	 .word	seq_054_2 + 0x2F2
	.byte	PATT
	 .word	seq_054_2 + 0x1B2
	.byte	PATT
	 .word	seq_054_2 + 0x31F
	.byte	PATT
	 .word	seq_054_2 + 0x346
	.byte	PATT
	 .word	seq_054_2 + 0x37C
	.byte		N17   , An2 , v068
	.byte		N17   , Fs3 
	.byte	W18
	.byte		N02   , An2 
	.byte		N02   , Fs3 
	.byte	W18
	.byte		N17   , An2 
	.byte		N17   , Fs3 
	.byte	W18
	.byte		N02   , An2 
	.byte		N02   , Fs3 
	.byte	W18
	.byte		N04
	.byte	W06
	.byte		N02   , Fs3 , v056
	.byte	W06
	.byte		        Fs3 , v068
	.byte	W06
	.byte		        Fs3 , v056
	.byte	W06
	.byte	PEND
	.byte		N17   , An2 , v068
	.byte		N17   , En3 
	.byte	W18
	.byte		N02   , An2 
	.byte		N02   , En3 
	.byte	W18
	.byte		N17   , An2 
	.byte		N17   , En3 
	.byte	W18
	.byte		N02   , An2 
	.byte		N02   , En3 
	.byte	W18
	.byte		N04
	.byte	W06
	.byte		N02   , En3 , v056
	.byte	W06
	.byte		N11   , En3 , v068
	.byte	W12
	.byte		N17   , Fs2 
	.byte		N17   , Dn3 
	.byte	W18
	.byte		N02   , Fs2 
	.byte		N02   , Dn3 
	.byte	W18
	.byte		N17   , Fs2 
	.byte		N17   , Dn3 
	.byte	W18
	.byte		N02   , Fs2 
	.byte		N02   , Dn3 
	.byte	W18
	.byte		N04
	.byte	W06
	.byte		N03   , Dn3 , v056
	.byte	W06
	.byte		N12   , Dn3 , v068
	.byte	W12
	.byte	PATT
	 .word	seq_054_2 + 0x40B
	.byte	PATT
	 .word	seq_054_2 + 0x565
	.byte	PATT
	 .word	seq_054_2 + 0x439
	.byte	PATT
	 .word	seq_054_2 + 0x44D
	.byte	PATT
	 .word	seq_054_2 + 0x478
	.byte		N17   , Dn3 , v068
	.byte		N17   , Gn3 
	.byte	W18
	.byte		N02   , Dn3 
	.byte		N02   , Gn3 
	.byte	W18
	.byte		N17   , Dn3 
	.byte		N17   , Gn3 
	.byte	W18
	.byte		N02   , Dn3 
	.byte		N02   , Gn3 
	.byte	W18
	.byte		        Dn3 
	.byte		N02   , Gn3 
	.byte	W06
	.byte		        Dn3 , v056
	.byte		N02   , Gn3 
	.byte	W06
	.byte		N12   , Dn3 , v068
	.byte		N12   , Gn3 
	.byte	W12
	.byte		N06   , Gn2 
	.byte		N06   , Bn2 
	.byte	W06
	.byte		        Gn2 
	.byte		N06   , Bn2 
	.byte	W18
	.byte		BEND  , c_v+0
	.byte		N24   , Gn3 , v064
	.byte		N24   , Dn4 , v040
	.byte	W01
	.byte		BEND  , c_v-1
	.byte	W02
	.byte		        c_v-2
	.byte	W02
	.byte		        c_v-4
	.byte	W01
	.byte		        c_v-6
	.byte	W02
	.byte		        c_v-10
	.byte	W02
	.byte		        c_v-14
	.byte	W01
	.byte		        c_v-19
	.byte	W02
	.byte		        c_v-24
	.byte	W02
	.byte		        c_v-31
	.byte	W01
	.byte		        c_v-37
	.byte	W02
	.byte		        c_v-45
	.byte	W02
	.byte		        c_v-54
	.byte	W01
	.byte		        c_v-63
	.byte	W03
	.byte		        c_v+0
	.byte		N11   , Dn3 , v068
	.byte		N11   , Gn3 
	.byte	W12
	.byte		N02   , Dn3 , v056
	.byte		N02   , Gn3 
	.byte	W06
	.byte		N11   , Dn3 , v068
	.byte		N11   , Fs3 
	.byte	W12
	.byte		N02   , Dn3 , v056
	.byte		N02   , Fs3 
	.byte	W06
	.byte		N05   , Dn3 , v068
	.byte		N05   , Gn3 
	.byte	W06
	.byte		N02   , Dn3 , v056
	.byte		N02   , Gn3 
	.byte	W06
	.byte		N17   , Bn2 , v068
	.byte		N17   , Gs3 
	.byte	W18
	.byte		N02   , Bn2 
	.byte		N02   , Gs3 
	.byte	W18
	.byte		N17   , Bn2 
	.byte		N17   , Gs3 
	.byte	W18
	.byte		N02   , Bn2 
	.byte		N02   , Gs3 
	.byte	W18
	.byte		N04   , Bn2 
	.byte		N04   , Gs3 
	.byte	W06
	.byte		N02   , Bn2 , v056
	.byte		N02   , En3 
	.byte	W06
	.byte		        Bn2 , v068
	.byte		N02   , Gs3 
	.byte	W06
	.byte		        Bn2 , v056
	.byte		N02   , Gs3 
	.byte	W06
	.byte		N17   , Bn2 , v068
	.byte		N17   , En3 
	.byte	W18
	.byte		N02   , Bn2 
	.byte		N02   , En3 
	.byte	W18
	.byte		N17   , Bn2 
	.byte		N17   , En3 
	.byte	W18
	.byte		N02   , Bn2 
	.byte		N02   , En3 
	.byte	W18
	.byte		N05   , Bn2 
	.byte		N05   , En3 
	.byte	W06
	.byte		N02   , Bn2 , v056
	.byte		N02   , En3 
	.byte	W06
	.byte		N11   , En3 , v068
	.byte		N11   , Gs3 
	.byte	W12
	.byte		N17   , Dn3 
	.byte		N17   , An3 
	.byte	W18
	.byte		N02   , Dn3 
	.byte		N02   , An3 
	.byte	W18
	.byte		N17   , Dn3 
	.byte		N17   , An3 
	.byte	W18
	.byte		N02   , Dn3 
	.byte		N02   , An3 
	.byte	W18
	.byte		N04   , Dn3 
	.byte		N04   , An3 
	.byte	W06
	.byte		N02   , Dn3 , v056
	.byte		N02   , An3 
	.byte	W06
	.byte		        Dn3 , v068
	.byte		N02   , An3 
	.byte	W06
	.byte		        Ds3 , v056
	.byte		N02   , As3 
	.byte	W06
	.byte		N17   , En3 , v068
	.byte		N17   , Bn3 
	.byte	W18
	.byte		N02   , En3 
	.byte		N02   , Bn3 
	.byte	W18
	.byte		N17   , En3 
	.byte		N17   , Bn3 
	.byte	W18
	.byte		N02   , En3 
	.byte		N02   , Bn3 
	.byte	W18
	.byte		N05
	.byte	W06
	.byte		N02   , Bn3 , v056
	.byte	W06
	.byte		N12   , Bn3 , v068
	.byte	W12
	.byte		VOICE , 30
	.byte		VOL   , 90*seq_054_mvl/mxv
	.byte		TIE   , En4 , v056
	.byte	W48
	.byte		BEND  , c_v+0
	.byte	W06
	.byte		        c_v-1
	.byte	W07
	.byte		        c_v-1
	.byte	W06
	.byte		        c_v-1
	.byte	W07
	.byte		        c_v-1
	.byte	W07
	.byte		        c_v-2
	.byte	W06
	.byte		        c_v-2
	.byte	W07
	.byte		        c_v-3
	.byte	W02
	.byte	W05
	.byte		        c_v-3
	.byte	W06
	.byte		VOL   , 88*seq_054_mvl/mxv
	.byte		BEND  , c_v-4
	.byte	W07
	.byte		        c_v-5
	.byte	W04
	.byte		VOL   , 85*seq_054_mvl/mxv
	.byte	W03
	.byte		BEND  , c_v-6
	.byte	W06
	.byte		        c_v-7
	.byte	W02
	.byte		VOL   , 78*seq_054_mvl/mxv
	.byte	W05
	.byte		BEND  , c_v-8
	.byte	W06
	.byte		VOL   , 70*seq_054_mvl/mxv
	.byte	W01
	.byte		BEND  , c_v-9
	.byte	W06
	.byte		        c_v-10
	.byte	W04
	.byte		VOL   , 59*seq_054_mvl/mxv
	.byte	W03
	.byte		BEND  , c_v-11
	.byte	W07
	.byte		        c_v-13
	.byte	W01
	.byte		VOL   , 46*seq_054_mvl/mxv
	.byte	W05
	.byte		BEND  , c_v-14
	.byte	W06
	.byte		VOL   , 30*seq_054_mvl/mxv
	.byte	W01
	.byte		BEND  , c_v-16
	.byte	W07
	.byte		        c_v-17
	.byte	W03
	.byte		VOL   , 12*seq_054_mvl/mxv
	.byte	W03
	.byte		BEND  , c_v-19
	.byte	W05
	.byte		EOT
	.byte		VOL   , 0*seq_054_mvl/mxv
	.byte		BEND  , c_v+0
	.byte	W96
	.byte	W96
	.byte	W96
	.byte	W96
	.byte	W96
	.byte		VOICE , 31
	.byte		VOL   , 81*seq_054_mvl/mxv
	.byte	W72
	.byte		N05   , En2 , v068
	.byte		N05   , Bn2 
	.byte	W06
	.byte		N02   , En2 , v056
	.byte		N02   , Bn2 
	.byte	W06
	.byte		N11   , En2 , v068
	.byte		N11   , Cn3 
	.byte	W12
	.byte	PATT
	 .word	seq_054_2 + 0x21
	.byte	PATT
	 .word	seq_054_2 + 0x58
	.byte	PATT
	 .word	seq_054_2 + 0x8F
	.byte	PATT
	 .word	seq_054_2 + 0xB6
	.byte	PATT
	 .word	seq_054_2 + 0xBF
	.byte	PATT
	 .word	seq_054_2 + 0xE4
	.byte	PATT
	 .word	seq_054_2 + 0x10F
	.byte	PATT
	 .word	seq_054_2 + 0x132
	.byte	PATT
	 .word	seq_054_2 + 0x161
	.byte	PATT
	 .word	seq_054_2 + 0x187
	.byte	PATT
	 .word	seq_054_2 + 0x1B2
	.byte	PATT
	 .word	seq_054_2 + 0x1D6
	.byte	PATT
	 .word	seq_054_2 + 0xBF
	.byte	PATT
	 .word	seq_054_2 + 0xE4
	.byte	PATT
	 .word	seq_054_2 + 0x10F
	.byte	PATT
	 .word	seq_054_2 + 0x132
	.byte	PATT
	 .word	seq_054_2 + 0x161
	.byte	PATT
	 .word	seq_054_2 + 0x187
	.byte	PATT
	 .word	seq_054_2 + 0x21D
	.byte	PATT
	 .word	seq_054_2 + 0x241
	.byte		BEND  , c_v+0
	.byte		N17   , Gn2 , v076
	.byte		N17   , Dn3 
	.byte	W18
	.byte		N02   , Gn2 
	.byte		N02   , Dn3 
	.byte	W18
	.byte		N17   , Gn2 
	.byte		N17   , Dn3 
	.byte	W18
	.byte		N02   , Gn2 
	.byte		N02   , Dn3 
	.byte	W18
	.byte		N05   , Gn2 
	.byte		N05   , Dn3 
	.byte	W06
	.byte		N02   , Gn2 , v064
	.byte		N02   , Dn3 
	.byte	W06
	.byte		        Gn2 , v076
	.byte		N02   , Dn3 
	.byte	W06
	.byte		        Gn2 , v064
	.byte		N02   , Dn3 
	.byte	W06
	.byte		N17   , Gn2 , v076
	.byte		N17   , An2 
	.byte	W17
	.byte		N02   , Gn2 
	.byte		N02   , An2 
	.byte	W19
	.byte		N17   , Gn2 
	.byte		N17   , An2 
	.byte	W18
	.byte		N02   , Gn2 
	.byte		N02   , An2 
	.byte	W18
	.byte		N05   , Gn2 
	.byte		N05   , An2 
	.byte	W06
	.byte		N02   , Gn2 , v064
	.byte		N02   , An2 
	.byte	W06
	.byte		        Gn2 , v076
	.byte		N02   , An2 
	.byte	W06
	.byte		        Gn2 , v064
	.byte		N02   , An2 
	.byte	W06
	.byte		N17   , En2 , v076
	.byte		N17   , Cs3 
	.byte	W18
	.byte		N02   , En2 
	.byte		N02   , Cs3 
	.byte	W18
	.byte		N17   , En2 
	.byte		N17   , Cs3 
	.byte	W18
	.byte		N02   , En2 
	.byte		N02   , Cs3 
	.byte	W18
	.byte		N05   , En2 
	.byte		N05   , Cs3 
	.byte	W06
	.byte		N02   , En2 , v064
	.byte		N02   , Cs3 
	.byte	W06
	.byte		        En2 , v076
	.byte		N02   , Cs3 
	.byte	W06
	.byte		        En2 , v064
	.byte		N02   , Cs3 
	.byte	W06
	.byte		N17   , En2 , v076
	.byte		N17   , Cs3 
	.byte	W18
	.byte		N02   , En2 
	.byte		N02   , Cs3 
	.byte	W18
	.byte		N17   , En2 
	.byte		N17   , Cs3 
	.byte	W18
	.byte		N02   , En2 
	.byte		N02   , Cs3 
	.byte	W18
	.byte		N05   , En2 
	.byte		N05   , Cs3 
	.byte	W06
	.byte		N18   , En2 , v080
	.byte		N18   , Cs3 
	.byte	W18
	.byte	W96
	.byte	W96
	.byte	W96
	.byte	W72
	.byte		N05   , En2 , v068
	.byte		N05   , Bn2 
	.byte	W06
	.byte		N02   , En2 , v056
	.byte		N02   , Bn2 
	.byte	W06
	.byte		N11   , En2 , v068
	.byte		N11   , Cn3 
	.byte	W12
	.byte	PATT
	 .word	seq_054_2 + 0x21
	.byte	PATT
	 .word	seq_054_2 + 0x58
	.byte	PATT
	 .word	seq_054_2 + 0x21
	.byte	PATT
	 .word	seq_054_2 + 0x58
	.byte	PATT
	 .word	seq_054_2 + 0x21
	.byte	PATT
	 .word	seq_054_2 + 0x58
	.byte	PATT
	 .word	seq_054_2 + 0x21
	.byte		N11   , En2 , v076
	.byte		N11   , Bn2 
	.byte	W12
	.byte		N02   , En2 
	.byte		N02   , Bn2 
	.byte	W06
	.byte		        En2 , v064
	.byte		N02   , Bn2 
	.byte	W18
	.byte		N11   , En2 , v076
	.byte		N11   , Bn2 
	.byte	W12
	.byte		N02   , En2 
	.byte		N02   , Bn2 
	.byte	W06
	.byte		        En2 , v064
	.byte		N02   , Bn2 
	.byte	W18
	.byte		N05   , En2 , v076
	.byte		N05   , Bn2 
	.byte	W06
	.byte		N02   , En2 , v064
	.byte		N02   , Bn2 
	.byte	W06
	.byte		        En2 , v076
	.byte		N02   , Bn2 
	.byte	W06
	.byte		        En2 , v064
	.byte		N02   , Bn2 
	.byte	W06
	.byte		N11   , Cs3 , v076
	.byte	W12
	.byte		N02   , En2 
	.byte		N02   , Cs3 
	.byte	W06
	.byte		        En2 , v064
	.byte		N02   , Cs3 
	.byte	W18
	.byte		N11   , En2 , v076
	.byte		N11   , Cs3 
	.byte	W12
	.byte		N02   , En2 
	.byte	W06
	.byte		        En2 , v064
	.byte		N02   , Cs3 
	.byte	W18
	.byte		N05   , Cs3 , v076
	.byte	W06
	.byte		N02   , En2 , v064
	.byte		N02   , Cs3 
	.byte	W06
	.byte		        En2 , v076
	.byte		N02   , Cs3 
	.byte	W06
	.byte		        En2 , v064
	.byte		N02   , Cs3 
	.byte	W06
	.byte	PEND
	.byte		N11   , Dn3 , v076
	.byte	W12
	.byte		N02   , Fs2 
	.byte		N02   , Dn3 
	.byte	W06
	.byte		        Fs2 , v064
	.byte		N02   , Dn3 
	.byte	W18
	.byte		N11   , Fs2 , v076
	.byte		N11   , Dn3 
	.byte	W12
	.byte		N02   , Fs2 
	.byte	W06
	.byte		        Fs2 , v064
	.byte		N02   , Dn3 
	.byte	W18
	.byte		N05   , Dn3 , v076
	.byte	W06
	.byte		N02   , Fs2 , v064
	.byte		N02   , Dn3 
	.byte	W06
	.byte		        Fs2 , v076
	.byte		N02   , Dn3 
	.byte	W06
	.byte		        Fs2 , v064
	.byte		N02   , Dn3 
	.byte	W06
	.byte	PEND
	.byte	PATT
	 .word	seq_054_2 + 0x8D4
	.byte		N11   , Bn2 , v076
	.byte	W12
	.byte		N02   , En2 
	.byte		N02   , Bn2 
	.byte	W06
	.byte		        En2 , v064
	.byte		N02   , Bn2 
	.byte	W18
	.byte		N11   , En2 , v076
	.byte		N11   , Bn2 
	.byte	W12
	.byte		N02   , En2 
	.byte	W06
	.byte		        En2 , v064
	.byte		N02   , Bn2 
	.byte	W18
	.byte		N05   , Bn2 , v076
	.byte	W06
	.byte		N02   , En2 , v064
	.byte		N02   , Bn2 
	.byte	W06
	.byte		        En2 , v076
	.byte		N02   , Bn2 
	.byte	W06
	.byte		        En2 , v064
	.byte		N02   , Bn2 
	.byte	W06
	.byte	PEND
	.byte	PATT
	 .word	seq_054_2 + 0x8D4
	.byte	PATT
	 .word	seq_054_2 + 0x905
	.byte	PATT
	 .word	seq_054_2 + 0x8D4
	.byte	PATT
	 .word	seq_054_2 + 0x93B
	.byte	PATT
	 .word	seq_054_2 + 0x8D4
	.byte	PATT
	 .word	seq_054_2 + 0x905
	.byte	PATT
	 .word	seq_054_2 + 0x21
	.byte	PATT
	 .word	seq_054_2 + 0x58
	.byte	PATT
	 .word	seq_054_2 + 0x21
	.byte	PATT
	 .word	seq_054_2 + 0x58
	.byte	GOTO
	 .word	seq_054_2 + 0x98A
	.byte	FINE

@*********************** Track 04 ***********************@

seq_054_3:
	.byte	KEYSH , seq_054_key+0
	.byte		VOICE , 61
	.byte		PAN   , c_v+0
	.byte		VOL   , 115*seq_054_mvl/mxv
	.byte	W96
	.byte	W96
	.byte	W96
	.byte	W96
	.byte	W96
	.byte	W96
	.byte	W96
	.byte	W96
	.byte	W48
	.byte		        99*seq_054_mvl/mxv
	.byte	W24
	.byte		N05   , Fs4 , v096
	.byte	W06
	.byte		N05
	.byte	W18
	.byte	W36
	.byte		N12   , En4 , v096
	.byte	W12
	.byte		N02   , Cs4 
	.byte	W02
	.byte		N01   , An3 , v080
	.byte	W01
	.byte		        En3 , v068
	.byte	W44
	.byte	W01
	.byte	PEND
	.byte	W12
	.byte		N05   , En4 , v096
	.byte	W18
	.byte		N05
	.byte	W18
	.byte		N17
	.byte	W18
	.byte		N05
	.byte	W30
	.byte	PEND
	.byte	W36
	.byte		N12   , Dn4 , v096
	.byte	W12
	.byte		N02   , An3 
	.byte	W02
	.byte		N01   , Fs3 , v080
	.byte	W01
	.byte		        Dn3 , v068
	.byte	W44
	.byte	W01
	.byte	PEND
	.byte	W12
	.byte		N05   , Dn4 , v096
	.byte	W18
	.byte		N17
	.byte	W18
	.byte		N05
	.byte	W06
	.byte		N05
	.byte	W12
	.byte		N05
	.byte	W30
	.byte	PEND
	.byte	W36
	.byte		N12   , Cs4 , v096
	.byte	W12
	.byte		N02   , An3 
	.byte	W02
	.byte		N01   , En3 , v080
	.byte	W01
	.byte		        Cs3 , v068
	.byte	W44
	.byte	W01
	.byte	PEND
	.byte	W12
	.byte		N05   , Cs4 , v096
	.byte	W18
	.byte		N05
	.byte	W18
	.byte		N18   , An3 , v072
	.byte	W18
	.byte		        Bn3 
	.byte	W18
	.byte		N12   , An3 
	.byte	W12
	.byte	PEND
	.byte		N36   , Gs3 , v072
	.byte	W36
	.byte		N48   , En4 
	.byte	W48
	.byte		N06   , Dn4 
	.byte	W06
	.byte		        Cs4 
	.byte	W06
	.byte	PEND
	.byte		N48   , Bn3 , v072
	.byte	W48
	.byte		N05   , Dn4 , v096
	.byte	W06
	.byte		N05
	.byte	W18
	.byte		N12
	.byte	W12
	.byte		N02   , An3 
	.byte	W02
	.byte		N01   , Fs3 , v080
	.byte	W01
	.byte		        Dn3 , v068
	.byte	W09
	.byte	PEND
	.byte	PATT
	 .word	seq_054_3 + 0x19
	.byte	PATT
	 .word	seq_054_3 + 0x2A
	.byte	W36
	.byte		N12   , Fs4 , v096
	.byte	W12
	.byte		N02   , Dn4 
	.byte	W02
	.byte		N01   , An3 , v080
	.byte	W01
	.byte		        Fs3 , v068
	.byte	W44
	.byte	W01
	.byte	PEND
	.byte	W12
	.byte		N05   , Fs4 , v096
	.byte	W18
	.byte		N17
	.byte	W18
	.byte		N05
	.byte	W06
	.byte		N05
	.byte	W12
	.byte		N05
	.byte	W12
	.byte		N05
	.byte	W18
	.byte	PEND
	.byte	PATT
	 .word	seq_054_3 + 0x19
	.byte	W12
	.byte		N05   , En4 , v096
	.byte	W18
	.byte		N05
	.byte	W18
	.byte		N18   , An3 , v080
	.byte	W18
	.byte		N18
	.byte	W18
	.byte		N12
	.byte	W12
	.byte	PEND
	.byte		N36   , Gs3 , v080
	.byte	W36
	.byte		        Bn3 
	.byte	W36
	.byte		N24   , An3 
	.byte	W24
	.byte	PEND
	.byte	W12
	.byte		N06   , Gs3 , v096
	.byte	W18
	.byte		N17
	.byte	W18
	.byte		N05   , En4 
	.byte	W06
	.byte		N05
	.byte	W18
	.byte		N12
	.byte	W12
	.byte		N02   , Cn4 
	.byte	W02
	.byte		N01   , Gn3 , v080
	.byte	W01
	.byte		        En3 , v068
	.byte	W09
	.byte	PEND
	.byte	W96
	.byte		VOICE , 112
	.byte		PAN   , c_v+63
	.byte		VOL   , 63*seq_054_mvl/mxv
	.byte	W96
	.byte	PEND
	.byte	W12
	.byte		N05   , Cs4 , v080
	.byte	W18
	.byte		N05
	.byte	W18
	.byte		N17
	.byte	W18
	.byte		N05
	.byte	W30
	.byte	PEND
	.byte	W12
	.byte		N05   , Cs4 , v080
	.byte	W18
	.byte		N05
	.byte	W18
	.byte		N05
	.byte	W06
	.byte		N05
	.byte	W18
	.byte		        Cn4 
	.byte	W06
	.byte		N05
	.byte	W18
	.byte	PEND
	.byte	W96
	.byte	W96
	.byte		N48   , An3 , v080
	.byte	W48
	.byte		        Bn3 
	.byte	W48
	.byte	PEND
	.byte		N18   , Cn4 , v080
	.byte	W18
	.byte		N06   , Ds4 
	.byte	W18
	.byte		N60   , Cs4 
	.byte	W42
	.byte		VOL   , 54*seq_054_mvl/mxv
	.byte	W06
	.byte		        36*seq_054_mvl/mxv
	.byte	W07
	.byte		        9*seq_054_mvl/mxv
	.byte	W05
	.byte	PEND
	.byte	W05
	.byte		VOL   , 63*seq_054_mvl/mxv
	.byte	W07
	.byte		N05   , Fs4 , v080
	.byte	W18
	.byte		N05
	.byte	W18
	.byte		N17
	.byte	W18
	.byte		N05
	.byte	W30
	.byte	PEND
	.byte	W12
	.byte		N05   , En4 , v080
	.byte	W18
	.byte		N17
	.byte	W18
	.byte		N05
	.byte	W06
	.byte		N05
	.byte	W12
	.byte		N05
	.byte	W12
	.byte		N05
	.byte	W18
	.byte	PEND
	.byte	W12
	.byte		N05   , Dn4 , v080
	.byte	W18
	.byte		N05
	.byte	W18
	.byte		N17
	.byte	W18
	.byte		N05
	.byte	W30
	.byte	PEND
	.byte	W12
	.byte		N05   , Cs4 , v080
	.byte	W18
	.byte		N18   , Dn4 
	.byte	W30
	.byte		N05   , Ds4 
	.byte	W18
	.byte		N18   , En4 
	.byte	W18
	.byte	PEND
	.byte	W12
	.byte		N05   , Fs4 , v080
	.byte	W18
	.byte		N05
	.byte	W18
	.byte		N17
	.byte	W18
	.byte		N05
	.byte	W30
	.byte	PEND
	.byte		N18   , En4 , v080
	.byte	W19
	.byte		N05   , Gn4 
	.byte	W17
	.byte		N36   , Fs4 
	.byte	W18
	.byte		VOL   , 54*seq_054_mvl/mxv
	.byte	W06
	.byte		        36*seq_054_mvl/mxv
	.byte	W07
	.byte		        9*seq_054_mvl/mxv
	.byte	W28
	.byte	W01
	.byte	PEND
	.byte		VOL   , 63*seq_054_mvl/mxv
	.byte	W12
	.byte		N05   , En4 , v080
	.byte	W18
	.byte		N17
	.byte	W18
	.byte		N05
	.byte	W06
	.byte		N05
	.byte	W12
	.byte		N05
	.byte	W30
	.byte	PEND
	.byte	W12
	.byte		N05   , En4 , v080
	.byte	W18
	.byte		N17
	.byte	W18
	.byte		N05
	.byte	W06
	.byte		N05
	.byte	W12
	.byte		N05
	.byte	W12
	.byte		        Fs4 
	.byte	W18
	.byte	PEND
	.byte		        Gn4 
	.byte	W06
	.byte		N05
	.byte	W30
	.byte		N05
	.byte	W06
	.byte		N05
	.byte	W42
	.byte		        Gs4 
	.byte	W06
	.byte		N05
	.byte	W06
	.byte		VOICE , 61
	.byte	W48
	.byte		PAN   , c_v+0
	.byte		VOL   , 99*seq_054_mvl/mxv
	.byte	W24
	.byte		N05   , Dn4 , v100
	.byte	W06
	.byte		N05
	.byte	W18
	.byte	PATT
	 .word	seq_054_3 + 0x19
	.byte	PATT
	 .word	seq_054_3 + 0x2A
	.byte	PATT
	 .word	seq_054_3 + 0x36
	.byte	PATT
	 .word	seq_054_3 + 0x47
	.byte	PATT
	 .word	seq_054_3 + 0x55
	.byte	PATT
	 .word	seq_054_3 + 0x66
	.byte	PATT
	 .word	seq_054_3 + 0x77
	.byte	PATT
	 .word	seq_054_3 + 0x84
	.byte	PATT
	 .word	seq_054_3 + 0x19
	.byte	PATT
	 .word	seq_054_3 + 0x2A
	.byte	PATT
	 .word	seq_054_3 + 0xA5
	.byte	PATT
	 .word	seq_054_3 + 0xB6
	.byte	PATT
	 .word	seq_054_3 + 0x19
	.byte	PATT
	 .word	seq_054_3 + 0xCB
	.byte	PATT
	 .word	seq_054_3 + 0xDB
	.byte	PATT
	 .word	seq_054_3 + 0xE5
	.byte	W96
	.byte	PATT
	 .word	seq_054_3 + 0xFF
	.byte	PATT
	 .word	seq_054_3 + 0x107
	.byte	PATT
	 .word	seq_054_3 + 0x113
	.byte	W96
	.byte	W96
	.byte	PATT
	 .word	seq_054_3 + 0x125
	.byte	PATT
	 .word	seq_054_3 + 0x12C
	.byte	PATT
	 .word	seq_054_3 + 0x13E
	.byte	PATT
	 .word	seq_054_3 + 0x14D
	.byte	PATT
	 .word	seq_054_3 + 0x15D
	.byte	PATT
	 .word	seq_054_3 + 0x169
	.byte	PATT
	 .word	seq_054_3 + 0x178
	.byte	PATT
	 .word	seq_054_3 + 0x184
	.byte	PATT
	 .word	seq_054_3 + 0x197
	.byte	PATT
	 .word	seq_054_3 + 0x1A7
	.byte	W12
	.byte		N05   , Gn4 , v080
	.byte	W18
	.byte		N17
	.byte	W18
	.byte		N05
	.byte	W06
	.byte		N05
	.byte	W12
	.byte		N05
	.byte	W12
	.byte		N05
	.byte	W12
	.byte		N05
	.byte	W06
	.byte	W24
	.byte		N12
	.byte	W12
	.byte		N02   , Dn4 
	.byte	W02
	.byte		N01   , Bn3 , v068
	.byte	W01
	.byte		        Gn3 , v060
	.byte	W09
	.byte		N18   , Dn4 , v088
	.byte	W18
	.byte		        Cs4 
	.byte	W18
	.byte		N12   , Dn4 
	.byte	W12
	.byte		N96   , En4 , v108
	.byte	W64
	.byte	W01
	.byte		VOL   , 54*seq_054_mvl/mxv
	.byte	W11
	.byte		        45*seq_054_mvl/mxv
	.byte	W11
	.byte		        24*seq_054_mvl/mxv
	.byte	W09
	.byte		        66*seq_054_mvl/mxv
	.byte	W12
	.byte		N05   , Bn3 , v088
	.byte	W18
	.byte		N17
	.byte	W18
	.byte		N05
	.byte	W06
	.byte		N05
	.byte	W12
	.byte		N05
	.byte	W30
	.byte		N52   , Dn4 , v092
	.byte	W36
	.byte		VOL   , 57*seq_054_mvl/mxv
	.byte	W07
	.byte		        38*seq_054_mvl/mxv
	.byte	W07
	.byte		        6*seq_054_mvl/mxv
	.byte	W04
	.byte		        67*seq_054_mvl/mxv
	.byte		N05   , Dn4 , v088
	.byte	W12
	.byte		N05
	.byte	W30
	.byte	W12
	.byte		        En4 
	.byte	W18
	.byte		N17
	.byte	W18
	.byte		N05
	.byte	W06
	.byte		N05
	.byte	W12
	.byte		N05
	.byte	W12
	.byte		N09
	.byte	W18
	.byte		TIE   , Cn4 
	.byte	W96
	.byte	W11
	.byte		VOL   , 66*seq_054_mvl/mxv
	.byte	W11
	.byte		        62*seq_054_mvl/mxv
	.byte	W11
	.byte		        56*seq_054_mvl/mxv
	.byte	W11
	.byte		        47*seq_054_mvl/mxv
	.byte	W11
	.byte		        37*seq_054_mvl/mxv
	.byte	W11
	.byte		        23*seq_054_mvl/mxv
	.byte	W11
	.byte		        8*seq_054_mvl/mxv
	.byte	W11
	.byte		        0*seq_054_mvl/mxv
	.byte	W07
	.byte		EOT
	.byte	W01
	.byte	W96
	.byte		VOL   , 99*seq_054_mvl/mxv
	.byte	W96
	.byte	W96
	.byte	W96
	.byte	W96
	.byte	W96
	.byte	W96
	.byte	W96
	.byte	W96
	.byte		VOICE , 61
	.byte		PAN   , c_v+0
	.byte	W72
	.byte		N05   , Dn4 , v100
	.byte	W06
	.byte		N05
	.byte	W18
	.byte	PATT
	 .word	seq_054_3 + 0x19
	.byte	PATT
	 .word	seq_054_3 + 0x2A
	.byte	PATT
	 .word	seq_054_3 + 0x36
	.byte	PATT
	 .word	seq_054_3 + 0x47
	.byte	PATT
	 .word	seq_054_3 + 0x55
	.byte	PATT
	 .word	seq_054_3 + 0x66
	.byte	PATT
	 .word	seq_054_3 + 0x77
	.byte		N48   , Bn3 , v072
	.byte	W48
	.byte		N05   , En4 , v096
	.byte	W06
	.byte		N05
	.byte	W18
	.byte		N12
	.byte	W12
	.byte		N02   , Bn3 
	.byte	W02
	.byte		N01   , Gs3 , v080
	.byte	W01
	.byte		        En3 , v068
	.byte	W09
	.byte	PATT
	 .word	seq_054_3 + 0x19
	.byte	PATT
	 .word	seq_054_3 + 0x2A
	.byte	PATT
	 .word	seq_054_3 + 0xA5
	.byte	W06
	.byte		N05   , Fs4 , v092
	.byte	W18
	.byte		N12
	.byte	W12
	.byte		N02   , Dn4 
	.byte	W02
	.byte		N01   , An3 , v076
	.byte	W01
	.byte		        Fs3 , v064
	.byte	W09
	.byte		N14   , Fs4 , v092
	.byte	W18
	.byte		N14
	.byte	W18
	.byte		N12
	.byte	W12
	.byte	W36
	.byte		        En4 
	.byte	W12
	.byte		N02   , Cs4 
	.byte	W02
	.byte		N01   , An3 , v076
	.byte	W01
	.byte		        En3 , v064
	.byte	W44
	.byte	W01
	.byte	W12
	.byte		N05   , En4 , v092
	.byte	W18
	.byte		N05
	.byte	W18
	.byte		N18   , An3 , v072
	.byte	W18
	.byte		N18
	.byte	W18
	.byte		N12
	.byte	W12
	.byte		N36   , Gs3 
	.byte	W36
	.byte		        Bn3 
	.byte	W36
	.byte		N24   , An4 
	.byte	W24
	.byte	W12
	.byte		N06   , Gs4 , v092
	.byte	W18
	.byte		N17
	.byte	W18
	.byte		N05
	.byte	W06
	.byte		N05
	.byte	W12
	.byte		N05
	.byte	W12
	.byte		N12
	.byte	W12
	.byte		N02   , En4 
	.byte	W02
	.byte		N01   , Bn3 , v076
	.byte	W01
	.byte		        Gs3 , v064
	.byte	W03
	.byte		N96   , Dn3 , v088
	.byte	W96
	.byte		        En3 
	.byte	W96
	.byte		        An3 , v108
	.byte	W96
	.byte		N72   , Cs4 
	.byte	W06
	.byte		VOL   , 96*seq_054_mvl/mxv
	.byte	W03
	.byte		        63*seq_054_mvl/mxv
	.byte	W03
	.byte		        58*seq_054_mvl/mxv
	.byte	W12
	.byte		        63*seq_054_mvl/mxv
	.byte	W04
	.byte		        66*seq_054_mvl/mxv
	.byte	W04
	.byte		        70*seq_054_mvl/mxv
	.byte	W04
	.byte		        78*seq_054_mvl/mxv
	.byte	W04
	.byte		        91*seq_054_mvl/mxv
	.byte	W04
	.byte		        101*seq_054_mvl/mxv
	.byte	W28
	.byte		BEND  , c_v-32
	.byte		N05   , An4 , v100
	.byte	W02
	.byte		BEND  , c_v+0
	.byte	W04
	.byte		N09
	.byte	W09
	.byte		N02   , En4 , v092
	.byte	W02
	.byte		N01   , Cs4 , v076
	.byte	W01
	.byte		        An3 , v064
	.byte	W06
	.byte	W96
	.byte	W96
	.byte	W96
	.byte	W96
	.byte	W96
	.byte	W96
	.byte	W96
	.byte	W54
	.byte		N05   , En4 , v112
	.byte	W12
	.byte		N05
	.byte	W12
	.byte		N05
	.byte	W12
	.byte		        Dn4 
	.byte	W06
	.byte		N12   , Cs4 , v112
	.byte	W12
	.byte		N02   , An3 
	.byte	W02
	.byte		N01   , En3 , v096
	.byte	W01
	.byte		        Cs3 , v084
	.byte	W44
	.byte	W01
	.byte		N05   , Cs4 , v112
	.byte	W18
	.byte		N18
	.byte	W18
	.byte	PEND
	.byte		N12   , Dn4 , v112
	.byte	W12
	.byte		N02   , An3 
	.byte	W02
	.byte		N01   , Fs3 , v096
	.byte	W01
	.byte		        Dn3 , v084
	.byte	W36
	.byte	W03
	.byte		N05   , Dn4 , v112
	.byte	W12
	.byte		N05
	.byte	W12
	.byte		        En4 
	.byte	W12
	.byte		        Dn4 
	.byte	W06
	.byte	PEND
	.byte		N12   , Cs4 , v112
	.byte	W12
	.byte		N02   , An3 
	.byte	W02
	.byte		N01   , En3 , v096
	.byte	W01
	.byte		        Cs3 , v084
	.byte	W44
	.byte	W01
	.byte		N05   , Cs4 , v112
	.byte	W18
	.byte		N18   , An3 
	.byte	W18
	.byte	PEND
	.byte		N12   , Bn3 
	.byte	W12
	.byte		N02   , Gs3 
	.byte	W02
	.byte		N01   , En3 , v096
	.byte	W01
	.byte		        Bn2 , v084
	.byte	W36
	.byte	W03
	.byte		N05   , En4 , v112
	.byte	W12
	.byte		N05
	.byte	W12
	.byte		N05
	.byte	W12
	.byte		        Dn4 
	.byte	W06
	.byte	PATT
	 .word	seq_054_3 + 0x3D8
	.byte	PATT
	 .word	seq_054_3 + 0x3EE
	.byte	PATT
	 .word	seq_054_3 + 0x408
	.byte		N12   , Bn3 , v112
	.byte	W12
	.byte		N02   , Gs3 
	.byte	W02
	.byte		N01   , En3 , v096
	.byte	W01
	.byte		        Bn2 , v084
	.byte	W36
	.byte	W03
	.byte		N05   , Bn3 , v112
	.byte	W12
	.byte		N05
	.byte	W12
	.byte		N05
	.byte	W12
	.byte		        Cn4 
	.byte	W06
	.byte	PATT
	 .word	seq_054_3 + 0x3D8
	.byte	PATT
	 .word	seq_054_3 + 0x3EE
	.byte		N12   , Cs4 , v112
	.byte	W12
	.byte		N02   , An3 
	.byte	W02
	.byte		N01   , En3 , v096
	.byte	W01
	.byte		        Cs3 , v084
	.byte	W44
	.byte	W01
	.byte		N05   , Cs4 , v112
	.byte	W18
	.byte		N18   , Fs4 
	.byte	W18
	.byte		N12   , En4 
	.byte	W12
	.byte		N02   , Bn3 
	.byte	W02
	.byte		N01   , Gs3 , v096
	.byte	W01
	.byte		        En3 , v084
	.byte	W36
	.byte	W03
	.byte		N05   , En4 , v112
	.byte	W12
	.byte		N05
	.byte	W12
	.byte		N05
	.byte	W12
	.byte		N05
	.byte	W06
	.byte		N12   , An4 
	.byte	W12
	.byte		N02   , En4 
	.byte	W02
	.byte		N01   , Cs4 , v096
	.byte	W01
	.byte		        An3 , v084
	.byte	W44
	.byte	W01
	.byte		N05   , Cs4 , v112
	.byte	W18
	.byte		N18
	.byte	W18
	.byte		N12   , Dn4 , v112
	.byte	W12
	.byte		N02   , An3 
	.byte	W02
	.byte		N01   , Fs3 , v096
	.byte	W01
	.byte		        Dn3 , v084
	.byte	W36
	.byte	W03
	.byte		N05   , Dn4 , v112
	.byte	W12
	.byte		N05
	.byte	W12
	.byte		N05
	.byte	W12
	.byte		        Bn3 
	.byte	W06
	.byte	PEND
	.byte	PATT
	 .word	seq_054_3 + 0x3D8
	.byte	PATT
	 .word	seq_054_3 + 0x3EE
	.byte	PATT
	 .word	seq_054_3 + 0x3D8
	.byte	PATT
	 .word	seq_054_3 + 0x4AB
	.byte	GOTO
	 .word	seq_054_3 + 0x4C5
	.byte	FINE

@*********************** Track 05 ***********************@

seq_054_4:
	.byte	KEYSH , seq_054_key+0
	.byte		VOICE , 101
	.byte		VOL   , 81*seq_054_mvl/mxv
	.byte		PAN   , c_v+0
	.byte	W96
	.byte	W96
	.byte	W96
	.byte	W96
	.byte	W96
	.byte	W96
	.byte	W96
	.byte	W96
	.byte	W72
	.byte		N05   , Dn4 , v060
	.byte	W06
	.byte		N05
	.byte	W18
	.byte	W36
	.byte		N12   , An3 , v060
	.byte	W12
	.byte		N02   , En3 
	.byte	W02
	.byte		N01   , Cs3 , v048
	.byte	W01
	.byte		        An2 , v036
	.byte	W44
	.byte	W01
	.byte	PEND
	.byte	W12
	.byte		N05   , An3 , v060
	.byte	W18
	.byte		N05
	.byte	W18
	.byte		N17
	.byte	W18
	.byte		N05
	.byte	W30
	.byte	PEND
	.byte	W36
	.byte		N12   , An3 , v060
	.byte	W12
	.byte		N02   , Fs3 
	.byte	W02
	.byte		N01   , Dn3 , v048
	.byte	W01
	.byte		        An2 , v036
	.byte	W44
	.byte	W01
	.byte	PEND
	.byte	W12
	.byte		N05   , An3 , v060
	.byte	W18
	.byte		N17
	.byte	W18
	.byte		N05
	.byte	W06
	.byte		N05
	.byte	W12
	.byte		N05
	.byte	W30
	.byte	PEND
	.byte	W36
	.byte		N12   , En3 , v060
	.byte	W12
	.byte		N02   , Cs3 
	.byte	W02
	.byte		N01   , An2 , v048
	.byte	W01
	.byte		        En2 , v036
	.byte	W44
	.byte	W01
	.byte	PEND
	.byte	W12
	.byte		N05   , En3 , v060
	.byte	W18
	.byte		N05
	.byte	W18
	.byte		N18   , En3 , v040
	.byte	W18
	.byte		        Fs3 
	.byte	W18
	.byte		N12   , En3 
	.byte	W12
	.byte	PEND
	.byte		N36   , En3 , v040
	.byte	W36
	.byte		N48   , Gs3 
	.byte	W48
	.byte		N06
	.byte	W06
	.byte		N06
	.byte	W06
	.byte	PEND
	.byte		N48   , Gs3 , v040
	.byte	W48
	.byte		N05   , Gs3 , v060
	.byte	W06
	.byte		N05
	.byte	W18
	.byte		N12
	.byte	W12
	.byte		N02   , En3 
	.byte	W02
	.byte		N01   , Bn2 , v048
	.byte	W01
	.byte		        Gs2 , v036
	.byte	W09
	.byte	PEND
	.byte	PATT
	 .word	seq_054_4 + 0x17
	.byte	PATT
	 .word	seq_054_4 + 0x28
	.byte	PATT
	 .word	seq_054_4 + 0x34
	.byte	W12
	.byte		N05   , An3 , v060
	.byte	W18
	.byte		N17
	.byte	W18
	.byte		N05
	.byte	W06
	.byte		N05
	.byte	W12
	.byte		N05
	.byte	W12
	.byte		N05
	.byte	W18
	.byte	PEND
	.byte	PATT
	 .word	seq_054_4 + 0x17
	.byte	W12
	.byte		N05   , An3 , v060
	.byte	W18
	.byte		N05
	.byte	W18
	.byte		N18   , En3 , v040
	.byte	W18
	.byte		        Fs3 
	.byte	W18
	.byte		N12   , En3 
	.byte	W12
	.byte	PEND
	.byte		N36   , En3 , v040
	.byte	W36
	.byte		        Gs3 
	.byte	W36
	.byte		N24   , Fs3 
	.byte	W24
	.byte	PEND
	.byte	W12
	.byte		N06   , En3 , v060
	.byte	W18
	.byte		N17
	.byte	W18
	.byte		N05   , Dn4 
	.byte	W06
	.byte		N05
	.byte	W18
	.byte		N12
	.byte	W12
	.byte		N02   , Bn3 
	.byte	W02
	.byte		N01   , Gs3 , v048
	.byte	W01
	.byte		        En3 , v036
	.byte	W09
	.byte	PEND
	.byte	W96
	.byte		VOICE , 111
	.byte		VOL   , 63*seq_054_mvl/mxv
	.byte		PAN   , c_v-62
	.byte	W96
	.byte	W12
	.byte		N05   , En3 , v080
	.byte	W18
	.byte		N05
	.byte	W18
	.byte		N17
	.byte	W18
	.byte		N05
	.byte	W30
	.byte	PEND
	.byte	W12
	.byte		N05   , En3 , v080
	.byte	W18
	.byte		N05
	.byte	W18
	.byte		N05
	.byte	W06
	.byte		N05
	.byte	W18
	.byte		N05
	.byte	W06
	.byte		N05
	.byte	W18
	.byte	PEND
	.byte	W96
	.byte	W96
	.byte		N48
	.byte	W48
	.byte		        Fs3 
	.byte	W48
	.byte		N18   , Gs3 , v080
	.byte	W18
	.byte		N06   , Bn3 
	.byte	W18
	.byte		N64   , An3 
	.byte	W42
	.byte		VOL   , 54*seq_054_mvl/mxv
	.byte	W07
	.byte		        36*seq_054_mvl/mxv
	.byte	W07
	.byte		        9*seq_054_mvl/mxv
	.byte	W04
	.byte	PEND
	.byte	W06
	.byte		VOL   , 63*seq_054_mvl/mxv
	.byte	W06
	.byte		N05   , An3 , v080
	.byte	W18
	.byte		N05
	.byte	W18
	.byte		N17
	.byte	W18
	.byte		N05
	.byte	W30
	.byte	PEND
	.byte	W12
	.byte		N05   , An3 , v080
	.byte	W18
	.byte		N17
	.byte	W18
	.byte		N05
	.byte	W06
	.byte		N05
	.byte	W12
	.byte		N05
	.byte	W12
	.byte		N05
	.byte	W18
	.byte	PEND
	.byte	W12
	.byte		N05   , Fs3 , v080
	.byte	W18
	.byte		N05
	.byte	W18
	.byte		N17
	.byte	W18
	.byte		N05
	.byte	W30
	.byte	PEND
	.byte	W12
	.byte		N05   , En3 , v080
	.byte	W18
	.byte		N18   , Fs3 
	.byte	W30
	.byte		N05   , Gn3 
	.byte	W18
	.byte		N18   , Gs3 
	.byte	W18
	.byte	PEND
	.byte	W12
	.byte		N05   , An3 , v080
	.byte	W18
	.byte		N05
	.byte	W18
	.byte		N17
	.byte	W18
	.byte		N05
	.byte	W30
	.byte	PEND
	.byte		N18   , Gs3 
	.byte	W19
	.byte		N05   , Bn3 
	.byte	W17
	.byte		N36   , As3 
	.byte	W18
	.byte		VOL   , 74*seq_054_mvl/mxv
	.byte	W07
	.byte		        55*seq_054_mvl/mxv
	.byte	W07
	.byte		        22*seq_054_mvl/mxv
	.byte	W28
	.byte		VOL   , 63*seq_054_mvl/mxv
	.byte	W12
	.byte		N05   , Bn3 , v080
	.byte	W18
	.byte		N17
	.byte	W18
	.byte		N05
	.byte	W06
	.byte		N05
	.byte	W12
	.byte		N05
	.byte	W30
	.byte	PEND
	.byte	W12
	.byte		N05   , Bn3 , v080
	.byte	W18
	.byte		N17
	.byte	W18
	.byte		N05
	.byte	W06
	.byte		N05
	.byte	W12
	.byte		N05
	.byte	W12
	.byte		        Cs4 
	.byte	W18
	.byte	PEND
	.byte		        Dn4 
	.byte	W06
	.byte		N05
	.byte	W30
	.byte		N05
	.byte	W06
	.byte		N05
	.byte	W42
	.byte		        En4 
	.byte	W06
	.byte		N05
	.byte	W06
	.byte		VOICE , 101
	.byte		PAN   , c_v+0
	.byte	W72
	.byte		N05   , Bn3 , v060
	.byte	W06
	.byte		N05
	.byte	W18
	.byte	PATT
	 .word	seq_054_4 + 0x17
	.byte	PATT
	 .word	seq_054_4 + 0x28
	.byte	PATT
	 .word	seq_054_4 + 0x34
	.byte	PATT
	 .word	seq_054_4 + 0x45
	.byte	PATT
	 .word	seq_054_4 + 0x53
	.byte	PATT
	 .word	seq_054_4 + 0x64
	.byte	PATT
	 .word	seq_054_4 + 0x75
	.byte	PATT
	 .word	seq_054_4 + 0x81
	.byte	PATT
	 .word	seq_054_4 + 0x17
	.byte	PATT
	 .word	seq_054_4 + 0x28
	.byte	PATT
	 .word	seq_054_4 + 0x34
	.byte	PATT
	 .word	seq_054_4 + 0xA7
	.byte	PATT
	 .word	seq_054_4 + 0x17
	.byte	PATT
	 .word	seq_054_4 + 0xBC
	.byte	PATT
	 .word	seq_054_4 + 0xCD
	.byte	PATT
	 .word	seq_054_4 + 0xD7
	.byte	W96
	.byte		VOICE , 111
	.byte		VOL   , 63*seq_054_mvl/mxv
	.byte		PAN   , c_v-64
	.byte	W96
	.byte	PATT
	 .word	seq_054_4 + 0xF8
	.byte	PATT
	 .word	seq_054_4 + 0x104
	.byte	W96
	.byte	W96
	.byte		N48   , En3 , v080
	.byte	W48
	.byte		        Fs3 
	.byte	W48
	.byte	PATT
	 .word	seq_054_4 + 0x11A
	.byte	PATT
	 .word	seq_054_4 + 0x12C
	.byte	PATT
	 .word	seq_054_4 + 0x13B
	.byte	PATT
	 .word	seq_054_4 + 0x14B
	.byte	PATT
	 .word	seq_054_4 + 0x157
	.byte	PATT
	 .word	seq_054_4 + 0x166
	.byte		N18   , Gs3 , v080
	.byte	W19
	.byte		N05   , Bn3 
	.byte	W17
	.byte		N36   , As3 
	.byte	W18
	.byte		VOL   , 56*seq_054_mvl/mxv
	.byte	W07
	.byte		        37*seq_054_mvl/mxv
	.byte	W07
	.byte		        4*seq_054_mvl/mxv
	.byte	W28
	.byte	PATT
	 .word	seq_054_4 + 0x182
	.byte	PATT
	 .word	seq_054_4 + 0x192
	.byte	W12
	.byte		N05   , Dn4 , v080
	.byte	W18
	.byte		N17
	.byte	W18
	.byte		N05
	.byte	W06
	.byte		N05
	.byte	W12
	.byte		N05
	.byte	W12
	.byte		N05
	.byte	W12
	.byte		N05
	.byte	W06
	.byte	W24
	.byte		N12
	.byte	W12
	.byte		N02   , Bn3 
	.byte	W02
	.byte		N01   , Gn3 , v068
	.byte	W01
	.byte		        Dn3 , v060
	.byte	W09
	.byte		N18   , Gn3 , v092
	.byte	W18
	.byte		        Fs3 
	.byte	W18
	.byte		N12   , Gn3 
	.byte	W12
	.byte		N96   , Gs3 , v104
	.byte	W56
	.byte	W03
	.byte		VOL   , 59*seq_054_mvl/mxv
	.byte	W11
	.byte		        48*seq_054_mvl/mxv
	.byte	W11
	.byte		        32*seq_054_mvl/mxv
	.byte	W11
	.byte		        9*seq_054_mvl/mxv
	.byte	W04
	.byte		        63*seq_054_mvl/mxv
	.byte	W12
	.byte		N05   , En3 , v088
	.byte	W18
	.byte		N17
	.byte	W18
	.byte		N05
	.byte	W06
	.byte		N05
	.byte	W12
	.byte		N05
	.byte	W30
	.byte		N52   , An3 , v092
	.byte	W36
	.byte		VOL   , 56*seq_054_mvl/mxv
	.byte	W07
	.byte		        37*seq_054_mvl/mxv
	.byte	W07
	.byte		        4*seq_054_mvl/mxv
	.byte	W04
	.byte		        63*seq_054_mvl/mxv
	.byte		N05   , An3 , v088
	.byte	W12
	.byte		N05
	.byte	W30
	.byte	W12
	.byte		        Bn3 , v092
	.byte	W18
	.byte		N17
	.byte	W18
	.byte		N05
	.byte	W06
	.byte		N05
	.byte	W12
	.byte		N05
	.byte	W12
	.byte		N09
	.byte	W18
	.byte		TIE   , An3 
	.byte	W96
	.byte	W11
	.byte		VOL   , 61*seq_054_mvl/mxv
	.byte	W11
	.byte		        58*seq_054_mvl/mxv
	.byte	W11
	.byte		        53*seq_054_mvl/mxv
	.byte	W11
	.byte		        45*seq_054_mvl/mxv
	.byte	W11
	.byte		        35*seq_054_mvl/mxv
	.byte	W11
	.byte		        23*seq_054_mvl/mxv
	.byte	W11
	.byte		        9*seq_054_mvl/mxv
	.byte	W11
	.byte		        0*seq_054_mvl/mxv
	.byte	W08
	.byte		EOT
	.byte	W96
	.byte		VOL   , 81*seq_054_mvl/mxv
	.byte	W96
	.byte	W96
	.byte	W96
	.byte	W96
	.byte	W96
	.byte	W96
	.byte	W96
	.byte	W96
	.byte		VOICE , 101
	.byte		PAN   , c_v+0
	.byte	W72
	.byte		N05   , Dn4 , v052
	.byte	W06
	.byte		N05
	.byte	W18
	.byte	PATT
	 .word	seq_054_4 + 0x17
	.byte	PATT
	 .word	seq_054_4 + 0x28
	.byte	PATT
	 .word	seq_054_4 + 0x34
	.byte	PATT
	 .word	seq_054_4 + 0x45
	.byte	PATT
	 .word	seq_054_4 + 0x53
	.byte	PATT
	 .word	seq_054_4 + 0x64
	.byte	PATT
	 .word	seq_054_4 + 0x75
	.byte		N48   , Gs3 , v040
	.byte	W48
	.byte		N05   , Bn3 , v060
	.byte	W06
	.byte		N05
	.byte	W18
	.byte		N12
	.byte	W12
	.byte		N02   , Gs3 
	.byte	W02
	.byte		N01   , En3 , v048
	.byte	W01
	.byte		        Bn2 , v036
	.byte	W09
	.byte	PATT
	 .word	seq_054_4 + 0x17
	.byte	PATT
	 .word	seq_054_4 + 0x28
	.byte	PATT
	 .word	seq_054_4 + 0x34
	.byte	W06
	.byte		N05   , An3 , v060
	.byte	W18
	.byte		N12
	.byte	W12
	.byte		N02   , Fs3 
	.byte	W02
	.byte		N01   , Dn3 , v048
	.byte	W01
	.byte		        An2 , v036
	.byte	W09
	.byte		N14   , Dn4 , v060
	.byte	W18
	.byte		        An3 
	.byte	W18
	.byte		N12   , Dn4 
	.byte	W12
	.byte	PATT
	 .word	seq_054_4 + 0x17
	.byte	PATT
	 .word	seq_054_4 + 0xBC
	.byte		N36   , En3 , v040
	.byte	W36
	.byte		        Gs3 
	.byte	W36
	.byte		N24   , Bn3 
	.byte	W24
	.byte	W12
	.byte		N06   , Bn3 , v060
	.byte	W18
	.byte		N17
	.byte	W18
	.byte		N05   , Dn4 
	.byte	W06
	.byte		N05
	.byte	W12
	.byte		N05
	.byte	W12
	.byte		N12
	.byte	W12
	.byte		N02   , Bn3 
	.byte	W02
	.byte		N01   , Gs3 , v048
	.byte	W01
	.byte		        En3 , v036
	.byte	W03
	.byte		TIE   , En3 , v052
	.byte	W96
	.byte	W96
	.byte		EOT
	.byte		N96
	.byte	W96
	.byte		N72   , En3 , v060
	.byte	W03
	.byte		VOL   , 57*seq_054_mvl/mxv
	.byte	W03
	.byte		        40*seq_054_mvl/mxv
	.byte	W03
	.byte		        12*seq_054_mvl/mxv
	.byte	W03
	.byte		        9*seq_054_mvl/mxv
	.byte	W12
	.byte		        12*seq_054_mvl/mxv
	.byte	W04
	.byte		        15*seq_054_mvl/mxv
	.byte	W04
	.byte		        19*seq_054_mvl/mxv
	.byte	W04
	.byte		        25*seq_054_mvl/mxv
	.byte	W04
	.byte		        36*seq_054_mvl/mxv
	.byte	W04
	.byte		        47*seq_054_mvl/mxv
	.byte	W04
	.byte		        58*seq_054_mvl/mxv
	.byte	W04
	.byte		        67*seq_054_mvl/mxv
	.byte	W04
	.byte		        73*seq_054_mvl/mxv
	.byte	W04
	.byte		        76*seq_054_mvl/mxv
	.byte	W05
	.byte		        77*seq_054_mvl/mxv
	.byte	W07
	.byte		BEND  , c_v-32
	.byte		N05   , Cs4 , v064
	.byte	W02
	.byte		BEND  , c_v+0
	.byte	W04
	.byte		N09
	.byte	W09
	.byte		N02   , An3 , v060
	.byte	W02
	.byte		N01   , En3 , v048
	.byte	W01
	.byte		        Cs3 , v040
	.byte	W06
	.byte	W96
	.byte	W96
	.byte	W96
	.byte	W96
	.byte	W96
	.byte	W96
	.byte	W96
	.byte		PAN   , c_v+0
	.byte	W54
	.byte		N05   , Gs3 , v064
	.byte	W12
	.byte		N05
	.byte	W12
	.byte		N05
	.byte	W12
	.byte		        Fs3 
	.byte	W06
	.byte		N12   , En3 , v064
	.byte	W12
	.byte		N02   , Cs3 , v060
	.byte	W02
	.byte		N01   , An2 , v056
	.byte	W01
	.byte		        En2 
	.byte	W44
	.byte	W01
	.byte		N05   , En3 , v064
	.byte	W18
	.byte		N18
	.byte	W18
	.byte	PEND
	.byte		N12   , Fs3 , v064
	.byte	W12
	.byte		N02   , Dn3 , v060
	.byte	W02
	.byte		N01   , An2 , v056
	.byte	W01
	.byte		        Fs2 
	.byte	W36
	.byte	W03
	.byte		N05   , Fs3 , v064
	.byte	W12
	.byte		N05
	.byte	W12
	.byte		        Gs3 
	.byte	W12
	.byte		        Fs3 
	.byte	W06
	.byte	PEND
	.byte		N12   , En3 
	.byte	W12
	.byte		N02   , Cs3 , v060
	.byte	W02
	.byte		N01   , An2 , v056
	.byte	W01
	.byte		        En2 
	.byte	W44
	.byte	W01
	.byte		N04   , En3 , v064
	.byte	W18
	.byte		N18   , Cs3 
	.byte	W18
	.byte		N12   , En3 
	.byte	W12
	.byte		N02   , Bn2 , v060
	.byte	W02
	.byte		N01   , Gs2 , v056
	.byte	W01
	.byte		        En2 
	.byte	W36
	.byte	W03
	.byte		N05   , Gs3 , v064
	.byte	W12
	.byte		N05
	.byte	W12
	.byte		N05
	.byte	W12
	.byte		        Fs3 
	.byte	W06
	.byte	PATT
	 .word	seq_054_4 + 0x3CF
	.byte		N12   , Fs3 , v064
	.byte	W12
	.byte		N02   , Dn3 , v060
	.byte	W02
	.byte		N01   , An2 , v056
	.byte	W01
	.byte		        Fs2 
	.byte	W36
	.byte	W03
	.byte		N05   , Fs3 , v064
	.byte	W12
	.byte		N05
	.byte	W24
	.byte		N05
	.byte	W06
	.byte		N12   , En3 
	.byte	W12
	.byte		N02   , Cs3 , v060
	.byte	W02
	.byte		N01   , An2 , v056
	.byte	W01
	.byte		        En2 
	.byte	W44
	.byte	W01
	.byte		N05   , En3 , v064
	.byte	W18
	.byte		N18   , Cs3 
	.byte	W18
	.byte		N12   , En3 
	.byte	W12
	.byte		N02   , Bn2 , v060
	.byte	W02
	.byte		N01   , Gs2 , v056
	.byte	W01
	.byte		        En2 
	.byte	W36
	.byte	W03
	.byte		N05   , En3 , v064
	.byte	W12
	.byte		N05
	.byte	W12
	.byte		N05
	.byte	W12
	.byte		        Gs3 
	.byte	W06
	.byte	PATT
	 .word	seq_054_4 + 0x3CF
	.byte	PATT
	 .word	seq_054_4 + 0x3E5
	.byte		N12   , En3 , v064
	.byte	W12
	.byte		N02   , Cs3 , v060
	.byte	W02
	.byte		N01   , An2 , v056
	.byte	W01
	.byte		        En2 
	.byte	W44
	.byte	W01
	.byte		N05   , En3 , v064
	.byte	W18
	.byte		N18   , An3 
	.byte	W18
	.byte		N12   , Bn3 
	.byte	W12
	.byte		N02   , Gs3 , v060
	.byte	W02
	.byte		N01   , En3 , v056
	.byte	W01
	.byte		        Bn2 
	.byte	W36
	.byte	W03
	.byte		N05   , Gs3 , v064
	.byte	W12
	.byte		N05
	.byte	W12
	.byte		N05
	.byte	W12
	.byte		N05
	.byte	W06
	.byte		N12   , Cs4 
	.byte	W12
	.byte		N02   , An3 , v060
	.byte	W02
	.byte		N01   , En3 , v056
	.byte	W01
	.byte		        Cs3 
	.byte	W44
	.byte	W01
	.byte		N05   , En3 , v064
	.byte	W18
	.byte		N18
	.byte	W18
	.byte		N12   , Fs3 , v064
	.byte	W12
	.byte		N02   , Dn3 , v060
	.byte	W02
	.byte		N01   , An2 , v056
	.byte	W01
	.byte		        Fs2 
	.byte	W36
	.byte	W03
	.byte		N05   , Fs3 , v064
	.byte	W12
	.byte		N05
	.byte	W12
	.byte		N05
	.byte	W12
	.byte		        En3 
	.byte	W06
	.byte	PEND
	.byte		N12   , En3 , v064
	.byte	W12
	.byte		N02   , Cs3 , v060
	.byte	W02
	.byte		N01   , An2 , v056
	.byte	W44
	.byte	W02
	.byte		N05   , En3 , v064
	.byte	W18
	.byte		N18
	.byte	W18
	.byte		N12   , Fs3 
	.byte	W12
	.byte		N02   , Dn3 , v060
	.byte	W02
	.byte		N01   , An2 , v056
	.byte	W40
	.byte		N05   , Fs3 , v064
	.byte	W12
	.byte		N05
	.byte	W12
	.byte		N05
	.byte	W12
	.byte		        Gs3 
	.byte	W06
	.byte	PATT
	 .word	seq_054_4 + 0x3CF
	.byte	PATT
	 .word	seq_054_4 + 0x4C1
	.byte	GOTO
	 .word	seq_054_4 + 0x4DB
	.byte	FINE

@*********************** Track 06 ***********************@

seq_054_5:
	.byte	KEYSH , seq_054_key+0
	.byte		VOICE , 80
	.byte		VOL   , 86*seq_054_mvl/mxv
	.byte		PAN   , c_v+0
	.byte	W96
	.byte	W96
	.byte	W96
	.byte	W96
	.byte	W96
	.byte	W96
	.byte	W96
	.byte	W96
	.byte	W96
	.byte	W96
	.byte	W96
	.byte	W96
	.byte	W96
	.byte	W96
	.byte	W96
	.byte	W96
	.byte	W96
	.byte	W96
	.byte	W96
	.byte	W96
	.byte	W96
	.byte	W96
	.byte	W96
	.byte	W96
	.byte	W48
	.byte		VOICE , 80
	.byte		VOL   , 105*seq_054_mvl/mxv
	.byte		N12   , Bn3 , v080
	.byte	W24
	.byte		        Cs4 
	.byte	W24
	.byte	PEND
	.byte		N18   , Dn4 , v092
	.byte	W18
	.byte		N06   , An3 
	.byte	W18
	.byte		N12   , Fs3 
	.byte	W12
	.byte		N78   , Dn4 , v080
	.byte	W32
	.byte	W03
	.byte		VOL   , 100*seq_054_mvl/mxv
	.byte	W11
	.byte		        89*seq_054_mvl/mxv
	.byte	W02
	.byte	PEND
	.byte	W09
	.byte		VOL   , 71*seq_054_mvl/mxv
	.byte	W11
	.byte		        45*seq_054_mvl/mxv
	.byte	W10
	.byte		        105*seq_054_mvl/mxv
	.byte	W06
	.byte		N06   , Bn3 , v092
	.byte	W06
	.byte		        Cs4 
	.byte	W06
	.byte		N18   , Dn4 
	.byte	W18
	.byte		        Cs4 
	.byte	W18
	.byte		N12   , Bn3 
	.byte	W12
	.byte	PEND
	.byte		N18   , Cs4 , v092
	.byte	W18
	.byte		TIE   , An3 
	.byte	W40
	.byte	W01
	.byte		VOL   , 103*seq_054_mvl/mxv
	.byte	W11
	.byte		        98*seq_054_mvl/mxv
	.byte	W11
	.byte		        91*seq_054_mvl/mxv
	.byte	W12
	.byte		        81*seq_054_mvl/mxv
	.byte	W03
	.byte	PEND
	.byte	W08
	.byte		VOL   , 68*seq_054_mvl/mxv
	.byte	W11
	.byte		        52*seq_054_mvl/mxv
	.byte	W11
	.byte		        33*seq_054_mvl/mxv
	.byte	W12
	.byte		        11*seq_054_mvl/mxv
	.byte	W06
	.byte	PEND
	.byte		EOT   , An3 
	.byte	W42
	.byte		VOL   , 105*seq_054_mvl/mxv
	.byte	W06
	.byte		N18   , Bn3 , v092
	.byte	W18
	.byte		N06   , Gs3 
	.byte	W18
	.byte		N11   , En3 
	.byte	W12
	.byte		N78   , Bn3 
	.byte	W32
	.byte	W03
	.byte		VOL   , 100*seq_054_mvl/mxv
	.byte	W11
	.byte		        89*seq_054_mvl/mxv
	.byte	W02
	.byte	PEND
	.byte	W09
	.byte		VOL   , 71*seq_054_mvl/mxv
	.byte	W11
	.byte		        45*seq_054_mvl/mxv
	.byte	W10
	.byte		        105*seq_054_mvl/mxv
	.byte	W06
	.byte		N06   , En3 , v092
	.byte	W06
	.byte		        Gs3 
	.byte	W06
	.byte		N12   , Bn3 
	.byte	W12
	.byte		        Gs3 
	.byte	W12
	.byte		        Bn3 
	.byte	W12
	.byte		        Dn4 
	.byte	W12
	.byte	PEND
	.byte		N48   , Cs4 , v088
	.byte	W48
	.byte		        Dn4 
	.byte	W48
	.byte		N18   , Ds4 
	.byte	W18
	.byte		N06   , Fs4 
	.byte	W18
	.byte		N24   , En4 
	.byte	W24
	.byte		VOICE , 12
	.byte		N03   , En5 , v104
	.byte	W03
	.byte		        En5 , v084
	.byte	W03
	.byte		        Cs5 , v100
	.byte	W03
	.byte		        Cs5 , v084
	.byte	W03
	.byte		        An4 , v096
	.byte	W03
	.byte		        An4 , v068
	.byte	W03
	.byte		        Cs5 , v092
	.byte	W03
	.byte		        Cs5 , v068
	.byte	W03
	.byte		        An4 , v092
	.byte	W03
	.byte		        An4 , v076
	.byte	W03
	.byte		        En4 , v108
	.byte	W03
	.byte		        En4 , v092
	.byte	W03
	.byte		VOICE , 80
	.byte		VOL   , 81*seq_054_mvl/mxv
	.byte		N17   , Fs4 , v076
	.byte	W18
	.byte		N06   , Dn4 , v080
	.byte	W18
	.byte		N11   , Fs4 , v076
	.byte	W12
	.byte		N17   , An4 , v056
	.byte	W18
	.byte		        Gs4 , v060
	.byte	W18
	.byte		N11   , Fs4 , v072
	.byte	W12
	.byte		N17   , En4 
	.byte	W18
	.byte		N06   , Cs4 , v084
	.byte	W18
	.byte		N11   , En4 , v072
	.byte	W12
	.byte		N17   , An4 , v056
	.byte	W18
	.byte		        En4 , v072
	.byte	W18
	.byte		N11   , Cs4 
	.byte	W12
	.byte		N17   , Dn4 , v076
	.byte	W18
	.byte		N06   , Bn3 , v080
	.byte	W18
	.byte		N11   , Dn4 , v076
	.byte	W12
	.byte		N17   , Gs4 , v056
	.byte	W18
	.byte		        Fs4 , v068
	.byte	W18
	.byte		N11   , En4 , v072
	.byte	W12
	.byte		N18   , Cs4 , v072
	.byte	W24
	.byte		        Dn4 
	.byte	W24
	.byte		N17   , Ds4 
	.byte	W18
	.byte		N30   , En4 
	.byte	W30
	.byte	PEND
	.byte		N17   , Fs4 , v076
	.byte	W18
	.byte		N06   , Dn4 , v080
	.byte	W18
	.byte		N11   , Fs4 , v076
	.byte	W12
	.byte		N17   , An4 , v056
	.byte	W18
	.byte		        Gs4 , v060
	.byte	W18
	.byte		N11   , Fs4 , v072
	.byte	W12
	.byte		N18   , En4 , v072
	.byte	W18
	.byte		N06   , Gn4 
	.byte	W18
	.byte		N36   , Fs4 
	.byte	W36
	.byte		N24   , Cs4 
	.byte	W24
	.byte	PEND
	.byte		TIE   , En4 
	.byte	W96
	.byte	W44
	.byte	W03
	.byte		EOT
	.byte	W01
	.byte		N17   , En4 , v076
	.byte	W18
	.byte		        En4 , v064
	.byte	W18
	.byte		N12   , Fs4 , v072
	.byte	W12
	.byte		N84   , Gn4 , v068
	.byte	W84
	.byte		N05   , Gs4 , v080
	.byte	W06
	.byte		N05
	.byte	W06
	.byte	W96
	.byte	W96
	.byte	W96
	.byte	W96
	.byte	W96
	.byte	W96
	.byte	W96
	.byte	W96
	.byte	W96
	.byte	W96
	.byte	W96
	.byte	W96
	.byte	W96
	.byte	W96
	.byte	W96
	.byte	W96
	.byte	PATT
	 .word	seq_054_5 + 0x20
	.byte	PATT
	 .word	seq_054_5 + 0x2C
	.byte	PATT
	 .word	seq_054_5 + 0x41
	.byte	PATT
	 .word	seq_054_5 + 0x58
	.byte	PATT
	 .word	seq_054_5 + 0x6A
	.byte		EOT   , An3 
	.byte	W42
	.byte		VOL   , 105*seq_054_mvl/mxv
	.byte	W06
	.byte	PATT
	 .word	seq_054_5 + 0x7B
	.byte	PATT
	 .word	seq_054_5 + 0x8F
	.byte		N48   , Cs4 , v080
	.byte	W48
	.byte		        Dn4 
	.byte	W48
	.byte		N18   , Ds4 
	.byte	W18
	.byte		N06   , Fs4 
	.byte	W18
	.byte		N24   , En4 
	.byte	W24
	.byte		VOICE , 12
	.byte		N03   , En5 , v096
	.byte	W03
	.byte		        En5 , v076
	.byte	W03
	.byte		        Cs5 , v100
	.byte	W03
	.byte		        Cs5 , v084
	.byte	W03
	.byte		        An4 , v096
	.byte	W03
	.byte		        An4 , v068
	.byte	W03
	.byte		        Cs5 , v092
	.byte	W03
	.byte		        Cs5 , v068
	.byte	W03
	.byte		        An4 , v092
	.byte	W03
	.byte		        An4 , v076
	.byte	W03
	.byte		        En4 , v108
	.byte	W03
	.byte		        En4 , v092
	.byte	W03
	.byte		VOICE , 80
	.byte		VOL   , 81*seq_054_mvl/mxv
	.byte		N17   , Fs4 , v076
	.byte	W18
	.byte		N06   , Dn4 , v080
	.byte	W18
	.byte		N11   , Fs4 , v076
	.byte	W12
	.byte		N17   , An4 , v056
	.byte	W18
	.byte		        Gs4 , v060
	.byte	W06
	.byte		N04   , Fs5 , v056
	.byte	W06
	.byte		N03
	.byte	W03
	.byte		        Fs5 , v048
	.byte	W03
	.byte		N11   , Fs4 , v072
	.byte		N03   , Fs5 , v040
	.byte	W03
	.byte		        Fs5 , v032
	.byte	W03
	.byte		        Fs5 , v024
	.byte	W03
	.byte		        Fs5 , v012
	.byte	W03
	.byte		N17   , En4 , v072
	.byte	W18
	.byte		N06   , Cs4 , v080
	.byte	W18
	.byte		N11   , En4 , v072
	.byte	W12
	.byte		N17   , An4 , v056
	.byte	W18
	.byte		        En4 , v072
	.byte	W06
	.byte		N04   , En5 , v056
	.byte	W06
	.byte		N03
	.byte	W03
	.byte		        En5 , v048
	.byte	W03
	.byte		N11   , Cs4 , v072
	.byte		N03   , En5 , v040
	.byte	W03
	.byte		        En5 , v032
	.byte	W03
	.byte		        En5 , v024
	.byte	W03
	.byte		        En5 , v012
	.byte	W03
	.byte		N17   , Dn4 , v076
	.byte	W18
	.byte		N06   , Bn3 , v080
	.byte	W18
	.byte		N11   , Dn4 , v076
	.byte	W12
	.byte		N17   , Gs4 , v056
	.byte	W18
	.byte		        Fs4 , v068
	.byte	W06
	.byte		N04   , Dn5 , v056
	.byte	W06
	.byte		N03
	.byte	W03
	.byte		        Dn5 , v048
	.byte	W03
	.byte		N11   , En4 , v072
	.byte		N03   , Dn5 , v040
	.byte	W03
	.byte		        Dn5 , v032
	.byte	W03
	.byte		        Dn5 , v024
	.byte	W03
	.byte		        Dn5 , v012
	.byte	W03
	.byte	PATT
	 .word	seq_054_5 + 0x124
	.byte		N17   , Fs4 , v076
	.byte	W18
	.byte		N06   , Dn4 , v080
	.byte	W18
	.byte		N11   , Fs4 , v076
	.byte	W12
	.byte		N17   , An4 , v056
	.byte	W18
	.byte		        Gs4 , v060
	.byte	W06
	.byte		N04   , Fs5 , v056
	.byte	W06
	.byte		N03
	.byte	W03
	.byte		        Fs5 , v048
	.byte	W03
	.byte		N11   , Fs4 , v072
	.byte		N03   , Fs5 , v040
	.byte	W03
	.byte		        Fs5 , v032
	.byte	W03
	.byte		        Fs5 , v024
	.byte	W03
	.byte		        Fs5 , v012
	.byte	W03
	.byte	PATT
	 .word	seq_054_5 + 0x148
	.byte		TIE   , En4 , v072
	.byte	W96
	.byte	W44
	.byte	W03
	.byte		EOT
	.byte	W01
	.byte		N17   , En4 , v080
	.byte	W18
	.byte		        En4 , v072
	.byte	W18
	.byte		N24   , Fs4 , v076
	.byte	W12
	.byte	W12
	.byte		N84   , Gn4 , v072
	.byte	W84
	.byte	W24
	.byte		N03   , Gn5 , v052
	.byte	W03
	.byte		        Gn5 , v048
	.byte	W03
	.byte		        Gn5 , v044
	.byte	W03
	.byte		        Gn5 , v040
	.byte	W03
	.byte		        Gn5 , v032
	.byte	W03
	.byte		        Gn5 , v024
	.byte	W03
	.byte		        Gn5 , v016
	.byte	W03
	.byte		        Gn5 , v004
	.byte	W03
	.byte		N18   , Gn4 , v068
	.byte	W18
	.byte		        Fs4 
	.byte	W18
	.byte		N12   , Gn4 
	.byte	W12
	.byte		VOICE , 81
	.byte		N06   , En2 , v100
	.byte	W06
	.byte		        Gs2 
	.byte	W06
	.byte		        Bn2 
	.byte	W06
	.byte		        Dn3 
	.byte	W06
	.byte		        En3 
	.byte	W06
	.byte		        Bn2 
	.byte	W06
	.byte		        Gs2 
	.byte	W06
	.byte		        En2 
	.byte	W06
	.byte		        Gs2 
	.byte	W06
	.byte		        Bn2 
	.byte	W06
	.byte		        En3 
	.byte	W06
	.byte		        Fs3 
	.byte	W06
	.byte		        Gs3 
	.byte	W06
	.byte		        En3 
	.byte	W06
	.byte		        Bn2 
	.byte	W06
	.byte		        Gs2 
	.byte	W06
	.byte		        Bn2 
	.byte	W06
	.byte		        En3 
	.byte	W06
	.byte		        Fs3 , v096
	.byte	W06
	.byte		        Gs3 , v092
	.byte	W06
	.byte		        Bn3 
	.byte	W06
	.byte		        Gs3 
	.byte	W06
	.byte		        En3 , v100
	.byte	W06
	.byte		        Bn2 
	.byte	W06
	.byte		        En3 
	.byte	W06
	.byte		        Gs3 , v096
	.byte	W06
	.byte		        Bn3 , v092
	.byte	W06
	.byte		        Dn4 , v088
	.byte	W06
	.byte		        En4 
	.byte	W06
	.byte		        Bn3 , v092
	.byte	W06
	.byte		        Gs3 , v096
	.byte	W06
	.byte		        En3 , v104
	.byte	W06
	.byte		VOICE , 80
	.byte		N06   , Fs3 , v100
	.byte	W06
	.byte		        An3 , v096
	.byte	W06
	.byte		        Dn4 , v084
	.byte	W06
	.byte		        En4 , v076
	.byte	W06
	.byte		        Fs4 , v080
	.byte	W06
	.byte		        Dn4 , v084
	.byte	W06
	.byte		        An3 , v088
	.byte	W06
	.byte		        Fs3 , v092
	.byte	W06
	.byte		        An3 , v100
	.byte	W06
	.byte		        Dn4 , v092
	.byte	W06
	.byte		        Fs4 , v080
	.byte	W06
	.byte		        Gs4 , v076
	.byte	W06
	.byte		        An4 
	.byte	W06
	.byte		        Fs4 , v080
	.byte	W06
	.byte		        Dn4 , v092
	.byte	W06
	.byte		        An3 , v100
	.byte	W06
	.byte		        Bn3 
	.byte	W06
	.byte		        En4 , v092
	.byte	W06
	.byte		        Fs4 , v076
	.byte	W06
	.byte		        Gs4 , v064
	.byte	W06
	.byte		        Bn4 , v060
	.byte	W06
	.byte		        Gs4 
	.byte	W06
	.byte		        En4 , v072
	.byte	W06
	.byte		        Bn3 , v088
	.byte	W06
	.byte		        En4 , v100
	.byte	W06
	.byte		        Gs4 , v088
	.byte	W06
	.byte		        Bn4 , v076
	.byte	W06
	.byte		        Dn5 , v064
	.byte	W06
	.byte		        En5 , v052
	.byte	W06
	.byte		        Bn4 , v064
	.byte	W06
	.byte		        Gs4 , v084
	.byte	W06
	.byte		        En4 , v092
	.byte	W06
	.byte		TIE   , An4 , v060
	.byte	W96
	.byte	W11
	.byte		VOL   , 101*seq_054_mvl/mxv
	.byte	W11
	.byte		        96*seq_054_mvl/mxv
	.byte	W11
	.byte		        90*seq_054_mvl/mxv
	.byte	W11
	.byte		        80*seq_054_mvl/mxv
	.byte	W11
	.byte		        67*seq_054_mvl/mxv
	.byte	W11
	.byte		        53*seq_054_mvl/mxv
	.byte	W11
	.byte		        35*seq_054_mvl/mxv
	.byte	W11
	.byte		        14*seq_054_mvl/mxv
	.byte	W08
	.byte		EOT
	.byte		VOL   , 0*seq_054_mvl/mxv
	.byte	W96
	.byte		        105*seq_054_mvl/mxv
	.byte	W96
	.byte	W96
	.byte	W96
	.byte	W96
	.byte	W96
	.byte	W96
	.byte	W96
	.byte	W96
	.byte	W96
	.byte	W96
	.byte	W96
	.byte	W96
	.byte	W96
	.byte	W96
	.byte	W96
	.byte	W96
	.byte		VOICE , 124
	.byte		VOL   , 115*seq_054_mvl/mxv
	.byte	W48
	.byte		N06   , Gs5 , v040
	.byte	W06
	.byte		        En5 
	.byte	W06
	.byte		        Bn4 
	.byte	W06
	.byte		        Gs4 
	.byte	W06
	.byte		        Bn4 
	.byte	W06
	.byte		        Gs4 
	.byte	W06
	.byte		        En4 
	.byte	W06
	.byte		        Bn3 
	.byte	W06
	.byte		N06   , An5 , v040
	.byte	W06
	.byte		        En5 
	.byte	W06
	.byte		        Cs5 
	.byte	W06
	.byte		        An4 
	.byte	W06
	.byte		        En5 
	.byte	W06
	.byte		        Cs5 
	.byte	W06
	.byte		        An4 
	.byte	W06
	.byte		        En4 
	.byte	W06
	.byte		        Cs5 
	.byte	W06
	.byte		        An4 
	.byte	W06
	.byte		        En4 
	.byte	W06
	.byte		        Cs4 
	.byte	W06
	.byte		        An4 
	.byte	W06
	.byte		        En4 
	.byte	W06
	.byte		        Cs4 
	.byte	W06
	.byte		        An3 
	.byte	W06
	.byte	PEND
	.byte	PATT
	 .word	seq_054_5 + 0x3C9
	.byte		N06   , An5 , v040
	.byte	W06
	.byte		        Fs5 
	.byte	W06
	.byte		        Dn5 
	.byte	W06
	.byte		        An4 
	.byte	W06
	.byte		        Fs5 
	.byte	W06
	.byte		        Dn5 
	.byte	W06
	.byte		        An4 
	.byte	W06
	.byte		        Fs4 
	.byte	W06
	.byte		        Dn5 
	.byte	W06
	.byte		        An4 
	.byte	W06
	.byte		        Fs4 
	.byte	W06
	.byte		        Dn4 
	.byte	W06
	.byte		        An4 
	.byte	W06
	.byte		        Fs4 
	.byte	W06
	.byte		        Dn4 
	.byte	W06
	.byte		        An3 
	.byte	W06
	.byte		        An5 
	.byte	W06
	.byte		        Fs5 
	.byte	W06
	.byte		        Dn5 
	.byte	W06
	.byte		        An4 
	.byte	W06
	.byte		        Fs5 
	.byte	W06
	.byte		        Dn5 
	.byte	W06
	.byte		        An4 
	.byte	W06
	.byte		        Fs4 
	.byte	W06
	.byte		        Dn5 
	.byte	W06
	.byte		        An4 
	.byte	W06
	.byte		        Fs4 
	.byte	W06
	.byte		        An4 
	.byte	W06
	.byte		        Fs4 
	.byte	W06
	.byte		        Dn4 
	.byte	W06
	.byte		        Fs4 
	.byte	W06
	.byte		        An3 
	.byte	W06
	.byte	PATT
	 .word	seq_054_5 + 0x3C9
	.byte	PATT
	 .word	seq_054_5 + 0x3C9
	.byte		N06   , Gs5 , v040
	.byte	W06
	.byte		        En5 
	.byte	W06
	.byte		        Bn4 
	.byte	W06
	.byte		        Gs4 
	.byte	W06
	.byte		        En5 
	.byte	W06
	.byte		        Bn4 
	.byte	W06
	.byte		        Gs4 
	.byte	W06
	.byte		        En4 
	.byte	W06
	.byte		        Bn4 
	.byte	W06
	.byte		        Gs4 
	.byte	W06
	.byte		        En4 
	.byte	W06
	.byte		        Bn3 
	.byte	W06
	.byte		        Gs4 
	.byte	W06
	.byte		        En4 
	.byte	W06
	.byte		        Bn3 
	.byte	W06
	.byte		        Fs3 
	.byte	W06
	.byte		        Gs3 
	.byte	W06
	.byte		        Bn3 
	.byte	W06
	.byte		        Dn4 
	.byte	W06
	.byte		        En4 
	.byte	W06
	.byte		        Bn3 
	.byte	W06
	.byte		        Dn4 
	.byte	W06
	.byte		        En4 
	.byte	W06
	.byte		        Gs4 
	.byte	W06
	.byte		        En4 
	.byte	W06
	.byte		        Gs4 
	.byte	W06
	.byte		        Bn4 
	.byte	W06
	.byte		        Dn5 
	.byte	W06
	.byte		        Bn4 
	.byte	W06
	.byte		        Dn5 
	.byte	W06
	.byte		        En5 
	.byte	W06
	.byte		        Gs5 
	.byte	W06
	.byte		VOICE , 122
	.byte		VOL   , 81*seq_054_mvl/mxv
	.byte		PAN   , c_v+63
	.byte		N96   , An3 , v060
	.byte	W96
	.byte		        Dn4 
	.byte	W96
	.byte		N72   , Cs4 
	.byte	W72
	.byte		N04   , Gs3 
	.byte	W04
	.byte		        An3 
	.byte	W04
	.byte		        Bn3 
	.byte	W04
	.byte		        Cs4 
	.byte	W04
	.byte		        Dn4 
	.byte	W04
	.byte		        Ds4 
	.byte	W04
	.byte		N72   , En4 
	.byte	W72
	.byte		N05   , An4 
	.byte	W06
	.byte		N05
	.byte	W18
	.byte	W96
	.byte	W96
	.byte	W96
	.byte	W96
	.byte	W96
	.byte	W96
	.byte	W96
	.byte		VOICE , 123
	.byte	W96
	.byte	W12
	.byte		N05   , An4 , v092
	.byte	W24
	.byte		N05
	.byte	W12
	.byte		N05
	.byte	W06
	.byte		N05
	.byte	W12
	.byte		N06
	.byte	W12
	.byte		N18
	.byte	W18
	.byte	PEND
	.byte	W12
	.byte		N05   , An4 , v092
	.byte	W24
	.byte		N05
	.byte	W12
	.byte		N05
	.byte	W06
	.byte		N05
	.byte	W12
	.byte		N05
	.byte	W13
	.byte		N05
	.byte	W12
	.byte		N05
	.byte	W05
	.byte	PEND
	.byte	PATT
	 .word	seq_054_5 + 0x4AD
	.byte	W12
	.byte		N05   , Gs4 , v092
	.byte	W24
	.byte		N05
	.byte	W12
	.byte		N05
	.byte	W06
	.byte		N05
	.byte	W12
	.byte		N05
	.byte	W12
	.byte		N05
	.byte	W12
	.byte		N05
	.byte	W06
	.byte	PEND
	.byte	PATT
	 .word	seq_054_5 + 0x4AD
	.byte	PATT
	 .word	seq_054_5 + 0x4BD
	.byte	PATT
	 .word	seq_054_5 + 0x4AD
	.byte	PATT
	 .word	seq_054_5 + 0x4D4
	.byte	PATT
	 .word	seq_054_5 + 0x4AD
	.byte	PATT
	 .word	seq_054_5 + 0x4BD
	.byte	PATT
	 .word	seq_054_5 + 0x4AD
	.byte	W12
	.byte		N05   , Bn4 , v092
	.byte	W24
	.byte		N05
	.byte	W12
	.byte		N05
	.byte	W06
	.byte		N05
	.byte	W12
	.byte		N05
	.byte	W12
	.byte		N05
	.byte	W12
	.byte		N05
	.byte	W06
	.byte	PATT
	 .word	seq_054_5 + 0x4AD
	.byte	PATT
	 .word	seq_054_5 + 0x4BD
	.byte	PATT
	 .word	seq_054_5 + 0x4AD
	.byte	W12
	.byte		N05   , An4 , v092
	.byte	W24
	.byte		N05
	.byte	W12
	.byte		N05
	.byte	W06
	.byte		N05
	.byte	W12
	.byte		N05
	.byte	W12
	.byte		N05
	.byte	W12
	.byte		N05
	.byte	W06
	.byte	PATT
	 .word	seq_054_5 + 0x4AD
	.byte	PATT
	 .word	seq_054_5 + 0x4BD
	.byte	GOTO
	 .word	seq_054_5 + 0x524
	.byte	FINE

@*********************** Track 07 ***********************@

seq_054_6:
	.byte	KEYSH , seq_054_key+0
	.byte		VOICE , 123
	.byte		VOL   , 87*seq_054_mvl/mxv
	.byte		PAN   , c_v+0
	.byte	W96
	.byte	W96
	.byte	W96
	.byte	W96
	.byte	W96
	.byte	W96
	.byte	W96
	.byte	W96
	.byte	W96
	.byte	W96
	.byte	W96
	.byte	W96
	.byte	W96
	.byte	W96
	.byte	W96
	.byte	W96
	.byte	W96
	.byte	W96
	.byte	W96
	.byte	W96
	.byte	W96
	.byte	W96
	.byte	W96
	.byte	W96
	.byte	W48
	.byte		VOL   , 105*seq_054_mvl/mxv
	.byte		N12   , En3 , v080
	.byte	W24
	.byte		N12
	.byte	W24
	.byte	PEND
	.byte		N18   , Fs3 , v080
	.byte	W36
	.byte		N12   , An2 
	.byte	W12
	.byte		N78   , An3 
	.byte	W32
	.byte	W03
	.byte		VOL   , 100*seq_054_mvl/mxv
	.byte	W11
	.byte		        89*seq_054_mvl/mxv
	.byte	W02
	.byte	PEND
	.byte	W09
	.byte		VOL   , 71*seq_054_mvl/mxv
	.byte	W11
	.byte		        45*seq_054_mvl/mxv
	.byte	W10
	.byte		        105*seq_054_mvl/mxv
	.byte	W06
	.byte		N06   , Dn3 , v080
	.byte	W06
	.byte		        En3 
	.byte	W06
	.byte		N18   , Fs3 
	.byte	W18
	.byte		        En3 
	.byte	W18
	.byte		N12   , Fs3 
	.byte	W12
	.byte	PEND
	.byte		N18   , An3 , v080
	.byte	W18
	.byte		        En3 
	.byte	W18
	.byte		TIE   , Cs3 
	.byte	W23
	.byte		VOL   , 103*seq_054_mvl/mxv
	.byte	W11
	.byte		        98*seq_054_mvl/mxv
	.byte	W11
	.byte		        91*seq_054_mvl/mxv
	.byte	W12
	.byte		        81*seq_054_mvl/mxv
	.byte	W03
	.byte	PEND
	.byte	W08
	.byte		VOL   , 68*seq_054_mvl/mxv
	.byte	W11
	.byte		        52*seq_054_mvl/mxv
	.byte	W11
	.byte		        33*seq_054_mvl/mxv
	.byte	W12
	.byte		        11*seq_054_mvl/mxv
	.byte	W06
	.byte	PEND
	.byte		EOT   , Cs3 
	.byte	W48
	.byte		VOL   , 105*seq_054_mvl/mxv
	.byte		N18   , En3 , v080
	.byte	W18
	.byte		N06   , Bn2 
	.byte	W18
	.byte		N11   , Gs2 
	.byte	W12
	.byte		N78   , En3 
	.byte	W32
	.byte	W03
	.byte		VOL   , 100*seq_054_mvl/mxv
	.byte	W11
	.byte		        89*seq_054_mvl/mxv
	.byte	W02
	.byte	PEND
	.byte	W09
	.byte		VOL   , 71*seq_054_mvl/mxv
	.byte	W11
	.byte		        45*seq_054_mvl/mxv
	.byte	W10
	.byte		        105*seq_054_mvl/mxv
	.byte	W06
	.byte		N06   , Gs2 , v080
	.byte	W06
	.byte		        Bn2 
	.byte	W06
	.byte		N12   , En3 
	.byte	W12
	.byte		        Bn2 
	.byte	W12
	.byte		        En3 
	.byte	W12
	.byte		        Gs3 
	.byte	W12
	.byte	PEND
	.byte		N48   , An3 , v080
	.byte	W48
	.byte		        Bn3 
	.byte	W48
	.byte	PEND
	.byte		N18   , Cn4 , v080
	.byte	W18
	.byte		N06   , An3 
	.byte	W18
	.byte		N36   , Cs4 
	.byte	W60
	.byte	PEND
	.byte		N17   , An3 , v080
	.byte	W18
	.byte		N06   , Fs3 
	.byte	W18
	.byte		N11   , An3 
	.byte	W12
	.byte		N17   , Dn4 
	.byte	W18
	.byte		        Bn3 
	.byte	W18
	.byte		N11   , Dn4 
	.byte	W12
	.byte	PEND
	.byte		N17   , Cs4 , v080
	.byte	W18
	.byte		N06   , En3 
	.byte	W18
	.byte		N11   , An3 
	.byte	W12
	.byte		N17   , Cs4 
	.byte	W18
	.byte		        An3 
	.byte	W18
	.byte		N11   , En3 
	.byte	W12
	.byte	PEND
	.byte		N17   , Fs3 , v080
	.byte	W18
	.byte		N06   , Dn3 
	.byte	W18
	.byte		N10   , Fs3 
	.byte	W12
	.byte		N17   , Bn3 
	.byte	W18
	.byte		        Gs3 
	.byte	W18
	.byte		N11   , Bn3 
	.byte	W12
	.byte	PEND
	.byte		N18   , En3 , v080
	.byte	W24
	.byte		        Fs3 
	.byte	W24
	.byte		N17   , Gn3 
	.byte	W18
	.byte		N30   , Gs3 
	.byte	W30
	.byte	PEND
	.byte	PATT
	 .word	seq_054_6 + 0xB3
	.byte		N18   , Cs4 , v080
	.byte	W18
	.byte		N06   , Bn3 
	.byte	W18
	.byte		N36   , As3 
	.byte	W36
	.byte		N24   , Fs3 
	.byte	W24
	.byte	PEND
	.byte		N84   , An3 , v080
	.byte	W84
	.byte		N03   , Gs3 
	.byte	W03
	.byte		        Gn3 
	.byte	W03
	.byte		        Fs3 
	.byte	W03
	.byte		        Fn3 
	.byte	W03
	.byte	PEND
	.byte		N48   , En3 
	.byte	W48
	.byte		N18   , Gs3 
	.byte	W18
	.byte		N18
	.byte	W18
	.byte		N12   , An3 
	.byte	W12
	.byte		N84   , Bn3 
	.byte	W84
	.byte		N06   , En4 
	.byte	W06
	.byte		N06
	.byte	W06
	.byte	W96
	.byte	W96
	.byte	W96
	.byte	W96
	.byte	W96
	.byte	W96
	.byte	W96
	.byte	W96
	.byte	W96
	.byte	W96
	.byte	W96
	.byte	W96
	.byte	W96
	.byte	W96
	.byte	W96
	.byte	W96
	.byte	PATT
	 .word	seq_054_6 + 0x20
	.byte	PATT
	 .word	seq_054_6 + 0x2A
	.byte	PATT
	 .word	seq_054_6 + 0x3B
	.byte	PATT
	 .word	seq_054_6 + 0x52
	.byte	PATT
	 .word	seq_054_6 + 0x65
	.byte		EOT   , Cs3 
	.byte	W48
	.byte	PATT
	 .word	seq_054_6 + 0x73
	.byte	PATT
	 .word	seq_054_6 + 0x89
	.byte	PATT
	 .word	seq_054_6 + 0xA1
	.byte	PATT
	 .word	seq_054_6 + 0xA8
	.byte	PATT
	 .word	seq_054_6 + 0xB3
	.byte	PATT
	 .word	seq_054_6 + 0xC6
	.byte	PATT
	 .word	seq_054_6 + 0xD9
	.byte	PATT
	 .word	seq_054_6 + 0xEC
	.byte	PATT
	 .word	seq_054_6 + 0xB3
	.byte	PATT
	 .word	seq_054_6 + 0xFE
	.byte	PATT
	 .word	seq_054_6 + 0x10C
	.byte		N72   , En3 , v080
	.byte	W72
	.byte		N36   , Fs3 
	.byte	W24
	.byte	W12
	.byte		N84   , Gn3 
	.byte	W84
	.byte	W24
	.byte		N21
	.byte	W24
	.byte		N18   , Bn3 
	.byte	W18
	.byte		        As3 
	.byte	W18
	.byte		N12   , Bn3 
	.byte	W12
	.byte		N96
	.byte	W96
	.byte		        Gs3 
	.byte	W96
	.byte		N84   , Fs4 , v068
	.byte	W84
	.byte		N06   , En4 
	.byte	W06
	.byte		        Fs4 
	.byte	W06
	.byte		N96   , Gs4 
	.byte	W96
	.byte		TIE   , En4 , v080
	.byte	W96
	.byte	W11
	.byte		VOL   , 103*seq_054_mvl/mxv
	.byte	W11
	.byte		        98*seq_054_mvl/mxv
	.byte	W11
	.byte		        92*seq_054_mvl/mxv
	.byte	W11
	.byte		        82*seq_054_mvl/mxv
	.byte	W11
	.byte		        69*seq_054_mvl/mxv
	.byte	W11
	.byte		        54*seq_054_mvl/mxv
	.byte	W11
	.byte		        36*seq_054_mvl/mxv
	.byte	W11
	.byte		        14*seq_054_mvl/mxv
	.byte	W08
	.byte		EOT
	.byte		VOL   , 0*seq_054_mvl/mxv
	.byte	W96
	.byte		        81*seq_054_mvl/mxv
	.byte	W96
	.byte	W96
	.byte	W96
	.byte	W96
	.byte	W96
	.byte	W96
	.byte	W96
	.byte	W96
	.byte	W96
	.byte	W96
	.byte	W96
	.byte	W96
	.byte	W96
	.byte	W96
	.byte	W96
	.byte	W96
	.byte		VOICE , 125
	.byte	W96
	.byte	W96
	.byte	W96
	.byte	W96
	.byte	W96
	.byte	W96
	.byte	W96
	.byte	W96
	.byte		PAN   , c_v-64
	.byte	W96
	.byte		TIE   , Gn4 , v072
	.byte	W96
	.byte	W96
	.byte		EOT
	.byte		N72   , En4 
	.byte	W72
	.byte		N04
	.byte	W04
	.byte		        Fs4 
	.byte	W04
	.byte		        Gs4 
	.byte	W04
	.byte		        An4 
	.byte	W04
	.byte		        Bn4 
	.byte	W04
	.byte		        Cn5 
	.byte	W04
	.byte		N72   , Cs5 
	.byte	W72
	.byte		N05   , En5 
	.byte	W06
	.byte		N05
	.byte	W18
	.byte	W96
	.byte	W96
	.byte	W96
	.byte	W96
	.byte	W96
	.byte	W96
	.byte		VOICE , 122
	.byte	W96
	.byte		VOL   , 72*seq_054_mvl/mxv
	.byte	W96
	.byte	W12
	.byte		N05   , Cs4 , v052
	.byte	W24
	.byte		N05
	.byte	W12
	.byte		N05
	.byte	W06
	.byte		N05
	.byte	W12
	.byte		N06
	.byte	W12
	.byte		N18
	.byte	W18
	.byte	PEND
	.byte	W12
	.byte		N05   , Dn4 , v052
	.byte	W24
	.byte		N05
	.byte	W12
	.byte		N05
	.byte	W06
	.byte		N05
	.byte	W12
	.byte		N05
	.byte	W13
	.byte		N05
	.byte	W12
	.byte		N05
	.byte	W05
	.byte	PEND
	.byte	PATT
	 .word	seq_054_6 + 0x217
	.byte	W12
	.byte		N05   , En4 , v052
	.byte	W24
	.byte		N05
	.byte	W12
	.byte		N05
	.byte	W06
	.byte		N05
	.byte	W12
	.byte		N05
	.byte	W12
	.byte		N05
	.byte	W12
	.byte		N05
	.byte	W06
	.byte	PEND
	.byte	PATT
	 .word	seq_054_6 + 0x217
	.byte	PATT
	 .word	seq_054_6 + 0x227
	.byte	PATT
	 .word	seq_054_6 + 0x217
	.byte	PATT
	 .word	seq_054_6 + 0x23E
	.byte	PATT
	 .word	seq_054_6 + 0x217
	.byte	PATT
	 .word	seq_054_6 + 0x227
	.byte	PATT
	 .word	seq_054_6 + 0x217
	.byte	PATT
	 .word	seq_054_6 + 0x23E
	.byte	PATT
	 .word	seq_054_6 + 0x217
	.byte	PATT
	 .word	seq_054_6 + 0x227
	.byte	PATT
	 .word	seq_054_6 + 0x217
	.byte	W12
	.byte		N05   , Dn4 , v052
	.byte	W24
	.byte		N05
	.byte	W12
	.byte		N05
	.byte	W06
	.byte		N05
	.byte	W12
	.byte		N05
	.byte	W12
	.byte		N05
	.byte	W12
	.byte		N05
	.byte	W06
	.byte	PATT
	 .word	seq_054_6 + 0x217
	.byte	PATT
	 .word	seq_054_6 + 0x227
	.byte	GOTO
	 .word	seq_054_6 + 0x282
	.byte	FINE

@*********************** Track 08 ***********************@

seq_054_7:
	.byte	KEYSH , seq_054_key+0
	.byte		VOICE , 127
	.byte		VOL   , 99*seq_054_mvl/mxv
	.byte		N12   , Cn1 , v116
	.byte		N22   , As1 , v056
	.byte	W24
	.byte		N12   , Cn1 , v116
	.byte		N22   , As1 , v056
	.byte	W24
	.byte		N12   , Cn1 , v116
	.byte		N22   , As1 , v056
	.byte	W24
	.byte		N01   , FsM1, v088
	.byte		N22   , As1 , v056
	.byte		N02   , As3 , v052
	.byte	W01
	.byte		N05   , FsM1, v127
	.byte	W05
	.byte		N06
	.byte		N02   , As3 , v036
	.byte	W06
	.byte		N06   , Cn1 , v116
	.byte		N02   , As3 , v044
	.byte	W06
	.byte		N06   , FsM1, v127
	.byte		N02   , As3 , v040
	.byte	W06
	.byte		N12   , Cn1 , v116
	.byte		N48   , An2 , v127
	.byte		N02   , As3 , v052
	.byte	W12
	.byte		        As3 , v036
	.byte	W06
	.byte		N02
	.byte	W06
	.byte		N12   , FsM1, v127
	.byte		N22   , As1 , v056
	.byte		N02   , As3 , v052
	.byte	W12
	.byte		N12   , Cn1 , v116
	.byte		N02   , As3 , v036
	.byte	W06
	.byte		N02
	.byte	W06
	.byte		N22   , As1 , v056
	.byte		N02   , As3 , v052
	.byte	W12
	.byte		N12   , Cn1 , v116
	.byte		N02   , As3 , v036
	.byte	W06
	.byte		N02
	.byte	W06
	.byte		N12   , FsM1, v127
	.byte		N22   , As1 , v056
	.byte		N02   , As3 , v052
	.byte	W06
	.byte		        As3 , v036
	.byte	W06
	.byte		N12   , Cn1 , v116
	.byte		N02   , As3 , v044
	.byte	W06
	.byte		        As3 , v040
	.byte	W06
	.byte	PEND
	.byte		N12   , Cn1 , v116
	.byte		N22   , As1 , v056
	.byte		N02   , As3 , v052
	.byte	W12
	.byte		        As3 , v036
	.byte	W06
	.byte		N06   , Cn1 , v116
	.byte		N02   , As3 , v036
	.byte	W06
	.byte		N12   , FsM1, v127
	.byte		N22   , As1 , v056
	.byte		N02   , As3 , v052
	.byte	W12
	.byte		N12   , Cn1 , v116
	.byte		N02   , As3 , v036
	.byte	W06
	.byte		N02
	.byte	W06
	.byte		N22   , As1 , v056
	.byte		N02   , As3 , v052
	.byte	W06
	.byte		N12   , Cn1 , v116
	.byte	W06
	.byte		N02   , As3 , v036
	.byte	W06
	.byte		N06   , Cn1 , v116
	.byte		N02   , As3 , v036
	.byte	W06
	.byte		N01   , FsM1, v088
	.byte		N22   , As1 , v056
	.byte		N02   , As3 , v052
	.byte	W01
	.byte		N05   , FsM1, v124
	.byte	W05
	.byte		N06   , FsM1, v127
	.byte		N02   , As3 , v036
	.byte	W06
	.byte		N12   , Cn1 , v116
	.byte		N02   , As3 , v044
	.byte	W06
	.byte		        As3 , v040
	.byte	W06
	.byte	PEND
	.byte		N12   , Cn1 , v116
	.byte		N48   , Cs2 , v127
	.byte		N02   , As3 , v052
	.byte	W12
	.byte		        As3 , v036
	.byte	W06
	.byte		N06   , Cn1 , v116
	.byte		N02   , As3 , v036
	.byte	W06
	.byte		N12   , FsM1, v127
	.byte		N22   , As1 , v056
	.byte		N02   , As3 , v052
	.byte	W12
	.byte		N12   , Cn1 , v116
	.byte		N02   , As3 , v036
	.byte	W06
	.byte		N02
	.byte	W06
	.byte		N16   , As1 , v056
	.byte		N02   , As3 , v052
	.byte	W06
	.byte		N12   , FsM1, v127
	.byte	W06
	.byte		N02   , As3 , v036
	.byte	W06
	.byte		N06   , Cn1 , v116
	.byte		N22   , As1 , v056
	.byte		N02   , As3 , v036
	.byte	W06
	.byte		N01   , FsM1, v088
	.byte		N02   , As3 , v052
	.byte	W01
	.byte		N05   , FsM1, v124
	.byte	W05
	.byte		N06   , FsM1, v127
	.byte		N02   , As3 , v036
	.byte	W06
	.byte		N06   , Cn1 , v116
	.byte		N02   , As3 , v044
	.byte	W06
	.byte		N06   , FsM1, v127
	.byte		N02   , As3 , v040
	.byte	W06
	.byte		N12   , Cn1 , v116
	.byte		N22   , As1 , v056
	.byte		N02   , As3 , v052
	.byte	W12
	.byte		N12   , FsM1, v127
	.byte		N02   , As3 , v036
	.byte	W06
	.byte		N02
	.byte	W06
	.byte		N12   , FsM1, v127
	.byte		N22   , As1 , v056
	.byte		N02   , As3 , v052
	.byte	W12
	.byte		N06   , Cn1 , v116
	.byte		N02   , As3 , v036
	.byte	W06
	.byte		N06   , FsM1, v127
	.byte		N02   , As3 , v036
	.byte	W06
	.byte		N22   , As1 , v056
	.byte		N02   , As3 , v052
	.byte	W06
	.byte		N12   , FsM1, v127
	.byte	W06
	.byte		N02   , As3 , v036
	.byte	W06
	.byte		N06   , Cn1 , v116
	.byte		N02   , As3 , v036
	.byte	W06
	.byte		N01   , FsM1, v088
	.byte		N22   , As1 , v056
	.byte		N02   , As3 , v052
	.byte	W01
	.byte		N05   , FsM1, v127
	.byte	W05
	.byte		N06   , Cn1 , v124
	.byte		N02   , As3 , v036
	.byte	W06
	.byte		N06   , FsM1, v127
	.byte		N02   , As3 , v044
	.byte	W06
	.byte		N06   , FsM1, v127
	.byte		N02   , As3 , v040
	.byte	W06
	.byte	PATT
	 .word	seq_054_7 + 0x3C
	.byte		N12   , Cn1 , v116
	.byte		N22   , As1 , v056
	.byte		N02   , As3 , v052
	.byte	W12
	.byte		        As3 , v036
	.byte	W06
	.byte		N06   , Cn1 , v116
	.byte		N02   , As3 , v036
	.byte	W06
	.byte		N12   , FsM1, v127
	.byte		N22   , As1 , v056
	.byte		N02   , As3 , v052
	.byte	W12
	.byte		N12   , Cn1 , v116
	.byte		N02   , As3 , v036
	.byte	W06
	.byte		N02
	.byte	W06
	.byte		N22   , As1 , v056
	.byte		N02   , As3 , v052
	.byte	W06
	.byte		N12   , Cn1 , v116
	.byte	W06
	.byte		N02   , As3 , v036
	.byte	W06
	.byte		N06   , Cn1 , v116
	.byte		N02   , As3 , v036
	.byte	W06
	.byte		N01   , FsM1, v088
	.byte		N22   , As1 , v056
	.byte		N02   , As3 , v052
	.byte	W01
	.byte		N05   , FsM1, v127
	.byte	W05
	.byte		N06
	.byte		N02   , As3 , v036
	.byte	W06
	.byte		N12   , Cn1 , v116
	.byte		N02   , As3 , v044
	.byte	W06
	.byte		        As3 , v040
	.byte	W06
	.byte	PEND
	.byte		N12   , Cn1 , v116
	.byte		N22   , As1 , v056
	.byte		N02   , As3 , v052
	.byte	W12
	.byte		        As3 , v036
	.byte	W06
	.byte		N06   , Cn1 , v116
	.byte		N02   , As3 , v036
	.byte	W06
	.byte		N12   , FsM1, v127
	.byte		N22   , As1 , v056
	.byte		N02   , As3 , v052
	.byte	W12
	.byte		N12   , Cn1 , v116
	.byte		N02   , As3 , v036
	.byte	W06
	.byte		N02
	.byte	W06
	.byte		N22   , As1 , v056
	.byte		N02   , As3 , v052
	.byte	W06
	.byte		N12   , FsM1, v127
	.byte	W06
	.byte		N02   , As3 , v036
	.byte	W06
	.byte		N06   , Cn1 , v116
	.byte		N02   , As3 , v036
	.byte	W06
	.byte		N01   , FsM1, v088
	.byte		N22   , As1 , v056
	.byte		N02   , As3 , v052
	.byte	W01
	.byte		N11   , FsM1, v124
	.byte	W05
	.byte		N02   , As3 , v036
	.byte	W06
	.byte		N06   , Cn1 , v124
	.byte		N02   , As3 , v044
	.byte	W06
	.byte		N06   , FsM1, v127
	.byte		N02   , As3 , v040
	.byte	W06
	.byte		N12   , Cn1 , v116
	.byte		N24   , An2 , v127
	.byte		N02   , As3 , v052
	.byte	W12
	.byte		N12   , Fn1 , v056
	.byte		N02   , As3 , v036
	.byte	W06
	.byte		N02
	.byte	W06
	.byte		N12   , Fn1 , v060
	.byte		N12   , Cn2 
	.byte		N02   , As3 , v052
	.byte	W12
	.byte		N12   , Fn1 , v064
	.byte		N12   , Cn2 
	.byte		N02   , As3 , v036
	.byte	W06
	.byte		N02
	.byte	W06
	.byte		N12   , FsM1, v127
	.byte		N12   , Cn2 , v076
	.byte		N02   , As3 , v052
	.byte	W12
	.byte		N12   , Cn1 , v116
	.byte		N12   , Cn2 , v080
	.byte		N02   , As3 , v036
	.byte	W06
	.byte		N02
	.byte	W06
	.byte		N01   , FsM1, v100
	.byte		N24   , An2 , v127
	.byte		N02   , As3 , v052
	.byte	W01
	.byte		N05   , FsM1, v127
	.byte	W05
	.byte		N06   , Cn1 , v124
	.byte		N02   , As3 , v036
	.byte	W06
	.byte		N06   , FsM1, v127
	.byte		N02   , As3 , v044
	.byte	W06
	.byte		N06   , FsM1, v127
	.byte		N02   , As3 , v040
	.byte	W06
	.byte	PEND
	.byte		N24   , Cs2 , v127
	.byte		N02   , As3 , v052
	.byte	W12
	.byte		        As3 , v036
	.byte	W06
	.byte		N02
	.byte	W06
	.byte		N12   , FsM1, v127
	.byte		N02   , As3 , v052
	.byte	W12
	.byte		N12   , Cn1 , v116
	.byte		N02   , As3 , v036
	.byte	W06
	.byte		N02
	.byte	W06
	.byte		        As3 , v052
	.byte	W12
	.byte		N12   , Cn1 , v116
	.byte		N02   , As3 , v036
	.byte	W06
	.byte		N02
	.byte	W06
	.byte		N12   , FsM1, v127
	.byte		N02   , As3 , v052
	.byte	W06
	.byte		        As3 , v036
	.byte	W06
	.byte		        As3 , v044
	.byte	W06
	.byte		        As3 , v040
	.byte	W06
	.byte	PEND
	.byte		N12   , Cn1 , v116
	.byte		N02   , As3 , v052
	.byte	W12
	.byte		        As3 , v036
	.byte	W06
	.byte		N06   , Cn1 , v116
	.byte		N02   , As3 , v036
	.byte	W06
	.byte		N12   , FsM1, v127
	.byte		N02   , As3 , v052
	.byte	W12
	.byte		N12   , Cn1 , v116
	.byte		N02   , As3 , v036
	.byte	W06
	.byte		N02
	.byte	W06
	.byte		        As3 , v052
	.byte	W12
	.byte		N12   , Cn1 , v116
	.byte		N02   , As3 , v036
	.byte	W06
	.byte		N02
	.byte	W06
	.byte		N06   , FsM1, v127
	.byte		N02   , As3 , v052
	.byte	W06
	.byte		N12   , FsM1, v127
	.byte		N02   , As3 , v036
	.byte	W06
	.byte		        As3 , v044
	.byte	W06
	.byte		        As3 , v040
	.byte	W06
	.byte	PEND
	.byte		N12   , Cn1 , v116
	.byte		N02   , As3 , v052
	.byte	W12
	.byte		        As3 , v036
	.byte	W06
	.byte		N02
	.byte	W06
	.byte		N12   , FsM1, v127
	.byte		N02   , As3 , v052
	.byte	W12
	.byte		N12   , Cn1 , v116
	.byte		N02   , As3 , v036
	.byte	W06
	.byte		N02
	.byte	W06
	.byte		        As3 , v052
	.byte	W12
	.byte		N12   , Cn1 , v116
	.byte		N02   , As3 , v036
	.byte	W06
	.byte		N02
	.byte	W06
	.byte		N12   , FsM1, v127
	.byte		N02   , As3 , v052
	.byte	W06
	.byte		        As3 , v036
	.byte	W06
	.byte		        As3 , v044
	.byte	W06
	.byte		        As3 , v040
	.byte	W06
	.byte	PEND
	.byte		N12   , Cn1 , v116
	.byte		N02   , As3 , v052
	.byte	W12
	.byte		        As3 , v036
	.byte	W06
	.byte		N06   , Cn1 , v116
	.byte		N02   , As3 , v036
	.byte	W06
	.byte		N12   , FsM1, v127
	.byte		N02   , As3 , v052
	.byte	W12
	.byte		N12   , Cn1 , v116
	.byte		N02   , As3 , v036
	.byte	W06
	.byte		N02
	.byte	W06
	.byte		N06   , Cn1 , v116
	.byte		N02   , As3 , v052
	.byte	W06
	.byte		N06   , FsM1, v127
	.byte	W06
	.byte		N12   , Cn1 , v116
	.byte		N02   , As3 , v036
	.byte	W06
	.byte		N02
	.byte	W06
	.byte		N12   , FsM1, v127
	.byte		N02   , As3 , v052
	.byte	W06
	.byte		        As3 , v036
	.byte	W06
	.byte		N06   , Cn1 , v116
	.byte		N02   , As3 , v044
	.byte	W06
	.byte		N06   , FsM1, v127
	.byte		N02   , As3 , v040
	.byte	W06
	.byte	PEND
	.byte	PATT
	 .word	seq_054_7 + 0x340
	.byte	PATT
	 .word	seq_054_7 + 0x2FE
	.byte	PATT
	 .word	seq_054_7 + 0x340
	.byte		N12   , Cn1 , v116
	.byte		N02   , As3 , v052
	.byte	W12
	.byte		        As3 , v036
	.byte	W06
	.byte		N06   , Cn1 , v116
	.byte		N02   , As3 , v036
	.byte	W06
	.byte		N12   , FsM1, v127
	.byte		N02   , As3 , v052
	.byte	W12
	.byte		N12   , Cn1 , v116
	.byte		N02   , As3 , v036
	.byte	W06
	.byte		N02
	.byte	W06
	.byte		N06   , Cn1 , v116
	.byte		N02   , As3 , v052
	.byte	W06
	.byte		N06   , FsM1, v127
	.byte	W06
	.byte		N12
	.byte		N02   , As3 , v036
	.byte	W06
	.byte		N02
	.byte	W06
	.byte		N06   , Cn2 , v116
	.byte		N02   , As3 , v052
	.byte	W06
	.byte		N06   , An1 , v116
	.byte		N02   , As3 , v036
	.byte	W06
	.byte		N06   , Fn1 , v116
	.byte		N02   , As3 , v044
	.byte	W06
	.byte		N06   , Cn1 , v116
	.byte		N02   , As3 , v040
	.byte	W06
	.byte	PEND
	.byte		N24   , An2 , v120
	.byte		N02   , As3 , v052
	.byte	W12
	.byte		        As3 , v036
	.byte	W06
	.byte		N02
	.byte	W06
	.byte		N12   , FsM1, v127
	.byte		N02   , As3 , v052
	.byte	W12
	.byte		N12   , Cn1 , v116
	.byte		N02   , As3 , v036
	.byte	W06
	.byte		N02
	.byte	W06
	.byte		        As3 , v052
	.byte	W12
	.byte		N12   , Cn1 , v116
	.byte		N02   , As3 , v036
	.byte	W06
	.byte		N02
	.byte	W06
	.byte		N12   , FsM1, v127
	.byte		N02   , As3 , v052
	.byte	W06
	.byte		        As3 , v036
	.byte	W06
	.byte		        As3 , v044
	.byte	W06
	.byte		        As3 , v040
	.byte	W06
	.byte	PEND
	.byte	PATT
	 .word	seq_054_7 + 0x2FE
	.byte	PATT
	 .word	seq_054_7 + 0x340
	.byte	PATT
	 .word	seq_054_7 + 0x379
	.byte	PATT
	 .word	seq_054_7 + 0x340
	.byte	PATT
	 .word	seq_054_7 + 0x2FE
	.byte		N12   , Cn1 , v116
	.byte		N02   , As3 , v052
	.byte	W12
	.byte		        As3 , v036
	.byte	W06
	.byte		N02
	.byte	W06
	.byte		N12   , FsM1, v127
	.byte		N02   , As3 , v052
	.byte	W12
	.byte		N12   , Cn1 , v116
	.byte		N02   , As3 , v036
	.byte	W06
	.byte		N02
	.byte	W06
	.byte		        As3 , v052
	.byte	W12
	.byte		N12   , Cn1 , v116
	.byte		N02   , As3 , v036
	.byte	W06
	.byte		N02
	.byte	W06
	.byte		N12   , FsM1, v127
	.byte		N02   , As3 , v052
	.byte	W06
	.byte		        As3 , v036
	.byte	W06
	.byte		        As3 , v044
	.byte	W06
	.byte		N06   , FsM1, v127
	.byte		N02   , As3 , v040
	.byte	W06
	.byte	PEND
	.byte		N06   , FsM1, v127
	.byte		N02   , As3 , v052
	.byte	W06
	.byte		N12   , FsM1, v127
	.byte	W06
	.byte		N02   , As3 , v036
	.byte	W06
	.byte		N06   , Cn1 , v116
	.byte		N02   , As3 , v036
	.byte	W06
	.byte		N01   , FsM1, v100
	.byte		N02   , As3 , v052
	.byte	W01
	.byte		N05   , FsM1, v127
	.byte	W05
	.byte		N06   , Cn1 , v116
	.byte	W06
	.byte		        FsM1, v127
	.byte		N02   , As3 , v036
	.byte	W06
	.byte		N06   , FsM1, v127
	.byte		N02   , As3 , v036
	.byte	W06
	.byte		N06   , Cn1 , v116
	.byte		N02   , As3 , v052
	.byte	W06
	.byte		N06   , Cn2 , v116
	.byte	W06
	.byte		        FsM1, v127
	.byte		N02   , As3 , v036
	.byte	W06
	.byte		N06   , Fn1 , v116
	.byte		N02   , As3 , v036
	.byte	W06
	.byte		N01   , FsM1, v100
	.byte		N02   , As3 , v052
	.byte	W01
	.byte		N05   , FsM1, v127
	.byte	W05
	.byte		N06
	.byte		N02   , As3 , v036
	.byte	W06
	.byte		N06   , An1 , v116
	.byte		N02   , As3 , v044
	.byte	W06
	.byte		N06   , Bn0 , v116
	.byte		N02   , As3 , v040
	.byte	W06
	.byte	PEND
	.byte	PATT
	 .word	seq_054_7 + 0x426
	.byte	PATT
	 .word	seq_054_7 + 0x2FE
	.byte	PATT
	 .word	seq_054_7 + 0x340
	.byte		N12   , Cn1 , v116
	.byte		N02   , As3 , v052
	.byte	W12
	.byte		        As3 , v036
	.byte	W06
	.byte		N06   , Cn1 , v116
	.byte		N02   , As3 , v036
	.byte	W06
	.byte		N12   , FsM1, v127
	.byte		N02   , As3 , v052
	.byte	W12
	.byte		N12   , Cn1 , v116
	.byte		N02   , As3 , v036
	.byte	W06
	.byte		N02
	.byte	W06
	.byte		N06   , Cn2 , v116
	.byte		N02   , As3 , v052
	.byte	W06
	.byte		N12   , FsM1, v127
	.byte	W06
	.byte		N02   , As3 , v036
	.byte	W06
	.byte		N06   , An1 , v116
	.byte		N02   , As3 , v036
	.byte	W06
	.byte		N06   , FsM1, v127
	.byte		N02   , As3 , v052
	.byte		N05   , Bn3 , v080
	.byte	W06
	.byte		N06   , Cn1 , v116
	.byte		N02   , As3 , v036
	.byte		N06   , Bn3 , v080
	.byte	W06
	.byte		        Fn1 , v116
	.byte		N02   , As3 , v044
	.byte	W06
	.byte		N06   , FsM1, v127
	.byte		N02   , As3 , v040
	.byte		N06   , Bn3 , v080
	.byte	W06
	.byte	PEND
	.byte		N12   , Cn1 , v116
	.byte		N02   , As3 , v052
	.byte		N18   , Cn4 , v080
	.byte	W12
	.byte		N02   , As3 , v036
	.byte	W06
	.byte		N02
	.byte	W06
	.byte		N12   , FsM1, v127
	.byte		N02   , As3 , v052
	.byte	W12
	.byte		N12   , Cn1 , v116
	.byte		N02   , As3 , v036
	.byte	W06
	.byte		N02
	.byte	W06
	.byte		        As3 , v052
	.byte	W12
	.byte		N12   , Cn1 , v116
	.byte		N02   , As3 , v036
	.byte	W06
	.byte		N02
	.byte	W06
	.byte		N12   , FsM1, v127
	.byte		N02   , As3 , v052
	.byte	W06
	.byte		        As3 , v036
	.byte	W06
	.byte		        As3 , v044
	.byte	W06
	.byte		        As3 , v040
	.byte	W06
	.byte	PEND
	.byte	PATT
	 .word	seq_054_7 + 0x2FE
	.byte		N24   , An2 , v120
	.byte		N02   , As3 , v052
	.byte	W12
	.byte		        As3 , v036
	.byte	W06
	.byte		N02
	.byte	W06
	.byte		N16   , FsM1, v127
	.byte		N02   , As3 , v052
	.byte	W12
	.byte		        As3 , v036
	.byte	W06
	.byte		N02
	.byte	W06
	.byte		N24   , An2 , v120
	.byte		N02   , As3 , v052
	.byte	W12
	.byte		        As3 , v036
	.byte	W06
	.byte		N02
	.byte	W06
	.byte		N16   , FsM1, v127
	.byte		N02   , As3 , v052
	.byte	W06
	.byte		        As3 , v036
	.byte	W06
	.byte		        As3 , v044
	.byte	W06
	.byte		        As3 , v040
	.byte	W06
	.byte	PEND
	.byte		N24   , An2 , v120
	.byte		N02   , As3 , v052
	.byte	W12
	.byte		        As3 , v036
	.byte	W06
	.byte		N02
	.byte	W06
	.byte		N12   , FsM1, v127
	.byte		N02   , As3 , v052
	.byte	W12
	.byte		N06   , Cn1 , v116
	.byte		N02   , As3 , v036
	.byte	W06
	.byte		N06   , FsM1, v127
	.byte		N02   , As3 , v036
	.byte	W06
	.byte		N06   , Cn1 , v116
	.byte		N02   , As3 , v052
	.byte	W06
	.byte		N06   , FsM1, v127
	.byte		N15   , Fn3 
	.byte	W06
	.byte		N02   , As3 , v036
	.byte		N36   , Bn3 , v080
	.byte	W06
	.byte		N02   , As3 , v036
	.byte	W04
	.byte		        Fn3 , v104
	.byte	W02
	.byte		N06   , FsM1, v127
	.byte		N06   , Fn3 
	.byte		N02   , As3 , v052
	.byte	W06
	.byte		N06   , Cn2 , v116
	.byte		N06   , Fn3 , v127
	.byte		N02   , As3 , v036
	.byte	W06
	.byte		N06   , An1 , v116
	.byte		N06   , Fn3 , v120
	.byte		N02   , As3 , v044
	.byte	W06
	.byte		N06   , Fn1 , v116
	.byte		N06   , Fn3 , v127
	.byte		N02   , As3 , v040
	.byte	W06
	.byte	PEND
	.byte	PATT
	 .word	seq_054_7 + 0x426
	.byte	PATT
	 .word	seq_054_7 + 0x2FE
	.byte	PATT
	 .word	seq_054_7 + 0x340
	.byte		N12   , Cn1 , v116
	.byte		N02   , As3 , v052
	.byte	W12
	.byte		        As3 , v036
	.byte		N06   , Bn3 , v072
	.byte	W06
	.byte		N02   , As3 , v036
	.byte	W06
	.byte		N12   , FsM1, v127
	.byte		N02   , As3 , v052
	.byte	W06
	.byte		N18   , Bn3 , v072
	.byte	W06
	.byte		N02   , As3 , v036
	.byte	W06
	.byte		N02
	.byte	W06
	.byte		        As3 , v052
	.byte	W12
	.byte		        As3 , v036
	.byte		N06   , Bn3 , v072
	.byte	W06
	.byte		N12   , FsM1, v127
	.byte		N12   , Cn1 , v116
	.byte		N02   , As3 , v036
	.byte	W06
	.byte		        As3 , v052
	.byte	W06
	.byte		N12   , Cn1 , v116
	.byte		N02   , As3 , v036
	.byte		N18   , Bn3 , v072
	.byte	W06
	.byte		N02   , As3 , v044
	.byte	W06
	.byte		N06   , FsM1, v127
	.byte		N02   , As3 , v040
	.byte	W06
	.byte	PEND
	.byte	PATT
	 .word	seq_054_7 + 0x340
	.byte		N12   , Cn1 , v116
	.byte		N24   , An2 
	.byte		N02   , As3 , v052
	.byte	W12
	.byte		        As3 , v036
	.byte	W06
	.byte		N02
	.byte	W06
	.byte		N12   , FsM1, v127
	.byte		N02   , As3 , v052
	.byte	W12
	.byte		N24   , Cs2 , v116
	.byte		N02   , As3 , v036
	.byte	W06
	.byte		N02
	.byte	W06
	.byte		        As3 , v052
	.byte	W12
	.byte		N06   , Cn2 , v116
	.byte		N02   , As3 , v036
	.byte	W06
	.byte		N06   , Fn1 , v116
	.byte		N02   , As3 , v036
	.byte	W04
	.byte		        Fn3 , v104
	.byte	W02
	.byte		N06   , An1 , v116
	.byte		N06   , Fn3 , v127
	.byte		N02   , As3 , v052
	.byte	W06
	.byte		N06   , FsM1, v127
	.byte		N18   , Fn3 
	.byte		N02   , As3 , v036
	.byte	W06
	.byte		        As3 , v044
	.byte	W06
	.byte		N06   , FsM1, v127
	.byte		N02   , As3 , v040
	.byte	W06
	.byte	PEND
	.byte		N24   , An2 , v116
	.byte		N02   , As3 , v052
	.byte	W12
	.byte		        As3 , v036
	.byte	W06
	.byte		N02
	.byte	W06
	.byte		N12   , FsM1, v127
	.byte		N02   , As3 , v052
	.byte	W12
	.byte		N12   , Cn1 , v116
	.byte		N02   , As3 , v036
	.byte	W06
	.byte		N02
	.byte	W06
	.byte		        As3 , v052
	.byte	W12
	.byte		N12   , Cn1 , v116
	.byte		N02   , As3 , v036
	.byte	W06
	.byte		N02
	.byte	W06
	.byte		N12   , FsM1, v127
	.byte		N02   , As3 , v052
	.byte	W06
	.byte		        As3 , v036
	.byte	W06
	.byte		        As3 , v044
	.byte	W06
	.byte		        As3 , v040
	.byte	W06
	.byte	PEND
	.byte		N12   , Cn1 , v116
	.byte		N02   , As3 , v052
	.byte	W12
	.byte		        As3 , v036
	.byte	W06
	.byte		N06   , Cn1 , v116
	.byte		N02   , As3 , v036
	.byte	W06
	.byte		N12   , FsM1, v127
	.byte		N02   , As3 , v052
	.byte	W12
	.byte		N12   , Cn1 , v116
	.byte		N02   , As3 , v036
	.byte	W06
	.byte		N02
	.byte	W06
	.byte		        As3 , v052
	.byte	W12
	.byte		N12   , Cn1 , v116
	.byte		N02   , As3 , v036
	.byte	W06
	.byte		N02
	.byte	W06
	.byte		N06   , FsM1, v127
	.byte		N02   , As3 , v052
	.byte	W06
	.byte		N12   , FsM1, v127
	.byte		N02   , As3 , v036
	.byte	W06
	.byte		        As3 , v044
	.byte	W06
	.byte		N06   , Cn1 , v116
	.byte		N02   , As3 , v040
	.byte	W06
	.byte		N06   , FsM1, v116
	.byte		N02   , As3 , v052
	.byte	W06
	.byte		N12   , FsM1, v116
	.byte	W06
	.byte		N02   , As3 , v036
	.byte	W06
	.byte		N06   , Cn1 , v127
	.byte		N02   , As3 , v036
	.byte	W06
	.byte		N06   , Cn2 , v127
	.byte		N02   , As3 , v052
	.byte	W06
	.byte		N06   , An1 , v127
	.byte	W06
	.byte		        FsM1, v116
	.byte		N02   , As3 , v036
	.byte	W06
	.byte		N12   , FsM1, v116
	.byte		N02   , As3 , v036
	.byte	W06
	.byte		        As3 , v052
	.byte	W06
	.byte		N06   , Cn1 , v127
	.byte	W06
	.byte		        An1 
	.byte		N02   , As3 , v036
	.byte	W06
	.byte		N12   , Fn1 , v127
	.byte		N02   , As3 , v036
	.byte	W06
	.byte		        As3 , v052
	.byte	W06
	.byte		        As3 , v036
	.byte	W06
	.byte		N06   , FsM1, v127
	.byte		N02   , As3 , v044
	.byte	W06
	.byte		N12   , FsM1, v127
	.byte		N02   , As3 , v040
	.byte	W06
	.byte		N12   , Cn1 , v116
	.byte		N22   , As1 , v080
	.byte		N02   , As3 , v052
	.byte	W24
	.byte		N12   , Cn1 , v116
	.byte		N22   , As1 , v080
	.byte	W24
	.byte		N06   , Cn1 , v116
	.byte	W06
	.byte		        Cn2 , v100
	.byte	W06
	.byte		        An1 
	.byte	W06
	.byte		        Fn1 
	.byte	W06
	.byte		N02   , Dn1 , v084
	.byte		N24   , Cs2 , v127
	.byte	W02
	.byte		N10   , Dn1 , v116
	.byte	W10
	.byte		N06
	.byte	W06
	.byte		N06
	.byte	W06
	.byte		N24   , An2 , v127
	.byte		N02   , As3 , v052
	.byte	W12
	.byte		        As3 , v036
	.byte	W06
	.byte		N02
	.byte	W06
	.byte		N12   , FsM1, v127
	.byte		N02   , As3 , v052
	.byte	W12
	.byte		N12   , Cn1 , v116
	.byte		N02   , As3 , v036
	.byte	W06
	.byte		N02
	.byte	W06
	.byte		        As3 , v052
	.byte	W12
	.byte		N12   , Cn1 , v116
	.byte		N02   , As3 , v036
	.byte	W06
	.byte		N02
	.byte	W06
	.byte		N12   , FsM1, v127
	.byte		N02   , As3 , v052
	.byte	W06
	.byte		        As3 , v036
	.byte	W06
	.byte		        As3 , v044
	.byte	W06
	.byte		        As3 , v040
	.byte	W06
	.byte	PATT
	 .word	seq_054_7 + 0x2FE
	.byte	PATT
	 .word	seq_054_7 + 0x340
	.byte	PATT
	 .word	seq_054_7 + 0x379
	.byte	PATT
	 .word	seq_054_7 + 0x340
	.byte	PATT
	 .word	seq_054_7 + 0x2FE
	.byte	PATT
	 .word	seq_054_7 + 0x340
	.byte	PATT
	 .word	seq_054_7 + 0x3D6
	.byte	PATT
	 .word	seq_054_7 + 0x426
	.byte	PATT
	 .word	seq_054_7 + 0x2FE
	.byte	PATT
	 .word	seq_054_7 + 0x340
	.byte	PATT
	 .word	seq_054_7 + 0x379
	.byte	PATT
	 .word	seq_054_7 + 0x340
	.byte	PATT
	 .word	seq_054_7 + 0x2FE
	.byte	PATT
	 .word	seq_054_7 + 0x478
	.byte	PATT
	 .word	seq_054_7 + 0x4B5
	.byte	PATT
	 .word	seq_054_7 + 0x426
	.byte	PATT
	 .word	seq_054_7 + 0x2FE
	.byte	PATT
	 .word	seq_054_7 + 0x340
	.byte	PATT
	 .word	seq_054_7 + 0x52D
	.byte	PATT
	 .word	seq_054_7 + 0x589
	.byte	PATT
	 .word	seq_054_7 + 0x2FE
	.byte	PATT
	 .word	seq_054_7 + 0x5CB
	.byte	PATT
	 .word	seq_054_7 + 0x600
	.byte	PATT
	 .word	seq_054_7 + 0x426
	.byte	PATT
	 .word	seq_054_7 + 0x2FE
	.byte	PATT
	 .word	seq_054_7 + 0x340
	.byte	PATT
	 .word	seq_054_7 + 0x673
	.byte	PATT
	 .word	seq_054_7 + 0x340
	.byte	PATT
	 .word	seq_054_7 + 0x6C6
	.byte	PATT
	 .word	seq_054_7 + 0x716
	.byte	PATT
	 .word	seq_054_7 + 0x2FE
	.byte		N12   , Cn1 , v116
	.byte		N02   , As3 , v052
	.byte	W12
	.byte		        As3 , v036
	.byte	W06
	.byte		N02
	.byte	W06
	.byte		N12   , FsM1, v127
	.byte		N02   , As3 , v052
	.byte	W12
	.byte		N12   , Cn1 , v116
	.byte		N02   , As3 , v036
	.byte	W06
	.byte		N02
	.byte	W06
	.byte		        As3 , v052
	.byte	W12
	.byte		N12   , Cn1 , v116
	.byte		N02   , As3 , v036
	.byte	W06
	.byte		N02
	.byte	W06
	.byte		N06   , FsM1, v127
	.byte		N02   , As3 , v052
	.byte	W06
	.byte		N06   , Cn2 , v116
	.byte		N02   , As3 , v036
	.byte	W06
	.byte		N06   , An1 , v116
	.byte		N02   , As3 , v044
	.byte	W06
	.byte		N06   , Fn1 , v116
	.byte		N02   , As3 , v040
	.byte	W06
	.byte		N06   , FsM1, v127
	.byte		N06   , Cn1 , v116
	.byte		N02   , As3 , v052
	.byte	W06
	.byte		N12   , FsM1, v127
	.byte		N12   , Cn1 , v116
	.byte		N02   , As3 , v036
	.byte	W06
	.byte		N02
	.byte	W12
	.byte		N06   , FsM1, v127
	.byte		N02   , As3 , v052
	.byte	W06
	.byte		        An1 , v116
	.byte	W02
	.byte		N04
	.byte	W04
	.byte		N06   , FsM1, v127
	.byte	W06
	.byte		        Fn1 , v116
	.byte	W06
	.byte		N11   , FsM1, v127
	.byte		N18   , Cs2 , v116
	.byte		N02   , As3 , v052
	.byte	W12
	.byte		N06   , Cn1 , v116
	.byte		N02   , As3 , v036
	.byte	W06
	.byte		N01   , FsM1, v096
	.byte		N18   , An2 , v116
	.byte		N02   , As3 , v036
	.byte	W01
	.byte		N11   , FsM1, v127
	.byte	W05
	.byte		N02   , As3 , v052
	.byte	W06
	.byte		N06   , Cn1 , v116
	.byte		N02   , As3 , v036
	.byte	W06
	.byte		N06   , FsM1, v127
	.byte		N12   , Cs2 , v116
	.byte		N02   , As3 , v044
	.byte	W06
	.byte		N06   , Cn1 , v116
	.byte		N02   , As3 , v040
	.byte	W06
	.byte	PATT
	 .word	seq_054_7 + 0x716
	.byte	PATT
	 .word	seq_054_7 + 0x2FE
	.byte	PATT
	 .word	seq_054_7 + 0x340
	.byte		N12   , Cn1 , v116
	.byte		N02   , As3 , v052
	.byte	W12
	.byte		        As3 , v036
	.byte	W06
	.byte		N06   , Cn1 , v116
	.byte		N02   , As3 , v036
	.byte	W06
	.byte		N12   , FsM1, v127
	.byte		N02   , As3 , v052
	.byte	W12
	.byte		N06   , Cn1 , v116
	.byte		N02   , As3 , v036
	.byte	W06
	.byte		N06   , FsM1, v127
	.byte		N02   , As3 , v036
	.byte	W06
	.byte		N06   , Cn1 , v116
	.byte		N02   , As3 , v052
	.byte	W06
	.byte		N06   , Cn2 , v116
	.byte	W06
	.byte		        Cn1 
	.byte		N02   , As3 , v036
	.byte	W06
	.byte		N06   , Fn1 , v116
	.byte		N02   , As3 , v036
	.byte	W06
	.byte		N01   , FsM1, v096
	.byte		N24   , Cs2 , v116
	.byte		N02   , As3 , v052
	.byte	W01
	.byte		N05   , FsM1, v127
	.byte	W05
	.byte		N06   , An1 , v116
	.byte		N02   , As3 , v036
	.byte	W06
	.byte		N06   , Cn1 , v116
	.byte		N02   , As3 , v044
	.byte	W06
	.byte		N06   , FsM1, v127
	.byte		N02   , As3 , v040
	.byte	W06
	.byte	PATT
	 .word	seq_054_7 + 0x716
	.byte	PATT
	 .word	seq_054_7 + 0x2FE
	.byte	PATT
	 .word	seq_054_7 + 0x340
	.byte		N12   , Cn1 , v116
	.byte		N02   , As3 , v052
	.byte	W12
	.byte		        As3 , v036
	.byte	W06
	.byte		N06   , Cn1 , v116
	.byte		N02   , As3 , v036
	.byte	W06
	.byte		N12   , FsM1, v127
	.byte		N02   , As3 , v052
	.byte	W12
	.byte		N06   , Cn1 , v116
	.byte		N02   , As3 , v036
	.byte	W06
	.byte		N06   , FsM1, v127
	.byte		N02   , As3 , v036
	.byte	W06
	.byte		N06   , Cn1 , v116
	.byte		N02   , As3 , v052
	.byte	W06
	.byte		N06   , FsM1, v127
	.byte	W06
	.byte		N12   , Cn1 , v116
	.byte		N02   , As3 , v036
	.byte	W06
	.byte		N02
	.byte	W06
	.byte		N01   , FsM1, v096
	.byte		N02   , As3 , v052
	.byte	W01
	.byte		N05   , FsM1, v127
	.byte	W05
	.byte		N06
	.byte		N02   , As3 , v036
	.byte	W06
	.byte		N06   , Cn2 , v116
	.byte		N02   , As3 , v044
	.byte	W06
	.byte		N06   , Fn1 , v116
	.byte		N02   , As3 , v040
	.byte	W06
	.byte		N12   , Cn1 , v116
	.byte		N24   , An2 
	.byte		N02   , As3 , v052
	.byte	W12
	.byte		        As3 , v036
	.byte	W06
	.byte		N02
	.byte	W06
	.byte		N12   , FsM1, v127
	.byte		N22   , As1 , v056
	.byte		N02   , As3 , v052
	.byte	W12
	.byte		N12   , Cn1 , v116
	.byte		N02   , As3 , v036
	.byte	W06
	.byte		N02
	.byte	W06
	.byte		N22   , As1 , v056
	.byte		N02   , As3 , v052
	.byte	W12
	.byte		N12   , Cn1 , v116
	.byte		N02   , As3 , v036
	.byte	W06
	.byte		N02
	.byte	W06
	.byte		N12   , FsM1, v127
	.byte		N22   , As1 , v056
	.byte		N02   , As3 , v052
	.byte	W06
	.byte		        As3 , v036
	.byte	W06
	.byte		N12   , Cn1 , v116
	.byte		N02   , As3 , v044
	.byte	W06
	.byte		        As3 , v040
	.byte	W06
	.byte		N12   , Cn1 , v116
	.byte		N22   , As1 , v056
	.byte		N02   , As3 , v052
	.byte	W12
	.byte		        As3 , v036
	.byte	W06
	.byte		N06   , Cn1 , v116
	.byte		N02   , As3 , v036
	.byte	W06
	.byte		N12   , FsM1, v127
	.byte		N22   , As1 , v056
	.byte		N02   , As3 , v052
	.byte	W12
	.byte		N12   , Cn1 , v116
	.byte		N02   , As3 , v036
	.byte	W06
	.byte		N02
	.byte	W06
	.byte		N22   , As1 , v056
	.byte		N02   , As3 , v052
	.byte	W06
	.byte		N12   , Cn1 , v124
	.byte	W06
	.byte		N02   , As3 , v036
	.byte	W06
	.byte		N06   , Cn1 , v116
	.byte		N02   , As3 , v036
	.byte	W06
	.byte		N01   , FsM1, v088
	.byte		N22   , As1 , v056
	.byte		N02   , As3 , v052
	.byte	W01
	.byte		N05   , FsM1, v124
	.byte	W05
	.byte		N06   , FsM1, v127
	.byte		N02   , As3 , v036
	.byte	W06
	.byte		N12   , Cn1 , v116
	.byte		N02   , As3 , v044
	.byte	W06
	.byte		        As3 , v040
	.byte	W06
	.byte		N12   , Cn1 , v116
	.byte		N22   , As1 , v056
	.byte		N02   , As3 , v052
	.byte	W12
	.byte		        As3 , v036
	.byte	W06
	.byte		N06   , Cn1 , v116
	.byte		N02   , As3 , v036
	.byte	W06
	.byte		N12   , FsM1, v127
	.byte		N22   , As1 , v056
	.byte		N02   , As3 , v052
	.byte	W12
	.byte		N12   , Cn1 , v116
	.byte		N02   , As3 , v036
	.byte	W06
	.byte		N02
	.byte	W06
	.byte		N22   , As1 , v056
	.byte		N02   , As3 , v052
	.byte	W06
	.byte		N12   , FsM1, v127
	.byte	W06
	.byte		N02   , As3 , v036
	.byte	W06
	.byte		N06   , Cn1 , v116
	.byte		N02   , As3 , v036
	.byte	W06
	.byte		N01   , FsM1, v088
	.byte		N22   , As1 , v056
	.byte		N02   , As3 , v052
	.byte	W01
	.byte		N05   , FsM1, v124
	.byte	W05
	.byte		N06   , FsM1, v127
	.byte		N02   , As3 , v036
	.byte	W06
	.byte		N06   , Cn1 , v116
	.byte		N02   , As3 , v044
	.byte	W06
	.byte		N06   , FsM1, v127
	.byte		N02   , As3 , v040
	.byte	W06
	.byte	PEND
	.byte		N06   , Cn1 , v116
	.byte		N22   , As1 , v056
	.byte		N02   , As3 , v052
	.byte	W06
	.byte		N06   , Cn1 , v116
	.byte	W06
	.byte		        Cn2 
	.byte		N02   , As3 , v036
	.byte	W06
	.byte		N06   , Cn1 , v116
	.byte		N02   , As3 , v036
	.byte	W06
	.byte		N06   , FsM1, v127
	.byte		N22   , As1 , v056
	.byte		N02   , As3 , v052
	.byte	W06
	.byte		N06   , An1 , v116
	.byte	W06
	.byte		        FsM1, v127
	.byte		N02   , As3 , v036
	.byte	W06
	.byte		N06   , Cn1 , v116
	.byte		N02   , As3 , v036
	.byte	W06
	.byte		N06   , Fn1 , v124
	.byte		N18   , An2 , v116
	.byte		N02   , As3 , v052
	.byte	W06
	.byte		N12   , FsM1, v127
	.byte	W06
	.byte		N02   , As3 , v036
	.byte	W06
	.byte		N06   , Cn1 , v116
	.byte		N30   , Cs2 
	.byte		N02   , As3 , v036
	.byte	W06
	.byte		N01   , FsM1, v088
	.byte		N02   , As3 , v052
	.byte	W01
	.byte		N05   , FsM1, v127
	.byte	W05
	.byte		N06   , Cn1 , v124
	.byte		N02   , As3 , v036
	.byte	W06
	.byte		N06   , FsM1, v127
	.byte		N02   , As3 , v044
	.byte	W06
	.byte		N06   , FsM1, v127
	.byte		N02   , As3 , v040
	.byte	W06
	.byte		N12   , Cn1 , v116
	.byte		N24   , An2 
	.byte		N02   , As3 , v052
	.byte	W12
	.byte		        As3 , v036
	.byte	W06
	.byte		N06   , Cn1 , v116
	.byte		N02   , As3 , v036
	.byte	W06
	.byte		N12   , FsM1, v127
	.byte		N22   , As1 , v056
	.byte		N02   , As3 , v052
	.byte	W12
	.byte		N12   , Cn1 , v116
	.byte		N02   , As3 , v036
	.byte	W06
	.byte		N02
	.byte	W06
	.byte		N22   , As1 , v056
	.byte		N02   , As3 , v052
	.byte	W12
	.byte		N12   , Cn1 , v116
	.byte		N02   , As3 , v036
	.byte	W06
	.byte		N02
	.byte	W06
	.byte		N01   , FsM1, v088
	.byte		N22   , As1 , v056
	.byte		N02   , As3 , v052
	.byte	W01
	.byte		N05   , FsM1, v124
	.byte	W05
	.byte		N06   , FsM1, v127
	.byte		N02   , As3 , v036
	.byte	W06
	.byte		N12   , Cn1 , v116
	.byte		N02   , As3 , v044
	.byte	W06
	.byte		        As3 , v040
	.byte	W06
	.byte		N12   , Cn1 , v116
	.byte		N22   , As1 , v056
	.byte		N02   , As3 , v052
	.byte	W12
	.byte		        As3 , v036
	.byte	W06
	.byte		N06   , Cn1 , v116
	.byte		N02   , As3 , v036
	.byte	W06
	.byte		N12   , FsM1, v127
	.byte		N22   , As1 , v056
	.byte		N02   , As3 , v052
	.byte	W12
	.byte		N12   , Cn1 , v116
	.byte		N02   , As3 , v036
	.byte	W06
	.byte		N02
	.byte	W06
	.byte		N22   , As1 , v056
	.byte		N02   , As3 , v052
	.byte	W06
	.byte		N12   , Cn1 , v116
	.byte	W06
	.byte		N02   , As3 , v036
	.byte	W06
	.byte		N06   , Cn1 , v116
	.byte		N02   , As3 , v036
	.byte	W06
	.byte		N06   , Cn1 , v124
	.byte		N22   , As1 , v056
	.byte		N02   , As3 , v052
	.byte	W06
	.byte		N01   , FsM1, v088
	.byte		N02   , As3 , v036
	.byte	W01
	.byte		N05   , FsM1, v124
	.byte	W05
	.byte		N06   , Cn1 , v116
	.byte		N02   , As3 , v044
	.byte	W06
	.byte		N06   , FsM1, v127
	.byte		N02   , As3 , v040
	.byte	W06
	.byte		N12   , Cn1 , v116
	.byte		N22   , As1 , v056
	.byte		N02   , As3 , v052
	.byte	W12
	.byte		N18   , Fn3 , v120
	.byte		N02   , As3 , v036
	.byte	W06
	.byte		N06   , Cn1 , v116
	.byte		N02   , As3 , v036
	.byte	W06
	.byte		N12   , FsM1, v127
	.byte		N22   , As1 , v056
	.byte		N02   , As3 , v052
	.byte	W06
	.byte		N16   , Fn3 , v120
	.byte	W06
	.byte		N12   , Cn1 , v116
	.byte		N02   , As3 , v036
	.byte	W06
	.byte		N02
	.byte	W04
	.byte		        Fn3 , v092
	.byte	W02
	.byte		N22   , As1 , v056
	.byte		N06   , Fn3 , v120
	.byte		N02   , As3 , v052
	.byte	W06
	.byte		N12   , FsM1, v127
	.byte		N12   , Fn3 , v120
	.byte	W06
	.byte		N02   , As3 , v036
	.byte	W06
	.byte		N06   , Cn1 , v116
	.byte		N12   , Fn3 , v120
	.byte		N02   , As3 , v036
	.byte	W06
	.byte		N06   , FsM1, v124
	.byte		N22   , As1 , v056
	.byte		N02   , As3 , v052
	.byte	W06
	.byte		N01   , Cn2 , v124
	.byte		N12   , Fn3 , v120
	.byte		N02   , As3 , v036
	.byte	W01
	.byte		N05   , Cn2 , v124
	.byte	W05
	.byte		N06   , An1 , v116
	.byte		N02   , As3 , v044
	.byte	W06
	.byte		N06   , Fn1 , v124
	.byte		N18   , Fn3 , v120
	.byte		N02   , As3 , v040
	.byte	W06
	.byte	PATT
	 .word	seq_054_7 + 0x264
	.byte	PATT
	 .word	seq_054_7 + 0x2C5
	.byte	PATT
	 .word	seq_054_7 + 0x2FE
	.byte	PATT
	 .word	seq_054_7 + 0x340
	.byte	PATT
	 .word	seq_054_7 + 0x379
	.byte	PATT
	 .word	seq_054_7 + 0x340
	.byte	PATT
	 .word	seq_054_7 + 0x2FE
	.byte	PATT
	 .word	seq_054_7 + 0x340
	.byte	PATT
	 .word	seq_054_7 + 0x3D6
	.byte	PATT
	 .word	seq_054_7 + 0x426
	.byte	PATT
	 .word	seq_054_7 + 0x2FE
	.byte	PATT
	 .word	seq_054_7 + 0x340
	.byte		N06   , Cn1 , v116
	.byte		N02   , As3 , v052
	.byte	W06
	.byte		N12   , FsM1, v127
	.byte	W06
	.byte		N02   , As3 , v036
	.byte	W06
	.byte		N06   , Cn1 , v116
	.byte		N02   , As3 , v036
	.byte	W06
	.byte		N12   , FsM1, v127
	.byte		N02   , As3 , v052
	.byte	W12
	.byte		N06   , Cn1 , v116
	.byte		N02   , As3 , v036
	.byte	W06
	.byte		N06   , Cn1 , v116
	.byte		N02   , As3 , v036
	.byte	W06
	.byte		N06   , FsM1, v127
	.byte		N02   , As3 , v052
	.byte	W06
	.byte		N06   , Cn2 , v116
	.byte	W06
	.byte		        Cn1 
	.byte		N02   , As3 , v036
	.byte	W06
	.byte		N06   , FsM1, v127
	.byte		N02   , As3 , v036
	.byte	W06
	.byte		N06   , An1 , v116
	.byte		N02   , As3 , v052
	.byte	W06
	.byte		N06   , Cn1 , v116
	.byte		N02   , As3 , v036
	.byte	W06
	.byte		N06   , FsM1, v127
	.byte		N02   , As3 , v044
	.byte	W06
	.byte		N06   , Fn1 , v116
	.byte		N02   , As3 , v040
	.byte	W06
	.byte	PATT
	 .word	seq_054_7 + 0x716
	.byte	PATT
	 .word	seq_054_7 + 0x2FE
	.byte	PATT
	 .word	seq_054_7 + 0x478
	.byte	PATT
	 .word	seq_054_7 + 0x4B5
	.byte	PATT
	 .word	seq_054_7 + 0x716
	.byte	PATT
	 .word	seq_054_7 + 0x2FE
	.byte	PATT
	 .word	seq_054_7 + 0x478
	.byte		N12   , Cn1 , v116
	.byte		N02   , As3 , v052
	.byte	W12
	.byte		N12   , FsM1, v127
	.byte		N02   , As3 , v036
	.byte	W06
	.byte		N02
	.byte	W06
	.byte		N01   , FsM1, v100
	.byte		N02   , As3 , v052
	.byte	W01
	.byte		N05   , FsM1, v127
	.byte	W05
	.byte		N06   , Cn1 , v116
	.byte	W06
	.byte		N06
	.byte		N02   , As3 , v036
	.byte	W06
	.byte		N06   , FsM1, v127
	.byte		N02   , As3 , v036
	.byte	W06
	.byte		N06   , Cn1 , v116
	.byte		N02   , As3 , v052
	.byte	W06
	.byte		N06   , Cn2 , v116
	.byte	W06
	.byte		        FsM1, v127
	.byte		N02   , As3 , v036
	.byte	W06
	.byte		N06   , Fn1 , v116
	.byte		N02   , As3 , v036
	.byte	W06
	.byte		N01   , FsM1, v100
	.byte		N24   , Cs2 , v120
	.byte		N02   , As3 , v052
	.byte	W01
	.byte		N05   , FsM1, v127
	.byte	W05
	.byte		N06
	.byte		N02   , As3 , v036
	.byte	W06
	.byte		N06   , An1 , v116
	.byte		N02   , As3 , v044
	.byte	W06
	.byte		N06   , Bn0 , v116
	.byte		N02   , As3 , v040
	.byte	W06
	.byte		N12   , Cn1 , v116
	.byte		N24   , An2 , v120
	.byte		N02   , As3 , v052
	.byte	W12
	.byte		        As3 , v036
	.byte	W06
	.byte		N02
	.byte	W06
	.byte		N12   , FsM1, v127
	.byte		N22   , As1 , v056
	.byte		N02   , As3 , v052
	.byte	W12
	.byte		N12   , Cn1 , v116
	.byte		N02   , As3 , v036
	.byte	W06
	.byte		N02
	.byte	W06
	.byte		N22   , As1 , v056
	.byte		N02   , As3 , v052
	.byte	W12
	.byte		N12   , Cn1 , v116
	.byte		N02   , As3 , v036
	.byte	W06
	.byte		N02
	.byte	W06
	.byte		N12   , FsM1, v127
	.byte		N22   , As1 , v056
	.byte		N02   , As3 , v052
	.byte	W06
	.byte		        As3 , v036
	.byte	W06
	.byte		N12   , Cn1 , v116
	.byte		N02   , As3 , v044
	.byte	W06
	.byte		        As3 , v040
	.byte	W06
	.byte	PEND
	.byte	PATT
	 .word	seq_054_7 + 0x86
	.byte	PATT
	 .word	seq_054_7 + 0xB09
	.byte		N12   , Cn1 , v116
	.byte		N22   , As1 , v056
	.byte		N02   , As3 , v052
	.byte	W12
	.byte		N12   , FsM1, v127
	.byte		N02   , As3 , v036
	.byte	W06
	.byte		N02
	.byte	W06
	.byte		N12   , FsM1, v127
	.byte		N22   , As1 , v056
	.byte		N02   , As3 , v052
	.byte	W12
	.byte		N06   , Cn1 , v116
	.byte		N02   , As3 , v036
	.byte	W06
	.byte		N06   , FsM1, v127
	.byte		N02   , As3 , v036
	.byte	W06
	.byte		N22   , As1 , v056
	.byte		N02   , As3 , v052
	.byte	W06
	.byte		N12   , FsM1, v127
	.byte	W06
	.byte		N02   , As3 , v036
	.byte	W06
	.byte		N06   , Cn1 , v116
	.byte		N02   , As3 , v036
	.byte	W06
	.byte		N06   , FsM1, v127
	.byte		N02   , As3 , v052
	.byte	W06
	.byte		N06   , Cn2 , v108
	.byte		N02   , As3 , v036
	.byte	W06
	.byte		N06   , An1 , v100
	.byte		N02   , As3 , v044
	.byte	W06
	.byte		N06   , Fn1 , v108
	.byte		N02   , As3 , v040
	.byte	W06
	.byte	PEND
	.byte		N12   , Cn1 , v116
	.byte		N24   , Cs2 , v120
	.byte		N02   , As3 , v052
	.byte	W12
	.byte		        As3 , v036
	.byte	W06
	.byte		N02
	.byte	W06
	.byte		N12   , FsM1, v127
	.byte		N22   , As1 , v056
	.byte		N02   , As3 , v052
	.byte	W12
	.byte		N12   , Cn1 , v116
	.byte		N02   , As3 , v036
	.byte	W06
	.byte		N02
	.byte	W06
	.byte		N22   , As1 , v056
	.byte		N02   , As3 , v052
	.byte	W12
	.byte		N12   , Cn1 , v116
	.byte		N02   , As3 , v036
	.byte	W06
	.byte		N02
	.byte	W06
	.byte		N12   , FsM1, v127
	.byte		N22   , As1 , v056
	.byte		N02   , As3 , v052
	.byte	W06
	.byte		        As3 , v036
	.byte	W06
	.byte		N12   , Cn1 , v116
	.byte		N02   , As3 , v044
	.byte	W06
	.byte		        As3 , v040
	.byte	W06
	.byte	PATT
	 .word	seq_054_7 + 0x86
	.byte	PATT
	 .word	seq_054_7 + 0xB09
	.byte	PATT
	 .word	seq_054_7 + 0xE7E
	.byte	PATT
	 .word	seq_054_7 + 0xE2A
	.byte	PATT
	 .word	seq_054_7 + 0x86
	.byte	PATT
	 .word	seq_054_7 + 0xB09
	.byte	PATT
	 .word	seq_054_7 + 0xE7E
	.byte		N24   , An2 , v120
	.byte		N02   , As3 , v052
	.byte	W12
	.byte		        As3 , v036
	.byte	W06
	.byte		N02
	.byte	W06
	.byte		N12   , FsM1, v127
	.byte		N22   , As1 , v056
	.byte		N02   , As3 , v052
	.byte	W12
	.byte		N12   , Cn1 , v116
	.byte		N02   , As3 , v036
	.byte	W06
	.byte		N02
	.byte	W06
	.byte		N22   , As1 , v056
	.byte		N02   , As3 , v052
	.byte	W12
	.byte		N12   , Cn1 , v116
	.byte		N02   , As3 , v036
	.byte	W06
	.byte		N02
	.byte	W06
	.byte		N12   , FsM1, v127
	.byte		N22   , As1 , v056
	.byte		N02   , As3 , v052
	.byte	W06
	.byte		        As3 , v036
	.byte	W06
	.byte		N12   , Cn1 , v116
	.byte		N02   , As3 , v044
	.byte	W06
	.byte		        As3 , v040
	.byte	W06
	.byte	PEND
	.byte	PATT
	 .word	seq_054_7 + 0x86
	.byte	PATT
	 .word	seq_054_7 + 0xB09
	.byte	PATT
	 .word	seq_054_7 + 0xE7E
	.byte	PATT
	 .word	seq_054_7 + 0xF48
	.byte	PATT
	 .word	seq_054_7 + 0x86
	.byte	PATT
	 .word	seq_054_7 + 0xB09
	.byte		N12   , Cn1 , v116
	.byte		N22   , As1 , v056
	.byte		N02   , As3 , v052
	.byte	W12
	.byte		N12   , FsM1, v127
	.byte		N02   , As3 , v036
	.byte	W06
	.byte		N02
	.byte	W06
	.byte		N12   , FsM1, v127
	.byte		N22   , As1 , v056
	.byte		N02   , As3 , v052
	.byte	W12
	.byte		N06   , Cn1 , v116
	.byte		N02   , As3 , v036
	.byte	W06
	.byte		N06   , FsM1, v127
	.byte		N02   , As3 , v036
	.byte	W06
	.byte		N22   , As1 , v056
	.byte		N02   , As3 , v052
	.byte	W06
	.byte		N12   , FsM1, v127
	.byte	W06
	.byte		N02   , As3 , v036
	.byte	W06
	.byte		N06   , Cn1 , v116
	.byte		N02   , As3 , v036
	.byte	W06
	.byte		N06   , FsM1, v127
	.byte		N24   , Cs2 , v116
	.byte		N02   , As3 , v052
	.byte	W06
	.byte		N06   , FsM1, v127
	.byte		N02   , As3 , v036
	.byte	W06
	.byte		N06   , Cn1 , v116
	.byte		N02   , As3 , v044
	.byte	W06
	.byte		N06   , FsM1, v127
	.byte		N02   , As3 , v040
	.byte	W06
	.byte	PATT
	 .word	seq_054_7 + 0xF48
	.byte		N12   , Cn1 , v116
	.byte		N22   , As1 , v056
	.byte		N02   , As3 , v052
	.byte	W12
	.byte		        As3 , v036
	.byte	W06
	.byte		N06   , Cn1 , v116
	.byte		N02   , As3 , v036
	.byte	W06
	.byte		N12   , FsM1, v127
	.byte		N22   , As1 , v056
	.byte		N02   , As3 , v052
	.byte	W12
	.byte		N12   , Cn1 , v116
	.byte		N02   , As3 , v036
	.byte	W06
	.byte		N02
	.byte	W06
	.byte		N22   , As1 , v056
	.byte		N02   , As3 , v052
	.byte	W06
	.byte		N12   , Cn1 , v116
	.byte	W06
	.byte		N02   , As3 , v036
	.byte	W06
	.byte		N06   , Cn1 , v116
	.byte		N02   , As3 , v036
	.byte	W06
	.byte		N06   , FsM1, v127
	.byte		N22   , As1 , v056
	.byte		N02   , As3 , v052
	.byte	W06
	.byte		N06   , FsM1, v127
	.byte		N02   , As3 , v036
	.byte	W06
	.byte		N12   , Cn1 , v116
	.byte		N02   , As3 , v044
	.byte	W06
	.byte		        As3 , v040
	.byte	W06
	.byte		N12   , Cn1 , v116
	.byte		N22   , As1 , v056
	.byte		N02   , As3 , v052
	.byte	W12
	.byte		        As3 , v036
	.byte	W06
	.byte		N02
	.byte	W06
	.byte		N12   , FsM1, v127
	.byte		N22   , As1 , v056
	.byte		N02   , As3 , v052
	.byte	W12
	.byte		N12   , Cn1 , v116
	.byte		N02   , As3 , v036
	.byte	W06
	.byte		N02
	.byte	W06
	.byte		N22   , As1 , v056
	.byte		N02   , As3 , v052
	.byte	W12
	.byte		N12   , Cn1 , v116
	.byte		N02   , As3 , v036
	.byte	W06
	.byte		N02
	.byte	W06
	.byte		N12   , FsM1, v127
	.byte		N22   , As1 , v056
	.byte		N02   , As3 , v052
	.byte	W06
	.byte		        As3 , v036
	.byte	W06
	.byte		N12   , Cn1 , v116
	.byte		N02   , As3 , v044
	.byte	W06
	.byte		        As3 , v040
	.byte	W06
	.byte	PEND
	.byte	PATT
	 .word	seq_054_7 + 0x1AC
	.byte	PATT
	 .word	seq_054_7 + 0x106A
	.byte		N12   , Cn1 , v116
	.byte		N22   , As1 , v056
	.byte		N02   , As3 , v052
	.byte	W12
	.byte		        As3 , v036
	.byte	W06
	.byte		N06   , Cn1 , v116
	.byte		N02   , As3 , v036
	.byte	W06
	.byte		N12   , FsM1, v127
	.byte		N22   , As1 , v056
	.byte		N02   , As3 , v052
	.byte	W12
	.byte		N12   , Cn1 , v116
	.byte		N02   , As3 , v036
	.byte	W06
	.byte		N02
	.byte	W06
	.byte		N22   , As1 , v056
	.byte		N02   , As3 , v052
	.byte	W06
	.byte		N12   , Cn1 , v116
	.byte	W06
	.byte		N02   , As3 , v036
	.byte	W06
	.byte		N06   , Cn1 , v116
	.byte		N02   , As3 , v036
	.byte	W06
	.byte		N12   , FsM1, v127
	.byte		N22   , As1 , v056
	.byte		N02   , As3 , v052
	.byte	W06
	.byte		        As3 , v036
	.byte	W06
	.byte		N12   , Cn1 , v116
	.byte		N02   , As3 , v044
	.byte	W06
	.byte		        As3 , v040
	.byte	W06
	.byte	GOTO
	 .word	seq_054_7 + 0x106A
	.byte	FINE

@******************************************************@

	.align	2

seq_054:
	.byte	8	@ NumTrks
	.byte	0	@ NumBlks
	.byte	seq_054_pri	@ Priority
	.byte	seq_054_rev	@ Reverb

	.word	seq_054_grp

	.word	seq_054_0
	.word	seq_054_1
	.word	seq_054_2
	.word	seq_054_3
	.word	seq_054_4
	.word	seq_054_5
	.word	seq_054_6
	.word	seq_054_7

	.end
