@ File generated by m4a2s Song-Module
	.include "MPlayDef.s"

	.equ	seq_182_grp, bank_044
	.equ	seq_182_pri, 10
	.equ	seq_182_rev, 0
	.equ	seq_182_mvl, 127
	.equ	seq_182_key, 0

	.section .rodata
	.global	seq_182
	.align	2

@*********************** Track 01 ***********************@

seq_182_0:
	.byte		VOL   , 110*seq_182_mvl/mxv
	.byte	KEYSH , seq_182_key+0
	.byte	TEMPO , 150/2
	.byte		VOICE , 61
	.byte		BENDR , 1
	.byte		BEND  , c_v+39
	.byte		N02   , Cn3 , v080
	.byte	W02
	.byte		        Cn3 , v127
	.byte	W06
	.byte		BEND  , c_v+31
	.byte		N02   , Cn3 , v092
	.byte	W02
	.byte		        Cn3 , v127
	.byte	W03
	.byte		BEND  , c_v+27
	.byte		N02   , Cn3 , v080
	.byte	W02
	.byte		        Cn3 , v127
	.byte	W05
	.byte		BEND  , c_v+23
	.byte		N02   , Cn3 , v100
	.byte	W02
	.byte		        Cn3 , v127
	.byte	W02
	.byte	W01
	.byte		BEND  , c_v+19
	.byte		N02   , Cn3 , v092
	.byte	W02
	.byte		        Cn3 , v127
	.byte	W05
	.byte		BEND  , c_v+15
	.byte		N02   , Cn3 , v100
	.byte	W02
	.byte		        Cn3 , v127
	.byte	W03
	.byte		BEND  , c_v+7
	.byte		N02   , Cn3 , v092
	.byte	W02
	.byte		        Cn3 , v112
	.byte	W05
	.byte		BEND  , c_v+0
	.byte		N02   , Cn3 , v080
	.byte	W02
	.byte		        Cn3 , v100
	.byte	W02
	.byte	FINE

@******************************************************@

	.align	2

seq_182:
	.byte	1	@ NumTrks
	.byte	0	@ NumBlks
	.byte	seq_182_pri	@ Priority
	.byte	seq_182_rev	@ Reverb

	.word	seq_182_grp

	.word	seq_182_0

	.end
