@ File generated by m4a2s Song-Module
	.include "MPlayDef.s"

	.equ	seq_043_grp, bank_032
	.equ	seq_043_pri, 0
	.equ	seq_043_rev, 148
	.equ	seq_043_mvl, 127
	.equ	seq_043_key, 0

	.section .rodata
	.global	seq_043
	.align	2

@*********************** Track 01 ***********************@

seq_043_0:
	.byte	KEYSH , seq_043_key+0
	.byte	TEMPO , 120/2
	.byte		VOICE , 5
	.byte		VOL   , 90*seq_043_mvl/mxv
	.byte		PAN   , c_v+0
	.byte		N06   , Dn3 , v112
	.byte		N06   , As3 
	.byte	W06
	.byte		N08   , Dn3 
	.byte		N08   , As3 
	.byte	W12
	.byte		        Dn3 
	.byte		N08   , As3 
	.byte	W12
	.byte		N06   , Dn3 
	.byte		N06   , As3 
	.byte	W06
	.byte		N09   , Dn3 
	.byte		N09   , As3 
	.byte	W12
	.byte		N06   , Dn3 
	.byte		N13   , As3 
	.byte	W06
	.byte		N06   , Cn3 
	.byte	W06
	.byte		        Dn3 
	.byte	W06
	.byte		        En3 
	.byte	W06
	.byte		        Fn3 
	.byte	W06
	.byte		        Gn3 
	.byte	W06
	.byte		        An3 
	.byte	W06
	.byte		        As3 
	.byte	W06
	.byte		VOICE , 5
	.byte		VOL   , 90*seq_043_mvl/mxv
	.byte		N08   , Cn4 , v112
	.byte	W12
	.byte		N06   , Dn4 
	.byte	W06
	.byte		N09   , Cn4 
	.byte	W12
	.byte		N08   , Dn4 
	.byte	W12
	.byte		N36   , Cn4 
	.byte	W24
	.byte	W03
	.byte		VOL   , 84*seq_043_mvl/mxv
	.byte	W03
	.byte		        70*seq_043_mvl/mxv
	.byte	W03
	.byte		        44*seq_043_mvl/mxv
	.byte	W03
	.byte		        14*seq_043_mvl/mxv
	.byte	W18
	.byte		VOL   , 90*seq_043_mvl/mxv
	.byte	W12
	.byte		N06   , Dn4 , v112
	.byte	W06
	.byte		N09   , Cn4 
	.byte	W12
	.byte		        Dn4 
	.byte	W12
	.byte		N18   , Cn4 
	.byte	W18
	.byte		N06   , As3 
	.byte	W06
	.byte		        An3 
	.byte	W06
	.byte		N10   , Gn3 
	.byte	W12
	.byte		N06   , An3 
	.byte	W06
	.byte		        As3 
	.byte	W06
	.byte	PEND
	.byte		N09   , Cn4 , v112
	.byte	W12
	.byte		N06   , Dn4 
	.byte	W06
	.byte		N09   , Cn4 
	.byte	W12
	.byte		N08   , Dn4 
	.byte	W12
	.byte		N42   , Cn4 
	.byte	W32
	.byte	W01
	.byte		VOL   , 84*seq_043_mvl/mxv
	.byte	W03
	.byte		        70*seq_043_mvl/mxv
	.byte	W03
	.byte		        44*seq_043_mvl/mxv
	.byte	W03
	.byte		        14*seq_043_mvl/mxv
	.byte	W12
	.byte	PEND
	.byte		VOICE , 79
	.byte		VOL   , 90*seq_043_mvl/mxv
	.byte		N06   , Cn5 , v064
	.byte	W12
	.byte		        Dn5 
	.byte	W06
	.byte		        Cn5 
	.byte	W12
	.byte		        Dn5 
	.byte	W12
	.byte		N54   , Cn5 
	.byte	W32
	.byte	W01
	.byte		VOL   , 87*seq_043_mvl/mxv
	.byte	W03
	.byte		        83*seq_043_mvl/mxv
	.byte	W03
	.byte		        76*seq_043_mvl/mxv
	.byte	W03
	.byte		        65*seq_043_mvl/mxv
	.byte	W03
	.byte		        53*seq_043_mvl/mxv
	.byte	W03
	.byte		        36*seq_043_mvl/mxv
	.byte	W03
	.byte		        17*seq_043_mvl/mxv
	.byte	W03
	.byte		VOICE , 5
	.byte		VOL   , 90*seq_043_mvl/mxv
	.byte		N09   , Cn4 , v112
	.byte	W12
	.byte		N06   , Dn4 
	.byte	W06
	.byte		N09   , Cn4 
	.byte	W12
	.byte		N08   , Dn4 
	.byte	W12
	.byte		N36   , Cn4 
	.byte	W24
	.byte	W03
	.byte		VOL   , 84*seq_043_mvl/mxv
	.byte	W03
	.byte		        70*seq_043_mvl/mxv
	.byte	W03
	.byte		        44*seq_043_mvl/mxv
	.byte	W03
	.byte		        14*seq_043_mvl/mxv
	.byte	W18
	.byte	PATT
	 .word	seq_043_0 + 0x55
	.byte	PATT
	 .word	seq_043_0 + 0x72
	.byte		VOL   , 90*seq_043_mvl/mxv
	.byte	W54
	.byte		N06   , Fn3 , v112
	.byte	W06
	.byte		        Gn3 
	.byte	W06
	.byte		        An3 
	.byte	W06
	.byte		        As3 
	.byte	W06
	.byte		        Cn4 
	.byte	W06
	.byte		        Dn4 
	.byte	W06
	.byte		        En4 
	.byte	W06
	.byte		N08   , Fn4 , v112
	.byte	W12
	.byte		N06   , Gn4 
	.byte	W06
	.byte		        Fn4 
	.byte	W12
	.byte		        Gn4 
	.byte	W12
	.byte		N11   , Fn4 
	.byte	W18
	.byte		N06   , En4 
	.byte	W12
	.byte		N06
	.byte	W12
	.byte		        Dn4 
	.byte	W12
	.byte	PEND
	.byte		        Cn4 
	.byte	W12
	.byte		        Dn4 
	.byte	W06
	.byte		        En4 
	.byte	W12
	.byte		N08   , Cn4 
	.byte	W18
	.byte		        En4 
	.byte	W48
	.byte		        Fn4 
	.byte	W12
	.byte		N06   , Gn4 
	.byte	W06
	.byte		        Fn4 
	.byte	W12
	.byte		        Gn4 
	.byte	W12
	.byte		N11   , Fn4 
	.byte	W18
	.byte		N06   , Ds4 
	.byte	W12
	.byte		N06
	.byte	W12
	.byte		        Cs4 
	.byte	W12
	.byte		N08   , Cn4 
	.byte	W18
	.byte		        Cs4 
	.byte	W18
	.byte		        Ds4 
	.byte	W24
	.byte		        Cn4 
	.byte	W12
	.byte		        Cs4 
	.byte	W12
	.byte		        Ds4 
	.byte	W12
	.byte	PATT
	 .word	seq_043_0 + 0xE9
	.byte		N06   , Cs4 , v112
	.byte	W12
	.byte		        Dn4 
	.byte	W06
	.byte		        En4 
	.byte	W12
	.byte		N08   , Bn4 
	.byte	W18
	.byte		        An4 
	.byte	W24
	.byte		        En4 
	.byte	W24
	.byte		        Ds4 
	.byte	W12
	.byte		N06   , Fn4 
	.byte	W06
	.byte		        Ds4 
	.byte	W12
	.byte		N11   , Fn4 
	.byte	W18
	.byte		N08   , Ds4 
	.byte	W12
	.byte		        Cs4 
	.byte	W12
	.byte		        Cn4 
	.byte	W12
	.byte		        Cs4 
	.byte	W12
	.byte		        Cn4 
	.byte	W24
	.byte		N08
	.byte	W24
	.byte		N08
	.byte	W24
	.byte		N08
	.byte	W24
	.byte		N06
	.byte	W06
	.byte		N08
	.byte	W12
	.byte		N07
	.byte	W12
	.byte		N06
	.byte	W06
	.byte		N08
	.byte	W12
	.byte		N21
	.byte	W11
	.byte		VOL   , 84*seq_043_mvl/mxv
	.byte	W03
	.byte		        69*seq_043_mvl/mxv
	.byte	W03
	.byte		        44*seq_043_mvl/mxv
	.byte	W03
	.byte		        9*seq_043_mvl/mxv
	.byte	W01
	.byte		        0*seq_043_mvl/mxv
	.byte	W24
	.byte	W03
	.byte	W96
	.byte	W96
	.byte		VOICE , 127
	.byte		VOL   , 72*seq_043_mvl/mxv
	.byte		PAN   , c_v+0
	.byte		N09   , Bn3 , v080
	.byte	W12
	.byte		N09
	.byte	W12
	.byte		N09
	.byte	W12
	.byte		N04   , Cn4 
	.byte	W06
	.byte		N04
	.byte	W06
	.byte		N48   , Bn3 
	.byte	W48
	.byte	W96
	.byte	GOTO
	 .word	seq_043_0 + 0x37
	.byte	FINE

@*********************** Track 02 ***********************@

seq_043_1:
	.byte	KEYSH , seq_043_key+0
	.byte		VOICE , 34
	.byte		VOL   , 90*seq_043_mvl/mxv
	.byte		PAN   , c_v+0
	.byte		N06   , As0 , v127
	.byte	W06
	.byte		N06
	.byte	W12
	.byte		N06
	.byte	W12
	.byte		N06
	.byte	W06
	.byte		N09
	.byte	W12
	.byte		N48
	.byte	W15
	.byte		VOL   , 76*seq_043_mvl/mxv
	.byte	W03
	.byte		        63*seq_043_mvl/mxv
	.byte	W03
	.byte		        52*seq_043_mvl/mxv
	.byte	W03
	.byte		        43*seq_043_mvl/mxv
	.byte	W03
	.byte		        34*seq_043_mvl/mxv
	.byte	W03
	.byte		        26*seq_043_mvl/mxv
	.byte	W03
	.byte		        20*seq_043_mvl/mxv
	.byte	W03
	.byte		        14*seq_043_mvl/mxv
	.byte	W03
	.byte		        11*seq_043_mvl/mxv
	.byte	W03
	.byte		        8*seq_043_mvl/mxv
	.byte	W03
	.byte		        7*seq_043_mvl/mxv
	.byte	W03
	.byte		VOL   , 90*seq_043_mvl/mxv
	.byte		N18   , Fn1 , v127
	.byte	W24
	.byte		        Cn1 
	.byte	W24
	.byte		        Fn1 
	.byte	W18
	.byte		N15   , Cn1 
	.byte	W18
	.byte		N12   , Fn1 
	.byte	W12
	.byte		N18   , Gn1 , v127
	.byte	W24
	.byte		        Cn1 
	.byte	W24
	.byte		        Gn1 
	.byte	W18
	.byte		N15   , Cn1 
	.byte	W18
	.byte		N12   , Gn1 
	.byte	W12
	.byte	PEND
	.byte		N18   , An1 , v127
	.byte	W24
	.byte		        Cn1 
	.byte	W24
	.byte		        An1 
	.byte	W18
	.byte		N15   , Cn1 
	.byte	W18
	.byte		N12   , An1 
	.byte	W12
	.byte	PEND
	.byte	PATT
	 .word	seq_043_1 + 0x3D
	.byte		N18   , Fn1 , v127
	.byte	W24
	.byte		        Cn1 
	.byte	W24
	.byte		        Fn1 
	.byte	W18
	.byte		N15   , Cn1 
	.byte	W18
	.byte		N12   , Fn1 
	.byte	W12
	.byte	PATT
	 .word	seq_043_1 + 0x3D
	.byte	PATT
	 .word	seq_043_1 + 0x4C
	.byte	PATT
	 .word	seq_043_1 + 0x3D
	.byte		N21   , Bn1 , v127
	.byte	W24
	.byte		N21
	.byte	W24
	.byte		N18   , En1 
	.byte	W18
	.byte		        Fs1 
	.byte	W18
	.byte		N12   , Gs1 
	.byte	W12
	.byte	PEND
	.byte		N21   , An1 , v127
	.byte	W24
	.byte		        En1 
	.byte	W24
	.byte		N15   , An1 
	.byte	W18
	.byte		        En1 
	.byte	W18
	.byte		N12   , An1 
	.byte	W12
	.byte	PEND
	.byte		N21   , As1 
	.byte	W24
	.byte		N21
	.byte	W24
	.byte		N18   , Ds1 
	.byte	W18
	.byte		        Fn1 
	.byte	W18
	.byte		N12   , Gn1 
	.byte	W12
	.byte		N21   , Gs1 
	.byte	W24
	.byte		        Ds1 
	.byte	W24
	.byte		N15   , Gs1 
	.byte	W18
	.byte		        Ds1 
	.byte	W18
	.byte		N12   , Gs1 
	.byte	W12
	.byte	PATT
	 .word	seq_043_1 + 0x7D
	.byte	PATT
	 .word	seq_043_1 + 0x8C
	.byte		N21   , As1 , v127
	.byte	W24
	.byte		N21
	.byte	W24
	.byte		        Ds1 
	.byte	W24
	.byte		N21
	.byte	W24
	.byte		        Dn1 
	.byte	W24
	.byte		        En1 
	.byte	W24
	.byte		        Fn1 
	.byte	W24
	.byte		        Fs1 
	.byte	W24
	.byte		N06   , Gn1 
	.byte	W06
	.byte		N06
	.byte	W12
	.byte		N06
	.byte	W12
	.byte		N06
	.byte	W06
	.byte		N10
	.byte	W12
	.byte		N24
	.byte	W15
	.byte		VOL   , 84*seq_043_mvl/mxv
	.byte	W03
	.byte		        70*seq_043_mvl/mxv
	.byte	W03
	.byte		        44*seq_043_mvl/mxv
	.byte	W03
	.byte		        14*seq_043_mvl/mxv
	.byte	W24
	.byte		        90*seq_043_mvl/mxv
	.byte	W96
	.byte	W96
	.byte	W96
	.byte	W96
	.byte	GOTO
	 .word	seq_043_1 + 0x2D
	.byte	FINE

@*********************** Track 03 ***********************@

seq_043_2:
	.byte	KEYSH , seq_043_key+0
	.byte		VOICE , 123
	.byte		VOL   , 70*seq_043_mvl/mxv
	.byte		PAN   , c_v+0
	.byte		N06   , Fn3 , v112
	.byte	W06
	.byte		N08
	.byte	W12
	.byte		N08
	.byte	W12
	.byte		N06
	.byte	W06
	.byte		N09
	.byte	W12
	.byte		N20
	.byte	W48
	.byte		VOICE , 123
	.byte		VOL   , 70*seq_043_mvl/mxv
	.byte		N09   , An3 , v112
	.byte	W12
	.byte		N06   , As3 
	.byte	W06
	.byte		N09   , An3 
	.byte	W12
	.byte		N08   , As3 
	.byte	W12
	.byte		N36   , An3 
	.byte	W24
	.byte	W03
	.byte		VOL   , 66*seq_043_mvl/mxv
	.byte	W03
	.byte		        55*seq_043_mvl/mxv
	.byte	W03
	.byte		        36*seq_043_mvl/mxv
	.byte	W03
	.byte		        14*seq_043_mvl/mxv
	.byte	W18
	.byte		        70*seq_043_mvl/mxv
	.byte	W12
	.byte		N06   , As3 
	.byte	W06
	.byte		N09   , An3 
	.byte	W12
	.byte		        As3 
	.byte	W12
	.byte		N18   , An3 
	.byte	W18
	.byte		N06   , Gn3 
	.byte	W06
	.byte		        Fn3 
	.byte	W06
	.byte		N10   , Ds3 
	.byte	W12
	.byte		N06   , Fn3 
	.byte	W06
	.byte		        Gn3 
	.byte	W06
	.byte		N09   , An3 
	.byte	W12
	.byte		N06   , As3 
	.byte	W06
	.byte		N09   , An3 
	.byte	W12
	.byte		N08   , As3 
	.byte	W12
	.byte		N42   , An3 
	.byte	W32
	.byte	W01
	.byte		VOL   , 66*seq_043_mvl/mxv
	.byte	W03
	.byte		        55*seq_043_mvl/mxv
	.byte	W03
	.byte		        36*seq_043_mvl/mxv
	.byte	W03
	.byte		        14*seq_043_mvl/mxv
	.byte	W12
	.byte		        70*seq_043_mvl/mxv
	.byte	W96
	.byte		N09
	.byte	W12
	.byte		N06   , As3 
	.byte	W06
	.byte		N09   , An3 
	.byte	W12
	.byte		N08   , As3 
	.byte	W12
	.byte		N36   , An3 
	.byte	W54
	.byte	W12
	.byte		N06   , As3 
	.byte	W06
	.byte		N09   , An3 
	.byte	W12
	.byte		        As3 
	.byte	W12
	.byte		N18   , An3 
	.byte	W18
	.byte		N06   , Gn3 
	.byte	W06
	.byte		        Fn3 
	.byte	W06
	.byte		N10   , Ds3 
	.byte	W12
	.byte		N06   , Fn3 
	.byte	W06
	.byte		        Gn3 
	.byte	W06
	.byte		N09   , An3 
	.byte	W12
	.byte		N06   , As3 
	.byte	W06
	.byte		N09   , An3 
	.byte	W12
	.byte		N08   , As3 
	.byte	W12
	.byte		N42   , An3 
	.byte	W54
	.byte	W96
	.byte		N08   , An3 , v100
	.byte	W12
	.byte		N06
	.byte	W06
	.byte		N06
	.byte	W12
	.byte		N06
	.byte	W12
	.byte		N11   , Gs3 
	.byte	W18
	.byte		N06
	.byte	W12
	.byte		N06
	.byte	W12
	.byte		N06
	.byte	W12
	.byte	PEND
	.byte		        En3 
	.byte	W12
	.byte		        Fs3 
	.byte	W06
	.byte		        Gn3 
	.byte	W12
	.byte		N08   , En3 
	.byte	W18
	.byte		        Gn3 
	.byte	W48
	.byte		        Gs3 
	.byte	W12
	.byte		N06
	.byte	W06
	.byte		N06
	.byte	W12
	.byte		N06
	.byte	W12
	.byte		N11   , Gn3 
	.byte	W18
	.byte		N06
	.byte	W12
	.byte		N06
	.byte	W12
	.byte		N06
	.byte	W12
	.byte		N08   , Ds3 
	.byte	W18
	.byte		        Fn3 
	.byte	W18
	.byte		        Gn3 
	.byte	W24
	.byte		        Ds3 
	.byte	W12
	.byte		        Fn3 
	.byte	W12
	.byte		        Gn3 
	.byte	W12
	.byte	PATT
	 .word	seq_043_2 + 0xA0
	.byte		N06   , En3 , v100
	.byte	W12
	.byte		        Fs3 
	.byte	W06
	.byte		        Gs3 
	.byte	W12
	.byte		N08   , Cs4 
	.byte	W18
	.byte		N08
	.byte	W24
	.byte		        Gs3 
	.byte	W24
	.byte		N08
	.byte	W12
	.byte		N06
	.byte	W06
	.byte		N06
	.byte	W12
	.byte		N11
	.byte	W18
	.byte		N08   , Gn3 
	.byte	W12
	.byte		N08
	.byte	W12
	.byte		N08
	.byte	W12
	.byte		N08
	.byte	W12
	.byte		        En3 
	.byte	W24
	.byte		        Dn3 
	.byte	W24
	.byte		        En3 
	.byte	W24
	.byte		N08
	.byte	W24
	.byte		N06   , Fn3 
	.byte	W06
	.byte		N08
	.byte	W12
	.byte		N07
	.byte	W12
	.byte		N06
	.byte	W06
	.byte		N08
	.byte	W12
	.byte		N21
	.byte	W12
	.byte		VOL   , 65*seq_043_mvl/mxv
	.byte	W03
	.byte		        51*seq_043_mvl/mxv
	.byte	W03
	.byte		        28*seq_043_mvl/mxv
	.byte	W03
	.byte		        0*seq_043_mvl/mxv
	.byte	W24
	.byte	W03
	.byte		VOICE , 126
	.byte		PAN   , c_v+0
	.byte		VOL   , 77*seq_043_mvl/mxv
	.byte	W06
	.byte		N06   , An2 , v112
	.byte	W06
	.byte		N06
	.byte	W06
	.byte		        Gn2 
	.byte	W06
	.byte		N10
	.byte	W12
	.byte		N06   , An2 
	.byte	W06
	.byte		N09   , Gn2 
	.byte	W12
	.byte		N09
	.byte	W12
	.byte		N06
	.byte	W06
	.byte		N06
	.byte	W06
	.byte		N06
	.byte	W06
	.byte		N11   , An2 
	.byte	W12
	.byte		N06   , Dn2 
	.byte	W06
	.byte		N10   , Gn2 
	.byte	W12
	.byte		N06
	.byte	W12
	.byte		        Dn2 
	.byte	W06
	.byte		N15   , Gn2 
	.byte	W18
	.byte		N11   , An2 
	.byte	W12
	.byte		N04   , Gn2 , v096
	.byte	W12
	.byte		N11   , An2 , v112
	.byte	W12
	.byte		N04   , Gn2 , v092
	.byte	W06
	.byte	W06
	.byte		N12   , Dn2 , v112
	.byte	W12
	.byte		N03   , Dn2 , v096
	.byte	W06
	.byte		N11   , Dn2 , v124
	.byte	W12
	.byte		N01   , Dn2 , v088
	.byte	W06
	.byte		N04   , Dn2 , v104
	.byte	W06
	.byte		N06   , Gn2 , v112
	.byte	W06
	.byte		        Gn2 , v100
	.byte	W06
	.byte		        Gn2 , v096
	.byte	W06
	.byte		N06
	.byte	W06
	.byte		        Gn2 , v104
	.byte	W06
	.byte		N24   , Gn2 , v120
	.byte	W18
	.byte	W30
	.byte		N11   , En2 , v112
	.byte	W12
	.byte		N06
	.byte	W06
	.byte		N06
	.byte	W06
	.byte		N06
	.byte	W06
	.byte		N24   , An2 
	.byte	W36
	.byte	GOTO
	 .word	seq_043_2 + 0x16
	.byte	FINE

@*********************** Track 04 ***********************@

seq_043_3:
	.byte	KEYSH , seq_043_key+0
	.byte	W96
	.byte		VOICE , 122
	.byte		VOL   , 56*seq_043_mvl/mxv
	.byte		PAN   , c_v+63
	.byte		N06   , An3 , v100
	.byte	W18
	.byte		        Fn3 
	.byte	W12
	.byte		        An3 
	.byte	W18
	.byte		N06
	.byte	W12
	.byte		        Cn3 
	.byte	W12
	.byte		        Fn3 
	.byte	W06
	.byte		        An3 
	.byte	W18
	.byte		N06   , Gn3 , v100
	.byte	W18
	.byte		        Ds3 
	.byte	W12
	.byte		        Gn3 
	.byte	W18
	.byte		N06
	.byte	W12
	.byte		        As2 
	.byte	W12
	.byte		        Ds3 
	.byte	W06
	.byte		        Gn3 
	.byte	W18
	.byte	PEND
	.byte		N06   , Fn3 , v100
	.byte	W18
	.byte		        Cn3 
	.byte	W12
	.byte		        Fn3 
	.byte	W18
	.byte		N06
	.byte	W12
	.byte		        An2 
	.byte	W12
	.byte		        Cn3 
	.byte	W06
	.byte		        Fn3 
	.byte	W18
	.byte	PEND
	.byte	PATT
	 .word	seq_043_3 + 0x19
	.byte		N06   , An3 , v100
	.byte	W18
	.byte		        Fn3 
	.byte	W12
	.byte		        An3 
	.byte	W18
	.byte		N06
	.byte	W12
	.byte		        Cn3 
	.byte	W12
	.byte		        Fn3 
	.byte	W06
	.byte		        An3 
	.byte	W18
	.byte	PATT
	 .word	seq_043_3 + 0x19
	.byte	PATT
	 .word	seq_043_3 + 0x2A
	.byte	PATT
	 .word	seq_043_3 + 0x19
	.byte		VOICE , 123
	.byte		PAN   , c_v+0
	.byte		VOL   , 21*seq_043_mvl/mxv
	.byte		N06   , Dn4 , v100
	.byte	W12
	.byte		N06
	.byte	W06
	.byte		N06
	.byte	W12
	.byte		N06
	.byte	W12
	.byte		N06
	.byte	W18
	.byte		N06
	.byte	W12
	.byte		N06
	.byte	W12
	.byte		N06
	.byte	W12
	.byte		        An3 
	.byte	W12
	.byte		        Bn3 
	.byte	W06
	.byte		        Cn4 
	.byte	W12
	.byte		        An3 
	.byte	W18
	.byte		        Cn4 
	.byte	W48
	.byte		        Cs4 
	.byte	W12
	.byte		N06
	.byte	W06
	.byte		N06
	.byte	W12
	.byte		N06
	.byte	W12
	.byte		N06
	.byte	W18
	.byte		N06
	.byte	W12
	.byte		N06
	.byte	W12
	.byte		N06
	.byte	W12
	.byte		        Gn3 
	.byte	W18
	.byte		        Gs3 
	.byte	W18
	.byte		        As3 
	.byte	W24
	.byte		        Gn3 
	.byte	W12
	.byte		        Gs3 
	.byte	W12
	.byte		        As3 
	.byte	W12
	.byte		        Dn4 
	.byte	W12
	.byte		N06
	.byte	W06
	.byte		N06
	.byte	W12
	.byte		N06
	.byte	W12
	.byte		N06
	.byte	W18
	.byte		N06
	.byte	W12
	.byte		N06
	.byte	W12
	.byte		N06
	.byte	W12
	.byte		        An3 
	.byte	W12
	.byte		        Bn3 
	.byte	W06
	.byte		        Cs4 
	.byte	W12
	.byte		        En4 
	.byte	W18
	.byte		N06
	.byte	W24
	.byte		        Cs4 
	.byte	W24
	.byte		N06
	.byte	W12
	.byte		N06
	.byte	W06
	.byte		N06
	.byte	W12
	.byte		N06
	.byte	W18
	.byte		N06
	.byte	W24
	.byte		N06
	.byte	W24
	.byte		        An3 
	.byte	W24
	.byte		        Gn3 
	.byte	W24
	.byte		        An3 
	.byte	W24
	.byte		N06
	.byte	W24
	.byte		N06
	.byte	W06
	.byte		N06
	.byte	W12
	.byte		N06
	.byte	W12
	.byte		N06
	.byte	W06
	.byte		N06
	.byte	W12
	.byte		N06
	.byte	W48
	.byte	W96
	.byte	W96
	.byte	W96
	.byte	W96
	.byte	GOTO
	 .word	seq_043_3 + 0x3
	.byte	FINE

@*********************** Track 05 ***********************@

seq_043_4:
	.byte	KEYSH , seq_043_key+0
	.byte	W96
	.byte		VOICE , 121
	.byte		VOL   , 56*seq_043_mvl/mxv
	.byte		PAN   , c_v-64
	.byte		N06   , An2 , v100
	.byte	W18
	.byte		        Cn3 
	.byte	W12
	.byte		        An2 
	.byte	W18
	.byte		N06
	.byte	W12
	.byte		N06
	.byte	W12
	.byte		        Fn2 
	.byte	W06
	.byte		        An2 
	.byte	W18
	.byte		N06   , Gn2 , v100
	.byte	W18
	.byte		        As2 
	.byte	W12
	.byte		        Gn2 
	.byte	W18
	.byte		N06
	.byte	W12
	.byte		N06
	.byte	W12
	.byte		        Ds2 
	.byte	W06
	.byte		        Gn2 
	.byte	W18
	.byte	PEND
	.byte		N06   , Fn2 , v100
	.byte	W18
	.byte		        An2 
	.byte	W12
	.byte		        Fn2 
	.byte	W18
	.byte		N06
	.byte	W12
	.byte		N06
	.byte	W12
	.byte		        Cn2 
	.byte	W06
	.byte		        Fn2 
	.byte	W18
	.byte	PEND
	.byte	PATT
	 .word	seq_043_4 + 0x19
	.byte		N06   , An2 , v100
	.byte	W18
	.byte		        Cn3 
	.byte	W12
	.byte		        An2 
	.byte	W18
	.byte		N06
	.byte	W12
	.byte		N06
	.byte	W12
	.byte		        Fn2 
	.byte	W06
	.byte		        An2 
	.byte	W18
	.byte	PATT
	 .word	seq_043_4 + 0x19
	.byte	PATT
	 .word	seq_043_4 + 0x2A
	.byte	PATT
	 .word	seq_043_4 + 0x19
	.byte	W96
	.byte	W96
	.byte	W96
	.byte	W96
	.byte	W96
	.byte	W96
	.byte	W96
	.byte	W96
	.byte	W96
	.byte	W96
	.byte	W96
	.byte	W96
	.byte	W96
	.byte	GOTO
	 .word	seq_043_4 + 0x3
	.byte	FINE

@*********************** Track 06 ***********************@

seq_043_5:
	.byte	KEYSH , seq_043_key+0
	.byte		VOICE , 127
	.byte		VOL   , 77*seq_043_mvl/mxv
	.byte		PAN   , c_v+0
	.byte	W54
	.byte		N12   , Fn3 , v100
	.byte	W12
	.byte		N06
	.byte	W06
	.byte		N06
	.byte	W06
	.byte		N06
	.byte	W06
	.byte		N12
	.byte	W12
	.byte		N06   , Fs0 , v127
	.byte	W06
	.byte		        Cn3 
	.byte	W06
	.byte		        Gs0 
	.byte	W06
	.byte		        Cs3 
	.byte	W06
	.byte		        Gn0 
	.byte	W06
	.byte		        Cn3 
	.byte	W06
	.byte		        Gs0 
	.byte	W06
	.byte		        Cs3 
	.byte	W06
	.byte		        Gs0 
	.byte	W06
	.byte		        Fs0 
	.byte	W12
	.byte		        Gs0 
	.byte	W12
	.byte		        Fs0 
	.byte	W06
	.byte		        An0 
	.byte	W06
	.byte		        Cs3 
	.byte	W06
	.byte	PEND
	.byte	PATT
	 .word	seq_043_5 + 0x15
	.byte	PATT
	 .word	seq_043_5 + 0x15
	.byte	PATT
	 .word	seq_043_5 + 0x15
	.byte	PATT
	 .word	seq_043_5 + 0x15
	.byte	PATT
	 .word	seq_043_5 + 0x15
	.byte	PATT
	 .word	seq_043_5 + 0x15
	.byte	PATT
	 .word	seq_043_5 + 0x15
	.byte	PATT
	 .word	seq_043_5 + 0x15
	.byte	PATT
	 .word	seq_043_5 + 0x15
	.byte	PATT
	 .word	seq_043_5 + 0x15
	.byte	PATT
	 .word	seq_043_5 + 0x15
	.byte	PATT
	 .word	seq_043_5 + 0x15
	.byte	PATT
	 .word	seq_043_5 + 0x15
	.byte	PATT
	 .word	seq_043_5 + 0x15
	.byte	PATT
	 .word	seq_043_5 + 0x15
	.byte		N06   , Fs0 , v127
	.byte	W06
	.byte		N06
	.byte	W12
	.byte		N06
	.byte	W12
	.byte		N06
	.byte	W06
	.byte		N06
	.byte	W12
	.byte		N06
	.byte	W18
	.byte		        Cn3 
	.byte	W06
	.byte		N06
	.byte	W06
	.byte		N06
	.byte	W06
	.byte		        Cs3 
	.byte	W12
	.byte		        Fs0 
	.byte	W06
	.byte		        Cn3 
	.byte	W06
	.byte		        Fs0 
	.byte		N06   , Cn3 
	.byte	W06
	.byte		        Cs3 
	.byte	W06
	.byte		        Gn0 
	.byte		N06   , Cs3 
	.byte	W06
	.byte		        Cn3 
	.byte	W06
	.byte		        Fs0 
	.byte		N06   , Cn3 
	.byte	W06
	.byte		        Cs3 
	.byte	W06
	.byte		        Fs0 
	.byte		N06   , Cn3 
	.byte	W06
	.byte		        Fs0 
	.byte	W12
	.byte		N06
	.byte		N06   , Cn3 
	.byte	W12
	.byte		        Fs0 
	.byte	W06
	.byte		        Gn0 
	.byte		N06   , Cs3 
	.byte	W06
	.byte		N06
	.byte	W06
	.byte		        Fs0 
	.byte		N06   , Cs3 
	.byte	W06
	.byte		N03   , Cn3 
	.byte	W03
	.byte		N03
	.byte	W03
	.byte		N06   , Fs0 
	.byte		N06   , Cs3 
	.byte	W06
	.byte		N06
	.byte	W06
	.byte		        Gn0 
	.byte		N03   , Cn3 
	.byte	W03
	.byte		N03
	.byte	W03
	.byte		N06   , Cs3 
	.byte	W06
	.byte		        Fs0 
	.byte	W12
	.byte		N06
	.byte	W06
	.byte		N06
	.byte		N06   , Cn3 
	.byte	W06
	.byte		N06
	.byte	W06
	.byte		        Fs0 
	.byte		N06   , Cn3 
	.byte	W06
	.byte		N06
	.byte	W06
	.byte		        Fs0 
	.byte		N06   , Cn3 
	.byte	W06
	.byte		        Gn0 
	.byte		N06   , Cn3 
	.byte	W06
	.byte		N06
	.byte	W06
	.byte		        Fs0 
	.byte		N06   , Cn3 
	.byte	W12
	.byte		        Fs0 
	.byte		N06   , Cs3 
	.byte	W12
	.byte		        Gn0 
	.byte	W06
	.byte		        Cn3 
	.byte	W06
	.byte		        Fs0 
	.byte		N06   , Cn3 
	.byte	W06
	.byte		        Cs3 
	.byte	W06
	.byte		        Fs0 
	.byte		N06   , Cn3 
	.byte	W06
	.byte		        Fs0 
	.byte	W12
	.byte		N06
	.byte		N06   , Cn3 
	.byte	W12
	.byte		        Fs0 
	.byte	W06
	.byte		        Gn0 
	.byte		N06   , Cs3 
	.byte	W06
	.byte		N06
	.byte	W06
	.byte	W06
	.byte		        Cn3 
	.byte	W06
	.byte		N06
	.byte	W06
	.byte		        Cs3 
	.byte	W12
	.byte		        Cn3 
	.byte	W06
	.byte		N06
	.byte	W06
	.byte		        Cs3 
	.byte	W06
	.byte		N03   , Cn3 
	.byte	W03
	.byte		N03
	.byte	W03
	.byte		N03
	.byte	W03
	.byte		N03
	.byte	W03
	.byte		N03
	.byte	W36
	.byte	GOTO
	 .word	seq_043_5 + 0x15
	.byte	FINE

@******************************************************@

	.align	2

seq_043:
	.byte	6	@ NumTrks
	.byte	0	@ NumBlks
	.byte	seq_043_pri	@ Priority
	.byte	seq_043_rev	@ Reverb

	.word	seq_043_grp

	.word	seq_043_0
	.word	seq_043_1
	.word	seq_043_2
	.word	seq_043_3
	.word	seq_043_4
	.word	seq_043_5

	.end
