@ File generated by m4a2s Song-Module
	.include "MPlayDef.s"

	.equ	seq_041_grp, bank_030
	.equ	seq_041_pri, 0
	.equ	seq_041_rev, 148
	.equ	seq_041_mvl, 127
	.equ	seq_041_key, 0

	.section .rodata
	.global	seq_041
	.align	2

@*********************** Track 01 ***********************@

seq_041_0:
	.byte	KEYSH , seq_041_key+0
	.byte	TEMPO , 130/2
	.byte		VOICE , 61
	.byte		VOL   , 90*seq_041_mvl/mxv
	.byte		N18   , Gn3 , v120
	.byte	W18
	.byte		N06
	.byte	W06
	.byte		N06
	.byte	W06
	.byte		N06
	.byte	W12
	.byte		N06
	.byte	W06
	.byte		N18
	.byte	W18
	.byte		        Gs3 
	.byte	W18
	.byte		N12   , An3 
	.byte	W12
	.byte		N18   , As3 
	.byte	W18
	.byte		N06
	.byte	W12
	.byte		N06
	.byte	W12
	.byte		N06
	.byte	W06
	.byte		N24
	.byte	W48
	.byte		BEND  , c_v+0
	.byte	W24
	.byte		N10   , Gn3 , v120
	.byte	W12
	.byte		        An3 
	.byte	W12
	.byte		N16   , Fs3 
	.byte	W18
	.byte		N04   , Dn3 
	.byte	W18
	.byte		N09   , En3 
	.byte	W12
	.byte	W24
	.byte		N10   , Gn3 , v120
	.byte	W12
	.byte		        An3 
	.byte	W12
	.byte		N16   , Fs3 
	.byte	W18
	.byte		N04   , An3 
	.byte	W18
	.byte		N09   , Bn3 
	.byte	W12
	.byte	PEND
	.byte	W24
	.byte		N10   , Fn3 , v120
	.byte	W12
	.byte		        Gn3 
	.byte	W12
	.byte		N16   , En3 
	.byte	W18
	.byte		N04   , Cn3 
	.byte	W18
	.byte		N09   , Dn3 
	.byte	W12
	.byte	PEND
	.byte	W06
	.byte		PAN   , c_v+40
	.byte	W06
	.byte		VOICE , 78
	.byte	W12
	.byte		N10   , Fn4 , v100
	.byte	W12
	.byte		        Gn4 
	.byte	W12
	.byte		N16   , En4 
	.byte	W18
	.byte		        Fn4 
	.byte	W18
	.byte		N12   , Fs4 
	.byte	W12
	.byte		PAN   , c_v+0
	.byte	W12
	.byte		VOICE , 61
	.byte	W12
	.byte		N10   , Gn3 , v120
	.byte	W12
	.byte		        An3 
	.byte	W12
	.byte		N16   , Fs3 
	.byte	W18
	.byte		N04   , Dn3 
	.byte	W18
	.byte		N09   , En3 
	.byte	W12
	.byte	PATT
	 .word	seq_041_0 + 0x38
	.byte	PATT
	 .word	seq_041_0 + 0x49
	.byte	W23
	.byte		PAN   , c_v+0
	.byte	W01
	.byte		N10   , Fn3 , v120
	.byte	W12
	.byte		        Gn3 
	.byte	W12
	.byte		N21   , An3 
	.byte	W24
	.byte		N21
	.byte	W24
	.byte	W24
	.byte		N12   , En3 , v112
	.byte	W12
	.byte		        Fn3 
	.byte	W12
	.byte		N15   , Gn3 
	.byte	W18
	.byte		N05   , Dn4 
	.byte	W18
	.byte		N30   , Cn4 
	.byte	W12
	.byte	W24
	.byte		N12   , Cn3 
	.byte	W12
	.byte		        Fn3 
	.byte	W12
	.byte		N15   , As3 
	.byte	W18
	.byte		N05   , Cn4 
	.byte	W18
	.byte		N30   , An3 
	.byte	W12
	.byte	W24
	.byte		N12
	.byte	W12
	.byte		        Cn4 
	.byte	W12
	.byte		N15   , Gn4 
	.byte	W18
	.byte		N05   , Fn4 
	.byte	W18
	.byte		N18   , Cn5 
	.byte	W12
	.byte	W06
	.byte		N05   , Dn5 
	.byte	W06
	.byte		        Cn5 
	.byte	W06
	.byte		        Fn4 
	.byte	W06
	.byte		        Cn5 
	.byte	W06
	.byte		        As4 
	.byte	W06
	.byte		        Fn4 
	.byte	W06
	.byte		        Cn4 
	.byte	W06
	.byte		        Dn4 
	.byte	W06
	.byte		        Cn4 
	.byte	W06
	.byte		        As3 
	.byte	W06
	.byte		        Fn3 
	.byte	W06
	.byte		        As3 
	.byte	W06
	.byte		        An3 
	.byte	W06
	.byte		        Fn3 
	.byte	W06
	.byte		        Cn3 
	.byte	W06
	.byte	W24
	.byte		N12   , Dn3 
	.byte	W12
	.byte		        Fn3 
	.byte	W12
	.byte		N15   , As3 
	.byte	W18
	.byte		N05   , Cn4 
	.byte	W18
	.byte		N24   , An3 
	.byte	W12
	.byte	W12
	.byte		N12   , Gn3 
	.byte	W12
	.byte		        En3 
	.byte	W12
	.byte		        Fn3 
	.byte	W12
	.byte		N15   , Gn3 
	.byte	W18
	.byte		N05   , Dn4 
	.byte	W18
	.byte		N48   , Cn4 
	.byte	W12
	.byte	W36
	.byte		N06   , Gn3 
	.byte	W06
	.byte		        An3 
	.byte	W06
	.byte		N12   , Cn4 
	.byte	W12
	.byte		N06   , An3 
	.byte	W06
	.byte		        Cn4 
	.byte	W06
	.byte		N12   , En4 
	.byte	W12
	.byte		N06   , Dn4 
	.byte	W06
	.byte		        En4 
	.byte	W06
	.byte	W12
	.byte		N18   , Fn4 , v120
	.byte	W18
	.byte		        Ds4 
	.byte	W18
	.byte		        Cn4 
	.byte	W18
	.byte		N06   , As3 
	.byte	W18
	.byte		N30   , Cn4 
	.byte	W12
	.byte	W18
	.byte		N06
	.byte	W06
	.byte		N06
	.byte	W06
	.byte		N06
	.byte	W12
	.byte		N06
	.byte	W06
	.byte		N18
	.byte	W18
	.byte		        Cs4 
	.byte	W18
	.byte		N06   , Dn4 
	.byte	W12
	.byte		N18   , Ds4 
	.byte	W18
	.byte		N06
	.byte	W12
	.byte		N18
	.byte	W18
	.byte		N06   , En4 
	.byte	W06
	.byte		N06
	.byte	W12
	.byte		N06
	.byte	W12
	.byte		N18
	.byte	W09
	.byte		BEND  , c_v-1
	.byte	W01
	.byte		        c_v-3
	.byte	W01
	.byte		        c_v-5
	.byte	W01
	.byte		        c_v-9
	.byte	W01
	.byte		        c_v-20
	.byte	W01
	.byte		        c_v-27
	.byte	W01
	.byte		        c_v-35
	.byte	W01
	.byte		        c_v-44
	.byte	W01
	.byte		        c_v-55
	.byte	W01
	.byte	GOTO
	 .word	seq_041_0 + 0x26
	.byte	FINE

@*********************** Track 02 ***********************@

seq_041_1:
	.byte	KEYSH , seq_041_key+0
	.byte		VOICE , 34
	.byte		VOL   , 90*seq_041_mvl/mxv
	.byte		N18   , Gn1 , v120
	.byte	W18
	.byte		N04
	.byte	W06
	.byte		N04
	.byte	W06
	.byte		N04
	.byte	W12
	.byte		N04
	.byte	W06
	.byte		N18
	.byte	W18
	.byte		        Gs1 
	.byte	W18
	.byte		N12   , An1 
	.byte	W12
	.byte		N18   , As1 
	.byte	W18
	.byte		N04
	.byte	W12
	.byte		N04
	.byte	W12
	.byte		N04
	.byte	W06
	.byte		N24
	.byte	W48
	.byte		VOICE , 38
	.byte		N10   , Cn1 , v127
	.byte	W12
	.byte		N04
	.byte	W06
	.byte		N04
	.byte	W12
	.byte		N06   , En1 
	.byte	W12
	.byte		N03   , Gn1 
	.byte	W06
	.byte		N18   , Gn0 
	.byte	W18
	.byte		N06
	.byte	W06
	.byte		N12
	.byte	W12
	.byte		N12
	.byte	W12
	.byte	PEND
	.byte		N10   , Cn1 , v127
	.byte	W12
	.byte		N04
	.byte	W06
	.byte		N04
	.byte	W12
	.byte		N06   , En1 
	.byte	W12
	.byte		N03   , Gn1 
	.byte	W06
	.byte		N24   , Gn0 
	.byte	W24
	.byte		N12   , Gs0 
	.byte	W12
	.byte		        An0 
	.byte	W12
	.byte	PEND
	.byte		N10   , As0 , v127
	.byte	W12
	.byte		N04
	.byte	W06
	.byte		N04
	.byte	W12
	.byte		N06   , Dn1 
	.byte	W12
	.byte		N03   , Fn1 
	.byte	W06
	.byte		N18   , Fn0 
	.byte	W18
	.byte		N06
	.byte	W06
	.byte		N12
	.byte	W12
	.byte		N12
	.byte	W12
	.byte	PEND
	.byte		N10   , As0 
	.byte	W12
	.byte		N04
	.byte	W06
	.byte		N04
	.byte	W12
	.byte		N06   , Dn1 
	.byte	W12
	.byte		N03   , Fn1 
	.byte	W06
	.byte		N24   , Fn0 
	.byte	W24
	.byte		N12   , Gn0 
	.byte	W12
	.byte		        As0 
	.byte	W12
	.byte	PATT
	 .word	seq_041_1 + 0x24
	.byte	PATT
	 .word	seq_041_1 + 0x3E
	.byte	PATT
	 .word	seq_041_1 + 0x55
	.byte		N10   , As0 , v127
	.byte	W12
	.byte		N04
	.byte	W06
	.byte		N04
	.byte	W12
	.byte		N06   , Dn1 
	.byte	W12
	.byte		N03   , Fn1 
	.byte	W06
	.byte		N24   , Fn0 
	.byte	W24
	.byte		N12   , Gn0 
	.byte	W12
	.byte		        An0 
	.byte	W12
	.byte		N06   , En0 , v127
	.byte	W12
	.byte		        Fn0 
	.byte	W06
	.byte		        Gn0 
	.byte	W12
	.byte		        Fn1 
	.byte	W12
	.byte		N06
	.byte	W06
	.byte		N18   , Cn0 
	.byte	W24
	.byte		N06   , Dn0 
	.byte	W12
	.byte		        En0 
	.byte	W12
	.byte	PEND
	.byte		N06   , Cs0 , v127
	.byte	W12
	.byte		        Dn0 
	.byte	W06
	.byte		        En0 
	.byte	W12
	.byte		        Fn1 
	.byte	W12
	.byte		N06
	.byte	W06
	.byte		N18   , Cn0 
	.byte	W24
	.byte		N06   , Dn0 
	.byte	W12
	.byte		        En0 
	.byte	W12
	.byte	PEND
	.byte		        Fn0 
	.byte	W12
	.byte		        Gn0 
	.byte	W06
	.byte		        An0 
	.byte	W12
	.byte		        Gn1 
	.byte	W12
	.byte		N06
	.byte	W06
	.byte		N18   , Cn0 
	.byte	W24
	.byte		N06   , Dn0 
	.byte	W12
	.byte		        Fn0 
	.byte	W12
	.byte	PATT
	 .word	seq_041_1 + 0xA7
	.byte	PATT
	 .word	seq_041_1 + 0xBC
	.byte		N06   , Cs0 , v127
	.byte	W12
	.byte		        Dn0 
	.byte	W06
	.byte		        En0 
	.byte	W12
	.byte		        En1 
	.byte	W12
	.byte		N06
	.byte	W06
	.byte		N18   , Cn0 
	.byte	W24
	.byte		N06   , Dn0 
	.byte	W12
	.byte		        Fn0 
	.byte	W12
	.byte		        En0 
	.byte	W12
	.byte		        Fn0 
	.byte	W06
	.byte		        Gn0 
	.byte	W12
	.byte		        Gn1 
	.byte	W12
	.byte		N06
	.byte	W06
	.byte		N18   , Cn0 
	.byte	W24
	.byte		N06   , Dn0 
	.byte	W12
	.byte		        Fn0 
	.byte	W12
	.byte		        Cn1 
	.byte	W12
	.byte		        En1 
	.byte	W06
	.byte		        Fn1 
	.byte	W12
	.byte		        Cn2 
	.byte	W12
	.byte		N06
	.byte	W06
	.byte		N18   , Fn1 
	.byte	W24
	.byte		N06   , Cn1 
	.byte	W12
	.byte		        Fn0 
	.byte	W12
	.byte		N18   , Gn0 
	.byte	W18
	.byte		N06
	.byte	W06
	.byte		N06
	.byte	W06
	.byte		N06
	.byte	W12
	.byte		N06
	.byte	W06
	.byte		N18
	.byte	W18
	.byte		        Gs0 
	.byte	W18
	.byte		N06   , An0 
	.byte	W12
	.byte		N18   , As0 
	.byte	W18
	.byte		N06
	.byte	W12
	.byte		N18
	.byte	W18
	.byte		N06   , Bn0 
	.byte	W06
	.byte		N06
	.byte	W12
	.byte		N06
	.byte	W12
	.byte		N18   , As0 
	.byte	W18
	.byte	GOTO
	 .word	seq_041_1 + 0x24
	.byte	FINE

@*********************** Track 03 ***********************@

seq_041_2:
	.byte	KEYSH , seq_041_key+0
	.byte		VOICE , 102
	.byte		PAN   , c_v+0
	.byte		VOL   , 63*seq_041_mvl/mxv
	.byte		N18   , Dn3 , v060
	.byte	W18
	.byte		N06
	.byte	W06
	.byte		N06
	.byte	W06
	.byte		N06
	.byte	W12
	.byte		N06
	.byte	W06
	.byte		N18
	.byte	W18
	.byte		        Ds3 
	.byte	W18
	.byte		N12   , En3 
	.byte	W12
	.byte		N18   , Fn3 
	.byte	W18
	.byte		N06
	.byte	W12
	.byte		N06
	.byte	W12
	.byte		N06
	.byte	W06
	.byte		N24
	.byte	W48
	.byte		VOICE , 102
	.byte		BEND  , c_v+0
	.byte	W24
	.byte		N10   , En3 , v060
	.byte	W12
	.byte		        Fs3 
	.byte	W12
	.byte		N16   , Dn3 
	.byte	W18
	.byte		N04   , Bn2 
	.byte	W18
	.byte		N09   , Cn3 
	.byte	W12
	.byte	W24
	.byte		N10   , En3 , v060
	.byte	W12
	.byte		        Fs3 
	.byte	W12
	.byte		N16   , Dn3 
	.byte	W18
	.byte		N04   , Fs3 
	.byte	W18
	.byte		N09   , Gn3 
	.byte	W12
	.byte	PEND
	.byte	W24
	.byte		N10   , Dn3 , v060
	.byte	W12
	.byte		        En3 
	.byte	W12
	.byte		N16   , Cn3 
	.byte	W18
	.byte		N04   , An2 
	.byte	W18
	.byte		N09   , As2 
	.byte	W12
	.byte	PEND
	.byte	W96
	.byte	W24
	.byte		N10   , En3 
	.byte	W12
	.byte		        Fs3 
	.byte	W12
	.byte		N16   , Dn3 
	.byte	W18
	.byte		N04   , Bn2 
	.byte	W18
	.byte		N09   , Cn3 
	.byte	W12
	.byte	PATT
	 .word	seq_041_2 + 0x3A
	.byte	PATT
	 .word	seq_041_2 + 0x4B
	.byte	W48
	.byte		N21   , Fn3 , v060
	.byte	W24
	.byte		N21
	.byte	W24
	.byte	W96
	.byte	W96
	.byte	W96
	.byte	W96
	.byte	W96
	.byte	W96
	.byte	W96
	.byte		VOICE , 101
	.byte	W12
	.byte		N17   , As3 
	.byte	W18
	.byte		N17
	.byte	W18
	.byte		N17
	.byte	W36
	.byte		N28   , Fn3 
	.byte	W12
	.byte	W18
	.byte		N05
	.byte	W06
	.byte		N05
	.byte	W06
	.byte		N06
	.byte	W12
	.byte		N05
	.byte	W06
	.byte		N17
	.byte	W18
	.byte		        Fs3 
	.byte	W18
	.byte		N06   , Gn3 
	.byte	W12
	.byte		N17   , Gs3 
	.byte	W18
	.byte		N06
	.byte	W12
	.byte		N17
	.byte	W18
	.byte		N05   , An3 
	.byte	W06
	.byte		N06
	.byte	W12
	.byte		N06
	.byte	W12
	.byte		N18   , Gs3 
	.byte	W09
	.byte		BEND  , c_v-1
	.byte	W01
	.byte		        c_v-3
	.byte	W01
	.byte		        c_v-5
	.byte	W01
	.byte		        c_v-9
	.byte	W01
	.byte		        c_v-20
	.byte	W01
	.byte		        c_v-27
	.byte	W01
	.byte		        c_v-35
	.byte	W01
	.byte		        c_v-44
	.byte	W01
	.byte		        c_v-55
	.byte	W01
	.byte	GOTO
	 .word	seq_041_2 + 0x26
	.byte	FINE

@*********************** Track 04 ***********************@

seq_041_3:
	.byte	KEYSH , seq_041_key+0
	.byte	W96
	.byte	W96
	.byte		VOICE , 123
	.byte		PAN   , c_v-64
	.byte		VOL   , 90*seq_041_mvl/mxv
	.byte		BEND  , c_v+0
	.byte		N06   , Gn3 , v127
	.byte	W12
	.byte		        En4 
	.byte	W24
	.byte		        Fs3 
	.byte	W06
	.byte		N06
	.byte	W12
	.byte		        En4 
	.byte	W12
	.byte		        Fs3 
	.byte	W06
	.byte		N06
	.byte	W12
	.byte		        En4 
	.byte	W12
	.byte		N06   , Gn3 , v127
	.byte	W12
	.byte		        En4 
	.byte	W24
	.byte		        Fs3 
	.byte	W06
	.byte		N06
	.byte	W12
	.byte		        En4 
	.byte	W12
	.byte		        Fs3 
	.byte	W06
	.byte		N06
	.byte	W12
	.byte		        En4 
	.byte	W12
	.byte	PEND
	.byte		N06   , Fn3 , v127
	.byte	W12
	.byte		        Dn4 
	.byte	W24
	.byte		        En3 
	.byte	W06
	.byte		N06
	.byte	W12
	.byte		        Dn4 
	.byte	W12
	.byte		        En3 
	.byte	W06
	.byte		N06
	.byte	W12
	.byte		        Dn4 
	.byte	W12
	.byte	PEND
	.byte	PATT
	 .word	seq_041_3 + 0x31
	.byte	PATT
	 .word	seq_041_3 + 0x1E
	.byte	PATT
	 .word	seq_041_3 + 0x1E
	.byte	PATT
	 .word	seq_041_3 + 0x31
	.byte		N06   , Fn3 , v127
	.byte	W12
	.byte		        Dn4 
	.byte	W24
	.byte		        En3 
	.byte	W06
	.byte		N06
	.byte	W54
	.byte		VOICE , 112
	.byte		PAN   , c_v+0
	.byte		VOL   , 21*seq_041_mvl/mxv
	.byte		N48   , Fn3 , v080
	.byte	W13
	.byte		VOL   , 25*seq_041_mvl/mxv
	.byte	W06
	.byte		        31*seq_041_mvl/mxv
	.byte	W07
	.byte		        40*seq_041_mvl/mxv
	.byte	W07
	.byte		        51*seq_041_mvl/mxv
	.byte	W07
	.byte		        56*seq_041_mvl/mxv
	.byte	W08
	.byte		        21*seq_041_mvl/mxv
	.byte		N48   , En3 
	.byte	W13
	.byte		VOL   , 25*seq_041_mvl/mxv
	.byte	W06
	.byte		        31*seq_041_mvl/mxv
	.byte	W07
	.byte		        40*seq_041_mvl/mxv
	.byte	W07
	.byte		        51*seq_041_mvl/mxv
	.byte	W07
	.byte		        56*seq_041_mvl/mxv
	.byte	W08
	.byte		VOL   , 21*seq_041_mvl/mxv
	.byte		N48   , Ds3 , v080
	.byte	W13
	.byte		VOL   , 25*seq_041_mvl/mxv
	.byte	W06
	.byte		        31*seq_041_mvl/mxv
	.byte	W07
	.byte		        40*seq_041_mvl/mxv
	.byte	W07
	.byte		        51*seq_041_mvl/mxv
	.byte	W07
	.byte		        56*seq_041_mvl/mxv
	.byte	W08
	.byte		        21*seq_041_mvl/mxv
	.byte		N48   , Dn3 
	.byte	W13
	.byte		VOL   , 25*seq_041_mvl/mxv
	.byte	W06
	.byte		        31*seq_041_mvl/mxv
	.byte	W07
	.byte		        40*seq_041_mvl/mxv
	.byte	W07
	.byte		        51*seq_041_mvl/mxv
	.byte	W07
	.byte		        56*seq_041_mvl/mxv
	.byte	W08
	.byte	PEND
	.byte		        21*seq_041_mvl/mxv
	.byte		N48   , Fn3 
	.byte	W13
	.byte		VOL   , 25*seq_041_mvl/mxv
	.byte	W06
	.byte		        31*seq_041_mvl/mxv
	.byte	W07
	.byte		        40*seq_041_mvl/mxv
	.byte	W07
	.byte		        51*seq_041_mvl/mxv
	.byte	W07
	.byte		        56*seq_041_mvl/mxv
	.byte	W08
	.byte		        21*seq_041_mvl/mxv
	.byte		N48   , En3 
	.byte	W13
	.byte		VOL   , 25*seq_041_mvl/mxv
	.byte	W06
	.byte		        31*seq_041_mvl/mxv
	.byte	W07
	.byte		        40*seq_041_mvl/mxv
	.byte	W07
	.byte		        51*seq_041_mvl/mxv
	.byte	W07
	.byte		        56*seq_041_mvl/mxv
	.byte	W08
	.byte	PATT
	 .word	seq_041_3 + 0x86
	.byte		VOL   , 21*seq_041_mvl/mxv
	.byte		N96   , Fn2 , v080
	.byte	W24
	.byte	W02
	.byte		VOL   , 24*seq_041_mvl/mxv
	.byte	W13
	.byte		        30*seq_041_mvl/mxv
	.byte	W14
	.byte		        37*seq_041_mvl/mxv
	.byte	W13
	.byte		        46*seq_041_mvl/mxv
	.byte	W12
	.byte		        56*seq_041_mvl/mxv
	.byte	W06
	.byte		        63*seq_041_mvl/mxv
	.byte	W12
	.byte		        21*seq_041_mvl/mxv
	.byte		N96   , En2 
	.byte	W24
	.byte	W02
	.byte		VOL   , 24*seq_041_mvl/mxv
	.byte	W13
	.byte		        30*seq_041_mvl/mxv
	.byte	W14
	.byte		        37*seq_041_mvl/mxv
	.byte	W13
	.byte		        46*seq_041_mvl/mxv
	.byte	W12
	.byte		        56*seq_041_mvl/mxv
	.byte	W06
	.byte		        63*seq_041_mvl/mxv
	.byte	W12
	.byte		        21*seq_041_mvl/mxv
	.byte		N96   , Gn2 
	.byte	W24
	.byte	W02
	.byte		VOL   , 24*seq_041_mvl/mxv
	.byte	W13
	.byte		        30*seq_041_mvl/mxv
	.byte	W14
	.byte		        37*seq_041_mvl/mxv
	.byte	W13
	.byte		        46*seq_041_mvl/mxv
	.byte	W12
	.byte		        56*seq_041_mvl/mxv
	.byte	W06
	.byte		        63*seq_041_mvl/mxv
	.byte	W12
	.byte		VOICE , 102
	.byte		VOL   , 56*seq_041_mvl/mxv
	.byte	W12
	.byte		N17   , Gn3 , v060
	.byte	W18
	.byte		N17
	.byte	W18
	.byte		N17
	.byte	W18
	.byte		N06
	.byte	W18
	.byte		N28   , Dn3 
	.byte	W12
	.byte	W18
	.byte		N05
	.byte	W06
	.byte		N05
	.byte	W06
	.byte		N05
	.byte	W12
	.byte		N05
	.byte	W06
	.byte		N17
	.byte	W18
	.byte		        Ds3 
	.byte	W18
	.byte		N06   , En3 
	.byte	W12
	.byte		N17   , Fn3 
	.byte	W18
	.byte		N06
	.byte	W12
	.byte		N17
	.byte	W18
	.byte		N05   , Fs3 
	.byte	W06
	.byte		N06
	.byte	W12
	.byte		N06
	.byte	W12
	.byte		N18   , Fn3 
	.byte	W09
	.byte		BEND  , c_v-1
	.byte	W01
	.byte		        c_v-3
	.byte	W01
	.byte		        c_v-5
	.byte	W01
	.byte		        c_v-9
	.byte	W01
	.byte		        c_v-20
	.byte	W01
	.byte		        c_v-27
	.byte	W01
	.byte		        c_v-35
	.byte	W01
	.byte		        c_v-44
	.byte	W01
	.byte		        c_v-55
	.byte	W01
	.byte	GOTO
	 .word	seq_041_3 + 0x4
	.byte	FINE

@*********************** Track 05 ***********************@

seq_041_4:
	.byte	KEYSH , seq_041_key+0
	.byte	W96
	.byte		VOL   , 77*seq_041_mvl/mxv
	.byte	W72
	.byte		VOICE , 126
	.byte		PAN   , c_v-40
	.byte		N04   , As2 , v120
	.byte	W04
	.byte		N04
	.byte	W04
	.byte		N04
	.byte	W04
	.byte		PAN   , c_v+40
	.byte		N12   , Cs3 
	.byte	W12
	.byte		VOICE , 121
	.byte		PAN   , c_v+63
	.byte		VOL   , 56*seq_041_mvl/mxv
	.byte	W12
	.byte		N06   , Cn3 , v100
	.byte	W42
	.byte		N06
	.byte	W30
	.byte		N06
	.byte	W12
	.byte	W12
	.byte		N06   , Cn3 , v100
	.byte	W42
	.byte		N06
	.byte	W30
	.byte		N06
	.byte	W12
	.byte	PEND
	.byte	W12
	.byte		N06   , As2 , v100
	.byte	W42
	.byte		N06
	.byte	W30
	.byte		N06
	.byte	W12
	.byte	PEND
	.byte	W12
	.byte		N06
	.byte	W42
	.byte		N06
	.byte	W24
	.byte		        En2 
	.byte	W06
	.byte		        Fn2 
	.byte	W06
	.byte		        Fs2 
	.byte	W06
	.byte	PATT
	 .word	seq_041_4 + 0x26
	.byte	PATT
	 .word	seq_041_4 + 0x26
	.byte	PATT
	 .word	seq_041_4 + 0x30
	.byte	W12
	.byte		N06   , As2 , v100
	.byte	W84
	.byte		VOICE , 111
	.byte		PAN   , c_v+0
	.byte		VOL   , 21*seq_041_mvl/mxv
	.byte		N48   , An3 , v080
	.byte	W13
	.byte		VOL   , 25*seq_041_mvl/mxv
	.byte	W06
	.byte		        31*seq_041_mvl/mxv
	.byte	W07
	.byte		        40*seq_041_mvl/mxv
	.byte	W07
	.byte		        51*seq_041_mvl/mxv
	.byte	W07
	.byte		        56*seq_041_mvl/mxv
	.byte	W08
	.byte		        21*seq_041_mvl/mxv
	.byte		N48   , Gn3 
	.byte	W13
	.byte		VOL   , 25*seq_041_mvl/mxv
	.byte	W06
	.byte		        31*seq_041_mvl/mxv
	.byte	W07
	.byte		        40*seq_041_mvl/mxv
	.byte	W07
	.byte		        51*seq_041_mvl/mxv
	.byte	W07
	.byte		        56*seq_041_mvl/mxv
	.byte	W08
	.byte		        21*seq_041_mvl/mxv
	.byte		N48
	.byte	W13
	.byte		VOL   , 25*seq_041_mvl/mxv
	.byte	W06
	.byte		        31*seq_041_mvl/mxv
	.byte	W07
	.byte		        40*seq_041_mvl/mxv
	.byte	W07
	.byte		        51*seq_041_mvl/mxv
	.byte	W07
	.byte		        56*seq_041_mvl/mxv
	.byte	W08
	.byte		        21*seq_041_mvl/mxv
	.byte		N48   , Fn3 
	.byte	W13
	.byte		VOL   , 25*seq_041_mvl/mxv
	.byte	W06
	.byte		        31*seq_041_mvl/mxv
	.byte	W07
	.byte		        40*seq_041_mvl/mxv
	.byte	W07
	.byte		        51*seq_041_mvl/mxv
	.byte	W07
	.byte		        56*seq_041_mvl/mxv
	.byte	W08
	.byte		        21*seq_041_mvl/mxv
	.byte		N48   , Cn4 
	.byte	W13
	.byte		VOL   , 25*seq_041_mvl/mxv
	.byte	W06
	.byte		        31*seq_041_mvl/mxv
	.byte	W07
	.byte		        40*seq_041_mvl/mxv
	.byte	W07
	.byte		        51*seq_041_mvl/mxv
	.byte	W07
	.byte		        56*seq_041_mvl/mxv
	.byte	W08
	.byte		        21*seq_041_mvl/mxv
	.byte		N48   , Gn3 
	.byte	W13
	.byte		VOL   , 25*seq_041_mvl/mxv
	.byte	W06
	.byte		        31*seq_041_mvl/mxv
	.byte	W07
	.byte		        40*seq_041_mvl/mxv
	.byte	W07
	.byte		        51*seq_041_mvl/mxv
	.byte	W07
	.byte		        56*seq_041_mvl/mxv
	.byte	W08
	.byte		        21*seq_041_mvl/mxv
	.byte		N48   , Cn4 
	.byte	W13
	.byte		VOL   , 25*seq_041_mvl/mxv
	.byte	W06
	.byte		        31*seq_041_mvl/mxv
	.byte	W07
	.byte		        40*seq_041_mvl/mxv
	.byte	W07
	.byte		        51*seq_041_mvl/mxv
	.byte	W07
	.byte		        56*seq_041_mvl/mxv
	.byte	W08
	.byte		        21*seq_041_mvl/mxv
	.byte		N48   , Fn3 
	.byte	W13
	.byte		VOL   , 25*seq_041_mvl/mxv
	.byte	W06
	.byte		        31*seq_041_mvl/mxv
	.byte	W07
	.byte		        40*seq_041_mvl/mxv
	.byte	W07
	.byte		        51*seq_041_mvl/mxv
	.byte	W07
	.byte		        56*seq_041_mvl/mxv
	.byte	W08
	.byte		VOL   , 21*seq_041_mvl/mxv
	.byte		N96   , Dn3 , v080
	.byte	W24
	.byte	W02
	.byte		VOL   , 24*seq_041_mvl/mxv
	.byte	W13
	.byte		        30*seq_041_mvl/mxv
	.byte	W14
	.byte		        37*seq_041_mvl/mxv
	.byte	W13
	.byte		        46*seq_041_mvl/mxv
	.byte	W12
	.byte		        56*seq_041_mvl/mxv
	.byte	W06
	.byte		        63*seq_041_mvl/mxv
	.byte	W12
	.byte	PEND
	.byte	PATT
	 .word	seq_041_4 + 0xD6
	.byte		VOL   , 21*seq_041_mvl/mxv
	.byte		N96   , En3 , v080
	.byte	W24
	.byte	W02
	.byte		VOL   , 24*seq_041_mvl/mxv
	.byte	W13
	.byte		        30*seq_041_mvl/mxv
	.byte	W14
	.byte		        37*seq_041_mvl/mxv
	.byte	W13
	.byte		        46*seq_041_mvl/mxv
	.byte	W12
	.byte		        56*seq_041_mvl/mxv
	.byte	W06
	.byte		        63*seq_041_mvl/mxv
	.byte	W12
	.byte	W96
	.byte	W96
	.byte	W96
	.byte	GOTO
	 .word	seq_041_4 + 0x17
	.byte	FINE

@*********************** Track 06 ***********************@

seq_041_5:
	.byte	KEYSH , seq_041_key+0
	.byte		VOICE , 127
	.byte		VOL   , 90*seq_041_mvl/mxv
	.byte		PAN   , c_v+0
	.byte		N06   , Cs3 , v127
	.byte	W06
	.byte		N06
	.byte	W06
	.byte		        Cn3 
	.byte	W06
	.byte		N06
	.byte	W06
	.byte		N06
	.byte	W06
	.byte		N06
	.byte	W06
	.byte		N06
	.byte	W06
	.byte		N06
	.byte	W06
	.byte		N08
	.byte	W08
	.byte		        Cs3 
	.byte	W08
	.byte		        Cn3 
	.byte	W08
	.byte		        Cs3 
	.byte	W08
	.byte		        Cn3 
	.byte	W08
	.byte		        Cs3 
	.byte	W08
	.byte		N06   , Cn3 
	.byte	W18
	.byte		N06
	.byte	W12
	.byte		N06
	.byte	W12
	.byte		N06
	.byte	W06
	.byte		N06
	.byte	W48
	.byte		N06   , DnM1, v127
	.byte	W12
	.byte		        Cn3 
	.byte	W12
	.byte		N12   , Ds7 , v112
	.byte	W12
	.byte		N06   , DnM1, v127
	.byte	W06
	.byte		        Cs3 
	.byte	W06
	.byte		        DsM1, v108
	.byte	W06
	.byte		        Cn3 , v127
	.byte	W12
	.byte		        Ds7 , v112
	.byte	W06
	.byte		        Cn3 , v127
	.byte	W12
	.byte		        Ds7 , v112
	.byte	W06
	.byte		        Cs3 , v127
	.byte	W06
	.byte	PEND
	.byte		N06   , DnM1, v127
	.byte	W12
	.byte		        Cn3 
	.byte	W12
	.byte		N12   , Ds7 , v112
	.byte	W12
	.byte		N06   , DnM1, v127
	.byte	W06
	.byte		        Cs3 
	.byte	W06
	.byte		        DsM1, v108
	.byte	W06
	.byte		        Cn3 , v127
	.byte	W12
	.byte		N06
	.byte	W06
	.byte		N12   , Ds7 , v112
	.byte	W12
	.byte		N06   , Cs3 , v127
	.byte	W06
	.byte		N06
	.byte	W06
	.byte	PEND
	.byte	PATT
	 .word	seq_041_5 + 0x31
	.byte		N06   , DnM1, v127
	.byte	W12
	.byte		        Cn3 
	.byte	W12
	.byte		N12   , Ds7 , v112
	.byte	W12
	.byte		N06   , DnM1, v127
	.byte	W06
	.byte		        Cs3 
	.byte	W06
	.byte		        DsM1, v108
	.byte	W06
	.byte		        Fn3 , v112
	.byte	W06
	.byte		N12
	.byte	W12
	.byte		N06
	.byte	W06
	.byte		N06
	.byte	W06
	.byte		N12
	.byte	W12
	.byte	PATT
	 .word	seq_041_5 + 0x31
	.byte	PATT
	 .word	seq_041_5 + 0x54
	.byte	PATT
	 .word	seq_041_5 + 0x31
	.byte		N06   , DnM1, v127
	.byte	W12
	.byte		        Cn3 
	.byte	W12
	.byte		N12   , Ds7 , v112
	.byte	W12
	.byte		N06   , DnM1, v127
	.byte	W06
	.byte		        Cs3 
	.byte	W06
	.byte		        DsM1, v108
	.byte	W06
	.byte		        Fn3 , v112
	.byte	W12
	.byte		N06
	.byte	W06
	.byte		N06
	.byte	W06
	.byte		N06
	.byte	W06
	.byte		N06
	.byte	W06
	.byte		N06
	.byte	W06
	.byte	PEND
	.byte	PATT
	 .word	seq_041_5 + 0x54
	.byte	PATT
	 .word	seq_041_5 + 0x54
	.byte	PATT
	 .word	seq_041_5 + 0x54
	.byte	PATT
	 .word	seq_041_5 + 0xA9
	.byte	PATT
	 .word	seq_041_5 + 0x54
	.byte	PATT
	 .word	seq_041_5 + 0x54
	.byte	PATT
	 .word	seq_041_5 + 0x54
	.byte		N06   , DnM1, v127
	.byte	W12
	.byte		        Cn3 
	.byte	W12
	.byte		        Ds7 , v112
	.byte	W06
	.byte		        Cn3 , v127
	.byte	W06
	.byte		        DsM1, v108
	.byte	W12
	.byte		        DnM1, v127
	.byte	W06
	.byte		        Cn3 
	.byte	W12
	.byte		        Cs3 
	.byte	W06
	.byte		N12   , Ds7 , v112
	.byte	W12
	.byte		N06   , Cn3 , v127
	.byte	W06
	.byte		N06
	.byte	W06
	.byte	PATT
	 .word	seq_041_5 + 0x54
	.byte		N06   , DsM1, v108
	.byte	W12
	.byte		N03   , Fn3 , v080
	.byte	W03
	.byte		        Fn3 , v092
	.byte	W03
	.byte		N06   , Fn3 , v112
	.byte	W06
	.byte		        Ds7 
	.byte	W06
	.byte		        Fn3 
	.byte	W06
	.byte		        DsM1, v108
	.byte	W06
	.byte		        Fn3 , v112
	.byte	W06
	.byte		N06
	.byte	W06
	.byte		N12
	.byte	W12
	.byte		N06
	.byte	W06
	.byte		        Ds7 
	.byte	W06
	.byte		        Fn3 
	.byte	W06
	.byte		N06
	.byte	W06
	.byte		N06
	.byte	W06
	.byte	GOTO
	 .word	seq_041_5 + 0x31
	.byte	FINE

@******************************************************@

	.align	2

seq_041:
	.byte	6	@ NumTrks
	.byte	0	@ NumBlks
	.byte	seq_041_pri	@ Priority
	.byte	seq_041_rev	@ Reverb

	.word	seq_041_grp

	.word	seq_041_0
	.word	seq_041_1
	.word	seq_041_2
	.word	seq_041_3
	.word	seq_041_4
	.word	seq_041_5

	.end
