@ File generated by m4a2s Song-Module
	.include "MPlayDef.s"

	.equ	seq_026_grp, bank_021
	.equ	seq_026_pri, 0
	.equ	seq_026_rev, 148
	.equ	seq_026_mvl, 127
	.equ	seq_026_key, 0

	.section .rodata
	.global	seq_026
	.align	2

@*********************** Track 01 ***********************@

seq_026_0:
	.byte	KEYSH , seq_026_key+0
	.byte	TEMPO , 130/2
	.byte	W96
	.byte	W96
	.byte		VOICE , 61
	.byte		VOL   , 110*seq_026_mvl/mxv
	.byte		PAN   , c_v-20
	.byte		N06   , Dn4 , v120
	.byte	W12
	.byte		VOICE , 60
	.byte		N04
	.byte	W06
	.byte		N04
	.byte	W06
	.byte		VOICE , 61
	.byte		N05
	.byte	W12
	.byte		N05
	.byte	W12
	.byte		        En4 
	.byte	W12
	.byte		        Dn4 
	.byte	W12
	.byte		        Cn4 
	.byte	W12
	.byte		        En4 
	.byte	W12
	.byte		VOICE , 60
	.byte		N05   , Gn3 , v120
	.byte	W06
	.byte		        Bn3 
	.byte	W06
	.byte		VOICE , 61
	.byte		N04   , Dn4 
	.byte	W12
	.byte		N05   , Bn3 
	.byte	W12
	.byte		        Gn3 
	.byte	W12
	.byte		        An3 
	.byte	W12
	.byte		        Fn3 
	.byte	W12
	.byte		        Dn3 
	.byte	W12
	.byte		        Dn4 
	.byte	W12
	.byte	PEND
	.byte		N06   , Dn4 , v120
	.byte	W12
	.byte		VOICE , 60
	.byte		N04
	.byte	W06
	.byte		N04
	.byte	W06
	.byte		VOICE , 61
	.byte		N05
	.byte	W12
	.byte		N05
	.byte	W12
	.byte		        En4 
	.byte	W12
	.byte		        Dn4 
	.byte	W12
	.byte		        Cn4 
	.byte	W12
	.byte		        En4 
	.byte	W12
	.byte	PEND
	.byte		VOICE , 60
	.byte		N05   , Gn3 
	.byte	W06
	.byte		        Bn3 
	.byte	W06
	.byte		VOICE , 61
	.byte		N04   , Dn4 
	.byte	W12
	.byte		N05   , Bn3 
	.byte	W12
	.byte		        Gn3 
	.byte	W12
	.byte		        An3 
	.byte	W12
	.byte		        Fn3 
	.byte	W12
	.byte		        Gn3 
	.byte	W12
	.byte		        Gn4 
	.byte	W12
	.byte	PATT
	 .word	seq_026_0 + 0x3F
	.byte	PATT
	 .word	seq_026_0 + 0x24
	.byte	PATT
	 .word	seq_026_0 + 0x3F
	.byte		VOICE , 60
	.byte		N05   , Gn3 , v120
	.byte	W06
	.byte		        Bn3 
	.byte	W06
	.byte		VOICE , 61
	.byte		N04   , Dn4 
	.byte	W12
	.byte		N05   , Bn3 
	.byte	W12
	.byte		        Gn3 
	.byte	W12
	.byte		        An3 
	.byte	W12
	.byte		        Fn3 
	.byte	W12
	.byte		        Gn3 
	.byte	W12
	.byte		        Gn4 , v100
	.byte	W12
	.byte	W12
	.byte		VOICE , 50
	.byte		VOL   , 110*seq_026_mvl/mxv
	.byte		PAN   , c_v+0
	.byte		N05   , Bn3 , v072
	.byte	W12
	.byte		N05
	.byte	W12
	.byte		N05
	.byte	W12
	.byte		        An3 
	.byte	W12
	.byte		N18   , Bn3 , v080
	.byte	W24
	.byte		N04   , An3 , v072
	.byte	W12
	.byte		N04
	.byte	W12
	.byte		N48   , Gn3 
	.byte	W84
	.byte	W12
	.byte		N05   , Bn3 
	.byte	W12
	.byte		N05
	.byte	W12
	.byte		N05
	.byte	W12
	.byte		VOICE , 48
	.byte		N12
	.byte	W12
	.byte		VOICE , 50
	.byte		N05   , Cn4 , v080
	.byte	W12
	.byte		        Dn4 
	.byte	W12
	.byte		        Gn3 , v072
	.byte	W12
	.byte		N04   , En3 
	.byte	W12
	.byte		VOICE , 48
	.byte		N60   , Gn3 
	.byte	W60
	.byte		VOICE , 50
	.byte		N08   , An3 
	.byte	W24
	.byte	W12
	.byte		VOICE , 48
	.byte		N24   , Dn4 , v092
	.byte	W24
	.byte		VOICE , 50
	.byte		N05   , En4 , v072
	.byte	W12
	.byte		VOICE , 48
	.byte		N05   , Bn3 
	.byte	W06
	.byte		        An3 , v080
	.byte	W06
	.byte		VOICE , 50
	.byte		N08   , Gn3 , v072
	.byte	W24
	.byte		N05
	.byte	W12
	.byte		N04   , An3 
	.byte	W12
	.byte		N48   , Gn3 
	.byte	W60
	.byte		N08   , En3 
	.byte	W24
	.byte		N06
	.byte	W12
	.byte		VOICE , 48
	.byte		N80   , Dn3 , v060
	.byte	W84
	.byte		VOICE , 60
	.byte		VOL   , 110*seq_026_mvl/mxv
	.byte		PAN   , c_v-20
	.byte		N44   , Fn3 , v080
	.byte	W48
	.byte		VOICE , 61
	.byte		N48   , Gn3 , v092
	.byte	W48
	.byte	W12
	.byte		VOICE , 50
	.byte		VOL   , 95*seq_026_mvl/mxv
	.byte		PAN   , c_v+0
	.byte		N05   , Gn4 , v068
	.byte	W12
	.byte		N05
	.byte	W12
	.byte		N05
	.byte	W12
	.byte		        An4 
	.byte	W12
	.byte		N20   , Gn4 , v076
	.byte	W24
	.byte		N05   , En4 , v068
	.byte	W12
	.byte		VOICE , 48
	.byte		N06   , Ds4 , v088
	.byte	W06
	.byte		        En4 , v068
	.byte	W06
	.byte		VOICE , 50
	.byte		N48   , Gn4 
	.byte	W60
	.byte		N08   , En4 , v072
	.byte	W24
	.byte		VOICE , 48
	.byte		N96   , Dn4 , v052
	.byte	W96
	.byte		VOICE , 61
	.byte		VOL   , 110*seq_026_mvl/mxv
	.byte		PAN   , c_v-20
	.byte		N04   , An3 , v080
	.byte	W12
	.byte		N48   , Gn3 , v072
	.byte	W84
	.byte	W12
	.byte		VOICE , 50
	.byte		VOL   , 110*seq_026_mvl/mxv
	.byte		PAN   , c_v+0
	.byte		N05   , Gn4 , v060
	.byte	W12
	.byte		N05
	.byte	W12
	.byte		N05
	.byte	W12
	.byte		        An4 
	.byte	W12
	.byte		N20   , Gn4 , v072
	.byte	W24
	.byte		N05   , En4 , v060
	.byte	W12
	.byte		VOICE , 48
	.byte		N06   , Ds4 , v080
	.byte	W06
	.byte		        En4 , v064
	.byte	W06
	.byte		VOICE , 50
	.byte		N48   , Gn4 
	.byte	W56
	.byte	W03
	.byte		VOICE , 48
	.byte	W01
	.byte		N24   , Gn4 , v084
	.byte	W24
	.byte		VOICE , 50
	.byte		N08   , An4 , v076
	.byte	W68
	.byte	W03
	.byte		VOICE , 48
	.byte		BEND  , c_v-55
	.byte		N24   , An4 , v088
	.byte	W01
	.byte		BEND  , c_v-40
	.byte	W01
	.byte		        c_v-32
	.byte	W02
	.byte		        c_v+0
	.byte	W21
	.byte		VOICE , 50
	.byte		N06   , Bn4 
	.byte	W12
	.byte		N05   , An4 , v064
	.byte	W12
	.byte		        Bn4 
	.byte	W12
	.byte		N36   , Dn5 , v080
	.byte	W60
	.byte		VOICE , 61
	.byte		VOL   , 110*seq_026_mvl/mxv
	.byte		PAN   , c_v-20
	.byte		N60   , En3 , v092
	.byte	W72
	.byte		N06
	.byte	W12
	.byte		        Fs3 
	.byte	W12
	.byte		N04   , Gn3 
	.byte	W12
	.byte		N48   , Bn3 
	.byte	W60
	.byte		N09
	.byte	W24
	.byte		VOICE , 60
	.byte		N06   , An3 
	.byte	W06
	.byte		        Fs3 
	.byte	W06
	.byte		VOICE , 61
	.byte		N48   , Dn3 
	.byte	W60
	.byte		VOICE , 60
	.byte		N23
	.byte	W24
	.byte		VOICE , 61
	.byte		N72   , En3 
	.byte	W96
	.byte		N60   , En4 
	.byte	W72
	.byte		N08
	.byte	W24
	.byte		VOICE , 60
	.byte		N06   , Dn4 
	.byte	W06
	.byte		        Bn3 , v080
	.byte	W06
	.byte		VOICE , 61
	.byte		N24   , Gn3 
	.byte	W36
	.byte		N40   , Bn3 , v092
	.byte	W48
	.byte		N96   , An3 , v080
	.byte	W96
	.byte	W48
	.byte		N15   , Dn3 , v092
	.byte	W24
	.byte		N15
	.byte	W24
	.byte		TIE   , En3 
	.byte	W96
	.byte	W36
	.byte		EOT
	.byte	W60
	.byte	GOTO
	 .word	seq_026_0 + 0x2
	.byte	W96
	.byte	FINE

@*********************** Track 02 ***********************@

seq_026_1:
	.byte	KEYSH , seq_026_key+0
	.byte	W10
	.byte		VOICE , 50
	.byte		VOL   , 103*seq_026_mvl/mxv
	.byte		PAN   , c_v+0
	.byte		N04   , Bn3 , v048
	.byte	W24
	.byte		        Bn3 , v052
	.byte	W24
	.byte		        Bn3 , v056
	.byte	W24
	.byte		        Bn3 , v060
	.byte	W14
	.byte	W10
	.byte		        Bn3 , v068
	.byte	W24
	.byte		        Bn3 , v072
	.byte	W24
	.byte		        Bn3 , v080
	.byte	W24
	.byte		        Bn3 , v092
	.byte	W14
	.byte		VOICE , 52
	.byte		VOL   , 103*seq_026_mvl/mxv
	.byte		PAN   , c_v-64
	.byte		N06   , Dn4 
	.byte	W48
	.byte		VOICE , 50
	.byte		N05   , En4 
	.byte	W12
	.byte		N05
	.byte	W12
	.byte		N05
	.byte	W24
	.byte		VOICE , 48
	.byte		N24   , Gn3 , v092
	.byte	W24
	.byte		VOICE , 50
	.byte		N06   , Bn3 , v076
	.byte	W12
	.byte		        Gn3 
	.byte	W12
	.byte		N05   , Fn3 
	.byte	W12
	.byte		        Cn3 
	.byte	W12
	.byte		        An2 
	.byte	W24
	.byte	PEND
	.byte		VOICE , 52
	.byte		N06   , Dn4 , v092
	.byte	W48
	.byte		VOICE , 50
	.byte		N05   , En4 
	.byte	W12
	.byte		N05
	.byte	W12
	.byte		N05
	.byte	W24
	.byte	PEND
	.byte		VOICE , 48
	.byte		N24   , Gn3 
	.byte	W24
	.byte		VOICE , 50
	.byte		N06   , Bn3 , v076
	.byte	W12
	.byte		        Gn3 
	.byte	W12
	.byte		N05   , Fn3 , v092
	.byte	W12
	.byte		        Cn3 
	.byte	W12
	.byte		        Dn3 
	.byte	W12
	.byte		        Gn4 
	.byte	W12
	.byte	PATT
	 .word	seq_026_1 + 0x4B
	.byte	PATT
	 .word	seq_026_1 + 0x35
	.byte	PATT
	 .word	seq_026_1 + 0x4B
	.byte		VOICE , 48
	.byte		N24   , Gn3 , v092
	.byte	W24
	.byte		VOICE , 50
	.byte		N06   , Bn3 , v076
	.byte	W12
	.byte		        Gn3 
	.byte	W12
	.byte		N05   , Fn3 , v092
	.byte	W12
	.byte		        Cn3 
	.byte	W12
	.byte		        Dn3 
	.byte	W12
	.byte		        Gn4 , v072
	.byte	W12
	.byte		VOICE , 51
	.byte		VOL   , 103*seq_026_mvl/mxv
	.byte		PAN   , c_v+0
	.byte	W12
	.byte		N04   , Bn2 
	.byte	W24
	.byte		N04
	.byte	W24
	.byte		N04
	.byte	W24
	.byte		N04
	.byte	W12
	.byte	W12
	.byte		N04   , Gn2 , v072
	.byte	W24
	.byte		N04
	.byte	W24
	.byte		N04
	.byte	W24
	.byte		N04
	.byte	W12
	.byte	PEND
	.byte	W12
	.byte		        Bn2 
	.byte	W24
	.byte		N04
	.byte	W24
	.byte		        Gn2 
	.byte	W24
	.byte		N04
	.byte	W12
	.byte	PATT
	 .word	seq_026_1 + 0xAA
	.byte	W12
	.byte		N04   , Bn2 , v072
	.byte	W24
	.byte		N04
	.byte	W24
	.byte		N04
	.byte	W24
	.byte		N04
	.byte	W12
	.byte	PEND
	.byte	W12
	.byte		N04   , Cn3 , v072
	.byte	W24
	.byte		N04
	.byte	W24
	.byte		N04
	.byte	W24
	.byte		N04
	.byte	W12
	.byte	PEND
	.byte	PATT
	 .word	seq_026_1 + 0xC4
	.byte	W12
	.byte		N04   , Bn2 , v072
	.byte	W24
	.byte		N04
	.byte	W24
	.byte		        Bn2 , v080
	.byte	W24
	.byte		N04
	.byte	W12
	.byte	PATT
	 .word	seq_026_1 + 0xD0
	.byte	PATT
	 .word	seq_026_1 + 0xD0
	.byte	PATT
	 .word	seq_026_1 + 0xC4
	.byte	PATT
	 .word	seq_026_1 + 0xC4
	.byte	PATT
	 .word	seq_026_1 + 0xD0
	.byte	W12
	.byte		N04   , Cn3 , v072
	.byte	W24
	.byte		        Cn3 , v080
	.byte	W24
	.byte		        Cn3 , v088
	.byte	W24
	.byte		        Cn3 , v100
	.byte	W12
	.byte		N12   , Dn3 
	.byte	W96
	.byte		        Dn3 , v084
	.byte	W96
	.byte	W12
	.byte		N04   , En3 , v072
	.byte	W24
	.byte		N04
	.byte	W24
	.byte		N04
	.byte	W24
	.byte		        Fs3 
	.byte	W12
	.byte	W12
	.byte		N04   , Gn3 , v072
	.byte	W24
	.byte		N04
	.byte	W24
	.byte		N04
	.byte	W24
	.byte		N04
	.byte	W12
	.byte	PEND
	.byte	W12
	.byte		        Fs3 
	.byte	W24
	.byte		N04
	.byte	W24
	.byte		N04
	.byte	W24
	.byte		N04
	.byte	W12
	.byte	W12
	.byte		        En3 
	.byte	W24
	.byte		N04
	.byte	W24
	.byte		        En3 , v092
	.byte	W36
	.byte	PATT
	 .word	seq_026_1 + 0x125
	.byte	W12
	.byte		N04   , Bn3 , v072
	.byte	W24
	.byte		N04
	.byte	W24
	.byte		        Gn3 
	.byte	W24
	.byte		N04
	.byte	W12
	.byte	W12
	.byte		        Dn3 
	.byte	W24
	.byte		        Dn3 , v076
	.byte	W24
	.byte		        Dn3 , v080
	.byte	W24
	.byte		        Dn3 , v084
	.byte	W12
	.byte		VOICE , 49
	.byte		N06   , Fs3 , v092
	.byte	W06
	.byte		        Dn3 , v080
	.byte	W06
	.byte		N36   , Fs3 , v092
	.byte	W60
	.byte		N24
	.byte	W24
	.byte		N48   , En3 , v084
	.byte	W48
	.byte		N24
	.byte	W24
	.byte		N24
	.byte	W24
	.byte		N48
	.byte	W72
	.byte		N24   , Fs3 , v096
	.byte	W24
	.byte	GOTO
	 .word	seq_026_1 + 0x2
	.byte	W96
	.byte	FINE

@*********************** Track 03 ***********************@

seq_026_2:
	.byte	KEYSH , seq_026_key+0
	.byte		VOICE , 47
	.byte		VOL   , 110*seq_026_mvl/mxv
	.byte		PAN   , c_v+0
	.byte		N12   , Gn1 , v072
	.byte	W12
	.byte		        Dn2 
	.byte	W12
	.byte		        Gn1 
	.byte	W12
	.byte		        Dn2 
	.byte	W12
	.byte		        Gn1 , v076
	.byte	W12
	.byte		        Dn2 
	.byte	W12
	.byte		        Gn1 
	.byte	W12
	.byte		        Dn2 
	.byte	W12
	.byte		        Gn1 , v084
	.byte	W12
	.byte		        Dn2 
	.byte	W12
	.byte		        Gn1 
	.byte	W12
	.byte		        Dn2 , v096
	.byte	W12
	.byte		        Gn1 , v108
	.byte	W12
	.byte		        Dn2 
	.byte	W12
	.byte		        Gn1 , v112
	.byte	W12
	.byte		        Dn2 , v120
	.byte	W12
	.byte		N44   , Gn1 , v127
	.byte	W48
	.byte		N12   , Cn2 , v120
	.byte	W12
	.byte		        Cn2 , v108
	.byte	W12
	.byte		N22   , Cn2 , v112
	.byte	W24
	.byte	PEND
	.byte		        Bn1 , v116
	.byte	W24
	.byte		        Gn1 , v108
	.byte	W24
	.byte		        Fn1 
	.byte	W24
	.byte		        Dn1 , v096
	.byte	W24
	.byte	PATT
	 .word	seq_026_2 + 0x30
	.byte		N22   , Bn1 , v108
	.byte	W24
	.byte		        Gn1 
	.byte	W24
	.byte		N12   , Fn1 
	.byte	W12
	.byte		        Dn1 
	.byte	W12
	.byte		N22   , Gn1 
	.byte	W24
	.byte	PEND
	.byte		N44   , Gn1 , v127
	.byte	W48
	.byte		N12   , Cn2 , v120
	.byte	W12
	.byte		        Cn2 , v108
	.byte	W12
	.byte		N22   , Cn2 , v116
	.byte	W24
	.byte		        Bn1 , v108
	.byte	W24
	.byte		        Gn1 
	.byte	W24
	.byte		        Fn1 
	.byte	W24
	.byte		        Dn1 , v096
	.byte	W24
	.byte		        Gn1 , v127
	.byte	W48
	.byte		N12   , Cn2 , v120
	.byte	W12
	.byte		        Cn2 , v108
	.byte	W12
	.byte		N22   , Cn2 , v116
	.byte	W24
	.byte	PATT
	 .word	seq_026_2 + 0x50
	.byte	W12
	.byte		VOICE , 51
	.byte		VOL   , 95*seq_026_mvl/mxv
	.byte		PAN   , c_v+0
	.byte		N05   , Dn3 , v072
	.byte	W12
	.byte		N05
	.byte	W12
	.byte		N05
	.byte	W12
	.byte		N05
	.byte	W12
	.byte		N18   , Dn3 , v080
	.byte	W24
	.byte		N04   , Dn3 , v072
	.byte	W12
	.byte		        Cn3 
	.byte	W12
	.byte		N44
	.byte	W48
	.byte		N04   , En2 
	.byte	W24
	.byte		N04
	.byte	W12
	.byte		VOICE , 105
	.byte		VOL   , 95*seq_026_mvl/mxv
	.byte		PAN   , c_v+20
	.byte		N04   , Gn2 , v080
	.byte	W48
	.byte		        Bn3 , v068
	.byte	W06
	.byte		        Gn3 
	.byte	W06
	.byte		        Dn3 
	.byte	W06
	.byte		        Bn3 
	.byte	W06
	.byte		        Gn3 
	.byte	W06
	.byte		        Dn3 
	.byte	W06
	.byte		        Bn3 
	.byte	W06
	.byte		        Gn3 
	.byte	W06
	.byte		        As3 
	.byte	W06
	.byte		        An3 
	.byte	W06
	.byte		        Gn3 
	.byte	W06
	.byte		        As3 
	.byte	W06
	.byte		        An3 
	.byte	W06
	.byte		        Gn3 
	.byte	W06
	.byte		        As3 
	.byte	W06
	.byte		        An3 
	.byte	W06
	.byte		        Gn3 
	.byte	W06
	.byte		        As3 
	.byte	W06
	.byte		        An3 
	.byte	W06
	.byte		        Gn3 
	.byte	W06
	.byte		        As3 , v076
	.byte	W06
	.byte		        An3 
	.byte	W06
	.byte		        Gn3 , v084
	.byte	W06
	.byte		        Gn4 
	.byte	W06
	.byte	W12
	.byte		VOICE , 51
	.byte		VOL   , 95*seq_026_mvl/mxv
	.byte		PAN   , c_v+0
	.byte		N18   , Gn3 , v092
	.byte	W24
	.byte		N05   , Gn3 , v072
	.byte	W12
	.byte		N05
	.byte	W48
	.byte		N04   , Cn3 
	.byte	W12
	.byte		N48
	.byte	W60
	.byte		N08
	.byte	W24
	.byte		N06   , Bn2 
	.byte	W12
	.byte		N32
	.byte	W36
	.byte		VOICE , 61
	.byte		VOL   , 110*seq_026_mvl/mxv
	.byte		PAN   , c_v-20
	.byte		N48   , En3 
	.byte	W48
	.byte		VOICE , 120
	.byte		VOL   , 83*seq_026_mvl/mxv
	.byte		PAN   , c_v+0
	.byte		N44   , Dn2 , v127
	.byte	W48
	.byte		N48
	.byte	W48
	.byte	W12
	.byte		VOICE , 50
	.byte		VOL   , 95*seq_026_mvl/mxv
	.byte		PAN   , c_v+0
	.byte		N05   , Cn4 , v072
	.byte	W12
	.byte		N05
	.byte	W12
	.byte		N05
	.byte	W12
	.byte		N05
	.byte	W12
	.byte		N20   , Cn4 , v080
	.byte	W24
	.byte		N05   , Cn4 , v072
	.byte	W12
	.byte	PEND
	.byte		N60
	.byte	W72
	.byte		N08
	.byte	W24
	.byte		VOICE , 61
	.byte		PAN   , c_v+0
	.byte		VOL   , 110*seq_026_mvl/mxv
	.byte		N16   , Bn3 , v100
	.byte	W24
	.byte		N16
	.byte	W24
	.byte		N04   , An3 
	.byte	W12
	.byte		N20   , Bn3 
	.byte	W24
	.byte		N04
	.byte	W12
	.byte		        Cn3 , v080
	.byte	W12
	.byte		N48   , Bn2 , v072
	.byte	W84
	.byte	PATT
	 .word	seq_026_2 + 0x11C
	.byte		N60   , Cn4 , v072
	.byte	W72
	.byte		VOICE , 48
	.byte		N24   , Cn4 , v096
	.byte	W24
	.byte		VOICE , 50
	.byte		N08   , Dn4 , v088
	.byte	W68
	.byte	W03
	.byte		BEND  , c_v-55
	.byte		N20   , Dn4 , v100
	.byte	W01
	.byte		BEND  , c_v-40
	.byte	W01
	.byte		        c_v-32
	.byte	W02
	.byte		        c_v+0
	.byte	W21
	.byte		N06
	.byte	W12
	.byte		N05   , Dn4 , v076
	.byte	W12
	.byte		N05
	.byte	W12
	.byte		N36   , Dn4 , v088
	.byte	W60
	.byte		VOICE , 105
	.byte		VOL   , 95*seq_026_mvl/mxv
	.byte		PAN   , c_v+20
	.byte		N04   , En3 , v068
	.byte	W06
	.byte		        Cn3 
	.byte	W06
	.byte		        Gn2 
	.byte	W06
	.byte		        En3 
	.byte	W06
	.byte		        Cn3 
	.byte	W06
	.byte		        Gn2 
	.byte	W06
	.byte		        En3 
	.byte	W06
	.byte		        Cn3 
	.byte	W06
	.byte		        Gn2 
	.byte	W06
	.byte		        En3 
	.byte	W06
	.byte		        Cn3 
	.byte	W06
	.byte		        Gn2 
	.byte	W06
	.byte		        En3 , v076
	.byte	W06
	.byte		        Cn3 
	.byte	W06
	.byte		        Gn2 , v084
	.byte	W06
	.byte		        En3 
	.byte	W06
	.byte		        Dn3 , v068
	.byte	W06
	.byte		        Bn2 
	.byte	W06
	.byte		        Gn2 
	.byte	W06
	.byte		        Dn3 
	.byte	W06
	.byte		        Bn2 
	.byte	W06
	.byte		        Gn2 
	.byte	W06
	.byte		        Dn3 
	.byte	W06
	.byte		        Bn2 
	.byte	W06
	.byte		        Gn2 
	.byte	W06
	.byte		        Dn3 
	.byte	W06
	.byte		        Bn2 
	.byte	W06
	.byte		        Gn2 
	.byte	W06
	.byte		        Dn3 
	.byte	W06
	.byte		        Bn2 
	.byte	W06
	.byte		        Gn2 
	.byte	W06
	.byte		        Dn3 
	.byte	W06
	.byte		        An2 
	.byte	W06
	.byte		        Dn3 
	.byte	W06
	.byte		        Fs3 
	.byte	W06
	.byte		        An2 
	.byte	W06
	.byte		        Dn3 
	.byte	W06
	.byte		        Fs3 
	.byte	W06
	.byte		        An2 
	.byte	W06
	.byte		        Dn3 
	.byte	W06
	.byte		        Fs3 
	.byte	W06
	.byte		        An2 
	.byte	W06
	.byte		        Dn3 
	.byte	W06
	.byte		        Fs3 
	.byte	W06
	.byte		        An2 
	.byte	W06
	.byte		        Dn3 
	.byte	W06
	.byte		        Fs3 
	.byte	W06
	.byte		        An2 
	.byte	W06
	.byte		        Gn2 
	.byte	W06
	.byte		        Cn3 
	.byte	W06
	.byte		        En3 
	.byte	W06
	.byte		        Gn2 
	.byte	W06
	.byte		        Cn3 
	.byte	W06
	.byte		        En3 
	.byte	W06
	.byte		        Gn2 
	.byte	W06
	.byte		        Cn3 
	.byte	W06
	.byte		        En3 
	.byte	W12
	.byte		        Gn2 , v100
	.byte		N04   , En3 
	.byte	W12
	.byte		        Gn2 
	.byte		N04   , En3 
	.byte	W12
	.byte		        An2 
	.byte		N04   , Fs3 
	.byte	W12
	.byte		VOICE , 61
	.byte		VOL   , 110*seq_026_mvl/mxv
	.byte		PAN   , c_v+20
	.byte		N04   , Bn2 
	.byte		N04   , Gn3 , v092
	.byte	W72
	.byte		N08
	.byte	W24
	.byte		N06
	.byte	W48
	.byte		N40
	.byte	W48
	.byte		VOICE , 60
	.byte		N92   , Fs3 , v080
	.byte	W96
	.byte		VOICE , 51
	.byte		VOL   , 110*seq_026_mvl/mxv
	.byte		PAN   , c_v+0
	.byte		N08   , Dn1 , v120
	.byte	W12
	.byte		N30
	.byte	W60
	.byte		VOICE , 49
	.byte		N23
	.byte	W24
	.byte		N44   , An1 , v116
	.byte	W48
	.byte		N23   , Gn1 
	.byte	W24
	.byte		        Fs1 
	.byte	W24
	.byte		VOICE , 53
	.byte		N48   , En1 
	.byte	W72
	.byte		VOICE , 49
	.byte		N23   , Dn1 , v124
	.byte	W24
	.byte	GOTO
	 .word	seq_026_2 + 0x2
	.byte	W96
	.byte	FINE

@*********************** Track 04 ***********************@

seq_026_3:
	.byte	KEYSH , seq_026_key+0
	.byte	W10
	.byte		VOICE , 50
	.byte		VOL   , 95*seq_026_mvl/mxv
	.byte		PAN   , c_v+0
	.byte		N04   , Gn3 , v048
	.byte	W24
	.byte		        Gn3 , v052
	.byte	W24
	.byte		        Gn3 , v056
	.byte	W24
	.byte		        Gn3 , v060
	.byte	W14
	.byte	W10
	.byte		        Gn3 , v068
	.byte	W24
	.byte		        Gn3 , v072
	.byte	W24
	.byte		        Gn3 , v080
	.byte	W24
	.byte		        Gn3 , v092
	.byte	W14
	.byte		VOICE , 52
	.byte		VOL   , 103*seq_026_mvl/mxv
	.byte		PAN   , c_v+0
	.byte		N06   , Bn3 
	.byte	W48
	.byte		VOICE , 50
	.byte		N05   , Cn4 
	.byte	W12
	.byte		N05
	.byte	W12
	.byte		N05
	.byte	W24
	.byte		VOICE , 48
	.byte		N24   , Dn3 , v092
	.byte	W24
	.byte		VOICE , 50
	.byte		N06   , Gn3 , v076
	.byte	W12
	.byte		        Dn3 
	.byte	W12
	.byte		N05   , Cn3 
	.byte	W12
	.byte		        An2 
	.byte	W36
	.byte	PEND
	.byte		VOICE , 52
	.byte		N06   , Bn3 , v092
	.byte	W48
	.byte		VOICE , 50
	.byte		N05   , Cn4 
	.byte	W12
	.byte		N05
	.byte	W12
	.byte		N05
	.byte	W24
	.byte	PEND
	.byte		VOICE , 48
	.byte		N24   , Dn3 
	.byte	W24
	.byte		VOICE , 50
	.byte		N06   , Gn3 , v076
	.byte	W12
	.byte		        Dn3 
	.byte	W12
	.byte		N05   , Cn3 , v092
	.byte	W12
	.byte		        An2 
	.byte	W24
	.byte		        Dn4 
	.byte	W12
	.byte	PATT
	 .word	seq_026_3 + 0x49
	.byte	PATT
	 .word	seq_026_3 + 0x35
	.byte	PATT
	 .word	seq_026_3 + 0x49
	.byte		VOICE , 48
	.byte		N24   , Dn3 , v092
	.byte	W24
	.byte		VOICE , 50
	.byte		N06   , Gn3 , v076
	.byte	W12
	.byte		        Dn3 
	.byte	W12
	.byte		N05   , Cn3 , v092
	.byte	W12
	.byte		        An2 
	.byte	W24
	.byte		        Dn4 , v072
	.byte	W12
	.byte	W12
	.byte		VOICE , 115
	.byte		VOL   , 43*seq_026_mvl/mxv
	.byte		PAN   , c_v+0
	.byte		N04   , Gn2 , v072
	.byte	W24
	.byte		N04
	.byte	W24
	.byte		N04
	.byte	W24
	.byte		N04
	.byte	W12
	.byte	PEND
	.byte	W12
	.byte		        En2 
	.byte	W12
	.byte		VOICE , 61
	.byte		VOL   , 110*seq_026_mvl/mxv
	.byte		PAN   , c_v-20
	.byte		N16   , En2 , v100
	.byte	W24
	.byte		        Gn2 
	.byte	W24
	.byte		        En3 
	.byte	W24
	.byte		N88   , Dn3 
	.byte	W96
	.byte		VOICE , 51
	.byte		VOL   , 103*seq_026_mvl/mxv
	.byte		PAN   , c_v+0
	.byte		N04   , Cn3 , v072
	.byte	W12
	.byte		N48
	.byte	W60
	.byte		N08
	.byte	W24
	.byte		VOICE , 115
	.byte		VOL   , 43*seq_026_mvl/mxv
	.byte		PAN   , c_v+0
	.byte	W12
	.byte		N04   , Gn2 
	.byte	W24
	.byte		N04
	.byte	W24
	.byte		N04
	.byte	W24
	.byte		N04
	.byte	W12
	.byte	W12
	.byte		        En2 
	.byte	W24
	.byte		N04
	.byte	W24
	.byte		N04
	.byte	W24
	.byte		N04
	.byte	W12
	.byte	W12
	.byte		        Gn2 
	.byte	W24
	.byte		N04
	.byte	W12
	.byte		VOICE , 120
	.byte		VOL   , 83*seq_026_mvl/mxv
	.byte		PAN   , c_v+0
	.byte		N48   , Cn2 , v127
	.byte	W48
	.byte		VOICE , 105
	.byte		VOL   , 95*seq_026_mvl/mxv
	.byte		PAN   , c_v+20
	.byte		N04   , As3 , v076
	.byte	W06
	.byte		        Bn3 
	.byte	W06
	.byte		        Dn4 
	.byte	W06
	.byte		        As3 
	.byte	W06
	.byte		        Bn3 
	.byte	W06
	.byte		        Dn4 
	.byte	W06
	.byte		        As3 
	.byte	W06
	.byte		        Bn3 
	.byte	W06
	.byte		        Dn4 
	.byte	W06
	.byte		        As3 
	.byte	W06
	.byte		        Bn3 
	.byte	W06
	.byte		        Dn4 
	.byte	W06
	.byte		        As3 
	.byte	W06
	.byte		        Bn3 
	.byte	W06
	.byte		        Dn4 
	.byte	W06
	.byte		        Gn3 
	.byte	W06
	.byte	PATT
	 .word	seq_026_3 + 0x94
	.byte	W12
	.byte		N04   , Gn2 , v072
	.byte	W24
	.byte		N04
	.byte	W24
	.byte		N04
	.byte	W24
	.byte		N04
	.byte	W12
	.byte	PEND
	.byte		VOICE , 120
	.byte		VOL   , 83*seq_026_mvl/mxv
	.byte		PAN   , c_v+0
	.byte		N16   , Dn2 , v127
	.byte	W24
	.byte		N16
	.byte	W24
	.byte		N04   , Cn2 
	.byte	W12
	.byte		N20   , Dn2 
	.byte	W24
	.byte		N04
	.byte	W12
	.byte	PATT
	 .word	seq_026_3 + 0x94
	.byte	PATT
	 .word	seq_026_3 + 0x11D
	.byte	W12
	.byte		N04   , Gn2 , v072
	.byte	W24
	.byte		        Gn2 , v080
	.byte	W24
	.byte		        Gn2 , v088
	.byte	W24
	.byte		        Gn2 , v100
	.byte	W12
	.byte		N12   , Fs2 
	.byte	W96
	.byte		N36   , Dn1 
	.byte	W60
	.byte		VOICE , 105
	.byte		VOL   , 95*seq_026_mvl/mxv
	.byte		PAN   , c_v+20
	.byte		N06   , Dn3 
	.byte	W12
	.byte		N06
	.byte	W06
	.byte		        En3 
	.byte	W06
	.byte		        Gn3 
	.byte	W12
	.byte	W12
	.byte		VOICE , 115
	.byte		VOL   , 43*seq_026_mvl/mxv
	.byte		PAN   , c_v+0
	.byte		N04   , Gn2 , v072
	.byte	W24
	.byte		N04
	.byte	W24
	.byte		N04
	.byte	W24
	.byte		        An2 
	.byte	W12
	.byte	W12
	.byte		N04   , Bn2 , v072
	.byte	W24
	.byte		N04
	.byte	W24
	.byte		N04
	.byte	W24
	.byte		N04
	.byte	W12
	.byte	PEND
	.byte	W12
	.byte		        An2 
	.byte	W24
	.byte		N04
	.byte	W24
	.byte		N04
	.byte	W24
	.byte		N04
	.byte	W12
	.byte	W12
	.byte		        Gn2 
	.byte	W24
	.byte		N04
	.byte	W24
	.byte		        Gn2 , v092
	.byte	W36
	.byte	PATT
	 .word	seq_026_3 + 0x17B
	.byte	W12
	.byte		N04   , Dn3 , v072
	.byte	W24
	.byte		N04
	.byte	W24
	.byte		N04
	.byte	W24
	.byte		N04
	.byte	W12
	.byte	W12
	.byte		        An2 
	.byte	W24
	.byte		        An2 , v076
	.byte	W24
	.byte		        An2 , v080
	.byte	W24
	.byte		        An2 , v084
	.byte	W12
	.byte		VOICE , 48
	.byte		N06   , An2 , v092
	.byte	W06
	.byte		        Fs2 , v080
	.byte	W06
	.byte		VOICE , 51
	.byte		N36   , An2 , v092
	.byte	W60
	.byte		VOICE , 48
	.byte		N23
	.byte	W24
	.byte		N44   , Cn3 , v084
	.byte	W48
	.byte		N23   , Bn2 
	.byte	W24
	.byte		        An2 
	.byte	W24
	.byte		VOICE , 53
	.byte		N48   , Gn2 
	.byte	W72
	.byte		N23   , An2 , v096
	.byte	W24
	.byte	GOTO
	 .word	seq_026_3 + 0x2
	.byte	W96
	.byte	FINE

@*********************** Track 05 ***********************@

seq_026_4:
	.byte	KEYSH , seq_026_key+0
	.byte	W10
	.byte		VOICE , 51
	.byte		VOL   , 86*seq_026_mvl/mxv
	.byte		PAN   , c_v+0
	.byte		N04   , Dn3 , v048
	.byte	W24
	.byte		        Dn3 , v052
	.byte	W24
	.byte		        Dn3 , v056
	.byte	W24
	.byte		        Dn3 , v060
	.byte	W14
	.byte	W10
	.byte		        Dn3 , v068
	.byte	W24
	.byte		        Dn3 , v072
	.byte	W24
	.byte		        Dn3 , v080
	.byte	W24
	.byte		        Dn3 , v092
	.byte	W14
	.byte		VOICE , 122
	.byte		VOL   , 34*seq_026_mvl/mxv
	.byte		PAN   , c_v+0
	.byte		N05   , Gn3 
	.byte	W48
	.byte		N04
	.byte	W12
	.byte		N04
	.byte	W12
	.byte		N04
	.byte	W24
	.byte		N23   , Bn2 
	.byte	W24
	.byte		N05   , Dn3 , v076
	.byte	W12
	.byte		        Bn2 
	.byte	W60
	.byte		        Gn3 , v092
	.byte	W48
	.byte		N04
	.byte	W12
	.byte		N04
	.byte	W12
	.byte		N04
	.byte	W24
	.byte		N23   , Bn2 
	.byte	W24
	.byte		N05   , Dn3 , v076
	.byte	W12
	.byte		        Bn2 
	.byte	W12
	.byte		N04   , Cn3 , v092
	.byte	W12
	.byte		        An2 
	.byte	W36
	.byte		VOICE , 103
	.byte		VOL   , 110*seq_026_mvl/mxv
	.byte		PAN   , c_v+0
	.byte		N12   , Dn6 , v127
	.byte	W12
	.byte		N06
	.byte	W06
	.byte		N06
	.byte	W06
	.byte		N12
	.byte	W12
	.byte		N12
	.byte	W12
	.byte		        En6 
	.byte	W12
	.byte		        Dn6 
	.byte	W12
	.byte		        Cn6 
	.byte	W12
	.byte		        En6 
	.byte	W12
	.byte		N06   , Gn5 
	.byte	W06
	.byte		        Bn5 
	.byte	W06
	.byte		N12   , Dn6 
	.byte	W12
	.byte		        Bn5 
	.byte	W12
	.byte		        Gn5 
	.byte	W12
	.byte		        An5 
	.byte	W12
	.byte		        Fn5 
	.byte	W12
	.byte		        Dn5 
	.byte	W12
	.byte		        Dn6 
	.byte	W12
	.byte		N12
	.byte	W12
	.byte		N06
	.byte	W06
	.byte		N06
	.byte	W06
	.byte		N12
	.byte	W12
	.byte		N12
	.byte	W12
	.byte		        En6 
	.byte	W12
	.byte		        Dn6 
	.byte	W12
	.byte		        Cn6 
	.byte	W12
	.byte		        En6 
	.byte	W12
	.byte		N06   , Gn5 
	.byte	W06
	.byte		        Bn5 
	.byte	W06
	.byte		N12   , Dn6 
	.byte	W12
	.byte		        Bn5 
	.byte	W12
	.byte		        Gn5 
	.byte	W12
	.byte		        An5 
	.byte	W12
	.byte		        Fn5 
	.byte	W12
	.byte		        Gn5 
	.byte	W24
	.byte	W96
	.byte	W36
	.byte		VOICE , 115
	.byte		VOL   , 51*seq_026_mvl/mxv
	.byte		PAN   , c_v+0
	.byte		N04   , En2 , v072
	.byte	W24
	.byte		VOICE , 105
	.byte		VOL   , 95*seq_026_mvl/mxv
	.byte		PAN   , c_v+20
	.byte		N04   , Dn3 , v100
	.byte	W12
	.byte		        Dn3 , v080
	.byte	W06
	.byte		        En3 
	.byte	W06
	.byte		        Gn3 , v092
	.byte	W12
	.byte	W12
	.byte		VOICE , 115
	.byte		VOL   , 51*seq_026_mvl/mxv
	.byte		PAN   , c_v+0
	.byte		N05   , Dn3 , v072
	.byte	W12
	.byte		N05
	.byte	W12
	.byte		N05
	.byte	W12
	.byte		N09   , Gn3 
	.byte	W12
	.byte		N04   , Dn2 
	.byte	W24
	.byte		N04
	.byte	W12
	.byte	W12
	.byte		        En2 
	.byte	W24
	.byte		N04
	.byte	W24
	.byte		N04
	.byte	W24
	.byte		N04
	.byte	W12
	.byte	W96
	.byte	W96
	.byte	W60
	.byte		VOICE , 114
	.byte		VOL   , 51*seq_026_mvl/mxv
	.byte		PAN   , c_v+0
	.byte		N04   , Gn2 
	.byte	W24
	.byte		N04
	.byte	W12
	.byte	W12
	.byte		N04
	.byte	W24
	.byte		N04
	.byte	W24
	.byte		        Gn2 , v080
	.byte	W24
	.byte		N04
	.byte	W12
	.byte	W96
	.byte	W96
	.byte		VOICE , 121
	.byte		VOL   , 43*seq_026_mvl/mxv
	.byte		PAN   , c_v+0
	.byte		N96   , Gn3 , v048
	.byte	W96
	.byte	W96
	.byte	W96
	.byte	W96
	.byte	W96
	.byte	W96
	.byte	W96
	.byte	W96
	.byte	W96
	.byte	W96
	.byte	W96
	.byte	W96
	.byte	W96
	.byte	W96
	.byte	W96
	.byte	W96
	.byte	GOTO
	 .word	seq_026_4 + 0x2
	.byte	W96
	.byte	FINE

@*********************** Track 06 ***********************@

seq_026_5:
	.byte	KEYSH , seq_026_key+0
	.byte	W96
	.byte	W96
	.byte	W96
	.byte	W96
	.byte	W96
	.byte	W96
	.byte	W96
	.byte	W96
	.byte	W96
	.byte	W96
	.byte		VOICE , 32
	.byte		VOL   , 110*seq_026_mvl/mxv
	.byte		PAN   , c_v+0
	.byte		N11   , Gn1 , v096
	.byte	W24
	.byte		        Dn1 
	.byte	W24
	.byte		        Gn1 
	.byte	W24
	.byte		        Dn1 
	.byte	W24
	.byte		N11   , Cn1 , v096
	.byte	W24
	.byte		        Gn1 
	.byte	W24
	.byte		        Cn1 
	.byte	W24
	.byte		        Gn1 
	.byte	W24
	.byte	PEND
	.byte		N11   , Gn1 , v096
	.byte	W24
	.byte		        Dn1 
	.byte	W24
	.byte		        Gn1 
	.byte	W24
	.byte		        Dn1 
	.byte	W24
	.byte	PEND
	.byte		        Cn1 
	.byte	W24
	.byte		        En1 , v108
	.byte	W24
	.byte		        Gn1 
	.byte	W24
	.byte		        Cn1 
	.byte	W24
	.byte	PATT
	 .word	seq_026_5 + 0x27
	.byte	PATT
	 .word	seq_026_5 + 0x1C
	.byte	PATT
	 .word	seq_026_5 + 0x27
	.byte		N11   , Gn1 , v116
	.byte	W24
	.byte		N11
	.byte	W24
	.byte		        An1 
	.byte	W24
	.byte		        Bn1 
	.byte	W24
	.byte		        Cn1 , v108
	.byte	W24
	.byte		        Gn1 , v096
	.byte	W24
	.byte		        Cn1 
	.byte	W24
	.byte		        Gn1 
	.byte	W24
	.byte		        Cn1 
	.byte	W24
	.byte		        En1 , v108
	.byte	W24
	.byte		        Gn1 
	.byte	W24
	.byte		        Cn2 
	.byte	W24
	.byte	PATT
	 .word	seq_026_5 + 0x27
	.byte		N11   , Gn1 , v096
	.byte	W24
	.byte		        Gn1 , v108
	.byte	W24
	.byte		        An1 
	.byte	W24
	.byte		        Bn1 
	.byte	W24
	.byte		        Cn2 
	.byte	W24
	.byte		        Gn1 , v096
	.byte	W24
	.byte		        Cn2 
	.byte	W24
	.byte		        Gn1 
	.byte	W24
	.byte		        Cn2 
	.byte	W24
	.byte		        Gn1 , v100
	.byte	W24
	.byte		        Cn2 , v108
	.byte	W24
	.byte		        Gn1 , v116
	.byte	W24
	.byte	W24
	.byte		N14   , Dn1 , v124
	.byte	W24
	.byte		N14
	.byte	W24
	.byte		N14
	.byte	W24
	.byte	W72
	.byte		N14
	.byte	W24
	.byte		N11   , Cn1 , v108
	.byte	W24
	.byte		        Cn1 , v096
	.byte	W24
	.byte		N11
	.byte	W24
	.byte		N23   , Dn1 , v108
	.byte	W24
	.byte		N11   , En1 , v108
	.byte	W24
	.byte		        Bn1 , v096
	.byte	W24
	.byte		        En1 
	.byte	W24
	.byte		        Bn1 
	.byte	W24
	.byte	PEND
	.byte		        Dn1 
	.byte	W24
	.byte		        An1 
	.byte	W24
	.byte		        Dn1 
	.byte	W24
	.byte		        An1 
	.byte	W24
	.byte		        Cn1 
	.byte	W24
	.byte		        Gn1 
	.byte	W24
	.byte		        Cn1 
	.byte	W24
	.byte		        Cn1 , v127
	.byte	W12
	.byte		        Dn1 
	.byte	W12
	.byte	PATT
	 .word	seq_026_5 + 0xA4
	.byte		N11   , Gn1 , v096
	.byte	W24
	.byte		        Dn2 
	.byte	W24
	.byte		        Gn1 
	.byte	W24
	.byte		        Dn2 
	.byte	W24
	.byte		        Dn1 
	.byte	W24
	.byte		        An1 
	.byte	W24
	.byte		        Dn1 , v100
	.byte	W24
	.byte		        An1 , v104
	.byte	W24
	.byte	W96
	.byte	W96
	.byte	W96
	.byte	GOTO
	 .word	seq_026_5 + 0x2
	.byte	W96
	.byte	FINE

@*********************** Track 07 ***********************@

seq_026_6:
	.byte	KEYSH , seq_026_key+0
	.byte	W96
	.byte	W96
	.byte	W96
	.byte	W96
	.byte	W96
	.byte	W96
	.byte		VOICE , 122
	.byte		VOL   , 34*seq_026_mvl/mxv
	.byte		PAN   , c_v+0
	.byte		N06   , Gn3 , v092
	.byte	W48
	.byte		N05
	.byte	W12
	.byte		N05
	.byte	W12
	.byte		N05
	.byte	W24
	.byte		N24   , Bn2 
	.byte	W24
	.byte		N06   , Dn3 , v076
	.byte	W12
	.byte		        Bn2 
	.byte	W12
	.byte		N05   , Cn3 
	.byte	W12
	.byte		        An2 
	.byte	W36
	.byte		N06   , Gn3 , v092
	.byte	W48
	.byte		N05
	.byte	W12
	.byte		N05
	.byte	W12
	.byte		N05
	.byte	W24
	.byte		N24   , Bn2 
	.byte	W24
	.byte		N06   , Dn3 , v076
	.byte	W12
	.byte		        Bn2 
	.byte	W60
	.byte		VOICE , 127
	.byte		VOL   , 86*seq_026_mvl/mxv
	.byte		PAN   , c_v+0
	.byte		N06   , Cn1 , v092
	.byte	W12
	.byte		N02   , Cn6 , v072
	.byte	W12
	.byte		N06   , Cn1 , v100
	.byte	W12
	.byte		        Cs1 , v076
	.byte	W12
	.byte		        Cn1 , v092
	.byte	W12
	.byte		N02   , Cn6 , v072
	.byte	W12
	.byte		N06   , Cn1 , v100
	.byte	W12
	.byte		        Cs1 , v076
	.byte	W12
	.byte		N06   , Cn1 , v092
	.byte	W12
	.byte		N02   , Cn6 , v072
	.byte	W12
	.byte		N06   , Cn1 , v100
	.byte	W12
	.byte		        Cs1 , v076
	.byte	W12
	.byte		        Cn1 , v092
	.byte	W12
	.byte		N02   , Cn6 , v072
	.byte	W12
	.byte		N06   , Cn1 , v100
	.byte	W12
	.byte		        Cs1 , v076
	.byte	W12
	.byte	PEND
	.byte	PATT
	 .word	seq_026_6 + 0x5C
	.byte		N06   , Cn1 , v092
	.byte	W12
	.byte		N02   , Cn6 , v072
	.byte	W12
	.byte		N06   , Cn1 , v100
	.byte	W12
	.byte		        Cs1 , v076
	.byte	W12
	.byte		        Cn1 , v092
	.byte	W12
	.byte		N02   , Cn6 , v072
	.byte	W12
	.byte		N06   , Cn1 , v100
	.byte	W24
	.byte	PEND
	.byte		N06   , Cn1 , v092
	.byte	W12
	.byte		N02   , Cn6 , v072
	.byte	W06
	.byte		N06   , Cn1 , v080
	.byte	W06
	.byte		        Cn1 , v100
	.byte	W12
	.byte		        Cs1 , v076
	.byte	W12
	.byte		        Cn1 , v092
	.byte	W12
	.byte		N02   , Cn6 , v072
	.byte	W12
	.byte		N06   , Cn1 , v100
	.byte	W12
	.byte		        Cs1 , v076
	.byte	W12
	.byte	PEND
	.byte	PATT
	 .word	seq_026_6 + 0x7F
	.byte	PATT
	 .word	seq_026_6 + 0x5C
	.byte		N06   , Cn1 , v092
	.byte	W12
	.byte		N02   , Cn6 , v072
	.byte	W12
	.byte		N06   , Cn1 , v112
	.byte	W12
	.byte		        Cs1 , v088
	.byte	W12
	.byte		        Dn1 , v080
	.byte	W06
	.byte		N06
	.byte	W06
	.byte		        Dn1 , v100
	.byte	W06
	.byte		N06
	.byte	W06
	.byte		N12
	.byte	W24
	.byte	PATT
	 .word	seq_026_6 + 0x5C
	.byte	PATT
	 .word	seq_026_6 + 0x5C
	.byte	PATT
	 .word	seq_026_6 + 0x5C
	.byte	PATT
	 .word	seq_026_6 + 0x7F
	.byte	PATT
	 .word	seq_026_6 + 0x9A
	.byte		N06   , Cn1 , v092
	.byte	W12
	.byte		N02   , Cn6 , v072
	.byte	W12
	.byte		N06   , Cn1 , v100
	.byte	W12
	.byte		        Cs1 , v076
	.byte	W12
	.byte		        Cn1 , v100
	.byte	W12
	.byte		N02   , Cn6 , v080
	.byte	W12
	.byte		N06   , Cn1 , v112
	.byte	W24
	.byte		        Cn1 , v100
	.byte	W24
	.byte		        Cs1 , v076
	.byte	W24
	.byte		N06
	.byte	W24
	.byte		N06
	.byte	W24
	.byte		N06
	.byte	W72
	.byte		N06
	.byte	W12
	.byte		        Cn1 , v092
	.byte	W06
	.byte		        Cs1 , v076
	.byte	W06
	.byte	PATT
	 .word	seq_026_6 + 0x5C
	.byte	PATT
	 .word	seq_026_6 + 0x5C
	.byte	PATT
	 .word	seq_026_6 + 0x5C
	.byte		N06   , Cn1 , v092
	.byte	W12
	.byte		N02   , Cn6 , v072
	.byte	W12
	.byte		N06   , Cn1 , v100
	.byte	W12
	.byte		        Cs1 , v076
	.byte	W12
	.byte		        Cn1 , v092
	.byte	W12
	.byte		N12   , Dn1 , v100
	.byte	W12
	.byte		        Dn1 , v092
	.byte	W12
	.byte		        Dn1 , v100
	.byte	W12
	.byte	PATT
	 .word	seq_026_6 + 0x5C
	.byte	PATT
	 .word	seq_026_6 + 0x7F
	.byte	PATT
	 .word	seq_026_6 + 0x5C
	.byte		N06   , Dn1 , v072
	.byte	W06
	.byte		        Cn1 , v092
	.byte	W06
	.byte		N23   , Cs2 , v076
	.byte	W60
	.byte		N12   , Dn1 , v072
	.byte	W24
	.byte		N12
	.byte	W48
	.byte		N12
	.byte	W24
	.byte		N12
	.byte	W24
	.byte		N12
	.byte	W24
	.byte		N06   , Cn1 , v080
	.byte	W24
	.byte		        Dn1 , v092
	.byte	W06
	.byte		N06
	.byte	W06
	.byte		N02   , Cn6 , v080
	.byte	W06
	.byte		N06   , Dn1 , v100
	.byte	W06
	.byte		N12
	.byte	W24
	.byte	GOTO
	 .word	seq_026_6 + 0x2
	.byte	W96
	.byte	FINE

@******************************************************@

	.align	2

seq_026:
	.byte	7	@ NumTrks
	.byte	0	@ NumBlks
	.byte	seq_026_pri	@ Priority
	.byte	seq_026_rev	@ Reverb

	.word	seq_026_grp

	.word	seq_026_0
	.word	seq_026_1
	.word	seq_026_2
	.word	seq_026_3
	.word	seq_026_4
	.word	seq_026_5
	.word	seq_026_6

	.end
