@ File generated by m4a2s Song-Module
	.include "MPlayDef.s"

	.equ	seq_040_grp, bank_000
	.equ	seq_040_pri, 0
	.equ	seq_040_rev, 148
	.equ	seq_040_mvl, 127
	.equ	seq_040_key, 0

	.section .rodata
	.global	seq_040
	.align	2

@*********************** Track 01 ***********************@

seq_040_0:
	.byte	KEYSH , seq_040_key+0
	.byte	TEMPO , 134/2
	.byte		VOICE , 38
	.byte		VOL   , 86*seq_040_mvl/mxv
	.byte	W48
	.byte		N18   , Cs1 , v112
	.byte	W18
	.byte		N15   , Bn0 
	.byte	W18
	.byte		N18   , Cs1 
	.byte	W18
	.byte		N15   , Bn0 
	.byte	W18
	.byte		N06   , Cs1 
	.byte	W12
	.byte		        Ds1 
	.byte	W12
	.byte	PEND
	.byte		N18   , Cs1 , v112
	.byte	W18
	.byte		N15   , Bn0 
	.byte	W18
	.byte		N18   , Cs1 
	.byte	W18
	.byte		        Bn0 
	.byte	W18
	.byte		N06   , Cs1 
	.byte	W12
	.byte		        Gs0 
	.byte	W12
	.byte	PEND
	.byte	PATT
	 .word	seq_040_0 + 0x9
	.byte	PATT
	 .word	seq_040_0 + 0x1C
	.byte	PATT
	 .word	seq_040_0 + 0x9
	.byte	PATT
	 .word	seq_040_0 + 0x1C
	.byte	PATT
	 .word	seq_040_0 + 0x9
	.byte	PATT
	 .word	seq_040_0 + 0x1C
	.byte	W96
	.byte	W96
	.byte	GOTO
	 .word	seq_040_0 + 0x9
	.byte	FINE

@*********************** Track 02 ***********************@

seq_040_1:
	.byte	KEYSH , seq_040_key+0
	.byte		VOICE , 127
	.byte		VOL   , 94*seq_040_mvl/mxv
	.byte	W12
	.byte		N12   , DnM2, v100
	.byte		N12   , DsM2, v112
	.byte	W12
	.byte		        DnM2, v100
	.byte		N12   , DsM2, v112
	.byte	W24
	.byte		N06   , DnM2, v100
	.byte		N24   , An2 , v080
	.byte	W18
	.byte		N06   , DnM2, v100
	.byte	W06
	.byte		N12   , DsM2, v112
	.byte	W12
	.byte		N06   , DnM2, v100
	.byte	W18
	.byte		        DsM2, v080
	.byte	W06
	.byte		        DnM2, v100
	.byte	W12
	.byte		N12   , DsM2, v112
	.byte	W12
	.byte		N06   , DnM2, v100
	.byte	W12
	.byte	PEND
	.byte		N06   , DnM2, v100
	.byte	W18
	.byte		N06
	.byte	W06
	.byte		N12   , DsM2, v112
	.byte	W12
	.byte		N06   , DnM2, v100
	.byte	W18
	.byte		N06
	.byte	W06
	.byte		N06
	.byte	W12
	.byte		N12   , DsM2, v112
	.byte	W12
	.byte		        DsM2, v100
	.byte	W12
	.byte	PEND
	.byte		N06   , DnM2, v100
	.byte	W18
	.byte		N06
	.byte	W06
	.byte		N12   , DsM2, v112
	.byte	W12
	.byte		N06   , DnM2, v100
	.byte	W18
	.byte		        DsM2, v080
	.byte	W06
	.byte		        DnM2, v100
	.byte	W12
	.byte		N12   , DsM2, v112
	.byte	W12
	.byte		N06   , DnM2, v100
	.byte	W12
	.byte	PEND
	.byte		N06   , DnM2, v100
	.byte	W18
	.byte		N06
	.byte	W06
	.byte		N12   , DsM2, v112
	.byte	W12
	.byte		N06   , DnM2, v100
	.byte	W18
	.byte		N06
	.byte	W06
	.byte		N06
	.byte	W06
	.byte		N06
	.byte	W06
	.byte		        DsM2
	.byte	W06
	.byte		        DsM2, v096
	.byte	W06
	.byte		N12   , DsM2, v116
	.byte	W12
	.byte	PEND
	.byte	PATT
	 .word	seq_040_1 + 0x14
	.byte	PATT
	 .word	seq_040_1 + 0x36
	.byte	PATT
	 .word	seq_040_1 + 0x50
	.byte	PATT
	 .word	seq_040_1 + 0x6D
	.byte		N06   , DnM2, v100
	.byte	W12
	.byte		N12   , DsM2
	.byte	W12
	.byte		N06   , DnM2
	.byte		N12   , DsM2, v112
	.byte	W24
	.byte		N06   , DnM2, v100
	.byte		N06   , DsM2, v092
	.byte	W06
	.byte		        DsM2, v088
	.byte	W06
	.byte		        DsM2, v092
	.byte	W06
	.byte		        DsM2, v100
	.byte	W06
	.byte		        DnM2
	.byte		N12   , DsM2, v112
	.byte	W24
	.byte		N06   , DnM2, v100
	.byte		N24   , An2 , v076
	.byte	W12
	.byte		N06   , DnM2, v100
	.byte	W12
	.byte		N06
	.byte	W12
	.byte		N06
	.byte		N06   , DsM2, v052
	.byte	W06
	.byte		        DsM2, v060
	.byte	W06
	.byte		        DnM2, v100
	.byte		N06   , DsM2, v072
	.byte	W06
	.byte		        DsM2, v080
	.byte	W06
	.byte		        DnM2, v100
	.byte		N06   , DsM2, v092
	.byte	W06
	.byte		        DsM2, v100
	.byte	W06
	.byte		        DnM2
	.byte		N12   , DsM2, v112
	.byte	W24
	.byte	GOTO
	 .word	seq_040_1 + 0x14
	.byte	FINE

@*********************** Track 03 ***********************@

seq_040_2:
	.byte	KEYSH , seq_040_key+0
	.byte		VOICE , 127
	.byte		VOL   , 94*seq_040_mvl/mxv
	.byte	W48
	.byte		N01   , As3 , v052
	.byte	W06
	.byte		        As3 , v032
	.byte	W06
	.byte		        As3 , v048
	.byte	W06
	.byte		        As3 , v036
	.byte	W06
	.byte		        As3 , v048
	.byte	W06
	.byte		        As3 , v060
	.byte	W06
	.byte		        As3 , v028
	.byte	W06
	.byte		        As3 , v048
	.byte	W06
	.byte		        As3 , v052
	.byte	W06
	.byte		        As3 , v036
	.byte	W06
	.byte		        As3 , v056
	.byte	W06
	.byte		        As3 , v040
	.byte	W06
	.byte		        As3 , v048
	.byte	W06
	.byte		        As3 , v036
	.byte	W06
	.byte		        As3 , v056
	.byte	W06
	.byte		        As3 , v040
	.byte	W06
	.byte	PEND
	.byte		N01   , As3 , v052
	.byte	W06
	.byte		        As3 , v032
	.byte	W06
	.byte		        As3 , v048
	.byte	W06
	.byte		        As3 , v036
	.byte	W06
	.byte		        As3 , v048
	.byte	W06
	.byte		        As3 , v060
	.byte	W06
	.byte		        As3 , v028
	.byte	W06
	.byte		        As3 , v048
	.byte	W06
	.byte		        As3 , v040
	.byte	W06
	.byte		        As3 , v056
	.byte	W06
	.byte		        As3 , v040
	.byte	W06
	.byte		        As3 , v036
	.byte	W06
	.byte		        As3 , v052
	.byte	W06
	.byte		N01
	.byte	W06
	.byte		        As3 , v032
	.byte	W06
	.byte		        As3 , v040
	.byte	W06
	.byte	PEND
	.byte	PATT
	 .word	seq_040_2 + 0x7
	.byte	PATT
	 .word	seq_040_2 + 0x39
	.byte	PATT
	 .word	seq_040_2 + 0x7
	.byte	PATT
	 .word	seq_040_2 + 0x39
	.byte	PATT
	 .word	seq_040_2 + 0x7
	.byte	PATT
	 .word	seq_040_2 + 0x39
	.byte	PATT
	 .word	seq_040_2 + 0x7
	.byte	PATT
	 .word	seq_040_2 + 0x39
	.byte	GOTO
	 .word	seq_040_2 + 0x7
	.byte	FINE

@*********************** Track 04 ***********************@

seq_040_3:
	.byte	KEYSH , seq_040_key+0
	.byte		VOICE , 80
	.byte		VOL   , 55*seq_040_mvl/mxv
	.byte		PAN   , c_v+0
	.byte		BEND  , c_v+0
	.byte	W48
	.byte		N16   , Fn3 , v100
	.byte		N16   , Gs3 
	.byte	W18
	.byte		N04   , Fn3 
	.byte		N04   , Gs3 
	.byte	W06
	.byte		N06   , Ds3 
	.byte		N06   , Fs3 
	.byte	W12
	.byte		N16   , Fn3 
	.byte		N16   , Gs3 
	.byte	W18
	.byte		N04   , Fn3 
	.byte		N04   , Gs3 
	.byte	W06
	.byte		N08   , Ds3 
	.byte		N08   , Fs3 
	.byte	W12
	.byte		N06   , Fn3 
	.byte		N06   , Gs3 
	.byte	W12
	.byte		N05   , Fs3 
	.byte		N05   , As3 
	.byte	W12
	.byte	PEND
	.byte		N16   , Fn3 , v100
	.byte		N16   , Gs3 
	.byte	W18
	.byte		N04   , Fn3 
	.byte		N04   , Gs3 
	.byte	W06
	.byte		N05   , Ds3 
	.byte		N05   , Fs3 
	.byte	W12
	.byte		N16   , Fn3 
	.byte		N16   , Gs3 
	.byte	W18
	.byte		N04   , Fn3 
	.byte		N04   , Gs3 
	.byte	W06
	.byte		N06   , Ds3 
	.byte		N06   , Fs3 
	.byte	W12
	.byte		        Fn3 
	.byte		N06   , Gs3 
	.byte	W12
	.byte		N05   , Cn3 
	.byte		N05   , Ds3 
	.byte	W12
	.byte	PEND
	.byte	PATT
	 .word	seq_040_3 + 0xB
	.byte	PATT
	 .word	seq_040_3 + 0x35
	.byte	W96
	.byte	W96
	.byte	W96
	.byte	W96
	.byte	W84
	.byte		N06   , As2 , v100
	.byte		N06   , Ds3 
	.byte	W06
	.byte		        Bn2 
	.byte		N06   , En3 
	.byte	W06
	.byte		N09   , Cn3 
	.byte		N09   , Fn3 
	.byte	W12
	.byte		N06   , Cs3 
	.byte		N06   , Fs3 
	.byte	W12
	.byte		N09   , Dn3 
	.byte		N09   , Gn3 
	.byte	W12
	.byte		N06   , Ds3 
	.byte		N06   , Gs3 
	.byte	W06
	.byte		N09   , En3 
	.byte		N09   , An3 
	.byte	W12
	.byte		N06   , Fn3 
	.byte		N06   , As3 
	.byte	W06
	.byte		        Fs3 
	.byte		N06   , Bn3 
	.byte	W12
	.byte		        Gn3 
	.byte		N06   , Cn4 
	.byte	W12
	.byte		N11   , Gs3 
	.byte		N11   , Cs4 
	.byte	W12
	.byte	GOTO
	 .word	seq_040_3 + 0xB
	.byte	FINE

@*********************** Track 05 ***********************@

seq_040_4:
	.byte	KEYSH , seq_040_key+0
	.byte		PAN   , c_v-64
	.byte		BEND  , c_v+0
	.byte	W48
	.byte		VOICE , 102
	.byte		VOL   , 55*seq_040_mvl/mxv
	.byte		N16   , Gs3 , v100
	.byte	W18
	.byte		N04
	.byte	W06
	.byte		N06   , Fs3 
	.byte	W12
	.byte		N16   , Gs3 
	.byte	W18
	.byte		N04
	.byte	W06
	.byte		N08   , Fs3 
	.byte	W12
	.byte		N06   , Gs3 
	.byte	W12
	.byte		N05   , As3 
	.byte	W12
	.byte		N16   , Gs3 , v100
	.byte	W18
	.byte		N04
	.byte	W06
	.byte		N05   , Fs3 
	.byte	W12
	.byte		N16   , Gs3 
	.byte	W18
	.byte		N04
	.byte	W06
	.byte		N06   , Fs3 
	.byte	W12
	.byte		        Gs3 
	.byte	W12
	.byte		N05   , Ds3 
	.byte	W12
	.byte	PEND
	.byte		N16   , Gs3 , v100
	.byte	W18
	.byte		N04
	.byte	W06
	.byte		N06   , Fs3 
	.byte	W12
	.byte		N16   , Gs3 
	.byte	W18
	.byte		N04
	.byte	W06
	.byte		N08   , Fs3 
	.byte	W12
	.byte		N06   , Gs3 
	.byte	W12
	.byte		N05   , As3 
	.byte	W12
	.byte	PEND
	.byte	PATT
	 .word	seq_040_4 + 0x22
	.byte		VOICE , 112
	.byte		VOL   , 55*seq_040_mvl/mxv
	.byte		N16   , Gs3 , v100
	.byte	W18
	.byte		N04
	.byte	W06
	.byte		N06   , Fs3 
	.byte	W12
	.byte		N16   , Gs3 
	.byte	W18
	.byte		N04
	.byte	W06
	.byte		N08   , Fs3 
	.byte	W12
	.byte		N06   , Gs3 
	.byte	W12
	.byte		N05   , As3 
	.byte	W12
	.byte	PATT
	 .word	seq_040_4 + 0x22
	.byte	PATT
	 .word	seq_040_4 + 0x39
	.byte	PATT
	 .word	seq_040_4 + 0x22
	.byte	W84
	.byte		N06   , Ds3 , v100
	.byte	W06
	.byte		        En3 
	.byte	W06
	.byte		N09   , Fn3 
	.byte	W12
	.byte		N06   , Fs3 
	.byte	W12
	.byte		N09   , Gn3 
	.byte	W12
	.byte		N06   , Gs3 
	.byte	W06
	.byte		N09   , An3 
	.byte	W12
	.byte		N06   , As3 
	.byte	W06
	.byte		        Bn3 
	.byte	W12
	.byte		        Cn4 
	.byte	W12
	.byte		N11   , Cs4 
	.byte	W12
	.byte	GOTO
	 .word	seq_040_4 + 0x7
	.byte	FINE

@*********************** Track 06 ***********************@

seq_040_5:
	.byte	KEYSH , seq_040_key+0
	.byte		PAN   , c_v+63
	.byte		BEND  , c_v+0
	.byte	W48
	.byte		VOICE , 101
	.byte		VOL   , 55*seq_040_mvl/mxv
	.byte		N16   , Fn3 , v100
	.byte	W18
	.byte		N04
	.byte	W06
	.byte		N06   , Ds3 
	.byte	W12
	.byte		N16   , Fn3 
	.byte	W18
	.byte		N04
	.byte	W06
	.byte		N08   , Ds3 
	.byte	W12
	.byte		N06   , Fn3 
	.byte	W12
	.byte		N05   , Fs3 
	.byte	W12
	.byte		N16   , Fn3 , v100
	.byte	W18
	.byte		N04
	.byte	W06
	.byte		N05   , Ds3 
	.byte	W12
	.byte		N16   , Fn3 
	.byte	W18
	.byte		N04
	.byte	W06
	.byte		N06   , Ds3 
	.byte	W12
	.byte		        Fn3 
	.byte	W12
	.byte		N05   , Cn3 
	.byte	W12
	.byte	PEND
	.byte		N16   , Fn3 , v100
	.byte	W18
	.byte		N04
	.byte	W06
	.byte		N06   , Ds3 
	.byte	W12
	.byte		N16   , Fn3 
	.byte	W18
	.byte		N04
	.byte	W06
	.byte		N08   , Ds3 
	.byte	W12
	.byte		N06   , Fn3 
	.byte	W12
	.byte		N05   , Fs3 
	.byte	W12
	.byte	PEND
	.byte	PATT
	 .word	seq_040_5 + 0x22
	.byte		VOICE , 111
	.byte		VOL   , 55*seq_040_mvl/mxv
	.byte		N16   , Fn3 , v100
	.byte	W18
	.byte		N04
	.byte	W06
	.byte		N06   , Ds3 
	.byte	W12
	.byte		N16   , Fn3 
	.byte	W18
	.byte		N04
	.byte	W06
	.byte		N08   , Ds3 
	.byte	W12
	.byte		N06   , Fn3 
	.byte	W12
	.byte		N05   , Fs3 
	.byte	W12
	.byte	PATT
	 .word	seq_040_5 + 0x22
	.byte	PATT
	 .word	seq_040_5 + 0x39
	.byte	PATT
	 .word	seq_040_5 + 0x22
	.byte	W84
	.byte		N06   , As2 , v100
	.byte	W06
	.byte		        Bn2 
	.byte	W06
	.byte		N09   , Cn3 
	.byte	W12
	.byte		N06   , Cs3 
	.byte	W12
	.byte		N09   , Dn3 
	.byte	W12
	.byte		N06   , Ds3 
	.byte	W06
	.byte		N09   , En3 
	.byte	W12
	.byte		N06   , Fn3 
	.byte	W06
	.byte		        Fs3 
	.byte	W12
	.byte		        Gn3 
	.byte	W12
	.byte		N11   , Gs3 
	.byte	W12
	.byte	GOTO
	 .word	seq_040_5 + 0x7
	.byte	FINE

@******************************************************@

	.align	2

seq_040:
	.byte	6	@ NumTrks
	.byte	0	@ NumBlks
	.byte	seq_040_pri	@ Priority
	.byte	seq_040_rev	@ Reverb

	.word	seq_040_grp

	.word	seq_040_0
	.word	seq_040_1
	.word	seq_040_2
	.word	seq_040_3
	.word	seq_040_4
	.word	seq_040_5

	.end
