@ File generated by m4a2s Song-Module
	.include "MPlayDef.s"

	.equ	seq_017_grp, bank_007
	.equ	seq_017_pri, 0
	.equ	seq_017_rev, 0
	.equ	seq_017_mvl, 127
	.equ	seq_017_key, 0

	.section .rodata
	.global	seq_017
	.align	2

@*********************** Track 01 ***********************@

seq_017_0:
	.byte	KEYSH , seq_017_key+0
	.byte	TEMPO , 110/2
	.byte		VOL   , 105*seq_017_mvl/mxv
	.byte		PAN   , c_v+0
	.byte	W08
	.byte		VOICE , 56
	.byte		N04   , Fn4 , v100
	.byte	W04
	.byte		N08   , Dn4 , v092
	.byte	W08
	.byte		N04   , Fn4 , v100
	.byte	W04
	.byte		N06   , En4 , v108
	.byte	W12
	.byte		        Cn4 , v096
	.byte	W12
	.byte		        Gn3 , v092
	.byte	W12
	.byte		N18   , As3 , v096
	.byte	W20
	.byte		N04   , An3 , v088
	.byte	W04
	.byte		N12   , Gn3 , v104
	.byte	W20
	.byte		N04   , As3 , v100
	.byte	W04
	.byte		N08   , Dn4 , v092
	.byte	W08
	.byte		N04   , Fn4 , v104
	.byte	W04
	.byte		N06   , En4 
	.byte	W12
	.byte		        Cn4 , v096
	.byte	W12
	.byte		        Gn3 
	.byte	W12
	.byte		N36   , As3 , v100
	.byte	W44
	.byte		N04   , Fn4 
	.byte	W04
	.byte		N08   , Dn4 , v092
	.byte	W08
	.byte		N04   , Fn4 , v108
	.byte	W04
	.byte		N06   , En4 , v100
	.byte	W12
	.byte		        Cn4 , v096
	.byte	W12
	.byte		        Gn3 
	.byte	W12
	.byte		N18   , As3 , v104
	.byte	W20
	.byte		N11   , As3 , v088
	.byte	W12
	.byte		N04   , Gn3 , v100
	.byte	W04
	.byte		N06   , Cn4 , v104
	.byte	W12
	.byte		        Dn4 , v100
	.byte	W12
	.byte		        Cn4 
	.byte	W12
	.byte		        Gn3 , v092
	.byte	W08
	.byte		        An3 , v096
	.byte	W12
	.byte		N04   , Gn3 
	.byte	W04
	.byte		BEND  , c_v-23
	.byte		N06   , As3 , v108
	.byte	W01
	.byte		BEND  , c_v-16
	.byte	W01
	.byte		        c_v-10
	.byte	W01
	.byte		        c_v-5
	.byte	W01
	.byte		        c_v-2
	.byte	W01
	.byte		        c_v-1
	.byte	W01
	.byte		        c_v+0
	.byte	W02
	.byte		N04   , Gn3 , v096
	.byte	W04
	.byte		N06   , Cn4 , v108
	.byte	W08
	.byte		N04   , Cn4 , v096
	.byte	W16
	.byte		N06   , Cn4 , v108
	.byte	W08
	.byte		N04   , Cn4 , v096
	.byte	W04
	.byte		VOICE , 30
	.byte	W12
	.byte	W88
	.byte		        Fn3 
	.byte	W08
	.byte	W80
	.byte		BEND  , c_v-16
	.byte		N04   , Fn4 , v072
	.byte	W01
	.byte		BEND  , c_v-5
	.byte	W01
	.byte		        c_v-1
	.byte	W01
	.byte		        c_v+0
	.byte	W01
	.byte		N08   , Dn4 , v064
	.byte	W08
	.byte		N04   , Fn4 , v072
	.byte	W04
	.byte		N06   , En4 , v076
	.byte	W12
	.byte		        Cn4 , v068
	.byte	W12
	.byte		        Gn3 , v064
	.byte	W12
	.byte		BEND  , c_v-35
	.byte		N18   , As3 , v068
	.byte	W01
	.byte		BEND  , c_v-24
	.byte	W01
	.byte		        c_v-14
	.byte	W01
	.byte		        c_v-7
	.byte	W01
	.byte		        c_v-3
	.byte	W01
	.byte		        c_v-1
	.byte	W01
	.byte		        c_v+0
	.byte	W14
	.byte		N04   , An3 , v064
	.byte	W04
	.byte		N12   , Gn3 , v072
	.byte	W20
	.byte		N04   , As3 
	.byte	W04
	.byte		BEND  , c_v-23
	.byte		N08   , Dn4 , v064
	.byte	W01
	.byte		BEND  , c_v-16
	.byte	W01
	.byte		        c_v-10
	.byte	W01
	.byte		        c_v-5
	.byte	W01
	.byte		        c_v-2
	.byte	W01
	.byte		        c_v-1
	.byte	W01
	.byte		        c_v+0
	.byte	W02
	.byte		N04   , Fn4 , v080
	.byte	W04
	.byte		N06   , En4 , v076
	.byte	W12
	.byte		        Cn4 , v068
	.byte	W12
	.byte		        Gn3 , v060
	.byte	W12
	.byte		BEND  , c_v-41
	.byte		N36   , As3 , v072
	.byte	W01
	.byte		BEND  , c_v-35
	.byte	W01
	.byte		        c_v-29
	.byte	W01
	.byte		        c_v-23
	.byte	W01
	.byte		        c_v-19
	.byte	W01
	.byte		        c_v-14
	.byte	W01
	.byte		        c_v-10
	.byte	W01
	.byte		        c_v-7
	.byte	W01
	.byte		        c_v-5
	.byte	W01
	.byte		        c_v-3
	.byte	W01
	.byte		        c_v-1
	.byte	W01
	.byte		        c_v-1
	.byte	W01
	.byte		        c_v+0
	.byte	W32
	.byte		        c_v-16
	.byte		N04   , Fn4 
	.byte	W01
	.byte		BEND  , c_v-5
	.byte	W01
	.byte		        c_v-1
	.byte	W01
	.byte		        c_v+0
	.byte	W01
	.byte		N08   , Dn4 , v064
	.byte	W08
	.byte		N04   , Fn4 , v076
	.byte	W04
	.byte		N06   , En4 , v068
	.byte	W12
	.byte		        Cn4 
	.byte	W12
	.byte		        Gn3 , v064
	.byte	W12
	.byte		BEND  , c_v-35
	.byte		N18   , As3 
	.byte	W01
	.byte		BEND  , c_v-24
	.byte	W01
	.byte		        c_v-14
	.byte	W01
	.byte		        c_v-7
	.byte	W01
	.byte		        c_v-3
	.byte	W01
	.byte		        c_v-1
	.byte	W01
	.byte		        c_v+0
	.byte	W14
	.byte		N11   , As3 , v068
	.byte	W12
	.byte		N04   , Gn3 , v072
	.byte	W04
	.byte		N06   , Cn4 
	.byte	W12
	.byte		        Dn4 
	.byte	W10
	.byte		N02   , Bn3 
	.byte	W02
	.byte		N06   , Cn4 
	.byte	W12
	.byte		        Gn3 , v064
	.byte	W08
	.byte		        An3 , v068
	.byte	W12
	.byte		N04   , Gn3 
	.byte	W04
	.byte		BEND  , c_v-41
	.byte		N20   , As3 , v076
	.byte	W01
	.byte		BEND  , c_v-35
	.byte	W01
	.byte		        c_v-29
	.byte	W01
	.byte		        c_v-23
	.byte	W01
	.byte		        c_v-18
	.byte	W01
	.byte		        c_v-14
	.byte	W01
	.byte		        c_v-10
	.byte	W01
	.byte		        c_v-7
	.byte	W01
	.byte		        c_v-5
	.byte	W01
	.byte		        c_v-3
	.byte	W01
	.byte		        c_v-1
	.byte	W01
	.byte		        c_v-1
	.byte	W01
	.byte		VOL   , 103*seq_017_mvl/mxv
	.byte		BEND  , c_v+0
	.byte	W01
	.byte		VOL   , 100*seq_017_mvl/mxv
	.byte	W01
	.byte		        94*seq_017_mvl/mxv
	.byte	W01
	.byte		        86*seq_017_mvl/mxv
	.byte	W01
	.byte		        76*seq_017_mvl/mxv
	.byte	W01
	.byte		        65*seq_017_mvl/mxv
	.byte	W01
	.byte		        50*seq_017_mvl/mxv
	.byte	W01
	.byte		        33*seq_017_mvl/mxv
	.byte	W01
	.byte		VOICE , 56
	.byte		VOL   , 105*seq_017_mvl/mxv
	.byte		N06   , As3 , v108
	.byte	W12
	.byte		N04
	.byte	W04
	.byte		N06   , Cn4 , v112
	.byte	W12
	.byte		        Dn4 , v116
	.byte	W12
	.byte		        Cn4 , v108
	.byte	W06
	.byte		N02   , An3 , v088
	.byte	W02
	.byte		        Fn3 , v068
	.byte	W02
	.byte		        Cn3 , v028
	.byte	W14
	.byte		VOICE , 65
	.byte		BEND  , c_v-38
	.byte		N18   , An3 , v072
	.byte	W01
	.byte		BEND  , c_v-29
	.byte	W01
	.byte		        c_v-21
	.byte	W01
	.byte		        c_v-14
	.byte	W01
	.byte		        c_v-9
	.byte	W01
	.byte		        c_v-5
	.byte	W01
	.byte		        c_v-2
	.byte	W01
	.byte		        c_v-1
	.byte	W01
	.byte		        c_v+0
	.byte	W10
	.byte		N14   , Fn3 
	.byte	W06
	.byte		VOL   , 103*seq_017_mvl/mxv
	.byte	W01
	.byte		        100*seq_017_mvl/mxv
	.byte	W01
	.byte		        94*seq_017_mvl/mxv
	.byte	W01
	.byte		        86*seq_017_mvl/mxv
	.byte	W01
	.byte		        76*seq_017_mvl/mxv
	.byte	W01
	.byte		        65*seq_017_mvl/mxv
	.byte	W01
	.byte		        50*seq_017_mvl/mxv
	.byte	W01
	.byte		        33*seq_017_mvl/mxv
	.byte	W01
	.byte		VOICE , 56
	.byte		VOL   , 105*seq_017_mvl/mxv
	.byte		N06   , Cn4 , v108
	.byte	W12
	.byte		N04
	.byte	W04
	.byte		N06   , Dn4 , v112
	.byte	W12
	.byte		        En4 , v116
	.byte	W12
	.byte		        Dn4 , v108
	.byte	W06
	.byte		N02   , Bn3 , v092
	.byte	W02
	.byte		        Gn3 , v072
	.byte	W02
	.byte		        Dn3 , v028
	.byte	W14
	.byte		VOICE , 65
	.byte		BEND  , c_v-38
	.byte		N18   , Bn3 , v072
	.byte	W01
	.byte		BEND  , c_v-29
	.byte	W01
	.byte		        c_v-21
	.byte	W01
	.byte		        c_v-14
	.byte	W01
	.byte		        c_v-9
	.byte	W01
	.byte		        c_v-5
	.byte	W01
	.byte		        c_v-2
	.byte	W01
	.byte		        c_v-1
	.byte	W01
	.byte		        c_v+0
	.byte	W10
	.byte		N14   , Gn3 
	.byte	W06
	.byte		VOL   , 103*seq_017_mvl/mxv
	.byte	W01
	.byte		        100*seq_017_mvl/mxv
	.byte	W01
	.byte		        94*seq_017_mvl/mxv
	.byte	W01
	.byte		        86*seq_017_mvl/mxv
	.byte	W01
	.byte		        76*seq_017_mvl/mxv
	.byte	W01
	.byte		        65*seq_017_mvl/mxv
	.byte	W01
	.byte		        50*seq_017_mvl/mxv
	.byte	W01
	.byte		        33*seq_017_mvl/mxv
	.byte	W01
	.byte		VOICE , 56
	.byte		VOL   , 105*seq_017_mvl/mxv
	.byte	W01
	.byte		N06   , Bn3 , v108
	.byte	W12
	.byte		N04
	.byte	W04
	.byte		N06   , An3 
	.byte	W12
	.byte		        Gn3 
	.byte	W11
	.byte		        Fn3 
	.byte	W12
	.byte		N07
	.byte	W12
	.byte		N08   , An3 
	.byte	W08
	.byte		N04   , Fn3 
	.byte	W12
	.byte		N06   , An3 
	.byte	W12
	.byte		N06
	.byte	W12
	.byte		N04
	.byte	W04
	.byte		N06   , Cn4 
	.byte	W06
	.byte		N03   , Fn3 , v056
	.byte	W03
	.byte		        An3 , v068
	.byte	W03
	.byte		        Cn4 , v092
	.byte	W03
	.byte		        Dn4 , v096
	.byte	W03
	.byte		        En4 , v104
	.byte	W03
	.byte		        Fn4 , v112
	.byte	W03
	.byte		N04   , Gn4 , v124
	.byte	W08
	.byte		        Gn4 , v120
	.byte	W28
	.byte		N04
	.byte	W08
	.byte		N04
	.byte	W28
	.byte		        Gn4 , v124
	.byte	W08
	.byte		        Gn4 , v127
	.byte	W16
	.byte	W96
	.byte	W32
	.byte		VOICE , 56
	.byte	W48
	.byte		N04   , Fn4 , v100
	.byte	W04
	.byte		N08   , Dn4 , v092
	.byte	W08
	.byte		N04   , Fn4 , v100
	.byte	W04
	.byte	GOTO
	 .word	seq_017_0 + 0x17
	.byte	FINE

@*********************** Track 02 ***********************@

seq_017_1:
	.byte	KEYSH , seq_017_key+0
	.byte		VOICE , 61
	.byte		PAN   , c_v+0
	.byte		VOL   , 74*seq_017_mvl/mxv
	.byte	W24
	.byte	W24
	.byte		N06   , Cn4 , v100
	.byte	W32
	.byte		N06
	.byte	W16
	.byte		N07
	.byte	W24
	.byte	PEND
	.byte	W24
	.byte		N06   , Cn4 , v100
	.byte	W32
	.byte		N06
	.byte	W16
	.byte		N06
	.byte	W24
	.byte	PEND
	.byte	PATT
	 .word	seq_017_1 + 0x9
	.byte	W24
	.byte		N06   , Cn4 , v100
	.byte	W20
	.byte		N04   , Ds4 
	.byte	W04
	.byte		N07   , En4 
	.byte	W08
	.byte		N04
	.byte	W16
	.byte		N07
	.byte	W08
	.byte		N04
	.byte	W16
	.byte	PATT
	 .word	seq_017_1 + 0x9
	.byte	PATT
	 .word	seq_017_1 + 0x13
	.byte	PATT
	 .word	seq_017_1 + 0x9
	.byte	PATT
	 .word	seq_017_1 + 0x13
	.byte	PATT
	 .word	seq_017_1 + 0x9
	.byte	W24
	.byte		N06   , Cn4 , v100
	.byte	W32
	.byte		N06
	.byte	W16
	.byte		N06
	.byte	W12
	.byte		        As3 
	.byte	W12
	.byte		        An3 
	.byte	W24
	.byte		N06
	.byte	W32
	.byte		N06
	.byte	W16
	.byte		N06
	.byte	W12
	.byte		        As3 
	.byte	W12
	.byte		        Bn3 
	.byte	W24
	.byte		N06
	.byte	W32
	.byte		        Gn4 
	.byte	W12
	.byte		N04
	.byte	W04
	.byte		N06   , Fn4 
	.byte	W12
	.byte		        En4 
	.byte	W12
	.byte		        Fn4 
	.byte	W06
	.byte		N02   , Cn4 , v092
	.byte	W02
	.byte		        An3 , v088
	.byte	W02
	.byte		N01   , Fn3 , v076
	.byte	W14
	.byte		N06   , Cn4 , v100
	.byte	W32
	.byte		        Fn4 
	.byte	W16
	.byte		N06
	.byte	W24
	.byte		        Dn4 , v112
	.byte	W08
	.byte		N04
	.byte	W28
	.byte		N06
	.byte	W08
	.byte		N04
	.byte	W28
	.byte		N06   , Fn4 
	.byte	W08
	.byte		N04   , Fn4 , v116
	.byte	W16
	.byte	PATT
	 .word	seq_017_1 + 0x13
	.byte	PATT
	 .word	seq_017_1 + 0x13
	.byte	GOTO
	 .word	seq_017_1 + 0x9
	.byte	FINE

@*********************** Track 03 ***********************@

seq_017_2:
	.byte	KEYSH , seq_017_key+0
	.byte		VOICE , 61
	.byte		VOL   , 82*seq_017_mvl/mxv
	.byte		PAN   , c_v+0
	.byte	W24
	.byte	W24
	.byte		N06   , Gn3 , v100
	.byte	W32
	.byte		N06
	.byte	W16
	.byte		N07
	.byte	W24
	.byte	PEND
	.byte	W24
	.byte		N06   , Gn3 , v100
	.byte	W32
	.byte		N06
	.byte	W16
	.byte		N06
	.byte	W24
	.byte	PEND
	.byte	PATT
	 .word	seq_017_2 + 0x9
	.byte	W24
	.byte		N06   , Gn3 , v100
	.byte	W20
	.byte		N04   , As3 
	.byte	W04
	.byte		N07   , Gn3 
	.byte	W08
	.byte		N04
	.byte	W16
	.byte		N07
	.byte	W08
	.byte		N04
	.byte	W16
	.byte	PATT
	 .word	seq_017_2 + 0x9
	.byte	PATT
	 .word	seq_017_2 + 0x13
	.byte	PATT
	 .word	seq_017_2 + 0x9
	.byte	PATT
	 .word	seq_017_2 + 0x13
	.byte	PATT
	 .word	seq_017_2 + 0x9
	.byte	W24
	.byte		N06   , Gn3 , v100
	.byte	W32
	.byte		N06
	.byte	W16
	.byte		N06
	.byte	W12
	.byte		N06
	.byte	W12
	.byte		        Fn3 
	.byte	W24
	.byte		N06
	.byte	W32
	.byte		N06
	.byte	W16
	.byte		N06
	.byte	W12
	.byte		        Fs3 
	.byte	W12
	.byte		        Gn3 
	.byte	W24
	.byte		N06
	.byte	W32
	.byte		        Dn4 
	.byte	W12
	.byte		N04
	.byte	W04
	.byte		N06   , Cn4 
	.byte	W12
	.byte		        Bn3 
	.byte	W12
	.byte		        Cn4 
	.byte	W06
	.byte		N02   , An3 , v092
	.byte	W02
	.byte		        Fn3 , v088
	.byte	W02
	.byte		N01   , Cn3 , v076
	.byte	W14
	.byte		N06   , An3 , v100
	.byte	W32
	.byte		        Cn4 
	.byte	W16
	.byte		N06
	.byte	W24
	.byte		        Bn3 , v108
	.byte	W08
	.byte		N04
	.byte	W28
	.byte		N06
	.byte	W08
	.byte		N04
	.byte	W28
	.byte		N06   , Bn3 , v104
	.byte	W08
	.byte		N04   , Bn3 , v108
	.byte	W16
	.byte	PATT
	 .word	seq_017_2 + 0x13
	.byte	PATT
	 .word	seq_017_2 + 0x13
	.byte	GOTO
	 .word	seq_017_2 + 0x9
	.byte	FINE

@*********************** Track 04 ***********************@

seq_017_3:
	.byte	KEYSH , seq_017_key+0
	.byte		VOICE , 38
	.byte		VOL   , 105*seq_017_mvl/mxv
	.byte	W24
	.byte		N06   , Cn1 , v127
	.byte	W12
	.byte		N06
	.byte	W12
	.byte		        En1 
	.byte	W12
	.byte		N08   , Cn1 
	.byte	W08
	.byte		N06   , En1 
	.byte	W12
	.byte		N06
	.byte	W12
	.byte		N04
	.byte	W04
	.byte		N06   , Gn1 
	.byte	W12
	.byte		        As1 
	.byte	W12
	.byte	PEND
	.byte		N06   , Cn1 , v127
	.byte	W12
	.byte		N06
	.byte	W12
	.byte		        En1 
	.byte	W12
	.byte		N08   , Cn1 
	.byte	W08
	.byte		N06   , En1 
	.byte	W12
	.byte		N06
	.byte	W12
	.byte		N04
	.byte	W04
	.byte		N06   , Gn1 
	.byte	W12
	.byte		        Dn1 
	.byte	W12
	.byte	PEND
	.byte	PATT
	 .word	seq_017_3 + 0x7
	.byte		N06   , Cn1 , v127
	.byte	W12
	.byte		N06
	.byte	W12
	.byte		        En1 
	.byte	W12
	.byte		N08   , Cn1 
	.byte	W08
	.byte		N04   , Dn1 
	.byte	W04
	.byte		N06   , En1 
	.byte	W08
	.byte		N04
	.byte	W12
	.byte		        Cn1 
	.byte	W04
	.byte		N06   , En1 
	.byte	W08
	.byte		N04
	.byte	W04
	.byte		        Gn1 
	.byte	W04
	.byte		        Fn1 
	.byte	W04
	.byte		        Dn1 
	.byte	W04
	.byte	PATT
	 .word	seq_017_3 + 0x7
	.byte	PATT
	 .word	seq_017_3 + 0x7
	.byte	PATT
	 .word	seq_017_3 + 0x7
	.byte	PATT
	 .word	seq_017_3 + 0x1F
	.byte	PATT
	 .word	seq_017_3 + 0x7
	.byte		N06   , Cn1 , v127
	.byte	W12
	.byte		N06
	.byte	W12
	.byte		        En1 
	.byte	W12
	.byte		N08   , Cn1 
	.byte	W08
	.byte		N06   , En1 
	.byte	W12
	.byte		N06
	.byte	W12
	.byte		N04
	.byte	W04
	.byte		N06   , Gn1 
	.byte	W12
	.byte		        En1 
	.byte	W12
	.byte		        Fn1 
	.byte	W12
	.byte		N06
	.byte	W12
	.byte		        An1 
	.byte	W12
	.byte		N08   , Fn1 
	.byte	W08
	.byte		N06   , An1 
	.byte	W12
	.byte		N06
	.byte	W12
	.byte		N04
	.byte	W04
	.byte		N06   , Cn2 
	.byte	W12
	.byte		        An1 
	.byte	W12
	.byte		        Gn1 
	.byte	W12
	.byte		N06
	.byte	W12
	.byte		        Bn1 
	.byte	W12
	.byte		N08   , Gn1 
	.byte	W08
	.byte		N06   , Bn1 
	.byte	W12
	.byte		N06
	.byte	W12
	.byte		N04
	.byte	W04
	.byte		N06   , Dn2 
	.byte	W12
	.byte		        Gn1 
	.byte	W12
	.byte		        Fn1 
	.byte	W12
	.byte		N06
	.byte	W12
	.byte		        An1 
	.byte	W12
	.byte		N08   , Fn1 
	.byte	W08
	.byte		N06   , An1 
	.byte	W12
	.byte		N06
	.byte	W12
	.byte		N04   , Fn1 
	.byte	W04
	.byte		N06   , Cn2 
	.byte	W12
	.byte		        Fn2 
	.byte	W12
	.byte		N08   , Bn1 
	.byte	W08
	.byte		N06
	.byte	W28
	.byte		N08
	.byte	W08
	.byte		N06
	.byte	W12
	.byte		N08   , Fn2 
	.byte	W12
	.byte		N04
	.byte	W04
	.byte		N08   , En2 
	.byte	W12
	.byte		        Dn2 
	.byte	W12
	.byte	PATT
	 .word	seq_017_3 + 0x7
	.byte	PATT
	 .word	seq_017_3 + 0x1F
	.byte	GOTO
	 .word	seq_017_3 + 0x7
	.byte	FINE

@*********************** Track 05 ***********************@

seq_017_4:
	.byte	KEYSH , seq_017_key+0
	.byte		VOICE , 127
	.byte		VOL   , 82*seq_017_mvl/mxv
	.byte	W08
	.byte		N02   , Fn3 , v120
	.byte	W02
	.byte		N03   , Fn3 , v104
	.byte	W03
	.byte		N07   , Fn3 , v116
	.byte	W07
	.byte		N04   , Fn3 , v127
	.byte	W04
	.byte		N08   , En3 , v120
	.byte	W08
	.byte		N04   , En3 , v092
	.byte	W04
	.byte		N08   , En3 , v116
	.byte	W08
	.byte		N04   , En3 , v100
	.byte	W04
	.byte		N08   , Ds3 
	.byte	W08
	.byte		N04   , En3 , v092
	.byte	W04
	.byte		N08   , Ds3 , v120
	.byte	W08
	.byte		N04   , En3 , v100
	.byte	W04
	.byte		N08
	.byte	W08
	.byte		N04   , Ds3 , v096
	.byte	W04
	.byte		N08   , En3 , v100
	.byte	W08
	.byte		N04
	.byte	W04
	.byte		N08   , Ds3 
	.byte	W08
	.byte		N04   , En3 
	.byte	W04
	.byte		N08   , Ds3 , v120
	.byte	W08
	.byte		N04   , En3 , v112
	.byte	W04
	.byte	PEND
	.byte		N08   , En3 , v120
	.byte	W08
	.byte		N04   , En3 , v092
	.byte	W04
	.byte		N08   , En3 , v116
	.byte	W08
	.byte		N04   , En3 , v100
	.byte	W04
	.byte		N08   , Ds3 
	.byte	W08
	.byte		N04   , En3 , v092
	.byte	W04
	.byte		N08   , Ds3 , v120
	.byte	W08
	.byte		N04   , En3 , v100
	.byte	W04
	.byte		N08
	.byte	W08
	.byte		N04   , Ds3 , v096
	.byte	W04
	.byte		N08   , En3 , v100
	.byte	W08
	.byte		N04
	.byte	W04
	.byte		N08   , Ds3 
	.byte	W08
	.byte		N04   , En3 
	.byte	W04
	.byte		N08   , Ds3 , v120
	.byte	W08
	.byte		N04   , Ds3 , v112
	.byte	W04
	.byte	PEND
	.byte	PATT
	 .word	seq_017_4 + 0x17
	.byte		N08   , En3 , v120
	.byte	W08
	.byte		N04   , Ds3 , v092
	.byte	W04
	.byte		N08   , En3 , v116
	.byte	W08
	.byte		N04   , En3 , v100
	.byte	W04
	.byte		N08   , Ds3 
	.byte	W08
	.byte		N04   , En3 , v092
	.byte	W04
	.byte		N08   , Ds3 , v120
	.byte	W08
	.byte		N04   , En3 , v100
	.byte	W04
	.byte		N08   , Ds3 
	.byte	W08
	.byte		N04   , Ds3 , v120
	.byte	W12
	.byte		        En3 , v100
	.byte	W04
	.byte		N08   , Ds3 , v120
	.byte	W08
	.byte		N04   , Ds3 , v100
	.byte		N02   , Fn3 , v120
	.byte	W02
	.byte		N03   , Fn3 , v104
	.byte	W03
	.byte		N07   , Fn3 , v116
	.byte	W07
	.byte		N04   , Fn3 , v127
	.byte	W04
	.byte	PATT
	 .word	seq_017_4 + 0x17
	.byte	PATT
	 .word	seq_017_4 + 0x51
	.byte	PATT
	 .word	seq_017_4 + 0x17
	.byte	PATT
	 .word	seq_017_4 + 0x51
	.byte	PATT
	 .word	seq_017_4 + 0x17
	.byte		N08   , En3 , v120
	.byte	W08
	.byte		N04   , Ds3 , v092
	.byte	W04
	.byte		N08   , En3 , v116
	.byte	W08
	.byte		N04   , En3 , v100
	.byte	W04
	.byte		N08   , Ds3 
	.byte	W08
	.byte		N04   , En3 , v092
	.byte	W04
	.byte		N08   , Ds3 , v120
	.byte	W08
	.byte		N04   , En3 , v100
	.byte	W04
	.byte		N08
	.byte	W08
	.byte		N12   , Fn3 , v120
	.byte	W12
	.byte		N04   , Fn3 , v124
	.byte	W04
	.byte		N03   , Fn3 , v116
	.byte	W03
	.byte		        Fn3 , v096
	.byte	W03
	.byte		        Fn3 , v108
	.byte	W03
	.byte		N11   , Fn3 , v124
	.byte	W11
	.byte		N04   , Fn3 , v127
	.byte	W04
	.byte	PATT
	 .word	seq_017_4 + 0x17
	.byte	PATT
	 .word	seq_017_4 + 0x51
	.byte	PATT
	 .word	seq_017_4 + 0x17
	.byte		N08   , Ds3 , v120
	.byte	W08
	.byte		N04   , Ds3 , v092
	.byte	W04
	.byte		N08   , En3 , v116
	.byte	W08
	.byte		N04   , Ds3 , v100
	.byte	W04
	.byte		N08   , En3 , v120
	.byte	W08
	.byte		N04   , En3 , v092
	.byte	W04
	.byte		N08   , Ds3 , v120
	.byte	W08
	.byte		N04   , Ds3 , v100
	.byte	W04
	.byte		N08   , En3 
	.byte	W08
	.byte		N04   , Ds3 , v120
	.byte	W04
	.byte		N08   , En3 , v100
	.byte	W08
	.byte		N04
	.byte	W04
	.byte		N08   , Ds3 , v120
	.byte		N03   , Fn3 , v116
	.byte	W03
	.byte		        Fn3 , v096
	.byte	W03
	.byte		        Fn3 , v108
	.byte	W02
	.byte		N04   , Ds3 , v100
	.byte	W01
	.byte		N11   , Fn3 , v124
	.byte	W03
	.byte		N08   , En3 , v100
	.byte	W08
	.byte		N04   , Ds3 , v120
	.byte		N04   , Fn3 , v127
	.byte	W04
	.byte	PATT
	 .word	seq_017_4 + 0x17
	.byte	PATT
	 .word	seq_017_4 + 0x51
	.byte	GOTO
	 .word	seq_017_4 + 0x17
	.byte	FINE

@*********************** Track 06 ***********************@

seq_017_5:
	.byte	KEYSH , seq_017_key+0
	.byte		VOICE , 127
	.byte		VOL   , 105*seq_017_mvl/mxv
	.byte	W08
	.byte		N02   , Dn1 , v112
	.byte	W02
	.byte		N03   , Dn1 , v096
	.byte	W03
	.byte		N07   , Dn1 , v104
	.byte	W07
	.byte		N04   , Dn1 , v120
	.byte	W04
	.byte		N08   , Cn1 , v127
	.byte		N20   , An2 , v100
	.byte		N02   , As3 , v052
	.byte	W08
	.byte		        As3 , v044
	.byte	W04
	.byte		        As3 , v056
	.byte	W08
	.byte		N04   , Cn1 , v127
	.byte		N02   , As3 , v044
	.byte	W04
	.byte		N08   , Dn1 , v124
	.byte		N02   , As3 , v052
	.byte	W08
	.byte		        As3 , v036
	.byte	W04
	.byte		N08   , Cn1 , v127
	.byte		N02   , As3 , v052
	.byte	W08
	.byte		N04   , Dn1 , v127
	.byte		N02   , As3 , v036
	.byte	W04
	.byte		N08   , Cn1 , v127
	.byte		N02   , As3 , v056
	.byte	W08
	.byte		N08   , Dn1 , v112
	.byte		N02   , As3 , v044
	.byte	W04
	.byte		        As3 , v052
	.byte	W08
	.byte		N04   , Cn1 , v127
	.byte		N02   , As3 , v040
	.byte	W04
	.byte		N08   , Dn1 , v124
	.byte		N02   , As3 , v060
	.byte	W08
	.byte		        As3 , v040
	.byte	W04
	.byte		N08   , Cn1 , v127
	.byte		N02   , As3 , v052
	.byte	W08
	.byte		N04   , Dn1 , v100
	.byte		N02   , As3 , v044
	.byte	W04
	.byte	PEND
	.byte		N08   , Cn1 , v127
	.byte		N02   , As3 , v052
	.byte	W08
	.byte		        As3 , v044
	.byte	W04
	.byte		N08   , Cn1 , v127
	.byte		N02   , As3 , v056
	.byte	W08
	.byte		N04   , Cn1 , v127
	.byte		N02   , As3 , v044
	.byte	W04
	.byte		N08   , Dn1 , v127
	.byte		N02   , As3 , v052
	.byte	W08
	.byte		        As3 , v036
	.byte	W04
	.byte		N08   , Cn1 , v127
	.byte		N02   , As3 , v052
	.byte	W08
	.byte		N04   , Dn1 , v124
	.byte		N02   , As3 , v036
	.byte	W04
	.byte		N08   , Cn1 , v127
	.byte		N02   , As3 , v056
	.byte	W08
	.byte		N08   , Dn1 , v112
	.byte		N02   , As3 , v044
	.byte	W04
	.byte		        As3 , v052
	.byte	W08
	.byte		N04   , Cn1 , v127
	.byte		N02   , As3 , v040
	.byte	W04
	.byte		N08   , Dn1 , v127
	.byte		N02   , As3 , v060
	.byte	W08
	.byte		N04   , Cn1 , v127
	.byte		N02   , As3 , v040
	.byte	W04
	.byte		N08   , Cn1 , v127
	.byte		N02   , As3 , v052
	.byte	W08
	.byte		        As3 , v044
	.byte	W04
	.byte	PEND
	.byte		N08   , Cn1 , v127
	.byte		N02   , As3 , v052
	.byte	W08
	.byte		        As3 , v044
	.byte	W04
	.byte		N08   , Cn1 , v127
	.byte		N02   , As3 , v056
	.byte	W08
	.byte		N04   , Cn1 , v127
	.byte		N02   , As3 , v044
	.byte	W04
	.byte		N08   , Dn1 , v124
	.byte		N02   , As3 , v052
	.byte	W08
	.byte		        As3 , v036
	.byte	W04
	.byte		N08   , Cn1 , v127
	.byte		N02   , As3 , v052
	.byte	W08
	.byte		N04   , Dn1 , v127
	.byte		N02   , As3 , v036
	.byte	W04
	.byte		N08   , Cn1 , v127
	.byte		N02   , As3 , v056
	.byte	W08
	.byte		N08   , Dn1 , v112
	.byte		N02   , As3 , v044
	.byte	W04
	.byte		        As3 , v052
	.byte	W08
	.byte		N04   , Cn1 , v127
	.byte		N02   , As3 , v040
	.byte	W04
	.byte		N08   , Dn1 , v124
	.byte		N02   , As3 , v060
	.byte	W08
	.byte		        As3 , v040
	.byte	W04
	.byte		N08   , Cn1 , v127
	.byte		N02   , As3 , v052
	.byte	W08
	.byte		N04   , Dn1 , v100
	.byte		N02   , As3 , v044
	.byte	W04
	.byte	PEND
	.byte		N08   , Cn1 , v127
	.byte		N02   , As3 , v052
	.byte	W08
	.byte		        As3 , v044
	.byte	W04
	.byte		N08   , Cn1 , v127
	.byte		N02   , As3 , v056
	.byte	W08
	.byte		N04   , Cn1 , v127
	.byte		N02   , As3 , v044
	.byte	W04
	.byte		N08   , Dn1 , v127
	.byte		N02   , As3 , v052
	.byte	W08
	.byte		        As3 , v036
	.byte	W04
	.byte		N08   , Cn1 , v127
	.byte		N02   , As3 , v052
	.byte	W08
	.byte		N04   , Cn1 , v127
	.byte		N02   , As3 , v036
	.byte	W04
	.byte		N08   , Dn1 , v112
	.byte		N02   , As3 , v056
	.byte	W08
	.byte		N08   , Dn1 , v112
	.byte		N02   , As3 , v044
	.byte	W04
	.byte		        As3 , v052
	.byte	W08
	.byte		N04   , Cn1 , v127
	.byte		N02   , As3 , v040
	.byte	W04
	.byte		N08   , Dn1 , v127
	.byte		N02   , As3 , v060
	.byte	W08
	.byte		        As3 , v040
	.byte	W04
	.byte		N04   , Dn1 , v088
	.byte		N02   , As3 , v052
	.byte	W04
	.byte		N04   , Cn1 , v127
	.byte	W04
	.byte		        Dn1 , v112
	.byte		N02   , As3 , v044
	.byte	W04
	.byte		N08   , Cn1 , v127
	.byte		N20   , An2 
	.byte		N02   , As3 , v052
	.byte	W08
	.byte		        As3 , v044
	.byte	W04
	.byte		        As3 , v056
	.byte	W08
	.byte		N04   , Cn1 , v127
	.byte		N02   , As3 , v044
	.byte	W04
	.byte		N08   , Dn1 , v124
	.byte		N02   , As3 , v052
	.byte	W08
	.byte		        As3 , v036
	.byte	W04
	.byte		N08   , Cn1 , v127
	.byte		N02   , As3 , v052
	.byte	W08
	.byte		N04   , Dn1 , v127
	.byte		N02   , As3 , v036
	.byte	W04
	.byte		N08   , Cn1 , v127
	.byte		N02   , As3 , v056
	.byte	W08
	.byte		N08   , Dn1 , v112
	.byte		N02   , As3 , v044
	.byte	W04
	.byte		        As3 , v052
	.byte	W08
	.byte		N04   , Cn1 , v127
	.byte		N02   , As3 , v040
	.byte	W04
	.byte		N08   , Dn1 , v124
	.byte		N02   , As3 , v060
	.byte	W08
	.byte		        As3 , v040
	.byte	W04
	.byte		N08   , Cn1 , v127
	.byte		N02   , As3 , v052
	.byte	W08
	.byte		N04   , Dn1 , v100
	.byte		N02   , As3 , v044
	.byte	W04
	.byte		N08   , Cn1 , v127
	.byte		N02   , As3 , v052
	.byte	W08
	.byte		        As3 , v044
	.byte	W04
	.byte		N08   , Cn1 , v127
	.byte		N02   , As3 , v056
	.byte	W08
	.byte		N04   , Cn1 , v127
	.byte		N02   , As3 , v044
	.byte	W04
	.byte		N08   , Dn1 , v127
	.byte		N02   , As3 , v052
	.byte	W08
	.byte		        As3 , v036
	.byte	W04
	.byte		N08   , Cn1 , v127
	.byte		N02   , As3 , v052
	.byte	W08
	.byte		N04   , Dn1 , v124
	.byte		N02   , As3 , v036
	.byte	W04
	.byte		N08   , Cn1 , v127
	.byte		N02   , As3 , v056
	.byte	W08
	.byte		N08   , Dn1 , v112
	.byte		N02   , As3 , v044
	.byte	W04
	.byte		        As3 , v052
	.byte	W08
	.byte		N04   , Cn1 , v127
	.byte		N02   , As3 , v040
	.byte	W04
	.byte		N08   , Dn1 , v127
	.byte		N02   , As3 , v060
	.byte	W08
	.byte		N04   , Cn1 , v127
	.byte		N02   , As3 , v040
	.byte	W04
	.byte		N04   , Dn1 , v112
	.byte		N02   , As3 , v052
	.byte	W04
	.byte		N04   , Dn1 , v127
	.byte	W04
	.byte		        Cn1 
	.byte		N02   , As3 , v044
	.byte	W04
	.byte	PEND
	.byte	PATT
	 .word	seq_017_5 + 0x17
	.byte	PATT
	 .word	seq_017_5 + 0x77
	.byte	PATT
	 .word	seq_017_5 + 0xD8
	.byte	PATT
	 .word	seq_017_5 + 0x1FA
	.byte		N20   , An2 , v100
	.byte		N02   , As3 , v052
	.byte	W08
	.byte		        As3 , v044
	.byte	W04
	.byte		        As3 , v056
	.byte	W08
	.byte		N04   , Cn1 , v127
	.byte		N02   , As3 , v044
	.byte	W04
	.byte		N08   , Dn1 , v124
	.byte		N02   , As3 , v052
	.byte	W08
	.byte		        As3 , v036
	.byte	W04
	.byte		N08   , Cn1 , v127
	.byte		N02   , As3 , v052
	.byte	W08
	.byte		N04   , Dn1 , v127
	.byte		N02   , As3 , v036
	.byte	W04
	.byte		N08   , Cn1 , v127
	.byte		N02   , As3 , v056
	.byte	W08
	.byte		N08   , Dn1 , v112
	.byte		N02   , As3 , v044
	.byte	W04
	.byte		        As3 , v052
	.byte	W08
	.byte		N04   , Cn1 , v127
	.byte		N02   , As3 , v040
	.byte	W04
	.byte		N08   , Dn1 , v124
	.byte		N02   , As3 , v060
	.byte	W08
	.byte		        As3 , v040
	.byte	W04
	.byte		N08   , Cn1 , v127
	.byte		N02   , As3 , v052
	.byte	W08
	.byte		N04   , Dn1 , v100
	.byte		N02   , As3 , v044
	.byte	W04
	.byte	PATT
	 .word	seq_017_5 + 0x77
	.byte	PATT
	 .word	seq_017_5 + 0xD8
	.byte		N08   , Dn1 , v112
	.byte		N02   , As3 , v052
	.byte	W08
	.byte		N08   , Dn1 , v112
	.byte		N02   , As3 , v044
	.byte	W04
	.byte		        As3 , v056
	.byte	W08
	.byte		N04   , Cn1 , v127
	.byte		N02   , As3 , v044
	.byte	W04
	.byte		N08   , Dn1 , v127
	.byte		N02   , As3 , v052
	.byte	W08
	.byte		N04   , Cn1 , v127
	.byte		N02   , As3 , v036
	.byte	W04
	.byte		N08   , Dn1 , v112
	.byte		N02   , As3 , v052
	.byte	W08
	.byte		N04   , Dn1 , v112
	.byte		N02   , As3 , v036
	.byte	W04
	.byte		N04   , Cn1 , v127
	.byte		N02   , As3 , v056
	.byte	W08
	.byte		N04   , Cn1 , v127
	.byte		N02   , As3 , v044
	.byte	W04
	.byte		N04   , Dn1 , v112
	.byte		N02   , As3 , v052
	.byte	W04
	.byte		N04   , Dn1 , v120
	.byte	W04
	.byte		        Dn1 , v127
	.byte		N02   , As3 , v040
	.byte	W04
	.byte		        As3 , v060
	.byte	W08
	.byte		        As3 , v040
	.byte	W04
	.byte		N08   , Dn1 , v112
	.byte		N02   , As3 , v052
	.byte	W08
	.byte		N04   , Cn1 , v127
	.byte		N02   , As3 , v044
	.byte	W04
	.byte	PATT
	 .word	seq_017_5 + 0x17
	.byte	PATT
	 .word	seq_017_5 + 0x77
	.byte	GOTO
	 .word	seq_017_5 + 0x17
	.byte	FINE

@******************************************************@

	.align	2

seq_017:
	.byte	6	@ NumTrks
	.byte	0	@ NumBlks
	.byte	seq_017_pri	@ Priority
	.byte	seq_017_rev	@ Reverb

	.word	seq_017_grp

	.word	seq_017_0
	.word	seq_017_1
	.word	seq_017_2
	.word	seq_017_3
	.word	seq_017_4
	.word	seq_017_5

	.end
