@ File generated by m4a2s Song-Module
	.include "MPlayDef.s"

	.equ	seq_012_grp, bank_006
	.equ	seq_012_pri, 0
	.equ	seq_012_rev, 0
	.equ	seq_012_mvl, 127
	.equ	seq_012_key, 0

	.section .rodata
	.global	seq_012
	.align	2

@*********************** Track 01 ***********************@

seq_012_0:
	.byte	KEYSH , seq_012_key+0
	.byte	TEMPO , 140/2
	.byte		VOICE , 12
	.byte		VOL   , 110*seq_012_mvl/mxv
	.byte		N09   , Bn4 , v127
	.byte	W06
	.byte		        Gs4 
	.byte	W06
	.byte		        Fn4 , v120
	.byte	W06
	.byte		        Dn4 , v116
	.byte	W06
	.byte		        Bn3 , v112
	.byte	W06
	.byte		        Gs3 , v116
	.byte	W06
	.byte		        Fn3 , v120
	.byte	W06
	.byte		        Dn3 , v124
	.byte	W06
	.byte		        Bn2 , v127
	.byte	W06
	.byte		        Dn3 
	.byte	W06
	.byte		        Fn3 
	.byte	W06
	.byte		        Gs3 
	.byte	W06
	.byte		        Bn3 , v116
	.byte	W06
	.byte		        Dn4 , v104
	.byte	W06
	.byte		        Fn4 , v096
	.byte	W06
	.byte		        Gs4 , v088
	.byte	W06
	.byte		        Bn4 , v080
	.byte	W06
	.byte		        Gs4 , v076
	.byte	W06
	.byte		        Fn4 , v080
	.byte	W06
	.byte		        Dn4 , v096
	.byte	W06
	.byte		        Bn3 , v108
	.byte	W06
	.byte		        Gs3 , v112
	.byte	W06
	.byte		        Fn3 , v127
	.byte	W06
	.byte		        Dn3 
	.byte	W06
	.byte		        Bn2 
	.byte	W06
	.byte		        Dn3 
	.byte	W06
	.byte		        Fn3 , v120
	.byte	W06
	.byte		        Gs3 , v112
	.byte	W06
	.byte		        Bn3 , v108
	.byte	W06
	.byte		        Dn4 , v116
	.byte	W06
	.byte		        Fn4 , v124
	.byte	W06
	.byte		        Gs4 , v127
	.byte	W06
	.byte	GOTO
	 .word	seq_012_0 + 0x2
	.byte	FINE

@******************************************************@

	.align	2

seq_012:
	.byte	1	@ NumTrks
	.byte	0	@ NumBlks
	.byte	seq_012_pri	@ Priority
	.byte	seq_012_rev	@ Reverb

	.word	seq_012_grp

	.word	seq_012_0

	.end
