@ File generated by m4a2s Song-Module
	.include "MPlayDef.s"

	.equ	seq_015_grp, bank_007
	.equ	seq_015_pri, 0
	.equ	seq_015_rev, 0
	.equ	seq_015_mvl, 127
	.equ	seq_015_key, 0

	.section .rodata
	.global	seq_015
	.align	2

@*********************** Track 01 ***********************@

seq_015_0:
	.byte	KEYSH , seq_015_key+0
	.byte	TEMPO , 136/2
	.byte		VOICE , 61
	.byte		VOL   , 82*seq_015_mvl/mxv
	.byte		PAN   , c_v+0
	.byte	W24
	.byte		N54   , Dn4 , v100
	.byte	W60
	.byte		N06
	.byte	W06
	.byte		        En4 
	.byte	W06
	.byte		N12   , Fn4 
	.byte	W24
	.byte		        En4 
	.byte	W24
	.byte		        Dn4 
	.byte	W24
	.byte		N18   , Cn4 
	.byte	W18
	.byte		N06   , Dn4 
	.byte	W06
	.byte	W12
	.byte		N84   , Gn3 
	.byte	W84
	.byte	W72
	.byte		N06   , Bn3 
	.byte	W07
	.byte		N05
	.byte	W17
	.byte	W24
	.byte		N54   , Dn4 
	.byte	W60
	.byte		N06
	.byte	W06
	.byte		        En4 
	.byte	W06
	.byte		N12   , Fn4 
	.byte	W24
	.byte		        En4 
	.byte	W24
	.byte		        Dn4 
	.byte	W24
	.byte		N18   , En4 
	.byte	W18
	.byte		N06   , Dn4 
	.byte	W06
	.byte	W12
	.byte		N84   , Gn4 
	.byte	W84
	.byte	W12
	.byte		N06   , As4 
	.byte	W12
	.byte		N06
	.byte	W07
	.byte		N05
	.byte	W11
	.byte		N06   , An4 
	.byte	W12
	.byte		N12
	.byte	W12
	.byte		N06   , Gn4 
	.byte	W06
	.byte		        Fn4 
	.byte	W12
	.byte		        An4 
	.byte	W12
	.byte		N18   , Gn4 
	.byte	W18
	.byte		N78   , Dn4 
	.byte	W56
	.byte	W01
	.byte		VOL   , 81*seq_015_mvl/mxv
	.byte	W03
	.byte		        76*seq_015_mvl/mxv
	.byte	W04
	.byte		        69*seq_015_mvl/mxv
	.byte	W03
	.byte		        60*seq_015_mvl/mxv
	.byte	W04
	.byte		        47*seq_015_mvl/mxv
	.byte	W03
	.byte		        32*seq_015_mvl/mxv
	.byte	W04
	.byte		        82*seq_015_mvl/mxv
	.byte	W12
	.byte		N06   , Bn3 
	.byte	W12
	.byte		N06
	.byte	W07
	.byte		N05
	.byte	W11
	.byte		N06   , An3 
	.byte	W12
	.byte		N12
	.byte	W12
	.byte		N06   , Bn3 
	.byte	W06
	.byte		        Cn4 
	.byte	W12
	.byte		        An3 
	.byte	W12
	.byte		N18   , Bn3 
	.byte	W18
	.byte		N78   , Dn4 
	.byte	W56
	.byte	W01
	.byte		VOL   , 81*seq_015_mvl/mxv
	.byte	W03
	.byte		        76*seq_015_mvl/mxv
	.byte	W04
	.byte		        69*seq_015_mvl/mxv
	.byte	W03
	.byte		        60*seq_015_mvl/mxv
	.byte	W04
	.byte		        47*seq_015_mvl/mxv
	.byte	W03
	.byte		        32*seq_015_mvl/mxv
	.byte	W04
	.byte		        82*seq_015_mvl/mxv
	.byte		N06   , Bn3 
	.byte	W24
	.byte		N06
	.byte	W18
	.byte		N18   , An3 
	.byte	W18
	.byte		N06   , As3 
	.byte	W12
	.byte		BEND  , c_v+0
	.byte		N11   , Bn3 
	.byte	W01
	.byte		BEND  , c_v-1
	.byte	W01
	.byte		        c_v-3
	.byte	W01
	.byte		        c_v-7
	.byte	W01
	.byte		        c_v-12
	.byte	W01
	.byte		        c_v-18
	.byte	W01
	.byte		        c_v-26
	.byte	W02
	.byte		        c_v-35
	.byte	W01
	.byte		        c_v-46
	.byte	W01
	.byte		        c_v-58
	.byte	W01
	.byte		        c_v-64
	.byte	W03
	.byte		        c_v+0
	.byte	W10
	.byte		VOL   , 52*seq_015_mvl/mxv
	.byte		N96   , Dn4 , v100
	.byte	W96
	.byte	PEND
	.byte		N48   , Cs4 
	.byte	W48
	.byte		        Cn4 
	.byte	W48
	.byte	W24
	.byte		VOL   , 66*seq_015_mvl/mxv
	.byte	W24
	.byte		N06   , Dn4 , v108
	.byte	W06
	.byte		        Cn4 , v096
	.byte	W06
	.byte		        Dn4 , v108
	.byte	W06
	.byte		        Cn4 , v100
	.byte	W06
	.byte		        Dn4 , v116
	.byte	W06
	.byte		        Cn4 , v108
	.byte	W06
	.byte		        Bn3 , v100
	.byte	W06
	.byte		        An3 , v096
	.byte	W06
	.byte	W48
	.byte		        Dn4 , v108
	.byte	W06
	.byte		        Cn4 , v100
	.byte	W06
	.byte		        Dn4 , v116
	.byte	W06
	.byte		        Bn3 , v100
	.byte	W30
	.byte	PATT
	 .word	seq_015_0 + 0xBC
	.byte		N48   , Cs4 , v100
	.byte	W48
	.byte		        Dn4 
	.byte	W48
	.byte	W24
	.byte		TIE   , Fn4 
	.byte	W72
	.byte	W24
	.byte	W03
	.byte		VOL   , 52*seq_015_mvl/mxv
	.byte	W03
	.byte		        50*seq_015_mvl/mxv
	.byte	W04
	.byte		        48*seq_015_mvl/mxv
	.byte	W03
	.byte		        45*seq_015_mvl/mxv
	.byte	W04
	.byte		        42*seq_015_mvl/mxv
	.byte	W03
	.byte		        37*seq_015_mvl/mxv
	.byte	W04
	.byte		        32*seq_015_mvl/mxv
	.byte	W03
	.byte		        25*seq_015_mvl/mxv
	.byte	W04
	.byte		        19*seq_015_mvl/mxv
	.byte	W03
	.byte		        10*seq_015_mvl/mxv
	.byte	W02
	.byte		EOT
	.byte		VOL   , 52*seq_015_mvl/mxv
	.byte		N06   , En4 
	.byte	W18
	.byte		N18   , Ds4 
	.byte	W18
	.byte		TIE   , Dn4 
	.byte	W96
	.byte	W06
	.byte		VOL   , 52*seq_015_mvl/mxv
	.byte	W07
	.byte		        50*seq_015_mvl/mxv
	.byte	W07
	.byte		        48*seq_015_mvl/mxv
	.byte	W07
	.byte		        45*seq_015_mvl/mxv
	.byte	W07
	.byte		        42*seq_015_mvl/mxv
	.byte	W07
	.byte		        37*seq_015_mvl/mxv
	.byte	W07
	.byte		        32*seq_015_mvl/mxv
	.byte	W07
	.byte		        25*seq_015_mvl/mxv
	.byte	W07
	.byte		        19*seq_015_mvl/mxv
	.byte	W07
	.byte		        10*seq_015_mvl/mxv
	.byte	W03
	.byte		EOT
	.byte		VOL   , 82*seq_015_mvl/mxv
	.byte		N06   , Dn4 , v080
	.byte	W07
	.byte		N05   , Dn4 , v096
	.byte	W17
	.byte	GOTO
	 .word	seq_015_0 + 0x2
	.byte	W96
	.byte	FINE

@*********************** Track 02 ***********************@

seq_015_1:
	.byte	KEYSH , seq_015_key+0
	.byte		VOICE , 61
	.byte		PAN   , c_v+0
	.byte		VOL   , 82*seq_015_mvl/mxv
	.byte	W24
	.byte		N54   , Gn3 , v080
	.byte	W60
	.byte		N06
	.byte	W06
	.byte		        An3 
	.byte	W06
	.byte		N12   , As3 
	.byte	W24
	.byte		        An3 
	.byte	W24
	.byte		        Gn3 
	.byte	W24
	.byte		N18   , Fn3 
	.byte	W18
	.byte		N06   , Gn3 
	.byte	W06
	.byte	W12
	.byte		N84   , Dn3 
	.byte	W84
	.byte	W72
	.byte		N06   , Gn3 , v084
	.byte	W07
	.byte		N05
	.byte	W17
	.byte	W24
	.byte		N54   , Gn3 , v080
	.byte	W60
	.byte		N06
	.byte	W06
	.byte		        An3 
	.byte	W06
	.byte		N12   , As3 
	.byte	W24
	.byte		        An3 
	.byte	W24
	.byte		        Gn3 
	.byte	W24
	.byte		N18   , An3 
	.byte	W18
	.byte		N06   , Gn3 
	.byte	W06
	.byte	W12
	.byte		N84   , Bn3 
	.byte	W84
	.byte	W96
	.byte		N18   , Dn3 , v076
	.byte	W18
	.byte		N78   , Bn2 
	.byte	W56
	.byte	W01
	.byte		VOL   , 81*seq_015_mvl/mxv
	.byte	W03
	.byte		        76*seq_015_mvl/mxv
	.byte	W04
	.byte		        69*seq_015_mvl/mxv
	.byte	W03
	.byte		        60*seq_015_mvl/mxv
	.byte	W04
	.byte		        47*seq_015_mvl/mxv
	.byte	W03
	.byte		        32*seq_015_mvl/mxv
	.byte	W04
	.byte		        82*seq_015_mvl/mxv
	.byte	W96
	.byte		N18   , Gn3 
	.byte	W18
	.byte		N78   , Bn3 
	.byte	W56
	.byte	W01
	.byte		VOL   , 81*seq_015_mvl/mxv
	.byte	W03
	.byte		        76*seq_015_mvl/mxv
	.byte	W04
	.byte		        69*seq_015_mvl/mxv
	.byte	W03
	.byte		        60*seq_015_mvl/mxv
	.byte	W04
	.byte		        47*seq_015_mvl/mxv
	.byte	W03
	.byte		        32*seq_015_mvl/mxv
	.byte	W04
	.byte		        82*seq_015_mvl/mxv
	.byte		N06   , Dn3 
	.byte	W24
	.byte		N06
	.byte	W18
	.byte		N18   , Cn3 
	.byte	W18
	.byte		N06   , Cs3 
	.byte	W12
	.byte		BEND  , c_v+0
	.byte		N11   , Dn3 
	.byte	W01
	.byte		BEND  , c_v-1
	.byte	W01
	.byte		        c_v-3
	.byte	W01
	.byte		        c_v-7
	.byte	W01
	.byte		        c_v-12
	.byte	W01
	.byte		        c_v-18
	.byte	W01
	.byte		        c_v-26
	.byte	W02
	.byte		        c_v-35
	.byte	W01
	.byte		        c_v-46
	.byte	W01
	.byte		        c_v-58
	.byte	W01
	.byte		        c_v-64
	.byte	W03
	.byte		        c_v+0
	.byte	W10
	.byte		VOL   , 52*seq_015_mvl/mxv
	.byte		N96   , An3 , v084
	.byte	W96
	.byte	PEND
	.byte		N48   , Gs3 
	.byte	W48
	.byte		        Gn3 
	.byte	W48
	.byte	W24
	.byte		VOL   , 66*seq_015_mvl/mxv
	.byte	W24
	.byte		N06   , Bn3 , v080
	.byte	W06
	.byte		        An3 , v072
	.byte	W06
	.byte		        Bn3 , v080
	.byte	W06
	.byte		        An3 , v076
	.byte	W06
	.byte		        Bn3 , v084
	.byte	W06
	.byte		        An3 , v080
	.byte	W06
	.byte		        Gn3 , v076
	.byte	W06
	.byte		        Fn3 , v072
	.byte	W06
	.byte	W48
	.byte		        Bn3 , v080
	.byte	W06
	.byte		        An3 , v076
	.byte	W06
	.byte		        Bn3 , v084
	.byte	W06
	.byte		        Gn3 , v076
	.byte	W30
	.byte	PATT
	 .word	seq_015_1 + 0x97
	.byte		N48   , Gs3 , v084
	.byte	W48
	.byte		        An3 
	.byte	W48
	.byte	W24
	.byte		TIE   , Bn3 
	.byte	W72
	.byte	W24
	.byte	W03
	.byte		VOL   , 52*seq_015_mvl/mxv
	.byte	W03
	.byte		        50*seq_015_mvl/mxv
	.byte	W04
	.byte		        48*seq_015_mvl/mxv
	.byte	W03
	.byte		        45*seq_015_mvl/mxv
	.byte	W04
	.byte		        42*seq_015_mvl/mxv
	.byte	W03
	.byte		        37*seq_015_mvl/mxv
	.byte	W04
	.byte		        32*seq_015_mvl/mxv
	.byte	W03
	.byte		        25*seq_015_mvl/mxv
	.byte	W04
	.byte		        19*seq_015_mvl/mxv
	.byte	W03
	.byte		        10*seq_015_mvl/mxv
	.byte	W02
	.byte		EOT
	.byte		VOL   , 52*seq_015_mvl/mxv
	.byte		N06   , As3 
	.byte	W18
	.byte		N18   , An3 
	.byte	W18
	.byte		TIE   , Dn3 
	.byte	W96
	.byte	W06
	.byte		VOL   , 52*seq_015_mvl/mxv
	.byte	W07
	.byte		        50*seq_015_mvl/mxv
	.byte	W07
	.byte		        48*seq_015_mvl/mxv
	.byte	W07
	.byte		        45*seq_015_mvl/mxv
	.byte	W07
	.byte		        42*seq_015_mvl/mxv
	.byte	W07
	.byte		        37*seq_015_mvl/mxv
	.byte	W07
	.byte		        32*seq_015_mvl/mxv
	.byte	W07
	.byte		        25*seq_015_mvl/mxv
	.byte	W07
	.byte		        19*seq_015_mvl/mxv
	.byte	W07
	.byte		        10*seq_015_mvl/mxv
	.byte	W03
	.byte		EOT
	.byte		VOL   , 82*seq_015_mvl/mxv
	.byte		N06   , Gn3 , v072
	.byte	W07
	.byte		N05   , Gn3 , v080
	.byte	W17
	.byte	GOTO
	 .word	seq_015_1 + 0x2
	.byte	W96
	.byte	FINE

@*********************** Track 03 ***********************@

seq_015_2:
	.byte	KEYSH , seq_015_key+0
	.byte		VOICE , 65
	.byte		VOL   , 82*seq_015_mvl/mxv
	.byte		PAN   , c_v+0
	.byte	W96
	.byte	W96
	.byte	W96
	.byte	W72
	.byte		N06   , Dn4 , v068
	.byte	W07
	.byte		N05   , Dn4 , v076
	.byte	W17
	.byte	W96
	.byte	W96
	.byte	W96
	.byte	W96
	.byte		BEND  , c_v-34
	.byte		N18   , Bn3 , v068
	.byte	W01
	.byte		BEND  , c_v-23
	.byte	W01
	.byte		        c_v-14
	.byte	W01
	.byte		        c_v-7
	.byte	W01
	.byte		        c_v-2
	.byte	W01
	.byte		        c_v-1
	.byte	W01
	.byte		        c_v+0
	.byte	W12
	.byte		N78   , Gn3 
	.byte	W56
	.byte	W01
	.byte		VOL   , 81*seq_015_mvl/mxv
	.byte	W03
	.byte		        76*seq_015_mvl/mxv
	.byte	W04
	.byte		        69*seq_015_mvl/mxv
	.byte	W03
	.byte		        60*seq_015_mvl/mxv
	.byte	W04
	.byte		        47*seq_015_mvl/mxv
	.byte	W03
	.byte		        32*seq_015_mvl/mxv
	.byte	W04
	.byte		        16*seq_015_mvl/mxv
	.byte	W96
	.byte		        82*seq_015_mvl/mxv
	.byte		BEND  , c_v-34
	.byte		N18   , Dn4 
	.byte	W01
	.byte		BEND  , c_v-23
	.byte	W01
	.byte		        c_v-14
	.byte	W01
	.byte		        c_v-7
	.byte	W01
	.byte		        c_v-2
	.byte	W01
	.byte		        c_v-1
	.byte	W01
	.byte		        c_v+0
	.byte	W12
	.byte		N78   , Gn3 
	.byte	W56
	.byte	W01
	.byte		VOL   , 81*seq_015_mvl/mxv
	.byte	W03
	.byte		        76*seq_015_mvl/mxv
	.byte	W04
	.byte		        69*seq_015_mvl/mxv
	.byte	W03
	.byte		        60*seq_015_mvl/mxv
	.byte	W04
	.byte		        47*seq_015_mvl/mxv
	.byte	W03
	.byte		        32*seq_015_mvl/mxv
	.byte	W04
	.byte		        82*seq_015_mvl/mxv
	.byte		N06
	.byte	W24
	.byte		N06
	.byte	W18
	.byte		N18   , Fn3 
	.byte	W18
	.byte		N06   , Fs3 
	.byte	W12
	.byte		BEND  , c_v+0
	.byte		N11   , Gn3 
	.byte	W01
	.byte		BEND  , c_v-1
	.byte	W01
	.byte		        c_v-3
	.byte	W01
	.byte		        c_v-7
	.byte	W01
	.byte		        c_v-12
	.byte	W01
	.byte		        c_v-18
	.byte	W01
	.byte		        c_v-26
	.byte	W02
	.byte		        c_v-35
	.byte	W01
	.byte		        c_v-46
	.byte	W01
	.byte		        c_v-58
	.byte	W01
	.byte		        c_v-64
	.byte	W03
	.byte		        c_v+0
	.byte	W10
	.byte	W96
	.byte	W78
	.byte		N06   , Bn3 , v088
	.byte	W06
	.byte		        As3 , v080
	.byte	W06
	.byte		        An3 , v076
	.byte	W06
	.byte		        Bn3 , v088
	.byte	W06
	.byte		        Gn3 , v080
	.byte	W12
	.byte		        Dn3 
	.byte	W12
	.byte		        Dn3 , v088
	.byte	W12
	.byte		        En3 
	.byte	W06
	.byte		VOL   , 52*seq_015_mvl/mxv
	.byte		N06   , Fn3 , v092
	.byte	W06
	.byte		        En3 , v080
	.byte	W06
	.byte		        Fn3 , v092
	.byte	W06
	.byte		        En3 , v080
	.byte	W06
	.byte		        Fn3 , v092
	.byte	W06
	.byte		        En3 , v080
	.byte	W06
	.byte		        Dn3 , v076
	.byte	W06
	.byte		        Cn3 , v080
	.byte	W06
	.byte		VOL   , 82*seq_015_mvl/mxv
	.byte		N06   , Bn2 , v076
	.byte	W06
	.byte		        Cn3 , v080
	.byte	W12
	.byte		        Dn3 , v088
	.byte	W12
	.byte		        Gn3 , v092
	.byte	W12
	.byte		        Dn3 , v088
	.byte	W06
	.byte		VOL   , 52*seq_015_mvl/mxv
	.byte		N06   , Fn3 
	.byte	W06
	.byte		        En3 , v076
	.byte	W06
	.byte		        Fn3 , v084
	.byte	W06
	.byte		        Dn3 , v080
	.byte	W12
	.byte		        Bn3 , v064
	.byte	W12
	.byte		        Cn4 , v072
	.byte	W06
	.byte	W24
	.byte		VOL   , 82*seq_015_mvl/mxv
	.byte	W72
	.byte	W54
	.byte		BEND  , c_v-36
	.byte		N06   , Fn4 
	.byte	W01
	.byte		BEND  , c_v-22
	.byte	W01
	.byte		        c_v-11
	.byte	W01
	.byte		        c_v-4
	.byte	W01
	.byte		        c_v-1
	.byte	W01
	.byte		        c_v+0
	.byte	W07
	.byte		N06
	.byte	W12
	.byte		        Fn4 , v068
	.byte	W06
	.byte		        En4 
	.byte	W06
	.byte		        Fn4 
	.byte	W06
	.byte		BEND  , c_v-36
	.byte		N06   , Gn4 , v064
	.byte	W01
	.byte		BEND  , c_v-22
	.byte	W01
	.byte		        c_v-11
	.byte	W01
	.byte		        c_v-4
	.byte	W01
	.byte		        c_v-1
	.byte	W01
	.byte		        c_v+0
	.byte	W01
	.byte		TIE   , Dn4 , v052
	.byte	W90
	.byte	W03
	.byte		VOL   , 81*seq_015_mvl/mxv
	.byte	W03
	.byte		        76*seq_015_mvl/mxv
	.byte	W04
	.byte		        69*seq_015_mvl/mxv
	.byte	W03
	.byte		        60*seq_015_mvl/mxv
	.byte	W04
	.byte		        47*seq_015_mvl/mxv
	.byte	W03
	.byte		        32*seq_015_mvl/mxv
	.byte	W04
	.byte		EOT
	.byte		VOL   , 16*seq_015_mvl/mxv
	.byte	W24
	.byte		        82*seq_015_mvl/mxv
	.byte	W06
	.byte		BEND  , c_v-36
	.byte		N06   , Cn4 , v068
	.byte	W01
	.byte		BEND  , c_v-22
	.byte	W01
	.byte		        c_v-11
	.byte	W01
	.byte		        c_v-4
	.byte	W01
	.byte		        c_v-1
	.byte	W01
	.byte		        c_v+0
	.byte	W07
	.byte		N06   , Dn4 
	.byte	W06
	.byte		        Cn4 
	.byte	W06
	.byte		        Bn3 
	.byte	W06
	.byte		        An3 
	.byte	W06
	.byte		        Cn4 
	.byte	W06
	.byte		BEND  , c_v-36
	.byte		N06   , Bn3 , v064
	.byte	W01
	.byte		BEND  , c_v-22
	.byte	W01
	.byte		        c_v-11
	.byte	W01
	.byte		        c_v-4
	.byte	W01
	.byte		        c_v-1
	.byte	W01
	.byte		        c_v+0
	.byte	W01
	.byte		TIE   , Gn3 , v056
	.byte	W90
	.byte	W06
	.byte		VOL   , 81*seq_015_mvl/mxv
	.byte	W07
	.byte		        80*seq_015_mvl/mxv
	.byte	W07
	.byte		        76*seq_015_mvl/mxv
	.byte	W07
	.byte		        72*seq_015_mvl/mxv
	.byte	W07
	.byte		        66*seq_015_mvl/mxv
	.byte	W07
	.byte		        60*seq_015_mvl/mxv
	.byte	W07
	.byte		        52*seq_015_mvl/mxv
	.byte	W07
	.byte		        42*seq_015_mvl/mxv
	.byte	W07
	.byte		        32*seq_015_mvl/mxv
	.byte	W07
	.byte		        20*seq_015_mvl/mxv
	.byte	W03
	.byte		EOT
	.byte		VOL   , 66*seq_015_mvl/mxv
	.byte		N06   , Bn3 , v084
	.byte	W07
	.byte		N05   , Bn3 , v088
	.byte	W17
	.byte	GOTO
	 .word	seq_015_2 + 0x2
	.byte	W96
	.byte	FINE

@*********************** Track 04 ***********************@

seq_015_3:
	.byte	KEYSH , seq_015_key+0
	.byte		VOICE , 34
	.byte		VOL   , 105*seq_015_mvl/mxv
	.byte		PAN   , c_v+0
	.byte		BENDR , 12
	.byte		N06   , Gn0 , v127
	.byte	W12
	.byte		N06
	.byte	W12
	.byte		N11   , Bn0 
	.byte	W12
	.byte		N06
	.byte	W06
	.byte		        Cn1 
	.byte	W12
	.byte		N06
	.byte	W12
	.byte		N06
	.byte	W06
	.byte		BEND  , c_v-16
	.byte		N06   , Dn1 
	.byte	W02
	.byte		BEND  , c_v+0
	.byte	W10
	.byte		N06
	.byte	W12
	.byte		N06   , Gn0 , v127
	.byte	W12
	.byte		N06
	.byte	W12
	.byte		N11   , Bn0 
	.byte	W12
	.byte		N06
	.byte	W06
	.byte		        Cn1 
	.byte	W12
	.byte		N06
	.byte	W12
	.byte		N06
	.byte	W06
	.byte		BEND  , c_v-16
	.byte		N06   , Dn1 
	.byte	W02
	.byte		BEND  , c_v+0
	.byte	W10
	.byte		N06
	.byte	W12
	.byte	PEND
	.byte	PATT
	 .word	seq_015_3 + 0x25
	.byte		N06   , Gn0 , v127
	.byte	W12
	.byte		N06
	.byte	W12
	.byte		N11   , Bn0 
	.byte	W12
	.byte		N06
	.byte	W06
	.byte		        Cn1 
	.byte	W12
	.byte		N06
	.byte	W12
	.byte		        Gn1 
	.byte	W06
	.byte		BEND  , c_v-16
	.byte		N06   , Dn1 
	.byte	W02
	.byte		BEND  , c_v+0
	.byte	W10
	.byte		N06   , Fn1 
	.byte	W12
	.byte	PATT
	 .word	seq_015_3 + 0x25
	.byte	PATT
	 .word	seq_015_3 + 0x25
	.byte	PATT
	 .word	seq_015_3 + 0x25
	.byte		N06   , Gn0 , v127
	.byte	W12
	.byte		N06
	.byte	W12
	.byte		N11   , Bn0 
	.byte	W12
	.byte		N06
	.byte	W06
	.byte		        Cn1 
	.byte	W12
	.byte		N06
	.byte	W12
	.byte		        Cs1 
	.byte	W06
	.byte		BEND  , c_v-16
	.byte		N06   , Dn1 
	.byte	W02
	.byte		BEND  , c_v+0
	.byte	W10
	.byte		N06   , An0 
	.byte	W12
	.byte	PATT
	 .word	seq_015_3 + 0x25
	.byte	PATT
	 .word	seq_015_3 + 0x25
	.byte		N06   , Gn0 , v127
	.byte	W12
	.byte		N06
	.byte	W12
	.byte		N11   , Bn0 
	.byte	W12
	.byte		N06
	.byte	W06
	.byte		        Cn1 
	.byte	W12
	.byte		N06
	.byte	W12
	.byte		        Gn1 
	.byte	W06
	.byte		        Dn1 
	.byte	W12
	.byte		        Fn1 
	.byte	W12
	.byte		        Gn0 
	.byte	W12
	.byte		N06
	.byte	W12
	.byte		N11   , Bn0 
	.byte	W12
	.byte		N06
	.byte	W06
	.byte		        Cn1 
	.byte	W12
	.byte		        Cs1 
	.byte	W12
	.byte		        Dn1 
	.byte	W06
	.byte		        Gn1 
	.byte	W06
	.byte		        Dn1 
	.byte	W06
	.byte		        Bn0 
	.byte	W06
	.byte		        Gn0 
	.byte	W06
	.byte		N96   , Bn0 
	.byte	W96
	.byte		N48   , As0 , v127
	.byte	W48
	.byte		N24   , An0 
	.byte	W24
	.byte		BEND  , c_v+0
	.byte		N24   , Dn1 
	.byte	W02
	.byte		BEND  , c_v-1
	.byte	W02
	.byte		        c_v-3
	.byte	W02
	.byte		        c_v-6
	.byte	W03
	.byte		        c_v-10
	.byte	W02
	.byte		        c_v-15
	.byte	W02
	.byte		        c_v-22
	.byte	W03
	.byte		        c_v-30
	.byte	W02
	.byte		        c_v-39
	.byte	W02
	.byte		        c_v-49
	.byte	W04
	.byte	PEND
	.byte		        c_v+0
	.byte		N06   , Gn0 
	.byte	W12
	.byte		N06
	.byte	W12
	.byte		N11   , Bn0 
	.byte	W12
	.byte		N06
	.byte	W06
	.byte		        Cn1 
	.byte	W12
	.byte		N06
	.byte	W12
	.byte		N06
	.byte	W06
	.byte		BEND  , c_v-16
	.byte		N06   , Dn1 
	.byte	W02
	.byte		BEND  , c_v+0
	.byte	W10
	.byte		N06
	.byte	W12
	.byte		        Gn0 
	.byte	W12
	.byte		N06
	.byte	W12
	.byte		N11   , Bn0 
	.byte	W12
	.byte		N06
	.byte	W06
	.byte		        Cn1 
	.byte	W12
	.byte		N06
	.byte	W12
	.byte		        Gn1 
	.byte	W06
	.byte		        Bn0 
	.byte	W06
	.byte		N18   , Cs1 
	.byte	W18
	.byte		N96   , Bn0 
	.byte	W96
	.byte	PATT
	 .word	seq_015_3 + 0xC6
	.byte		BEND  , c_v+0
	.byte		N06   , Gn0 , v127
	.byte	W12
	.byte		N06
	.byte	W12
	.byte		N11   , Bn0 
	.byte	W12
	.byte		N06
	.byte	W06
	.byte		        Cn1 
	.byte	W12
	.byte		N06
	.byte	W12
	.byte		        Gn1 
	.byte	W06
	.byte		        Dn1 
	.byte	W12
	.byte		        Fn1 
	.byte	W12
	.byte		        Gn0 
	.byte	W12
	.byte		N06
	.byte	W12
	.byte		N11   , Bn0 
	.byte	W12
	.byte		N06
	.byte	W06
	.byte		        Cn1 
	.byte	W12
	.byte		        Bn1 
	.byte	W12
	.byte		        Dn1 
	.byte	W06
	.byte		        Gn1 
	.byte	W06
	.byte		        Dn1 
	.byte	W06
	.byte		        Bn0 
	.byte	W06
	.byte		        Fn0 
	.byte	W06
	.byte	PATT
	 .word	seq_015_3 + 0x25
	.byte	PATT
	 .word	seq_015_3 + 0x25
	.byte	GOTO
	 .word	seq_015_3 + 0x2
	.byte	W96
	.byte	FINE

@*********************** Track 05 ***********************@

seq_015_4:
	.byte	KEYSH , seq_015_key+0
	.byte		VOICE , 127
	.byte		VOL   , 105*seq_015_mvl/mxv
	.byte		N24   , An2 , v100
	.byte		N02   , As3 , v052
	.byte	W06
	.byte		        As3 , v032
	.byte	W06
	.byte		        As3 , v040
	.byte	W06
	.byte		        As3 , v036
	.byte	W06
	.byte		N06   , Dn1 , v112
	.byte		N02   , As3 , v052
	.byte	W06
	.byte		        As3 , v036
	.byte	W06
	.byte		        As3 , v044
	.byte	W06
	.byte		N06   , Cn1 , v127
	.byte		N02   , As3 , v032
	.byte	W06
	.byte		        As3 , v052
	.byte	W06
	.byte		N06   , Dn1 , v112
	.byte		N02   , As3 , v036
	.byte	W06
	.byte		N06   , Cn1 , v127
	.byte		N02   , As3 , v040
	.byte	W06
	.byte		        As3 , v032
	.byte	W06
	.byte		N06   , Dn1 , v112
	.byte		N02   , As3 , v052
	.byte	W06
	.byte		        As3 , v032
	.byte	W06
	.byte		N06   , Cn1 , v127
	.byte		N02   , As3 , v044
	.byte	W06
	.byte		        As3 , v036
	.byte	W06
	.byte		N06   , Cn1 , v127
	.byte		N02   , As3 , v052
	.byte	W06
	.byte		        As3 , v032
	.byte	W06
	.byte		        As3 , v040
	.byte	W06
	.byte		        As3 , v036
	.byte	W06
	.byte		N06   , Dn1 , v112
	.byte		N02   , As3 , v052
	.byte	W06
	.byte		        As3 , v036
	.byte	W06
	.byte		        As3 , v044
	.byte	W06
	.byte		N06   , Cn1 , v127
	.byte		N02   , As3 , v032
	.byte	W06
	.byte		        As3 , v052
	.byte	W06
	.byte		N06   , Dn1 , v112
	.byte		N02   , As3 , v036
	.byte	W06
	.byte		N06   , Cn1 , v127
	.byte		N02   , As3 , v040
	.byte	W06
	.byte		        As3 , v032
	.byte	W06
	.byte		N06   , Dn1 , v112
	.byte		N02   , As3 , v044
	.byte	W06
	.byte		N06   , Dn1 , v112
	.byte		N02   , As3 , v032
	.byte	W06
	.byte		N06   , Cn1 , v127
	.byte		N02   , As3 , v044
	.byte	W06
	.byte		        As3 , v036
	.byte	W06
	.byte	PEND
	.byte		N06   , Cn1 , v127
	.byte		N02   , As3 , v052
	.byte	W06
	.byte		        As3 , v032
	.byte	W06
	.byte		        As3 , v040
	.byte	W06
	.byte		        As3 , v036
	.byte	W06
	.byte		N06   , Dn1 , v112
	.byte		N02   , As3 , v052
	.byte	W06
	.byte		        As3 , v036
	.byte	W06
	.byte		        As3 , v044
	.byte	W06
	.byte		N06   , Cn1 , v127
	.byte		N02   , As3 , v032
	.byte	W06
	.byte		        As3 , v052
	.byte	W06
	.byte		N06   , Dn1 , v112
	.byte		N02   , As3 , v036
	.byte	W06
	.byte		N06   , Cn1 , v127
	.byte		N02   , As3 , v040
	.byte	W06
	.byte		        As3 , v032
	.byte	W06
	.byte		N06   , Dn1 , v112
	.byte		N02   , As3 , v052
	.byte	W06
	.byte		        As3 , v032
	.byte	W06
	.byte		N06   , Cn1 , v127
	.byte		N02   , As3 , v044
	.byte	W06
	.byte		        As3 , v036
	.byte	W06
	.byte	PEND
	.byte		N06   , Cn1 , v127
	.byte		N02   , As3 , v052
	.byte	W06
	.byte		        As3 , v032
	.byte	W06
	.byte		        As3 , v040
	.byte	W06
	.byte		        As3 , v036
	.byte	W06
	.byte		N06   , Dn1 , v112
	.byte		N02   , As3 , v052
	.byte	W06
	.byte		        As3 , v036
	.byte	W06
	.byte		        As3 , v044
	.byte	W06
	.byte		N06   , Cn1 , v127
	.byte		N02   , As3 , v032
	.byte	W06
	.byte		        As3 , v052
	.byte	W06
	.byte		N06   , Dn1 , v112
	.byte		N02   , As3 , v036
	.byte	W06
	.byte		N06   , Cn1 , v127
	.byte		N02   , As3 , v040
	.byte	W06
	.byte		        As3 , v032
	.byte	W06
	.byte		N06   , Dn1 , v112
	.byte		N02   , As3 , v044
	.byte	W06
	.byte		N06   , Dn1 , v112
	.byte		N02   , As3 , v032
	.byte	W06
	.byte		N06   , Cn2 , v112
	.byte		N02   , As3 , v044
	.byte	W06
	.byte		N06   , Fn1 , v127
	.byte		N02   , As3 , v036
	.byte	W06
	.byte	PEND
	.byte		N24   , An2 , v100
	.byte		N02   , As3 , v052
	.byte	W06
	.byte		        As3 , v032
	.byte	W06
	.byte		        As3 , v040
	.byte	W06
	.byte		        As3 , v036
	.byte	W06
	.byte		N06   , Dn1 , v112
	.byte		N02   , As3 , v052
	.byte	W06
	.byte		        As3 , v036
	.byte	W06
	.byte		        As3 , v044
	.byte	W06
	.byte		N06   , Cn1 , v127
	.byte		N02   , As3 , v032
	.byte	W06
	.byte		        As3 , v052
	.byte	W06
	.byte		N06   , Dn1 , v112
	.byte		N02   , As3 , v036
	.byte	W06
	.byte		N06   , Cn1 , v127
	.byte		N02   , As3 , v040
	.byte	W06
	.byte		        As3 , v032
	.byte	W06
	.byte		N06   , Dn1 , v112
	.byte		N02   , As3 , v052
	.byte	W06
	.byte		        As3 , v032
	.byte	W06
	.byte		N06   , Cn1 , v127
	.byte		N02   , As3 , v044
	.byte	W06
	.byte		        As3 , v036
	.byte	W06
	.byte	PEND
	.byte	PATT
	 .word	seq_015_4 + 0x52
	.byte	PATT
	 .word	seq_015_4 + 0xA3
	.byte	PATT
	 .word	seq_015_4 + 0xF0
	.byte	PATT
	 .word	seq_015_4 + 0x145
	.byte	PATT
	 .word	seq_015_4 + 0x52
	.byte	PATT
	 .word	seq_015_4 + 0xA3
	.byte		N06   , Cn1 , v127
	.byte		N02   , As3 , v052
	.byte	W06
	.byte		        As3 , v032
	.byte	W06
	.byte		        As3 , v040
	.byte	W06
	.byte		        As3 , v036
	.byte	W06
	.byte		N06   , Dn1 , v112
	.byte		N02   , As3 , v052
	.byte	W06
	.byte		        As3 , v036
	.byte	W06
	.byte		        As3 , v044
	.byte	W06
	.byte		N06   , Cn1 , v127
	.byte		N02   , As3 , v032
	.byte	W06
	.byte		        As3 , v052
	.byte	W06
	.byte		N06   , Dn1 , v112
	.byte		N02   , As3 , v036
	.byte	W06
	.byte		N06   , Cn1 , v127
	.byte		N02   , As3 , v040
	.byte	W06
	.byte		        As3 , v032
	.byte	W06
	.byte		N06   , Dn1 , v112
	.byte		N02   , As3 , v044
	.byte	W06
	.byte		N06   , Dn1 , v112
	.byte		N02   , As3 , v032
	.byte	W06
	.byte		N04   , Dn1 , v084
	.byte		N02   , As3 , v044
	.byte	W04
	.byte		N04   , Dn1 , v104
	.byte	W02
	.byte		N02   , As3 , v036
	.byte	W02
	.byte		N04   , Dn1 , v127
	.byte	W04
	.byte	PEND
	.byte	PATT
	 .word	seq_015_4 + 0x145
	.byte		N24   , An2 , v100
	.byte		N02   , As3 , v052
	.byte	W06
	.byte		        As3 , v032
	.byte	W06
	.byte		        As3 , v040
	.byte	W06
	.byte		        As3 , v036
	.byte	W06
	.byte		N06   , Dn1 , v112
	.byte		N02   , As3 , v052
	.byte	W06
	.byte		        As3 , v036
	.byte	W06
	.byte		        As3 , v044
	.byte	W06
	.byte		N06   , Cn1 , v127
	.byte		N02   , As3 , v032
	.byte	W06
	.byte		N24   , Cs2 , v100
	.byte		N02   , As3 , v052
	.byte	W06
	.byte		N06   , Dn1 , v112
	.byte		N02   , As3 , v036
	.byte	W06
	.byte		N06   , Cn1 , v127
	.byte		N02   , As3 , v040
	.byte	W06
	.byte		        As3 , v032
	.byte	W06
	.byte		N06   , Dn1 , v112
	.byte		N02   , As3 , v044
	.byte	W06
	.byte		N06   , Dn1 , v112
	.byte		N02   , As3 , v032
	.byte	W06
	.byte		N06   , Cn1 , v127
	.byte		N02   , As3 , v044
	.byte	W06
	.byte		        As3 , v036
	.byte	W06
	.byte	PEND
	.byte	PATT
	 .word	seq_015_4 + 0x145
	.byte	PATT
	 .word	seq_015_4 + 0x1B0
	.byte	PATT
	 .word	seq_015_4 + 0x145
	.byte	PATT
	 .word	seq_015_4 + 0x20F
	.byte	PATT
	 .word	seq_015_4 + 0x145
	.byte	PATT
	 .word	seq_015_4 + 0x52
	.byte	PATT
	 .word	seq_015_4 + 0xA3
	.byte	PATT
	 .word	seq_015_4 + 0xF0
	.byte	GOTO
	 .word	seq_015_4 + 0x2
	.byte	W96
	.byte	FINE

@******************************************************@

	.align	2

seq_015:
	.byte	5	@ NumTrks
	.byte	0	@ NumBlks
	.byte	seq_015_pri	@ Priority
	.byte	seq_015_rev	@ Reverb

	.word	seq_015_grp

	.word	seq_015_0
	.word	seq_015_1
	.word	seq_015_2
	.word	seq_015_3
	.word	seq_015_4

	.end
