@ File generated by m4a2s Song-Module
	.include "MPlayDef.s"

	.equ	seq_005_grp, bank_005
	.equ	seq_005_pri, 0
	.equ	seq_005_rev, 0
	.equ	seq_005_mvl, 127
	.equ	seq_005_key, 0

	.section .rodata
	.global	seq_005
	.align	2

@*********************** Track 01 ***********************@

seq_005_0:
	.byte	KEYSH , seq_005_key+0
	.byte	TEMPO , 132/2
	.byte		VOICE , 61
	.byte		PAN   , c_v+0
	.byte		VOL   , 100*seq_005_mvl/mxv
	.byte		N16   , En3 , v116
	.byte		N16   , Gs3 , v120
	.byte	W18
	.byte		N15   , Gs3 , v112
	.byte		N15   , Bn3 , v116
	.byte	W18
	.byte		N10   , Cs4 , v100
	.byte		N10   , En4 , v108
	.byte	W12
	.byte		N16   , Fs3 
	.byte		N16   , An3 , v112
	.byte	W18
	.byte		N10   , An3 , v108
	.byte		N10   , Dn4 , v112
	.byte	W13
	.byte		N04   , Cs4 , v108
	.byte		N04   , En4 , v112
	.byte	W06
	.byte		TIE   , Dn4 
	.byte		TIE   , Fs4 , v120
	.byte	W05
	.byte		VOL   , 99*seq_005_mvl/mxv
	.byte	W01
	.byte		        98*seq_005_mvl/mxv
	.byte	W01
	.byte		        96*seq_005_mvl/mxv
	.byte	W01
	.byte		        94*seq_005_mvl/mxv
	.byte	W01
	.byte		        91*seq_005_mvl/mxv
	.byte	W01
	.byte		        87*seq_005_mvl/mxv
	.byte	W01
	.byte		        81*seq_005_mvl/mxv
	.byte	W01
	.byte		        76*seq_005_mvl/mxv
	.byte	W01
	.byte		        69*seq_005_mvl/mxv
	.byte	W01
	.byte		        62*seq_005_mvl/mxv
	.byte	W01
	.byte		        53*seq_005_mvl/mxv
	.byte	W01
	.byte		        47*seq_005_mvl/mxv
	.byte	W02
	.byte		        48*seq_005_mvl/mxv
	.byte	W02
	.byte		        50*seq_005_mvl/mxv
	.byte	W02
	.byte		        51*seq_005_mvl/mxv
	.byte	W02
	.byte		        53*seq_005_mvl/mxv
	.byte	W02
	.byte		        55*seq_005_mvl/mxv
	.byte	W02
	.byte		        56*seq_005_mvl/mxv
	.byte	W02
	.byte		        58*seq_005_mvl/mxv
	.byte	W02
	.byte		        59*seq_005_mvl/mxv
	.byte	W02
	.byte		        61*seq_005_mvl/mxv
	.byte	W02
	.byte		        62*seq_005_mvl/mxv
	.byte	W02
	.byte		        64*seq_005_mvl/mxv
	.byte	W02
	.byte		        66*seq_005_mvl/mxv
	.byte	W02
	.byte		        67*seq_005_mvl/mxv
	.byte	W02
	.byte		        69*seq_005_mvl/mxv
	.byte	W02
	.byte		        70*seq_005_mvl/mxv
	.byte	W02
	.byte		        72*seq_005_mvl/mxv
	.byte	W02
	.byte		        74*seq_005_mvl/mxv
	.byte	W02
	.byte		        75*seq_005_mvl/mxv
	.byte	W02
	.byte		        77*seq_005_mvl/mxv
	.byte	W02
	.byte		        78*seq_005_mvl/mxv
	.byte	W03
	.byte		        80*seq_005_mvl/mxv
	.byte	W03
	.byte		        81*seq_005_mvl/mxv
	.byte	W03
	.byte		        83*seq_005_mvl/mxv
	.byte	W03
	.byte		        85*seq_005_mvl/mxv
	.byte	W03
	.byte		        86*seq_005_mvl/mxv
	.byte	W03
	.byte		        88*seq_005_mvl/mxv
	.byte	W03
	.byte		        88*seq_005_mvl/mxv
	.byte	W03
	.byte		        89*seq_005_mvl/mxv
	.byte	W03
	.byte		        90*seq_005_mvl/mxv
	.byte	W03
	.byte		        91*seq_005_mvl/mxv
	.byte	W03
	.byte		        92*seq_005_mvl/mxv
	.byte	W03
	.byte		        93*seq_005_mvl/mxv
	.byte	W03
	.byte		        94*seq_005_mvl/mxv
	.byte	W03
	.byte		        95*seq_005_mvl/mxv
	.byte	W04
	.byte		        96*seq_005_mvl/mxv
	.byte	W05
	.byte		        96*seq_005_mvl/mxv
	.byte	W06
	.byte		        97*seq_005_mvl/mxv
	.byte	W06
	.byte		        98*seq_005_mvl/mxv
	.byte	W06
	.byte		        99*seq_005_mvl/mxv
	.byte	W06
	.byte		        100*seq_005_mvl/mxv
	.byte	W03
	.byte		EOT   , Dn4 
	.byte		        Fs4 
	.byte	W03
	.byte		N03   , Dn4 , v108
	.byte		N03   , Fs4 , v112
	.byte	W06
	.byte		N04   , En4 , v108
	.byte		N04   , Bn4 , v120
	.byte	W12
	.byte		N23   , Fs4 , v108
	.byte		N23   , Cs5 , v120
	.byte	W24
	.byte	FINE

@*********************** Track 02 ***********************@

seq_005_1:
	.byte	KEYSH , seq_005_key+0
	.byte	W96
	.byte	W96
	.byte		VOICE , 123
	.byte		PAN   , c_v+0
	.byte		VOL   , 55*seq_005_mvl/mxv
	.byte	W36
	.byte		N04   , Gs4 , v112
	.byte	W12
	.byte		N23   , As4 
	.byte	W24
	.byte	FINE

@*********************** Track 03 ***********************@

seq_005_2:
	.byte	KEYSH , seq_005_key+0
	.byte		VOICE , 36
	.byte		VOL   , 100*seq_005_mvl/mxv
	.byte		PAN   , c_v+0
	.byte		BEND  , c_v+0
	.byte		N05   , En1 , v120
	.byte	W06
	.byte		N03   , En2 , v108
	.byte	W06
	.byte		N04   , En1 
	.byte	W06
	.byte		BEND  , c_v-40
	.byte		N11   , Bn1 , v112
	.byte	W01
	.byte		BEND  , c_v-30
	.byte	W01
	.byte		        c_v-21
	.byte	W01
	.byte		        c_v-14
	.byte	W01
	.byte		        c_v-9
	.byte	W01
	.byte		        c_v-6
	.byte	W01
	.byte		        c_v-5
	.byte	W01
	.byte		        c_v-4
	.byte	W02
	.byte		        c_v+0
	.byte	W03
	.byte		N05   , Gs1 , v104
	.byte	W06
	.byte		        En1 , v127
	.byte	W06
	.byte		        Bn1 , v104
	.byte	W06
	.byte		        Dn1 , v124
	.byte	W06
	.byte		N03   , Dn2 , v127
	.byte	W06
	.byte		N04   , Dn1 , v112
	.byte	W06
	.byte		BEND  , c_v-40
	.byte		N10   , Fs1 , v120
	.byte	W01
	.byte		BEND  , c_v-30
	.byte	W01
	.byte		        c_v-21
	.byte	W01
	.byte		        c_v-14
	.byte	W01
	.byte		        c_v-9
	.byte	W01
	.byte		        c_v-6
	.byte	W01
	.byte		        c_v-5
	.byte	W01
	.byte		        c_v-4
	.byte	W02
	.byte		        c_v+0
	.byte	W02
	.byte		N04   , En1 , v108
	.byte	W06
	.byte		        Dn1 , v124
	.byte	W02
	.byte		BEND  , c_v+0
	.byte	W04
	.byte		N06   , Fs1 , v100
	.byte	W07
	.byte		N05   , Dn1 , v127
	.byte	W06
	.byte		N03   , Dn2 , v108
	.byte	W06
	.byte		N05   , Dn1 , v124
	.byte	W06
	.byte		N03   , Dn2 , v100
	.byte	W06
	.byte		N05   , An1 , v124
	.byte	W06
	.byte		N07   , Fs1 , v112
	.byte	W12
	.byte		N03   , Dn1 , v108
	.byte	W06
	.byte		N10   , Fs1 , v127
	.byte	W12
	.byte		N03
	.byte	W06
	.byte		        Dn1 , v108
	.byte	W06
	.byte		BEND  , c_v+0
	.byte		N06   , An1 , v127
	.byte	W03
	.byte		BEND  , c_v-10
	.byte	W01
	.byte		        c_v-37
	.byte	W01
	.byte		        c_v-64
	.byte	W02
	.byte		        c_v+0
	.byte		N03   , Fs1 , v120
	.byte	W04
	.byte		N04   , Dn2 , v088
	.byte	W07
	.byte		BEND  , c_v-48
	.byte		N32   , Fs2 , v112
	.byte	W01
	.byte		BEND  , c_v-38
	.byte	W01
	.byte		        c_v-30
	.byte	W01
	.byte		        c_v-22
	.byte	W01
	.byte		        c_v-15
	.byte	W01
	.byte		        c_v-10
	.byte	W01
	.byte		        c_v-6
	.byte	W01
	.byte		        c_v-3
	.byte	W01
	.byte		        c_v-1
	.byte	W01
	.byte		        c_v+0
	.byte	W28
	.byte		N04   , Dn1 , v120
	.byte	W05
	.byte		N07   , En1 , v104
	.byte	W12
	.byte		N23   , Fs1 , v124
	.byte	W24
	.byte	FINE

@*********************** Track 04 ***********************@

seq_005_3:
	.byte	KEYSH , seq_005_key+0
	.byte	W96
	.byte		VOICE , 121
	.byte		VOL   , 100*seq_005_mvl/mxv
	.byte		PAN   , c_v+63
	.byte	W48
	.byte		N04   , An4 , v088
	.byte	W06
	.byte		        An4 , v084
	.byte	W12
	.byte		N06
	.byte	W12
	.byte		N03   , An4 , v092
	.byte	W06
	.byte		N36
	.byte	W01
	.byte		VOL   , 99*seq_005_mvl/mxv
	.byte	W02
	.byte		        93*seq_005_mvl/mxv
	.byte	W02
	.byte		        77*seq_005_mvl/mxv
	.byte	W02
	.byte		        62*seq_005_mvl/mxv
	.byte	W03
	.byte		        68*seq_005_mvl/mxv
	.byte	W02
	.byte	W02
	.byte		        76*seq_005_mvl/mxv
	.byte	W04
	.byte		        83*seq_005_mvl/mxv
	.byte	W04
	.byte		        88*seq_005_mvl/mxv
	.byte	W04
	.byte		        93*seq_005_mvl/mxv
	.byte	W04
	.byte		        96*seq_005_mvl/mxv
	.byte	W04
	.byte		        99*seq_005_mvl/mxv
	.byte	W48
	.byte	W02
	.byte	FINE

@*********************** Track 05 ***********************@

seq_005_4:
	.byte	KEYSH , seq_005_key+0
	.byte	W96
	.byte		VOICE , 122
	.byte		VOL   , 100*seq_005_mvl/mxv
	.byte		PAN   , c_v-64
	.byte	W48
	.byte		N04   , Dn4 , v076
	.byte	W06
	.byte		N04
	.byte	W12
	.byte		N06
	.byte	W12
	.byte		N03   , Dn4 , v080
	.byte	W06
	.byte		N36   , Dn4 , v088
	.byte	W01
	.byte		VOL   , 99*seq_005_mvl/mxv
	.byte	W02
	.byte		        93*seq_005_mvl/mxv
	.byte	W02
	.byte		        77*seq_005_mvl/mxv
	.byte	W02
	.byte		        62*seq_005_mvl/mxv
	.byte	W02
	.byte		        66*seq_005_mvl/mxv
	.byte	W03
	.byte		        74*seq_005_mvl/mxv
	.byte	W04
	.byte		        81*seq_005_mvl/mxv
	.byte	W04
	.byte		        87*seq_005_mvl/mxv
	.byte	W04
	.byte		        92*seq_005_mvl/mxv
	.byte	W04
	.byte		        95*seq_005_mvl/mxv
	.byte	W04
	.byte		        97*seq_005_mvl/mxv
	.byte	W02
	.byte		        99*seq_005_mvl/mxv
	.byte	W48
	.byte	W02
	.byte	FINE

@*********************** Track 06 ***********************@

seq_005_5:
	.byte	KEYSH , seq_005_key+0
	.byte		VOICE , 127
	.byte		VOL   , 100*seq_005_mvl/mxv
	.byte		N05   , Cn1 , v104
	.byte		N17   , An2 , v072
	.byte	W18
	.byte		N05   , Cn1 , v104
	.byte		N18   , An2 , v068
	.byte	W18
	.byte		N05   , En1 , v104
	.byte	W06
	.byte		        En1 , v088
	.byte	W06
	.byte		        Cn1 , v104
	.byte		N17   , An2 , v072
	.byte	W18
	.byte		N05   , Cn1 , v104
	.byte		N18   , An2 , v068
	.byte	W18
	.byte		N05   , En1 , v104
	.byte	W06
	.byte		        En1 , v084
	.byte	W06
	.byte		        Cn1 , v104
	.byte		N36   , An2 , v080
	.byte	W06
	.byte		N05   , En1 , v096
	.byte	W12
	.byte		        Cn1 
	.byte	W06
	.byte		        En1 , v092
	.byte	W06
	.byte		        En1 , v076
	.byte	W06
	.byte		        Cn1 , v104
	.byte	W06
	.byte		        Cn1 , v088
	.byte	W06
	.byte		        En1 , v100
	.byte	W06
	.byte		        En1 , v084
	.byte	W06
	.byte		        Cn1 , v100
	.byte	W06
	.byte		        En1 
	.byte	W06
	.byte		        En1 , v080
	.byte	W06
	.byte		        Cn1 , v096
	.byte	W06
	.byte		        En1 , v104
	.byte	W12
	.byte		        En1 , v096
	.byte	W06
	.byte		        En1 , v080
	.byte	W06
	.byte		        En1 , v088
	.byte	W06
	.byte		        En1 , v080
	.byte	W06
	.byte		        Cn1 , v120
	.byte	W06
	.byte		        En1 , v092
	.byte	W06
	.byte		        En1 , v084
	.byte	W12
	.byte		N12   , En1 , v104
	.byte		N12   , An2 , v072
	.byte	W24
	.byte	FINE

@******************************************************@

	.align	2

seq_005:
	.byte	6	@ NumTrks
	.byte	0	@ NumBlks
	.byte	seq_005_pri	@ Priority
	.byte	seq_005_rev	@ Reverb

	.word	seq_005_grp

	.word	seq_005_0
	.word	seq_005_1
	.word	seq_005_2
	.word	seq_005_3
	.word	seq_005_4
	.word	seq_005_5

	.end
