@ File generated by m4a2s Song-Module
	.include "MPlayDef.s"

	.equ	seq_126_grp, bank_006
	.equ	seq_126_pri, 30
	.equ	seq_126_rev, 0
	.equ	seq_126_mvl, 127
	.equ	seq_126_key, 0

	.section .rodata
	.global	seq_126
	.align	2

@*********************** Track 01 ***********************@

seq_126_0:
	.byte		VOL   , 80*seq_126_mvl/mxv
	.byte	KEYSH , seq_126_key+0
	.byte	TEMPO , 190/2
	.byte		VOICE , 124
	.byte		N03   , Bn2 , v052
	.byte	W03
	.byte		        An2 , v056
	.byte	W03
	.byte		        Gn3 , v108
	.byte	W03
	.byte		        En4 , v120
	.byte	W03
	.byte		        Ds4 , v127
	.byte	W03
	.byte		        Cn4 , v108
	.byte	W03
	.byte		        Gs3 , v096
	.byte	W03
	.byte		        Gs2 , v080
	.byte	W03
	.byte		        As2 , v120
	.byte	W03
	.byte		        An2 
	.byte	W03
	.byte		        Gn2 
	.byte	W03
	.byte		        Fs2 , v116
	.byte	W03
	.byte		        Gn2 , v104
	.byte	W03
	.byte		        Fs2 , v092
	.byte	W03
	.byte		        Fn2 , v084
	.byte	W03
	.byte		        Fs2 , v072
	.byte	W03
	.byte		        Fn2 , v068
	.byte	W03
	.byte		        En2 , v060
	.byte	W03
	.byte		        Fn2 
	.byte	W03
	.byte		        En2 
	.byte	W03
	.byte		        Ds2 , v056
	.byte	W03
	.byte		        En2 
	.byte	W03
	.byte		        Ds2 
	.byte	W06
	.byte	FINE

@******************************************************@

	.align	2

seq_126:
	.byte	1	@ NumTrks
	.byte	0	@ NumBlks
	.byte	seq_126_pri	@ Priority
	.byte	seq_126_rev	@ Reverb

	.word	seq_126_grp

	.word	seq_126_0

	.end
