@ File generated by m4a2s Song-Module
	.include "MPlayDef.s"

	.equ	seq_019_grp, bank_012
	.equ	seq_019_pri, 0
	.equ	seq_019_rev, 0
	.equ	seq_019_mvl, 127
	.equ	seq_019_key, 0

	.section .rodata
	.global	seq_019
	.align	2

@*********************** Track 01 ***********************@

seq_019_0:
	.byte	KEYSH , seq_019_key+0
	.byte	TEMPO , 144/2
	.byte		VOICE , 61
	.byte		VOL   , 86*seq_019_mvl/mxv
	.byte		PAN   , c_v-40
	.byte	W06
	.byte		BENDR , 5
	.byte		N06   , An3 , v100
	.byte	W06
	.byte		N03   , An4 
	.byte	W13
	.byte		        An4 , v104
	.byte	W05
	.byte		N11   , An4 , v100
	.byte	W12
	.byte		N06   , As3 
	.byte	W06
	.byte		N03   , As4 
	.byte	W13
	.byte		N03
	.byte	W05
	.byte		N11   , As4 , v104
	.byte	W12
	.byte		N03   , Bn4 , v108
	.byte	W12
	.byte		N42   , Bn4 , v100
	.byte	W06
	.byte	W48
	.byte	W48
	.byte	FINE

@*********************** Track 02 ***********************@

seq_019_1:
	.byte	KEYSH , seq_019_key+0
	.byte		VOICE , 61
	.byte		VOL   , 86*seq_019_mvl/mxv
	.byte		PAN   , c_v+40
	.byte	W06
	.byte		BENDR , 5
	.byte		N06   , Fs3 , v100
	.byte	W06
	.byte		N03   , Fs4 
	.byte	W13
	.byte		N03
	.byte	W05
	.byte		N12
	.byte	W12
	.byte		N06   , Gn3 
	.byte	W06
	.byte		N03   , Gn4 
	.byte	W13
	.byte		N03
	.byte	W05
	.byte		N11
	.byte	W12
	.byte		N03   , Gs4 , v112
	.byte	W12
	.byte		N42   , Gs4 , v100
	.byte	W06
	.byte	W48
	.byte	W48
	.byte	FINE

@*********************** Track 03 ***********************@

seq_019_2:
	.byte	KEYSH , seq_019_key+0
	.byte		VOICE , 61
	.byte		PAN   , c_v+0
	.byte		VOL   , 78*seq_019_mvl/mxv
	.byte	W06
	.byte		BENDR , 5
	.byte		N06   , Dn3 , v072
	.byte	W06
	.byte		N03   , Dn4 
	.byte	W13
	.byte		N03
	.byte	W05
	.byte		N11
	.byte	W12
	.byte		N06   , Ds3 
	.byte	W06
	.byte		N03   , Ds4 
	.byte	W13
	.byte		N03
	.byte	W05
	.byte		N11
	.byte	W12
	.byte		N03   , En4 
	.byte	W12
	.byte		N42
	.byte	W06
	.byte	W48
	.byte	W48
	.byte	FINE

@*********************** Track 04 ***********************@

seq_019_3:
	.byte	KEYSH , seq_019_key+0
	.byte		VOICE , 34
	.byte		PAN   , c_v+0
	.byte	W06
	.byte		VOL   , 100*seq_019_mvl/mxv
	.byte		BENDR , 5
	.byte		BEND  , c_v-64
	.byte		N32   , En1 , v127
	.byte	W01
	.byte		BEND  , c_v-52
	.byte	W01
	.byte		        c_v-41
	.byte	W01
	.byte		        c_v-31
	.byte	W01
	.byte		        c_v-23
	.byte	W02
	.byte		        c_v-16
	.byte	W01
	.byte		        c_v-10
	.byte	W01
	.byte		        c_v-6
	.byte	W01
	.byte		        c_v-3
	.byte	W02
	.byte		        c_v-1
	.byte	W01
	.byte		        c_v+0
	.byte	W24
	.byte		        c_v-64
	.byte		N32   , Fn1 
	.byte	W01
	.byte		BEND  , c_v-52
	.byte	W01
	.byte		        c_v-41
	.byte	W01
	.byte		        c_v-31
	.byte	W01
	.byte		        c_v-23
	.byte	W02
	.byte		        c_v-16
	.byte	W01
	.byte		        c_v-10
	.byte	W01
	.byte		        c_v-6
	.byte	W01
	.byte		        c_v-3
	.byte	W02
	.byte		        c_v-1
	.byte	W01
	.byte		        c_v+0
	.byte	W24
	.byte		N03   , Fs1 
	.byte	W12
	.byte		N42
	.byte	W06
	.byte	W48
	.byte	W48
	.byte	FINE

@*********************** Track 05 ***********************@

seq_019_4:
	.byte	KEYSH , seq_019_key+0
	.byte		VOICE , 127
	.byte		VOL   , 100*seq_019_mvl/mxv
	.byte	W06
	.byte		PAN   , c_v+0
	.byte	W06
	.byte		N06   , Dn1 , v127
	.byte	W12
	.byte		        Dn1 , v112
	.byte	W06
	.byte		        Dn1 , v084
	.byte	W06
	.byte		        Dn1 , v100
	.byte	W06
	.byte		N04   , Dn1 , v112
	.byte	W04
	.byte		        Dn1 , v100
	.byte	W02
	.byte	W02
	.byte		        Dn1 , v088
	.byte	W04
	.byte		        Dn1 , v084
	.byte	W04
	.byte		        Dn1 , v092
	.byte	W04
	.byte		        Dn1 , v096
	.byte	W04
	.byte		        Dn1 , v104
	.byte	W04
	.byte		        Dn1 , v112
	.byte	W04
	.byte		        Dn1 , v120
	.byte	W04
	.byte		N06   , Dn1 , v124
	.byte	W12
	.byte		N42   , An2 , v127
	.byte	W06
	.byte	W48
	.byte	W48
	.byte	FINE

@******************************************************@

	.align	2

seq_019:
	.byte	5	@ NumTrks
	.byte	0	@ NumBlks
	.byte	seq_019_pri	@ Priority
	.byte	seq_019_rev	@ Reverb

	.word	seq_019_grp

	.word	seq_019_0
	.word	seq_019_1
	.word	seq_019_2
	.word	seq_019_3
	.word	seq_019_4

	.end
