@ File generated by m4a2s Song-Module
	.include "MPlayDef.s"

	.equ	seq_018_grp, bank_010
	.equ	seq_018_pri, 0
	.equ	seq_018_rev, 0
	.equ	seq_018_mvl, 127
	.equ	seq_018_key, 0

	.section .rodata
	.global	seq_018
	.align	2

@*********************** Track 01 ***********************@

seq_018_0:
	.byte	KEYSH , seq_018_key+0
	.byte	TEMPO , 96/2
	.byte		PAN   , c_v+0
	.byte	W12
	.byte		VOICE , 61
	.byte	W12
	.byte		VOL   , 86*seq_018_mvl/mxv
	.byte	W12
	.byte		N17   , Bn3 , v116
	.byte	W18
	.byte		N06   , Bn3 , v096
	.byte	W06
	.byte		N03   , Cn4 , v092
	.byte	W06
	.byte		N32   , Dn4 , v112
	.byte	W36
	.byte		N06   , Dn4 , v096
	.byte	W06
	.byte		N03   , En4 , v088
	.byte	W06
	.byte		N12   , Fn4 , v116
	.byte	W06
	.byte	W06
	.byte		N03   , En4 , v100
	.byte	W06
	.byte		N06   , Fn4 , v104
	.byte	W06
	.byte		N03   , En4 , v096
	.byte	W06
	.byte		N06   , Fn4 , v108
	.byte	W06
	.byte		N03   , En4 , v100
	.byte	W06
	.byte		N06   , Cn4 
	.byte	W06
	.byte		N03   , Dn4 , v108
	.byte	W12
	.byte		N30   , Bn3 , v112
	.byte	W42
	.byte	W12
	.byte		N17
	.byte	W18
	.byte		N06   , Bn3 , v096
	.byte	W06
	.byte		N03   , Cn4 , v088
	.byte	W06
	.byte		N32   , Dn4 , v112
	.byte	W36
	.byte		N06   , Dn4 , v100
	.byte	W06
	.byte		N03   , En4 , v088
	.byte	W06
	.byte		N12   , Fn4 , v112
	.byte	W06
	.byte	W06
	.byte		N03   , En4 , v100
	.byte	W06
	.byte		N06   , Fn4 , v108
	.byte	W06
	.byte		N03   , En4 , v092
	.byte	W06
	.byte		N06   , Fn4 , v104
	.byte	W06
	.byte		N03   , En4 , v092
	.byte	W06
	.byte		N06   , Cn4 , v100
	.byte	W06
	.byte		N04   , Dn4 , v088
	.byte	W12
	.byte		        En4 , v092
	.byte	W12
	.byte		        Fn4 , v096
	.byte	W12
	.byte		        Fs4 , v108
	.byte	W12
	.byte		N06   , Gn4 , v120
	.byte	W06
	.byte		N02   , Dn4 , v100
	.byte	W02
	.byte		N01   , Bn3 , v092
	.byte	W01
	.byte		        Gn3 , v080
	.byte	W92
	.byte	W01
	.byte	W24
	.byte		VOICE , 102
	.byte	W18
	.byte		N06   , Dn4 , v036
	.byte	W12
	.byte		        En4 , v044
	.byte	W12
	.byte		        Fn4 , v048
	.byte	W12
	.byte		        Fs4 
	.byte	W12
	.byte		        Gn4 , v056
	.byte	W06
	.byte		N02   , Dn4 , v048
	.byte	W02
	.byte		N01   , Bn3 , v044
	.byte	W01
	.byte		        Gn3 , v036
	.byte	W09
	.byte		VOICE , 61
	.byte		N17   , Bn3 , v116
	.byte	W18
	.byte		N06   , Bn3 , v100
	.byte	W06
	.byte		N03   , Cn4 , v096
	.byte	W06
	.byte		N32   , Dn4 , v112
	.byte	W36
	.byte		N06   , Dn4 , v096
	.byte	W06
	.byte		N03   , En4 , v088
	.byte	W06
	.byte		N12   , Fn4 , v112
	.byte	W06
	.byte	W06
	.byte		N03   , En4 , v100
	.byte	W06
	.byte		N06   , Dn4 , v108
	.byte	W06
	.byte		N03   , Cn4 , v092
	.byte	W06
	.byte		N06   , Bn3 , v108
	.byte	W06
	.byte		N03   , Cn4 , v100
	.byte	W06
	.byte		N06   , Dn4 , v112
	.byte	W06
	.byte		        Gn3 , v116
	.byte	W03
	.byte		BEND  , c_v-3
	.byte	W01
	.byte		        c_v-10
	.byte	W01
	.byte		        c_v-22
	.byte	W01
	.byte		        c_v-32
	.byte	W01
	.byte		        c_v+0
	.byte	W44
	.byte	W03
	.byte		VOICE , 102
	.byte		PAN   , c_v+63
	.byte		N06   , Gn3 , v052
	.byte	W06
	.byte		        Dn3 
	.byte	W06
	.byte		        En3 
	.byte	W06
	.byte		N12   , Gn3 
	.byte	W12
	.byte		N06   , Dn3 
	.byte	W06
	.byte		        En3 
	.byte	W06
	.byte		        Dn3 
	.byte	W06
	.byte		        Gn3 
	.byte	W06
	.byte		        Dn3 
	.byte	W06
	.byte		        En3 
	.byte	W06
	.byte		N12   , Gn3 
	.byte	W12
	.byte		N06   , Dn3 
	.byte	W06
	.byte		        En3 
	.byte	W06
	.byte		        Dn3 
	.byte	W06
	.byte		        Gn3 
	.byte	W06
	.byte		        Dn3 
	.byte	W06
	.byte		        En3 
	.byte	W06
	.byte		N12   , Gn3 
	.byte	W12
	.byte		N06   , Dn3 
	.byte	W06
	.byte		        En3 
	.byte	W06
	.byte		        Dn3 
	.byte	W06
	.byte		        Gn3 
	.byte	W06
	.byte		PAN   , c_v+0
	.byte		N04   , Gn3 , v064
	.byte	W12
	.byte		        Gn3 , v052
	.byte	W12
	.byte		N04
	.byte	W12
	.byte		N06   , Gn3 , v060
	.byte	W06
	.byte		N05   , Cn4 , v068
	.byte	W06
	.byte		PAN   , c_v+63
	.byte		N06   , Gn3 , v052
	.byte	W06
	.byte		        An3 
	.byte	W06
	.byte		N12   , Cn4 
	.byte	W12
	.byte		N06   , Gn3 
	.byte	W06
	.byte		        An3 
	.byte	W06
	.byte		        Gn3 
	.byte	W06
	.byte		        Cn4 
	.byte	W06
	.byte		        Gn3 
	.byte	W06
	.byte		        An3 
	.byte	W06
	.byte		N12   , Cn4 
	.byte	W12
	.byte		N06   , Gn3 
	.byte	W06
	.byte		        An3 
	.byte	W06
	.byte		        Gn3 
	.byte	W06
	.byte		        Bn3 
	.byte	W06
	.byte		        Gn3 
	.byte	W06
	.byte		        An3 
	.byte	W06
	.byte		N12   , Bn3 
	.byte	W12
	.byte		N06   , Gn3 
	.byte	W06
	.byte		        An3 
	.byte	W06
	.byte		        Gn3 
	.byte	W06
	.byte		        Bn3 
	.byte	W06
	.byte		PAN   , c_v+0
	.byte		N04   , Bn3 , v060
	.byte	W12
	.byte		        Bn3 , v048
	.byte	W12
	.byte		N06   , Bn3 , v028
	.byte	W06
	.byte		        Cn4 , v036
	.byte	W06
	.byte		        Cs4 , v052
	.byte	W06
	.byte		VOICE , 61
	.byte		N04   , Dn4 , v116
	.byte	W06
	.byte		        Dn4 , v108
	.byte	W06
	.byte		N06   , Fn4 , v112
	.byte	W06
	.byte		N04   , Dn4 , v100
	.byte	W06
	.byte		N06   , Fn4 , v108
	.byte	W06
	.byte		N04   , Dn4 , v096
	.byte	W12
	.byte		N06   , Cs4 , v100
	.byte	W06
	.byte		N04   , Cn4 , v112
	.byte	W06
	.byte		N06   , Cn4 , v100
	.byte	W06
	.byte		        En4 , v108
	.byte	W06
	.byte		N04   , Cn4 
	.byte	W12
	.byte		N06   , Bn3 , v096
	.byte	W06
	.byte		        Cn4 , v104
	.byte	W06
	.byte		        Cs4 , v112
	.byte	W06
	.byte		N04   , Dn4 , v116
	.byte	W06
	.byte		        Dn4 , v108
	.byte	W06
	.byte		N06   , Fn4 , v112
	.byte	W06
	.byte		N04   , Dn4 , v100
	.byte	W06
	.byte		N06   , Fn4 , v108
	.byte	W06
	.byte		N04   , Dn4 , v096
	.byte	W12
	.byte		N06   , Cs4 , v100
	.byte	W06
	.byte		N04   , Cn4 , v112
	.byte	W06
	.byte		N06   , Cn4 , v100
	.byte	W06
	.byte		        En4 , v108
	.byte	W06
	.byte		N04   , Cn4 
	.byte	W06
	.byte		VOICE , 102
	.byte	W06
	.byte		N06   , Bn3 , v040
	.byte	W06
	.byte		        Cn4 
	.byte	W06
	.byte		        Cs4 , v044
	.byte	W06
	.byte		N04   , Dn4 , v048
	.byte	W06
	.byte		        Dn4 , v044
	.byte	W06
	.byte		N06   , Fn4 
	.byte	W06
	.byte		N04   , Dn4 , v040
	.byte	W06
	.byte		N06   , Fn4 , v044
	.byte	W06
	.byte		N04   , Dn4 , v040
	.byte	W12
	.byte		N06   , Cs4 
	.byte	W06
	.byte		N04   , Cn4 , v048
	.byte	W06
	.byte		N06   , Cn4 , v040
	.byte	W06
	.byte		        En4 , v044
	.byte	W06
	.byte		N04   , Gn4 
	.byte	W06
	.byte		N06   , As4 , v048
	.byte	W06
	.byte		N04   , An4 , v044
	.byte	W06
	.byte		        Gs4 , v040
	.byte	W06
	.byte		        Gn4 , v048
	.byte	W06
	.byte	W96
	.byte	W96
	.byte		VOICE , 61
	.byte	W12
	.byte		N06   , En4 , v100
	.byte	W12
	.byte		N06
	.byte	W12
	.byte		N06
	.byte	W06
	.byte		N03   , Dn4 
	.byte	W06
	.byte		N06   , En4 
	.byte	W06
	.byte		N03   , Dn4 
	.byte	W12
	.byte		N06   , Cn4 
	.byte	W12
	.byte		        En4 
	.byte	W06
	.byte		        Dn4 , v096
	.byte	W06
	.byte		N05   , Cn4 , v108
	.byte	W06
	.byte	W96
	.byte	W12
	.byte		N06   , En4 , v100
	.byte	W12
	.byte		N06
	.byte	W12
	.byte		N06
	.byte	W06
	.byte		N03   , Dn4 , v092
	.byte	W06
	.byte		N06   , En4 , v084
	.byte	W06
	.byte		N03   , Dn4 , v092
	.byte	W12
	.byte		N06   , En4 , v088
	.byte	W12
	.byte		        En4 , v096
	.byte	W06
	.byte		        Fs4 , v108
	.byte	W06
	.byte		N05   , Gn4 , v120
	.byte	W06
	.byte	W96
	.byte	W96
	.byte	W12
	.byte		N17   , Bn3 , v100
	.byte	W18
	.byte		N06   , Bn3 , v096
	.byte	W06
	.byte		N03   , Cn4 , v088
	.byte	W06
	.byte		N32   , Dn4 , v104
	.byte	W36
	.byte		N06   , Dn4 , v092
	.byte	W06
	.byte		N03   , En4 , v088
	.byte	W06
	.byte		N12   , Fn4 , v108
	.byte	W06
	.byte	GOTO
	 .word	seq_018_0 + 0x29
	.byte	FINE

@*********************** Track 02 ***********************@

seq_018_1:
	.byte	KEYSH , seq_018_key+0
	.byte	W24
	.byte		VOICE , 102
	.byte		VOL   , 62*seq_018_mvl/mxv
	.byte	W12
	.byte		N17   , Gn3 , v052
	.byte	W18
	.byte		N06
	.byte	W06
	.byte		N03   , An3 
	.byte	W06
	.byte		N32   , Bn3 
	.byte	W36
	.byte		N06
	.byte	W06
	.byte		N03   , Cn4 
	.byte	W06
	.byte		N11   , Dn4 
	.byte	W06
	.byte	W06
	.byte		N03   , Cn4 , v052
	.byte	W06
	.byte		N06   , Dn4 
	.byte	W06
	.byte		N03   , Cn4 
	.byte	W06
	.byte		N06   , Dn4 
	.byte	W06
	.byte		N03   , Cn4 
	.byte	W06
	.byte		N06   , An3 
	.byte	W06
	.byte		N03   , Bn3 
	.byte	W12
	.byte		N30   , Gn3 
	.byte	W42
	.byte	W12
	.byte		N17
	.byte	W18
	.byte		N06
	.byte	W06
	.byte		N03   , An3 
	.byte	W06
	.byte		N32   , Bn3 
	.byte	W36
	.byte		N06
	.byte	W06
	.byte		N03   , Cn4 
	.byte	W06
	.byte		N12   , Dn4 
	.byte	W06
	.byte	W06
	.byte		N03   , Cn4 
	.byte	W06
	.byte		N06   , Dn4 
	.byte	W06
	.byte		N03   , Cn4 
	.byte	W06
	.byte		N06   , Dn4 
	.byte	W06
	.byte		N03   , Cn4 
	.byte	W06
	.byte		N06   , An3 
	.byte	W06
	.byte		N04   , Bn3 , v048
	.byte	W12
	.byte		        Cn4 , v040
	.byte	W12
	.byte		        Dn4 , v048
	.byte	W12
	.byte		        Ds4 , v052
	.byte	W12
	.byte		N06   , En4 , v056
	.byte	W06
	.byte		N02   , Cn4 , v048
	.byte	W02
	.byte		N01   , Gn3 , v044
	.byte	W01
	.byte		        En3 , v040
	.byte	W92
	.byte	W01
	.byte	W24
	.byte		VOICE , 101
	.byte	W18
	.byte		N06   , Fn3 , v036
	.byte	W12
	.byte		        Gn3 , v040
	.byte	W12
	.byte		        An3 , v044
	.byte	W12
	.byte		        As3 , v048
	.byte	W12
	.byte		        Bn3 , v052
	.byte	W06
	.byte		N02   , Gn3 , v048
	.byte	W02
	.byte		N01   , Dn3 , v040
	.byte	W01
	.byte		        Bn2 , v036
	.byte	W09
	.byte		VOICE , 102
	.byte		N17   , Gn3 , v052
	.byte	W18
	.byte		N06
	.byte	W06
	.byte		N03   , An3 
	.byte	W06
	.byte		N32   , Bn3 
	.byte	W36
	.byte		N06
	.byte	W06
	.byte		N03   , Cn4 
	.byte	W06
	.byte		N11   , Dn4 
	.byte	W06
	.byte	W06
	.byte		N03   , Cn4 
	.byte	W06
	.byte		N06   , Bn3 
	.byte	W06
	.byte		N03   , An3 
	.byte	W06
	.byte		N06   , Gn3 
	.byte	W06
	.byte		N03   , An3 
	.byte	W06
	.byte		N06   , Bn3 
	.byte	W06
	.byte		        Dn3 
	.byte	W03
	.byte		BEND  , c_v-3
	.byte	W01
	.byte		        c_v-10
	.byte	W01
	.byte		        c_v-22
	.byte	W01
	.byte		        c_v-32
	.byte	W01
	.byte		        c_v+0
	.byte	W44
	.byte	W03
	.byte		VOICE , 101
	.byte		PAN   , c_v-64
	.byte		N06   , Dn3 , v048
	.byte	W06
	.byte		        Bn2 
	.byte	W06
	.byte		        Cn3 
	.byte	W06
	.byte		N12   , Dn3 
	.byte	W12
	.byte		N06   , Bn2 
	.byte	W06
	.byte		        Cn3 
	.byte	W06
	.byte		        Bn2 
	.byte	W06
	.byte		        Dn3 
	.byte	W06
	.byte		        Bn2 
	.byte	W06
	.byte		        Cn3 
	.byte	W06
	.byte		N12   , Dn3 
	.byte	W12
	.byte		N06   , Bn2 
	.byte	W06
	.byte		        Cn3 
	.byte	W06
	.byte		        Bn2 
	.byte	W06
	.byte		        Dn3 
	.byte	W06
	.byte		        Bn2 
	.byte	W06
	.byte		        Cn3 
	.byte	W06
	.byte		N12   , Dn3 
	.byte	W12
	.byte		N06   , Bn2 
	.byte	W06
	.byte		        Cn3 
	.byte	W06
	.byte		        Bn2 
	.byte	W06
	.byte		        Dn3 , v040
	.byte	W06
	.byte		PAN   , c_v+0
	.byte		N04   , Dn3 , v052
	.byte	W12
	.byte		        Dn3 , v048
	.byte	W12
	.byte		        Dn3 , v044
	.byte	W12
	.byte		N06
	.byte	W06
	.byte		N05   , Gn3 , v056
	.byte	W06
	.byte		PAN   , c_v-64
	.byte		N06   , En3 , v048
	.byte	W06
	.byte		        Fn3 
	.byte	W06
	.byte		N12   , Gn3 
	.byte	W12
	.byte		N06   , En3 
	.byte	W06
	.byte		        Fn3 
	.byte	W06
	.byte		        En3 
	.byte	W06
	.byte		        Gn3 
	.byte	W06
	.byte		        En3 
	.byte	W06
	.byte		        Fn3 
	.byte	W06
	.byte		N12   , Gn3 
	.byte	W12
	.byte		N06   , En3 
	.byte	W06
	.byte		        Fn3 
	.byte	W06
	.byte		        En3 
	.byte	W06
	.byte		        Gn3 
	.byte	W06
	.byte		        Dn3 
	.byte	W06
	.byte		        En3 
	.byte	W06
	.byte		N12   , Gn3 
	.byte	W12
	.byte		N06   , Dn3 
	.byte	W06
	.byte		        En3 
	.byte	W06
	.byte		        Dn3 
	.byte	W06
	.byte		        Gn3 
	.byte	W06
	.byte		PAN   , c_v+0
	.byte		N04   , Gn3 , v052
	.byte	W12
	.byte		        Gn3 , v044
	.byte	W12
	.byte		N06   , Gn3 , v040
	.byte	W06
	.byte		        An3 , v044
	.byte	W06
	.byte		        As3 , v052
	.byte	W06
	.byte		VOICE , 102
	.byte		N04   , Bn3 
	.byte	W06
	.byte		        Bn3 , v048
	.byte	W06
	.byte		N06   , Dn4 
	.byte	W06
	.byte		N04   , Bn3 , v044
	.byte	W06
	.byte		N06   , Dn4 , v048
	.byte	W06
	.byte		N04   , Bn3 , v040
	.byte	W12
	.byte		N06   , As3 , v044
	.byte	W06
	.byte		N04   , An3 , v048
	.byte	W06
	.byte		N06   , An3 , v044
	.byte	W06
	.byte		        Cn4 , v048
	.byte	W06
	.byte		N04   , An3 
	.byte	W12
	.byte		N06   , Gn3 , v040
	.byte	W06
	.byte		        An3 , v048
	.byte	W06
	.byte		        As3 , v052
	.byte	W06
	.byte		N04   , Bn3 
	.byte	W06
	.byte		        Bn3 , v048
	.byte	W06
	.byte		N06   , Dn4 
	.byte	W06
	.byte		N04   , Bn3 , v044
	.byte	W06
	.byte		N06   , Dn4 , v048
	.byte	W06
	.byte		N04   , Bn3 , v040
	.byte	W12
	.byte		N06   , As3 , v044
	.byte	W06
	.byte		N04   , An3 , v048
	.byte	W06
	.byte		N06   , An3 , v044
	.byte	W06
	.byte		        Cn4 , v048
	.byte	W06
	.byte		N04   , An3 
	.byte	W06
	.byte		VOICE , 101
	.byte	W06
	.byte		N06   , Gn3 , v040
	.byte	W06
	.byte		        An3 , v048
	.byte	W06
	.byte		        As3 , v052
	.byte	W06
	.byte		N04   , Bn3 
	.byte	W06
	.byte		        Bn3 , v048
	.byte	W06
	.byte		N06   , Dn4 
	.byte	W06
	.byte		N04   , Bn3 , v044
	.byte	W06
	.byte		N06   , Dn4 , v048
	.byte	W06
	.byte		N04   , Bn3 , v040
	.byte	W12
	.byte		N06   , As3 , v044
	.byte	W06
	.byte		N04   , An3 , v048
	.byte	W06
	.byte		N06   , An3 , v044
	.byte	W06
	.byte		        Cn4 
	.byte	W06
	.byte		N04   , En4 , v048
	.byte	W06
	.byte		N06   , Fn4 , v052
	.byte	W06
	.byte		N04   , En4 
	.byte	W06
	.byte		        Ds4 , v044
	.byte	W06
	.byte		        Dn4 , v052
	.byte	W06
	.byte	W96
	.byte	W96
	.byte		VOICE , 102
	.byte	W12
	.byte		N06   , Cn4 , v048
	.byte	W12
	.byte		N06
	.byte	W12
	.byte		N06
	.byte	W06
	.byte		N03   , Bn3 
	.byte	W06
	.byte		N06   , Cn4 
	.byte	W06
	.byte		N03   , Bn3 
	.byte	W12
	.byte		N06   , An3 
	.byte	W12
	.byte		        Cn4 
	.byte	W06
	.byte		        Bn3 , v044
	.byte	W06
	.byte		N05   , An3 , v048
	.byte	W06
	.byte	W96
	.byte	W12
	.byte		N06   , Cn4 
	.byte	W12
	.byte		N06
	.byte	W12
	.byte		N06
	.byte	W06
	.byte		N03   , Bn3 , v040
	.byte	W06
	.byte		N06   , Cn4 , v036
	.byte	W06
	.byte		N03   , Bn3 , v040
	.byte	W12
	.byte		N06   , Cn4 
	.byte	W12
	.byte		N06
	.byte	W06
	.byte		        Dn4 , v048
	.byte	W06
	.byte		N05   , En4 , v052
	.byte	W06
	.byte	W96
	.byte	W96
	.byte	W12
	.byte		N17   , Gn3 
	.byte	W18
	.byte		N06
	.byte	W06
	.byte		N03   , An3 
	.byte	W06
	.byte		N32   , Bn3 
	.byte	W36
	.byte		N06
	.byte	W06
	.byte		N03   , Cn4 
	.byte	W06
	.byte		N11   , Dn4 
	.byte	W06
	.byte	GOTO
	 .word	seq_018_1 + 0x1C
	.byte	FINE

@*********************** Track 03 ***********************@

seq_018_2:
	.byte	KEYSH , seq_018_key+0
	.byte		VOL   , 86*seq_018_mvl/mxv
	.byte		PAN   , c_v-24
	.byte	W24
	.byte		VOICE , 65
	.byte	W96
	.byte	W96
	.byte	W96
	.byte	W96
	.byte	W12
	.byte		BEND  , c_v-31
	.byte		N12   , As3 , v076
	.byte	W01
	.byte		BEND  , c_v-22
	.byte	W01
	.byte		        c_v-15
	.byte	W01
	.byte		        c_v-9
	.byte	W01
	.byte		        c_v-2
	.byte	W01
	.byte		        c_v-1
	.byte	W01
	.byte		        c_v+0
	.byte	W06
	.byte		N06   , As3 , v080
	.byte	W06
	.byte		        An3 , v076
	.byte	W06
	.byte		N05   , Gn3 , v068
	.byte	W06
	.byte		        Gn3 , v076
	.byte	W12
	.byte		BEND  , c_v-31
	.byte		N24   , As3 , v080
	.byte	W01
	.byte		BEND  , c_v-22
	.byte	W01
	.byte		        c_v-15
	.byte	W01
	.byte		        c_v-9
	.byte	W01
	.byte		        c_v-2
	.byte	W01
	.byte		        c_v-1
	.byte	W01
	.byte		VOL   , 81*seq_018_mvl/mxv
	.byte		BEND  , c_v+0
	.byte	W03
	.byte		VOL   , 75*seq_018_mvl/mxv
	.byte	W03
	.byte		        69*seq_018_mvl/mxv
	.byte	W03
	.byte		        57*seq_018_mvl/mxv
	.byte	W03
	.byte		        42*seq_018_mvl/mxv
	.byte	W03
	.byte		        25*seq_018_mvl/mxv
	.byte	W03
	.byte		        86*seq_018_mvl/mxv
	.byte		N06   , Gn3 , v068
	.byte	W06
	.byte		        An3 , v072
	.byte	W06
	.byte		BEND  , c_v-31
	.byte		N12   , As3 , v080
	.byte	W01
	.byte		BEND  , c_v-22
	.byte	W01
	.byte		        c_v-15
	.byte	W01
	.byte		        c_v-9
	.byte	W01
	.byte		        c_v-2
	.byte	W01
	.byte		        c_v-1
	.byte	W01
	.byte		        c_v+0
	.byte	W06
	.byte		N05   , An3 , v072
	.byte	W06
	.byte		N06   , As3 , v080
	.byte	W06
	.byte		N05   , An3 , v072
	.byte	W06
	.byte		N06   , As3 , v080
	.byte	W06
	.byte		        Gn3 , v072
	.byte	W06
	.byte		        An3 , v076
	.byte	W06
	.byte		        As3 , v080
	.byte	W12
	.byte		        Bn3 
	.byte	W12
	.byte		        Cn4 , v084
	.byte	W12
	.byte		        Cs4 , v092
	.byte	W12
	.byte		N12   , Dn4 , v100
	.byte	W06
	.byte		VOL   , 78*seq_018_mvl/mxv
	.byte	W01
	.byte		        69*seq_018_mvl/mxv
	.byte	W02
	.byte		        55*seq_018_mvl/mxv
	.byte	W01
	.byte		        26*seq_018_mvl/mxv
	.byte	W08
	.byte		        86*seq_018_mvl/mxv
	.byte	W84
	.byte		VOICE , 29
	.byte	W48
	.byte		PAN   , c_v+36
	.byte	W30
	.byte		N06   , Dn3 , v080
	.byte	W06
	.byte		        En3 , v084
	.byte	W06
	.byte		        Fs3 , v072
	.byte	W06
	.byte		N12   , Gn3 , v092
	.byte	W04
	.byte		VOL   , 85*seq_018_mvl/mxv
	.byte	W01
	.byte		        83*seq_018_mvl/mxv
	.byte	W01
	.byte		        81*seq_018_mvl/mxv
	.byte	W01
	.byte		        77*seq_018_mvl/mxv
	.byte	W01
	.byte		        65*seq_018_mvl/mxv
	.byte	W01
	.byte		        58*seq_018_mvl/mxv
	.byte	W01
	.byte		        48*seq_018_mvl/mxv
	.byte	W01
	.byte		        39*seq_018_mvl/mxv
	.byte	W01
	.byte		        86*seq_018_mvl/mxv
	.byte		N09   , Bn3 , v080
	.byte	W12
	.byte		N06
	.byte	W12
	.byte		N06
	.byte	W06
	.byte		        As3 , v068
	.byte	W06
	.byte		        Bn3 , v092
	.byte	W06
	.byte		        An3 , v080
	.byte	W12
	.byte		N12   , Gn3 
	.byte	W08
	.byte		VOL   , 84*seq_018_mvl/mxv
	.byte	W01
	.byte		        76*seq_018_mvl/mxv
	.byte	W01
	.byte		        65*seq_018_mvl/mxv
	.byte	W01
	.byte		        49*seq_018_mvl/mxv
	.byte	W01
	.byte		        86*seq_018_mvl/mxv
	.byte		N06   , Dn3 
	.byte	W06
	.byte		        Gn3 , v068
	.byte	W06
	.byte		N09   , An3 , v080
	.byte	W05
	.byte		VOL   , 84*seq_018_mvl/mxv
	.byte	W01
	.byte		        76*seq_018_mvl/mxv
	.byte	W01
	.byte		        65*seq_018_mvl/mxv
	.byte	W01
	.byte		        49*seq_018_mvl/mxv
	.byte	W01
	.byte		        86*seq_018_mvl/mxv
	.byte	W03
	.byte		N06   , Bn3 , v092
	.byte	W12
	.byte		N06
	.byte	W06
	.byte		        Bn3 , v080
	.byte	W06
	.byte		        As3 , v076
	.byte	W06
	.byte		        An3 , v088
	.byte	W06
	.byte		N36   , Gn3 
	.byte	W02
	.byte		BEND  , c_v+0
	.byte	W08
	.byte		        c_v-2
	.byte	W01
	.byte		        c_v-4
	.byte	W02
	.byte		        c_v-6
	.byte	W01
	.byte		        c_v-8
	.byte	W01
	.byte		        c_v-12
	.byte	W02
	.byte		        c_v-14
	.byte	W01
	.byte		        c_v-18
	.byte	W01
	.byte		        c_v-20
	.byte	W01
	.byte		        c_v-20
	.byte	W04
	.byte		VOL   , 85*seq_018_mvl/mxv
	.byte		BEND  , c_v-16
	.byte	W01
	.byte		        c_v-16
	.byte	W01
	.byte		VOL   , 85*seq_018_mvl/mxv
	.byte		BEND  , c_v-12
	.byte	W01
	.byte		VOL   , 84*seq_018_mvl/mxv
	.byte		BEND  , c_v-10
	.byte	W01
	.byte		VOL   , 81*seq_018_mvl/mxv
	.byte		BEND  , c_v-6
	.byte	W01
	.byte		VOL   , 78*seq_018_mvl/mxv
	.byte		BEND  , c_v-4
	.byte	W01
	.byte		VOL   , 76*seq_018_mvl/mxv
	.byte		BEND  , c_v-2
	.byte	W01
	.byte		VOL   , 74*seq_018_mvl/mxv
	.byte		BEND  , c_v+0
	.byte	W01
	.byte		VOL   , 71*seq_018_mvl/mxv
	.byte	W01
	.byte		        65*seq_018_mvl/mxv
	.byte	W01
	.byte		        61*seq_018_mvl/mxv
	.byte	W01
	.byte		        57*seq_018_mvl/mxv
	.byte	W01
	.byte		        86*seq_018_mvl/mxv
	.byte		N06   , Gn3 , v080
	.byte	W06
	.byte		        An3 , v068
	.byte	W06
	.byte		        Bn3 , v076
	.byte	W06
	.byte		N12   , Cn4 , v092
	.byte	W04
	.byte		VOL   , 85*seq_018_mvl/mxv
	.byte	W01
	.byte		        82*seq_018_mvl/mxv
	.byte	W01
	.byte		        79*seq_018_mvl/mxv
	.byte	W01
	.byte		        74*seq_018_mvl/mxv
	.byte	W01
	.byte		        59*seq_018_mvl/mxv
	.byte	W01
	.byte		        48*seq_018_mvl/mxv
	.byte	W01
	.byte		        37*seq_018_mvl/mxv
	.byte	W01
	.byte		        24*seq_018_mvl/mxv
	.byte	W01
	.byte		        86*seq_018_mvl/mxv
	.byte		BEND  , c_v-23
	.byte		N07   , En4 , v088
	.byte	W01
	.byte		BEND  , c_v-12
	.byte	W01
	.byte		        c_v-6
	.byte	W01
	.byte		        c_v-2
	.byte	W01
	.byte		        c_v+0
	.byte	W08
	.byte		        c_v-23
	.byte		N07
	.byte	W01
	.byte		BEND  , c_v-12
	.byte	W01
	.byte		        c_v-6
	.byte	W01
	.byte		        c_v-2
	.byte	W01
	.byte		        c_v+0
	.byte	W03
	.byte		N05   , En4 , v080
	.byte	W11
	.byte		N06   , Dn4 , v072
	.byte	W06
	.byte		BEND  , c_v-26
	.byte		N06   , En4 , v088
	.byte	W01
	.byte		BEND  , c_v-17
	.byte	W01
	.byte		        c_v-10
	.byte	W01
	.byte		        c_v-5
	.byte	W01
	.byte		        c_v-1
	.byte	W01
	.byte		        c_v+0
	.byte	W01
	.byte		N06   , Dn4 , v072
	.byte	W12
	.byte		N12   , Cn4 , v080
	.byte	W02
	.byte		BEND  , c_v-1
	.byte	W01
	.byte		        c_v-2
	.byte	W01
	.byte		        c_v-4
	.byte	W01
	.byte		        c_v-7
	.byte	W01
	.byte		VOL   , 85*seq_018_mvl/mxv
	.byte		BEND  , c_v-16
	.byte	W01
	.byte		VOL   , 81*seq_018_mvl/mxv
	.byte		BEND  , c_v-21
	.byte	W01
	.byte		VOL   , 77*seq_018_mvl/mxv
	.byte		BEND  , c_v-28
	.byte	W01
	.byte		VOL   , 70*seq_018_mvl/mxv
	.byte		BEND  , c_v-35
	.byte	W01
	.byte		VOL   , 48*seq_018_mvl/mxv
	.byte		BEND  , c_v-43
	.byte	W01
	.byte		VOL   , 36*seq_018_mvl/mxv
	.byte		BEND  , c_v-62
	.byte	W01
	.byte		VOL   , 86*seq_018_mvl/mxv
	.byte		BEND  , c_v-17
	.byte		N06   , En4 , v092
	.byte	W01
	.byte		BEND  , c_v-7
	.byte	W01
	.byte		        c_v-2
	.byte	W01
	.byte		        c_v+0
	.byte	W03
	.byte		N06   , Dn4 , v076
	.byte	W06
	.byte		        Cn4 , v084
	.byte	W06
	.byte		N05   , Bn3 , v092
	.byte	W06
	.byte		N02   , Gn3 , v100
	.byte	W06
	.byte		N05   , Bn3 , v080
	.byte	W06
	.byte		N02   , Gn3 , v100
	.byte	W06
	.byte		N06   , Bn3 , v076
	.byte	W06
	.byte		        Cn4 , v084
	.byte	W06
	.byte		        Cs4 
	.byte	W06
	.byte		BEND  , c_v-61
	.byte		N54   , Dn4 , v096
	.byte	W01
	.byte		BEND  , c_v-58
	.byte	W01
	.byte		        c_v-55
	.byte	W01
	.byte		        c_v-51
	.byte	W01
	.byte		        c_v-45
	.byte	W01
	.byte		        c_v-43
	.byte	W01
	.byte		        c_v-40
	.byte	W01
	.byte		        c_v-37
	.byte	W01
	.byte		        c_v-35
	.byte	W01
	.byte		        c_v-30
	.byte	W01
	.byte		        c_v-27
	.byte	W01
	.byte		        c_v-25
	.byte	W01
	.byte		        c_v-23
	.byte	W01
	.byte		        c_v-19
	.byte	W01
	.byte		        c_v-17
	.byte	W01
	.byte		        c_v-15
	.byte	W01
	.byte		        c_v-14
	.byte	W01
	.byte		        c_v-11
	.byte	W01
	.byte		        c_v-10
	.byte	W01
	.byte		        c_v-8
	.byte	W01
	.byte		        c_v-7
	.byte	W01
	.byte		        c_v-6
	.byte	W01
	.byte		        c_v-4
	.byte	W01
	.byte		        c_v-3
	.byte	W01
	.byte		        c_v-3
	.byte	W01
	.byte		        c_v-2
	.byte	W01
	.byte		        c_v-1
	.byte	W01
	.byte		        c_v-1
	.byte	W01
	.byte		        c_v-1
	.byte	W01
	.byte		        c_v-1
	.byte	W01
	.byte		VOL   , 85*seq_018_mvl/mxv
	.byte		BEND  , c_v+0
	.byte	W03
	.byte		VOL   , 85*seq_018_mvl/mxv
	.byte	W01
	.byte		        84*seq_018_mvl/mxv
	.byte	W01
	.byte		        83*seq_018_mvl/mxv
	.byte	W01
	.byte		        81*seq_018_mvl/mxv
	.byte	W01
	.byte		        81*seq_018_mvl/mxv
	.byte	W01
	.byte		        79*seq_018_mvl/mxv
	.byte	W01
	.byte		        77*seq_018_mvl/mxv
	.byte	W01
	.byte		        75*seq_018_mvl/mxv
	.byte	W01
	.byte		        74*seq_018_mvl/mxv
	.byte	W01
	.byte		        71*seq_018_mvl/mxv
	.byte	W01
	.byte		        67*seq_018_mvl/mxv
	.byte	W01
	.byte		        65*seq_018_mvl/mxv
	.byte	W01
	.byte		        62*seq_018_mvl/mxv
	.byte	W01
	.byte		        60*seq_018_mvl/mxv
	.byte	W01
	.byte		        55*seq_018_mvl/mxv
	.byte	W01
	.byte		        52*seq_018_mvl/mxv
	.byte	W01
	.byte		        49*seq_018_mvl/mxv
	.byte	W01
	.byte		        46*seq_018_mvl/mxv
	.byte	W01
	.byte		        43*seq_018_mvl/mxv
	.byte	W01
	.byte		        36*seq_018_mvl/mxv
	.byte	W01
	.byte		        32*seq_018_mvl/mxv
	.byte	W01
	.byte		        31*seq_018_mvl/mxv
	.byte	W96
	.byte		VOICE , 65
	.byte		VOL   , 86*seq_018_mvl/mxv
	.byte		PAN   , c_v-24
	.byte	W78
	.byte		N06   , Gn3 , v076
	.byte	W06
	.byte		N05   , An3 , v072
	.byte	W06
	.byte		BEND  , c_v-25
	.byte		N06   , As3 , v076
	.byte	W01
	.byte		BEND  , c_v-14
	.byte	W01
	.byte		        c_v-6
	.byte	W01
	.byte		        c_v-2
	.byte	W01
	.byte		        c_v+0
	.byte	W02
	.byte		N05   , Bn3 , v080
	.byte	W06
	.byte		        Bn3 , v072
	.byte	W06
	.byte		        Dn4 , v084
	.byte	W06
	.byte		        Dn4 , v076
	.byte	W12
	.byte		BEND  , c_v-21
	.byte		N05   , Dn4 , v080
	.byte	W01
	.byte		BEND  , c_v-12
	.byte	W01
	.byte		        c_v-5
	.byte	W01
	.byte		        c_v-2
	.byte	W01
	.byte		        c_v+0
	.byte	W08
	.byte		N05   , Dn4 , v076
	.byte	W12
	.byte		BEND  , c_v-21
	.byte		N05   , Cn4 , v080
	.byte	W01
	.byte		BEND  , c_v-12
	.byte	W01
	.byte		        c_v-5
	.byte	W01
	.byte		        c_v-2
	.byte	W01
	.byte		        c_v+0
	.byte	W08
	.byte		N06
	.byte	W06
	.byte		BEND  , c_v-32
	.byte		N06   , En4 
	.byte	W01
	.byte		BEND  , c_v-21
	.byte	W01
	.byte		        c_v-12
	.byte	W01
	.byte		        c_v-6
	.byte	W01
	.byte		        c_v-1
	.byte	W01
	.byte		        c_v+0
	.byte	W01
	.byte		N04   , Dn4 , v072
	.byte	W06
	.byte		        Cn4 , v088
	.byte	W06
	.byte		N18   , Bn3 , v080
	.byte	W06
	.byte		VOL   , 85*seq_018_mvl/mxv
	.byte	W01
	.byte		        85*seq_018_mvl/mxv
	.byte	W01
	.byte		        83*seq_018_mvl/mxv
	.byte	W01
	.byte		        81*seq_018_mvl/mxv
	.byte	W01
	.byte		        75*seq_018_mvl/mxv
	.byte	W01
	.byte		        71*seq_018_mvl/mxv
	.byte	W01
	.byte		        66*seq_018_mvl/mxv
	.byte	W01
	.byte		        62*seq_018_mvl/mxv
	.byte	W01
	.byte		        56*seq_018_mvl/mxv
	.byte	W01
	.byte		        44*seq_018_mvl/mxv
	.byte	W01
	.byte		        37*seq_018_mvl/mxv
	.byte	W01
	.byte		        29*seq_018_mvl/mxv
	.byte	W01
	.byte		        23*seq_018_mvl/mxv
	.byte	W18
	.byte		        86*seq_018_mvl/mxv
	.byte	W12
	.byte		BEND  , c_v-56
	.byte		N78   , Dn4 , v084
	.byte	W01
	.byte		BEND  , c_v-48
	.byte	W01
	.byte		        c_v-41
	.byte	W01
	.byte		        c_v-35
	.byte	W01
	.byte		        c_v-23
	.byte	W01
	.byte		        c_v-18
	.byte	W01
	.byte		        c_v-14
	.byte	W01
	.byte		        c_v-10
	.byte	W01
	.byte		        c_v-7
	.byte	W01
	.byte		        c_v-3
	.byte	W01
	.byte		        c_v-1
	.byte	W01
	.byte		        c_v-1
	.byte	W01
	.byte		        c_v+0
	.byte	W30
	.byte		VOL   , 85*seq_018_mvl/mxv
	.byte	W04
	.byte		        85*seq_018_mvl/mxv
	.byte	W01
	.byte		        84*seq_018_mvl/mxv
	.byte	W01
	.byte		        83*seq_018_mvl/mxv
	.byte	W02
	.byte		        82*seq_018_mvl/mxv
	.byte	W01
	.byte		        81*seq_018_mvl/mxv
	.byte	W01
	.byte		        80*seq_018_mvl/mxv
	.byte	W01
	.byte		        78*seq_018_mvl/mxv
	.byte	W01
	.byte		        77*seq_018_mvl/mxv
	.byte	W01
	.byte		        75*seq_018_mvl/mxv
	.byte	W01
	.byte		        74*seq_018_mvl/mxv
	.byte	W01
	.byte		        73*seq_018_mvl/mxv
	.byte	W01
	.byte		        71*seq_018_mvl/mxv
	.byte	W01
	.byte		        68*seq_018_mvl/mxv
	.byte	W01
	.byte		        66*seq_018_mvl/mxv
	.byte	W01
	.byte		        65*seq_018_mvl/mxv
	.byte	W01
	.byte		        63*seq_018_mvl/mxv
	.byte	W01
	.byte		        61*seq_018_mvl/mxv
	.byte	W01
	.byte		        57*seq_018_mvl/mxv
	.byte	W01
	.byte		        55*seq_018_mvl/mxv
	.byte	W01
	.byte		        53*seq_018_mvl/mxv
	.byte	W01
	.byte		        51*seq_018_mvl/mxv
	.byte	W01
	.byte		        46*seq_018_mvl/mxv
	.byte	W01
	.byte		        44*seq_018_mvl/mxv
	.byte	W01
	.byte		        41*seq_018_mvl/mxv
	.byte	W01
	.byte		        38*seq_018_mvl/mxv
	.byte	W01
	.byte		        36*seq_018_mvl/mxv
	.byte	W01
	.byte		        30*seq_018_mvl/mxv
	.byte	W01
	.byte		        27*seq_018_mvl/mxv
	.byte	W01
	.byte		        25*seq_018_mvl/mxv
	.byte	W01
	.byte		        22*seq_018_mvl/mxv
	.byte	W01
	.byte		        15*seq_018_mvl/mxv
	.byte	W48
	.byte	W01
	.byte		        86*seq_018_mvl/mxv
	.byte	W24
	.byte	W96
	.byte		N06   , Bn3 , v072
	.byte	W06
	.byte		N02   , Gn3 , v064
	.byte	W06
	.byte		N06   , Bn3 , v072
	.byte	W06
	.byte		N02   , Gn3 , v064
	.byte	W06
	.byte		N06   , Bn3 , v072
	.byte	W06
	.byte		        Cn4 , v068
	.byte	W06
	.byte		BEND  , c_v-20
	.byte		N06   , Cs4 , v076
	.byte	W01
	.byte		BEND  , c_v-13
	.byte	W01
	.byte		        c_v-8
	.byte	W01
	.byte		        c_v-4
	.byte	W01
	.byte		        c_v-1
	.byte	W01
	.byte		        c_v+0
	.byte	W01
	.byte		N07   , Dn4 , v080
	.byte	W12
	.byte		BEND  , c_v-34
	.byte		N42   , Gn4 , v084
	.byte	W01
	.byte		BEND  , c_v-24
	.byte	W01
	.byte		        c_v-16
	.byte	W01
	.byte		        c_v-10
	.byte	W01
	.byte		        c_v-2
	.byte	W01
	.byte		        c_v-1
	.byte	W01
	.byte		        c_v+0
	.byte	W18
	.byte		VOL   , 85*seq_018_mvl/mxv
	.byte	W02
	.byte		        85*seq_018_mvl/mxv
	.byte	W01
	.byte		        83*seq_018_mvl/mxv
	.byte	W01
	.byte		        82*seq_018_mvl/mxv
	.byte	W01
	.byte		        79*seq_018_mvl/mxv
	.byte	W01
	.byte		        78*seq_018_mvl/mxv
	.byte	W01
	.byte		        74*seq_018_mvl/mxv
	.byte	W01
	.byte		        70*seq_018_mvl/mxv
	.byte	W01
	.byte		        68*seq_018_mvl/mxv
	.byte	W01
	.byte		        63*seq_018_mvl/mxv
	.byte	W01
	.byte		        61*seq_018_mvl/mxv
	.byte	W01
	.byte		        55*seq_018_mvl/mxv
	.byte	W01
	.byte		        51*seq_018_mvl/mxv
	.byte	W01
	.byte		        44*seq_018_mvl/mxv
	.byte	W01
	.byte		        41*seq_018_mvl/mxv
	.byte	W01
	.byte		        33*seq_018_mvl/mxv
	.byte	W01
	.byte		        25*seq_018_mvl/mxv
	.byte	W01
	.byte	W24
	.byte		        86*seq_018_mvl/mxv
	.byte	W72
	.byte		N06   , An4 , v080
	.byte	W06
	.byte		N04   , Dn4 , v064
	.byte	W06
	.byte		N06   , Dn4 , v080
	.byte	W06
	.byte		N04   , Dn4 , v068
	.byte	W06
	.byte		N06   , Dn4 , v080
	.byte	W06
	.byte		N04   , Dn4 , v068
	.byte	W06
	.byte		N06   , En4 , v080
	.byte	W06
	.byte		        Dn4 , v068
	.byte	W06
	.byte		BEND  , c_v-21
	.byte		N06   , Fn4 , v076
	.byte	W01
	.byte		BEND  , c_v-12
	.byte	W01
	.byte		        c_v-5
	.byte	W01
	.byte		        c_v-2
	.byte	W01
	.byte		        c_v+0
	.byte	W02
	.byte		N06   , En4 , v072
	.byte	W12
	.byte		BEND  , c_v-25
	.byte		N24   , Dn4 , v080
	.byte	W01
	.byte		BEND  , c_v-18
	.byte	W01
	.byte		        c_v-12
	.byte	W01
	.byte		        c_v-7
	.byte	W01
	.byte		        c_v-2
	.byte	W01
	.byte		        c_v-1
	.byte	W01
	.byte		        c_v+0
	.byte	W20
	.byte		N02   , Gn4 , v064
	.byte	W02
	.byte		        Gs4 , v072
	.byte	W02
	.byte		N06   , An4 , v080
	.byte	W06
	.byte		N04   , Dn4 , v064
	.byte	W06
	.byte		N06   , Dn4 , v080
	.byte	W06
	.byte		N04   , Dn4 , v064
	.byte	W12
	.byte		N06
	.byte	W06
	.byte		        En4 , v080
	.byte	W06
	.byte		        Dn4 , v068
	.byte	W06
	.byte		        Fn4 , v080
	.byte	W06
	.byte		        En4 
	.byte	W12
	.byte		        Dn4 , v076
	.byte	W11
	.byte		N01   , Gn4 
	.byte	W01
	.byte		BEND  , c_v-54
	.byte		N18   , An4 , v088
	.byte	W01
	.byte		BEND  , c_v-43
	.byte	W01
	.byte		        c_v-35
	.byte	W01
	.byte		        c_v-27
	.byte	W01
	.byte		        c_v-14
	.byte	W01
	.byte		        c_v-9
	.byte	W01
	.byte		        c_v-5
	.byte	W01
	.byte		        c_v-3
	.byte	W01
	.byte		        c_v-1
	.byte	W01
	.byte		        c_v+0
	.byte	W09
	.byte		VOICE , 65
	.byte		N06   , Gn4 , v084
	.byte	W96
	.byte	GOTO
	 .word	seq_018_2 + 0xA
	.byte	FINE

@*********************** Track 04 ***********************@

seq_018_3:
	.byte	KEYSH , seq_018_key+0
	.byte		VOICE , 36
	.byte		VOL   , 100*seq_018_mvl/mxv
	.byte		N03   , Bn2 , v127
	.byte	W03
	.byte		        Gn2 
	.byte	W03
	.byte		        Dn2 
	.byte	W03
	.byte		        Bn1 
	.byte	W03
	.byte		        Gn1 
	.byte	W03
	.byte		        Dn1 
	.byte	W03
	.byte		        Bn0 
	.byte	W03
	.byte		        Gn0 
	.byte	W03
	.byte		N06   , Gn0 , v127
	.byte	W06
	.byte		        Dn0 
	.byte	W06
	.byte		        Gn0 
	.byte	W06
	.byte		        Dn0 
	.byte	W06
	.byte		        Gn0 
	.byte	W06
	.byte		        Dn0 
	.byte	W06
	.byte		        Fs0 
	.byte	W06
	.byte		        Dn0 
	.byte	W06
	.byte		        Gn0 
	.byte	W06
	.byte		        Dn0 
	.byte	W06
	.byte		        Gn0 
	.byte	W06
	.byte		        Dn0 
	.byte	W06
	.byte		        Gn0 
	.byte	W06
	.byte		        Dn0 
	.byte	W06
	.byte		        Bn0 
	.byte	W06
	.byte		        Dn0 
	.byte	W06
	.byte	PEND
	.byte	PATT
	 .word	seq_018_3 + 0x18
	.byte	PATT
	 .word	seq_018_3 + 0x18
	.byte		N06   , Gn0 , v127
	.byte	W06
	.byte		        Dn0 
	.byte	W06
	.byte		        Gn0 
	.byte	W06
	.byte		        Dn0 
	.byte	W06
	.byte		        Gn0 
	.byte	W06
	.byte		        Dn0 
	.byte	W06
	.byte		        Fs0 
	.byte	W06
	.byte		        Dn0 
	.byte	W06
	.byte		        Gn0 
	.byte	W06
	.byte		        Dn0 
	.byte	W06
	.byte		        An0 
	.byte	W06
	.byte		        Dn0 
	.byte	W06
	.byte		        As0 
	.byte	W06
	.byte		        En0 
	.byte	W06
	.byte		        Bn0 
	.byte	W06
	.byte		        Fn0 
	.byte	W06
	.byte		        Cn1 
	.byte	W06
	.byte		        Gn0 
	.byte	W06
	.byte		        Cn1 
	.byte	W06
	.byte		        Gn0 
	.byte	W06
	.byte		        Cn1 
	.byte	W06
	.byte		        Gn0 
	.byte	W06
	.byte		        An0 
	.byte	W06
	.byte		        Gn0 
	.byte	W06
	.byte		        Cn1 
	.byte	W06
	.byte		        Gn0 
	.byte	W06
	.byte		        Cn1 
	.byte	W06
	.byte		        Gn0 
	.byte	W06
	.byte		        Cn1 
	.byte	W06
	.byte		        Gn0 
	.byte	W06
	.byte		        En1 
	.byte	W06
	.byte		        Gn0 
	.byte	W06
	.byte		        Cn1 
	.byte	W06
	.byte		        Gn0 
	.byte	W06
	.byte		        Cn1 
	.byte	W06
	.byte		        Gn0 
	.byte	W06
	.byte		        Cn1 
	.byte	W06
	.byte		        Gn0 
	.byte	W06
	.byte		        An0 
	.byte	W06
	.byte		        Gn0 
	.byte	W06
	.byte		        Cn1 
	.byte	W06
	.byte		        Gn0 
	.byte	W06
	.byte		        Cn1 
	.byte	W06
	.byte		        Gn0 
	.byte	W06
	.byte		        Cn1 
	.byte	W06
	.byte		        Gn0 
	.byte	W06
	.byte		        En1 
	.byte	W06
	.byte		        As0 
	.byte	W06
	.byte	PATT
	 .word	seq_018_3 + 0x18
	.byte	PATT
	 .word	seq_018_3 + 0x18
	.byte		N06   , Gn0 , v127
	.byte	W06
	.byte		        Dn0 
	.byte	W06
	.byte		        En0 
	.byte	W06
	.byte		N12   , Gn0 
	.byte	W12
	.byte		N06   , Dn0 
	.byte	W06
	.byte		        En0 
	.byte	W06
	.byte		        Dn0 
	.byte	W06
	.byte		        Gn0 
	.byte	W06
	.byte		        Dn0 
	.byte	W06
	.byte		        En0 
	.byte	W06
	.byte		N12   , Gn0 
	.byte	W12
	.byte		N06   , Dn0 
	.byte	W06
	.byte		        En0 
	.byte	W06
	.byte		        Dn0 
	.byte	W06
	.byte	PEND
	.byte		        Gn0 
	.byte	W06
	.byte		        Dn0 
	.byte	W06
	.byte		        En0 
	.byte	W06
	.byte		N12   , Gn0 
	.byte	W12
	.byte		N06   , Dn0 
	.byte	W06
	.byte		        En0 
	.byte	W06
	.byte		        Dn0 
	.byte	W06
	.byte		        Gn0 
	.byte	W06
	.byte		        Dn0 
	.byte	W06
	.byte		        En0 
	.byte	W06
	.byte		N12   , Gn0 
	.byte	W12
	.byte		N06   , Dn0 
	.byte	W06
	.byte		        En0 
	.byte	W06
	.byte		        Gn0 
	.byte	W06
	.byte		        Cn1 
	.byte	W06
	.byte		        Gn0 
	.byte	W06
	.byte		        An0 
	.byte	W06
	.byte		N12   , Cn1 
	.byte	W12
	.byte		N06   , Gn0 
	.byte	W06
	.byte		        An0 
	.byte	W06
	.byte		        Gn0 
	.byte	W06
	.byte		        Cn1 
	.byte	W06
	.byte		        Gn0 
	.byte	W06
	.byte		        An0 
	.byte	W06
	.byte		N12   , Cn1 
	.byte	W12
	.byte		N06   , Gn0 
	.byte	W06
	.byte		        An0 
	.byte	W06
	.byte		        Gn0 
	.byte	W06
	.byte		N06
	.byte	W06
	.byte		        Dn0 
	.byte	W06
	.byte		        En0 
	.byte	W06
	.byte		N12   , Gn0 
	.byte	W12
	.byte		N06   , Dn0 
	.byte	W06
	.byte		        En0 
	.byte	W06
	.byte		        Dn0 
	.byte	W06
	.byte		        Gn0 
	.byte	W06
	.byte		        Dn0 
	.byte	W06
	.byte		        En0 
	.byte	W06
	.byte		N12   , Gn0 
	.byte	W12
	.byte		N06   , Dn0 
	.byte	W06
	.byte		        Gn0 
	.byte	W06
	.byte		        Bn0 
	.byte	W06
	.byte		N06   , Dn1 , v127
	.byte	W48
	.byte		        Cn1 
	.byte	W30
	.byte		        Bn0 
	.byte	W06
	.byte		        Cn1 
	.byte	W06
	.byte		        Cs1 
	.byte	W06
	.byte	PEND
	.byte	PATT
	 .word	seq_018_3 + 0x134
	.byte		N06   , Dn1 , v127
	.byte	W06
	.byte		        Bn0 
	.byte	W06
	.byte		        Gn0 
	.byte	W06
	.byte		        Dn0 
	.byte	W06
	.byte		        Gn0 
	.byte	W06
	.byte		        Dn0 
	.byte	W06
	.byte		        Gn0 
	.byte	W06
	.byte		        Dn1 
	.byte	W06
	.byte		        Cn1 
	.byte	W06
	.byte		        Gn0 
	.byte	W06
	.byte		        En0 
	.byte	W06
	.byte		        Gn0 
	.byte	W06
	.byte		        Bn0 
	.byte	W06
	.byte		        Gn0 
	.byte	W06
	.byte		        Dn1 
	.byte	W06
	.byte		        Bn0 
	.byte	W06
	.byte	PATT
	 .word	seq_018_3 + 0xB1
	.byte		N06   , Gn0 , v127
	.byte	W06
	.byte		        Dn0 
	.byte	W06
	.byte		        En0 
	.byte	W06
	.byte		N12   , Gn0 
	.byte	W12
	.byte		N06   , Dn0 
	.byte	W06
	.byte		        En0 
	.byte	W06
	.byte		        Dn0 
	.byte	W06
	.byte		        Gn0 
	.byte	W06
	.byte		        Dn0 
	.byte	W06
	.byte		        En0 
	.byte	W06
	.byte		N12   , Gn0 
	.byte	W12
	.byte		N06
	.byte	W06
	.byte		        An0 
	.byte	W06
	.byte		        Bn0 
	.byte	W06
	.byte	PEND
	.byte		        Cn1 
	.byte	W06
	.byte		        Gn0 
	.byte	W06
	.byte		        An0 
	.byte	W06
	.byte		N12   , Cn1 
	.byte	W12
	.byte		N06   , Gn0 
	.byte	W06
	.byte		        An0 
	.byte	W06
	.byte		        Gn0 
	.byte	W06
	.byte		        Cn1 
	.byte	W06
	.byte		        Gn0 
	.byte	W06
	.byte		        An0 
	.byte	W06
	.byte		N12   , Cn1 
	.byte	W12
	.byte		N06
	.byte	W06
	.byte		        Bn0 
	.byte	W06
	.byte		        An0 
	.byte	W06
	.byte	PATT
	 .word	seq_018_3 + 0x16D
	.byte		N06   , Cn1 , v127
	.byte	W06
	.byte		        Gn0 
	.byte	W06
	.byte		        An0 
	.byte	W06
	.byte		N12   , Cn1 
	.byte	W12
	.byte		N06   , Gn0 
	.byte	W06
	.byte		        An0 
	.byte	W06
	.byte		        Gn0 
	.byte	W06
	.byte		        Cn1 
	.byte	W06
	.byte		        Gn0 
	.byte	W06
	.byte		        An0 
	.byte	W06
	.byte		N12   , Cn1 
	.byte	W12
	.byte		N06   , Gn0 
	.byte	W06
	.byte		        An0 
	.byte	W06
	.byte		        Cn1 
	.byte	W06
	.byte		        Dn1 
	.byte	W78
	.byte		        Bn0 
	.byte	W06
	.byte		        Cn1 
	.byte	W06
	.byte		        Cs1 
	.byte	W06
	.byte		        Dn1 
	.byte	W78
	.byte		BEND  , c_v-54
	.byte		N18
	.byte	W01
	.byte		BEND  , c_v-43
	.byte	W01
	.byte		        c_v-35
	.byte	W01
	.byte		        c_v-27
	.byte	W01
	.byte		        c_v-14
	.byte	W01
	.byte		        c_v-9
	.byte	W01
	.byte		        c_v-5
	.byte	W01
	.byte		        c_v-3
	.byte	W01
	.byte		        c_v-1
	.byte	W01
	.byte		        c_v+0
	.byte	W09
	.byte	PATT
	 .word	seq_018_3 + 0x18
	.byte	GOTO
	 .word	seq_018_3 + 0x3B
	.byte	FINE

@*********************** Track 05 ***********************@

seq_018_4:
	.byte	KEYSH , seq_018_key+0
	.byte		VOICE , 127
	.byte		VOL   , 100*seq_018_mvl/mxv
	.byte		N03   , Dn1 , v100
	.byte	W03
	.byte		N03
	.byte	W03
	.byte		N06   , Cn1 , v127
	.byte	W06
	.byte		        Dn1 , v100
	.byte		N06   , As1 
	.byte	W12
	.byte		N12   , Gn2 , v112
	.byte		N02   , As3 , v052
	.byte	W06
	.byte		        As3 , v032
	.byte	W06
	.byte		N06   , Ds1 , v092
	.byte		N02   , As3 , v044
	.byte	W06
	.byte		        As3 , v036
	.byte	W06
	.byte		N06   , Cn1 , v127
	.byte		N02   , As3 , v052
	.byte	W06
	.byte		N06   , Cn1 , v127
	.byte		N02   , As3 , v036
	.byte	W06
	.byte		N06   , Ds1 , v092
	.byte		N02   , As3 , v044
	.byte	W06
	.byte		N06   , Cn1 , v127
	.byte		N02   , As3 , v032
	.byte	W06
	.byte		        As3 , v052
	.byte	W06
	.byte		N06   , Cn1 , v127
	.byte		N02   , As3 , v032
	.byte	W06
	.byte		N06   , Ds1 , v092
	.byte		N02   , As3 , v040
	.byte	W06
	.byte		N06   , Cn1 , v127
	.byte		N02   , As3 , v032
	.byte	W06
	.byte		N06   , Cn1 , v127
	.byte		N02   , As3 , v052
	.byte	W06
	.byte		N06   , Cn1 , v127
	.byte		N02   , As3 , v032
	.byte	W06
	.byte		N06   , Ds1 , v092
	.byte		N02   , As3 , v048
	.byte	W06
	.byte		        As3 , v036
	.byte	W06
	.byte	PEND
	.byte		N06   , Cn1 , v127
	.byte		N02   , As3 , v052
	.byte	W06
	.byte		        As3 , v032
	.byte	W06
	.byte		N06   , Ds1 , v092
	.byte		N02   , As3 , v044
	.byte	W06
	.byte		        As3 , v036
	.byte	W06
	.byte		N06   , Cn1 , v127
	.byte		N02   , As3 , v052
	.byte	W06
	.byte		N06   , Cn1 , v127
	.byte		N02   , As3 , v036
	.byte	W06
	.byte		N06   , Ds1 , v092
	.byte		N02   , As3 , v044
	.byte	W06
	.byte		N06   , Cn1 , v127
	.byte		N02   , As3 , v032
	.byte	W06
	.byte		        As3 , v052
	.byte	W06
	.byte		N06   , Cn1 , v127
	.byte		N02   , As3 , v032
	.byte	W06
	.byte		N06   , Ds1 , v092
	.byte		N02   , As3 , v040
	.byte	W06
	.byte		N06   , Cn1 , v127
	.byte		N02   , As3 , v032
	.byte	W06
	.byte		N03   , Dn1 , v108
	.byte		N02   , As3 , v052
	.byte	W03
	.byte		N03   , Dn1 , v092
	.byte	W03
	.byte		N06   , Bn0 
	.byte		N02   , As3 , v032
	.byte	W06
	.byte		N06   , Ds1 , v108
	.byte		N02   , As3 , v048
	.byte	W06
	.byte		N06   , Cn1 , v127
	.byte		N02   , As3 , v036
	.byte	W06
	.byte	PEND
	.byte	PATT
	 .word	seq_018_4 + 0x15
	.byte		N06   , Cn1 , v127
	.byte		N02   , As3 , v052
	.byte	W06
	.byte		        As3 , v032
	.byte	W06
	.byte		N06   , Ds1 , v092
	.byte		N02   , As3 , v044
	.byte	W06
	.byte		        As3 , v036
	.byte	W06
	.byte		N06   , Cn1 , v127
	.byte		N02   , As3 , v052
	.byte	W06
	.byte		N06   , Cn1 , v127
	.byte		N02   , As3 , v036
	.byte	W06
	.byte		N06   , Ds1 , v092
	.byte		N02   , As3 , v044
	.byte	W06
	.byte		N06   , Cn1 , v127
	.byte		N02   , As3 , v032
	.byte	W06
	.byte		N06   , Dn1 , v100
	.byte		N02   , As3 , v052
	.byte	W06
	.byte		N06   , Bn0 , v080
	.byte		N02   , As3 , v032
	.byte	W06
	.byte		N06   , Dn1 , v092
	.byte		N02   , As3 , v040
	.byte	W06
	.byte		N06   , Bn0 , v092
	.byte		N02   , As3 , v032
	.byte	W06
	.byte		N06   , Dn1 , v108
	.byte		N02   , As3 , v052
	.byte	W06
	.byte		N06   , Bn0 , v108
	.byte		N02   , As3 , v032
	.byte	W06
	.byte		N03   , Dn1 , v112
	.byte		N02   , As3 , v048
	.byte	W03
	.byte		N03   , Dn1 , v100
	.byte	W03
	.byte		N06   , Bn0 , v127
	.byte		N02   , As3 , v036
	.byte	W06
	.byte	PATT
	 .word	seq_018_4 + 0x15
	.byte		N06   , Cn1 , v127
	.byte		N02   , As3 , v052
	.byte	W06
	.byte		        As3 , v032
	.byte	W06
	.byte		N06   , Ds1 , v092
	.byte		N02   , As3 , v044
	.byte	W06
	.byte		        As3 , v036
	.byte	W06
	.byte		N06   , Cn1 , v127
	.byte		N02   , As3 , v052
	.byte	W06
	.byte		N06   , Cn1 , v127
	.byte		N02   , As3 , v036
	.byte	W06
	.byte		N06   , Ds1 , v092
	.byte		N02   , As3 , v044
	.byte	W06
	.byte		N06   , Cn1 , v127
	.byte		N02   , As3 , v032
	.byte	W06
	.byte		        As3 , v052
	.byte	W06
	.byte		N06   , Cn1 , v127
	.byte		N02   , As3 , v032
	.byte	W06
	.byte		N06   , Ds1 , v092
	.byte		N02   , As3 , v040
	.byte	W06
	.byte		N06   , Cn1 , v127
	.byte		N02   , As3 , v032
	.byte	W06
	.byte		N03   , Dn1 , v116
	.byte		N02   , As3 , v052
	.byte	W03
	.byte		N03   , Dn1 , v084
	.byte	W03
	.byte		N06   , Cn1 , v127
	.byte		N02   , As3 , v032
	.byte	W06
	.byte		N06   , Ds1 , v108
	.byte		N02   , As3 , v048
	.byte	W06
	.byte		N06   , Cn1 , v127
	.byte		N02   , As3 , v036
	.byte	W06
	.byte	PATT
	 .word	seq_018_4 + 0x15
	.byte	PATT
	 .word	seq_018_4 + 0x76
	.byte	PATT
	 .word	seq_018_4 + 0x15
	.byte	PATT
	 .word	seq_018_4 + 0x76
	.byte	PATT
	 .word	seq_018_4 + 0x15
	.byte		N06   , Cn1 , v127
	.byte		N02   , As3 , v052
	.byte	W06
	.byte		        As3 , v032
	.byte	W06
	.byte		N06   , Ds1 , v092
	.byte		N02   , As3 , v044
	.byte	W06
	.byte		        As3 , v036
	.byte	W06
	.byte		N06   , Cn1 , v127
	.byte		N02   , As3 , v052
	.byte	W06
	.byte		N06   , Cn1 , v127
	.byte		N02   , As3 , v036
	.byte	W06
	.byte		N06   , Ds1 , v092
	.byte		N02   , As3 , v044
	.byte	W06
	.byte		N06   , Cn1 , v127
	.byte		N02   , As3 , v032
	.byte	W06
	.byte		        As3 , v052
	.byte	W06
	.byte		N06   , Cn1 , v127
	.byte		N02   , As3 , v032
	.byte	W06
	.byte		N06   , Ds1 , v092
	.byte		N02   , As3 , v040
	.byte	W06
	.byte		N06   , Cn1 , v127
	.byte		N02   , As3 , v032
	.byte	W06
	.byte		N06   , Ds1 , v076
	.byte		N02   , As3 , v052
	.byte	W06
	.byte		N06   , Cn1 , v127
	.byte		N02   , As3 , v032
	.byte	W06
	.byte		N06   , Ds1 , v104
	.byte		N02   , As3 , v048
	.byte	W06
	.byte		N06   , Cn1 , v127
	.byte		N02   , As3 , v036
	.byte	W06
	.byte		N12   , Gn2 , v112
	.byte		N02   , As3 , v052
	.byte	W06
	.byte		        As3 , v032
	.byte	W06
	.byte		N06   , Cn1 , v127
	.byte		N02   , As3 , v044
	.byte	W06
	.byte		        As3 , v036
	.byte	W06
	.byte		N06   , Cn1 , v127
	.byte		N02   , As3 , v052
	.byte	W06
	.byte		        As3 , v036
	.byte	W06
	.byte		N06   , Cn1 , v127
	.byte		N02   , As3 , v044
	.byte	W06
	.byte		        As3 , v032
	.byte	W06
	.byte		N06   , Cn1 , v127
	.byte		N02   , As3 , v052
	.byte	W06
	.byte		        As3 , v032
	.byte	W06
	.byte		N06   , Cn1 , v127
	.byte		N02   , As3 , v040
	.byte	W06
	.byte		        As3 , v032
	.byte	W06
	.byte		N06   , Bn0 , v120
	.byte		N02   , As3 , v052
	.byte	W06
	.byte		N06   , Cn1 , v127
	.byte		N02   , As3 , v032
	.byte	W06
	.byte		N06   , Bn0 , v100
	.byte		N02   , As3 , v048
	.byte	W06
	.byte		N06   , Cn1 , v127
	.byte		N02   , As3 , v036
	.byte	W06
	.byte		N12   , Gn2 , v112
	.byte		N02   , As3 , v052
	.byte	W06
	.byte		        As3 , v032
	.byte	W06
	.byte		N06   , Cn1 , v127
	.byte		N02   , As3 , v044
	.byte	W06
	.byte		        As3 , v036
	.byte	W06
	.byte		N06   , Cn1 , v127
	.byte		N02   , As3 , v052
	.byte	W06
	.byte		        As3 , v036
	.byte	W06
	.byte		N06   , Cn1 , v127
	.byte		N02   , As3 , v044
	.byte	W06
	.byte		        As3 , v032
	.byte	W06
	.byte		N06   , Cn1 , v127
	.byte		N02   , As3 , v052
	.byte	W06
	.byte		        As3 , v032
	.byte	W06
	.byte		N06   , Cn1 , v127
	.byte		N02   , As3 , v040
	.byte	W06
	.byte		        As3 , v032
	.byte	W06
	.byte		N03   , Dn1 , v116
	.byte		N02   , As3 , v052
	.byte	W03
	.byte		N03   , Dn1 , v092
	.byte	W03
	.byte		N06   , Bn0 , v100
	.byte		N02   , As3 , v032
	.byte	W06
	.byte		N06   , Ds1 , v112
	.byte		N02   , As3 , v048
	.byte	W06
	.byte		N06   , Cn1 , v127
	.byte		N02   , As3 , v036
	.byte	W06
	.byte		N12   , Gn2 , v112
	.byte		N02   , As3 , v052
	.byte	W06
	.byte		        As3 , v032
	.byte	W06
	.byte		N06   , Ds1 , v092
	.byte		N02   , As3 , v044
	.byte	W06
	.byte		        As3 , v036
	.byte	W06
	.byte		N06   , Cn1 , v127
	.byte		N02   , As3 , v052
	.byte	W06
	.byte		N06   , Cn1 , v127
	.byte		N02   , As3 , v036
	.byte	W06
	.byte		N06   , Ds1 , v092
	.byte		N02   , As3 , v044
	.byte	W06
	.byte		N06   , Cn1 , v127
	.byte		N02   , As3 , v032
	.byte	W06
	.byte		        As3 , v052
	.byte	W06
	.byte		N06   , Cn1 , v127
	.byte		N02   , As3 , v032
	.byte	W06
	.byte		N06   , Ds1 , v108
	.byte		N02   , As3 , v040
	.byte	W06
	.byte		N06   , Cn1 , v127
	.byte		N02   , As3 , v032
	.byte	W06
	.byte		N06   , Ds1 , v084
	.byte		N02   , As3 , v052
	.byte	W06
	.byte		N06   , Cn1 , v127
	.byte		N02   , As3 , v032
	.byte	W06
	.byte		N06   , Ds1 , v108
	.byte		N02   , As3 , v048
	.byte	W06
	.byte		N06   , Cn1 , v127
	.byte		N02   , As3 , v036
	.byte	W06
	.byte		N06   , Cn1 , v127
	.byte		N02   , As3 , v052
	.byte	W06
	.byte		        As3 , v032
	.byte	W06
	.byte		N06   , Ds1 , v092
	.byte		N02   , As3 , v044
	.byte	W06
	.byte		        As3 , v036
	.byte	W06
	.byte		N06   , Cn1 , v127
	.byte		N02   , As3 , v052
	.byte	W06
	.byte		N06   , Cn1 , v127
	.byte		N02   , As3 , v036
	.byte	W06
	.byte		N06   , Ds1 , v092
	.byte		N02   , As3 , v044
	.byte	W06
	.byte		N06   , Cn1 , v127
	.byte		N02   , As3 , v032
	.byte	W06
	.byte		        As3 , v052
	.byte	W06
	.byte		N06   , Cn1 , v127
	.byte		N02   , As3 , v032
	.byte	W06
	.byte		N06   , Ds1 , v092
	.byte		N02   , As3 , v040
	.byte	W06
	.byte		N06   , Cn1 , v127
	.byte		N02   , As3 , v032
	.byte	W06
	.byte		N06   , Cn1 , v127
	.byte		N02   , As3 , v052
	.byte	W06
	.byte		N06   , Cn1 , v127
	.byte		N02   , As3 , v032
	.byte	W06
	.byte		N06   , Ds1 , v092
	.byte		N02   , As3 , v048
	.byte	W06
	.byte		        As3 , v036
	.byte	W06
	.byte		N06   , Cn1 , v127
	.byte		N02   , As3 , v052
	.byte	W06
	.byte		        As3 , v032
	.byte	W06
	.byte		N06   , Ds1 , v092
	.byte		N02   , As3 , v044
	.byte	W06
	.byte		        As3 , v036
	.byte	W06
	.byte		N06   , Cn1 , v127
	.byte		N02   , As3 , v052
	.byte	W06
	.byte		N06   , Cn1 , v127
	.byte		N02   , As3 , v036
	.byte	W06
	.byte		N06   , Ds1 , v092
	.byte		N02   , As3 , v044
	.byte	W06
	.byte		N06   , Cn1 , v127
	.byte		N02   , As3 , v032
	.byte	W06
	.byte		        As3 , v052
	.byte	W06
	.byte		N06   , Cn1 , v127
	.byte		N02   , As3 , v032
	.byte	W06
	.byte		N06   , Ds1 , v092
	.byte		N02   , As3 , v040
	.byte	W06
	.byte		N06   , Cn1 , v127
	.byte		N02   , As3 , v032
	.byte	W06
	.byte		N06   , Ds1 , v092
	.byte		N02   , As3 , v052
	.byte	W06
	.byte		N06   , Cn1 , v127
	.byte		N02   , As3 , v032
	.byte	W06
	.byte		N06   , Ds1 , v092
	.byte		N02   , As3 , v048
	.byte	W06
	.byte		N03   , Dn1 , v100
	.byte		N02   , As3 , v036
	.byte	W03
	.byte		N03   , Dn1 , v100
	.byte	W03
	.byte	PATT
	 .word	seq_018_4 + 0x15
	.byte		N06   , Cn1 , v127
	.byte		N02   , As3 , v052
	.byte	W06
	.byte		        As3 , v032
	.byte	W06
	.byte		N06   , Ds1 , v092
	.byte		N02   , As3 , v044
	.byte	W06
	.byte		        As3 , v036
	.byte	W06
	.byte		N06   , Cn1 , v127
	.byte		N02   , As3 , v052
	.byte	W06
	.byte		N06   , Cn1 , v127
	.byte		N02   , As3 , v036
	.byte	W06
	.byte		N06   , Ds1 , v092
	.byte		N02   , As3 , v044
	.byte	W06
	.byte		N06   , Cn1 , v127
	.byte		N02   , As3 , v032
	.byte	W06
	.byte		        As3 , v052
	.byte	W06
	.byte		N06   , Cn1 , v127
	.byte		N02   , As3 , v032
	.byte	W06
	.byte		N06   , Ds1 , v104
	.byte		N02   , As3 , v040
	.byte	W06
	.byte		N06   , Cn1 , v127
	.byte		N02   , As3 , v032
	.byte	W06
	.byte		N06   , Ds1 , v084
	.byte		N02   , As3 , v052
	.byte	W06
	.byte		N06   , Cn1 , v127
	.byte		N02   , As3 , v032
	.byte	W06
	.byte		N06   , Ds1 , v108
	.byte		N02   , As3 , v048
	.byte	W06
	.byte		N06   , Cn1 , v127
	.byte		N02   , As3 , v036
	.byte	W06
	.byte	PATT
	 .word	seq_018_4 + 0x15
	.byte	PATT
	 .word	seq_018_4 + 0x15
	.byte		N06   , Cn1 , v127
	.byte		N02   , As3 , v052
	.byte	W06
	.byte		        As3 , v032
	.byte	W06
	.byte		        As3 , v044
	.byte	W06
	.byte		N06   , Cn1 , v127
	.byte		N02   , As3 , v036
	.byte	W06
	.byte		N06   , Cn1 , v127
	.byte		N02   , As3 , v052
	.byte	W06
	.byte		        As3 , v036
	.byte	W06
	.byte		        As3 , v044
	.byte	W06
	.byte		N06   , Cn1 , v127
	.byte		N02   , As3 , v032
	.byte	W06
	.byte		        As3 , v052
	.byte	W06
	.byte		N06   , Cn1 , v127
	.byte		N02   , As3 , v032
	.byte	W06
	.byte		        As3 , v040
	.byte	W06
	.byte		N06   , Cn1 , v127
	.byte		N02   , As3 , v032
	.byte	W06
	.byte		N03   , Dn1 , v108
	.byte		N02   , As3 , v052
	.byte	W03
	.byte		N03   , Dn1 , v088
	.byte	W03
	.byte		N06   , Bn0 , v100
	.byte		N02   , As3 , v032
	.byte	W06
	.byte		N06   , Ds1 , v108
	.byte		N02   , As3 , v048
	.byte	W06
	.byte		N03   , Dn1 , v104
	.byte		N02   , As3 , v036
	.byte	W03
	.byte		N03   , Dn1 , v124
	.byte	W03
	.byte	PATT
	 .word	seq_018_4 + 0x15
	.byte	GOTO
	 .word	seq_018_4 + 0x76
	.byte	FINE

@******************************************************@

	.align	2

seq_018:
	.byte	5	@ NumTrks
	.byte	0	@ NumBlks
	.byte	seq_018_pri	@ Priority
	.byte	seq_018_rev	@ Reverb

	.word	seq_018_grp

	.word	seq_018_0
	.word	seq_018_1
	.word	seq_018_2
	.word	seq_018_3
	.word	seq_018_4

	.end
