@ File generated by m4a2s Song-Module
	.include "MPlayDef.s"

	.equ	seq_023_grp, bank_018
	.equ	seq_023_pri, 0
	.equ	seq_023_rev, 148
	.equ	seq_023_mvl, 127
	.equ	seq_023_key, 0

	.section .rodata
	.global	seq_023
	.align	2

@*********************** Track 01 ***********************@

seq_023_0:
	.byte	KEYSH , seq_023_key+0
	.byte	TEMPO , 140/2
	.byte		VOICE , 80
	.byte		VOL   , 78*seq_023_mvl/mxv
	.byte		BENDR , 24
	.byte	PRIO  , 0
	.byte		PAN   , c_v+0
	.byte	W96
	.byte		BEND  , c_v+16
	.byte		N06   , Dn6 , v056
	.byte	W01
	.byte		BEND  , c_v+14
	.byte	W02
	.byte		        c_v+12
	.byte	W01
	.byte		        c_v+8
	.byte	W01
	.byte		        c_v+4
	.byte	W01
	.byte		        c_v+0
	.byte	W06
	.byte		        c_v+16
	.byte		N06
	.byte	W01
	.byte		BEND  , c_v+14
	.byte	W02
	.byte		        c_v+12
	.byte	W01
	.byte		        c_v+8
	.byte	W01
	.byte		        c_v+4
	.byte	W01
	.byte		        c_v+0
	.byte	W78
	.byte	PEND
	.byte	W96
	.byte	W96
	.byte	W96
	.byte		BEND  , c_v+16
	.byte		N06   , Dn6 , v056
	.byte	W01
	.byte		BEND  , c_v+14
	.byte	W02
	.byte		        c_v+12
	.byte	W01
	.byte		        c_v+8
	.byte	W01
	.byte		        c_v+4
	.byte	W01
	.byte		        c_v+0
	.byte	W06
	.byte		        c_v+16
	.byte		N06
	.byte	W01
	.byte		BEND  , c_v+14
	.byte	W02
	.byte		        c_v+12
	.byte	W01
	.byte		        c_v+8
	.byte	W01
	.byte		        c_v+4
	.byte	W01
	.byte		        c_v+0
	.byte	W78
	.byte		VOICE , 102
	.byte		N96   , Dn4 , v052
	.byte	W07
	.byte		VOL   , 59*seq_023_mvl/mxv
	.byte	W07
	.byte		        42*seq_023_mvl/mxv
	.byte	W07
	.byte		        30*seq_023_mvl/mxv
	.byte	W07
	.byte		        22*seq_023_mvl/mxv
	.byte	W07
	.byte		        16*seq_023_mvl/mxv
	.byte	W20
	.byte		        38*seq_023_mvl/mxv
	.byte	W07
	.byte		        58*seq_023_mvl/mxv
	.byte	W07
	.byte		        74*seq_023_mvl/mxv
	.byte	W07
	.byte		        85*seq_023_mvl/mxv
	.byte	W07
	.byte		        94*seq_023_mvl/mxv
	.byte	W08
	.byte		        98*seq_023_mvl/mxv
	.byte	W05
	.byte	W96
	.byte		VOICE , 80
	.byte		VOL   , 78*seq_023_mvl/mxv
	.byte	W12
	.byte		N06   , Cn4 , v096
	.byte	W12
	.byte		        Cn5 
	.byte	W06
	.byte		        Gn4 
	.byte	W12
	.byte		        As4 
	.byte	W12
	.byte		N06
	.byte	W06
	.byte		        An4 
	.byte	W12
	.byte		        Gn4 
	.byte	W12
	.byte		        Fn4 
	.byte	W12
	.byte	PEND
	.byte		N06   , En4 , v096
	.byte	W06
	.byte		        Fn4 
	.byte	W06
	.byte		        Gn4 
	.byte	W06
	.byte		        Cn4 
	.byte	W18
	.byte		        En4 
	.byte	W06
	.byte		        Fn4 
	.byte	W06
	.byte		        Gn4 
	.byte	W06
	.byte		        Cn4 
	.byte	W18
	.byte		        En4 
	.byte	W12
	.byte		        Dn4 
	.byte	W12
	.byte	PEND
	.byte	W12
	.byte		N06   , Cn4 , v096
	.byte	W12
	.byte		        Cn5 
	.byte	W06
	.byte		        Gn4 
	.byte	W12
	.byte		        As4 
	.byte	W12
	.byte		N06
	.byte	W06
	.byte		        An4 
	.byte	W12
	.byte		        Gn4 
	.byte	W12
	.byte		        Fn4 
	.byte	W12
	.byte	PEND
	.byte		        En4 
	.byte	W06
	.byte		        Fn4 
	.byte	W06
	.byte		        Gn4 
	.byte	W06
	.byte		        Cn5 
	.byte	W18
	.byte		        En4 
	.byte	W06
	.byte		        Fn4 
	.byte	W06
	.byte		        Gn4 
	.byte	W06
	.byte		        Cn5 
	.byte	W18
	.byte		        En5 
	.byte	W12
	.byte		        Dn5 
	.byte	W12
	.byte	PATT
	 .word	seq_023_0 + 0x9E
	.byte	PATT
	 .word	seq_023_0 + 0x87
	.byte	PATT
	 .word	seq_023_0 + 0x9E
	.byte		N06   , En4 , v096
	.byte	W06
	.byte		        Fn4 
	.byte	W06
	.byte		        Gn4 
	.byte	W06
	.byte		        Cn5 
	.byte	W18
	.byte		        En4 
	.byte	W06
	.byte		        Fn4 
	.byte	W06
	.byte		        Gn4 
	.byte	W06
	.byte		        Cn5 
	.byte	W12
	.byte		        En4 
	.byte	W06
	.byte		        Fn4 
	.byte	W06
	.byte		        Gn4 
	.byte	W06
	.byte		        Cn5 
	.byte	W12
	.byte	W96
	.byte	PATT
	 .word	seq_023_0 + 0xF
	.byte		VOICE , 102
	.byte		N96   , As3 , v060
	.byte	W07
	.byte		VOL   , 61*seq_023_mvl/mxv
	.byte	W07
	.byte		        47*seq_023_mvl/mxv
	.byte	W07
	.byte		        35*seq_023_mvl/mxv
	.byte	W07
	.byte		        25*seq_023_mvl/mxv
	.byte	W07
	.byte		        19*seq_023_mvl/mxv
	.byte	W08
	.byte		        16*seq_023_mvl/mxv
	.byte	W12
	.byte		        38*seq_023_mvl/mxv
	.byte	W07
	.byte		        58*seq_023_mvl/mxv
	.byte	W07
	.byte		        74*seq_023_mvl/mxv
	.byte	W07
	.byte		        85*seq_023_mvl/mxv
	.byte	W07
	.byte		        94*seq_023_mvl/mxv
	.byte	W08
	.byte		        98*seq_023_mvl/mxv
	.byte	W05
	.byte		        100*seq_023_mvl/mxv
	.byte	W96
	.byte	PATT
	 .word	seq_023_0 + 0x6F
	.byte	PATT
	 .word	seq_023_0 + 0x87
	.byte	W12
	.byte		N06   , Cn4 , v096
	.byte	W12
	.byte		        Cn5 
	.byte	W06
	.byte		        Gn4 
	.byte	W12
	.byte		        As4 
	.byte	W12
	.byte		N06
	.byte	W06
	.byte		        An4 
	.byte	W12
	.byte		        Gn4 
	.byte	W12
	.byte		        As4 
	.byte	W12
	.byte		        Cn5 
	.byte	W12
	.byte		        Gn4 
	.byte	W12
	.byte		        As4 
	.byte	W12
	.byte		        An4 
	.byte	W06
	.byte		        Gn4 
	.byte	W12
	.byte		        Cn5 
	.byte	W12
	.byte		        Gn4 
	.byte	W06
	.byte		        As4 
	.byte	W12
	.byte		        Gn4 
	.byte	W12
	.byte	PATT
	 .word	seq_023_0 + 0x9E
	.byte		N06   , En4 , v096
	.byte	W06
	.byte		        Fn4 
	.byte	W06
	.byte		        Gn4 
	.byte	W06
	.byte		        Cn4 
	.byte	W18
	.byte		        En4 
	.byte	W06
	.byte		        Fn4 
	.byte	W06
	.byte		        Gn4 
	.byte	W06
	.byte		        Cn4 
	.byte	W18
	.byte		        En4 
	.byte	W12
	.byte		        Gn4 
	.byte	W12
	.byte	W12
	.byte		        Cn4 
	.byte	W12
	.byte		        Cn5 
	.byte	W06
	.byte		        Gn4 
	.byte	W12
	.byte		        As4 
	.byte	W12
	.byte		N06
	.byte	W06
	.byte		        An4 
	.byte	W12
	.byte		        As4 
	.byte	W12
	.byte		        Dn5 
	.byte	W12
	.byte		        Cn5 
	.byte	W06
	.byte		        Gn4 
	.byte	W06
	.byte		        An4 
	.byte	W06
	.byte		        Gn4 
	.byte	W24
	.byte		N18   , As4 
	.byte	W18
	.byte		N06   , Bn4 
	.byte	W12
	.byte		N48   , Cn5 
	.byte	W15
	.byte		VOL   , 63*seq_023_mvl/mxv
	.byte	W04
	.byte		        50*seq_023_mvl/mxv
	.byte	W03
	.byte		        38*seq_023_mvl/mxv
	.byte	W02
	.byte	W02
	.byte		        28*seq_023_mvl/mxv
	.byte	W03
	.byte		        19*seq_023_mvl/mxv
	.byte	W04
	.byte		        12*seq_023_mvl/mxv
	.byte	W04
	.byte		        7*seq_023_mvl/mxv
	.byte	W03
	.byte		        3*seq_023_mvl/mxv
	.byte	W04
	.byte		        0*seq_023_mvl/mxv
	.byte	W03
	.byte		        0*seq_023_mvl/mxv
	.byte	W24
	.byte	W01
	.byte		        78*seq_023_mvl/mxv
	.byte		BEND  , c_v+16
	.byte		N06   , Dn6 , v056
	.byte	W01
	.byte		BEND  , c_v+14
	.byte	W02
	.byte		        c_v+12
	.byte	W01
	.byte		        c_v+8
	.byte	W01
	.byte		        c_v+4
	.byte	W01
	.byte		        c_v+0
	.byte	W06
	.byte		        c_v+16
	.byte		N06
	.byte	W01
	.byte		BEND  , c_v+14
	.byte	W02
	.byte		        c_v+12
	.byte	W01
	.byte		        c_v+8
	.byte	W01
	.byte		        c_v+4
	.byte	W01
	.byte		        c_v+0
	.byte	W30
	.byte	W96
	.byte	W48
	.byte		        c_v+16
	.byte		N06
	.byte	W01
	.byte		BEND  , c_v+14
	.byte	W02
	.byte		        c_v+12
	.byte	W01
	.byte		        c_v+8
	.byte	W01
	.byte		        c_v+4
	.byte	W01
	.byte		        c_v+0
	.byte	W06
	.byte		        c_v+16
	.byte		N06
	.byte	W01
	.byte		BEND  , c_v+14
	.byte	W02
	.byte		        c_v+12
	.byte	W01
	.byte		        c_v+8
	.byte	W01
	.byte		        c_v+4
	.byte	W01
	.byte		        c_v+0
	.byte	W06
	.byte		VOICE , 122
	.byte		PAN   , c_v-64
	.byte		BEND  , c_v+0
	.byte		N24   , As0 , v052
	.byte	W02
	.byte		BEND  , c_v+0
	.byte	W02
	.byte		        c_v+2
	.byte	W03
	.byte		        c_v+6
	.byte	W02
	.byte		        c_v+10
	.byte	W02
	.byte		        c_v+17
	.byte	W03
	.byte		        c_v+24
	.byte	W02
	.byte		        c_v+33
	.byte	W03
	.byte		        c_v+44
	.byte	W02
	.byte		        c_v+55
	.byte	W02
	.byte		        c_v+63
	.byte	W01
	.byte		        c_v+0
	.byte		N24   , Dn1 , v072
	.byte	W02
	.byte		BEND  , c_v+0
	.byte	W02
	.byte		        c_v+2
	.byte	W03
	.byte		        c_v+6
	.byte	W02
	.byte		        c_v+10
	.byte	W02
	.byte		        c_v+17
	.byte	W03
	.byte		        c_v+24
	.byte	W02
	.byte		        c_v+33
	.byte	W03
	.byte		        c_v+44
	.byte	W02
	.byte		        c_v+55
	.byte	W02
	.byte		        c_v+63
	.byte	W01
	.byte		        c_v+0
	.byte		N24   , Fn1 , v084
	.byte	W02
	.byte		BEND  , c_v+0
	.byte	W02
	.byte		        c_v+2
	.byte	W03
	.byte		        c_v+6
	.byte	W02
	.byte		        c_v+10
	.byte	W02
	.byte		        c_v+17
	.byte	W03
	.byte		        c_v+24
	.byte	W02
	.byte		        c_v+33
	.byte	W03
	.byte		        c_v+44
	.byte	W02
	.byte		        c_v+55
	.byte	W02
	.byte		        c_v+63
	.byte	W01
	.byte		PAN   , c_v+0
	.byte		BEND  , c_v+0
	.byte		N12   , As1 , v096
	.byte	W01
	.byte		BEND  , c_v+2
	.byte	W02
	.byte		        c_v+8
	.byte	W02
	.byte		        c_v+18
	.byte	W02
	.byte		        c_v+32
	.byte	W01
	.byte		        c_v+50
	.byte	W02
	.byte		        c_v+63
	.byte	W02
	.byte		        c_v+0
	.byte		N12   , Dn2 , v092
	.byte	W01
	.byte		BEND  , c_v+2
	.byte	W02
	.byte		        c_v+8
	.byte	W02
	.byte		        c_v+18
	.byte	W02
	.byte		        c_v+32
	.byte	W01
	.byte		        c_v+50
	.byte	W02
	.byte		        c_v+63
	.byte	W02
	.byte		PAN   , c_v+63
	.byte		BEND  , c_v+0
	.byte		N06   , Fn2 , v088
	.byte	W01
	.byte		BEND  , c_v+8
	.byte	W02
	.byte		        c_v+32
	.byte	W02
	.byte		        c_v+63
	.byte	W01
	.byte		        c_v+0
	.byte		N06   , As2 , v072
	.byte	W01
	.byte		BEND  , c_v+8
	.byte	W02
	.byte		        c_v+32
	.byte	W02
	.byte		        c_v+63
	.byte	W01
	.byte		        c_v+0
	.byte		N06   , Dn3 , v064
	.byte	W01
	.byte		BEND  , c_v+8
	.byte	W02
	.byte		        c_v+32
	.byte	W02
	.byte		        c_v+63
	.byte	W01
	.byte		        c_v+0
	.byte		N06   , Fn3 , v044
	.byte	W01
	.byte		BEND  , c_v+8
	.byte	W02
	.byte		        c_v+32
	.byte	W02
	.byte		        c_v+63
	.byte	W01
	.byte		VOICE , 102
	.byte		PAN   , c_v+0
	.byte		BEND  , c_v+0
	.byte		TIE   , Fn3 , v060
	.byte	W07
	.byte		VOL   , 70*seq_023_mvl/mxv
	.byte	W07
	.byte		        58*seq_023_mvl/mxv
	.byte	W07
	.byte		        48*seq_023_mvl/mxv
	.byte	W03
	.byte		BEND  , c_v+0
	.byte	W04
	.byte		VOL   , 40*seq_023_mvl/mxv
	.byte	W07
	.byte		        34*seq_023_mvl/mxv
	.byte	W07
	.byte		        31*seq_023_mvl/mxv
	.byte	W09
	.byte		        38*seq_023_mvl/mxv
	.byte	W04
	.byte		        46*seq_023_mvl/mxv
	.byte	W07
	.byte		        59*seq_023_mvl/mxv
	.byte	W07
	.byte		        70*seq_023_mvl/mxv
	.byte	W07
	.byte		        81*seq_023_mvl/mxv
	.byte	W07
	.byte		        88*seq_023_mvl/mxv
	.byte	W07
	.byte		        93*seq_023_mvl/mxv
	.byte	W06
	.byte	W02
	.byte		VOL   , 97*seq_023_mvl/mxv
	.byte	W07
	.byte		        99*seq_023_mvl/mxv
	.byte	W15
	.byte	PEND
	.byte		EOT   , Fn3 
	.byte	W72
	.byte		VOICE , 101
	.byte		VOL   , 70*seq_023_mvl/mxv
	.byte	W12
	.byte		N06   , En4 , v060
	.byte	W12
	.byte		VOICE , 102
	.byte	W12
	.byte		N06
	.byte	W24
	.byte		N06
	.byte	W12
	.byte		PAN   , c_v-64
	.byte	W12
	.byte		VOICE , 122
	.byte		N06   , Gn3 
	.byte	W12
	.byte		N18   , En4 
	.byte	W18
	.byte		N06   , Cn4 
	.byte	W30
	.byte		PAN   , c_v+0
	.byte	W48
	.byte		VOICE , 102
	.byte		VOL   , 78*seq_023_mvl/mxv
	.byte		TIE   , Fn3 
	.byte	W07
	.byte		VOL   , 70*seq_023_mvl/mxv
	.byte	W07
	.byte		        58*seq_023_mvl/mxv
	.byte	W07
	.byte		        48*seq_023_mvl/mxv
	.byte	W07
	.byte		        40*seq_023_mvl/mxv
	.byte	W07
	.byte		        34*seq_023_mvl/mxv
	.byte	W07
	.byte		        31*seq_023_mvl/mxv
	.byte	W09
	.byte		        38*seq_023_mvl/mxv
	.byte	W04
	.byte		        46*seq_023_mvl/mxv
	.byte	W07
	.byte		        59*seq_023_mvl/mxv
	.byte	W07
	.byte		        70*seq_023_mvl/mxv
	.byte	W07
	.byte		        81*seq_023_mvl/mxv
	.byte	W07
	.byte		        88*seq_023_mvl/mxv
	.byte	W07
	.byte		        93*seq_023_mvl/mxv
	.byte	W06
	.byte	PATT
	 .word	seq_023_0 + 0x2AD
	.byte		EOT   , Fn3 
	.byte	W72
	.byte		VOICE , 101
	.byte		VOL   , 70*seq_023_mvl/mxv
	.byte	W12
	.byte		N06   , En4 , v060
	.byte	W12
	.byte		VOICE , 102
	.byte	W12
	.byte		N06
	.byte	W24
	.byte		N06
	.byte	W12
	.byte		VOICE , 122
	.byte		PAN   , c_v+63
	.byte	W12
	.byte		N06   , Gn3 
	.byte	W12
	.byte		N18   , En4 
	.byte	W18
	.byte		N06   , Gn4 
	.byte	W18
	.byte		        Cn4 
	.byte	W36
	.byte		PAN   , c_v+0
	.byte	W24
	.byte		VOICE , 102
	.byte		VOL   , 78*seq_023_mvl/mxv
	.byte		TIE   , Fn3 
	.byte	W07
	.byte		VOL   , 70*seq_023_mvl/mxv
	.byte	W07
	.byte		        58*seq_023_mvl/mxv
	.byte	W07
	.byte		        48*seq_023_mvl/mxv
	.byte	W07
	.byte		        40*seq_023_mvl/mxv
	.byte	W07
	.byte		        34*seq_023_mvl/mxv
	.byte	W07
	.byte		        31*seq_023_mvl/mxv
	.byte	W09
	.byte		        38*seq_023_mvl/mxv
	.byte	W04
	.byte		        46*seq_023_mvl/mxv
	.byte	W07
	.byte		        59*seq_023_mvl/mxv
	.byte	W07
	.byte		        70*seq_023_mvl/mxv
	.byte	W07
	.byte		        81*seq_023_mvl/mxv
	.byte	W07
	.byte		        88*seq_023_mvl/mxv
	.byte	W07
	.byte		        93*seq_023_mvl/mxv
	.byte	W06
	.byte	PATT
	 .word	seq_023_0 + 0x2AD
	.byte		EOT   , Fn3 
	.byte	W72
	.byte		VOICE , 101
	.byte		VOL   , 70*seq_023_mvl/mxv
	.byte	W12
	.byte		N06   , En4 , v044
	.byte	W24
	.byte		N06
	.byte	W24
	.byte		N06
	.byte	W12
	.byte		VOICE , 122
	.byte		PAN   , c_v-64
	.byte	W12
	.byte		N06   , Dn4 , v060
	.byte	W12
	.byte		BEND  , c_v-20
	.byte		N18   , En4 
	.byte	W01
	.byte		BEND  , c_v-11
	.byte	W02
	.byte		        c_v-4
	.byte	W02
	.byte		        c_v-1
	.byte	W01
	.byte		        c_v+0
	.byte	W12
	.byte		N06   , Cn4 
	.byte	W18
	.byte		BEND  , c_v-20
	.byte		N60   , Gn4 
	.byte	W01
	.byte		BEND  , c_v-11
	.byte	W02
	.byte		        c_v-4
	.byte	W02
	.byte		        c_v-1
	.byte	W01
	.byte		        c_v+0
	.byte	W36
	.byte	W03
	.byte		VOL   , 67*seq_023_mvl/mxv
	.byte	W04
	.byte		        59*seq_023_mvl/mxv
	.byte	W03
	.byte		        45*seq_023_mvl/mxv
	.byte	W04
	.byte		        25*seq_023_mvl/mxv
	.byte	W04
	.byte		VOICE , 101
	.byte		VOL   , 70*seq_023_mvl/mxv
	.byte		PAN   , c_v+0
	.byte		N96   , Dn4 , v040
	.byte	W72
	.byte		PAN   , c_v+63
	.byte	W24
	.byte		VOICE , 122
	.byte		BEND  , c_v-20
	.byte		N18   , Fs4 , v060
	.byte	W01
	.byte		BEND  , c_v-10
	.byte	W02
	.byte		        c_v-4
	.byte	W02
	.byte		        c_v-1
	.byte	W01
	.byte		        c_v+0
	.byte	W12
	.byte		N06   , Dn4 
	.byte	W18
	.byte		BEND  , c_v-20
	.byte		N60   , Dn5 
	.byte	W01
	.byte		BEND  , c_v-10
	.byte	W02
	.byte		        c_v-4
	.byte	W02
	.byte		        c_v-1
	.byte	W01
	.byte		        c_v+0
	.byte	W36
	.byte	W03
	.byte		VOL   , 67*seq_023_mvl/mxv
	.byte	W04
	.byte		        59*seq_023_mvl/mxv
	.byte	W03
	.byte		        45*seq_023_mvl/mxv
	.byte	W04
	.byte		        25*seq_023_mvl/mxv
	.byte	W04
	.byte		VOICE , 101
	.byte		PAN   , c_v+0
	.byte		VOL   , 70*seq_023_mvl/mxv
	.byte		N07   , Dn4 , v052
	.byte	W18
	.byte		N07
	.byte	W18
	.byte		N07
	.byte	W12
	.byte		N07
	.byte	W18
	.byte		N07
	.byte	W18
	.byte		N07
	.byte	W12
	.byte		N07
	.byte	W24
	.byte		N78   , Fn4 
	.byte	W68
	.byte	W03
	.byte		BEND  , c_v-4
	.byte	W01
	.byte		        c_v-6
	.byte	W01
	.byte		        c_v-10
	.byte	W01
	.byte		        c_v-12
	.byte	W01
	.byte		        c_v-18
	.byte	W01
	.byte		        c_v-24
	.byte	W01
	.byte		        c_v-32
	.byte	W01
	.byte		        c_v-42
	.byte	W18
	.byte		        c_v+0
	.byte	W24
	.byte		VOICE , 80
	.byte	W48
	.byte	GOTO
	 .word	seq_023_0 + 0x32
	.byte	FINE

@*********************** Track 02 ***********************@

seq_023_1:
	.byte	KEYSH , seq_023_key+0
	.byte		VOICE , 81
	.byte		BENDR , 24
	.byte		PAN   , c_v+0
	.byte	W96
	.byte	W96
	.byte		VOL   , 78*seq_023_mvl/mxv
	.byte		BEND  , c_v+63
	.byte		TIE   , Cn5 , v032
	.byte	W02
	.byte		BEND  , c_v+63
	.byte	W02
	.byte		        c_v+63
	.byte	W03
	.byte		VOL   , 77*seq_023_mvl/mxv
	.byte		BEND  , c_v+63
	.byte	W02
	.byte		        c_v+63
	.byte	W02
	.byte		        c_v+63
	.byte	W03
	.byte		        c_v+63
	.byte	W02
	.byte		        c_v+63
	.byte	W03
	.byte		        c_v+62
	.byte	W02
	.byte		VOL   , 77*seq_023_mvl/mxv
	.byte		BEND  , c_v+62
	.byte	W02
	.byte		        c_v+62
	.byte	W03
	.byte		        c_v+61
	.byte	W02
	.byte		VOL   , 76*seq_023_mvl/mxv
	.byte		BEND  , c_v+61
	.byte	W02
	.byte		        c_v+60
	.byte	W03
	.byte		        c_v+60
	.byte	W02
	.byte		VOL   , 75*seq_023_mvl/mxv
	.byte		BEND  , c_v+59
	.byte	W03
	.byte		        c_v+58
	.byte	W02
	.byte		        c_v+58
	.byte	W02
	.byte		        c_v+57
	.byte	W01
	.byte		VOL   , 74*seq_023_mvl/mxv
	.byte	W02
	.byte		BEND  , c_v+56
	.byte	W02
	.byte		        c_v+56
	.byte	W03
	.byte		VOL   , 73*seq_023_mvl/mxv
	.byte		BEND  , c_v+55
	.byte	W02
	.byte		        c_v+54
	.byte	W02
	.byte		        c_v+53
	.byte	W03
	.byte		VOL   , 71*seq_023_mvl/mxv
	.byte		BEND  , c_v+52
	.byte	W02
	.byte		        c_v+51
	.byte	W02
	.byte		        c_v+50
	.byte	W03
	.byte		VOL   , 69*seq_023_mvl/mxv
	.byte		BEND  , c_v+49
	.byte	W02
	.byte		        c_v+48
	.byte	W03
	.byte		        c_v+47
	.byte	W02
	.byte		VOL   , 67*seq_023_mvl/mxv
	.byte		BEND  , c_v+46
	.byte	W02
	.byte		        c_v+45
	.byte	W03
	.byte		        c_v+43
	.byte	W02
	.byte		VOL   , 65*seq_023_mvl/mxv
	.byte		BEND  , c_v+42
	.byte	W02
	.byte		        c_v+41
	.byte	W03
	.byte		        c_v+39
	.byte	W02
	.byte		VOL   , 62*seq_023_mvl/mxv
	.byte		BEND  , c_v+38
	.byte	W03
	.byte		        c_v+37
	.byte	W02
	.byte		        c_v+35
	.byte	W02
	.byte		        c_v+34
	.byte	W01
	.byte		VOL   , 59*seq_023_mvl/mxv
	.byte	W02
	.byte		BEND  , c_v+32
	.byte	W01
	.byte	W01
	.byte		        c_v+31
	.byte	W02
	.byte		        c_v+29
	.byte	W01
	.byte		VOL   , 56*seq_023_mvl/mxv
	.byte	W02
	.byte		BEND  , c_v+27
	.byte	W02
	.byte		        c_v+26
	.byte	W03
	.byte		VOL   , 53*seq_023_mvl/mxv
	.byte		BEND  , c_v+24
	.byte	W02
	.byte		        c_v+22
	.byte	W02
	.byte		        c_v+20
	.byte	W03
	.byte		VOL   , 50*seq_023_mvl/mxv
	.byte		BEND  , c_v+18
	.byte	W02
	.byte		        c_v+16
	.byte	W03
	.byte		        c_v+15
	.byte	W02
	.byte		VOL   , 47*seq_023_mvl/mxv
	.byte		BEND  , c_v+13
	.byte	W02
	.byte		        c_v+11
	.byte	W03
	.byte		        c_v+8
	.byte	W02
	.byte		VOL   , 43*seq_023_mvl/mxv
	.byte		BEND  , c_v+6
	.byte	W02
	.byte		        c_v+4
	.byte	W03
	.byte		        c_v+2
	.byte	W02
	.byte		        c_v+0
	.byte	W01
	.byte		VOL   , 39*seq_023_mvl/mxv
	.byte	W02
	.byte		BEND  , c_v-2
	.byte	W02
	.byte		        c_v-5
	.byte	W02
	.byte		        c_v-7
	.byte	W01
	.byte		VOL   , 34*seq_023_mvl/mxv
	.byte	W02
	.byte		BEND  , c_v-9
	.byte	W02
	.byte		        c_v-12
	.byte	W02
	.byte		        c_v-14
	.byte	W01
	.byte		VOL   , 29*seq_023_mvl/mxv
	.byte	W02
	.byte		BEND  , c_v-17
	.byte	W02
	.byte		        c_v-19
	.byte	W03
	.byte		VOL   , 25*seq_023_mvl/mxv
	.byte		BEND  , c_v-22
	.byte	W02
	.byte		        c_v-24
	.byte	W02
	.byte		        c_v-27
	.byte	W03
	.byte		VOL   , 20*seq_023_mvl/mxv
	.byte		BEND  , c_v-30
	.byte	W02
	.byte		        c_v-32
	.byte	W03
	.byte		        c_v-35
	.byte	W02
	.byte		VOL   , 15*seq_023_mvl/mxv
	.byte		BEND  , c_v-38
	.byte	W02
	.byte		        c_v-41
	.byte	W03
	.byte		        c_v-44
	.byte	W02
	.byte		        c_v-47
	.byte	W01
	.byte		VOL   , 10*seq_023_mvl/mxv
	.byte	W01
	.byte		BEND  , c_v-50
	.byte	W03
	.byte		        c_v-53
	.byte	W02
	.byte		        c_v-56
	.byte	W01
	.byte		VOL   , 4*seq_023_mvl/mxv
	.byte	W02
	.byte		BEND  , c_v-59
	.byte	W02
	.byte		        c_v-62
	.byte	W01
	.byte		EOT
	.byte	W01
	.byte		BEND  , c_v-64
	.byte	W96
	.byte	W96
	.byte		VOICE , 61
	.byte		VOL   , 78*seq_023_mvl/mxv
	.byte		BEND  , c_v+0
	.byte		N96   , Gn4 , v127
	.byte	W07
	.byte		VOL   , 61*seq_023_mvl/mxv
	.byte	W07
	.byte		        47*seq_023_mvl/mxv
	.byte	W07
	.byte		        35*seq_023_mvl/mxv
	.byte	W07
	.byte		        25*seq_023_mvl/mxv
	.byte	W07
	.byte		        19*seq_023_mvl/mxv
	.byte	W08
	.byte		        16*seq_023_mvl/mxv
	.byte	W12
	.byte		        38*seq_023_mvl/mxv
	.byte	W07
	.byte		        58*seq_023_mvl/mxv
	.byte	W07
	.byte		        74*seq_023_mvl/mxv
	.byte	W07
	.byte		        85*seq_023_mvl/mxv
	.byte	W07
	.byte		        94*seq_023_mvl/mxv
	.byte	W08
	.byte		        98*seq_023_mvl/mxv
	.byte	W05
	.byte	W96
	.byte		        78*seq_023_mvl/mxv
	.byte	W96
	.byte	W72
	.byte		N05   , Gn4 , v112
	.byte	W06
	.byte		N05
	.byte	W18
	.byte	PEND
	.byte	W96
	.byte		N96   , Gn4 , v127
	.byte	W07
	.byte		VOL   , 61*seq_023_mvl/mxv
	.byte	W07
	.byte		        47*seq_023_mvl/mxv
	.byte	W07
	.byte		        35*seq_023_mvl/mxv
	.byte	W07
	.byte		        25*seq_023_mvl/mxv
	.byte	W07
	.byte		        19*seq_023_mvl/mxv
	.byte	W08
	.byte		        16*seq_023_mvl/mxv
	.byte	W12
	.byte		        38*seq_023_mvl/mxv
	.byte	W07
	.byte		        58*seq_023_mvl/mxv
	.byte	W07
	.byte		        74*seq_023_mvl/mxv
	.byte	W07
	.byte		        85*seq_023_mvl/mxv
	.byte	W07
	.byte		        94*seq_023_mvl/mxv
	.byte	W08
	.byte		        98*seq_023_mvl/mxv
	.byte	W05
	.byte	PEND
	.byte	W96
	.byte		        78*seq_023_mvl/mxv
	.byte	W72
	.byte		N05   , Gn4 , v112
	.byte	W06
	.byte		N05
	.byte	W18
	.byte	W96
	.byte	PATT
	 .word	seq_023_1 + 0x133
	.byte	W96
	.byte	PATT
	 .word	seq_023_1 + 0x133
	.byte	PATT
	 .word	seq_023_1 + 0x13C
	.byte		N06   , Cn5 , v100
	.byte	W12
	.byte		        Gn4 
	.byte	W12
	.byte		N12   , As4 
	.byte	W12
	.byte		N06   , Dn5 
	.byte	W06
	.byte		        Cn5 
	.byte	W12
	.byte		N06
	.byte	W06
	.byte		        Gn4 
	.byte	W12
	.byte		BEND  , c_v-6
	.byte		N12   , As4 
	.byte	W01
	.byte		BEND  , c_v-5
	.byte	W01
	.byte		        c_v-4
	.byte	W01
	.byte		        c_v-2
	.byte	W01
	.byte		        c_v+0
	.byte	W08
	.byte		N06   , Dn5 
	.byte	W12
	.byte		VOL   , 78*seq_023_mvl/mxv
	.byte	W96
	.byte	PATT
	 .word	seq_023_1 + 0x133
	.byte	W96
	.byte		N06   , Gn4 , v120
	.byte	W12
	.byte		        Dn4 
	.byte	W12
	.byte		N12   , Fn4 
	.byte	W12
	.byte		N06   , En4 
	.byte	W06
	.byte		        Dn4 
	.byte	W12
	.byte		        Gn4 
	.byte	W12
	.byte		        Dn4 
	.byte	W06
	.byte		N12   , Fn4 
	.byte	W12
	.byte		N06   , Dn4 
	.byte	W12
	.byte	W96
	.byte	PATT
	 .word	seq_023_1 + 0x133
	.byte	W84
	.byte		N06   , Gn4 , v112
	.byte	W12
	.byte		N08
	.byte	W42
	.byte		N18   , Fn4 
	.byte	W18
	.byte		N06   , Fs4 
	.byte	W12
	.byte		N12   , Gn4 
	.byte	W12
	.byte		N02   , Dn4 , v088
	.byte	W02
	.byte		N01   , Bn3 , v072
	.byte	W01
	.byte		        Gn3 , v060
	.byte	W09
	.byte	W96
	.byte	W96
	.byte	W96
	.byte	W96
	.byte		VOL   , 86*seq_023_mvl/mxv
	.byte		TIE   , An3 , v127
	.byte	W07
	.byte		VOL   , 70*seq_023_mvl/mxv
	.byte	W07
	.byte		        58*seq_023_mvl/mxv
	.byte	W07
	.byte		        48*seq_023_mvl/mxv
	.byte	W07
	.byte		        40*seq_023_mvl/mxv
	.byte	W07
	.byte		        34*seq_023_mvl/mxv
	.byte	W07
	.byte		        31*seq_023_mvl/mxv
	.byte	W09
	.byte		        38*seq_023_mvl/mxv
	.byte	W04
	.byte		        46*seq_023_mvl/mxv
	.byte	W07
	.byte		        59*seq_023_mvl/mxv
	.byte	W07
	.byte		        70*seq_023_mvl/mxv
	.byte	W07
	.byte		        81*seq_023_mvl/mxv
	.byte	W07
	.byte		        88*seq_023_mvl/mxv
	.byte	W07
	.byte		        93*seq_023_mvl/mxv
	.byte	W06
	.byte	W02
	.byte		VOL   , 97*seq_023_mvl/mxv
	.byte	W07
	.byte		        99*seq_023_mvl/mxv
	.byte	W15
	.byte	PEND
	.byte		EOT   , An3 
	.byte	W72
	.byte		VOICE , 102
	.byte		VOL   , 86*seq_023_mvl/mxv
	.byte	W12
	.byte		N06   , Gn4 , v040
	.byte	W12
	.byte		VOICE , 61
	.byte	W12
	.byte		N06   , Gn4 , v112
	.byte	W24
	.byte		N06
	.byte	W24
	.byte		N06
	.byte	W12
	.byte	PEND
	.byte	W12
	.byte		N06   , Gn4 , v112
	.byte	W24
	.byte		N06
	.byte	W24
	.byte		N06
	.byte	W24
	.byte		N06
	.byte	W12
	.byte	PEND
	.byte		TIE   , An3 , v127
	.byte	W07
	.byte		VOL   , 70*seq_023_mvl/mxv
	.byte	W07
	.byte		        58*seq_023_mvl/mxv
	.byte	W07
	.byte		        48*seq_023_mvl/mxv
	.byte	W07
	.byte		        40*seq_023_mvl/mxv
	.byte	W07
	.byte		        34*seq_023_mvl/mxv
	.byte	W07
	.byte		        31*seq_023_mvl/mxv
	.byte	W09
	.byte		        38*seq_023_mvl/mxv
	.byte	W04
	.byte		        46*seq_023_mvl/mxv
	.byte	W07
	.byte		        59*seq_023_mvl/mxv
	.byte	W07
	.byte		        70*seq_023_mvl/mxv
	.byte	W07
	.byte		        81*seq_023_mvl/mxv
	.byte	W07
	.byte		        88*seq_023_mvl/mxv
	.byte	W07
	.byte		        93*seq_023_mvl/mxv
	.byte	W06
	.byte	PATT
	 .word	seq_023_1 + 0x1FE
	.byte		EOT   , An3 
	.byte	W72
	.byte	PATT
	 .word	seq_023_1 + 0x208
	.byte	PATT
	 .word	seq_023_1 + 0x21D
	.byte		TIE   , Gs3 , v127
	.byte	W07
	.byte		VOL   , 70*seq_023_mvl/mxv
	.byte	W07
	.byte		        58*seq_023_mvl/mxv
	.byte	W07
	.byte		        48*seq_023_mvl/mxv
	.byte	W07
	.byte		        40*seq_023_mvl/mxv
	.byte	W07
	.byte		        34*seq_023_mvl/mxv
	.byte	W07
	.byte		        31*seq_023_mvl/mxv
	.byte	W09
	.byte		        38*seq_023_mvl/mxv
	.byte	W04
	.byte		        46*seq_023_mvl/mxv
	.byte	W07
	.byte		        59*seq_023_mvl/mxv
	.byte	W07
	.byte		        70*seq_023_mvl/mxv
	.byte	W07
	.byte		        81*seq_023_mvl/mxv
	.byte	W07
	.byte		        88*seq_023_mvl/mxv
	.byte	W07
	.byte		        93*seq_023_mvl/mxv
	.byte	W06
	.byte	PATT
	 .word	seq_023_1 + 0x1FE
	.byte		EOT   , Gs3 
	.byte	W72
	.byte		VOICE , 102
	.byte		VOL   , 78*seq_023_mvl/mxv
	.byte	W12
	.byte		N09   , Gn4 , v052
	.byte	W24
	.byte		N09
	.byte	W24
	.byte		N09
	.byte	W24
	.byte		VOICE , 101
	.byte		N09
	.byte	W12
	.byte	W12
	.byte		N09
	.byte	W24
	.byte		N09
	.byte	W24
	.byte		N09
	.byte	W24
	.byte		N09
	.byte	W12
	.byte		VOICE , 102
	.byte		N96   , Fs4 
	.byte	W96
	.byte		VOICE , 101
	.byte		N96   , An4 
	.byte	W96
	.byte		VOICE , 102
	.byte		N08   , Gn4 , v060
	.byte	W18
	.byte		N08
	.byte	W18
	.byte		N08
	.byte	W12
	.byte		N08
	.byte	W18
	.byte		N08
	.byte	W18
	.byte		N08
	.byte	W12
	.byte		N08
	.byte	W24
	.byte		N78   , As4 
	.byte	W68
	.byte	W03
	.byte		BEND  , c_v-4
	.byte	W01
	.byte		        c_v-6
	.byte	W01
	.byte		        c_v-10
	.byte	W01
	.byte		        c_v-12
	.byte	W01
	.byte		        c_v-18
	.byte	W01
	.byte		        c_v-24
	.byte	W01
	.byte		        c_v-32
	.byte	W01
	.byte		        c_v-42
	.byte	W18
	.byte		        c_v+0
	.byte	W72
	.byte	GOTO
	 .word	seq_023_1 + 0x10C
	.byte	FINE

@*********************** Track 03 ***********************@

seq_023_2:
	.byte	KEYSH , seq_023_key+0
	.byte		VOICE , 65
	.byte		PAN   , c_v+0
	.byte	W96
	.byte	W96
	.byte	W96
	.byte	W96
	.byte	W96
	.byte	W96
	.byte		VOL   , 70*seq_023_mvl/mxv
	.byte		BENDR , 4
	.byte	PRIO  , 0
	.byte	W96
	.byte	W96
	.byte	W36
	.byte		N06   , Gn3 , v100
	.byte	W24
	.byte		N06
	.byte	W24
	.byte		N06
	.byte	W12
	.byte	W96
	.byte	W12
	.byte		N06   , Gn3 , v100
	.byte	W24
	.byte		N06
	.byte	W24
	.byte		N06
	.byte	W24
	.byte		N06
	.byte	W12
	.byte	PEND
	.byte		VOICE , 102
	.byte		N96   , As3 , v052
	.byte	W07
	.byte		VOL   , 61*seq_023_mvl/mxv
	.byte	W07
	.byte		        47*seq_023_mvl/mxv
	.byte	W07
	.byte		        35*seq_023_mvl/mxv
	.byte	W07
	.byte		        25*seq_023_mvl/mxv
	.byte	W07
	.byte		        19*seq_023_mvl/mxv
	.byte	W08
	.byte		        16*seq_023_mvl/mxv
	.byte	W12
	.byte		        38*seq_023_mvl/mxv
	.byte	W07
	.byte		        58*seq_023_mvl/mxv
	.byte	W07
	.byte		        74*seq_023_mvl/mxv
	.byte	W07
	.byte		        85*seq_023_mvl/mxv
	.byte	W07
	.byte		        94*seq_023_mvl/mxv
	.byte	W08
	.byte		        98*seq_023_mvl/mxv
	.byte	W05
	.byte		VOICE , 65
	.byte		VOL   , 70*seq_023_mvl/mxv
	.byte	W12
	.byte		N06   , Gn3 , v100
	.byte	W24
	.byte		N06
	.byte	W24
	.byte		N06
	.byte	W24
	.byte		N06
	.byte	W12
	.byte	W96
	.byte	PATT
	 .word	seq_023_2 + 0x1E
	.byte	W96
	.byte	PATT
	 .word	seq_023_2 + 0x1E
	.byte	W96
	.byte	W96
	.byte		VOL   , 100*seq_023_mvl/mxv
	.byte		N07   , Cn3 , v112
	.byte	W12
	.byte		        Gn2 
	.byte	W12
	.byte		N12   , As2 
	.byte	W12
	.byte		N06   , Dn3 
	.byte	W06
	.byte		N07   , Cn3 
	.byte	W11
	.byte		N06
	.byte	W06
	.byte		N08   , Gn2 
	.byte	W12
	.byte		BEND  , c_v-36
	.byte		N13   , As2 
	.byte	W02
	.byte		BEND  , c_v-20
	.byte	W02
	.byte		        c_v-9
	.byte	W03
	.byte		        c_v-2
	.byte	W02
	.byte		        c_v+0
	.byte	W04
	.byte		N07   , Dn3 
	.byte	W12
	.byte		VOL   , 70*seq_023_mvl/mxv
	.byte	W36
	.byte		N06   , Gn3 , v100
	.byte	W24
	.byte		N06
	.byte	W24
	.byte		N06
	.byte	W12
	.byte	W96
	.byte	PATT
	 .word	seq_023_2 + 0x1E
	.byte		VOICE , 102
	.byte		N06   , Cn4 , v052
	.byte	W12
	.byte		        Gn3 
	.byte	W12
	.byte		N12   , As3 
	.byte	W12
	.byte		N06   , An3 
	.byte	W06
	.byte		        Gn3 
	.byte	W12
	.byte		        Cn4 
	.byte	W12
	.byte		        Gn3 
	.byte	W06
	.byte		N12   , As3 
	.byte	W12
	.byte		N06   , Gn3 
	.byte	W12
	.byte		VOICE , 65
	.byte	W12
	.byte		N06   , Gn3 , v100
	.byte	W24
	.byte		N06
	.byte	W24
	.byte		N06
	.byte	W24
	.byte		N06
	.byte	W12
	.byte	W96
	.byte	W12
	.byte		N06
	.byte	W24
	.byte		N06
	.byte	W24
	.byte		N06
	.byte	W24
	.byte		VOICE , 102
	.byte		N06   , As3 , v060
	.byte	W12
	.byte		N08   , Cn4 
	.byte	W42
	.byte		N18   , As3 
	.byte	W18
	.byte		N06   , Bn3 
	.byte	W12
	.byte		N12   , Cn4 
	.byte	W12
	.byte		N02   , Gn3 , v056
	.byte	W02
	.byte		N01   , En3 , v048
	.byte	W01
	.byte		        Cn3 , v036
	.byte	W09
	.byte		VOICE , 81
	.byte		BENDR , 24
	.byte	W96
	.byte	W48
	.byte		VOL   , 100*seq_023_mvl/mxv
	.byte		BEND  , c_v-64
	.byte		N01   , As3 , v127
	.byte	W03
	.byte		BEND  , c_v-64
	.byte		N01
	.byte	W03
	.byte		N01
	.byte	W01
	.byte		BEND  , c_v-64
	.byte	W02
	.byte		N01
	.byte	W01
	.byte		BEND  , c_v-64
	.byte	W02
	.byte		N01
	.byte	W02
	.byte		BEND  , c_v-63
	.byte	W01
	.byte		N01
	.byte	W02
	.byte		BEND  , c_v-62
	.byte	W01
	.byte		N01
	.byte	W03
	.byte		BEND  , c_v-61
	.byte		N01
	.byte	W03
	.byte		N01
	.byte	W01
	.byte		BEND  , c_v-60
	.byte	W02
	.byte		N01
	.byte	W01
	.byte		BEND  , c_v-59
	.byte	W02
	.byte		N01
	.byte	W02
	.byte		BEND  , c_v-57
	.byte	W01
	.byte		N01
	.byte	W02
	.byte		BEND  , c_v-56
	.byte	W01
	.byte		N01
	.byte	W03
	.byte		BEND  , c_v-54
	.byte		N01
	.byte	W03
	.byte		BEND  , c_v-52
	.byte		N01
	.byte	W03
	.byte		N01
	.byte	W01
	.byte		BEND  , c_v-50
	.byte	W02
	.byte		N01
	.byte	W01
	.byte		BEND  , c_v-47
	.byte	W02
	.byte		N01
	.byte	W02
	.byte		BEND  , c_v-45
	.byte	W01
	.byte		N01
	.byte	W03
	.byte		BEND  , c_v-42
	.byte		N01
	.byte	W03
	.byte		BEND  , c_v-39
	.byte		N01
	.byte	W03
	.byte		N01
	.byte	W01
	.byte		BEND  , c_v-36
	.byte	W02
	.byte		N01
	.byte	W01
	.byte		BEND  , c_v-33
	.byte	W02
	.byte		N01
	.byte	W02
	.byte		BEND  , c_v-29
	.byte	W01
	.byte		N01
	.byte	W02
	.byte		BEND  , c_v-25
	.byte	W01
	.byte		N01
	.byte	W03
	.byte		BEND  , c_v-22
	.byte		N01
	.byte	W03
	.byte		N01
	.byte	W01
	.byte		BEND  , c_v-18
	.byte	W02
	.byte		N01   , As3 , v124
	.byte	W01
	.byte		BEND  , c_v-14
	.byte	W02
	.byte		N01   , As3 , v116
	.byte	W02
	.byte		BEND  , c_v-9
	.byte	W01
	.byte		N01   , As3 , v104
	.byte	W02
	.byte		BEND  , c_v-5
	.byte	W01
	.byte		N01   , As3 , v084
	.byte	W03
	.byte		BEND  , c_v+0
	.byte	W48
	.byte		VOL   , 78*seq_023_mvl/mxv
	.byte	W96
	.byte	W96
	.byte		VOICE , 65
	.byte		BENDR , 2
	.byte	W36
	.byte		N09   , An3 , v100
	.byte	W12
	.byte		BEND  , c_v-34
	.byte		N18   , Fn4 
	.byte	W02
	.byte		BEND  , c_v-23
	.byte	W02
	.byte		        c_v-13
	.byte	W03
	.byte		        c_v-6
	.byte	W02
	.byte		        c_v-2
	.byte	W02
	.byte		        c_v-1
	.byte	W01
	.byte		        c_v+0
	.byte	W06
	.byte		N09   , En4 
	.byte	W18
	.byte		N06   , Dn4 
	.byte	W12
	.byte		BEND  , c_v-34
	.byte		N18   , En4 
	.byte	W02
	.byte		BEND  , c_v-22
	.byte	W02
	.byte		        c_v-13
	.byte	W03
	.byte		        c_v-6
	.byte	W02
	.byte		        c_v-2
	.byte	W02
	.byte		        c_v-1
	.byte	W01
	.byte		        c_v+0
	.byte	W06
	.byte		N12   , Cn4 
	.byte	W54
	.byte		VOICE , 101
	.byte	W12
	.byte		N06   , En4 , v052
	.byte	W12
	.byte	W12
	.byte		N06   , Cn4 , v052
	.byte	W24
	.byte		N06
	.byte	W24
	.byte		N06
	.byte	W24
	.byte		N06
	.byte	W12
	.byte	PEND
	.byte	W96
	.byte		VOICE , 65
	.byte	W36
	.byte		N09   , An3 , v100
	.byte	W12
	.byte		BEND  , c_v-36
	.byte		N18   , Fn4 
	.byte	W02
	.byte		BEND  , c_v-24
	.byte	W02
	.byte		        c_v-14
	.byte	W03
	.byte		        c_v-6
	.byte	W02
	.byte		        c_v-2
	.byte	W02
	.byte		        c_v-1
	.byte	W01
	.byte		        c_v+0
	.byte	W06
	.byte		N09   , En4 
	.byte	W18
	.byte		N06   , Dn4 
	.byte	W12
	.byte		BEND  , c_v-36
	.byte		N18   , En4 
	.byte	W02
	.byte		BEND  , c_v-24
	.byte	W02
	.byte		        c_v-14
	.byte	W03
	.byte		        c_v-6
	.byte	W02
	.byte		        c_v-2
	.byte	W02
	.byte		        c_v-1
	.byte	W01
	.byte		        c_v+0
	.byte	W06
	.byte		N12   , Gn4 
	.byte	W54
	.byte		VOICE , 101
	.byte	W12
	.byte		N06   , En4 , v052
	.byte	W12
	.byte	PATT
	 .word	seq_023_2 + 0x1C9
	.byte	W96
	.byte		VOICE , 65
	.byte	W36
	.byte		N07   , Fn3 , v100
	.byte	W12
	.byte		N18   , Gs3 
	.byte	W18
	.byte		N14   , Cn4 
	.byte	W18
	.byte		BEND  , c_v-20
	.byte		N08   , Dn4 
	.byte	W02
	.byte		BEND  , c_v-8
	.byte	W01
	.byte		        c_v+0
	.byte	W09
	.byte		N18   , Cn4 
	.byte	W18
	.byte		N06   , Gn3 
	.byte	W15
	.byte		N03   , Dn4 , v044
	.byte	W03
	.byte		BEND  , c_v-36
	.byte		N96   , En4 , v100
	.byte	W02
	.byte		BEND  , c_v-30
	.byte	W02
	.byte		        c_v-24
	.byte	W03
	.byte		        c_v-18
	.byte	W02
	.byte		        c_v-14
	.byte	W02
	.byte		        c_v-10
	.byte	W03
	.byte		        c_v-6
	.byte	W02
	.byte		        c_v-4
	.byte	W03
	.byte		        c_v-2
	.byte	W02
	.byte		        c_v-1
	.byte	W02
	.byte		        c_v-1
	.byte	W01
	.byte		        c_v+0
	.byte	W36
	.byte	W15
	.byte		VOL   , 76*seq_023_mvl/mxv
	.byte	W04
	.byte		        71*seq_023_mvl/mxv
	.byte	W03
	.byte		        62*seq_023_mvl/mxv
	.byte	W04
	.byte		        50*seq_023_mvl/mxv
	.byte	W03
	.byte		        34*seq_023_mvl/mxv
	.byte	W04
	.byte		        15*seq_023_mvl/mxv
	.byte	W03
	.byte		        78*seq_023_mvl/mxv
	.byte		N24   , Cn4 
	.byte	W24
	.byte		N12   , Bn3 
	.byte	W12
	.byte		N08   , Cn4 
	.byte	W12
	.byte		BEND  , c_v-20
	.byte		N08   , En4 
	.byte	W02
	.byte		BEND  , c_v-8
	.byte	W01
	.byte		        c_v+0
	.byte	W09
	.byte		N18   , Dn4 
	.byte	W18
	.byte		N06   , An3 
	.byte	W18
	.byte		BEND  , c_v-36
	.byte		TIE   , Fs4 
	.byte	W02
	.byte		BEND  , c_v-30
	.byte	W02
	.byte		        c_v-24
	.byte	W03
	.byte		        c_v-18
	.byte	W02
	.byte		        c_v-14
	.byte	W02
	.byte		        c_v-10
	.byte	W03
	.byte		        c_v-6
	.byte	W02
	.byte		        c_v-4
	.byte	W03
	.byte		        c_v-2
	.byte	W02
	.byte		        c_v-1
	.byte	W02
	.byte		        c_v-1
	.byte	W01
	.byte		        c_v+0
	.byte	W36
	.byte	W36
	.byte	W03
	.byte		VOL   , 76*seq_023_mvl/mxv
	.byte	W04
	.byte		        71*seq_023_mvl/mxv
	.byte	W03
	.byte		        62*seq_023_mvl/mxv
	.byte	W04
	.byte		        50*seq_023_mvl/mxv
	.byte	W03
	.byte		        34*seq_023_mvl/mxv
	.byte	W04
	.byte		        14*seq_023_mvl/mxv
	.byte	W03
	.byte		EOT
	.byte		VOL   , 78*seq_023_mvl/mxv
	.byte		N36   , Cn4 
	.byte	W36
	.byte		BEND  , c_v-36
	.byte		N36   , En4 
	.byte	W02
	.byte		BEND  , c_v-30
	.byte	W02
	.byte		        c_v-24
	.byte	W03
	.byte		        c_v-18
	.byte	W02
	.byte		        c_v-14
	.byte	W02
	.byte		        c_v-10
	.byte	W03
	.byte		        c_v-6
	.byte	W02
	.byte		        c_v-4
	.byte	W03
	.byte		        c_v-2
	.byte	W02
	.byte		        c_v-1
	.byte	W02
	.byte		        c_v-1
	.byte	W01
	.byte		        c_v+0
	.byte	W12
	.byte		N60   , Dn4 
	.byte	W60
	.byte		N12   , Cn4 
	.byte	W24
	.byte		BEND  , c_v-36
	.byte		N78   , Dn4 
	.byte	W02
	.byte		BEND  , c_v-30
	.byte	W02
	.byte		        c_v-24
	.byte	W03
	.byte		        c_v-18
	.byte	W02
	.byte		        c_v-14
	.byte	W02
	.byte		        c_v-10
	.byte	W03
	.byte		        c_v-6
	.byte	W02
	.byte		        c_v-4
	.byte	W03
	.byte		        c_v-2
	.byte	W02
	.byte		        c_v-1
	.byte	W02
	.byte		        c_v-1
	.byte	W01
	.byte		        c_v+0
	.byte	W44
	.byte	W03
	.byte		        c_v-4
	.byte	W01
	.byte		        c_v-6
	.byte	W01
	.byte		        c_v-10
	.byte	W01
	.byte		        c_v-12
	.byte	W01
	.byte		        c_v-18
	.byte	W01
	.byte		        c_v-24
	.byte	W01
	.byte		        c_v-32
	.byte	W01
	.byte		        c_v-42
	.byte	W18
	.byte		        c_v+0
	.byte	W72
	.byte	GOTO
	 .word	seq_023_2 + 0xB
	.byte	FINE

@*********************** Track 04 ***********************@

seq_023_3:
	.byte	KEYSH , seq_023_key+0
	.byte		VOICE , 38
	.byte		PAN   , c_v+0
	.byte		VOL   , 100*seq_023_mvl/mxv
	.byte	W96
	.byte	W96
	.byte	W96
	.byte	W96
	.byte		N06   , Cn1 , v127
	.byte	W12
	.byte		        Gn0 
	.byte	W12
	.byte		        As0 
	.byte	W12
	.byte		        An0 
	.byte	W06
	.byte		        Gn0 
	.byte	W12
	.byte		        Cn1 
	.byte	W12
	.byte		        Gn0 
	.byte	W06
	.byte		        As0 
	.byte	W12
	.byte		        Gn0 
	.byte	W12
	.byte	PEND
	.byte	PATT
	 .word	seq_023_3 + 0xC
	.byte	PATT
	 .word	seq_023_3 + 0xC
	.byte	PATT
	 .word	seq_023_3 + 0xC
	.byte	PATT
	 .word	seq_023_3 + 0xC
	.byte	PATT
	 .word	seq_023_3 + 0xC
	.byte	PATT
	 .word	seq_023_3 + 0xC
	.byte	PATT
	 .word	seq_023_3 + 0xC
	.byte	PATT
	 .word	seq_023_3 + 0xC
	.byte	PATT
	 .word	seq_023_3 + 0xC
	.byte	PATT
	 .word	seq_023_3 + 0xC
	.byte	PATT
	 .word	seq_023_3 + 0xC
	.byte	PATT
	 .word	seq_023_3 + 0xC
	.byte	PATT
	 .word	seq_023_3 + 0xC
	.byte	PATT
	 .word	seq_023_3 + 0xC
	.byte	PATT
	 .word	seq_023_3 + 0xC
	.byte	PATT
	 .word	seq_023_3 + 0xC
	.byte	PATT
	 .word	seq_023_3 + 0xC
	.byte	PATT
	 .word	seq_023_3 + 0xC
	.byte	PATT
	 .word	seq_023_3 + 0xC
	.byte	PATT
	 .word	seq_023_3 + 0xC
	.byte	PATT
	 .word	seq_023_3 + 0xC
	.byte	PATT
	 .word	seq_023_3 + 0xC
	.byte	PATT
	 .word	seq_023_3 + 0xC
	.byte	PATT
	 .word	seq_023_3 + 0xC
	.byte	PATT
	 .word	seq_023_3 + 0xC
	.byte	PATT
	 .word	seq_023_3 + 0xC
	.byte	PATT
	 .word	seq_023_3 + 0xC
	.byte		N06   , An0 , v127
	.byte	W12
	.byte		        Fn0 
	.byte	W12
	.byte		        Gn0 
	.byte	W12
	.byte		        Fs0 
	.byte	W06
	.byte		        Fn0 
	.byte	W12
	.byte		        An0 
	.byte	W12
	.byte		        Fn0 
	.byte	W06
	.byte		        Gn0 
	.byte	W12
	.byte		        Fn0 
	.byte	W12
	.byte	PEND
	.byte		N06   , An0 , v127
	.byte	W12
	.byte		        Fn0 
	.byte	W12
	.byte		        Gn0 
	.byte	W12
	.byte		        Fs0 
	.byte	W06
	.byte		        Fn0 
	.byte	W12
	.byte		        An0 
	.byte	W12
	.byte		        Fn0 
	.byte	W06
	.byte		        Gn0 
	.byte	W12
	.byte		        As0 
	.byte	W12
	.byte	PEND
	.byte	PATT
	 .word	seq_023_3 + 0xC
	.byte	PATT
	 .word	seq_023_3 + 0xC
	.byte	PATT
	 .word	seq_023_3 + 0xA8
	.byte	PATT
	 .word	seq_023_3 + 0xBD
	.byte	PATT
	 .word	seq_023_3 + 0xC
	.byte		N06   , Cn1 , v127
	.byte	W12
	.byte		        Gn0 
	.byte	W12
	.byte		        As0 
	.byte	W12
	.byte		        An0 
	.byte	W06
	.byte		        Gn0 
	.byte	W12
	.byte		        Cn1 
	.byte	W12
	.byte		        Gn0 
	.byte	W06
	.byte		        As0 
	.byte	W12
	.byte		        An0 
	.byte	W12
	.byte		        Gs0 
	.byte	W12
	.byte		        Fn0 
	.byte	W12
	.byte		        Gs0 
	.byte	W12
	.byte		        Gn0 
	.byte	W06
	.byte		        Fn0 
	.byte	W12
	.byte		        Gs0 
	.byte	W12
	.byte		        Fn0 
	.byte	W06
	.byte		        Gn0 
	.byte	W12
	.byte		        Fn0 
	.byte	W12
	.byte		        Gs0 
	.byte	W12
	.byte		        Fn0 
	.byte	W12
	.byte		        Gs0 
	.byte	W12
	.byte		        Gn0 
	.byte	W06
	.byte		        Fn0 
	.byte	W12
	.byte		        Gs0 
	.byte	W12
	.byte		        Fn0 
	.byte	W06
	.byte		        Gs0 
	.byte	W12
	.byte		        As0 
	.byte	W12
	.byte	PATT
	 .word	seq_023_3 + 0xC
	.byte		N06   , Cn1 , v127
	.byte	W12
	.byte		        Gn0 
	.byte	W12
	.byte		        As0 
	.byte	W12
	.byte		        An0 
	.byte	W06
	.byte		        Gn0 
	.byte	W12
	.byte		        Cn1 
	.byte	W12
	.byte		        Gn0 
	.byte	W06
	.byte		        Cn1 
	.byte	W12
	.byte		        Cs1 
	.byte	W12
	.byte		N06   , Dn1 , v127
	.byte	W12
	.byte		        An0 
	.byte	W12
	.byte		        Cn1 
	.byte	W12
	.byte		        Bn0 
	.byte	W06
	.byte		        An0 
	.byte	W12
	.byte		        Dn1 
	.byte	W12
	.byte		        An0 
	.byte	W06
	.byte		        Cn1 
	.byte	W12
	.byte		        An0 
	.byte	W12
	.byte	PEND
	.byte	PATT
	 .word	seq_023_3 + 0x13C
	.byte		N06   , Bn0 , v127
	.byte	W12
	.byte		        Gn0 
	.byte	W12
	.byte		        An0 
	.byte	W12
	.byte		        Gs0 
	.byte	W06
	.byte		        Gn0 
	.byte	W12
	.byte		        Bn0 
	.byte	W12
	.byte		        Gn0 
	.byte	W06
	.byte		        An0 
	.byte	W12
	.byte		        Gn0 
	.byte	W12
	.byte		        Bn0 
	.byte	W96
	.byte	PATT
	 .word	seq_023_3 + 0xC
	.byte	GOTO
	 .word	seq_023_3 + 0x21
	.byte	FINE

@*********************** Track 05 ***********************@

seq_023_4:
	.byte	KEYSH , seq_023_key+0
	.byte		VOL   , 78*seq_023_mvl/mxv
	.byte		PAN   , c_v+0
	.byte	W96
	.byte	W96
	.byte	W96
	.byte	W96
	.byte	W96
	.byte	W96
	.byte	W96
	.byte	W96
	.byte	W96
	.byte	W96
	.byte	W96
	.byte	W96
	.byte	W96
	.byte	W96
	.byte	W96
	.byte	W96
	.byte	W96
	.byte	W96
	.byte	W96
	.byte	W96
	.byte	W96
	.byte	W96
	.byte	W96
	.byte	W96
	.byte	W96
	.byte	W96
	.byte	W96
	.byte	W96
	.byte		VOICE , 125
	.byte	W24
	.byte		N24   , Cn4 , v064
	.byte	W72
	.byte	W24
	.byte		N11
	.byte	W12
	.byte		N05
	.byte	W06
	.byte		N05
	.byte	W54
	.byte	W24
	.byte		N24
	.byte	W72
	.byte	W24
	.byte		N11
	.byte	W12
	.byte		N05
	.byte	W06
	.byte		N05
	.byte	W12
	.byte		N06   , Cn4 , v072
	.byte	W12
	.byte		        Cn4 , v052
	.byte	W12
	.byte		        Cn4 , v068
	.byte	W12
	.byte		        Cn4 , v052
	.byte	W06
	.byte		VOICE , 48
	.byte		TIE   , An4 , v060
	.byte	W96
	.byte	W36
	.byte	W02
	.byte		VOL   , 75*seq_023_mvl/mxv
	.byte	W07
	.byte		        72*seq_023_mvl/mxv
	.byte	W07
	.byte		        68*seq_023_mvl/mxv
	.byte	W07
	.byte		        62*seq_023_mvl/mxv
	.byte	W07
	.byte		        55*seq_023_mvl/mxv
	.byte	W06
	.byte	PEND
	.byte		EOT   , An4 
	.byte		VOL   , 50*seq_023_mvl/mxv
	.byte		N24   , Gs4 , v060
	.byte	W03
	.byte		VOL   , 64*seq_023_mvl/mxv
	.byte	W04
	.byte		        74*seq_023_mvl/mxv
	.byte	W05
	.byte		        78*seq_023_mvl/mxv
	.byte	W12
	.byte		N36   , Gn4 , v064
	.byte	W36
	.byte		TIE   , En4 , v072
	.byte	W60
	.byte	W54
	.byte	W01
	.byte		VOL   , 77*seq_023_mvl/mxv
	.byte	W07
	.byte		        73*seq_023_mvl/mxv
	.byte	W07
	.byte		        66*seq_023_mvl/mxv
	.byte	W07
	.byte		        59*seq_023_mvl/mxv
	.byte	W07
	.byte		        48*seq_023_mvl/mxv
	.byte	W08
	.byte		        33*seq_023_mvl/mxv
	.byte	W05
	.byte	PEND
	.byte		EOT   , En4 
	.byte		VOL   , 78*seq_023_mvl/mxv
	.byte		TIE   , An4 , v060
	.byte	W96
	.byte	PATT
	 .word	seq_023_4 + 0x4D
	.byte		EOT   , An4 
	.byte		VOL   , 50*seq_023_mvl/mxv
	.byte		N24   , Gs4 , v064
	.byte	W03
	.byte		VOL   , 64*seq_023_mvl/mxv
	.byte	W04
	.byte		        74*seq_023_mvl/mxv
	.byte	W05
	.byte		        78*seq_023_mvl/mxv
	.byte	W12
	.byte		N36   , Gn4 , v072
	.byte	W36
	.byte		TIE   , Cn5 , v060
	.byte	W60
	.byte	PATT
	 .word	seq_023_4 + 0x72
	.byte		EOT   , Cn5 
	.byte		VOL   , 78*seq_023_mvl/mxv
	.byte		TIE   , Gs4 , v072
	.byte	W96
	.byte	W07
	.byte		VOL   , 77*seq_023_mvl/mxv
	.byte	W07
	.byte		        73*seq_023_mvl/mxv
	.byte	W07
	.byte		        66*seq_023_mvl/mxv
	.byte	W07
	.byte		        59*seq_023_mvl/mxv
	.byte	W07
	.byte		        48*seq_023_mvl/mxv
	.byte	W08
	.byte		        33*seq_023_mvl/mxv
	.byte	W05
	.byte		EOT
	.byte		VOL   , 78*seq_023_mvl/mxv
	.byte		N16
	.byte	W16
	.byte		        Fn4 
	.byte	W16
	.byte		        Gs4 
	.byte	W16
	.byte		N84   , Gn4 
	.byte	W84
	.byte		N04   , Gn4 , v064
	.byte	W04
	.byte		        An4 
	.byte	W04
	.byte		        Bn4 
	.byte	W04
	.byte		N72   , Cn5 
	.byte	W30
	.byte	W01
	.byte		VOL   , 77*seq_023_mvl/mxv
	.byte	W07
	.byte		        73*seq_023_mvl/mxv
	.byte	W07
	.byte		        66*seq_023_mvl/mxv
	.byte	W07
	.byte		        59*seq_023_mvl/mxv
	.byte	W07
	.byte		        48*seq_023_mvl/mxv
	.byte	W08
	.byte		        33*seq_023_mvl/mxv
	.byte	W05
	.byte		        78*seq_023_mvl/mxv
	.byte		N24   , Gn4 , v072
	.byte	W24
	.byte		N96   , An4 
	.byte	W96
	.byte		N48   , Dn4 , v076
	.byte	W48
	.byte		N16   , An4 , v072
	.byte	W16
	.byte		        Fs4 
	.byte	W16
	.byte		        An4 
	.byte	W16
	.byte		N96   , Gn4 
	.byte	W96
	.byte	PRIO  , 0
	.byte		N11
	.byte	W24
	.byte		N84   , As4 
	.byte	W42
	.byte	W01
	.byte		VOL   , 76*seq_023_mvl/mxv
	.byte	W07
	.byte		        71*seq_023_mvl/mxv
	.byte	W07
	.byte		        63*seq_023_mvl/mxv
	.byte	W07
	.byte		        52*seq_023_mvl/mxv
	.byte	W07
	.byte		        38*seq_023_mvl/mxv
	.byte	W01
	.byte	W07
	.byte		        21*seq_023_mvl/mxv
	.byte	W05
	.byte		        7*seq_023_mvl/mxv
	.byte	W36
	.byte		        78*seq_023_mvl/mxv
	.byte	W48
	.byte	GOTO
	 .word	seq_023_4 + 0xB
	.byte	FINE

@*********************** Track 06 ***********************@

seq_023_5:
	.byte	KEYSH , seq_023_key+0
	.byte		VOICE , 123
	.byte		PAN   , c_v+0
	.byte		VOL   , 78*seq_023_mvl/mxv
	.byte		N02   , Cn3 , v100
	.byte	W06
	.byte		        Cn4 
	.byte	W06
	.byte		        Cn3 
	.byte	W06
	.byte		        Gn3 
	.byte	W06
	.byte		        En3 
	.byte	W06
	.byte		        Cn4 
	.byte	W06
	.byte		        Cn3 
	.byte	W06
	.byte		        Gn3 
	.byte	W06
	.byte		        Cn4 
	.byte	W06
	.byte		        Gn3 
	.byte	W06
	.byte		        En3 
	.byte	W06
	.byte		        Cn4 
	.byte	W06
	.byte		        En3 
	.byte	W06
	.byte		        Cn4 
	.byte	W06
	.byte		        Cn3 
	.byte	W06
	.byte		        Gn3 
	.byte	W06
	.byte		N02   , Cn4 , v100
	.byte	W06
	.byte		        En3 
	.byte	W06
	.byte		        Cn3 
	.byte	W06
	.byte		        Gn3 
	.byte	W06
	.byte		        Cn4 
	.byte	W06
	.byte		        Cn3 
	.byte	W06
	.byte		        Cn4 
	.byte	W06
	.byte		        Gn3 
	.byte	W06
	.byte		        En3 
	.byte	W06
	.byte		        Cn4 
	.byte	W06
	.byte		        En3 
	.byte	W06
	.byte		        Gn3 
	.byte	W06
	.byte		        Cn4 
	.byte	W06
	.byte		        Cn3 
	.byte	W06
	.byte		        Gn3 
	.byte	W06
	.byte		        En3 
	.byte	W06
	.byte	PEND
	.byte		N02   , Cn3 , v100
	.byte	W06
	.byte		        Cn4 
	.byte	W06
	.byte		        Cn3 
	.byte	W06
	.byte		        Gn3 
	.byte	W06
	.byte		        En3 
	.byte	W06
	.byte		        Cn4 
	.byte	W06
	.byte		        Cn3 
	.byte	W06
	.byte		        Gn3 
	.byte	W06
	.byte		        Cn4 
	.byte	W06
	.byte		        Gn3 
	.byte	W06
	.byte		        En3 
	.byte	W06
	.byte		        Cn4 
	.byte	W06
	.byte		        En3 
	.byte	W06
	.byte		        Cn4 
	.byte	W06
	.byte		        Cn3 
	.byte	W06
	.byte		        Gn3 
	.byte	W06
	.byte	PEND
	.byte	PATT
	 .word	seq_023_5 + 0x2A
	.byte	PATT
	 .word	seq_023_5 + 0x4D
	.byte	PATT
	 .word	seq_023_5 + 0x2A
	.byte	PATT
	 .word	seq_023_5 + 0x4D
	.byte	PATT
	 .word	seq_023_5 + 0x2A
	.byte	PATT
	 .word	seq_023_5 + 0x4D
	.byte	PATT
	 .word	seq_023_5 + 0x2A
	.byte	PATT
	 .word	seq_023_5 + 0x4D
	.byte	PATT
	 .word	seq_023_5 + 0x2A
	.byte	PATT
	 .word	seq_023_5 + 0x4D
	.byte	PATT
	 .word	seq_023_5 + 0x2A
	.byte	PATT
	 .word	seq_023_5 + 0x4D
	.byte	PATT
	 .word	seq_023_5 + 0x2A
	.byte	PATT
	 .word	seq_023_5 + 0x4D
	.byte	PATT
	 .word	seq_023_5 + 0x2A
	.byte	PATT
	 .word	seq_023_5 + 0x4D
	.byte	PATT
	 .word	seq_023_5 + 0x2A
	.byte	PATT
	 .word	seq_023_5 + 0x4D
	.byte	PATT
	 .word	seq_023_5 + 0x2A
	.byte	PATT
	 .word	seq_023_5 + 0x4D
	.byte	PATT
	 .word	seq_023_5 + 0x2A
	.byte	PATT
	 .word	seq_023_5 + 0x4D
	.byte	PATT
	 .word	seq_023_5 + 0x2A
	.byte	PATT
	 .word	seq_023_5 + 0x4D
	.byte	PATT
	 .word	seq_023_5 + 0x2A
	.byte	PATT
	 .word	seq_023_5 + 0x4D
	.byte	PATT
	 .word	seq_023_5 + 0x2A
	.byte	PATT
	 .word	seq_023_5 + 0x4D
	.byte	PATT
	 .word	seq_023_5 + 0x2A
	.byte		N02   , Cn3 , v100
	.byte	W06
	.byte		        Cn4 
	.byte	W06
	.byte		        Cn3 
	.byte	W06
	.byte		        An3 
	.byte	W06
	.byte		        Fn3 
	.byte	W06
	.byte		        Cn4 
	.byte	W06
	.byte		        Cn3 
	.byte	W06
	.byte		        An3 
	.byte	W06
	.byte		        Cn4 
	.byte	W06
	.byte		        An3 
	.byte	W06
	.byte		        Fn3 
	.byte	W06
	.byte		        Cn4 
	.byte	W06
	.byte		        Fn3 
	.byte	W06
	.byte		        Cn4 
	.byte	W06
	.byte		        Cn3 
	.byte	W06
	.byte		        An3 
	.byte	W06
	.byte	PEND
	.byte		N02   , Cn4 , v100
	.byte	W06
	.byte		        Fn3 
	.byte	W06
	.byte		        Cn3 
	.byte	W06
	.byte		        An3 
	.byte	W06
	.byte		        Cn4 
	.byte	W06
	.byte		        Cn3 
	.byte	W06
	.byte		        Cn4 
	.byte	W06
	.byte		        An3 
	.byte	W06
	.byte		        Fn3 
	.byte	W06
	.byte		        Cn4 
	.byte	W06
	.byte		        Fn3 
	.byte	W06
	.byte		        An3 
	.byte	W06
	.byte		        Cn4 
	.byte	W06
	.byte		        Cn3 
	.byte	W06
	.byte		        An3 
	.byte	W06
	.byte		        Fn3 
	.byte	W06
	.byte	PEND
	.byte	PATT
	 .word	seq_023_5 + 0x4D
	.byte	PATT
	 .word	seq_023_5 + 0x2A
	.byte	PATT
	 .word	seq_023_5 + 0x101
	.byte	PATT
	 .word	seq_023_5 + 0x124
	.byte	PATT
	 .word	seq_023_5 + 0x4D
	.byte	PATT
	 .word	seq_023_5 + 0x2A
	.byte		N02   , Cn3 , v100
	.byte	W06
	.byte		        Cn4 
	.byte	W06
	.byte		        Cn3 
	.byte	W06
	.byte		        Gs3 
	.byte	W06
	.byte		        Fn3 
	.byte	W06
	.byte		        Cn4 
	.byte	W06
	.byte		        Cn3 
	.byte	W06
	.byte		        Gs3 
	.byte	W06
	.byte		        Cn4 
	.byte	W06
	.byte		        Gs3 
	.byte	W06
	.byte		        Fn3 
	.byte	W06
	.byte		        Cn4 
	.byte	W06
	.byte		        Fn3 
	.byte	W06
	.byte		        Cn4 
	.byte	W06
	.byte		        Cn3 
	.byte	W06
	.byte		        Gs3 
	.byte	W06
	.byte		        Cn4 
	.byte	W06
	.byte		        Fn3 
	.byte	W06
	.byte		        Cn3 
	.byte	W06
	.byte		        Gs3 
	.byte	W06
	.byte		        Cn4 
	.byte	W06
	.byte		        Cn3 
	.byte	W06
	.byte		        Cn4 
	.byte	W06
	.byte		        Gs3 
	.byte	W06
	.byte		        Fn3 
	.byte	W06
	.byte		        Cn4 
	.byte	W06
	.byte		        Fn3 
	.byte	W06
	.byte		        Gs3 
	.byte	W06
	.byte		        Cn4 
	.byte	W06
	.byte		        Cn3 
	.byte	W06
	.byte		        Gs3 
	.byte	W06
	.byte		        Fn3 
	.byte	W06
	.byte	PATT
	 .word	seq_023_5 + 0x4D
	.byte	PATT
	 .word	seq_023_5 + 0x2A
	.byte		N02   , Cn3 , v100
	.byte	W06
	.byte		        Cn4 
	.byte	W06
	.byte		        Cn3 
	.byte	W06
	.byte		        An3 
	.byte	W06
	.byte		        Fs3 
	.byte	W06
	.byte		        Cn4 
	.byte	W06
	.byte		        Cn3 
	.byte	W06
	.byte		        An3 
	.byte	W06
	.byte		        Cn4 
	.byte	W06
	.byte		        An3 
	.byte	W06
	.byte		        Fs3 
	.byte	W06
	.byte		        Cn4 
	.byte	W06
	.byte		        Fs3 
	.byte	W06
	.byte		        Cn4 
	.byte	W06
	.byte		        Cn3 
	.byte	W06
	.byte		        An3 
	.byte	W06
	.byte		        Cn4 
	.byte	W06
	.byte		        Fs3 
	.byte	W06
	.byte		        Cn3 
	.byte	W06
	.byte		        An3 
	.byte	W06
	.byte		        Cn4 
	.byte	W06
	.byte		        Cn3 
	.byte	W06
	.byte		        Cn4 
	.byte	W06
	.byte		        An3 
	.byte	W06
	.byte		        Fs3 
	.byte	W06
	.byte		        Cn4 
	.byte	W06
	.byte		        Fs3 
	.byte	W06
	.byte		        An3 
	.byte	W06
	.byte		        Cn4 
	.byte	W06
	.byte		        Cn3 
	.byte	W06
	.byte		        An3 
	.byte	W06
	.byte		        Fs3 
	.byte	W06
	.byte	PATT
	 .word	seq_023_5 + 0x4D
	.byte	PATT
	 .word	seq_023_5 + 0x2A
	.byte	PATT
	 .word	seq_023_5 + 0x4D
	.byte	GOTO
	 .word	seq_023_5 + 0x7A
	.byte	FINE

@*********************** Track 07 ***********************@

seq_023_6:
	.byte	KEYSH , seq_023_key+0
	.byte		VOICE , 127
	.byte		VOL   , 100*seq_023_mvl/mxv
	.byte		PAN   , c_v+0
	.byte		N06   , DsM1, v112
	.byte		N02   , As3 , v080
	.byte	W06
	.byte		        As3 , v052
	.byte	W06
	.byte		        As3 , v060
	.byte	W06
	.byte		        As3 , v052
	.byte	W06
	.byte		        As3 , v080
	.byte	W06
	.byte		        As3 , v052
	.byte	W06
	.byte		N09   , As1 , v060
	.byte	W06
	.byte		N02   , As3 , v052
	.byte	W06
	.byte		N06   , DsM1, v112
	.byte		N02   , As3 , v080
	.byte	W06
	.byte		N09   , As1 , v072
	.byte	W06
	.byte		N02   , As3 , v060
	.byte	W06
	.byte		        As3 , v052
	.byte	W06
	.byte		        As3 , v080
	.byte	W06
	.byte		        As3 , v052
	.byte	W06
	.byte		        As3 , v060
	.byte	W06
	.byte		        As3 , v052
	.byte	W06
	.byte		N06   , DsM1, v112
	.byte		N02   , As3 , v080
	.byte	W06
	.byte		        As3 , v052
	.byte	W06
	.byte		        As3 , v060
	.byte	W06
	.byte		        As3 , v052
	.byte	W06
	.byte		        As3 , v080
	.byte	W06
	.byte		        As3 , v052
	.byte	W06
	.byte		N09   , As1 , v060
	.byte	W06
	.byte		N02   , As3 , v052
	.byte	W06
	.byte		N06   , DsM1, v112
	.byte		N02   , As3 , v080
	.byte	W06
	.byte		N09   , As1 , v072
	.byte	W06
	.byte		N02   , As3 , v060
	.byte	W06
	.byte		        As3 , v052
	.byte	W06
	.byte		        As3 , v080
	.byte	W06
	.byte		        As3 , v052
	.byte	W06
	.byte		        As3 , v060
	.byte	W06
	.byte		N06   , As1 , v072
	.byte	W06
	.byte		        DsM1, v112
	.byte		N02   , As3 , v080
	.byte	W06
	.byte		        As3 , v052
	.byte	W06
	.byte		        As3 , v060
	.byte	W06
	.byte		        As3 , v052
	.byte	W06
	.byte		        As3 , v080
	.byte	W06
	.byte		        As3 , v052
	.byte	W06
	.byte		N09   , As1 , v060
	.byte	W06
	.byte		N02   , As3 , v052
	.byte	W06
	.byte		N06   , DsM1, v112
	.byte		N02   , As3 , v080
	.byte	W06
	.byte		N09   , As1 , v072
	.byte	W06
	.byte		N02   , As3 , v060
	.byte	W06
	.byte		        As3 , v052
	.byte	W06
	.byte		        As3 , v080
	.byte	W06
	.byte		        As3 , v052
	.byte	W06
	.byte		        As3 , v060
	.byte	W06
	.byte		        As3 , v052
	.byte	W06
	.byte		N06   , DsM1, v112
	.byte		N02   , As3 , v080
	.byte	W06
	.byte		        As3 , v052
	.byte	W06
	.byte		        As3 , v060
	.byte	W06
	.byte		        As3 , v052
	.byte	W06
	.byte		        As3 , v080
	.byte	W06
	.byte		        As3 , v052
	.byte	W06
	.byte		N09   , As1 , v060
	.byte	W06
	.byte		N02   , As3 , v052
	.byte	W06
	.byte		N06   , DsM1, v112
	.byte		N02   , As3 , v080
	.byte	W06
	.byte		N09   , As1 , v072
	.byte	W06
	.byte		N02   , As3 , v060
	.byte	W06
	.byte		N02
	.byte	W03
	.byte		        As3 , v052
	.byte	W03
	.byte		        As3 , v060
	.byte	W03
	.byte		        As3 , v052
	.byte	W03
	.byte		        As3 , v072
	.byte	W06
	.byte		        As3 , v060
	.byte	W06
	.byte		N06   , As1 , v072
	.byte	W06
	.byte		N06   , DsM1, v112
	.byte		N02   , As3 , v080
	.byte	W06
	.byte		        As3 , v052
	.byte	W06
	.byte		        As3 , v060
	.byte	W06
	.byte		        As3 , v052
	.byte	W06
	.byte		N06   , DsM1, v112
	.byte		N02   , As3 , v080
	.byte	W06
	.byte		        As3 , v052
	.byte	W06
	.byte		N09   , As1 , v060
	.byte	W06
	.byte		N02   , As3 , v052
	.byte	W06
	.byte		N06   , DsM1, v112
	.byte		N02   , As3 , v080
	.byte	W06
	.byte		N09   , As1 , v072
	.byte	W06
	.byte		N02   , As3 , v060
	.byte	W06
	.byte		        As3 , v052
	.byte	W06
	.byte		N06   , DsM1, v112
	.byte		N02   , As3 , v080
	.byte	W06
	.byte		        As3 , v052
	.byte	W06
	.byte		        As3 , v060
	.byte	W06
	.byte		        As3 , v052
	.byte	W06
	.byte	PEND
	.byte		N06   , DsM1, v112
	.byte		N02   , As3 , v080
	.byte	W06
	.byte		        As3 , v052
	.byte	W06
	.byte		        As3 , v060
	.byte	W06
	.byte		        As3 , v052
	.byte	W06
	.byte		N06   , DsM1, v112
	.byte		N02   , As3 , v080
	.byte	W06
	.byte		        As3 , v052
	.byte	W06
	.byte		N09   , As1 , v060
	.byte	W06
	.byte		N02   , As3 , v052
	.byte	W06
	.byte		N06   , DsM1, v112
	.byte		N02   , As3 , v080
	.byte	W06
	.byte		N09   , As1 , v072
	.byte	W06
	.byte		N02   , As3 , v060
	.byte	W06
	.byte		        As3 , v052
	.byte	W06
	.byte		N06   , DsM1, v112
	.byte		N02   , As3 , v080
	.byte	W06
	.byte		        As3 , v052
	.byte	W06
	.byte		        As3 , v060
	.byte	W06
	.byte		N06   , As1 , v072
	.byte	W06
	.byte	PATT
	 .word	seq_023_6 + 0xFE
	.byte		N06   , DsM1, v112
	.byte		N14   , As1 , v072
	.byte	W18
	.byte		        As1 , v060
	.byte	W18
	.byte		        As1 , v080
	.byte	W18
	.byte		        As1 , v048
	.byte	W18
	.byte		N24   , As1 , v064
	.byte	W24
	.byte	PRIO  , 0
	.byte		N06   , DsM1, v112
	.byte		N36   , An2 , v120
	.byte		N02   , As3 , v080
	.byte	W06
	.byte		        As3 , v052
	.byte	W06
	.byte		        As3 , v060
	.byte	W06
	.byte		        As3 , v052
	.byte	W06
	.byte		N06   , EnM1, v112
	.byte		N02   , As3 , v080
	.byte	W06
	.byte		        As3 , v052
	.byte		N06   , Cn8 , v040
	.byte	W06
	.byte		        As1 , v060
	.byte	W06
	.byte		N02   , As3 , v052
	.byte		N06   , Cn8 , v100
	.byte	W06
	.byte		        DsM1, v112
	.byte		N02   , As3 , v080
	.byte	W06
	.byte		N06   , Cn8 , v092
	.byte	W06
	.byte		N02   , As3 , v060
	.byte		N06   , Cn8 
	.byte	W06
	.byte		N02   , As3 , v052
	.byte	W06
	.byte		N06   , EnM1, v112
	.byte		N02   , As3 , v080
	.byte	W06
	.byte		        As3 , v052
	.byte		N06   , Cn8 , v040
	.byte	W06
	.byte		N02   , As3 , v060
	.byte	W06
	.byte		        As3 , v052
	.byte		N06   , Cn8 , v080
	.byte	W06
	.byte		N06   , DsM1, v112
	.byte		N02   , As3 , v080
	.byte	W06
	.byte		        As3 , v052
	.byte	W06
	.byte		        As3 , v060
	.byte	W06
	.byte		        As3 , v052
	.byte	W06
	.byte		N06   , EnM1, v112
	.byte		N02   , As3 , v080
	.byte	W06
	.byte		        As3 , v052
	.byte		N06   , Cn8 , v040
	.byte	W06
	.byte		        As1 , v060
	.byte	W06
	.byte		N02   , As3 , v052
	.byte		N06   , Cn8 , v100
	.byte	W06
	.byte		        DsM1, v112
	.byte		N02   , As3 , v080
	.byte	W06
	.byte		N06   , Cn8 , v092
	.byte	W06
	.byte		N02   , As3 , v060
	.byte		N06   , Cn8 
	.byte	W06
	.byte		N02   , As3 , v052
	.byte	W06
	.byte		N06   , EnM1, v112
	.byte		N02   , As3 , v080
	.byte	W06
	.byte		        As3 , v052
	.byte		N06   , Cn8 , v040
	.byte	W06
	.byte		N02   , As3 , v060
	.byte	W06
	.byte		N06   , As1 , v072
	.byte	W06
	.byte	PEND
	.byte		        DsM1, v112
	.byte		N02   , As3 , v080
	.byte	W06
	.byte		        As3 , v052
	.byte	W06
	.byte		        As3 , v060
	.byte	W06
	.byte		        As3 , v052
	.byte	W06
	.byte		N06   , EnM1, v112
	.byte		N02   , As3 , v080
	.byte	W06
	.byte		        As3 , v052
	.byte		N06   , Cn8 , v040
	.byte	W06
	.byte		        As1 , v060
	.byte	W06
	.byte		N02   , As3 , v052
	.byte		N06   , Cn8 , v100
	.byte	W06
	.byte		        DsM1, v112
	.byte		N02   , As3 , v080
	.byte	W06
	.byte		N06   , Cn8 , v092
	.byte	W06
	.byte		N02   , As3 , v060
	.byte		N06   , Cn8 
	.byte	W06
	.byte		N02   , As3 , v052
	.byte	W06
	.byte		N06   , EnM1, v112
	.byte		N02   , As3 , v080
	.byte	W06
	.byte		        As3 , v052
	.byte		N06   , Cn8 , v040
	.byte	W06
	.byte		N02   , As3 , v060
	.byte	W06
	.byte		        As3 , v052
	.byte		N06   , Cn8 , v080
	.byte	W06
	.byte		N06   , DsM1, v112
	.byte		N02   , As3 , v080
	.byte	W06
	.byte		        As3 , v052
	.byte	W06
	.byte		        As3 , v060
	.byte		N06   , Cn8 , v100
	.byte	W06
	.byte		N02   , As3 , v052
	.byte		N06   , Cn8 , v040
	.byte	W06
	.byte		        DsM1, v112
	.byte		N02   , As3 , v080
	.byte	W06
	.byte		        As3 , v052
	.byte	W06
	.byte		N06   , As1 , v060
	.byte	W06
	.byte		N02   , As3 , v052
	.byte	W06
	.byte		N06   , DsM1, v112
	.byte		N02   , As3 , v080
	.byte	W06
	.byte		N06   , As1 , v072
	.byte	W06
	.byte		N02   , As3 , v060
	.byte	W06
	.byte		N02
	.byte	W03
	.byte		        As3 , v052
	.byte	W03
	.byte		N06   , EnM1, v112
	.byte		N02   , As3 , v060
	.byte	W03
	.byte		        As3 , v052
	.byte	W03
	.byte		        As3 , v072
	.byte		N06   , Cn8 , v040
	.byte	W06
	.byte		N02   , As3 , v060
	.byte	W06
	.byte		N06   , As1 , v072
	.byte	W06
	.byte	PEND
	.byte		PAN   , c_v+0
	.byte		N06   , DsM1, v112
	.byte		N02   , As3 , v080
	.byte	W06
	.byte		        As3 , v052
	.byte	W06
	.byte		        As3 , v060
	.byte	W06
	.byte		        As3 , v052
	.byte	W06
	.byte		N06   , EnM1, v112
	.byte		N02   , As3 , v080
	.byte	W06
	.byte		        As3 , v052
	.byte		N06   , Cn8 , v040
	.byte	W06
	.byte		        As1 , v060
	.byte	W06
	.byte		N02   , As3 , v052
	.byte		N06   , Cn8 , v100
	.byte	W06
	.byte		        DsM1, v112
	.byte		N02   , As3 , v080
	.byte	W06
	.byte		N06   , Cn8 , v092
	.byte	W06
	.byte		N02   , As3 , v060
	.byte		N06   , Cn8 
	.byte	W06
	.byte		N02   , As3 , v052
	.byte	W06
	.byte		N06   , EnM1, v112
	.byte		N02   , As3 , v080
	.byte	W06
	.byte		        As3 , v052
	.byte		N06   , Cn8 , v040
	.byte	W06
	.byte		N02   , As3 , v060
	.byte	W06
	.byte		        As3 , v052
	.byte		N06   , Cn8 , v080
	.byte	W06
	.byte	PATT
	 .word	seq_023_6 + 0x1F8
	.byte		N06   , DsM1, v112
	.byte		N02   , As3 , v080
	.byte	W06
	.byte		        As3 , v052
	.byte	W06
	.byte		        As3 , v060
	.byte	W06
	.byte		        As3 , v052
	.byte	W06
	.byte		N06   , EnM1, v112
	.byte		N02   , As3 , v080
	.byte	W06
	.byte		        As3 , v052
	.byte		N06   , Cn8 , v040
	.byte	W06
	.byte		        As1 , v060
	.byte	W06
	.byte		N02   , As3 , v052
	.byte		N06   , Cn8 , v100
	.byte	W06
	.byte		        DsM1, v112
	.byte		N02   , As3 , v080
	.byte	W06
	.byte		N06   , Cn8 , v072
	.byte	W06
	.byte		N02   , As3 , v060
	.byte		N06   , Cn8 
	.byte	W06
	.byte		N02   , As3 , v052
	.byte	W06
	.byte		N06   , EnM1, v112
	.byte		N02   , As3 , v080
	.byte	W06
	.byte		        As3 , v052
	.byte		N06   , Cn8 , v040
	.byte	W06
	.byte		N02   , As3 , v060
	.byte	W06
	.byte		        As3 , v052
	.byte		N06   , Cn8 , v080
	.byte	W06
	.byte	PEND
	.byte		N12   , DsM1, v112
	.byte		N02   , As3 , v080
	.byte	W06
	.byte		        As3 , v052
	.byte	W06
	.byte		N03   , DsM1, v060
	.byte		N02   , As3 
	.byte	W03
	.byte		N03   , DsM1, v072
	.byte	W03
	.byte		        DsM1, v084
	.byte		N02   , As3 , v052
	.byte	W03
	.byte		N03   , DsM1, v076
	.byte	W03
	.byte		N06   , DsM1, v112
	.byte		N02   , As3 , v080
	.byte	W06
	.byte		        As3 , v052
	.byte	W06
	.byte		N06   , Cn8 , v060
	.byte	W06
	.byte		N02   , As3 , v052
	.byte		N06   , Cn8 , v100
	.byte	W06
	.byte		        DsM1, v112
	.byte		N02   , As3 , v080
	.byte	W06
	.byte		N06   , As1 , v072
	.byte	W06
	.byte		N02   , As3 , v060
	.byte	W06
	.byte		N02
	.byte	W03
	.byte		        As3 , v052
	.byte	W03
	.byte		N06   , EnM1, v112
	.byte		N02   , As3 , v060
	.byte	W03
	.byte		        As3 , v052
	.byte	W03
	.byte		        As3 , v072
	.byte		N06   , Cn8 , v100
	.byte	W06
	.byte		N02   , As3 , v060
	.byte		N06   , Cn8 , v040
	.byte	W06
	.byte		        As1 , v072
	.byte	W06
	.byte		PAN   , c_v+0
	.byte		N06   , DsM1, v112
	.byte		N02   , As3 , v080
	.byte	W06
	.byte		        As3 , v052
	.byte	W06
	.byte		        As3 , v060
	.byte	W06
	.byte		        As3 , v052
	.byte	W06
	.byte		N06   , EnM1, v112
	.byte		N02   , As3 , v080
	.byte	W06
	.byte		        As3 , v052
	.byte		N06   , Cn8 , v040
	.byte	W06
	.byte		        As1 , v060
	.byte	W06
	.byte		N02   , As3 , v052
	.byte		N06   , Cn8 , v100
	.byte	W06
	.byte		        DsM1, v112
	.byte		N02   , As3 , v080
	.byte	W06
	.byte		N06   , Cn8 , v072
	.byte	W06
	.byte		N02   , As3 , v060
	.byte		N06   , Cn8 
	.byte	W06
	.byte		N02   , As3 , v052
	.byte	W06
	.byte		N06   , EnM1, v112
	.byte		N02   , As3 , v080
	.byte	W06
	.byte		        As3 , v052
	.byte		N06   , Cn8 , v040
	.byte	W06
	.byte		N02   , As3 , v060
	.byte	W06
	.byte		        As3 , v052
	.byte		N06   , Cn8 , v080
	.byte	W06
	.byte	PEND
	.byte		N06   , DsM1, v112
	.byte		N02   , As3 , v080
	.byte	W06
	.byte		        As3 , v052
	.byte	W06
	.byte		        As3 , v060
	.byte	W06
	.byte		        As3 , v052
	.byte	W06
	.byte		N06   , EnM1, v112
	.byte		N02   , As3 , v080
	.byte	W06
	.byte		        As3 , v052
	.byte		N06   , Cn8 , v040
	.byte	W06
	.byte		        As1 , v060
	.byte	W06
	.byte		N02   , As3 , v052
	.byte		N06   , Cn8 , v100
	.byte	W06
	.byte		        DsM1, v112
	.byte		N02   , As3 , v080
	.byte	W06
	.byte		N06   , Cn8 , v072
	.byte	W06
	.byte		N02   , As3 , v060
	.byte		N06   , Cn8 
	.byte	W06
	.byte		N02   , As3 , v052
	.byte	W06
	.byte		N06   , EnM1, v112
	.byte		N02   , As3 , v080
	.byte	W06
	.byte		        As3 , v052
	.byte		N06   , Cn8 , v040
	.byte	W06
	.byte		N02   , As3 , v060
	.byte	W06
	.byte		N06   , As1 , v072
	.byte	W06
	.byte	PEND
	.byte	PATT
	 .word	seq_023_6 + 0x348
	.byte		N06   , DsM1, v112
	.byte		N02   , As3 , v080
	.byte	W06
	.byte		        As3 , v052
	.byte	W06
	.byte		        As3 , v060
	.byte		N06   , Cn8 , v100
	.byte	W06
	.byte		N02   , As3 , v052
	.byte		N06   , Cn8 , v040
	.byte	W06
	.byte		        DsM1, v112
	.byte		N02   , As3 , v080
	.byte	W06
	.byte		        As3 , v052
	.byte	W06
	.byte		N06   , As1 , v060
	.byte	W06
	.byte		N02   , DsM1
	.byte		N02   , As3 , v052
	.byte	W02
	.byte		N03   , DsM1, v072
	.byte	W03
	.byte		        DsM1, v084
	.byte	W01
	.byte		N02   , As3 , v080
	.byte	W02
	.byte		N03   , DsM1, v076
	.byte	W03
	.byte		N06   , DsM1, v112
	.byte	W07
	.byte		N02   , As3 , v060
	.byte	W06
	.byte		N02
	.byte	W03
	.byte		        As3 , v052
	.byte	W03
	.byte		N06   , EnM1, v112
	.byte		N02   , As3 , v060
	.byte	W03
	.byte		        As3 , v052
	.byte	W03
	.byte		        As3 , v072
	.byte		N06   , Cn8 , v100
	.byte	W06
	.byte		N02   , As3 , v060
	.byte		N06   , Cn8 , v040
	.byte	W06
	.byte		        As1 , v072
	.byte	W06
	.byte	PEND
	.byte		PAN   , c_v+0
	.byte		N06   , DsM1, v112
	.byte		N36   , An2 , v120
	.byte		N02   , As3 , v080
	.byte	W06
	.byte		        As3 , v052
	.byte	W06
	.byte		        As3 , v060
	.byte	W06
	.byte		        As3 , v052
	.byte	W06
	.byte		N06   , EnM1, v112
	.byte		N02   , As3 , v080
	.byte	W06
	.byte		        As3 , v052
	.byte		N06   , Cn8 , v040
	.byte	W06
	.byte		        As1 , v060
	.byte	W06
	.byte		N02   , As3 , v052
	.byte		N06   , Cn8 , v100
	.byte	W06
	.byte		        DsM1, v112
	.byte		N02   , As3 , v080
	.byte	W06
	.byte		N06   , Cn8 , v072
	.byte	W06
	.byte		N02   , As3 , v060
	.byte		N06   , Cn8 
	.byte	W06
	.byte		N02   , As3 , v052
	.byte	W06
	.byte		N06   , EnM1, v112
	.byte		N02   , As3 , v080
	.byte	W06
	.byte		        As3 , v052
	.byte		N06   , Cn8 , v040
	.byte	W06
	.byte		N02   , As3 , v060
	.byte	W06
	.byte		        As3 , v052
	.byte		N06   , Cn8 , v080
	.byte	W06
	.byte	PATT
	 .word	seq_023_6 + 0x450
	.byte	PATT
	 .word	seq_023_6 + 0x348
	.byte	PATT
	 .word	seq_023_6 + 0x29A
	.byte	PATT
	 .word	seq_023_6 + 0x3FB
	.byte	PATT
	 .word	seq_023_6 + 0x450
	.byte	PATT
	 .word	seq_023_6 + 0x348
	.byte		N06   , DsM1, v112
	.byte		N02   , As3 , v080
	.byte	W06
	.byte		        As3 , v052
	.byte	W06
	.byte		        As3 , v060
	.byte		N06   , Cn8 , v100
	.byte	W06
	.byte		N02   , As3 , v052
	.byte		N06   , Cn8 , v100
	.byte	W06
	.byte		        DsM1, v112
	.byte		N02   , As3 , v080
	.byte	W06
	.byte		N06   , DsM1, v112
	.byte		N02   , As3 , v052
	.byte	W06
	.byte		N06   , As1 , v060
	.byte	W06
	.byte		        DsM1, v112
	.byte		N02   , As3 , v052
	.byte	W06
	.byte		N06   , EnM1, v112
	.byte		N02   , As3 , v080
	.byte	W06
	.byte		N06   , As1 , v072
	.byte	W06
	.byte		N02   , As3 , v060
	.byte		N06   , Cn8 , v068
	.byte	W06
	.byte		N02   , As3 , v060
	.byte		N06   , Cn8 , v100
	.byte	W03
	.byte		N02   , As3 , v052
	.byte	W03
	.byte		N06   , DsM1, v112
	.byte		N02   , As3 , v060
	.byte	W03
	.byte		        As3 , v052
	.byte	W03
	.byte		N06   , EnM1, v092
	.byte		N02   , As3 , v072
	.byte	W06
	.byte		        As3 , v060
	.byte		N06   , Cn8 , v088
	.byte	W06
	.byte		        Cn8 , v104
	.byte	W06
	.byte	W96
	.byte	W96
	.byte		PAN   , c_v+0
	.byte		N06   , DsM1, v052
	.byte	W24
	.byte		        DsM1, v060
	.byte	W12
	.byte		        As1 , v032
	.byte	W12
	.byte		        DsM1, v068
	.byte	W06
	.byte		        As1 , v044
	.byte	W18
	.byte		        DsM1, v076
	.byte	W24
	.byte		        EnM1, v052
	.byte	W12
	.byte		        EnM1, v060
	.byte	W12
	.byte		        EnM1, v068
	.byte	W12
	.byte		        EnM1, v072
	.byte	W12
	.byte		        EnM1, v080
	.byte	W06
	.byte		        EnM1, v084
	.byte	W06
	.byte		        EnM1, v088
	.byte	W06
	.byte		        EnM1, v092
	.byte	W06
	.byte		N03   , EnM1, v096
	.byte	W03
	.byte		        DsM1
	.byte	W03
	.byte		        EnM1, v100
	.byte	W03
	.byte		        DsM1
	.byte	W03
	.byte		        EnM1, v104
	.byte	W03
	.byte		        DsM1
	.byte	W03
	.byte		        EnM1, v108
	.byte	W03
	.byte		        DsM1
	.byte	W03
	.byte		PAN   , c_v+0
	.byte		N24   , An2 , v112
	.byte		N02   , As3 , v080
	.byte	W06
	.byte		        As3 , v052
	.byte	W06
	.byte		        As3 , v060
	.byte	W06
	.byte		        As3 , v052
	.byte	W06
	.byte		N06   , EnM1, v112
	.byte		N02   , As3 , v080
	.byte	W06
	.byte		        As3 , v052
	.byte		N06   , Cn8 , v040
	.byte	W06
	.byte		        As1 , v060
	.byte	W06
	.byte		N02   , As3 , v052
	.byte		N06   , Cn8 , v100
	.byte	W06
	.byte		        DsM1, v112
	.byte		N02   , As3 , v080
	.byte	W06
	.byte		N06   , Cn8 , v072
	.byte	W06
	.byte		N02   , As3 , v060
	.byte		N06   , Cn8 
	.byte	W06
	.byte		N02   , As3 , v052
	.byte	W06
	.byte		N06   , EnM1, v112
	.byte		N02   , As3 , v080
	.byte	W06
	.byte		        As3 , v052
	.byte		N06   , Cn8 , v040
	.byte	W06
	.byte		N02   , As3 , v060
	.byte	W06
	.byte		        As3 , v052
	.byte		N06   , Cn8 , v080
	.byte	W06
	.byte	PATT
	 .word	seq_023_6 + 0x450
	.byte	PATT
	 .word	seq_023_6 + 0x348
	.byte	PATT
	 .word	seq_023_6 + 0x29A
	.byte	PATT
	 .word	seq_023_6 + 0x3FB
	.byte	PATT
	 .word	seq_023_6 + 0x450
	.byte	PATT
	 .word	seq_023_6 + 0x348
	.byte		N06   , DsM1, v112
	.byte		N02   , As3 , v080
	.byte	W06
	.byte		        As3 , v052
	.byte	W06
	.byte		N03   , DsM1, v060
	.byte		N02   , As3 
	.byte	W03
	.byte		N03   , DsM1, v072
	.byte	W03
	.byte		        DsM1, v084
	.byte		N02   , As3 , v052
	.byte	W03
	.byte		N03   , DsM1, v076
	.byte	W03
	.byte		N06   , DsM1, v112
	.byte		N02   , As3 , v080
	.byte	W06
	.byte		        As3 , v052
	.byte	W06
	.byte		N06   , Cn8 , v060
	.byte	W06
	.byte		N02   , As3 , v052
	.byte		N06   , Cn8 , v100
	.byte	W06
	.byte		        DsM1, v112
	.byte		N02   , As3 , v080
	.byte	W06
	.byte		N06   , As1 , v072
	.byte	W06
	.byte		N02   , As3 , v060
	.byte	W06
	.byte		N02
	.byte	W03
	.byte		        As3 , v052
	.byte	W03
	.byte		N06   , EnM1, v112
	.byte		N02   , As3 , v060
	.byte	W03
	.byte		        As3 , v052
	.byte	W03
	.byte		        As3 , v072
	.byte		N06   , Cn8 , v100
	.byte	W06
	.byte		N02   , As3 , v060
	.byte		N06   , Cn8 , v040
	.byte	W06
	.byte		        As1 , v072
	.byte	W06
	.byte		PAN   , c_v+0
	.byte		N06   , EnM1, v112
	.byte		N02   , As3 , v080
	.byte	W06
	.byte		        As3 , v052
	.byte	W06
	.byte		        As3 , v060
	.byte	W06
	.byte		        As3 , v052
	.byte	W06
	.byte		N06   , EnM1, v112
	.byte		N02   , As3 , v080
	.byte	W06
	.byte		        As3 , v052
	.byte		N06   , Cn8 , v040
	.byte	W06
	.byte		        As1 , v060
	.byte	W06
	.byte		N02   , As3 , v052
	.byte		N06   , Cn8 , v100
	.byte	W06
	.byte		        DsM1, v112
	.byte		N02   , As3 , v080
	.byte	W06
	.byte		N06   , Cn8 , v072
	.byte	W06
	.byte		N02   , As3 , v060
	.byte		N06   , Cn8 
	.byte	W06
	.byte		N02   , As3 , v052
	.byte	W06
	.byte		N06   , EnM1, v112
	.byte		N02   , As3 , v080
	.byte	W06
	.byte		        As3 , v052
	.byte		N06   , Cn8 , v040
	.byte	W06
	.byte		N02   , As3 , v060
	.byte	W06
	.byte		        As3 , v052
	.byte		N06   , Cn8 , v080
	.byte	W06
	.byte	PATT
	 .word	seq_023_6 + 0x450
	.byte	PATT
	 .word	seq_023_6 + 0x348
	.byte	PATT
	 .word	seq_023_6 + 0x4A6
	.byte	PATT
	 .word	seq_023_6 + 0x3FB
	.byte		N06   , DsM1, v112
	.byte		N02   , As3 , v080
	.byte	W06
	.byte		        As3 , v052
	.byte	W06
	.byte		        As3 , v060
	.byte	W06
	.byte		        As3 , v052
	.byte	W06
	.byte		N06   , EnM1, v112
	.byte		N02   , As3 , v080
	.byte	W06
	.byte		        As3 , v052
	.byte		N06   , Cn8 , v040
	.byte	W06
	.byte		        As1 , v060
	.byte	W06
	.byte		N02   , As3 , v052
	.byte		N06   , Cn8 , v100
	.byte	W06
	.byte		        DsM1, v112
	.byte		N02   , As3 , v080
	.byte	W06
	.byte		N06   , Cn8 , v072
	.byte	W06
	.byte		N02   , As3 , v060
	.byte		N06   , Cn8 
	.byte	W06
	.byte		N02   , As3 , v052
	.byte	W06
	.byte		N06   , EnM1, v112
	.byte		N02   , As3 , v080
	.byte	W06
	.byte		        As3 , v052
	.byte		N06   , Cn8 , v040
	.byte	W06
	.byte		N02   , As3 , v060
	.byte		N06   , Cn8 , v080
	.byte	W06
	.byte		N06
	.byte	W06
	.byte	PATT
	 .word	seq_023_6 + 0x348
	.byte		N06   , DsM1, v112
	.byte		N02   , As3 , v080
	.byte	W06
	.byte		        As3 , v052
	.byte	W06
	.byte		        As3 , v060
	.byte		N06   , Cn8 , v100
	.byte	W06
	.byte		N02   , As3 , v052
	.byte		N06   , Cn8 , v100
	.byte	W06
	.byte		        DsM1, v112
	.byte		N02   , As3 , v080
	.byte	W06
	.byte		N06   , DsM1, v112
	.byte		N02   , As3 , v052
	.byte	W06
	.byte		N06   , As1 , v060
	.byte	W06
	.byte		N02   , As3 , v052
	.byte	W06
	.byte		N06   , EnM1, v112
	.byte		N02   , As3 , v080
	.byte	W06
	.byte		N06   , As1 , v072
	.byte	W06
	.byte		N02   , As3 , v060
	.byte		N06   , Cn8 , v068
	.byte	W06
	.byte		N02   , As3 , v060
	.byte		N06   , Cn8 , v100
	.byte	W03
	.byte		N02   , As3 , v052
	.byte	W03
	.byte		N06   , EnM1, v112
	.byte		N02   , As3 , v060
	.byte	W03
	.byte		        As3 , v052
	.byte	W03
	.byte		        As3 , v072
	.byte		N06   , Cn8 , v076
	.byte	W06
	.byte		N02   , As3 , v060
	.byte		N06   , Cn8 , v092
	.byte	W06
	.byte		        Cn8 , v072
	.byte	W06
	.byte		        DsM1, v112
	.byte		N02   , As3 , v080
	.byte	W06
	.byte		        As3 , v052
	.byte	W06
	.byte		        As3 , v060
	.byte	W06
	.byte		        As3 , v052
	.byte	W06
	.byte		N06   , DsM1, v112
	.byte		N02   , As3 , v080
	.byte	W06
	.byte		        As3 , v052
	.byte	W06
	.byte		N06   , As1 , v060
	.byte	W06
	.byte		N02   , As3 , v052
	.byte	W06
	.byte		N06   , DsM1, v112
	.byte		N02   , As3 , v080
	.byte	W06
	.byte		N06   , As1 , v072
	.byte	W06
	.byte		N02   , As3 , v060
	.byte	W06
	.byte		        As3 , v052
	.byte	W06
	.byte		N06   , DsM1, v112
	.byte		N02   , As3 , v080
	.byte	W06
	.byte		        As3 , v052
	.byte	W06
	.byte		        As3 , v060
	.byte	W06
	.byte		        As3 , v052
	.byte	W06
	.byte	GOTO
	 .word	seq_023_6 + 0x143
	.byte	FINE

@******************************************************@

	.align	2

seq_023:
	.byte	7	@ NumTrks
	.byte	0	@ NumBlks
	.byte	seq_023_pri	@ Priority
	.byte	seq_023_rev	@ Reverb

	.word	seq_023_grp

	.word	seq_023_0
	.word	seq_023_1
	.word	seq_023_2
	.word	seq_023_3
	.word	seq_023_4
	.word	seq_023_5
	.word	seq_023_6

	.end
