@ File generated by m4a2s Song-Module
	.include "MPlayDef.s"

	.equ	seq_052_grp, bank_038
	.equ	seq_052_pri, 0
	.equ	seq_052_rev, 148
	.equ	seq_052_mvl, 127
	.equ	seq_052_key, 0

	.section .rodata
	.global	seq_052
	.align	2

@*********************** Track 01 ***********************@

seq_052_0:
	.byte	KEYSH , seq_052_key+0
	.byte	TEMPO , 88/2
	.byte		VOICE , 29
	.byte		VOL   , 77*seq_052_mvl/mxv
	.byte		PAN   , c_v+0
	.byte		BENDR , 8
	.byte	W12
	.byte		BEND  , c_v-26
	.byte		N17   , Cs3 , v104
	.byte	W01
	.byte		BEND  , c_v-11
	.byte	W01
	.byte		        c_v-2
	.byte	W01
	.byte		        c_v+0
	.byte	W15
	.byte		N06
	.byte	W06
	.byte		        An2 
	.byte	W06
	.byte		N28   , En3 
	.byte	W11
	.byte		BEND  , c_v+0
	.byte	W02
	.byte		        c_v+0
	.byte	W01
	.byte		        c_v-2
	.byte	W01
	.byte		        c_v-4
	.byte	W02
	.byte		        c_v-2
	.byte	W01
	.byte		        c_v+2
	.byte	W01
	.byte		        c_v+2
	.byte	W01
	.byte		VOL   , 75*seq_052_mvl/mxv
	.byte		BEND  , c_v+4
	.byte	W01
	.byte		        c_v+6
	.byte	W01
	.byte		VOL   , 73*seq_052_mvl/mxv
	.byte		BEND  , c_v+2
	.byte	W01
	.byte		        c_v-2
	.byte	W01
	.byte		        c_v-4
	.byte	W01
	.byte		VOL   , 69*seq_052_mvl/mxv
	.byte	W02
	.byte		        62*seq_052_mvl/mxv
	.byte		BEND  , c_v-2
	.byte	W01
	.byte		        c_v+0
	.byte	W01
	.byte		        c_v+4
	.byte	W01
	.byte		VOL   , 77*seq_052_mvl/mxv
	.byte		N08   , En3 , v104
	.byte	W01
	.byte		BEND  , c_v-9
	.byte	W01
	.byte		        c_v-2
	.byte	W01
	.byte		        c_v+0
	.byte	W05
	.byte		N08   , Fs3 
	.byte	W06
	.byte		BEND  , c_v+0
	.byte	W01
	.byte		        c_v-6
	.byte	W01
	.byte		        c_v+0
	.byte		N13   , En3 
	.byte	W06
	.byte		VOL   , 65*seq_052_mvl/mxv
	.byte	W01
	.byte		        51*seq_052_mvl/mxv
	.byte	W01
	.byte		        34*seq_052_mvl/mxv
	.byte		BEND  , c_v+0
	.byte	W01
	.byte		VOL   , 25*seq_052_mvl/mxv
	.byte	W01
	.byte		        11*seq_052_mvl/mxv
	.byte	W01
	.byte		        4*seq_052_mvl/mxv
	.byte	W03
	.byte		        77*seq_052_mvl/mxv
	.byte	W06
	.byte		BEND  , c_v-26
	.byte		N17   , Ds3 
	.byte	W01
	.byte		BEND  , c_v-11
	.byte	W01
	.byte		        c_v-2
	.byte	W01
	.byte		        c_v+0
	.byte	W15
	.byte		N06
	.byte	W06
	.byte		        Bn2 
	.byte	W06
	.byte		N32   , Fs3 , v100
	.byte	W20
	.byte		VOL   , 76*seq_052_mvl/mxv
	.byte	W02
	.byte		        74*seq_052_mvl/mxv
	.byte	W02
	.byte		BEND  , c_v-2
	.byte	W01
	.byte		VOL   , 73*seq_052_mvl/mxv
	.byte	W02
	.byte		        70*seq_052_mvl/mxv
	.byte	W02
	.byte		        66*seq_052_mvl/mxv
	.byte	W01
	.byte		BEND  , c_v-4
	.byte	W02
	.byte		VOL   , 62*seq_052_mvl/mxv
	.byte	W02
	.byte		        57*seq_052_mvl/mxv
	.byte	W02
	.byte		        78*seq_052_mvl/mxv
	.byte		BEND  , c_v-22
	.byte		N11   , Fs2 , v104
	.byte	W01
	.byte		BEND  , c_v-5
	.byte	W01
	.byte		        c_v+0
	.byte	W02
	.byte		VOL   , 65*seq_052_mvl/mxv
	.byte	W01
	.byte		        51*seq_052_mvl/mxv
	.byte	W01
	.byte		        34*seq_052_mvl/mxv
	.byte	W01
	.byte		        25*seq_052_mvl/mxv
	.byte	W01
	.byte		        11*seq_052_mvl/mxv
	.byte	W01
	.byte		        4*seq_052_mvl/mxv
	.byte	W03
	.byte		        77*seq_052_mvl/mxv
	.byte		N05   , Gs2 
	.byte	W06
	.byte		BEND  , c_v-14
	.byte		N17   , An2 
	.byte	W01
	.byte		BEND  , c_v-8
	.byte	W01
	.byte		        c_v-3
	.byte	W01
	.byte		        c_v-1
	.byte	W01
	.byte		        c_v+0
	.byte	W10
	.byte		        c_v-4
	.byte	W04
	.byte		        c_v+0
	.byte		N17   , Fs2 
	.byte	W18
	.byte		N11   , An2 
	.byte	W12
	.byte		BEND  , c_v-22
	.byte		N23   , Dn3 
	.byte	W01
	.byte		BEND  , c_v-12
	.byte	W01
	.byte		        c_v-4
	.byte	W01
	.byte		        c_v-1
	.byte	W01
	.byte		        c_v+0
	.byte	W10
	.byte		VOL   , 75*seq_052_mvl/mxv
	.byte	W02
	.byte		        73*seq_052_mvl/mxv
	.byte	W03
	.byte		        69*seq_052_mvl/mxv
	.byte		BEND  , c_v-4
	.byte	W02
	.byte		VOL   , 62*seq_052_mvl/mxv
	.byte		BEND  , c_v-8
	.byte	W03
	.byte		VOL   , 77*seq_052_mvl/mxv
	.byte		BEND  , c_v-20
	.byte		N08
	.byte	W01
	.byte		BEND  , c_v-8
	.byte	W01
	.byte		        c_v-2
	.byte	W01
	.byte		        c_v+0
	.byte	W05
	.byte		N08   , En3 
	.byte	W08
	.byte		        Dn3 
	.byte	W08
	.byte		BEND  , c_v-20
	.byte		N28   , Cs3 
	.byte	W01
	.byte		BEND  , c_v-11
	.byte	W01
	.byte		        c_v-4
	.byte	W01
	.byte		        c_v-1
	.byte	W01
	.byte		        c_v+0
	.byte	W07
	.byte		        c_v+0
	.byte	W01
	.byte		        c_v+2
	.byte	W01
	.byte		        c_v+4
	.byte	W01
	.byte		        c_v+0
	.byte	W01
	.byte		        c_v-6
	.byte	W01
	.byte		        c_v-6
	.byte	W02
	.byte		        c_v+0
	.byte	W01
	.byte		        c_v+2
	.byte	W01
	.byte		VOL   , 75*seq_052_mvl/mxv
	.byte	W01
	.byte		BEND  , c_v-4
	.byte	W01
	.byte		VOL   , 73*seq_052_mvl/mxv
	.byte		BEND  , c_v-8
	.byte	W01
	.byte		        c_v-2
	.byte	W02
	.byte		VOL   , 69*seq_052_mvl/mxv
	.byte		BEND  , c_v+6
	.byte	W01
	.byte		        c_v+4
	.byte	W01
	.byte		VOL   , 62*seq_052_mvl/mxv
	.byte		BEND  , c_v-2
	.byte	W01
	.byte		        c_v-4
	.byte	W01
	.byte		        c_v+0
	.byte	W01
	.byte		VOL   , 77*seq_052_mvl/mxv
	.byte		BEND  , c_v-24
	.byte		N11
	.byte	W01
	.byte		BEND  , c_v-10
	.byte	W01
	.byte		        c_v-2
	.byte	W01
	.byte		        c_v+0
	.byte	W03
	.byte		        c_v-32
	.byte	W06
	.byte		        c_v+0
	.byte		N44   , An3 , v096
	.byte	W12
	.byte		BEND  , c_v+0
	.byte	W04
	.byte		        c_v-1
	.byte	W04
	.byte		VOL   , 76*seq_052_mvl/mxv
	.byte	W04
	.byte		        74*seq_052_mvl/mxv
	.byte	W03
	.byte		        73*seq_052_mvl/mxv
	.byte	W02
	.byte		        70*seq_052_mvl/mxv
	.byte	W01
	.byte		BEND  , c_v-3
	.byte	W01
	.byte		VOL   , 67*seq_052_mvl/mxv
	.byte	W03
	.byte		        64*seq_052_mvl/mxv
	.byte		BEND  , c_v-5
	.byte	W02
	.byte		VOL   , 60*seq_052_mvl/mxv
	.byte	W02
	.byte		        55*seq_052_mvl/mxv
	.byte	W03
	.byte		        51*seq_052_mvl/mxv
	.byte	W02
	.byte		        45*seq_052_mvl/mxv
	.byte		BEND  , c_v-9
	.byte	W02
	.byte		VOL   , 39*seq_052_mvl/mxv
	.byte	W03
	.byte		        77*seq_052_mvl/mxv
	.byte		BEND  , c_v-26
	.byte		N32   , En3 , v104
	.byte	W01
	.byte		BEND  , c_v-11
	.byte	W01
	.byte		        c_v-2
	.byte	W01
	.byte		        c_v+0
	.byte	W03
	.byte	W20
	.byte		VOL   , 75*seq_052_mvl/mxv
	.byte	W02
	.byte		        73*seq_052_mvl/mxv
	.byte	W03
	.byte		        69*seq_052_mvl/mxv
	.byte	W02
	.byte		        62*seq_052_mvl/mxv
	.byte	W03
	.byte		        77*seq_052_mvl/mxv
	.byte		N06
	.byte	W06
	.byte		        Cs3 
	.byte	W06
	.byte		N28   , An3 , v096
	.byte	W12
	.byte		BEND  , c_v+0
	.byte	W01
	.byte		        c_v-2
	.byte	W01
	.byte		        c_v-4
	.byte	W01
	.byte		        c_v-10
	.byte	W01
	.byte		        c_v-8
	.byte	W01
	.byte		        c_v-2
	.byte	W01
	.byte		        c_v+2
	.byte	W02
	.byte		VOL   , 75*seq_052_mvl/mxv
	.byte		BEND  , c_v+0
	.byte	W01
	.byte		        c_v-6
	.byte	W01
	.byte		VOL   , 73*seq_052_mvl/mxv
	.byte		BEND  , c_v-8
	.byte	W03
	.byte		VOL   , 69*seq_052_mvl/mxv
	.byte		BEND  , c_v-6
	.byte	W02
	.byte		VOL   , 62*seq_052_mvl/mxv
	.byte		BEND  , c_v-4
	.byte	W01
	.byte		        c_v-2
	.byte	W01
	.byte		        c_v+2
	.byte	W01
	.byte		VOL   , 77*seq_052_mvl/mxv
	.byte		BEND  , c_v-22
	.byte		N08   , An3 , v104
	.byte	W01
	.byte		BEND  , c_v-9
	.byte	W01
	.byte		        c_v-2
	.byte	W01
	.byte		        c_v+0
	.byte	W05
	.byte		N08   , Bn3 
	.byte	W08
	.byte		        Cs4 
	.byte	W08
	.byte		BEND  , c_v-20
	.byte		N28   , Bn3 , v096
	.byte	W01
	.byte		BEND  , c_v-8
	.byte	W01
	.byte		        c_v-2
	.byte	W01
	.byte		        c_v+0
	.byte	W24
	.byte	W03
	.byte		N11   , Fs3 , v104
	.byte	W04
	.byte		VOL   , 65*seq_052_mvl/mxv
	.byte	W01
	.byte		        51*seq_052_mvl/mxv
	.byte	W01
	.byte		        34*seq_052_mvl/mxv
	.byte	W01
	.byte		        25*seq_052_mvl/mxv
	.byte	W01
	.byte		        11*seq_052_mvl/mxv
	.byte	W01
	.byte		        4*seq_052_mvl/mxv
	.byte	W03
	.byte		        77*seq_052_mvl/mxv
	.byte		BEND  , c_v-24
	.byte		N44   , Ds4 , v096
	.byte	W01
	.byte		BEND  , c_v-16
	.byte	W01
	.byte		        c_v-10
	.byte	W01
	.byte		        c_v-5
	.byte	W01
	.byte		        c_v-2
	.byte	W01
	.byte		        c_v-1
	.byte	W01
	.byte		        c_v+0
	.byte	W18
	.byte		        c_v-2
	.byte	W12
	.byte		        c_v-4
	.byte	W02
	.byte		VOL   , 75*seq_052_mvl/mxv
	.byte	W02
	.byte		        73*seq_052_mvl/mxv
	.byte	W02
	.byte		BEND  , c_v-6
	.byte	W01
	.byte		VOL   , 69*seq_052_mvl/mxv
	.byte	W02
	.byte		        62*seq_052_mvl/mxv
	.byte	W03
	.byte		        77*seq_052_mvl/mxv
	.byte		BEND  , c_v-24
	.byte		N23   , Dn4 , v104
	.byte	W01
	.byte		BEND  , c_v-15
	.byte	W01
	.byte		        c_v-7
	.byte	W01
	.byte		        c_v-3
	.byte	W01
	.byte		        c_v-1
	.byte	W01
	.byte		        c_v+0
	.byte	W01
	.byte	W18
	.byte		N17   , An3 
	.byte	W18
	.byte		N06   , Dn3 
	.byte	W06
	.byte		        En3 
	.byte	W06
	.byte		N11   , Fs3 
	.byte	W12
	.byte		N06   , Dn4 , v096
	.byte	W02
	.byte		VOL   , 75*seq_052_mvl/mxv
	.byte	W02
	.byte		        73*seq_052_mvl/mxv
	.byte	W02
	.byte		N06   , An3 , v104
	.byte	W01
	.byte		VOL   , 69*seq_052_mvl/mxv
	.byte	W02
	.byte		        62*seq_052_mvl/mxv
	.byte	W03
	.byte		        77*seq_052_mvl/mxv
	.byte		N08   , Fs3 
	.byte	W08
	.byte		        Dn4 , v096
	.byte	W08
	.byte		        Bn3 , v104
	.byte	W08
	.byte		N66   , An3 
	.byte	W28
	.byte		VOL   , 76*seq_052_mvl/mxv
	.byte	W05
	.byte		        74*seq_052_mvl/mxv
	.byte	W04
	.byte		        70*seq_052_mvl/mxv
	.byte	W05
	.byte		        65*seq_052_mvl/mxv
	.byte	W04
	.byte		        58*seq_052_mvl/mxv
	.byte	W05
	.byte		        50*seq_052_mvl/mxv
	.byte	W04
	.byte		        40*seq_052_mvl/mxv
	.byte	W05
	.byte		        30*seq_052_mvl/mxv
	.byte	W04
	.byte		        18*seq_052_mvl/mxv
	.byte	W32
	.byte		        66*seq_052_mvl/mxv
	.byte	W96
	.byte	W96
	.byte	W96
	.byte	W06
	.byte		BEND  , c_v-16
	.byte		N18   , Cs4 , v068
	.byte	W01
	.byte		BEND  , c_v-10
	.byte	W02
	.byte		        c_v-5
	.byte	W01
	.byte		        c_v-2
	.byte	W02
	.byte		        c_v+0
	.byte	W12
	.byte		N24   , Dn4 
	.byte	W24
	.byte		N30   , En4 
	.byte	W30
	.byte		BEND  , c_v-16
	.byte		N06   , An4 , v056
	.byte	W01
	.byte		BEND  , c_v-10
	.byte	W02
	.byte		        c_v-5
	.byte	W01
	.byte		        c_v-2
	.byte	W02
	.byte		        c_v+0
	.byte	W06
	.byte		TIE
	.byte	W06
	.byte	W24
	.byte		BEND  , c_v+0
	.byte	W01
	.byte		VOL   , 64*seq_052_mvl/mxv
	.byte	W03
	.byte		BEND  , c_v-1
	.byte	W02
	.byte		VOL   , 62*seq_052_mvl/mxv
	.byte	W03
	.byte		BEND  , c_v-1
	.byte	W01
	.byte		VOL   , 60*seq_052_mvl/mxv
	.byte	W03
	.byte		BEND  , c_v-1
	.byte	W02
	.byte		VOL   , 58*seq_052_mvl/mxv
	.byte	W03
	.byte		BEND  , c_v-1
	.byte	W01
	.byte		VOL   , 55*seq_052_mvl/mxv
	.byte	W03
	.byte		BEND  , c_v-1
	.byte	W02
	.byte		VOL   , 51*seq_052_mvl/mxv
	.byte	W03
	.byte		BEND  , c_v-2
	.byte	W02
	.byte		VOL   , 48*seq_052_mvl/mxv
	.byte	W02
	.byte		BEND  , c_v-2
	.byte	W02
	.byte		VOL   , 43*seq_052_mvl/mxv
	.byte	W03
	.byte		BEND  , c_v-3
	.byte	W02
	.byte		VOL   , 38*seq_052_mvl/mxv
	.byte	W02
	.byte		BEND  , c_v-4
	.byte	W02
	.byte		VOL   , 33*seq_052_mvl/mxv
	.byte	W03
	.byte		BEND  , c_v-4
	.byte	W02
	.byte		VOL   , 27*seq_052_mvl/mxv
	.byte	W02
	.byte		BEND  , c_v-5
	.byte	W02
	.byte		VOL   , 21*seq_052_mvl/mxv
	.byte	W03
	.byte		BEND  , c_v-6
	.byte	W02
	.byte		VOL   , 14*seq_052_mvl/mxv
	.byte	W02
	.byte		BEND  , c_v-7
	.byte	W02
	.byte		VOL   , 7*seq_052_mvl/mxv
	.byte	W03
	.byte		BEND  , c_v-8
	.byte	W02
	.byte		VOL   , 0*seq_052_mvl/mxv
	.byte	W02
	.byte		BEND  , c_v-9
	.byte	W02
	.byte		VOL   , 0*seq_052_mvl/mxv
	.byte	W03
	.byte		EOT
	.byte		BEND  , c_v+0
	.byte	W96
	.byte	W96
	.byte	W48
	.byte		VOICE , 30
	.byte	W06
	.byte		VOL   , 78*seq_052_mvl/mxv
	.byte		BEND  , c_v-22
	.byte		N06   , En1 , v096
	.byte	W01
	.byte		BEND  , c_v-5
	.byte	W01
	.byte		        c_v+0
	.byte	W04
	.byte		N06   , Gs1 , v092
	.byte	W06
	.byte		        Bn1 , v084
	.byte	W06
	.byte		BEND  , c_v-32
	.byte		N06   , En2 , v080
	.byte	W01
	.byte		BEND  , c_v-17
	.byte	W01
	.byte		        c_v-6
	.byte	W01
	.byte		        c_v-1
	.byte	W01
	.byte		        c_v+0
	.byte	W02
	.byte		N06   , Bn2 
	.byte	W06
	.byte		BEND  , c_v-16
	.byte		N06   , En3 
	.byte	W01
	.byte		BEND  , c_v-7
	.byte	W01
	.byte		        c_v-1
	.byte	W01
	.byte		        c_v+0
	.byte	W03
	.byte		N06   , Bn3 
	.byte	W06
	.byte		VOICE , 29
	.byte		BEND  , c_v-32
	.byte		N18   , Cs4 , v096
	.byte	W01
	.byte		BEND  , c_v-22
	.byte	W01
	.byte		        c_v-13
	.byte	W01
	.byte		        c_v-6
	.byte	W01
	.byte		        c_v-2
	.byte	W01
	.byte		        c_v-1
	.byte	W01
	.byte		        c_v+0
	.byte	W12
	.byte		N18   , Bn3 
	.byte	W18
	.byte		BEND  , c_v-24
	.byte		N06   , Cs4 
	.byte	W01
	.byte		BEND  , c_v-10
	.byte	W01
	.byte		        c_v-2
	.byte	W01
	.byte		        c_v+0
	.byte	W03
	.byte		N06   , Dn4 
	.byte	W06
	.byte		N03   , En4 
	.byte	W03
	.byte		        En4 , v092
	.byte	W03
	.byte		N08   , En4 , v096
	.byte	W03
	.byte		VOL   , 75*seq_052_mvl/mxv
	.byte	W01
	.byte		        67*seq_052_mvl/mxv
	.byte	W01
	.byte		        55*seq_052_mvl/mxv
	.byte	W01
	.byte		        39*seq_052_mvl/mxv
	.byte	W01
	.byte		        12*seq_052_mvl/mxv
	.byte	W01
	.byte		        0*seq_052_mvl/mxv
	.byte	W04
	.byte		        78*seq_052_mvl/mxv
	.byte		N03
	.byte	W03
	.byte		        En4 , v088
	.byte	W03
	.byte		N08   , En4 , v096
	.byte	W03
	.byte		VOL   , 75*seq_052_mvl/mxv
	.byte	W01
	.byte		        67*seq_052_mvl/mxv
	.byte	W01
	.byte		        55*seq_052_mvl/mxv
	.byte	W01
	.byte		        39*seq_052_mvl/mxv
	.byte	W01
	.byte		        12*seq_052_mvl/mxv
	.byte	W01
	.byte		        0*seq_052_mvl/mxv
	.byte	W04
	.byte		        78*seq_052_mvl/mxv
	.byte		N03
	.byte	W03
	.byte		        En4 , v084
	.byte	W03
	.byte		N06   , En4 , v096
	.byte	W01
	.byte		VOL   , 75*seq_052_mvl/mxv
	.byte	W01
	.byte		        67*seq_052_mvl/mxv
	.byte	W01
	.byte		        55*seq_052_mvl/mxv
	.byte	W01
	.byte		        39*seq_052_mvl/mxv
	.byte	W01
	.byte		        12*seq_052_mvl/mxv
	.byte	W01
	.byte		        77*seq_052_mvl/mxv
	.byte	W12
	.byte		BEND  , c_v-26
	.byte		N18   , Cs3 , v092
	.byte	W01
	.byte		BEND  , c_v-11
	.byte	W01
	.byte		        c_v-2
	.byte	W01
	.byte		        c_v+0
	.byte	W15
	.byte		N06
	.byte	W06
	.byte		        An2 
	.byte	W06
	.byte		N30   , En3 
	.byte	W11
	.byte		BEND  , c_v+0
	.byte	W02
	.byte		        c_v+0
	.byte	W01
	.byte		        c_v-2
	.byte	W01
	.byte		        c_v-4
	.byte	W02
	.byte		        c_v-2
	.byte	W01
	.byte		        c_v+2
	.byte	W01
	.byte		        c_v+2
	.byte	W01
	.byte		VOL   , 75*seq_052_mvl/mxv
	.byte		BEND  , c_v+4
	.byte	W01
	.byte		        c_v+6
	.byte	W01
	.byte		VOL   , 73*seq_052_mvl/mxv
	.byte		BEND  , c_v+2
	.byte	W01
	.byte		        c_v-2
	.byte	W01
	.byte		        c_v-4
	.byte	W01
	.byte		VOL   , 69*seq_052_mvl/mxv
	.byte	W02
	.byte		        62*seq_052_mvl/mxv
	.byte		BEND  , c_v-2
	.byte	W01
	.byte		        c_v+0
	.byte	W01
	.byte		        c_v+4
	.byte	W01
	.byte	GOTO
	 .word	seq_052_0 + 0x4B
	.byte	FINE

@*********************** Track 02 ***********************@

seq_052_1:
	.byte	KEYSH , seq_052_key+0
	.byte		VOICE , 31
	.byte		VOL   , 63*seq_052_mvl/mxv
	.byte		PAN   , c_v+0
	.byte		BENDR , 12
	.byte		N06   , Cs2 , v068
	.byte		N06   , An2 
	.byte	W06
	.byte		N02   , Cs2 , v064
	.byte		N02   , An2 
	.byte	W06
	.byte		N06   , Cs2 , v068
	.byte		N06   , An2 
	.byte	W06
	.byte		N02   , Cs2 , v064
	.byte		N02   , An2 
	.byte	W06
	.byte		N06   , Cs2 , v068
	.byte		N06   , An2 
	.byte	W06
	.byte		N02   , Cs2 , v064
	.byte		N02   , An2 
	.byte	W06
	.byte		N06   , Cs2 
	.byte		N06   , En2 
	.byte	W06
	.byte		N12   , Cs2 , v068
	.byte		N12   , An2 
	.byte	W12
	.byte		N02   , Cs2 , v064
	.byte		N02   , An2 
	.byte	W06
	.byte		N06   , Cs2 , v068
	.byte		N06   , An2 
	.byte	W06
	.byte		N02   , Cs2 , v064
	.byte		N02   , En2 
	.byte	W06
	.byte		N02   , Cs2 , v060
	.byte		N02   , An2 
	.byte	W06
	.byte		N18   , Cs2 , v072
	.byte		N18   , An2 
	.byte	W06
	.byte		BEND  , c_v-2
	.byte	W01
	.byte		        c_v-4
	.byte	W01
	.byte		        c_v-6
	.byte	W01
	.byte		        c_v-10
	.byte	W01
	.byte		        c_v-14
	.byte	W01
	.byte		        c_v-20
	.byte	W01
	.byte		        c_v-26
	.byte	W01
	.byte		        c_v-34
	.byte	W01
	.byte		        c_v-42
	.byte	W01
	.byte		        c_v-50
	.byte	W01
	.byte		        c_v-58
	.byte	W01
	.byte		        c_v-64
	.byte	W01
	.byte		        c_v+0
	.byte		N06   , Ds2 , v068
	.byte		N06   , Bn2 
	.byte	W06
	.byte		N02   , Ds2 , v064
	.byte		N02   , Bn2 
	.byte	W06
	.byte		N06   , Ds2 , v068
	.byte		N06   , Bn2 
	.byte	W06
	.byte		N02   , Ds2 , v064
	.byte		N02   , Bn2 
	.byte	W06
	.byte		N06   , Ds2 , v068
	.byte		N06   , Bn2 
	.byte	W06
	.byte		N02   , Ds2 , v064
	.byte		N02   , Bn2 
	.byte	W06
	.byte		N06   , Ds2 
	.byte		N06   , Fs2 
	.byte	W06
	.byte		N12   , Ds2 , v068
	.byte		N12   , Bn2 
	.byte	W12
	.byte		N02   , Ds2 , v064
	.byte		N02   , Bn2 
	.byte	W06
	.byte		N06   , Ds2 , v068
	.byte		N06   , Bn2 
	.byte	W06
	.byte		N02   , Ds2 , v064
	.byte		N02   , Fs2 
	.byte	W06
	.byte		        Ds2 , v076
	.byte		N02   , Bn2 
	.byte	W03
	.byte		        Ds2 , v068
	.byte		N02   , Bn2 
	.byte	W03
	.byte		        Ds2 
	.byte		N02   , Bn2 
	.byte	W03
	.byte		        Ds2 , v076
	.byte		N02   , Bn2 
	.byte	W03
	.byte		BEND  , c_v-2
	.byte		N12   , Ds2 , v084
	.byte		N12   , Bn2 
	.byte	W01
	.byte		BEND  , c_v-4
	.byte	W01
	.byte		        c_v-6
	.byte	W01
	.byte		        c_v-10
	.byte	W01
	.byte		        c_v-14
	.byte	W01
	.byte		        c_v-20
	.byte	W01
	.byte		        c_v-26
	.byte	W01
	.byte		        c_v-34
	.byte	W01
	.byte		        c_v-42
	.byte	W01
	.byte		        c_v-50
	.byte	W01
	.byte		        c_v-58
	.byte	W01
	.byte		        c_v-64
	.byte	W01
	.byte		        c_v+0
	.byte		N06   , Fs2 , v068
	.byte		N06   , Dn3 
	.byte	W06
	.byte		N02   , Fs2 , v064
	.byte		N02   , Dn3 
	.byte	W06
	.byte		N06   , Fs2 , v068
	.byte		N06   , Dn3 
	.byte	W06
	.byte		N02   , Fs2 , v064
	.byte		N02   , Dn3 
	.byte	W06
	.byte		N06   , Fs2 , v068
	.byte		N06   , Dn3 
	.byte	W06
	.byte		N02   , Fs2 , v064
	.byte		N02   , Dn3 
	.byte	W06
	.byte		N06   , Fs2 
	.byte		N06   , An2 
	.byte	W06
	.byte		N12   , Fs2 , v068
	.byte		N12   , Dn3 
	.byte	W12
	.byte		N02   , Fs2 , v064
	.byte		N02   , Dn3 
	.byte	W06
	.byte		N06   , Fs2 , v068
	.byte		N06   , Dn3 
	.byte	W06
	.byte		N02   , Fs2 , v064
	.byte		N02   , An2 
	.byte	W06
	.byte		N06   , Fs2 , v068
	.byte		N06   , Dn3 
	.byte	W06
	.byte		        Dn2 
	.byte		N06   , Fs2 
	.byte	W06
	.byte		N06
	.byte		N06   , Dn3 
	.byte	W06
	.byte		N12   , En2 
	.byte		N12   , Cs3 
	.byte	W06
	.byte	W06
	.byte		N02   , En2 , v060
	.byte		N02   , Cs3 
	.byte	W06
	.byte		N06   , En2 , v068
	.byte		N06   , Cs3 
	.byte	W06
	.byte		N02   , En2 , v060
	.byte		N02   , Cs3 
	.byte	W06
	.byte		N06   , En2 , v068
	.byte		N06   , Cs3 
	.byte	W06
	.byte		N02   , En2 , v060
	.byte		N02   , Cs3 
	.byte	W06
	.byte		N06   , En2 
	.byte		N06   , An2 
	.byte	W06
	.byte		BEND  , c_v-2
	.byte		N12   , En2 , v068
	.byte		N12   , Cs3 
	.byte	W01
	.byte		BEND  , c_v-4
	.byte	W01
	.byte		        c_v-6
	.byte	W01
	.byte		        c_v-10
	.byte	W01
	.byte		        c_v-14
	.byte	W01
	.byte		        c_v-20
	.byte	W01
	.byte		        c_v-26
	.byte	W01
	.byte		        c_v-34
	.byte	W01
	.byte		        c_v-42
	.byte	W01
	.byte		        c_v-50
	.byte	W01
	.byte		        c_v-58
	.byte	W01
	.byte		        c_v-64
	.byte	W01
	.byte		        c_v+0
	.byte		N06   , An2 
	.byte	W06
	.byte		        Bn1 
	.byte	W06
	.byte		        Bn2 
	.byte	W06
	.byte		        Cn2 
	.byte	W06
	.byte		        Cn3 
	.byte	W06
	.byte		        Cs2 
	.byte	W06
	.byte		N12   , Cs3 
	.byte	W04
	.byte		BEND  , c_v+0
	.byte	W01
	.byte		        c_v-4
	.byte	W01
	.byte		        c_v-8
	.byte	W01
	.byte		        c_v-14
	.byte	W01
	.byte		        c_v-22
	.byte	W01
	.byte		        c_v-32
	.byte	W01
	.byte		        c_v-46
	.byte	W01
	.byte		        c_v-64
	.byte	W01
	.byte		        c_v+0
	.byte		N02   , Cs2 , v064
	.byte		N02   , An2 
	.byte	W06
	.byte		N06   , Cs2 , v068
	.byte		N06   , An2 
	.byte	W06
	.byte		N02   , Cs2 , v064
	.byte		N02   , An2 
	.byte	W06
	.byte		N06   , Cs2 , v068
	.byte		N06   , An2 
	.byte	W06
	.byte		N02   , Cs2 , v064
	.byte		N02   , An2 
	.byte	W06
	.byte		N06   , Cs2 
	.byte		N06   , En2 
	.byte	W06
	.byte		N12   , Cs2 , v068
	.byte		N12   , An2 
	.byte	W12
	.byte		N02   , Cs2 , v064
	.byte		N02   , An2 
	.byte	W06
	.byte		N06   , Cs2 , v068
	.byte		N06   , An2 
	.byte	W06
	.byte		N02   , Cs2 , v064
	.byte		N02   , En2 
	.byte	W06
	.byte		        Cs2 , v060
	.byte		N02   , An2 
	.byte	W06
	.byte		N18   , Cs2 , v072
	.byte		N18   , An2 
	.byte	W06
	.byte		BEND  , c_v-2
	.byte	W01
	.byte		        c_v-4
	.byte	W01
	.byte		        c_v-6
	.byte	W01
	.byte		        c_v-10
	.byte	W01
	.byte		        c_v-14
	.byte	W01
	.byte		        c_v-20
	.byte	W01
	.byte		        c_v-26
	.byte	W01
	.byte		        c_v-34
	.byte	W01
	.byte		        c_v-42
	.byte	W01
	.byte		        c_v-50
	.byte	W01
	.byte		        c_v-58
	.byte	W01
	.byte		        c_v-64
	.byte	W01
	.byte		        c_v+0
	.byte		N06   , Ds2 , v068
	.byte		N06   , Bn2 
	.byte	W06
	.byte		N02   , Ds2 , v064
	.byte		N02   , Bn2 
	.byte	W06
	.byte		N06   , Ds2 , v068
	.byte		N06   , Bn2 
	.byte	W06
	.byte		N02   , Ds2 , v064
	.byte		N02   , Bn2 
	.byte	W06
	.byte		N06   , Ds2 , v068
	.byte		N06   , Bn2 
	.byte	W06
	.byte		N02   , Ds2 , v064
	.byte		N02   , Bn2 
	.byte	W06
	.byte		N06   , Ds2 
	.byte		N06   , Fs2 
	.byte	W06
	.byte		N12   , Ds2 , v068
	.byte		N12   , Bn2 
	.byte	W12
	.byte		N02   , Ds2 , v064
	.byte		N02   , Bn2 
	.byte	W06
	.byte		N06   , Ds2 , v068
	.byte		N06   , Bn2 
	.byte	W06
	.byte		N04   , Ds2 , v064
	.byte		N04   , Fs2 
	.byte	W06
	.byte		N02   , Ds2 , v076
	.byte		N02   , Bn2 
	.byte	W03
	.byte		        Ds2 , v068
	.byte		N02   , Bn2 
	.byte	W03
	.byte		        Ds2 
	.byte		N02   , Bn2 
	.byte	W03
	.byte		        Ds2 , v076
	.byte		N02   , Bn2 
	.byte	W03
	.byte		BEND  , c_v+0
	.byte		N06   , Ds2 , v084
	.byte		N06   , Bn2 
	.byte	W01
	.byte		BEND  , c_v-6
	.byte	W01
	.byte		        c_v-16
	.byte	W01
	.byte		        c_v-30
	.byte	W01
	.byte		        c_v-46
	.byte	W01
	.byte		        c_v-64
	.byte	W01
	.byte		        c_v+0
	.byte		N12   , Fs2 , v068
	.byte		N12   , Dn3 
	.byte	W06
	.byte	W06
	.byte		N02   , Fs2 , v064
	.byte		N02   , Dn3 
	.byte	W06
	.byte		N06   , Fs2 , v068
	.byte		N06   , Dn3 
	.byte	W06
	.byte		N02   , Fs2 , v064
	.byte		N02   , Dn3 
	.byte	W06
	.byte		N06   , Fs2 , v068
	.byte		N06   , Dn3 
	.byte	W06
	.byte		N02   , Fs2 , v064
	.byte		N02   , Dn3 
	.byte	W06
	.byte		N06   , Fs2 
	.byte		N06   , An2 
	.byte	W06
	.byte		N12   , Fs2 , v068
	.byte		N12   , Dn3 
	.byte	W12
	.byte		N02   , Fs2 , v064
	.byte		N02   , Dn3 
	.byte	W06
	.byte		N06   , Fs2 , v068
	.byte		N06   , Dn3 
	.byte	W06
	.byte		N02   , Fs2 , v064
	.byte		N02   , An2 
	.byte	W06
	.byte		N08   , Fs2 , v072
	.byte		N08   , Dn3 
	.byte	W08
	.byte		        Dn3 , v076
	.byte		N08   , Fs3 
	.byte	W08
	.byte		        Dn2 , v072
	.byte		N08   , An2 
	.byte	W08
	.byte		N66   , An2 , v060
	.byte		N90   , Cs3 , v076
	.byte	W36
	.byte	W01
	.byte		VOL   , 61*seq_052_mvl/mxv
	.byte	W05
	.byte		        59*seq_052_mvl/mxv
	.byte		BEND  , c_v-3
	.byte	W02
	.byte		        c_v-2
	.byte	W02
	.byte		VOL   , 58*seq_052_mvl/mxv
	.byte	W02
	.byte		BEND  , c_v-3
	.byte	W03
	.byte		VOL   , 56*seq_052_mvl/mxv
	.byte	W02
	.byte		BEND  , c_v-2
	.byte	W02
	.byte		VOL   , 53*seq_052_mvl/mxv
	.byte		BEND  , c_v+0
	.byte	W02
	.byte		        c_v-2
	.byte	W03
	.byte		VOL   , 51*seq_052_mvl/mxv
	.byte	W02
	.byte		BEND  , c_v+0
	.byte	W02
	.byte		VOL   , 48*seq_052_mvl/mxv
	.byte		BEND  , c_v+1
	.byte	W05
	.byte		VOL   , 44*seq_052_mvl/mxv
	.byte		BEND  , c_v-2
	.byte	W02
	.byte		        c_v+0
	.byte	W02
	.byte		VOL   , 40*seq_052_mvl/mxv
	.byte		BEND  , c_v-2
	.byte	W05
	.byte		VOL   , 37*seq_052_mvl/mxv
	.byte		BEND  , c_v-2
	.byte	W01
	.byte		        c_v-4
	.byte	W01
	.byte		        c_v-6
	.byte	W01
	.byte		        c_v-10
	.byte	W01
	.byte		VOL   , 32*seq_052_mvl/mxv
	.byte		BEND  , c_v-14
	.byte	W01
	.byte		        c_v-20
	.byte	W01
	.byte		        c_v-26
	.byte	W01
	.byte		        c_v-34
	.byte	W01
	.byte		        c_v-42
	.byte	W01
	.byte		VOL   , 28*seq_052_mvl/mxv
	.byte		BEND  , c_v-50
	.byte	W01
	.byte		        c_v-58
	.byte	W01
	.byte		        c_v-64
	.byte	W01
	.byte		VOL   , 63*seq_052_mvl/mxv
	.byte		BEND  , c_v+0
	.byte		N36   , Fs2 , v064
	.byte		N36   , Dn3 
	.byte	W06
	.byte	W30
	.byte		N06   , Fs2 
	.byte		N06   , Dn3 
	.byte	W06
	.byte		N02   , Fs2 , v060
	.byte		N02   , An2 
	.byte	W06
	.byte		N12   , Fs2 , v064
	.byte		N12   , Dn3 
	.byte	W12
	.byte		N02   , Fs2 , v060
	.byte		N02   , Dn3 
	.byte	W06
	.byte		N06   , Fs2 , v064
	.byte		N06   , Dn3 
	.byte	W06
	.byte		N02   , Fs2 , v060
	.byte		N02   , An2 
	.byte	W06
	.byte		        Fs2 , v056
	.byte		N02   , Dn3 
	.byte	W06
	.byte		N18   , Fs2 , v068
	.byte		N18   , Dn3 
	.byte	W06
	.byte		BEND  , c_v-2
	.byte	W01
	.byte		        c_v-4
	.byte	W01
	.byte		        c_v-6
	.byte	W01
	.byte		        c_v-10
	.byte	W01
	.byte		        c_v-14
	.byte	W01
	.byte		        c_v-20
	.byte	W01
	.byte		        c_v-26
	.byte	W01
	.byte		        c_v-34
	.byte	W01
	.byte		        c_v-42
	.byte	W01
	.byte		        c_v-50
	.byte	W01
	.byte		        c_v-58
	.byte	W01
	.byte		        c_v-64
	.byte	W01
	.byte		        c_v+0
	.byte		N06   , En2 
	.byte		N06   , Cs3 
	.byte	W06
	.byte		N02   , En2 , v064
	.byte		N02   , Cs3 
	.byte	W06
	.byte		N06   , En2 , v068
	.byte		N06   , Cs3 
	.byte	W06
	.byte		N02   , En2 , v064
	.byte		N02   , Cs3 
	.byte	W06
	.byte		N06   , En2 , v068
	.byte		N06   , Cs3 
	.byte	W06
	.byte		N02   , En2 , v064
	.byte		N02   , Cs3 
	.byte	W06
	.byte		N06   , En2 , v060
	.byte		N06   , An2 
	.byte	W06
	.byte		N12   , En2 , v064
	.byte		N12   , Cs3 
	.byte	W12
	.byte		N02   , En2 , v060
	.byte		N02   , Cs3 
	.byte	W06
	.byte		N06   , En2 , v064
	.byte		N06   , Cs3 
	.byte	W06
	.byte		N02   , En2 , v060
	.byte		N02   , An2 
	.byte	W06
	.byte		        En2 , v056
	.byte		N02   , Cs3 
	.byte	W06
	.byte		N18   , En2 , v068
	.byte		N18   , Cs3 
	.byte	W06
	.byte		BEND  , c_v-2
	.byte	W01
	.byte		        c_v-4
	.byte	W01
	.byte		        c_v-6
	.byte	W01
	.byte		        c_v-10
	.byte	W01
	.byte		        c_v-14
	.byte	W01
	.byte		        c_v-20
	.byte	W01
	.byte		        c_v-26
	.byte	W01
	.byte		        c_v-34
	.byte	W01
	.byte		        c_v-42
	.byte	W01
	.byte		        c_v-50
	.byte	W01
	.byte		        c_v-58
	.byte	W01
	.byte		        c_v-64
	.byte	W01
	.byte		        c_v+0
	.byte		N30   , Dn2 , v064
	.byte		N30   , Bn2 
	.byte	W30
	.byte		N06   , Dn2 
	.byte		N06   , Bn2 
	.byte	W06
	.byte		N02   , Dn2 , v060
	.byte		N02   , Fs2 
	.byte	W06
	.byte		N12   , Dn2 , v064
	.byte		N12   , Bn2 
	.byte	W12
	.byte		N02   , Dn2 , v060
	.byte		N02   , Bn2 
	.byte	W06
	.byte		N06   , Dn2 , v064
	.byte		N06   , Bn2 
	.byte	W06
	.byte		N02   , Dn2 , v060
	.byte		N02   , Fs2 
	.byte	W06
	.byte		        Dn2 , v056
	.byte		N02   , Bn2 
	.byte	W06
	.byte		BEND  , c_v+0
	.byte		N12   , Dn2 , v068
	.byte		N12   , Bn2 
	.byte	W01
	.byte		BEND  , c_v-1
	.byte	W01
	.byte		        c_v-3
	.byte	W01
	.byte		        c_v-7
	.byte	W01
	.byte		        c_v-11
	.byte	W01
	.byte		        c_v-17
	.byte	W01
	.byte		        c_v-24
	.byte	W01
	.byte		        c_v-33
	.byte	W01
	.byte		        c_v-43
	.byte	W02
	.byte		        c_v-54
	.byte	W01
	.byte		        c_v-64
	.byte	W01
	.byte		        c_v-18
	.byte		N36   , An2 , v088
	.byte	W01
	.byte		BEND  , c_v-14
	.byte	W02
	.byte		        c_v-11
	.byte	W01
	.byte		        c_v-8
	.byte	W02
	.byte		        c_v-5
	.byte	W01
	.byte		        c_v-3
	.byte	W02
	.byte		        c_v-2
	.byte	W01
	.byte		        c_v-1
	.byte	W01
	.byte		        c_v-1
	.byte	W01
	.byte		        c_v+0
	.byte	W24
	.byte		N06   , En2 
	.byte	W06
	.byte		        Cs2 
	.byte	W06
	.byte		BEND  , c_v-14
	.byte		N12   , An2 
	.byte	W01
	.byte		BEND  , c_v-8
	.byte	W02
	.byte		        c_v-4
	.byte	W01
	.byte		        c_v-1
	.byte	W02
	.byte		        c_v+0
	.byte	W06
	.byte		N06   , En2 
	.byte	W06
	.byte		        Cs3 
	.byte	W06
	.byte		        An2 , v080
	.byte	W06
	.byte		        Cs3 , v088
	.byte	W06
	.byte		        An2 , v080
	.byte	W06
	.byte		        En3 , v088
	.byte	W06
	.byte		N48   , Dn3 , v068
	.byte	W06
	.byte	W18
	.byte		BEND  , c_v+0
	.byte	W01
	.byte		        c_v-1
	.byte	W02
	.byte		        c_v-1
	.byte	W01
	.byte		        c_v-1
	.byte	W02
	.byte		        c_v-1
	.byte	W01
	.byte		        c_v-1
	.byte	W02
	.byte		        c_v-2
	.byte	W01
	.byte		        c_v-2
	.byte	W01
	.byte		        c_v-3
	.byte	W01
	.byte		N06   , An2 , v064
	.byte	W01
	.byte		BEND  , c_v-4
	.byte	W01
	.byte		        c_v-4
	.byte	W02
	.byte		        c_v-5
	.byte	W01
	.byte		        c_v-6
	.byte	W01
	.byte		N02   , Fs2 , v060
	.byte	W01
	.byte		BEND  , c_v-7
	.byte	W01
	.byte		        c_v-8
	.byte	W02
	.byte		        c_v-9
	.byte	W01
	.byte		        c_v-10
	.byte	W01
	.byte		        c_v+0
	.byte		N12   , Dn2 , v064
	.byte		N12   , An2 
	.byte	W12
	.byte		N02   , Dn2 , v060
	.byte		N02   , An2 
	.byte	W06
	.byte		N06   , Dn2 , v064
	.byte		N06   , An2 
	.byte	W06
	.byte		N02   , Dn2 , v060
	.byte		N02   , Fs2 
	.byte	W06
	.byte		        Dn2 , v056
	.byte		N02   , An2 
	.byte	W06
	.byte		N18   , Dn2 , v068
	.byte		N18   , An2 
	.byte	W06
	.byte		BEND  , c_v-2
	.byte	W01
	.byte		        c_v-4
	.byte	W01
	.byte		        c_v-6
	.byte	W01
	.byte		        c_v-10
	.byte	W01
	.byte		        c_v-14
	.byte	W01
	.byte		        c_v-20
	.byte	W01
	.byte		        c_v-26
	.byte	W01
	.byte		        c_v-34
	.byte	W01
	.byte		        c_v-42
	.byte	W01
	.byte		        c_v-50
	.byte	W01
	.byte		        c_v-58
	.byte	W01
	.byte		        c_v-64
	.byte	W01
	.byte		        c_v+0
	.byte		N06   , Cs2 
	.byte		N06   , An2 
	.byte	W06
	.byte		N02   , Cs2 , v064
	.byte		N02   , An2 
	.byte	W06
	.byte		N06   , Cs2 , v068
	.byte		N06   , An2 
	.byte	W06
	.byte		N02   , Cs2 , v064
	.byte		N02   , An2 
	.byte	W06
	.byte		N06   , Cs2 , v068
	.byte		N06   , An2 
	.byte	W06
	.byte		N02   , Cs2 , v064
	.byte		N02   , An2 
	.byte	W06
	.byte		N06   , Cs2 , v060
	.byte		N06   , En2 
	.byte	W06
	.byte		N12   , Cs2 , v064
	.byte		N12   , An2 
	.byte	W12
	.byte		N02   , Cs2 , v060
	.byte		N02   , An2 
	.byte	W06
	.byte		N06   , Cs2 , v064
	.byte		N06   , An2 
	.byte	W06
	.byte		N02   , Cs2 , v060
	.byte		N02   , En2 
	.byte	W06
	.byte		        Cs2 , v056
	.byte		N02   , An2 
	.byte	W06
	.byte		N12   , Cs2 , v068
	.byte		N12   , An2 
	.byte	W04
	.byte		BEND  , c_v+0
	.byte	W01
	.byte		        c_v-4
	.byte	W01
	.byte		        c_v-8
	.byte	W01
	.byte		        c_v-14
	.byte	W01
	.byte		        c_v-22
	.byte	W01
	.byte		        c_v-32
	.byte	W01
	.byte		        c_v-46
	.byte	W01
	.byte		        c_v-64
	.byte	W01
	.byte		        c_v+0
	.byte		N48   , Ds2 , v064
	.byte		N48   , Bn2 
	.byte	W06
	.byte	W42
	.byte		N54   , Fs2 
	.byte		N54   , Ds3 
	.byte	W54
	.byte		N06   , En2 
	.byte		N06   , Bn2 
	.byte	W06
	.byte		N02   , En2 , v060
	.byte		N02   , Bn2 
	.byte	W06
	.byte		N06   , Bn2 , v064
	.byte	W06
	.byte		N02   , En2 , v060
	.byte		N02   , Bn2 
	.byte	W06
	.byte		N06   , En2 , v064
	.byte		N06   , Bn2 
	.byte	W06
	.byte		N02   , En2 , v060
	.byte		N02   , Bn2 
	.byte	W06
	.byte		N06   , En2 
	.byte		N06   , Gs2 
	.byte	W06
	.byte		N12   , En2 , v064
	.byte		N12   , Bn2 
	.byte	W12
	.byte		N02   , En2 , v060
	.byte		N02   , Bn2 
	.byte	W06
	.byte		N06   , En2 , v064
	.byte		N06   , Bn2 
	.byte	W06
	.byte		N02   , En2 , v060
	.byte		N02   , Gs2 
	.byte	W06
	.byte		        En2 , v056
	.byte		N02   , Bn2 
	.byte	W06
	.byte		N18   , En2 , v068
	.byte		N18   , Bn2 
	.byte	W06
	.byte		BEND  , c_v-2
	.byte	W01
	.byte		        c_v-4
	.byte	W01
	.byte		        c_v-6
	.byte	W01
	.byte		        c_v-10
	.byte	W01
	.byte		        c_v-14
	.byte	W01
	.byte		        c_v-20
	.byte	W01
	.byte		        c_v-26
	.byte	W01
	.byte		        c_v-34
	.byte	W01
	.byte		        c_v-42
	.byte	W01
	.byte		        c_v-50
	.byte	W01
	.byte		        c_v-58
	.byte	W01
	.byte		        c_v-64
	.byte	W01
	.byte		        c_v+0
	.byte		N06   , Gs2 , v064
	.byte		N06   , En3 
	.byte	W06
	.byte		N02   , Gs2 , v060
	.byte		N02   , En3 
	.byte	W06
	.byte		N06   , Bn2 
	.byte	W06
	.byte		N12   , Gs2 , v064
	.byte		N12   , En3 
	.byte	W12
	.byte		N02   , Gs2 , v060
	.byte		N02   , Bn2 
	.byte	W06
	.byte		N06   , Gs2 , v064
	.byte		N06   , En3 
	.byte	W06
	.byte		N02   , Gs2 , v060
	.byte		N02   , Bn2 
	.byte	W06
	.byte		VOL   , 78*seq_052_mvl/mxv
	.byte		BEND  , c_v+0
	.byte		N02   , En2 , v064
	.byte		N02   , Bn2 
	.byte	W03
	.byte		        En2 
	.byte		N02   , Bn2 
	.byte	W03
	.byte		N08   , En2 
	.byte		N08   , Bn2 
	.byte	W03
	.byte		VOL   , 75*seq_052_mvl/mxv
	.byte	W01
	.byte		        67*seq_052_mvl/mxv
	.byte	W01
	.byte		        55*seq_052_mvl/mxv
	.byte	W01
	.byte		        39*seq_052_mvl/mxv
	.byte	W01
	.byte		        12*seq_052_mvl/mxv
	.byte	W01
	.byte		        0*seq_052_mvl/mxv
	.byte	W04
	.byte		        78*seq_052_mvl/mxv
	.byte		N02   , En2 
	.byte		N02   , Bn2 
	.byte	W03
	.byte		        En2 
	.byte		N02   , Bn2 
	.byte	W03
	.byte		N08   , En2 
	.byte		N08   , Bn2 
	.byte	W03
	.byte		VOL   , 75*seq_052_mvl/mxv
	.byte	W01
	.byte		        67*seq_052_mvl/mxv
	.byte	W01
	.byte		        55*seq_052_mvl/mxv
	.byte	W01
	.byte		        39*seq_052_mvl/mxv
	.byte	W01
	.byte		        12*seq_052_mvl/mxv
	.byte	W01
	.byte		        0*seq_052_mvl/mxv
	.byte	W04
	.byte		        86*seq_052_mvl/mxv
	.byte		N04   , En3 , v088
	.byte	W04
	.byte		        Bn2 
	.byte	W04
	.byte		        Gs2 , v080
	.byte	W02
	.byte		BEND  , c_v+0
	.byte	W02
	.byte		VOL   , 62*seq_052_mvl/mxv
	.byte		N06   , Cs2 , v068
	.byte		N06   , An2 
	.byte	W06
	.byte		N02   , Cs2 , v064
	.byte		N02   , An2 
	.byte	W06
	.byte		N06   , Cs2 , v068
	.byte		N06   , An2 
	.byte	W06
	.byte		N02   , Cs2 , v064
	.byte		N02   , An2 
	.byte	W06
	.byte		N06   , Cs2 , v068
	.byte		N06   , An2 
	.byte	W06
	.byte		N02   , Cs2 , v064
	.byte		N02   , An2 
	.byte	W06
	.byte		N06   , Cs2 
	.byte		N06   , En2 
	.byte	W06
	.byte		N12   , Cs2 , v068
	.byte		N12   , An2 
	.byte	W12
	.byte		N02   , Cs2 , v064
	.byte		N02   , An2 
	.byte	W06
	.byte		N06   , Cs2 , v068
	.byte		N06   , An2 
	.byte	W06
	.byte		N02   , Cs2 , v064
	.byte		N02   , En2 
	.byte	W06
	.byte	GOTO
	 .word	seq_052_1 + 0x4B
	.byte	FINE

@*********************** Track 03 ***********************@

seq_052_2:
	.byte	KEYSH , seq_052_key+0
	.byte		VOICE , 61
	.byte		VOL   , 94*seq_052_mvl/mxv
	.byte		PAN   , c_v+0
	.byte	W72
	.byte	W24
	.byte	W96
	.byte	W96
	.byte	W54
	.byte		N05   , Cs4 , v100
	.byte	W12
	.byte		        Dn4 
	.byte	W12
	.byte		        En4 
	.byte	W12
	.byte		N10   , An4 , v096
	.byte	W06
	.byte	W04
	.byte		N02   , En4 , v084
	.byte	W02
	.byte		N01   , Cs4 , v080
	.byte	W01
	.byte		        An3 , v072
	.byte	W52
	.byte	W01
	.byte		N03   , En4 , v116
	.byte	W12
	.byte		N02
	.byte	W03
	.byte		        En4 , v100
	.byte	W03
	.byte		N03   , En4 , v116
	.byte	W18
	.byte	W54
	.byte		N12   , Fs4 
	.byte	W02
	.byte		VOL   , 89*seq_052_mvl/mxv
	.byte	W02
	.byte		        86*seq_052_mvl/mxv
	.byte	W03
	.byte		        81*seq_052_mvl/mxv
	.byte	W02
	.byte		        73*seq_052_mvl/mxv
	.byte	W02
	.byte		        62*seq_052_mvl/mxv
	.byte	W03
	.byte		        51*seq_052_mvl/mxv
	.byte	W02
	.byte		        40*seq_052_mvl/mxv
	.byte	W02
	.byte		        92*seq_052_mvl/mxv
	.byte		N02   , Fs4 , v112
	.byte	W03
	.byte		        Fs4 , v100
	.byte	W03
	.byte		N03   , Fs4 , v116
	.byte	W18
	.byte	W18
	.byte		N06
	.byte	W06
	.byte		N02   , Dn4 , v104
	.byte	W02
	.byte		N01   , An3 , v096
	.byte	W01
	.byte		        Fs3 , v088
	.byte	W48
	.byte	W03
	.byte		N16   , Fs4 , v120
	.byte	W02
	.byte		VOL   , 89*seq_052_mvl/mxv
	.byte	W02
	.byte		        86*seq_052_mvl/mxv
	.byte	W03
	.byte		        81*seq_052_mvl/mxv
	.byte	W02
	.byte		        73*seq_052_mvl/mxv
	.byte	W02
	.byte		        62*seq_052_mvl/mxv
	.byte	W03
	.byte		        51*seq_052_mvl/mxv
	.byte	W02
	.byte		        40*seq_052_mvl/mxv
	.byte	W02
	.byte	W24
	.byte		        92*seq_052_mvl/mxv
	.byte	W18
	.byte		N24   , Cs4 , v104
	.byte	W24
	.byte		N06   , Dn4 
	.byte	W12
	.byte		        En4 , v112
	.byte	W12
	.byte		N60   , Fs4 , v104
	.byte	W06
	.byte	W60
	.byte		N06   , Gs4 
	.byte	W18
	.byte		N18   , Bn4 , v092
	.byte	W18
	.byte		        An4 
	.byte	W18
	.byte		N78   , En4 , v104
	.byte	W40
	.byte		VOL   , 90*seq_052_mvl/mxv
	.byte	W05
	.byte		        87*seq_052_mvl/mxv
	.byte	W04
	.byte		        82*seq_052_mvl/mxv
	.byte	W05
	.byte		        74*seq_052_mvl/mxv
	.byte	W04
	.byte		        66*seq_052_mvl/mxv
	.byte	W05
	.byte		        55*seq_052_mvl/mxv
	.byte	W04
	.byte		        42*seq_052_mvl/mxv
	.byte	W05
	.byte		        28*seq_052_mvl/mxv
	.byte	W06
	.byte		        92*seq_052_mvl/mxv
	.byte		N60   , Dn4 
	.byte	W60
	.byte		N06   , Cs4 
	.byte	W12
	.byte		        Dn4 
	.byte	W06
	.byte		        Fs4 
	.byte	W12
	.byte		N90   , En4 
	.byte	W06
	.byte	W52
	.byte		VOL   , 90*seq_052_mvl/mxv
	.byte	W05
	.byte		        87*seq_052_mvl/mxv
	.byte	W04
	.byte		        82*seq_052_mvl/mxv
	.byte	W05
	.byte		        74*seq_052_mvl/mxv
	.byte	W04
	.byte		        66*seq_052_mvl/mxv
	.byte	W05
	.byte		        55*seq_052_mvl/mxv
	.byte	W04
	.byte		        42*seq_052_mvl/mxv
	.byte	W05
	.byte		        28*seq_052_mvl/mxv
	.byte	W06
	.byte		        92*seq_052_mvl/mxv
	.byte		N66   , Dn4 , v120
	.byte	W06
	.byte	W60
	.byte		N06   , En4 , v112
	.byte	W18
	.byte		N18   , Fs4 
	.byte	W18
	.byte		        En4 
	.byte	W18
	.byte		N24   , An3 
	.byte	W08
	.byte		VOL   , 89*seq_052_mvl/mxv
	.byte	W02
	.byte		        86*seq_052_mvl/mxv
	.byte	W03
	.byte		        81*seq_052_mvl/mxv
	.byte	W02
	.byte		        73*seq_052_mvl/mxv
	.byte	W02
	.byte		        62*seq_052_mvl/mxv
	.byte	W03
	.byte		        51*seq_052_mvl/mxv
	.byte	W02
	.byte		        40*seq_052_mvl/mxv
	.byte	W02
	.byte		        92*seq_052_mvl/mxv
	.byte		N48   , An4 , v104
	.byte	W32
	.byte		VOL   , 89*seq_052_mvl/mxv
	.byte	W02
	.byte		        86*seq_052_mvl/mxv
	.byte	W03
	.byte		        81*seq_052_mvl/mxv
	.byte	W02
	.byte		        73*seq_052_mvl/mxv
	.byte	W02
	.byte		        62*seq_052_mvl/mxv
	.byte	W03
	.byte		        51*seq_052_mvl/mxv
	.byte	W02
	.byte		        40*seq_052_mvl/mxv
	.byte	W02
	.byte		        92*seq_052_mvl/mxv
	.byte		N24   , Fs4 , v112
	.byte	W06
	.byte	W18
	.byte		        Bn3 
	.byte	W24
	.byte		N18   , Bn4 , v104
	.byte	W18
	.byte		N12   , An4 
	.byte	W12
	.byte		N06   , Gs4 , v108
	.byte	W06
	.byte		N18   , Fs4 , v116
	.byte	W18
	.byte		        An4 , v108
	.byte	W18
	.byte		N24   , Gs4 
	.byte	W24
	.byte		N06   , Fs4 
	.byte	W12
	.byte		N42   , Gs4 
	.byte	W20
	.byte		VOL   , 92*seq_052_mvl/mxv
	.byte	W02
	.byte		        90*seq_052_mvl/mxv
	.byte	W02
	.byte		        87*seq_052_mvl/mxv
	.byte	W03
	.byte		        83*seq_052_mvl/mxv
	.byte	W02
	.byte		        78*seq_052_mvl/mxv
	.byte	W02
	.byte		        72*seq_052_mvl/mxv
	.byte	W02
	.byte		        64*seq_052_mvl/mxv
	.byte	W02
	.byte		        55*seq_052_mvl/mxv
	.byte	W03
	.byte		        46*seq_052_mvl/mxv
	.byte	W02
	.byte		        35*seq_052_mvl/mxv
	.byte	W02
	.byte		        85*seq_052_mvl/mxv
	.byte		N18   , En4 , v112
	.byte	W18
	.byte		        Dn4 
	.byte	W18
	.byte		N06   , En4 , v116
	.byte	W06
	.byte		        Fs4 
	.byte	W06
	.byte		N03   , Gs4 
	.byte	W03
	.byte		        Gs4 , v108
	.byte	W03
	.byte		N08   , Gs4 , v116
	.byte	W03
	.byte		VOL   , 82*seq_052_mvl/mxv
	.byte	W01
	.byte		        74*seq_052_mvl/mxv
	.byte	W01
	.byte		        60*seq_052_mvl/mxv
	.byte	W01
	.byte		        43*seq_052_mvl/mxv
	.byte	W01
	.byte		        13*seq_052_mvl/mxv
	.byte	W01
	.byte		        0*seq_052_mvl/mxv
	.byte	W04
	.byte		        86*seq_052_mvl/mxv
	.byte		N03
	.byte	W03
	.byte		        Gs4 , v104
	.byte	W03
	.byte		N08   , Gs4 , v116
	.byte	W03
	.byte		VOL   , 82*seq_052_mvl/mxv
	.byte	W01
	.byte		        74*seq_052_mvl/mxv
	.byte	W01
	.byte		        60*seq_052_mvl/mxv
	.byte	W01
	.byte		        43*seq_052_mvl/mxv
	.byte	W01
	.byte		        13*seq_052_mvl/mxv
	.byte	W01
	.byte		        0*seq_052_mvl/mxv
	.byte	W04
	.byte		        86*seq_052_mvl/mxv
	.byte		N03
	.byte	W03
	.byte		        Gs4 , v104
	.byte	W03
	.byte		N11   , Gs4 , v116
	.byte	W06
	.byte		VOL   , 82*seq_052_mvl/mxv
	.byte	W01
	.byte		        74*seq_052_mvl/mxv
	.byte	W01
	.byte		        60*seq_052_mvl/mxv
	.byte	W01
	.byte		        43*seq_052_mvl/mxv
	.byte	W01
	.byte		        13*seq_052_mvl/mxv
	.byte	W01
	.byte		        0*seq_052_mvl/mxv
	.byte	W19
	.byte		        86*seq_052_mvl/mxv
	.byte	W48
	.byte	GOTO
	 .word	seq_052_2 + 0x9
	.byte	FINE

@*********************** Track 04 ***********************@

seq_052_3:
	.byte	KEYSH , seq_052_key+0
	.byte		VOICE , 102
	.byte		VOL   , 62*seq_052_mvl/mxv
	.byte		PAN   , c_v+0
	.byte	W72
	.byte	W24
	.byte	W96
	.byte	W96
	.byte	W54
	.byte		N05   , En3 , v068
	.byte	W12
	.byte		        Fs3 
	.byte	W12
	.byte		        Gs3 
	.byte	W12
	.byte		N10   , Cs4 
	.byte	W06
	.byte	W04
	.byte		N02   , An3 
	.byte	W02
	.byte		N01   , En3 , v064
	.byte	W01
	.byte		        Cs3 , v056
	.byte	W52
	.byte	W01
	.byte		N03   , Cs4 , v072
	.byte	W12
	.byte		N02   , Cs4 , v068
	.byte	W03
	.byte		        Cs4 , v056
	.byte	W03
	.byte		N03   , Cs4 , v072
	.byte	W18
	.byte	W54
	.byte		N13   , Bn3 , v068
	.byte	W18
	.byte		N02
	.byte	W03
	.byte		        Bn3 , v056
	.byte	W03
	.byte		N03   , Bn3 , v072
	.byte	W18
	.byte	W18
	.byte		N06   , Dn4 , v068
	.byte	W06
	.byte		N02   , An3 , v060
	.byte	W02
	.byte		N01   , Fs3 , v048
	.byte	W01
	.byte		        Dn3 , v044
	.byte	W48
	.byte	W03
	.byte		N16   , An3 , v068
	.byte	W18
	.byte	W42
	.byte		N24   , En3 
	.byte	W24
	.byte		N06   , Fs3 , v064
	.byte	W12
	.byte		        Gn3 , v068
	.byte	W12
	.byte		N60   , An3 
	.byte	W06
	.byte	W60
	.byte		N06   , Bn3 
	.byte	W18
	.byte		N18   , Dn4 
	.byte	W18
	.byte		        Cs4 
	.byte	W18
	.byte		N78   , An3 
	.byte	W78
	.byte		N60   , Fs3 
	.byte	W60
	.byte		N06   , En3 
	.byte	W12
	.byte		        Fs3 
	.byte	W06
	.byte		        An3 
	.byte	W12
	.byte		N90
	.byte	W06
	.byte	W90
	.byte		N66   , Fs3 , v092
	.byte	W06
	.byte	W60
	.byte		N06   , Gs3 , v084
	.byte	W18
	.byte		N18   , Bn3 
	.byte	W18
	.byte		        An3 
	.byte	W18
	.byte		N24   , En3 
	.byte	W24
	.byte		N48   , Cs4 
	.byte	W48
	.byte		N24   , Bn3 
	.byte	W06
	.byte	W18
	.byte		        Fs3 
	.byte	W24
	.byte		N18   , Ds4 
	.byte	W18
	.byte		N12   , Cs4 
	.byte	W12
	.byte		N06   , Bn3 
	.byte	W06
	.byte		N18   , Ds4 
	.byte	W18
	.byte		        Dn4 
	.byte	W18
	.byte		N24   , Bn3 
	.byte	W24
	.byte		N06   , An3 
	.byte	W12
	.byte		N42   , Bn3 
	.byte	W42
	.byte		N18   , Gs3 , v068
	.byte	W18
	.byte		        Fs3 
	.byte	W18
	.byte		N06   , Gs3 
	.byte	W06
	.byte		        An3 
	.byte	W06
	.byte		N02   , Bn3 
	.byte	W03
	.byte		        Bn3 , v060
	.byte	W03
	.byte		N08   , Bn3 , v068
	.byte	W03
	.byte		VOL   , 59*seq_052_mvl/mxv
	.byte	W01
	.byte		        53*seq_052_mvl/mxv
	.byte	W01
	.byte		        44*seq_052_mvl/mxv
	.byte	W01
	.byte		        31*seq_052_mvl/mxv
	.byte	W01
	.byte		        9*seq_052_mvl/mxv
	.byte	W01
	.byte		        0*seq_052_mvl/mxv
	.byte	W04
	.byte		        62*seq_052_mvl/mxv
	.byte		N02
	.byte	W03
	.byte		        Bn3 , v060
	.byte	W03
	.byte		N08   , Bn3 , v068
	.byte	W03
	.byte		VOL   , 59*seq_052_mvl/mxv
	.byte	W01
	.byte		        53*seq_052_mvl/mxv
	.byte	W01
	.byte		        44*seq_052_mvl/mxv
	.byte	W01
	.byte		        31*seq_052_mvl/mxv
	.byte	W01
	.byte		        9*seq_052_mvl/mxv
	.byte	W01
	.byte		        0*seq_052_mvl/mxv
	.byte	W04
	.byte		        62*seq_052_mvl/mxv
	.byte		N02
	.byte	W03
	.byte		        Bn3 , v056
	.byte	W03
	.byte		N11   , Bn3 , v068
	.byte	W06
	.byte		VOL   , 59*seq_052_mvl/mxv
	.byte	W01
	.byte		        53*seq_052_mvl/mxv
	.byte	W01
	.byte		        44*seq_052_mvl/mxv
	.byte	W01
	.byte		        31*seq_052_mvl/mxv
	.byte	W01
	.byte		        9*seq_052_mvl/mxv
	.byte	W01
	.byte		        0*seq_052_mvl/mxv
	.byte	W19
	.byte		        62*seq_052_mvl/mxv
	.byte	W48
	.byte	GOTO
	 .word	seq_052_3 + 0x9
	.byte	FINE

@*********************** Track 05 ***********************@

seq_052_4:
	.byte	KEYSH , seq_052_key+0
	.byte		VOICE , 124
	.byte		VOL   , 55*seq_052_mvl/mxv
	.byte		PAN   , c_v+0
	.byte		BENDR , 8
	.byte	W14
	.byte		BEND  , c_v-26
	.byte		N18   , Cs4 , v072
	.byte	W01
	.byte		BEND  , c_v-11
	.byte	W01
	.byte		        c_v-2
	.byte	W01
	.byte		        c_v+0
	.byte	W15
	.byte		N06
	.byte	W06
	.byte		        An3 
	.byte	W06
	.byte		N30   , En4 
	.byte	W11
	.byte		BEND  , c_v+0
	.byte	W02
	.byte		        c_v+0
	.byte	W01
	.byte		        c_v-2
	.byte	W01
	.byte		        c_v-4
	.byte	W02
	.byte		        c_v-2
	.byte	W01
	.byte		        c_v+2
	.byte	W01
	.byte		        c_v+2
	.byte	W01
	.byte		        c_v+4
	.byte	W01
	.byte		        c_v+6
	.byte	W01
	.byte		        c_v+2
	.byte	W01
	.byte		        c_v-2
	.byte	W01
	.byte		        c_v-4
	.byte	W03
	.byte		        c_v-2
	.byte	W01
	.byte		BEND  , c_v+0
	.byte	W01
	.byte		        c_v+4
	.byte	W01
	.byte		N08   , En4 , v072
	.byte	W01
	.byte		BEND  , c_v-9
	.byte	W01
	.byte		        c_v-2
	.byte	W01
	.byte		        c_v+0
	.byte	W05
	.byte		N08   , Fs4 
	.byte	W06
	.byte		BEND  , c_v+0
	.byte	W01
	.byte		        c_v-6
	.byte	W01
	.byte		        c_v+0
	.byte		N14   , En4 
	.byte	W06
	.byte	W02
	.byte		BEND  , c_v+0
	.byte	W12
	.byte		        c_v-26
	.byte		N18   , Ds4 
	.byte	W01
	.byte		BEND  , c_v-11
	.byte	W01
	.byte		        c_v-2
	.byte	W01
	.byte		        c_v+0
	.byte	W15
	.byte		N06
	.byte	W06
	.byte		        Bn3 
	.byte	W06
	.byte		N36   , Fs4 
	.byte	W24
	.byte		BEND  , c_v-2
	.byte	W06
	.byte		        c_v-4
	.byte	W06
	.byte		        c_v-22
	.byte		N12   , Fs3 
	.byte	W01
	.byte		BEND  , c_v-5
	.byte	W01
	.byte		        c_v+0
	.byte	W10
	.byte		N06   , Gs3 
	.byte	W04
	.byte	W02
	.byte		BEND  , c_v-14
	.byte		N18   , An3 
	.byte	W01
	.byte		BEND  , c_v-8
	.byte	W01
	.byte		        c_v-3
	.byte	W01
	.byte		        c_v-1
	.byte	W01
	.byte		        c_v+0
	.byte	W10
	.byte		        c_v-4
	.byte	W04
	.byte		        c_v+0
	.byte		N18   , Fs3 
	.byte	W18
	.byte		N12   , An3 
	.byte	W12
	.byte		BEND  , c_v-22
	.byte		N24   , Dn4 
	.byte	W01
	.byte		BEND  , c_v-12
	.byte	W01
	.byte		        c_v-4
	.byte	W01
	.byte		        c_v-1
	.byte	W01
	.byte		        c_v+0
	.byte	W15
	.byte		        c_v-4
	.byte	W02
	.byte		        c_v-8
	.byte	W03
	.byte		        c_v-20
	.byte		N08
	.byte	W01
	.byte		BEND  , c_v-8
	.byte	W01
	.byte		        c_v-2
	.byte	W01
	.byte		        c_v+0
	.byte	W05
	.byte		N08   , En4 
	.byte	W08
	.byte		        Dn4 
	.byte	W06
	.byte	W02
	.byte		BEND  , c_v-20
	.byte		N30   , Cs4 
	.byte	W01
	.byte		BEND  , c_v-11
	.byte	W01
	.byte		        c_v-4
	.byte	W01
	.byte		        c_v-1
	.byte	W01
	.byte		        c_v+0
	.byte	W07
	.byte		        c_v+0
	.byte	W01
	.byte		        c_v+2
	.byte	W01
	.byte		        c_v+4
	.byte	W01
	.byte		        c_v+0
	.byte	W01
	.byte		        c_v-6
	.byte	W01
	.byte		        c_v-6
	.byte	W02
	.byte		        c_v+0
	.byte	W01
	.byte		        c_v+2
	.byte	W02
	.byte		        c_v-4
	.byte	W01
	.byte		        c_v-8
	.byte	W01
	.byte		        c_v-2
	.byte	W02
	.byte		        c_v+6
	.byte	W01
	.byte		        c_v+4
	.byte	W01
	.byte		        c_v-2
	.byte	W01
	.byte		        c_v-4
	.byte	W01
	.byte		        c_v+0
	.byte	W01
	.byte		        c_v-24
	.byte		N12
	.byte	W01
	.byte		BEND  , c_v-10
	.byte	W01
	.byte		        c_v-2
	.byte	W01
	.byte		        c_v+0
	.byte	W03
	.byte		        c_v-32
	.byte	W06
	.byte		        c_v+0
	.byte		N48   , An4 
	.byte	W12
	.byte		BEND  , c_v+0
	.byte	W04
	.byte		        c_v-1
	.byte	W14
	.byte		        c_v-3
	.byte	W04
	.byte		        c_v-5
	.byte	W09
	.byte		        c_v-9
	.byte	W05
	.byte		        c_v-26
	.byte		N36   , En4 
	.byte	W01
	.byte		BEND  , c_v-11
	.byte	W01
	.byte		        c_v-2
	.byte	W01
	.byte		        c_v+0
	.byte	W01
	.byte	W32
	.byte		N06
	.byte	W06
	.byte		        Cs4 
	.byte	W06
	.byte		N30   , An4 
	.byte	W12
	.byte		BEND  , c_v+0
	.byte	W01
	.byte		        c_v-2
	.byte	W01
	.byte		        c_v-4
	.byte	W01
	.byte		        c_v-10
	.byte	W01
	.byte		        c_v-8
	.byte	W01
	.byte		        c_v-2
	.byte	W01
	.byte		        c_v+2
	.byte	W02
	.byte		        c_v+0
	.byte	W01
	.byte		        c_v-6
	.byte	W01
	.byte		        c_v-8
	.byte	W03
	.byte		        c_v-6
	.byte	W02
	.byte		        c_v-4
	.byte	W01
	.byte		        c_v-2
	.byte	W01
	.byte		        c_v+2
	.byte	W01
	.byte		        c_v-22
	.byte		N08
	.byte	W01
	.byte		BEND  , c_v-9
	.byte	W01
	.byte		        c_v-2
	.byte	W01
	.byte		        c_v+0
	.byte	W05
	.byte		N08   , Bn4 
	.byte	W08
	.byte		        Cs5 
	.byte	W06
	.byte	W02
	.byte		BEND  , c_v-20
	.byte		N30   , Bn4 
	.byte	W01
	.byte		BEND  , c_v-8
	.byte	W01
	.byte		        c_v-2
	.byte	W01
	.byte		        c_v+0
	.byte	W24
	.byte	W03
	.byte		N12   , Fs4 
	.byte	W12
	.byte		BEND  , c_v-24
	.byte		N48   , Ds5 
	.byte	W01
	.byte		BEND  , c_v-16
	.byte	W01
	.byte		        c_v-10
	.byte	W01
	.byte		        c_v-5
	.byte	W01
	.byte		        c_v-2
	.byte	W01
	.byte		        c_v-1
	.byte	W01
	.byte		        c_v+0
	.byte	W18
	.byte		        c_v-2
	.byte	W12
	.byte		        c_v-4
	.byte	W06
	.byte		        c_v-6
	.byte	W06
	.byte		        c_v-24
	.byte		N24   , Dn5 
	.byte	W01
	.byte		BEND  , c_v-15
	.byte	W01
	.byte		        c_v-7
	.byte	W01
	.byte		        c_v-3
	.byte	W01
	.byte		        c_v-1
	.byte	W01
	.byte		        c_v+0
	.byte	W19
	.byte		N18   , An4 
	.byte	W18
	.byte		N06   , Dn4 
	.byte	W06
	.byte		        En4 
	.byte	W06
	.byte		N12   , Fs4 
	.byte	W12
	.byte		N06   , Dn5 
	.byte	W06
	.byte		        An4 
	.byte	W06
	.byte		N08   , Fs4 
	.byte	W08
	.byte		        Dn5 
	.byte	W08
	.byte		        Bn4 
	.byte	W06
	.byte	W02
	.byte		N72   , An4 
	.byte	W92
	.byte	W02
	.byte		VOICE , 123
	.byte		VOL   , 86*seq_052_mvl/mxv
	.byte		PAN   , c_v+63
	.byte	W12
	.byte		N04   , An5 , v127
	.byte	W12
	.byte		N08   , Gs5 
	.byte	W09
	.byte		N04   , An5 
	.byte	W21
	.byte		N03
	.byte	W06
	.byte		N04
	.byte	W12
	.byte		N08   , Gs5 
	.byte	W09
	.byte		N04   , An5 
	.byte	W15
	.byte	W12
	.byte		N04   , An5 , v127
	.byte	W12
	.byte		N08   , Gs5 
	.byte	W09
	.byte		N04   , An5 
	.byte	W21
	.byte		N03
	.byte	W06
	.byte		N04
	.byte	W12
	.byte		N08   , Gs5 
	.byte	W09
	.byte		N04   , An5 
	.byte	W15
	.byte	PEND
	.byte	W12
	.byte		N04
	.byte	W12
	.byte		N08   , Gs5 
	.byte	W09
	.byte		N04   , An5 
	.byte	W21
	.byte		N03
	.byte	W06
	.byte		N04
	.byte	W12
	.byte		N08   , Fs5 
	.byte	W09
	.byte		N04   , An5 
	.byte	W15
	.byte	W12
	.byte		N04
	.byte	W12
	.byte		N08   , En5 
	.byte	W09
	.byte		N04   , An5 
	.byte	W21
	.byte		N03
	.byte	W06
	.byte		N04
	.byte	W12
	.byte		N05   , An4 
	.byte	W06
	.byte		N03   , Cs5 
	.byte	W06
	.byte		        En5 
	.byte	W06
	.byte		N17   , Fs5 
	.byte	W06
	.byte	PATT
	 .word	seq_052_4 + 0x1AE
	.byte	W12
	.byte		N04   , An5 , v127
	.byte	W12
	.byte		N08   , Gs5 
	.byte	W09
	.byte		N04   , An5 
	.byte	W21
	.byte		N03
	.byte	W06
	.byte		N04
	.byte	W12
	.byte		N05   , An4 
	.byte	W06
	.byte		N03   , Cs5 
	.byte	W06
	.byte		N05   , En5 
	.byte	W06
	.byte		N17   , Fs5 
	.byte	W06
	.byte	W12
	.byte		N04   , Bn5 
	.byte	W12
	.byte		N08   , Fs5 
	.byte	W09
	.byte		N04   , Bn5 
	.byte	W21
	.byte		N03
	.byte	W06
	.byte		N04
	.byte	W12
	.byte		N08   , Fs5 
	.byte	W09
	.byte		N04   , Bn5 
	.byte	W09
	.byte		        Fs5 
	.byte	W06
	.byte		N18
	.byte	W18
	.byte		        En5 
	.byte	W24
	.byte		N04   , An5 
	.byte	W12
	.byte		N42   , Gs5 
	.byte	W22
	.byte		VOL   , 85*seq_052_mvl/mxv
	.byte	W09
	.byte		        80*seq_052_mvl/mxv
	.byte	W05
	.byte		        75*seq_052_mvl/mxv
	.byte	W04
	.byte		        70*seq_052_mvl/mxv
	.byte	W02
	.byte		PAN   , c_v+0
	.byte	W03
	.byte		VOL   , 63*seq_052_mvl/mxv
	.byte	W04
	.byte		        55*seq_052_mvl/mxv
	.byte	W05
	.byte		        45*seq_052_mvl/mxv
	.byte	W04
	.byte		        33*seq_052_mvl/mxv
	.byte	W05
	.byte		        23*seq_052_mvl/mxv
	.byte	W03
	.byte		        16*seq_052_mvl/mxv
	.byte	W72
	.byte		        55*seq_052_mvl/mxv
	.byte	W72
	.byte	GOTO
	 .word	seq_052_4 + 0x3A
	.byte	FINE

@*********************** Track 06 ***********************@

seq_052_5:
	.byte	KEYSH , seq_052_key+0
	.byte		PAN   , c_v+0
	.byte	W72
	.byte	W24
	.byte	W96
	.byte	W96
	.byte	W96
	.byte	W96
	.byte	W96
	.byte	W96
	.byte	W96
	.byte		VOICE , 121
	.byte		VOL   , 62*seq_052_mvl/mxv
	.byte		PAN   , c_v-64
	.byte	W12
	.byte		N04   , Fs4 , v072
	.byte	W12
	.byte		N08   , En4 
	.byte	W09
	.byte		N04   , Fs4 
	.byte	W21
	.byte		N03
	.byte	W06
	.byte		N04
	.byte	W12
	.byte		N08   , En4 
	.byte	W09
	.byte		N04   , Fs4 
	.byte	W15
	.byte	W12
	.byte		        En4 
	.byte	W12
	.byte		N07
	.byte	W09
	.byte		N04
	.byte	W21
	.byte		N03
	.byte	W06
	.byte		N04
	.byte	W12
	.byte		N07
	.byte	W09
	.byte		N04
	.byte	W15
	.byte	W12
	.byte		        Fs4 
	.byte	W12
	.byte		N08   , Dn4 
	.byte	W09
	.byte		N04   , Fs4 
	.byte	W21
	.byte		N03
	.byte	W06
	.byte		N04
	.byte	W12
	.byte		N08   , Dn4 
	.byte	W09
	.byte		N04   , Fs4 
	.byte	W15
	.byte	W12
	.byte		        En4 
	.byte	W12
	.byte		N08   , Cs4 
	.byte	W09
	.byte		N04   , En4 
	.byte	W21
	.byte		N03
	.byte	W06
	.byte		N04
	.byte	W12
	.byte		N05   , En3 
	.byte	W06
	.byte		N03   , An3 
	.byte	W06
	.byte		        Cs4 
	.byte	W06
	.byte		N17   , Dn4 
	.byte	W06
	.byte	W12
	.byte		N04   , Fs4 
	.byte	W12
	.byte		N08   , En4 
	.byte	W09
	.byte		N04   , Fs4 
	.byte	W21
	.byte		N03
	.byte	W06
	.byte		N04
	.byte	W12
	.byte		N08   , En4 
	.byte	W09
	.byte		N04   , Fs4 
	.byte	W15
	.byte	W12
	.byte		        En4 
	.byte	W12
	.byte		N07
	.byte	W09
	.byte		N04
	.byte	W21
	.byte		N03
	.byte	W06
	.byte		N04
	.byte	W12
	.byte		N05   , En3 
	.byte	W06
	.byte		N03   , An3 
	.byte	W06
	.byte		N05   , Cs4 
	.byte	W06
	.byte		N17   , Ds4 
	.byte	W06
	.byte	W12
	.byte		N04   , Fs4 
	.byte	W12
	.byte		N08   , Ds4 
	.byte	W09
	.byte		N04   , Fs4 
	.byte	W21
	.byte		N03
	.byte	W06
	.byte		N04
	.byte	W12
	.byte		N08   , Ds4 
	.byte	W09
	.byte		N04   , Fs4 
	.byte	W09
	.byte		N03   , Ds4 
	.byte	W06
	.byte		N18   , Dn4 
	.byte	W18
	.byte		        Bn3 
	.byte	W24
	.byte		N04   , Fs4 
	.byte	W10
	.byte		VOL   , 62*seq_052_mvl/mxv
	.byte	W02
	.byte		N42   , En4 
	.byte	W07
	.byte		VOL   , 57*seq_052_mvl/mxv
	.byte	W05
	.byte		        54*seq_052_mvl/mxv
	.byte	W04
	.byte		        50*seq_052_mvl/mxv
	.byte	W05
	.byte		        45*seq_052_mvl/mxv
	.byte	W04
	.byte		        39*seq_052_mvl/mxv
	.byte	W05
	.byte		        33*seq_052_mvl/mxv
	.byte	W04
	.byte		        25*seq_052_mvl/mxv
	.byte	W05
	.byte		        17*seq_052_mvl/mxv
	.byte	W03
	.byte	W96
	.byte	W72
	.byte	GOTO
	 .word	seq_052_5 + 0x5
	.byte	FINE

@*********************** Track 07 ***********************@

seq_052_6:
	.byte	KEYSH , seq_052_key+0
	.byte		VOICE , 34
	.byte		VOL   , 100*seq_052_mvl/mxv
	.byte		PAN   , c_v+0
	.byte		BENDR , 12
	.byte		BEND  , c_v+0
	.byte		N06   , An0 , v127
	.byte	W06
	.byte		N06
	.byte	W06
	.byte		N06
	.byte	W06
	.byte		N06
	.byte	W06
	.byte		N06
	.byte	W06
	.byte		N06
	.byte	W06
	.byte		        En0 
	.byte	W06
	.byte		N12   , An0 
	.byte	W12
	.byte		N06
	.byte	W06
	.byte		        En0 
	.byte	W06
	.byte		N12   , An0 
	.byte	W06
	.byte	W06
	.byte		N06   , En0 , v127
	.byte	W06
	.byte		        An0 
	.byte	W06
	.byte		        En0 
	.byte	W06
	.byte		        Bn0 
	.byte	W06
	.byte		N06
	.byte	W06
	.byte		N06
	.byte	W06
	.byte		N06
	.byte	W06
	.byte		N06
	.byte	W06
	.byte		N06
	.byte	W06
	.byte		        Fs0 
	.byte	W06
	.byte		N12   , Bn0 
	.byte	W12
	.byte		N06
	.byte	W06
	.byte		        Fs0 
	.byte	W06
	.byte		N12   , Bn0 
	.byte	W12
	.byte		N06   , Fs0 
	.byte	W06
	.byte		        Bn0 
	.byte	W06
	.byte		        Cs1 
	.byte	W06
	.byte		        Dn1 
	.byte	W06
	.byte		N06
	.byte	W06
	.byte		N06
	.byte	W06
	.byte		N06
	.byte	W06
	.byte		N06
	.byte	W06
	.byte		N06
	.byte	W06
	.byte		        An0 
	.byte	W06
	.byte		N12   , Dn1 
	.byte	W12
	.byte		N06
	.byte	W06
	.byte		        An0 
	.byte	W06
	.byte		N12   , Dn1 
	.byte	W12
	.byte		N06   , An0 
	.byte	W06
	.byte		        Dn1 
	.byte	W06
	.byte		        Bn0 
	.byte	W06
	.byte		        An0 
	.byte	W06
	.byte		N06
	.byte	W06
	.byte		N06
	.byte	W06
	.byte		N06
	.byte	W06
	.byte		N06
	.byte	W06
	.byte		N06
	.byte	W06
	.byte		        En0 
	.byte	W06
	.byte		        An0 
	.byte	W06
	.byte		        Cs0 
	.byte	W06
	.byte		        Cs1 
	.byte	W06
	.byte		        Dn0 
	.byte	W06
	.byte		        Dn1 
	.byte	W06
	.byte		        Ds0 
	.byte	W06
	.byte		        Ds1 
	.byte	W06
	.byte		        En1 
	.byte	W06
	.byte		N12   , An1 
	.byte	W04
	.byte		BEND  , c_v+0
	.byte	W01
	.byte		        c_v-4
	.byte	W01
	.byte		        c_v-8
	.byte	W01
	.byte		        c_v-14
	.byte	W01
	.byte		        c_v-22
	.byte	W01
	.byte		        c_v-32
	.byte	W01
	.byte		        c_v-46
	.byte	W01
	.byte		        c_v-64
	.byte	W01
	.byte		        c_v+0
	.byte		N06   , An0 
	.byte	W06
	.byte		N06
	.byte	W06
	.byte		N06
	.byte	W06
	.byte		N06
	.byte	W06
	.byte		N06
	.byte	W06
	.byte		        En0 
	.byte	W06
	.byte		N12   , An0 
	.byte	W12
	.byte		N06
	.byte	W06
	.byte		        En0 
	.byte	W06
	.byte		N12   , An0 
	.byte	W12
	.byte		N06   , En0 
	.byte	W06
	.byte		        An0 
	.byte	W06
	.byte		        As0 
	.byte	W06
	.byte		        Bn0 
	.byte	W06
	.byte		N06
	.byte	W06
	.byte		N06
	.byte	W06
	.byte		N06
	.byte	W06
	.byte		N06
	.byte	W06
	.byte		N06
	.byte	W06
	.byte		        Fs0 
	.byte	W06
	.byte		N12   , Bn0 
	.byte	W12
	.byte		N06
	.byte	W06
	.byte		        Fs0 
	.byte	W06
	.byte		N12   , Bn0 
	.byte	W12
	.byte		N06   , Fs0 
	.byte	W06
	.byte		        Cs1 
	.byte	W06
	.byte		N12   , Dn1 
	.byte	W06
	.byte	W06
	.byte		N06   , Dn1 , v127
	.byte	W06
	.byte		N06
	.byte	W06
	.byte		N06
	.byte	W06
	.byte		N06
	.byte	W06
	.byte		N06
	.byte	W06
	.byte		        An0 
	.byte	W06
	.byte		N12   , Dn1 
	.byte	W12
	.byte		N06
	.byte	W06
	.byte		        An0 
	.byte	W06
	.byte		N12   , Dn1 
	.byte	W12
	.byte		N06   , An0 
	.byte	W06
	.byte		        Dn1 
	.byte	W06
	.byte		        Bn0 
	.byte	W06
	.byte	PEND
	.byte		        An0 
	.byte	W06
	.byte		N06
	.byte	W06
	.byte		N06
	.byte	W06
	.byte		N06
	.byte	W06
	.byte		N06
	.byte	W06
	.byte		N06
	.byte	W06
	.byte		        En0 
	.byte	W06
	.byte		N12   , An0 
	.byte	W12
	.byte		N06   , En0 
	.byte	W06
	.byte		        An0 
	.byte	W06
	.byte		        Cs1 
	.byte	W06
	.byte		        An0 
	.byte	W06
	.byte		        En1 
	.byte	W06
	.byte		        Gn1 
	.byte	W06
	.byte		N12   , Dn1 
	.byte	W06
	.byte	PATT
	 .word	seq_052_6 + 0xDE
	.byte		N06   , Cs1 , v127
	.byte	W06
	.byte		N06
	.byte	W06
	.byte		N06
	.byte	W06
	.byte		N06
	.byte	W06
	.byte		N06
	.byte	W06
	.byte		N06
	.byte	W06
	.byte		        An0 
	.byte	W06
	.byte		N12   , Cs1 
	.byte	W12
	.byte		N06
	.byte	W06
	.byte		        An0 
	.byte	W06
	.byte		N12   , Cs1 
	.byte	W12
	.byte		N06   , An0 
	.byte	W06
	.byte		        Cs1 
	.byte	W06
	.byte		        An0 
	.byte	W06
	.byte		        Bn0 
	.byte	W06
	.byte		N06
	.byte	W06
	.byte		N06
	.byte	W06
	.byte		N06
	.byte	W06
	.byte		N06
	.byte	W06
	.byte		N06
	.byte	W06
	.byte		        Fs0 
	.byte	W06
	.byte		N12   , Bn0 
	.byte	W12
	.byte		N06
	.byte	W06
	.byte		        Fs0 
	.byte	W06
	.byte		N12   , Bn0 
	.byte	W12
	.byte		N06   , Fs0 
	.byte	W06
	.byte		        Bn0 
	.byte	W06
	.byte		        Dn1 
	.byte	W06
	.byte		        An0 
	.byte	W06
	.byte		N06
	.byte	W06
	.byte		N06
	.byte	W06
	.byte		N06
	.byte	W06
	.byte		N06
	.byte	W06
	.byte		N06
	.byte	W06
	.byte		        En0 
	.byte	W06
	.byte		N12   , An0 
	.byte	W12
	.byte		N06
	.byte	W06
	.byte		N06
	.byte	W06
	.byte		        En0 
	.byte	W06
	.byte		        An0 
	.byte	W06
	.byte		        En0 
	.byte	W06
	.byte		        Cs1 
	.byte	W06
	.byte		N12   , Dn1 
	.byte	W06
	.byte	PATT
	 .word	seq_052_6 + 0xDE
	.byte		N06   , Cs1 , v127
	.byte	W06
	.byte		N06
	.byte	W06
	.byte		N06
	.byte	W06
	.byte		N06
	.byte	W06
	.byte		N06
	.byte	W06
	.byte		N06
	.byte	W06
	.byte		        An0 
	.byte	W06
	.byte		N12   , Cs1 
	.byte	W12
	.byte		N06
	.byte	W06
	.byte		        An0 
	.byte	W06
	.byte		N12   , Cs1 
	.byte	W12
	.byte		N06   , An0 
	.byte	W06
	.byte		        En1 
	.byte	W06
	.byte		N12   , Ds1 
	.byte	W06
	.byte	W06
	.byte		N06
	.byte	W06
	.byte		N06
	.byte	W06
	.byte		N06
	.byte	W06
	.byte		N06
	.byte	W06
	.byte		N06
	.byte	W06
	.byte		        Bn0 
	.byte	W06
	.byte		N12   , Ds1 
	.byte	W12
	.byte		N06
	.byte	W06
	.byte		        Bn0 
	.byte	W06
	.byte		N12   , Ds1 
	.byte	W12
	.byte		N06   , Bn0 
	.byte	W06
	.byte		        Fs1 
	.byte	W06
	.byte		        Ds1 
	.byte	W06
	.byte		        En1 
	.byte	W06
	.byte		N06
	.byte	W06
	.byte		N06
	.byte	W06
	.byte		        En0 
	.byte	W06
	.byte		        En1 
	.byte	W06
	.byte		N06
	.byte	W06
	.byte		        En0 
	.byte	W06
	.byte		N12   , En1 
	.byte	W12
	.byte		N06
	.byte	W06
	.byte		        Bn0 
	.byte	W06
	.byte		N12   , En1 
	.byte	W12
	.byte		N06   , Bn0 
	.byte	W06
	.byte		        En1 
	.byte	W06
	.byte		        Bn1 
	.byte	W06
	.byte		        Gs1 
	.byte	W06
	.byte		        En1 
	.byte	W06
	.byte		        Gs0 
	.byte	W06
	.byte		N12   , Bn0 
	.byte	W12
	.byte		N06   , En0 
	.byte	W06
	.byte		        En1 
	.byte	W06
	.byte		        Gs0 
	.byte	W06
	.byte		N03   , Bn0 
	.byte	W03
	.byte		N03
	.byte	W03
	.byte		N04
	.byte	W12
	.byte		N03
	.byte	W03
	.byte		N03
	.byte	W03
	.byte		N04
	.byte	W12
	.byte		BEND  , c_v-2
	.byte		N12   , En1 
	.byte	W01
	.byte		BEND  , c_v-4
	.byte	W01
	.byte		        c_v-6
	.byte	W01
	.byte		        c_v-10
	.byte	W01
	.byte		        c_v-14
	.byte	W01
	.byte		        c_v-20
	.byte	W01
	.byte		        c_v-26
	.byte	W01
	.byte		        c_v-34
	.byte	W01
	.byte		        c_v-42
	.byte	W01
	.byte		        c_v-50
	.byte	W01
	.byte		        c_v-58
	.byte	W01
	.byte		        c_v-64
	.byte	W01
	.byte		        c_v+0
	.byte		N06   , An0 
	.byte	W06
	.byte		N06
	.byte	W06
	.byte		N06
	.byte	W06
	.byte		N06
	.byte	W06
	.byte		N06
	.byte	W06
	.byte		N06
	.byte	W06
	.byte		        En0 
	.byte	W06
	.byte		N12   , An0 
	.byte	W12
	.byte		N06
	.byte	W06
	.byte		        En0 
	.byte	W06
	.byte		N12   , An0 
	.byte	W06
	.byte	GOTO
	 .word	seq_052_6 + 0x26
	.byte	FINE

@*********************** Track 08 ***********************@

seq_052_7:
	.byte	KEYSH , seq_052_key+0
	.byte		VOICE , 127
	.byte		VOL   , 100*seq_052_mvl/mxv
	.byte		PAN   , c_v+0
	.byte		N06   , FnM1, v127
	.byte		N24   , An2 
	.byte	W12
	.byte		N06   , FsM1
	.byte	W12
	.byte		        FnM1
	.byte	W06
	.byte		N06
	.byte	W06
	.byte		        FsM1
	.byte	W12
	.byte		        FnM1
	.byte	W12
	.byte		        FsM1
	.byte	W06
	.byte		        FnM1
	.byte	W06
	.byte	W06
	.byte		N06   , FnM1, v127
	.byte	W06
	.byte		        FsM1
	.byte	W12
	.byte		N06   , FnM1, v127
	.byte	W12
	.byte		        FsM1
	.byte	W12
	.byte		        FnM1
	.byte	W06
	.byte		N06
	.byte	W06
	.byte		        FsM1
	.byte	W12
	.byte		        FnM1
	.byte	W12
	.byte		        FsM1
	.byte	W06
	.byte		        FnM1
	.byte	W12
	.byte		N06
	.byte	W06
	.byte		        FsM1
	.byte	W06
	.byte		        FnM1
	.byte	W06
	.byte	PEND
	.byte		N06
	.byte	W12
	.byte		        FsM1
	.byte	W06
	.byte		        FnM1
	.byte	W12
	.byte		N06
	.byte	W06
	.byte		        FsM1
	.byte	W12
	.byte		        FnM1
	.byte	W12
	.byte		        FsM1
	.byte	W06
	.byte		        FnM1
	.byte	W12
	.byte		N06
	.byte	W06
	.byte		        FsM1
	.byte	W06
	.byte		        FnM1
	.byte	W06
	.byte		N06
	.byte	W12
	.byte		        FsM1
	.byte	W06
	.byte		        FnM1
	.byte	W12
	.byte		N06
	.byte	W06
	.byte		        FsM1
	.byte	W06
	.byte		        FnM1
	.byte	W06
	.byte		N03   , FsM1
	.byte	W03
	.byte		N06   , FsM1, v116
	.byte	W03
	.byte		        Cn2 , v127
	.byte	W03
	.byte		        An1 , v120
	.byte	W03
	.byte		N03   , FsM1, v127
	.byte	W03
	.byte		N06   , FsM1, v120
	.byte	W03
	.byte		        An1 , v127
	.byte	W03
	.byte		        Fn1 , v120
	.byte	W03
	.byte		        FsM1, v127
	.byte	W06
	.byte		        FnM1
	.byte		N12   , Cs2 
	.byte	W06
	.byte		N06   , An1 
	.byte	W06
	.byte		        FsM1
	.byte		N30   , An2 
	.byte	W06
	.byte	W12
	.byte		N06   , FsM1
	.byte	W12
	.byte		        FnM1
	.byte	W06
	.byte		N06
	.byte	W06
	.byte		        FsM1
	.byte	W12
	.byte		        FnM1
	.byte	W12
	.byte		        FsM1
	.byte	W06
	.byte		        FnM1
	.byte	W18
	.byte		        FsM1
	.byte	W12
	.byte		        FnM1
	.byte	W12
	.byte		        FsM1
	.byte	W12
	.byte		        FnM1
	.byte	W06
	.byte		N06
	.byte	W06
	.byte		        FsM1
	.byte	W12
	.byte		        FnM1
	.byte	W12
	.byte		        FsM1
	.byte	W06
	.byte		        FnM1
	.byte	W06
	.byte		N03   , Cn2 
	.byte	W03
	.byte		        An1 , v120
	.byte	W03
	.byte		        Fn1 , v124
	.byte	W03
	.byte		N06   , FsM1, v112
	.byte	W03
	.byte		        An1 , v124
	.byte	W03
	.byte		N03   , FnM1, v116
	.byte	W03
	.byte		N06   , FsM1, v127
	.byte		N30   , An2 
	.byte	W06
	.byte		N06   , FnM1
	.byte	W12
	.byte		        FsM1
	.byte	W18
	.byte		        FnM1
	.byte	W06
	.byte		        FsM1
	.byte	W06
	.byte		        FnM1
	.byte	W06
	.byte		N06
	.byte	W12
	.byte		        FsM1
	.byte	W06
	.byte		        FnM1
	.byte	W12
	.byte		N06
	.byte	W06
	.byte		N01   , FsM1, v112
	.byte	W01
	.byte		N05   , FsM1, v127
	.byte	W11
	.byte		N06   , FnM1
	.byte	W12
	.byte		        FsM1
	.byte	W06
	.byte		        FnM1
	.byte	W12
	.byte		N06
	.byte	W06
	.byte		        FsM1
	.byte	W06
	.byte		        FnM1
	.byte		N22   , An2 
	.byte	W11
	.byte		N01   , Fn3 , v092
	.byte	W01
	.byte		N06   , Fn3 , v120
	.byte	W06
	.byte		        FsM1, v127
	.byte	W03
	.byte		N09   , Fn3 , v120
	.byte	W03
	.byte		N01   , FnM1, v116
	.byte		N24   , Cs2 
	.byte	W01
	.byte		N05   , FnM1, v127
	.byte	W05
	.byte		N03   , Fn3 , v108
	.byte	W03
	.byte		N07   , Fn3 , v120
	.byte	W03
	.byte		N06   , FsM1, v127
	.byte	W04
	.byte		N02   , Fn3 , v084
	.byte	W02
	.byte		N03   , Cn2 , v127
	.byte		N06   , Fn3 , v108
	.byte	W03
	.byte		N03   , An1 , v127
	.byte	W03
	.byte		N06   , FnM1
	.byte		N30   , An2 
	.byte	W06
	.byte	W12
	.byte		N06   , FsM1, v127
	.byte	W12
	.byte		        FnM1
	.byte	W06
	.byte		N06
	.byte	W06
	.byte		        FsM1
	.byte	W12
	.byte		        FnM1
	.byte	W12
	.byte		        FsM1
	.byte	W06
	.byte		        FnM1
	.byte	W12
	.byte		N06
	.byte	W06
	.byte		        FsM1
	.byte	W12
	.byte	PEND
	.byte	PATT
	 .word	seq_052_7 + 0x24
	.byte		N06   , FnM1, v127
	.byte	W12
	.byte		        FsM1
	.byte	W06
	.byte		        FnM1
	.byte	W12
	.byte		N06
	.byte	W06
	.byte		        FsM1
	.byte	W06
	.byte		        FnM1
	.byte	W06
	.byte		N06
	.byte	W12
	.byte		        FsM1
	.byte	W06
	.byte		        FnM1
	.byte	W12
	.byte		N06
	.byte	W06
	.byte		        FsM1
	.byte	W12
	.byte		        FnM1
	.byte	W12
	.byte		        FsM1
	.byte	W12
	.byte		        FnM1
	.byte	W06
	.byte		N06
	.byte	W06
	.byte		        FsM1
	.byte	W06
	.byte		        FnM1
	.byte	W06
	.byte		        Fn1 
	.byte	W06
	.byte		        Cn2 
	.byte	W06
	.byte		        FsM1
	.byte	W04
	.byte		N05   , An1 
	.byte	W03
	.byte		        Fn1 
	.byte	W03
	.byte		N08   , FnM1
	.byte	W02
	.byte		N03   , Fn3 , v108
	.byte	W03
	.byte		N07   , Fn3 , v120
	.byte	W03
	.byte		N06   , FnM1, v127
	.byte	W04
	.byte		N02   , Fs3 , v084
	.byte	W02
	.byte		N03   , FsM1, v127
	.byte		N03   , Fn3 , v108
	.byte	W03
	.byte		        FsM1, v127
	.byte		N09   , Fn3 , v108
	.byte	W03
	.byte		N18   , An2 , v127
	.byte	W06
	.byte	PATT
	 .word	seq_052_7 + 0x127
	.byte		N06   , FnM1, v127
	.byte	W12
	.byte		        FsM1
	.byte	W12
	.byte		        FnM1
	.byte	W06
	.byte		N06
	.byte	W06
	.byte		        FsM1
	.byte	W12
	.byte		        FnM1
	.byte	W12
	.byte		        FsM1
	.byte	W06
	.byte		        FnM1
	.byte	W06
	.byte		N06
	.byte	W06
	.byte		        Cn2 
	.byte	W06
	.byte		        An1 
	.byte	W06
	.byte		        FnM1
	.byte		N18   , An2 
	.byte	W06
	.byte	W12
	.byte		N06   , FsM1
	.byte	W06
	.byte		        FnM1
	.byte	W12
	.byte		N06
	.byte	W06
	.byte		        FsM1
	.byte	W06
	.byte		        FnM1
	.byte	W06
	.byte		N06
	.byte	W12
	.byte		        FsM1
	.byte	W06
	.byte		        FnM1
	.byte	W06
	.byte		N01   , Cn2 , v116
	.byte	W01
	.byte		N05   , Cn2 , v127
	.byte	W05
	.byte		N06   , FnM1
	.byte	W06
	.byte		        Cn2 
	.byte	W03
	.byte		        An1 
	.byte	W03
	.byte		        Fn1 
	.byte	W06
	.byte		        FnM1
	.byte		N18   , An2 
	.byte	W12
	.byte		N06   , FsM1
	.byte	W12
	.byte		        FnM1
	.byte	W06
	.byte		N06
	.byte	W06
	.byte		        FsM1
	.byte	W12
	.byte		        FnM1
	.byte	W12
	.byte		        FsM1
	.byte	W06
	.byte		        FnM1
	.byte	W12
	.byte		N06
	.byte	W06
	.byte		        FsM1
	.byte	W12
	.byte		        FnM1
	.byte		N18   , Cs2 
	.byte	W12
	.byte		N06   , FsM1
	.byte	W06
	.byte		        FnM1
	.byte	W12
	.byte		N06
	.byte	W06
	.byte		N03   , FsM1
	.byte	W03
	.byte		        An1 
	.byte	W03
	.byte		N03
	.byte	W03
	.byte		        Fn1 
	.byte	W03
	.byte		        FsM1, v120
	.byte	W03
	.byte		N03
	.byte	W03
	.byte		N06
	.byte	W12
	.byte		N03
	.byte	W03
	.byte		N03
	.byte	W03
	.byte		N06
	.byte	W12
	.byte		N03
	.byte		N12   , Cs2 , v127
	.byte	W03
	.byte		N03   , FsM1, v120
	.byte	W03
	.byte		N06
	.byte	W06
	.byte		        FnM1, v127
	.byte		N24   , An2 
	.byte	W12
	.byte		N06   , FsM1
	.byte	W12
	.byte		        FnM1
	.byte	W06
	.byte		N06
	.byte	W06
	.byte		        FsM1
	.byte	W12
	.byte		        FnM1
	.byte	W12
	.byte		        FsM1
	.byte	W06
	.byte		        FnM1
	.byte	W06
	.byte	GOTO
	 .word	seq_052_7 + 0x1D
	.byte	FINE

@******************************************************@

	.align	2

seq_052:
	.byte	8	@ NumTrks
	.byte	0	@ NumBlks
	.byte	seq_052_pri	@ Priority
	.byte	seq_052_rev	@ Reverb

	.word	seq_052_grp

	.word	seq_052_0
	.word	seq_052_1
	.word	seq_052_2
	.word	seq_052_3
	.word	seq_052_4
	.word	seq_052_5
	.word	seq_052_6
	.word	seq_052_7

	.end
