@ File generated by m4a2s Song-Module
	.include "MPlayDef.s"

	.equ	seq_057_grp, bank_041
	.equ	seq_057_pri, 0
	.equ	seq_057_rev, 148
	.equ	seq_057_mvl, 127
	.equ	seq_057_key, 0

	.section .rodata
	.global	seq_057
	.align	2

@*********************** Track 01 ***********************@

seq_057_0:
	.byte	KEYSH , seq_057_key+0
	.byte	TEMPO , 138/2
	.byte		VOICE , 60
	.byte		VOL   , 95*seq_057_mvl/mxv
	.byte		PAN   , c_v+25
	.byte		BENDR , 24
	.byte	W96
	.byte		N10   , Cn3 , v112
	.byte	W24
	.byte		N13   , Gn2 
	.byte	W16
	.byte		N04   , Gn2 , v127
	.byte	W08
	.byte		N05   , An2 , v112
	.byte	W12
	.byte		TIE   , En3 
	.byte	W32
	.byte	W01
	.byte		VOL   , 79*seq_057_mvl/mxv
	.byte	W03
	.byte	W02
	.byte		        78*seq_057_mvl/mxv
	.byte	W05
	.byte		        77*seq_057_mvl/mxv
	.byte	W05
	.byte		        77*seq_057_mvl/mxv
	.byte	W05
	.byte		        76*seq_057_mvl/mxv
	.byte	W05
	.byte		        75*seq_057_mvl/mxv
	.byte	W05
	.byte		        74*seq_057_mvl/mxv
	.byte	W05
	.byte		        73*seq_057_mvl/mxv
	.byte	W05
	.byte		        72*seq_057_mvl/mxv
	.byte	W05
	.byte		        71*seq_057_mvl/mxv
	.byte	W05
	.byte		        71*seq_057_mvl/mxv
	.byte	W05
	.byte		        70*seq_057_mvl/mxv
	.byte	W05
	.byte		        69*seq_057_mvl/mxv
	.byte	W05
	.byte		        68*seq_057_mvl/mxv
	.byte	W05
	.byte		        67*seq_057_mvl/mxv
	.byte	W05
	.byte		        66*seq_057_mvl/mxv
	.byte	W05
	.byte		        65*seq_057_mvl/mxv
	.byte	W05
	.byte		        64*seq_057_mvl/mxv
	.byte	W05
	.byte		        64*seq_057_mvl/mxv
	.byte	W05
	.byte		        63*seq_057_mvl/mxv
	.byte	W02
	.byte		        62*seq_057_mvl/mxv
	.byte	W02
	.byte		EOT
	.byte	W96
	.byte		VOL   , 82*seq_057_mvl/mxv
	.byte		N10   , Dn3 
	.byte	W24
	.byte		N13   , An2 
	.byte	W16
	.byte		N04   , An2 , v127
	.byte	W08
	.byte		N05   , Bn2 , v112
	.byte	W12
	.byte		TIE   , Fs3 
	.byte	W12
	.byte		VOL   , 81*seq_057_mvl/mxv
	.byte	W09
	.byte		        80*seq_057_mvl/mxv
	.byte	W10
	.byte		        79*seq_057_mvl/mxv
	.byte	W05
	.byte	W04
	.byte		        78*seq_057_mvl/mxv
	.byte	W10
	.byte		        77*seq_057_mvl/mxv
	.byte	W10
	.byte		        77*seq_057_mvl/mxv
	.byte	W09
	.byte		        76*seq_057_mvl/mxv
	.byte	W10
	.byte		        75*seq_057_mvl/mxv
	.byte	W09
	.byte		        74*seq_057_mvl/mxv
	.byte	W10
	.byte		        73*seq_057_mvl/mxv
	.byte	W10
	.byte		        72*seq_057_mvl/mxv
	.byte	W09
	.byte		        71*seq_057_mvl/mxv
	.byte	W10
	.byte		        71*seq_057_mvl/mxv
	.byte	W05
	.byte	W04
	.byte		        70*seq_057_mvl/mxv
	.byte	W10
	.byte		        69*seq_057_mvl/mxv
	.byte	W10
	.byte		        68*seq_057_mvl/mxv
	.byte	W09
	.byte		        67*seq_057_mvl/mxv
	.byte	W10
	.byte		        66*seq_057_mvl/mxv
	.byte	W09
	.byte		        65*seq_057_mvl/mxv
	.byte	W10
	.byte		        64*seq_057_mvl/mxv
	.byte	W10
	.byte		        64*seq_057_mvl/mxv
	.byte	W09
	.byte		        63*seq_057_mvl/mxv
	.byte	W10
	.byte		        62*seq_057_mvl/mxv
	.byte	W05
	.byte	W04
	.byte		        61*seq_057_mvl/mxv
	.byte	W10
	.byte		        60*seq_057_mvl/mxv
	.byte	W10
	.byte		        59*seq_057_mvl/mxv
	.byte	W09
	.byte		        58*seq_057_mvl/mxv
	.byte	W10
	.byte		        58*seq_057_mvl/mxv
	.byte	W09
	.byte		        57*seq_057_mvl/mxv
	.byte	W10
	.byte		        56*seq_057_mvl/mxv
	.byte	W10
	.byte		        55*seq_057_mvl/mxv
	.byte	W24
	.byte		EOT
	.byte	TEMPO , 144/2
	.byte		VOICE , 33
	.byte		VOL   , 110*seq_057_mvl/mxv
	.byte		PAN   , c_v+0
	.byte		BENDR , 24
	.byte		N14   , Gn1 , v120
	.byte	W24
	.byte		        Fs1 , v112
	.byte	W24
	.byte		        En1 
	.byte	W24
	.byte		        Dn1 
	.byte	W24
	.byte	TEMPO , 136/2
	.byte		BEND  , c_v+0
	.byte		N14   , Gn1 , v116
	.byte	W02
	.byte		BEND  , c_v-1
	.byte	W02
	.byte		        c_v-2
	.byte	W02
	.byte		        c_v-3
	.byte	W02
	.byte		        c_v-3
	.byte	W02
	.byte		        c_v-4
	.byte	W02
	.byte	TEMPO , 128/2
	.byte		        c_v-5
	.byte	W02
	.byte		        c_v-5
	.byte	W02
	.byte		        c_v-6
	.byte	W02
	.byte		        c_v-7
	.byte	W02
	.byte		        c_v-7
	.byte	W02
	.byte		        c_v-8
	.byte	W02
	.byte	TEMPO , 120/2
	.byte		        c_v-9
	.byte		N14   , Fs1 , v108
	.byte	W02
	.byte		BEND  , c_v-9
	.byte	W02
	.byte		        c_v-10
	.byte	W02
	.byte		        c_v-11
	.byte	W02
	.byte		        c_v-11
	.byte	W02
	.byte		        c_v-12
	.byte	W02
	.byte	TEMPO , 112/2
	.byte		        c_v-13
	.byte	W02
	.byte		        c_v-14
	.byte	W02
	.byte		        c_v-14
	.byte	W02
	.byte		        c_v-15
	.byte	W02
	.byte		        c_v-16
	.byte	W02
	.byte		        c_v-16
	.byte	W02
	.byte	TEMPO , 104/2
	.byte		VOL   , 109*seq_057_mvl/mxv
	.byte		N14   , En1 , v112
	.byte	W02
	.byte		BEND  , c_v-17
	.byte	W01
	.byte		VOL   , 100*seq_057_mvl/mxv
	.byte	W01
	.byte		BEND  , c_v-18
	.byte	W02
	.byte		        c_v-18
	.byte	W01
	.byte		VOL   , 92*seq_057_mvl/mxv
	.byte	W01
	.byte		BEND  , c_v-19
	.byte	W02
	.byte		        c_v-20
	.byte	W01
	.byte		VOL   , 84*seq_057_mvl/mxv
	.byte	W01
	.byte	TEMPO , 96/2
	.byte		BEND  , c_v-20
	.byte	W02
	.byte		VOL   , 77*seq_057_mvl/mxv
	.byte		BEND  , c_v-21
	.byte	W02
	.byte		        c_v-22
	.byte	W02
	.byte		VOL   , 71*seq_057_mvl/mxv
	.byte		BEND  , c_v-23
	.byte	W02
	.byte		        c_v-23
	.byte	W02
	.byte		VOL   , 64*seq_057_mvl/mxv
	.byte		BEND  , c_v-24
	.byte	W02
	.byte	TEMPO , 88/2
	.byte		        c_v-25
	.byte		N14   , Dn1 , v108
	.byte	W01
	.byte		VOL   , 58*seq_057_mvl/mxv
	.byte	W01
	.byte		BEND  , c_v-25
	.byte	W02
	.byte		        c_v-26
	.byte	W01
	.byte		VOL   , 51*seq_057_mvl/mxv
	.byte	W01
	.byte		BEND  , c_v-27
	.byte	W02
	.byte		        c_v-27
	.byte	W01
	.byte		VOL   , 45*seq_057_mvl/mxv
	.byte	W01
	.byte		BEND  , c_v-28
	.byte	W02
	.byte	TEMPO , 80/2
	.byte		VOL   , 40*seq_057_mvl/mxv
	.byte		BEND  , c_v-29
	.byte	W02
	.byte		        c_v-29
	.byte	W02
	.byte		VOL   , 35*seq_057_mvl/mxv
	.byte		BEND  , c_v-30
	.byte	W02
	.byte		        c_v-31
	.byte	W02
	.byte		VOL   , 31*seq_057_mvl/mxv
	.byte		BEND  , c_v-31
	.byte	W02
	.byte		        c_v-32
	.byte	W02
	.byte	TEMPO , 72/2
	.byte		VOL   , 26*seq_057_mvl/mxv
	.byte		BEND  , c_v-33
	.byte		N14   , Gn1 , v120
	.byte	W02
	.byte		BEND  , c_v-34
	.byte	W01
	.byte		VOL   , 22*seq_057_mvl/mxv
	.byte	W01
	.byte		BEND  , c_v-34
	.byte	W02
	.byte		        c_v-35
	.byte	W01
	.byte		VOL   , 19*seq_057_mvl/mxv
	.byte	W01
	.byte		BEND  , c_v-36
	.byte	W02
	.byte		        c_v-36
	.byte	W01
	.byte		VOL   , 15*seq_057_mvl/mxv
	.byte	W01
	.byte		BEND  , c_v-37
	.byte	W02
	.byte		VOL   , 12*seq_057_mvl/mxv
	.byte		BEND  , c_v-38
	.byte	W02
	.byte		        c_v-38
	.byte	W02
	.byte		VOL   , 9*seq_057_mvl/mxv
	.byte		BEND  , c_v-39
	.byte	W02
	.byte		        c_v-40
	.byte	W02
	.byte		VOL   , 7*seq_057_mvl/mxv
	.byte		BEND  , c_v-40
	.byte	W02
	.byte	TEMPO , 50/2
	.byte		        c_v-41
	.byte		N14   , Fs1 , v112
	.byte	W01
	.byte		VOL   , 5*seq_057_mvl/mxv
	.byte	W01
	.byte		BEND  , c_v-42
	.byte	W02
	.byte		        c_v-42
	.byte	W01
	.byte		VOL   , 3*seq_057_mvl/mxv
	.byte	W01
	.byte		BEND  , c_v-43
	.byte	W02
	.byte		        c_v-44
	.byte	W01
	.byte		VOL   , 1*seq_057_mvl/mxv
	.byte	W01
	.byte		BEND  , c_v-45
	.byte	W02
	.byte		        c_v-45
	.byte	W01
	.byte		VOL   , 0*seq_057_mvl/mxv
	.byte	W01
	.byte		BEND  , c_v-46
	.byte	W02
	.byte		VOL   , 0*seq_057_mvl/mxv
	.byte		BEND  , c_v-47
	.byte	W02
	.byte		        c_v-47
	.byte	W02
	.byte		        c_v-48
	.byte	W02
	.byte		        c_v-49
	.byte	W02
	.byte		        c_v-49
	.byte	W02
	.byte		        c_v-50
	.byte	W02
	.byte		        c_v-51
	.byte	W02
	.byte		        c_v-51
	.byte	W02
	.byte		        c_v-52
	.byte	W02
	.byte		        c_v-53
	.byte	W02
	.byte		        c_v-53
	.byte	W02
	.byte		        c_v-54
	.byte	W02
	.byte		        c_v-55
	.byte	W02
	.byte		        c_v-56
	.byte	W02
	.byte		        c_v-56
	.byte	W02
	.byte		        c_v-57
	.byte	W02
	.byte		        c_v-58
	.byte	W02
	.byte		        c_v-58
	.byte	W02
	.byte		        c_v-59
	.byte	W02
	.byte		        c_v-60
	.byte	W02
	.byte		        c_v-60
	.byte	W02
	.byte		        c_v-61
	.byte	W02
	.byte		        c_v-62
	.byte	W02
	.byte		        c_v-62
	.byte	W02
	.byte		        c_v-63
	.byte	W02
	.byte		        c_v-64
	.byte	W02
	.byte		        c_v-64
	.byte	W04
	.byte	FINE

@*********************** Track 02 ***********************@

seq_057_1:
	.byte	KEYSH , seq_057_key+0
	.byte		VOICE , 61
	.byte		VOL   , 95*seq_057_mvl/mxv
	.byte		PAN   , c_v+10
	.byte		BENDR , 24
	.byte		BEND  , c_v+0
	.byte		N10   , Cn4 , v112
	.byte	W24
	.byte		N13   , Gn3 
	.byte	W16
	.byte		N04   , Gn3 , v120
	.byte	W08
	.byte		N05   , An3 , v108
	.byte	W12
	.byte		TIE   , En4 , v096
	.byte	W36
	.byte	W96
	.byte	W84
	.byte		EOT
	.byte	W12
	.byte		N10   , Dn4 , v112
	.byte	W24
	.byte		N13   , An3 
	.byte	W16
	.byte		N04   , An3 , v120
	.byte	W08
	.byte		N05   , Bn3 , v108
	.byte	W12
	.byte		TIE   , Fs4 , v092
	.byte	W36
	.byte	W96
	.byte	W96
	.byte	W96
	.byte	W96
	.byte		EOT
	.byte		VOICE , 61
	.byte		VOL   , 103*seq_057_mvl/mxv
	.byte		PAN   , c_v+0
	.byte		BENDR , 24
	.byte		N11   , Gn3 , v112
	.byte	W48
	.byte		        Dn3 
	.byte	W48
	.byte		BEND  , c_v+0
	.byte		N60   , Bn2 
	.byte	W02
	.byte		BEND  , c_v-1
	.byte	W02
	.byte		        c_v-2
	.byte	W02
	.byte		        c_v-3
	.byte	W02
	.byte		        c_v-3
	.byte	W02
	.byte		        c_v-4
	.byte	W02
	.byte		        c_v-5
	.byte	W02
	.byte		        c_v-5
	.byte	W02
	.byte		        c_v-6
	.byte	W02
	.byte		        c_v-7
	.byte	W02
	.byte		        c_v-7
	.byte	W02
	.byte		        c_v-8
	.byte	W02
	.byte		        c_v-9
	.byte	W02
	.byte		        c_v-9
	.byte	W02
	.byte		        c_v-10
	.byte	W02
	.byte		        c_v-11
	.byte	W02
	.byte		        c_v-11
	.byte	W02
	.byte		        c_v-12
	.byte	W02
	.byte		        c_v-13
	.byte	W02
	.byte		        c_v-14
	.byte	W02
	.byte		        c_v-14
	.byte	W02
	.byte		        c_v-15
	.byte	W02
	.byte		        c_v-16
	.byte	W02
	.byte		        c_v-16
	.byte	W02
	.byte		VOL   , 102*seq_057_mvl/mxv
	.byte	W02
	.byte		BEND  , c_v-17
	.byte	W01
	.byte		VOL   , 94*seq_057_mvl/mxv
	.byte	W01
	.byte		BEND  , c_v-18
	.byte	W02
	.byte		        c_v-18
	.byte	W01
	.byte		VOL   , 86*seq_057_mvl/mxv
	.byte	W01
	.byte		BEND  , c_v-19
	.byte	W02
	.byte		        c_v-20
	.byte	W01
	.byte		VOL   , 79*seq_057_mvl/mxv
	.byte	W01
	.byte		BEND  , c_v-20
	.byte	W02
	.byte		VOL   , 72*seq_057_mvl/mxv
	.byte		BEND  , c_v-21
	.byte	W02
	.byte		        c_v-22
	.byte	W02
	.byte		VOL   , 65*seq_057_mvl/mxv
	.byte		BEND  , c_v-23
	.byte	W02
	.byte		        c_v-23
	.byte	W02
	.byte		VOL   , 59*seq_057_mvl/mxv
	.byte		BEND  , c_v-24
	.byte	W02
	.byte		        c_v-25
	.byte		N18   , Gn2 
	.byte	W01
	.byte		VOL   , 54*seq_057_mvl/mxv
	.byte	W01
	.byte		BEND  , c_v-25
	.byte	W02
	.byte		        c_v-26
	.byte	W01
	.byte		VOL   , 48*seq_057_mvl/mxv
	.byte	W01
	.byte		BEND  , c_v-27
	.byte	W02
	.byte		        c_v-27
	.byte	W01
	.byte		VOL   , 43*seq_057_mvl/mxv
	.byte	W01
	.byte		BEND  , c_v-28
	.byte	W02
	.byte		VOL   , 38*seq_057_mvl/mxv
	.byte		BEND  , c_v-29
	.byte	W02
	.byte		        c_v-29
	.byte	W02
	.byte		VOL   , 33*seq_057_mvl/mxv
	.byte		BEND  , c_v-30
	.byte	W02
	.byte		        c_v-31
	.byte		N06   , An2 , v092
	.byte	W02
	.byte		VOL   , 29*seq_057_mvl/mxv
	.byte		BEND  , c_v-31
	.byte	W02
	.byte		        c_v-32
	.byte	W02
	.byte		VOL   , 25*seq_057_mvl/mxv
	.byte		BEND  , c_v-33
	.byte		N12   , Bn2 , v112
	.byte	W02
	.byte		BEND  , c_v-34
	.byte	W01
	.byte		VOL   , 21*seq_057_mvl/mxv
	.byte	W01
	.byte		BEND  , c_v-34
	.byte	W02
	.byte		        c_v-35
	.byte	W01
	.byte		VOL   , 18*seq_057_mvl/mxv
	.byte	W01
	.byte		BEND  , c_v-36
	.byte	W02
	.byte		        c_v-36
	.byte	W01
	.byte		VOL   , 14*seq_057_mvl/mxv
	.byte	W01
	.byte		BEND  , c_v-37
	.byte	W02
	.byte		VOL   , 12*seq_057_mvl/mxv
	.byte		BEND  , c_v-38
	.byte	W02
	.byte		        c_v-38
	.byte	W02
	.byte		VOL   , 9*seq_057_mvl/mxv
	.byte		BEND  , c_v-39
	.byte	W02
	.byte		        c_v-40
	.byte	W02
	.byte		VOL   , 6*seq_057_mvl/mxv
	.byte		BEND  , c_v-40
	.byte	W02
	.byte		        c_v-41
	.byte		N12   , Cn3 
	.byte	W01
	.byte		VOL   , 5*seq_057_mvl/mxv
	.byte	W01
	.byte		BEND  , c_v-42
	.byte	W02
	.byte		        c_v-42
	.byte	W01
	.byte		VOL   , 3*seq_057_mvl/mxv
	.byte	W01
	.byte		BEND  , c_v-43
	.byte	W02
	.byte		        c_v-44
	.byte	W01
	.byte		VOL   , 1*seq_057_mvl/mxv
	.byte	W01
	.byte		BEND  , c_v-45
	.byte	W02
	.byte		        c_v-45
	.byte	W01
	.byte		VOL   , 0*seq_057_mvl/mxv
	.byte	W01
	.byte		BEND  , c_v-46
	.byte	W02
	.byte		VOL   , 0*seq_057_mvl/mxv
	.byte		BEND  , c_v-47
	.byte	W02
	.byte		        c_v-47
	.byte	W02
	.byte		        c_v-48
	.byte	W02
	.byte		        c_v-49
	.byte	W02
	.byte		        c_v-49
	.byte	W02
	.byte		        c_v-50
	.byte	W02
	.byte		        c_v-51
	.byte	W02
	.byte		        c_v-51
	.byte	W02
	.byte		        c_v-52
	.byte	W02
	.byte		        c_v-53
	.byte	W02
	.byte		        c_v-53
	.byte	W02
	.byte		        c_v-54
	.byte	W02
	.byte		        c_v-55
	.byte	W02
	.byte		        c_v-56
	.byte	W02
	.byte		        c_v-56
	.byte	W02
	.byte		        c_v-57
	.byte	W02
	.byte		        c_v-58
	.byte	W02
	.byte		        c_v-58
	.byte	W02
	.byte		        c_v-59
	.byte	W02
	.byte		        c_v-60
	.byte	W02
	.byte		        c_v-60
	.byte	W02
	.byte		        c_v-61
	.byte	W02
	.byte		        c_v-62
	.byte	W02
	.byte		        c_v-62
	.byte	W02
	.byte		        c_v-63
	.byte	W02
	.byte		        c_v-64
	.byte	W06
	.byte	FINE

@*********************** Track 03 ***********************@

seq_057_2:
	.byte	KEYSH , seq_057_key+0
	.byte		VOICE , 61
	.byte		VOL   , 90*seq_057_mvl/mxv
	.byte		PAN   , c_v-10
	.byte		BENDR , 24
	.byte		BEND  , c_v+0
	.byte		N10   , Gn3 , v112
	.byte	W24
	.byte		N13   , Cn3 
	.byte	W16
	.byte		N04   , Cn3 , v120
	.byte	W08
	.byte		N05   , En3 , v108
	.byte	W12
	.byte		TIE   , An3 , v096
	.byte	W36
	.byte	W96
	.byte	W84
	.byte		EOT
	.byte	W12
	.byte		N10   , An3 , v112
	.byte	W24
	.byte		N13   , Dn3 
	.byte	W16
	.byte		N04   , Dn3 , v120
	.byte	W08
	.byte		N05   , Fs3 , v108
	.byte	W12
	.byte		TIE   , Bn3 , v092
	.byte	W36
	.byte	W96
	.byte	W96
	.byte	W96
	.byte	W96
	.byte		EOT
	.byte		VOICE , 61
	.byte		VOL   , 95*seq_057_mvl/mxv
	.byte		PAN   , c_v+0
	.byte		BENDR , 24
	.byte		BEND  , c_v+0
	.byte		N11   , Dn3 , v112
	.byte	W48
	.byte		        Bn2 
	.byte	W48
	.byte		BEND  , c_v+0
	.byte		N60   , Gn2 
	.byte	W02
	.byte		BEND  , c_v-1
	.byte	W02
	.byte		        c_v-2
	.byte	W02
	.byte		        c_v-3
	.byte	W02
	.byte		        c_v-3
	.byte	W02
	.byte		        c_v-4
	.byte	W02
	.byte		        c_v-5
	.byte	W02
	.byte		        c_v-5
	.byte	W02
	.byte		        c_v-6
	.byte	W02
	.byte		        c_v-7
	.byte	W02
	.byte		        c_v-7
	.byte	W02
	.byte		        c_v-8
	.byte	W02
	.byte		        c_v-9
	.byte	W02
	.byte		        c_v-9
	.byte	W02
	.byte		        c_v-10
	.byte	W02
	.byte		        c_v-11
	.byte	W02
	.byte		        c_v-11
	.byte	W02
	.byte		        c_v-12
	.byte	W02
	.byte		        c_v-13
	.byte	W02
	.byte		        c_v-14
	.byte	W02
	.byte		        c_v-14
	.byte	W02
	.byte		        c_v-15
	.byte	W02
	.byte		        c_v-16
	.byte	W02
	.byte		        c_v-16
	.byte	W04
	.byte		        c_v-17
	.byte	W02
	.byte		        c_v-18
	.byte	W02
	.byte		        c_v-18
	.byte	W02
	.byte		        c_v-19
	.byte	W02
	.byte		        c_v-20
	.byte	W02
	.byte		        c_v-20
	.byte	W02
	.byte		        c_v-21
	.byte	W02
	.byte		        c_v-22
	.byte	W02
	.byte		        c_v-23
	.byte	W02
	.byte		        c_v-23
	.byte	W02
	.byte		        c_v-24
	.byte	W02
	.byte		VOL   , 67*seq_057_mvl/mxv
	.byte		BEND  , c_v-25
	.byte	W02
	.byte		        c_v-25
	.byte	W02
	.byte		        c_v-26
	.byte	W02
	.byte		        c_v-27
	.byte	W02
	.byte		        c_v-27
	.byte	W02
	.byte		        c_v-28
	.byte	W02
	.byte		VOL   , 45*seq_057_mvl/mxv
	.byte		BEND  , c_v-29
	.byte	W02
	.byte		        c_v-29
	.byte	W02
	.byte		        c_v-30
	.byte	W02
	.byte		        c_v-31
	.byte	W02
	.byte		        c_v-31
	.byte	W02
	.byte		        c_v-32
	.byte	W02
	.byte		VOL   , 28*seq_057_mvl/mxv
	.byte		BEND  , c_v-33
	.byte		N12
	.byte	W02
	.byte		BEND  , c_v-34
	.byte	W02
	.byte		        c_v-34
	.byte	W02
	.byte		        c_v-35
	.byte	W02
	.byte		        c_v-36
	.byte	W02
	.byte		        c_v-36
	.byte	W02
	.byte		VOL   , 15*seq_057_mvl/mxv
	.byte		BEND  , c_v-37
	.byte	W02
	.byte		        c_v-38
	.byte	W02
	.byte		        c_v-38
	.byte	W02
	.byte		        c_v-39
	.byte	W02
	.byte		        c_v-40
	.byte	W02
	.byte		        c_v-40
	.byte	W02
	.byte		VOL   , 6*seq_057_mvl/mxv
	.byte		BEND  , c_v-41
	.byte		N12   , En2 
	.byte	W02
	.byte		BEND  , c_v-42
	.byte	W02
	.byte		        c_v-42
	.byte	W02
	.byte		        c_v-43
	.byte	W02
	.byte		        c_v-44
	.byte	W02
	.byte		        c_v-45
	.byte	W02
	.byte		VOL   , 0*seq_057_mvl/mxv
	.byte		BEND  , c_v-45
	.byte	W02
	.byte		        c_v-46
	.byte	W02
	.byte		        c_v-47
	.byte	W02
	.byte		        c_v-47
	.byte	W02
	.byte		        c_v-48
	.byte	W02
	.byte		        c_v-49
	.byte	W02
	.byte		VOL   , 0*seq_057_mvl/mxv
	.byte		BEND  , c_v-49
	.byte	W02
	.byte		        c_v-50
	.byte	W02
	.byte		        c_v-51
	.byte	W02
	.byte		        c_v-51
	.byte	W02
	.byte		        c_v-52
	.byte	W02
	.byte		        c_v-53
	.byte	W02
	.byte		        c_v-53
	.byte	W02
	.byte		        c_v-54
	.byte	W02
	.byte		        c_v-55
	.byte	W02
	.byte		        c_v-56
	.byte	W02
	.byte		        c_v-56
	.byte	W02
	.byte		        c_v-57
	.byte	W02
	.byte		        c_v-58
	.byte	W02
	.byte		        c_v-58
	.byte	W02
	.byte		        c_v-59
	.byte	W02
	.byte		        c_v-60
	.byte	W02
	.byte		        c_v-60
	.byte	W02
	.byte		        c_v-61
	.byte	W02
	.byte		        c_v-62
	.byte	W02
	.byte		        c_v-62
	.byte	W02
	.byte		        c_v-63
	.byte	W02
	.byte		        c_v-64
	.byte	W02
	.byte		        c_v-64
	.byte	W04
	.byte	FINE

@*********************** Track 04 ***********************@

seq_057_3:
	.byte	KEYSH , seq_057_key+0
	.byte		VOICE , 122
	.byte		VOL   , 43*seq_057_mvl/mxv
	.byte		PAN   , c_v-64
	.byte		BENDR , 24
	.byte		TIE   , Gn2 , v112
	.byte	W96
	.byte	W92
	.byte		EOT
	.byte	W04
	.byte		N32
	.byte	W36
	.byte	W01
	.byte		N30   , Gn2 , v108
	.byte	W32
	.byte	W03
	.byte		N18   , Gn2 , v112
	.byte	W24
	.byte		TIE   , An2 
	.byte	W96
	.byte	W92
	.byte		EOT
	.byte	W04
	.byte		N06
	.byte	W12
	.byte		TIE
	.byte	W84
	.byte	W96
	.byte	W96
	.byte		EOT
	.byte		VOICE , 61
	.byte		VOL   , 95*seq_057_mvl/mxv
	.byte		PAN   , c_v-20
	.byte		BENDR , 24
	.byte	W96
	.byte		BEND  , c_v+0
	.byte	W02
	.byte		        c_v-1
	.byte	W02
	.byte		        c_v-2
	.byte	W02
	.byte		        c_v-3
	.byte	W02
	.byte		        c_v-3
	.byte	W02
	.byte		        c_v-4
	.byte	W02
	.byte		        c_v-5
	.byte	W02
	.byte		        c_v-5
	.byte	W02
	.byte		        c_v-6
	.byte	W02
	.byte		        c_v-7
	.byte	W02
	.byte		        c_v-7
	.byte	W02
	.byte		        c_v-8
	.byte	W02
	.byte		        c_v-9
	.byte		N04   , Bn3 
	.byte	W02
	.byte		BEND  , c_v-9
	.byte	W02
	.byte		        c_v-10
	.byte	W02
	.byte		        c_v-11
	.byte	W02
	.byte		        c_v-11
	.byte		N04   , Bn3 , v100
	.byte	W02
	.byte		BEND  , c_v-12
	.byte	W02
	.byte		        c_v-13
	.byte	W02
	.byte		        c_v-14
	.byte	W02
	.byte		        c_v-14
	.byte		N04
	.byte	W02
	.byte		BEND  , c_v-15
	.byte	W02
	.byte		        c_v-16
	.byte	W02
	.byte		        c_v-16
	.byte	W02
	.byte		VOL   , 93*seq_057_mvl/mxv
	.byte		N36   , Bn3 , v112
	.byte	W02
	.byte		BEND  , c_v-17
	.byte	W01
	.byte		VOL   , 85*seq_057_mvl/mxv
	.byte	W01
	.byte		BEND  , c_v-18
	.byte	W02
	.byte		        c_v-18
	.byte	W01
	.byte		VOL   , 78*seq_057_mvl/mxv
	.byte	W01
	.byte		BEND  , c_v-19
	.byte	W02
	.byte		        c_v-20
	.byte	W01
	.byte		VOL   , 72*seq_057_mvl/mxv
	.byte	W01
	.byte		BEND  , c_v-20
	.byte	W02
	.byte		VOL   , 66*seq_057_mvl/mxv
	.byte		BEND  , c_v-21
	.byte	W02
	.byte		        c_v-22
	.byte	W02
	.byte		VOL   , 60*seq_057_mvl/mxv
	.byte		BEND  , c_v-23
	.byte	W02
	.byte		        c_v-23
	.byte	W02
	.byte		VOL   , 54*seq_057_mvl/mxv
	.byte		BEND  , c_v-24
	.byte	W02
	.byte		        c_v-25
	.byte	W01
	.byte		VOL   , 49*seq_057_mvl/mxv
	.byte	W01
	.byte		BEND  , c_v-25
	.byte	W02
	.byte		        c_v-26
	.byte	W01
	.byte		VOL   , 44*seq_057_mvl/mxv
	.byte	W01
	.byte		BEND  , c_v-27
	.byte	W02
	.byte		        c_v-27
	.byte	W01
	.byte		VOL   , 39*seq_057_mvl/mxv
	.byte	W01
	.byte		BEND  , c_v-28
	.byte	W02
	.byte		VOL   , 34*seq_057_mvl/mxv
	.byte		BEND  , c_v-29
	.byte	W02
	.byte		        c_v-29
	.byte	W02
	.byte		VOL   , 30*seq_057_mvl/mxv
	.byte		BEND  , c_v-30
	.byte	W02
	.byte		        c_v-31
	.byte	W02
	.byte		VOL   , 26*seq_057_mvl/mxv
	.byte		BEND  , c_v-31
	.byte	W02
	.byte		        c_v-32
	.byte	W02
	.byte		VOL   , 22*seq_057_mvl/mxv
	.byte		BEND  , c_v-33
	.byte	W02
	.byte		        c_v-34
	.byte	W01
	.byte		VOL   , 19*seq_057_mvl/mxv
	.byte	W01
	.byte		BEND  , c_v-34
	.byte	W02
	.byte		        c_v-35
	.byte	W01
	.byte		VOL   , 16*seq_057_mvl/mxv
	.byte	W01
	.byte		BEND  , c_v-36
	.byte	W02
	.byte		        c_v-36
	.byte	W01
	.byte		VOL   , 12*seq_057_mvl/mxv
	.byte	W01
	.byte		BEND  , c_v-37
	.byte	W02
	.byte		VOL   , 10*seq_057_mvl/mxv
	.byte		BEND  , c_v-38
	.byte	W02
	.byte		        c_v-38
	.byte	W02
	.byte		VOL   , 8*seq_057_mvl/mxv
	.byte		BEND  , c_v-39
	.byte	W02
	.byte		        c_v-40
	.byte	W02
	.byte		VOL   , 6*seq_057_mvl/mxv
	.byte		BEND  , c_v-40
	.byte	W02
	.byte		        c_v-41
	.byte	W01
	.byte		VOL   , 4*seq_057_mvl/mxv
	.byte	W01
	.byte		BEND  , c_v-42
	.byte	W02
	.byte		        c_v-42
	.byte	W01
	.byte		VOL   , 2*seq_057_mvl/mxv
	.byte	W01
	.byte		BEND  , c_v-43
	.byte	W02
	.byte		        c_v-44
	.byte	W01
	.byte		VOL   , 1*seq_057_mvl/mxv
	.byte	W01
	.byte		BEND  , c_v-45
	.byte	W02
	.byte		        c_v-45
	.byte	W01
	.byte		VOL   , 0*seq_057_mvl/mxv
	.byte	W01
	.byte		BEND  , c_v-46
	.byte	W02
	.byte		VOL   , 0*seq_057_mvl/mxv
	.byte		BEND  , c_v-47
	.byte	W02
	.byte		        c_v-47
	.byte	W02
	.byte		        c_v-48
	.byte	W02
	.byte		        c_v-49
	.byte	W02
	.byte		        c_v-49
	.byte	W02
	.byte		        c_v-50
	.byte	W02
	.byte		        c_v-51
	.byte	W02
	.byte		        c_v-51
	.byte	W02
	.byte		        c_v-52
	.byte	W02
	.byte		        c_v-53
	.byte	W02
	.byte		        c_v-53
	.byte	W02
	.byte		        c_v-54
	.byte	W02
	.byte		        c_v-55
	.byte	W02
	.byte		        c_v-56
	.byte	W02
	.byte		        c_v-56
	.byte	W02
	.byte		        c_v-57
	.byte	W02
	.byte		        c_v-58
	.byte	W02
	.byte		        c_v-58
	.byte	W02
	.byte		        c_v-59
	.byte	W02
	.byte		        c_v-60
	.byte	W02
	.byte		        c_v-60
	.byte	W02
	.byte		        c_v-61
	.byte	W02
	.byte		        c_v-62
	.byte	W02
	.byte		        c_v-62
	.byte	W02
	.byte		        c_v-63
	.byte	W02
	.byte		        c_v-64
	.byte	W02
	.byte		        c_v-64
	.byte	W04
	.byte	FINE

@*********************** Track 05 ***********************@

seq_057_4:
	.byte	KEYSH , seq_057_key+0
	.byte		VOICE , 121
	.byte		VOL   , 43*seq_057_mvl/mxv
	.byte		PAN   , c_v+63
	.byte		BENDR , 24
	.byte		TIE   , Cn2 , v112
	.byte	W96
	.byte	W92
	.byte		EOT
	.byte	W04
	.byte		N32
	.byte	W36
	.byte	W01
	.byte		N30   , Cn2 , v108
	.byte	W32
	.byte	W03
	.byte		N18   , Cn2 , v112
	.byte	W24
	.byte		TIE   , Dn2 
	.byte	W96
	.byte	W92
	.byte		EOT
	.byte	W04
	.byte		N06
	.byte	W12
	.byte		TIE
	.byte	W84
	.byte	W96
	.byte	W96
	.byte		EOT
	.byte		VOICE , 102
	.byte		VOL   , 56*seq_057_mvl/mxv
	.byte		PAN   , c_v+0
	.byte		BENDR , 24
	.byte	W96
	.byte		BEND  , c_v+0
	.byte	W02
	.byte		        c_v-1
	.byte	W02
	.byte		        c_v-2
	.byte	W02
	.byte		        c_v-3
	.byte	W02
	.byte		        c_v-3
	.byte	W02
	.byte		        c_v-4
	.byte	W02
	.byte		        c_v-5
	.byte	W02
	.byte		        c_v-5
	.byte	W02
	.byte		        c_v-6
	.byte	W02
	.byte		        c_v-7
	.byte	W02
	.byte		        c_v-7
	.byte	W02
	.byte		        c_v-8
	.byte	W02
	.byte		        c_v-9
	.byte		N04   , Gn3 
	.byte	W02
	.byte		BEND  , c_v-9
	.byte	W02
	.byte		        c_v-10
	.byte	W02
	.byte		        c_v-11
	.byte	W02
	.byte		        c_v-11
	.byte		N04   , Gn3 , v100
	.byte	W02
	.byte		BEND  , c_v-12
	.byte	W02
	.byte		        c_v-13
	.byte	W02
	.byte		        c_v-14
	.byte	W02
	.byte		        c_v-14
	.byte		N04
	.byte	W02
	.byte		BEND  , c_v-15
	.byte	W02
	.byte		        c_v-16
	.byte	W02
	.byte		        c_v-16
	.byte	W02
	.byte		N36   , Gn3 , v112
	.byte	W02
	.byte		BEND  , c_v-17
	.byte	W02
	.byte		        c_v-18
	.byte	W02
	.byte		        c_v-18
	.byte	W02
	.byte		        c_v-19
	.byte	W02
	.byte		        c_v-20
	.byte	W02
	.byte		        c_v-20
	.byte	W02
	.byte		        c_v-21
	.byte	W02
	.byte		        c_v-22
	.byte	W02
	.byte		        c_v-23
	.byte	W02
	.byte		        c_v-23
	.byte	W02
	.byte		        c_v-24
	.byte	W02
	.byte		VOL   , 67*seq_057_mvl/mxv
	.byte		BEND  , c_v-25
	.byte	W02
	.byte		        c_v-25
	.byte	W02
	.byte		        c_v-26
	.byte	W02
	.byte		        c_v-27
	.byte	W01
	.byte		VOL   , 53*seq_057_mvl/mxv
	.byte	W01
	.byte		BEND  , c_v-27
	.byte	W02
	.byte		        c_v-28
	.byte	W02
	.byte		        c_v-29
	.byte	W02
	.byte		VOL   , 42*seq_057_mvl/mxv
	.byte		BEND  , c_v-29
	.byte	W02
	.byte		        c_v-30
	.byte	W02
	.byte		        c_v-31
	.byte	W02
	.byte		        c_v-31
	.byte	W02
	.byte		VOL   , 32*seq_057_mvl/mxv
	.byte		BEND  , c_v-32
	.byte	W02
	.byte		        c_v-33
	.byte	W02
	.byte		        c_v-34
	.byte	W02
	.byte		        c_v-34
	.byte	W01
	.byte		VOL   , 22*seq_057_mvl/mxv
	.byte	W01
	.byte		BEND  , c_v-35
	.byte	W02
	.byte		        c_v-36
	.byte	W02
	.byte		        c_v-36
	.byte	W02
	.byte		        c_v-37
	.byte	W01
	.byte		VOL   , 15*seq_057_mvl/mxv
	.byte	W01
	.byte		BEND  , c_v-38
	.byte	W02
	.byte		        c_v-38
	.byte	W02
	.byte		        c_v-39
	.byte	W02
	.byte		VOL   , 9*seq_057_mvl/mxv
	.byte		BEND  , c_v-40
	.byte	W02
	.byte		        c_v-40
	.byte	W02
	.byte		        c_v-41
	.byte	W02
	.byte		        c_v-42
	.byte	W01
	.byte		VOL   , 5*seq_057_mvl/mxv
	.byte	W01
	.byte		BEND  , c_v-42
	.byte	W02
	.byte		        c_v-43
	.byte	W02
	.byte		        c_v-44
	.byte	W02
	.byte		        c_v-45
	.byte	W01
	.byte		VOL   , 1*seq_057_mvl/mxv
	.byte	W01
	.byte		BEND  , c_v-45
	.byte	W02
	.byte		        c_v-46
	.byte	W02
	.byte		        c_v-47
	.byte	W02
	.byte		VOL   , 0*seq_057_mvl/mxv
	.byte		BEND  , c_v-47
	.byte	W02
	.byte		        c_v-48
	.byte	W02
	.byte		        c_v-49
	.byte	W02
	.byte		        c_v-49
	.byte	W02
	.byte		        c_v-50
	.byte	W02
	.byte		        c_v-51
	.byte	W02
	.byte		        c_v-51
	.byte	W02
	.byte		        c_v-52
	.byte	W02
	.byte		        c_v-53
	.byte	W02
	.byte		        c_v-53
	.byte	W02
	.byte		        c_v-54
	.byte	W02
	.byte		        c_v-55
	.byte	W02
	.byte		        c_v-56
	.byte	W02
	.byte		        c_v-56
	.byte	W02
	.byte		        c_v-57
	.byte	W02
	.byte		        c_v-58
	.byte	W02
	.byte		        c_v-58
	.byte	W02
	.byte		        c_v-59
	.byte	W02
	.byte		        c_v-60
	.byte	W02
	.byte		        c_v-60
	.byte	W02
	.byte		        c_v-61
	.byte	W02
	.byte		        c_v-62
	.byte	W02
	.byte		        c_v-62
	.byte	W02
	.byte		        c_v-63
	.byte	W02
	.byte		        c_v-64
	.byte	W06
	.byte	FINE

@*********************** Track 06 ***********************@

seq_057_5:
	.byte	KEYSH , seq_057_key+0
	.byte	W96
	.byte		VOICE , 72
	.byte		VOL   , 38*seq_057_mvl/mxv
	.byte		PAN   , c_v-25
	.byte	W24
	.byte		N04   , An4 , v084
	.byte	W04
	.byte		        Bn4 , v092
	.byte	W04
	.byte		        Cn5 , v080
	.byte	W04
	.byte		        Dn5 , v072
	.byte	W04
	.byte		        En5 , v064
	.byte	W04
	.byte		        Fs5 , v060
	.byte	W04
	.byte		        Gn5 , v108
	.byte	W04
	.byte		        An5 , v100
	.byte	W04
	.byte		        Gn5 , v092
	.byte	W04
	.byte		        An5 , v088
	.byte	W04
	.byte		        Gn5 , v080
	.byte	W04
	.byte		        An5 , v076
	.byte	W04
	.byte		        Gn5 , v072
	.byte	W04
	.byte		        An5 , v068
	.byte	W04
	.byte		        Gn5 , v064
	.byte	W04
	.byte		        An5 
	.byte	W04
	.byte		        Gn5 , v060
	.byte	W04
	.byte		        An5 , v056
	.byte	W04
	.byte		        Gn5 
	.byte	W04
	.byte		        An5 
	.byte	W04
	.byte		        Gn5 
	.byte	W04
	.byte		        An5 
	.byte	W04
	.byte		        Gn5 , v060
	.byte	W04
	.byte		        An5 
	.byte	W04
	.byte		        Gn5 , v064
	.byte	W04
	.byte		        An5 , v072
	.byte	W04
	.byte		        Gn5 , v076
	.byte	W04
	.byte		        An5 , v080
	.byte	W04
	.byte		        Gn5 , v088
	.byte	W04
	.byte		        An5 , v096
	.byte	W04
	.byte		        Gn5 , v100
	.byte	W04
	.byte		        An5 , v104
	.byte	W04
	.byte		        Gn5 , v108
	.byte	W04
	.byte		        An5 
	.byte	W04
	.byte		        Gn5 
	.byte	W04
	.byte		        An5 , v104
	.byte	W04
	.byte		        Gn5 
	.byte	W04
	.byte		        An5 , v100
	.byte	W04
	.byte		        Gn5 , v092
	.byte	W04
	.byte		        An5 , v088
	.byte	W04
	.byte		        Gn5 , v076
	.byte	W04
	.byte		        An5 , v052
	.byte	W04
	.byte	W96
	.byte	W24
	.byte		        Bn4 , v084
	.byte	W04
	.byte		        Cn5 , v092
	.byte	W04
	.byte		        Dn5 , v080
	.byte	W04
	.byte		        En5 , v072
	.byte	W04
	.byte		        Fs5 , v064
	.byte	W04
	.byte		        Gn5 , v060
	.byte	W04
	.byte		        An5 , v108
	.byte	W04
	.byte		        Bn5 , v100
	.byte	W04
	.byte		        An5 , v092
	.byte	W04
	.byte		        Bn5 , v088
	.byte	W04
	.byte		        An5 , v080
	.byte	W04
	.byte		        Bn5 , v076
	.byte	W04
	.byte		        An5 , v068
	.byte	W04
	.byte		        Bn5 , v064
	.byte	W04
	.byte		        An5 , v060
	.byte	W04
	.byte		        Bn5 , v056
	.byte	W04
	.byte		        An5 
	.byte	W04
	.byte		        Bn5 , v052
	.byte	W04
	.byte		        An5 
	.byte	W04
	.byte		        Bn5 
	.byte	W04
	.byte		        An5 , v056
	.byte	W04
	.byte		        Bn5 
	.byte	W04
	.byte		        An5 , v060
	.byte	W04
	.byte		        Bn5 , v064
	.byte	W04
	.byte		        An5 , v068
	.byte	W04
	.byte		        Bn5 , v072
	.byte	W04
	.byte		        An5 , v076
	.byte	W04
	.byte		        Bn5 , v080
	.byte	W04
	.byte		        An5 , v084
	.byte	W04
	.byte		        Bn5 , v088
	.byte	W04
	.byte		        An5 , v092
	.byte	W04
	.byte		        Bn5 , v096
	.byte	W04
	.byte		        An5 
	.byte	W04
	.byte		        Bn5 
	.byte	W04
	.byte		        An5 
	.byte	W04
	.byte		        Bn5 
	.byte	W04
	.byte		        An5 
	.byte	W04
	.byte		        Bn5 
	.byte	W04
	.byte		        An5 
	.byte	W04
	.byte		        Bn5 
	.byte	W04
	.byte		        An5 
	.byte	W04
	.byte		        Bn5 
	.byte	W04
	.byte		N04   , An5 , v096
	.byte	W04
	.byte		        Bn5 
	.byte	W04
	.byte		        An5 
	.byte	W04
	.byte		        Bn5 
	.byte	W04
	.byte		        An5 
	.byte	W04
	.byte		        Bn5 
	.byte	W04
	.byte		        An5 
	.byte	W04
	.byte		        Bn5 
	.byte	W04
	.byte		        An5 
	.byte	W04
	.byte		        Bn5 
	.byte	W04
	.byte		        An5 
	.byte	W04
	.byte		        Bn5 
	.byte	W04
	.byte		        An5 
	.byte	W04
	.byte		        Bn5 
	.byte	W04
	.byte		        An5 
	.byte	W04
	.byte		        Bn5 
	.byte	W04
	.byte		        An5 
	.byte	W04
	.byte		        Bn5 
	.byte	W04
	.byte		        An5 
	.byte	W04
	.byte		        Bn5 
	.byte	W04
	.byte		        An5 
	.byte	W04
	.byte		        Bn5 
	.byte	W04
	.byte		        An5 
	.byte	W04
	.byte		        Bn5 
	.byte	W04
	.byte	PEND
	.byte	PATT
	 .word	seq_057_5 + 0xF2
	.byte	W96
	.byte	W96
	.byte	W96
	.byte	FINE

@*********************** Track 07 ***********************@

seq_057_6:
	.byte	KEYSH , seq_057_key+0
	.byte		VOICE , 127
	.byte		VOL   , 99*seq_057_mvl/mxv
	.byte		BENDR , 24
	.byte		N08   , Cn0 , v100
	.byte	W01
	.byte		N48   , Bn2 
	.byte	W07
	.byte		N04   , Cn0 , v020
	.byte	W04
	.byte		        Cn0 , v028
	.byte	W04
	.byte		        Cn0 , v044
	.byte	W04
	.byte		        Cn0 , v068
	.byte	W04
	.byte		N08   , Cn0 , v096
	.byte	W08
	.byte		N04   , Cn0 , v020
	.byte	W04
	.byte		        Cn0 , v028
	.byte	W04
	.byte		        Cn0 , v044
	.byte	W04
	.byte		        Cn0 , v068
	.byte	W04
	.byte		N08   , Cn0 , v108
	.byte	W08
	.byte		N04   , Cn0 , v020
	.byte	W04
	.byte		        Cn0 , v028
	.byte	W04
	.byte		        Cn0 , v044
	.byte	W04
	.byte		        Cn0 , v068
	.byte	W04
	.byte		N08   , Cn0 , v096
	.byte	W08
	.byte		N04   , Cn0 , v020
	.byte	W04
	.byte		        Cn0 , v028
	.byte	W04
	.byte		        Cn0 , v044
	.byte	W04
	.byte		        Cn0 , v068
	.byte	W04
	.byte		N08   , Cn0 , v100
	.byte	W08
	.byte		N04   , Cn0 , v020
	.byte	W04
	.byte		        Cn0 , v028
	.byte	W04
	.byte		        Cn0 , v044
	.byte	W04
	.byte		        Cn0 , v068
	.byte	W04
	.byte		N08   , Cn0 , v096
	.byte	W08
	.byte		N04   , Cn0 , v020
	.byte	W04
	.byte		        Cn0 , v028
	.byte	W04
	.byte		        Cn0 , v044
	.byte	W04
	.byte		        Cn0 , v068
	.byte	W04
	.byte		N08   , Cn0 , v108
	.byte	W08
	.byte		N04   , Cn0 , v020
	.byte	W04
	.byte		        Cn0 , v028
	.byte	W04
	.byte		        Cn0 , v044
	.byte	W04
	.byte		        Cn0 , v068
	.byte	W04
	.byte		N08   , Cn0 , v096
	.byte	W08
	.byte		N04   , Cn0 , v020
	.byte	W04
	.byte		        Cn0 , v028
	.byte	W04
	.byte		        Cn0 , v044
	.byte	W04
	.byte		        Cn0 , v068
	.byte	W04
	.byte		N12   , Cn0 , v112
	.byte	W24
	.byte		N05   , Cn0 , v072
	.byte	W05
	.byte		N03   , Cn0 , v088
	.byte	W03
	.byte		        Cn0 , v072
	.byte	W04
	.byte		N04   , Cn0 , v040
	.byte	W04
	.byte		N03   , Cn0 , v060
	.byte	W03
	.byte		N04   , Cn0 , v048
	.byte	W05
	.byte		N12   , Cn0 , v108
	.byte	W16
	.byte		N08   , Cn0 , v084
	.byte	W08
	.byte		N03   , Cn0 , v104
	.byte	W03
	.byte		        Cn0 , v068
	.byte	W03
	.byte		        Cn0 , v056
	.byte	W03
	.byte		        Cn0 , v064
	.byte	W03
	.byte		        Cn0 , v060
	.byte	W03
	.byte		        Cn0 , v052
	.byte	W03
	.byte		        Cn0 , v064
	.byte	W03
	.byte		        Cn0 , v072
	.byte	W03
	.byte		N08   , Cn0 , v100
	.byte	W01
	.byte		N48   , Bn2 
	.byte	W07
	.byte		N04   , Cn0 , v020
	.byte	W04
	.byte		        Cn0 , v028
	.byte	W04
	.byte		        Cn0 , v044
	.byte	W04
	.byte		        Cn0 , v068
	.byte	W04
	.byte		N08   , Cn0 , v096
	.byte	W08
	.byte		N04   , Cn0 , v020
	.byte	W04
	.byte		        Cn0 , v028
	.byte	W04
	.byte		        Cn0 , v044
	.byte	W04
	.byte		        Cn0 , v068
	.byte	W04
	.byte		N08   , Cn0 , v108
	.byte	W08
	.byte		N04   , Cn0 , v020
	.byte	W04
	.byte		        Cn0 , v028
	.byte	W04
	.byte		        Cn0 , v044
	.byte	W04
	.byte		        Cn0 , v068
	.byte	W04
	.byte		N08   , Cn0 , v096
	.byte	W08
	.byte		N04   , Cn0 , v020
	.byte	W04
	.byte		        Cn0 , v028
	.byte	W04
	.byte		        Cn0 , v044
	.byte	W04
	.byte		        Cn0 , v068
	.byte	W04
	.byte		N08   , Cn0 , v100
	.byte	W08
	.byte		N04   , Cn0 , v020
	.byte	W04
	.byte		        Cn0 , v028
	.byte	W04
	.byte		        Cn0 , v044
	.byte	W04
	.byte		        Cn0 , v068
	.byte	W04
	.byte		N08   , Cn0 , v096
	.byte	W08
	.byte		N04   , Cn0 , v020
	.byte	W04
	.byte		        Cn0 , v028
	.byte	W04
	.byte		        Cn0 , v044
	.byte	W04
	.byte		        Cn0 , v068
	.byte	W04
	.byte		N08   , Cn0 , v108
	.byte	W08
	.byte		N04   , Cn0 , v020
	.byte	W04
	.byte		        Cn0 , v028
	.byte	W04
	.byte		        Cn0 , v044
	.byte	W04
	.byte		        Cn0 , v068
	.byte	W04
	.byte		N08   , Cn0 , v096
	.byte	W08
	.byte		N04   , Cn0 , v020
	.byte	W04
	.byte		        Cn0 , v028
	.byte	W04
	.byte		        Cn0 , v044
	.byte	W04
	.byte		        Cn0 , v048
	.byte	W04
	.byte		N08   , Cn0 , v104
	.byte	W01
	.byte		N48   , Bn2 , v092
	.byte	W07
	.byte		N08   , Cn0 , v088
	.byte	W08
	.byte		N04   , Cn0 , v068
	.byte	W04
	.byte		        Cn0 , v060
	.byte	W04
	.byte		        Cn0 , v052
	.byte	W04
	.byte		        Cn0 , v048
	.byte	W04
	.byte		N04
	.byte	W04
	.byte		        Cn0 , v052
	.byte	W04
	.byte		        Cn0 , v060
	.byte	W04
	.byte		        Cn0 , v068
	.byte	W04
	.byte		        Cn0 , v076
	.byte	W04
	.byte		N04
	.byte	W04
	.byte		        Cn0 , v072
	.byte	W04
	.byte		N04
	.byte	W04
	.byte		        Cn0 , v068
	.byte	W04
	.byte		        Cn0 , v060
	.byte	W04
	.byte		        Cn0 , v052
	.byte	W04
	.byte		        Cn0 , v048
	.byte	W04
	.byte		N04
	.byte	W04
	.byte		        Cn0 , v052
	.byte	W04
	.byte		        Cn0 , v060
	.byte	W04
	.byte		        Cn0 , v068
	.byte	W04
	.byte		N04   , Cn0 , v076
	.byte	W04
	.byte		N04
	.byte	W04
	.byte		        Cn0 , v072
	.byte	W04
	.byte		N04
	.byte	W04
	.byte		        Cn0 , v068
	.byte	W04
	.byte		        Cn0 , v060
	.byte	W04
	.byte		        Cn0 , v052
	.byte	W04
	.byte		        Cn0 , v048
	.byte	W04
	.byte		N04
	.byte	W04
	.byte		        Cn0 , v052
	.byte	W04
	.byte		        Cn0 , v060
	.byte	W04
	.byte		        Cn0 , v068
	.byte	W04
	.byte		        Cn0 , v076
	.byte	W04
	.byte		N04
	.byte	W04
	.byte		        Cn0 , v072
	.byte	W04
	.byte		N04
	.byte	W04
	.byte		        Cn0 , v068
	.byte	W04
	.byte		        Cn0 , v060
	.byte	W04
	.byte		        Cn0 , v052
	.byte	W04
	.byte		        Cn0 , v048
	.byte	W04
	.byte		N04
	.byte	W04
	.byte		        Cn0 , v052
	.byte	W04
	.byte		        Cn0 , v060
	.byte	W04
	.byte		        Cn0 , v068
	.byte	W04
	.byte	PEND
	.byte	PATT
	 .word	seq_057_6 + 0x19F
	.byte		VOICE , 127
	.byte		VOL   , 99*seq_057_mvl/mxv
	.byte		BENDR , 24
	.byte		N08   , EnM2, v100
	.byte	W01
	.byte		N48   , Bn2 , v112
	.byte	W23
	.byte		N08   , EnM2, v096
	.byte	W08
	.byte		        EnM2, v056
	.byte	W08
	.byte		        EnM2, v064
	.byte	W08
	.byte		        EnM2, v108
	.byte	W24
	.byte		        EnM2, v096
	.byte	W24
	.byte		BEND  , c_v+0
	.byte		N08   , EnM2, v100
	.byte	W02
	.byte		BEND  , c_v-1
	.byte	W02
	.byte		        c_v-2
	.byte	W02
	.byte		        c_v-3
	.byte	W02
	.byte		        c_v-3
	.byte	W02
	.byte		        c_v-4
	.byte	W02
	.byte		        c_v-5
	.byte	W02
	.byte		        c_v-5
	.byte	W02
	.byte		        c_v-6
	.byte	W02
	.byte		        c_v-7
	.byte	W02
	.byte		        c_v-7
	.byte	W02
	.byte		        c_v-8
	.byte	W02
	.byte		        c_v-9
	.byte		N08   , EnM2, v096
	.byte	W02
	.byte		BEND  , c_v-9
	.byte	W02
	.byte		        c_v-10
	.byte	W02
	.byte		        c_v-11
	.byte	W02
	.byte		        c_v-11
	.byte		N08   , EnM2, v056
	.byte	W02
	.byte		BEND  , c_v-12
	.byte	W02
	.byte		        c_v-13
	.byte	W02
	.byte		        c_v-14
	.byte	W02
	.byte		        c_v-14
	.byte		N08   , EnM2, v064
	.byte	W02
	.byte		BEND  , c_v-15
	.byte	W02
	.byte		        c_v-16
	.byte	W02
	.byte		        c_v-16
	.byte	W02
	.byte		N12   , EnM2, v108
	.byte	W02
	.byte		BEND  , c_v-17
	.byte	W02
	.byte		        c_v-18
	.byte	W02
	.byte		        c_v-18
	.byte	W02
	.byte		        c_v-19
	.byte	W02
	.byte		        c_v-20
	.byte	W02
	.byte		        c_v-20
	.byte	W02
	.byte		        c_v-21
	.byte	W02
	.byte		        c_v-22
	.byte		N08   , EnM2, v084
	.byte	W02
	.byte		BEND  , c_v-23
	.byte	W02
	.byte		        c_v-23
	.byte	W02
	.byte		        c_v-24
	.byte	W02
	.byte		VOL   , 93*seq_057_mvl/mxv
	.byte		BEND  , c_v-25
	.byte		N03   , EnM2, v104
	.byte	W02
	.byte		BEND  , c_v-25
	.byte	W01
	.byte		VOL   , 88*seq_057_mvl/mxv
	.byte		N03   , EnM2, v068
	.byte	W01
	.byte		BEND  , c_v-26
	.byte	W02
	.byte		        c_v-27
	.byte		N03   , EnM2, v056
	.byte	W01
	.byte		VOL   , 83*seq_057_mvl/mxv
	.byte	W01
	.byte		BEND  , c_v-27
	.byte	W01
	.byte		N03   , EnM2, v064
	.byte	W01
	.byte		BEND  , c_v-28
	.byte	W01
	.byte		VOL   , 77*seq_057_mvl/mxv
	.byte	W01
	.byte		BEND  , c_v-29
	.byte		N03   , EnM2, v060
	.byte	W02
	.byte		BEND  , c_v-29
	.byte	W01
	.byte		VOL   , 73*seq_057_mvl/mxv
	.byte		N03   , EnM2, v052
	.byte	W01
	.byte		BEND  , c_v-30
	.byte	W02
	.byte		VOL   , 68*seq_057_mvl/mxv
	.byte		BEND  , c_v-31
	.byte		N03   , EnM2, v064
	.byte	W02
	.byte		BEND  , c_v-31
	.byte	W01
	.byte		N03   , EnM2, v072
	.byte	W01
	.byte		VOL   , 63*seq_057_mvl/mxv
	.byte		BEND  , c_v-32
	.byte	W02
	.byte		        c_v-33
	.byte		N08   , EnM2, v100
	.byte	W02
	.byte		VOL   , 58*seq_057_mvl/mxv
	.byte		BEND  , c_v-34
	.byte	W02
	.byte		        c_v-34
	.byte	W02
	.byte		VOL   , 53*seq_057_mvl/mxv
	.byte		BEND  , c_v-35
	.byte	W02
	.byte		        c_v-36
	.byte	W02
	.byte		VOL   , 48*seq_057_mvl/mxv
	.byte		BEND  , c_v-36
	.byte	W02
	.byte		        c_v-37
	.byte	W01
	.byte		VOL   , 44*seq_057_mvl/mxv
	.byte	W01
	.byte		BEND  , c_v-38
	.byte	W02
	.byte		        c_v-38
	.byte	W01
	.byte		VOL   , 38*seq_057_mvl/mxv
	.byte	W01
	.byte		BEND  , c_v-39
	.byte	W02
	.byte		        c_v-40
	.byte	W01
	.byte		VOL   , 33*seq_057_mvl/mxv
	.byte	W01
	.byte		BEND  , c_v-40
	.byte	W02
	.byte		        c_v-41
	.byte		N08   , EnM2, v096
	.byte	W01
	.byte		VOL   , 29*seq_057_mvl/mxv
	.byte	W01
	.byte		BEND  , c_v-42
	.byte	W02
	.byte		        c_v-42
	.byte	W01
	.byte		VOL   , 24*seq_057_mvl/mxv
	.byte	W01
	.byte		BEND  , c_v-43
	.byte	W02
	.byte		VOL   , 19*seq_057_mvl/mxv
	.byte		BEND  , c_v-44
	.byte		N08   , EnM2, v056
	.byte	W02
	.byte		BEND  , c_v-45
	.byte	W02
	.byte		VOL   , 14*seq_057_mvl/mxv
	.byte		BEND  , c_v-45
	.byte	W02
	.byte		        c_v-46
	.byte	W02
	.byte		VOL   , 9*seq_057_mvl/mxv
	.byte		BEND  , c_v-47
	.byte		N08   , EnM2, v064
	.byte	W02
	.byte		BEND  , c_v-47
	.byte	W02
	.byte		VOL   , 4*seq_057_mvl/mxv
	.byte		BEND  , c_v-48
	.byte	W02
	.byte		        c_v-49
	.byte	W02
	.byte		VOL   , 0*seq_057_mvl/mxv
	.byte		BEND  , c_v-49
	.byte	W02
	.byte		        c_v-50
	.byte	W02
	.byte		        c_v-51
	.byte	W02
	.byte		        c_v-51
	.byte	W02
	.byte		        c_v-52
	.byte	W02
	.byte		        c_v-53
	.byte	W02
	.byte		        c_v-53
	.byte	W02
	.byte		        c_v-54
	.byte	W02
	.byte		        c_v-55
	.byte	W02
	.byte		        c_v-56
	.byte	W02
	.byte		        c_v-56
	.byte	W02
	.byte		        c_v-57
	.byte	W02
	.byte		        c_v-58
	.byte	W02
	.byte		        c_v-58
	.byte	W02
	.byte		        c_v-59
	.byte	W02
	.byte		        c_v-60
	.byte	W02
	.byte		        c_v-60
	.byte	W02
	.byte		        c_v-61
	.byte	W02
	.byte		        c_v-62
	.byte	W02
	.byte		        c_v-62
	.byte	W02
	.byte		        c_v-63
	.byte	W02
	.byte		        c_v-64
	.byte	W02
	.byte		        c_v-64
	.byte	W04
	.byte	FINE

@******************************************************@

	.align	2

seq_057:
	.byte	7	@ NumTrks
	.byte	0	@ NumBlks
	.byte	seq_057_pri	@ Priority
	.byte	seq_057_rev	@ Reverb

	.word	seq_057_grp

	.word	seq_057_0
	.word	seq_057_1
	.word	seq_057_2
	.word	seq_057_3
	.word	seq_057_4
	.word	seq_057_5
	.word	seq_057_6

	.end
