@ File generated by m4a2s Song-Module
	.include "MPlayDef.s"

	.equ	seq_022_grp, bank_015
	.equ	seq_022_pri, 0
	.equ	seq_022_rev, 178
	.equ	seq_022_mvl, 127
	.equ	seq_022_key, 0

	.section .rodata
	.global	seq_022
	.align	2

@*********************** Track 01 ***********************@

seq_022_0:
	.byte	KEYSH , seq_022_key+0
	.byte	TEMPO , 170/2
	.byte		VOICE , 30
	.byte		VOL   , 86*seq_022_mvl/mxv
	.byte		PAN   , c_v+0
	.byte		BENDR , 2
	.byte	W96
	.byte		N11   , En1 , v100
	.byte	W12
	.byte		        Bn1 
	.byte	W12
	.byte		        En2 
	.byte	W12
	.byte		        Ds2 
	.byte	W36
	.byte		        En1 
	.byte	W12
	.byte		        Bn1 
	.byte	W12
	.byte	PEND
	.byte		N11   , Dn2 , v100
	.byte	W12
	.byte		        Cn2 
	.byte	W36
	.byte		        En1 
	.byte	W12
	.byte		        Bn1 
	.byte	W12
	.byte		        En2 
	.byte	W12
	.byte		        Ds2 
	.byte	W12
	.byte	PEND
	.byte	W12
	.byte		N11   , Dn2 , v100
	.byte	W24
	.byte		N18   , En1 
	.byte	W60
	.byte	PEND
	.byte	W12
	.byte		BEND  , c_v-64
	.byte	W11
	.byte		        c_v+0
	.byte	W01
	.byte		BENDR , 12
	.byte	W64
	.byte		BEND  , c_v-12
	.byte	W03
	.byte		        c_v-24
	.byte	W01
	.byte		        c_v-40
	.byte	W01
	.byte		        c_v-47
	.byte	W01
	.byte		        c_v-55
	.byte	W02
	.byte		BENDR , 2
	.byte		BEND  , c_v+0
	.byte		N11
	.byte	W12
	.byte		        Bn1 
	.byte	W12
	.byte		        En2 
	.byte	W12
	.byte		        Ds2 
	.byte	W36
	.byte		        En1 
	.byte	W12
	.byte		        Bn1 
	.byte	W12
	.byte	PATT
	 .word	seq_022_0 + 0x1C
	.byte	PATT
	 .word	seq_022_0 + 0x2B
	.byte	W48
	.byte	PATT
	 .word	seq_022_0 + 0xD
	.byte	PATT
	 .word	seq_022_0 + 0x1C
	.byte	PATT
	 .word	seq_022_0 + 0x2B
	.byte	W96
	.byte	PATT
	 .word	seq_022_0 + 0xD
	.byte	PATT
	 .word	seq_022_0 + 0x1C
	.byte	PATT
	 .word	seq_022_0 + 0x2B
	.byte		VOICE , 29
	.byte		VOL   , 99*seq_022_mvl/mxv
	.byte		PAN   , c_v+10
	.byte	W48
	.byte		N84   , En3 , v080
	.byte	W84
	.byte		N48   , Fn3 
	.byte	W12
	.byte	W36
	.byte		N36   , Gs3 
	.byte	W36
	.byte		N24   , Bn3 
	.byte	W24
	.byte		BEND  , c_v-47
	.byte		N24   , Dn4 , v100
	.byte	W01
	.byte		BEND  , c_v-40
	.byte	W01
	.byte		        c_v-36
	.byte	W02
	.byte		        c_v-24
	.byte	W01
	.byte		        c_v-16
	.byte	W01
	.byte		        c_v-8
	.byte	W01
	.byte		        c_v+0
	.byte	W28
	.byte	W01
	.byte		N36   , Dn3 , v080
	.byte	W36
	.byte		        En3 
	.byte	W24
	.byte	W12
	.byte		N12   , Gs3 
	.byte	W12
	.byte		        Bn3 
	.byte	W12
	.byte		        Dn4 
	.byte	W12
	.byte		BEND  , c_v-40
	.byte		N18   , Fn4 
	.byte	W01
	.byte		BEND  , c_v-32
	.byte	W01
	.byte		        c_v-24
	.byte	W01
	.byte		        c_v+0
	.byte	W32
	.byte	W01
	.byte		N12   , Dn4 
	.byte	W12
	.byte		N36   , En4 
	.byte	W36
	.byte	W02
	.byte		BEND  , c_v-40
	.byte		N24   , Gs4 
	.byte	W02
	.byte		BEND  , c_v-32
	.byte	W02
	.byte		        c_v-24
	.byte	W02
	.byte		        c_v+0
	.byte	W28
	.byte		N84   , Gs3 
	.byte	W24
	.byte	W60
	.byte		BEND  , c_v-55
	.byte		N16   , Dn4 
	.byte	W01
	.byte		BEND  , c_v-47
	.byte	W01
	.byte		        c_v-40
	.byte	W01
	.byte		        c_v+0
	.byte	W21
	.byte		N12   , Dn3 
	.byte	W12
	.byte		N72   , En3 
	.byte	W96
	.byte		VOICE , 30
	.byte		VOL   , 86*seq_022_mvl/mxv
	.byte		PAN   , c_v+0
	.byte	W96
	.byte	W96
	.byte	W96
	.byte	W96
	.byte	W96
	.byte		VOICE , 30
	.byte		VOL   , 82*seq_022_mvl/mxv
	.byte		PAN   , c_v-20
	.byte		N15   , En1 , v072
	.byte	W24
	.byte		N15
	.byte	W72
	.byte	W12
	.byte		N12   , Dn1 
	.byte	W12
	.byte		        En1 
	.byte	W12
	.byte		        Gs1 
	.byte	W12
	.byte		N24   , Bn1 
	.byte	W24
	.byte		        Dn2 
	.byte	W24
	.byte		N36   , En2 
	.byte	W36
	.byte		        Fn2 , v076
	.byte	W36
	.byte		        Gs2 , v084
	.byte	W24
	.byte	W12
	.byte		        Bn2 , v088
	.byte	W36
	.byte		N24   , Dn3 , v092
	.byte	W24
	.byte		N12   , Fn3 
	.byte	W24
	.byte		VOICE , 48
	.byte		VOL   , 82*seq_022_mvl/mxv
	.byte		PAN   , c_v+10
	.byte		TIE   , En4 , v112
	.byte	W96
	.byte	W16
	.byte		EOT
	.byte		N16   , Dn4 , v100
	.byte	W16
	.byte		        Cn4 
	.byte	W16
	.byte		N24   , Dn4 
	.byte	W24
	.byte		        Fn3 
	.byte	W24
	.byte		N36   , Gs3 
	.byte	W36
	.byte		        An3 
	.byte	W36
	.byte		N24   , Bn3 
	.byte	W24
	.byte	W12
	.byte		N36   , Dn3 
	.byte	W36
	.byte		N15   , Fn3 
	.byte	W24
	.byte		        Dn3 
	.byte	W24
	.byte		N36   , En3 
	.byte	W36
	.byte		        Dn3 
	.byte	W36
	.byte		N32   , En3 
	.byte	W24
	.byte	W12
	.byte		N12   , Fn3 
	.byte	W12
	.byte		        Gs3 
	.byte	W12
	.byte		        Bn3 
	.byte	W12
	.byte		N36   , Dn4 
	.byte	W36
	.byte		N12   , Fn4 
	.byte	W12
	.byte		N96   , En4 
	.byte	W96
	.byte		N48   , Fn4 , v096
	.byte	W48
	.byte		        Gs4 , v088
	.byte	W48
	.byte		N96   , Bn4 , v076
	.byte	W96
	.byte	W96
	.byte	W96
	.byte	GOTO
	 .word	seq_022_0 + 0x2
	.byte	FINE

@*********************** Track 02 ***********************@

seq_022_1:
	.byte	KEYSH , seq_022_key+0
	.byte		VOICE , 33
	.byte		VOL   , 105*seq_022_mvl/mxv
	.byte		PAN   , c_v+0
	.byte		N05   , Gs0 , v120
	.byte	W06
	.byte		        Gs1 , v076
	.byte	W06
	.byte		        Gs0 , v120
	.byte	W06
	.byte		        Gs1 , v076
	.byte	W06
	.byte		        Gs0 , v120
	.byte	W06
	.byte		        Gs1 , v076
	.byte	W06
	.byte		        Gs0 , v120
	.byte	W06
	.byte		        Gs1 , v076
	.byte	W06
	.byte		        Bn1 
	.byte	W06
	.byte		        Bn0 , v120
	.byte	W06
	.byte		        Bn1 , v076
	.byte	W06
	.byte		N05
	.byte	W06
	.byte		        Dn2 
	.byte	W06
	.byte		        Dn1 , v120
	.byte	W06
	.byte		        Dn2 , v076
	.byte	W06
	.byte		N05
	.byte	W06
	.byte	W96
	.byte		VOL   , 66*seq_022_mvl/mxv
	.byte	W96
	.byte		VOICE , 30
	.byte		PAN   , c_v+0
	.byte		BENDR , 2
	.byte	W96
	.byte		N24   , An2 , v127
	.byte	W12
	.byte		BEND  , c_v-64
	.byte	W12
	.byte		BENDR , 12
	.byte		BEND  , c_v+0
	.byte		N12   , En2 , v116
	.byte	W12
	.byte		        Cn3 , v108
	.byte	W24
	.byte		N36   , As2 , v120
	.byte	W28
	.byte		BEND  , c_v-12
	.byte	W03
	.byte		        c_v-24
	.byte	W01
	.byte		        c_v-40
	.byte	W01
	.byte		        c_v-47
	.byte	W01
	.byte		        c_v-55
	.byte	W02
	.byte	W96
	.byte	W96
	.byte	W72
	.byte		PAN   , c_v+15
	.byte	W07
	.byte		BENDR , 2
	.byte	W05
	.byte		BEND  , c_v-47
	.byte		N24   , As4 
	.byte	W01
	.byte		BEND  , c_v-32
	.byte	W01
	.byte		        c_v-24
	.byte	W01
	.byte		        c_v-20
	.byte	W01
	.byte		        c_v-16
	.byte	W02
	.byte		        c_v+0
	.byte	W06
	.byte	W12
	.byte		N12   , An4 , v112
	.byte	W12
	.byte		        Gn4 
	.byte	W12
	.byte		        Dn4 
	.byte	W09
	.byte		BEND  , c_v+0
	.byte	W01
	.byte		        c_v-8
	.byte	W01
	.byte		        c_v-16
	.byte	W01
	.byte		BENDR , 12
	.byte		BEND  , c_v+0
	.byte		N40   , En4 , v120
	.byte	W32
	.byte	W02
	.byte		BEND  , c_v-16
	.byte	W01
	.byte		        c_v-21
	.byte	W01
	.byte		        c_v-24
	.byte	W02
	.byte		        c_v-32
	.byte	W01
	.byte		        c_v-44
	.byte	W01
	.byte		        c_v-55
	.byte	W56
	.byte	W24
	.byte	W02
	.byte		        c_v+0
	.byte	W68
	.byte	W02
	.byte	W96
	.byte	W09
	.byte		VOL   , 66*seq_022_mvl/mxv
	.byte		BENDR , 2
	.byte	W03
	.byte		N15   , Gn2 
	.byte	W24
	.byte		        An2 
	.byte	W24
	.byte		        As2 
	.byte	W24
	.byte		BEND  , c_v+0
	.byte		N42   , Bn2 , v127
	.byte	W12
	.byte	W21
	.byte		BEND  , c_v-16
	.byte	W01
	.byte		        c_v-32
	.byte	W01
	.byte		        c_v-55
	.byte	W13
	.byte		MOD   , 0
	.byte		BEND  , c_v+0
	.byte	W60
	.byte	W96
	.byte	W96
	.byte	W48
	.byte	W96
	.byte	W96
	.byte	W96
	.byte	W96
	.byte	W96
	.byte	W96
	.byte	W96
	.byte	W96
	.byte		VOICE , 28
	.byte		VOL   , 99*seq_022_mvl/mxv
	.byte		PAN   , c_v-15
	.byte		N12   , Bn1 , v080
	.byte	W12
	.byte		        Bn1 , v072
	.byte	W12
	.byte		N12
	.byte	W12
	.byte		N12
	.byte	W12
	.byte		        Bn1 , v076
	.byte	W12
	.byte		        Bn1 , v072
	.byte	W12
	.byte		N12
	.byte	W12
	.byte		N12
	.byte	W12
	.byte		N12   , Bn1 , v080
	.byte	W12
	.byte		        Bn1 , v072
	.byte	W12
	.byte		N12
	.byte	W12
	.byte		N12
	.byte	W12
	.byte		N16   , Cn2 , v096
	.byte	W24
	.byte		        Cn2 , v092
	.byte	W24
	.byte	PEND
	.byte		N12   , Bn1 , v080
	.byte	W12
	.byte		        Bn1 , v072
	.byte	W12
	.byte		N12
	.byte	W12
	.byte		N12
	.byte	W12
	.byte		        Bn1 , v076
	.byte	W12
	.byte		        Bn1 , v072
	.byte	W12
	.byte		N12
	.byte	W12
	.byte		N12
	.byte	W12
	.byte	PEND
	.byte	PATT
	 .word	seq_022_1 + 0xEC
	.byte		VOICE , 28
	.byte		VOL   , 99*seq_022_mvl/mxv
	.byte		PAN   , c_v+0
	.byte		N12   , Bn1 , v080
	.byte	W12
	.byte		        Bn1 , v072
	.byte	W12
	.byte		N12
	.byte	W12
	.byte		N12
	.byte	W12
	.byte		        Bn1 , v076
	.byte	W12
	.byte		        Bn1 , v072
	.byte	W12
	.byte		N12
	.byte	W12
	.byte		N12
	.byte	W12
	.byte	PATT
	 .word	seq_022_1 + 0xFF
	.byte	PATT
	 .word	seq_022_1 + 0xFF
	.byte	PATT
	 .word	seq_022_1 + 0xFF
	.byte		N12   , Bn1 , v080
	.byte	W12
	.byte		        Bn1 , v072
	.byte	W12
	.byte		N06
	.byte	W06
	.byte		N06
	.byte	W06
	.byte		N12
	.byte	W12
	.byte		        Bn1 , v076
	.byte	W12
	.byte		        Bn1 , v072
	.byte	W12
	.byte		N06
	.byte	W06
	.byte		N06
	.byte	W06
	.byte		N06
	.byte	W06
	.byte		N06
	.byte	W06
	.byte	PEND
	.byte		N12   , Cn2 , v080
	.byte	W12
	.byte		        Cn2 , v072
	.byte	W12
	.byte		        Cn2 , v088
	.byte	W12
	.byte		        Cn2 , v072
	.byte	W12
	.byte		        Cn2 , v076
	.byte	W12
	.byte		        Cn2 , v072
	.byte	W12
	.byte		        Cn2 , v088
	.byte	W12
	.byte		N06   , Cn2 , v072
	.byte	W06
	.byte		N06
	.byte	W06
	.byte	PEND
	.byte	PATT
	 .word	seq_022_1 + 0x144
	.byte	W12
	.byte		N36   , Cn2 , v072
	.byte	W36
	.byte		N20   , Cn2 , v076
	.byte	W24
	.byte		        An1 
	.byte	W24
	.byte	PATT
	 .word	seq_022_1 + 0x144
	.byte	PATT
	 .word	seq_022_1 + 0x160
	.byte		N12   , Dn2 , v080
	.byte	W12
	.byte		        Dn2 , v072
	.byte	W12
	.byte		N06
	.byte	W06
	.byte		N06
	.byte	W06
	.byte		N12
	.byte	W12
	.byte		        Dn2 , v076
	.byte	W12
	.byte		        Dn2 , v072
	.byte	W12
	.byte		N06
	.byte	W06
	.byte		N06
	.byte	W06
	.byte		N06
	.byte	W06
	.byte		N06
	.byte	W06
	.byte		N12   , Cn2 , v080
	.byte	W12
	.byte		        Cn2 , v072
	.byte	W12
	.byte		N06
	.byte	W06
	.byte		N06
	.byte	W06
	.byte		N12
	.byte	W12
	.byte		N24   , Cn2 , v076
	.byte	W24
	.byte		        An1 
	.byte	W24
	.byte	PATT
	 .word	seq_022_1 + 0x144
	.byte	PATT
	 .word	seq_022_1 + 0x144
	.byte	PATT
	 .word	seq_022_1 + 0x144
	.byte	GOTO
	 .word	seq_022_1 + 0x2
	.byte	FINE

@*********************** Track 03 ***********************@

seq_022_2:
	.byte	KEYSH , seq_022_key+0
	.byte		VOICE , 35
	.byte		VOL   , 105*seq_022_mvl/mxv
	.byte		PAN   , c_v+0
	.byte	W06
	.byte		N05   , Gs5 , v112
	.byte	W06
	.byte		        Fn5 
	.byte	W06
	.byte		        Dn5 , v116
	.byte	W06
	.byte		        Bn4 , v120
	.byte	W06
	.byte		        Gs4 
	.byte	W06
	.byte		        Fn4 , v124
	.byte	W06
	.byte		        Dn4 
	.byte	W06
	.byte		        Bn3 , v127
	.byte	W06
	.byte		        Gs3 
	.byte	W06
	.byte		        Fn3 
	.byte	W06
	.byte		        Dn3 
	.byte	W06
	.byte		        Bn2 
	.byte	W06
	.byte		        Gs2 
	.byte	W06
	.byte		        Fn2 
	.byte	W06
	.byte		        Dn2 
	.byte	W06
	.byte		N24   , En1 , v116
	.byte	W24
	.byte		N12
	.byte	W12
	.byte		N24   , En1 , v100
	.byte	W24
	.byte		N12
	.byte	W12
	.byte		        En1 , v116
	.byte	W12
	.byte		N24   , En1 , v100
	.byte	W12
	.byte	PEND
	.byte	W12
	.byte		N12   , En1 , v100
	.byte	W12
	.byte		        En1 , v116
	.byte	W12
	.byte		        Bn0 
	.byte	W12
	.byte		        Gn0 
	.byte	W12
	.byte		        An0 
	.byte	W12
	.byte		        As0 
	.byte	W12
	.byte		N24   , Bn0 , v100
	.byte	W12
	.byte	PEND
	.byte	W12
	.byte		N24   , En1 , v116
	.byte	W24
	.byte		N24
	.byte	W24
	.byte		N12   , En1 , v100
	.byte	W12
	.byte		        Dn1 , v116
	.byte	W12
	.byte		        En1 , v100
	.byte	W12
	.byte	PEND
	.byte		        En1 , v116
	.byte	W12
	.byte		        En1 , v100
	.byte	W12
	.byte		N12
	.byte	W12
	.byte		N18   , Cn2 , v092
	.byte	W24
	.byte		N36   , As1 , v100
	.byte	W36
	.byte		N12   , En1 , v116
	.byte	W12
	.byte		N24   , En1 , v100
	.byte	W24
	.byte		N24
	.byte	W24
	.byte		N12
	.byte	W12
	.byte		        En1 , v116
	.byte	W12
	.byte		N24   , Dn1 , v100
	.byte	W12
	.byte	W12
	.byte		N12   , En1 , v116
	.byte	W12
	.byte		N12
	.byte	W12
	.byte		        En1 , v100
	.byte	W12
	.byte		        En1 , v116
	.byte	W12
	.byte		N24   , En1 , v100
	.byte	W24
	.byte		        En1 , v116
	.byte	W12
	.byte	W12
	.byte		N12   , En1 , v100
	.byte	W12
	.byte		        Dn1 , v116
	.byte	W12
	.byte		N24   , En1 , v100
	.byte	W24
	.byte		N12
	.byte	W12
	.byte		        En1 , v116
	.byte	W12
	.byte		N24   , As1 , v100
	.byte	W12
	.byte	W12
	.byte		N12   , An1 , v116
	.byte	W12
	.byte		        Gn1 
	.byte	W12
	.byte		        Dn1 
	.byte	W12
	.byte	PATT
	 .word	seq_022_2 + 0x2D
	.byte	PATT
	 .word	seq_022_2 + 0x41
	.byte	PATT
	 .word	seq_022_2 + 0x56
	.byte		N12   , Gn1 , v116
	.byte	W12
	.byte		        En1 , v100
	.byte	W12
	.byte		        Dn1 
	.byte	W12
	.byte		N24   , En1 
	.byte	W24
	.byte		N12   , An1 
	.byte	W12
	.byte		        Gn1 
	.byte	W12
	.byte		N24   , Dn1 
	.byte	W12
	.byte	W12
	.byte		        En1 
	.byte	W24
	.byte		N24
	.byte	W24
	.byte		N12   , Dn1 
	.byte	W12
	.byte		        En1 
	.byte	W12
	.byte		N24   , Gn0 , v116
	.byte	W12
	.byte	W12
	.byte		N12   , An0 , v100
	.byte	W12
	.byte		        As0 
	.byte	W12
	.byte		        Bn0 
	.byte	W12
	.byte		        En1 
	.byte	W12
	.byte		N24
	.byte	W24
	.byte		        En1 , v116
	.byte	W12
	.byte	W12
	.byte		N12   , En1 , v100
	.byte	W12
	.byte		        Dn1 
	.byte	W12
	.byte		N24   , En1 
	.byte	W24
	.byte		N12
	.byte	W12
	.byte		        Dn1 
	.byte	W12
	.byte		N24   , Bn0 
	.byte	W12
	.byte	W12
	.byte		N12   , An0 , v116
	.byte	W12
	.byte		        Gn0 
	.byte	W12
	.byte		        En0 
	.byte	W12
	.byte		N05   , En0 , v120
	.byte	W06
	.byte		        En1 , v076
	.byte	W06
	.byte		        En0 , v120
	.byte	W06
	.byte		        En1 , v076
	.byte	W06
	.byte		N05
	.byte	W06
	.byte		N11   , En0 , v120
	.byte	W12
	.byte		N05   , En1 , v076
	.byte	W06
	.byte		        En0 , v120
	.byte	W06
	.byte		        En1 , v076
	.byte	W06
	.byte		        En0 , v120
	.byte	W06
	.byte		        En1 , v076
	.byte	W06
	.byte		N05
	.byte	W06
	.byte		N11   , En0 , v120
	.byte	W12
	.byte		N05   , En1 , v076
	.byte	W06
	.byte	PEND
	.byte	PATT
	 .word	seq_022_2 + 0x118
	.byte	PATT
	 .word	seq_022_2 + 0x118
	.byte	PATT
	 .word	seq_022_2 + 0x118
	.byte	PATT
	 .word	seq_022_2 + 0x118
	.byte	PATT
	 .word	seq_022_2 + 0x118
	.byte	PATT
	 .word	seq_022_2 + 0x118
	.byte	PATT
	 .word	seq_022_2 + 0x118
	.byte		VOICE , 30
	.byte		VOL   , 105*seq_022_mvl/mxv
	.byte		PAN   , c_v+0
	.byte		N15   , En1 , v072
	.byte	W24
	.byte		N15
	.byte	W72
	.byte	W12
	.byte		N12   , Dn1 
	.byte	W12
	.byte		N08   , En1 
	.byte	W12
	.byte		N08
	.byte	W12
	.byte		N36   , Fn1 
	.byte	W48
	.byte		N15   , En1 
	.byte	W24
	.byte		N15
	.byte	W72
	.byte	W12
	.byte		N12   , Dn1 
	.byte	W12
	.byte		        En1 
	.byte	W12
	.byte		        Gs1 
	.byte	W12
	.byte		N36   , Bn1 
	.byte	W36
	.byte		N10   , Dn1 
	.byte	W12
	.byte		VOICE , 35
	.byte		VOL   , 105*seq_022_mvl/mxv
	.byte		PAN   , c_v+0
	.byte		N24   , En0 , v116
	.byte	W24
	.byte		N12   , En0 , v096
	.byte	W12
	.byte		N24   , En0 , v100
	.byte	W24
	.byte		N12   , En0 , v092
	.byte	W12
	.byte		        En0 , v116
	.byte	W12
	.byte		        En0 , v108
	.byte	W12
	.byte		N24   , En0 , v116
	.byte	W24
	.byte		N12   , En0 , v096
	.byte	W12
	.byte		N24   , En0 , v100
	.byte	W24
	.byte		N12   , En0 , v092
	.byte	W12
	.byte		        En0 , v116
	.byte	W12
	.byte		        En0 , v108
	.byte	W12
	.byte	PEND
	.byte	PATT
	 .word	seq_022_2 + 0x1B0
	.byte	PATT
	 .word	seq_022_2 + 0x1B0
	.byte		N24   , En1 , v116
	.byte	W24
	.byte		N12   , En1 , v096
	.byte	W12
	.byte		N24   , En1 , v100
	.byte	W24
	.byte		N12   , En1 , v092
	.byte	W12
	.byte		        En1 , v116
	.byte	W12
	.byte		        En1 , v108
	.byte	W12
	.byte	PEND
	.byte		N12   , Fn1 , v092
	.byte	W12
	.byte		N12
	.byte	W12
	.byte		        Fn1 , v112
	.byte	W12
	.byte		        Cn1 , v096
	.byte	W12
	.byte		        Fn1 , v116
	.byte	W12
	.byte		        Fn1 , v092
	.byte	W12
	.byte		        Fn1 , v108
	.byte	W12
	.byte		        Fn1 , v092
	.byte	W12
	.byte	PEND
	.byte	PATT
	 .word	seq_022_2 + 0x1D1
	.byte	W12
	.byte		N36   , Fn1 , v096
	.byte	W36
	.byte		N20   , Fn1 , v100
	.byte	W24
	.byte		        Dn1 
	.byte	W24
	.byte	PATT
	 .word	seq_022_2 + 0x1D1
	.byte	PATT
	 .word	seq_022_2 + 0x1E8
	.byte		N24   , Gn1 , v116
	.byte	W24
	.byte		N12   , Gn1 , v096
	.byte	W12
	.byte		N24   , Gn1 , v100
	.byte	W24
	.byte		N12   , Gn1 , v092
	.byte	W12
	.byte		        Gn1 , v116
	.byte	W12
	.byte		        Gn1 , v108
	.byte	W12
	.byte		N24   , Fn1 , v116
	.byte	W24
	.byte		N12   , Fn1 , v096
	.byte	W12
	.byte		        Fn1 , v100
	.byte	W12
	.byte		N12
	.byte	W24
	.byte		N24   , Dn1 
	.byte	W24
	.byte	PATT
	 .word	seq_022_2 + 0x1D1
	.byte	PATT
	 .word	seq_022_2 + 0x1D1
	.byte	PATT
	 .word	seq_022_2 + 0x1D1
	.byte	GOTO
	 .word	seq_022_2 + 0x2
	.byte	FINE

@*********************** Track 04 ***********************@

seq_022_3:
	.byte	KEYSH , seq_022_key+0
	.byte		VOICE , 122
	.byte		VOL   , 28*seq_022_mvl/mxv
	.byte		PAN   , c_v+0
	.byte	W15
	.byte		N05   , Gs5 , v100
	.byte	W06
	.byte		        Fn5 
	.byte	W06
	.byte		        Dn5 
	.byte	W06
	.byte		        Bn4 
	.byte	W06
	.byte		        Gs4 
	.byte	W06
	.byte		        Fn4 
	.byte	W06
	.byte		        Dn4 
	.byte	W06
	.byte		        Bn3 
	.byte	W06
	.byte		        Gs3 
	.byte	W06
	.byte		        Fn3 
	.byte	W06
	.byte		        Dn3 
	.byte	W06
	.byte		        Bn2 
	.byte	W06
	.byte		        Gs2 
	.byte	W09
	.byte		VOICE , 102
	.byte		VOL   , 52*seq_022_mvl/mxv
	.byte		PAN   , c_v-64
	.byte		N12   , Bn1 , v080
	.byte	W12
	.byte		        Bn1 , v072
	.byte	W12
	.byte		        Bn1 , v088
	.byte	W12
	.byte		        Bn1 , v072
	.byte	W12
	.byte		        Bn1 , v076
	.byte	W12
	.byte		        Bn1 , v072
	.byte	W12
	.byte		        Bn1 , v088
	.byte	W12
	.byte		        Bn1 , v072
	.byte	W12
	.byte		N12   , Bn1 , v080
	.byte	W12
	.byte		        Bn1 , v072
	.byte	W12
	.byte		        Bn1 , v088
	.byte	W12
	.byte		        Bn1 , v072
	.byte	W12
	.byte		        Bn1 , v076
	.byte	W12
	.byte		        Bn1 , v072
	.byte	W12
	.byte		        Bn1 , v088
	.byte	W12
	.byte		N06   , Bn1 , v072
	.byte	W06
	.byte		N06
	.byte	W06
	.byte	PEND
	.byte		N12   , Bn1 , v080
	.byte	W12
	.byte		        Bn1 , v072
	.byte	W12
	.byte		        Bn1 , v088
	.byte	W12
	.byte		        Bn1 , v072
	.byte	W12
	.byte		        Bn1 , v076
	.byte	W12
	.byte		        Bn1 , v072
	.byte	W12
	.byte		        Bn1 , v088
	.byte	W12
	.byte		        Bn1 , v072
	.byte	W12
	.byte	PEND
	.byte		N24   , An2 , v096
	.byte	W12
	.byte		BEND  , c_v-64
	.byte	W11
	.byte		        c_v+0
	.byte	W01
	.byte		N12   , En2 , v088
	.byte	W12
	.byte		        Cn3 , v096
	.byte	W24
	.byte		N36   , As2 , v092
	.byte	W36
	.byte	PATT
	 .word	seq_022_3 + 0x61
	.byte	PATT
	 .word	seq_022_3 + 0x44
	.byte	PATT
	 .word	seq_022_3 + 0x61
	.byte	W12
	.byte		N12   , An2 , v096
	.byte	W12
	.byte		        Gn2 
	.byte	W12
	.byte		        Dn2 
	.byte	W12
	.byte	PATT
	 .word	seq_022_3 + 0x61
	.byte	PATT
	 .word	seq_022_3 + 0x44
	.byte		N12   , Bn1 , v080
	.byte	W12
	.byte		        Bn1 , v072
	.byte	W12
	.byte		        Bn1 , v088
	.byte	W12
	.byte		        Bn1 , v072
	.byte	W12
	.byte		        Bn1 , v076
	.byte	W12
	.byte		        Bn1 , v072
	.byte	W12
	.byte		        Bn1 , v088
	.byte	W12
	.byte		        Bn1 , v100
	.byte	W12
	.byte		VOICE , 112
	.byte		PAN   , c_v+0
	.byte		BENDR , 2
	.byte	W12
	.byte		N15   , Dn2 
	.byte	W24
	.byte		        En2 
	.byte	W24
	.byte		        Fn2 
	.byte	W24
	.byte		N12   , Fs2 , v108
	.byte	W12
	.byte		VOICE , 102
	.byte		PAN   , c_v-64
	.byte		N12   , Bn1 , v080
	.byte	W12
	.byte		        Bn1 , v072
	.byte	W12
	.byte		        Bn1 , v088
	.byte	W12
	.byte		        Bn1 , v072
	.byte	W12
	.byte		        Bn1 , v076
	.byte	W12
	.byte		        Bn1 , v072
	.byte	W12
	.byte		        Bn1 , v088
	.byte	W12
	.byte		        Bn1 , v072
	.byte	W12
	.byte	PATT
	 .word	seq_022_3 + 0x44
	.byte	PATT
	 .word	seq_022_3 + 0x61
	.byte	W12
	.byte		VOL   , 82*seq_022_mvl/mxv
	.byte		N12   , An2 , v127
	.byte	W12
	.byte		        Gn2 
	.byte	W12
	.byte		        En2 
	.byte	W12
	.byte	W84
	.byte		VOICE , 122
	.byte		VOL   , 41*seq_022_mvl/mxv
	.byte		PAN   , c_v+0
	.byte		N72   , Fn3 , v080
	.byte	W12
	.byte	W72
	.byte		N48   , Bn3 
	.byte	W24
	.byte	W36
	.byte		N60   , Dn3 
	.byte	W60
	.byte	W12
	.byte		N36   , Gs3 
	.byte	W36
	.byte		N30   , Fn4 
	.byte	W48
	.byte		N60   , En4 
	.byte	W72
	.byte		N96   , Gs3 
	.byte	W24
	.byte	W84
	.byte		N24   , Dn3 
	.byte	W12
	.byte	W96
	.byte	W96
	.byte		VOICE , 101
	.byte		VOL   , 74*seq_022_mvl/mxv
	.byte		PAN   , c_v+63
	.byte		N12   , En1 , v092
	.byte	W12
	.byte		        En1 , v080
	.byte	W12
	.byte		N12
	.byte	W12
	.byte		N12
	.byte	W12
	.byte		        En1 , v088
	.byte	W12
	.byte		        En1 , v080
	.byte	W12
	.byte		N12
	.byte	W12
	.byte		N12
	.byte	W12
	.byte		N12   , En1 , v092
	.byte	W12
	.byte		        En1 , v080
	.byte	W12
	.byte		N12
	.byte	W12
	.byte		N12
	.byte	W12
	.byte		N16   , Fn1 , v108
	.byte	W24
	.byte		        Fn1 , v100
	.byte	W24
	.byte	PEND
	.byte		N12   , En1 , v092
	.byte	W12
	.byte		        En1 , v080
	.byte	W12
	.byte		N12
	.byte	W12
	.byte		N12
	.byte	W12
	.byte		        En1 , v088
	.byte	W12
	.byte		        En1 , v080
	.byte	W12
	.byte		N12
	.byte	W12
	.byte		N12
	.byte	W12
	.byte	PEND
	.byte	PATT
	 .word	seq_022_3 + 0x14F
	.byte	PATT
	 .word	seq_022_3 + 0x162
	.byte	PATT
	 .word	seq_022_3 + 0x162
	.byte	PATT
	 .word	seq_022_3 + 0x162
	.byte		VOICE , 101
	.byte		VOL   , 82*seq_022_mvl/mxv
	.byte		PAN   , c_v+63
	.byte		N06   , En5 , v088
	.byte	W06
	.byte		        Dn5 
	.byte	W06
	.byte		        Bn4 
	.byte	W06
	.byte		        En4 
	.byte	W06
	.byte		        En5 , v096
	.byte	W06
	.byte		        Dn5 
	.byte	W06
	.byte		        Bn4 
	.byte	W06
	.byte		        En4 
	.byte	W06
	.byte		        En5 , v112
	.byte	W06
	.byte		        Dn5 
	.byte	W06
	.byte		        Bn4 
	.byte	W06
	.byte		        En4 
	.byte	W06
	.byte		        En5 , v120
	.byte	W06
	.byte		        Dn5 
	.byte	W06
	.byte		        Bn4 
	.byte	W06
	.byte		        En4 
	.byte	W06
	.byte		VOICE , 111
	.byte		VOL   , 41*seq_022_mvl/mxv
	.byte		PAN   , c_v+0
	.byte		N96   , Bn4 , v072
	.byte	W96
	.byte		        Cn5 
	.byte	W96
	.byte		        Dn5 
	.byte	W96
	.byte		        En5 
	.byte	W96
	.byte		        Gs4 
	.byte	W96
	.byte		        An4 
	.byte	W96
	.byte		TIE   , Bn4 
	.byte	W96
	.byte	W48
	.byte		EOT
	.byte		N48   , Dn3 
	.byte	W48
	.byte		N96   , En3 
	.byte	W96
	.byte	W96
	.byte		VOICE , 28
	.byte		VOL   , 82*seq_022_mvl/mxv
	.byte		PAN   , c_v+0
	.byte		N12   , En1 , v092
	.byte	W12
	.byte		        En1 , v080
	.byte	W12
	.byte		N06
	.byte	W06
	.byte		        En1 , v060
	.byte	W06
	.byte		N12   , En1 , v080
	.byte	W12
	.byte		        En1 , v088
	.byte	W12
	.byte		        En1 , v080
	.byte	W12
	.byte		N06
	.byte	W06
	.byte		        En1 , v060
	.byte	W06
	.byte		        En1 , v080
	.byte	W06
	.byte		        En1 , v060
	.byte	W06
	.byte	GOTO
	 .word	seq_022_3 + 0x2
	.byte	FINE

@*********************** Track 05 ***********************@

seq_022_4:
	.byte	KEYSH , seq_022_key+0
	.byte	W96
	.byte		VOICE , 101
	.byte		VOL   , 52*seq_022_mvl/mxv
	.byte		PAN   , c_v+63
	.byte		N12   , En1 , v092
	.byte	W12
	.byte		        En1 , v080
	.byte	W12
	.byte		        En1 , v096
	.byte	W12
	.byte		        En1 , v080
	.byte	W12
	.byte		        En1 , v088
	.byte	W12
	.byte		        En1 , v080
	.byte	W12
	.byte		        En1 , v096
	.byte	W12
	.byte		        En1 , v080
	.byte	W12
	.byte		N12   , En1 , v092
	.byte	W12
	.byte		        En1 , v080
	.byte	W12
	.byte		        En1 , v096
	.byte	W12
	.byte		        En1 , v080
	.byte	W12
	.byte		        En1 , v088
	.byte	W12
	.byte		        En1 , v080
	.byte	W12
	.byte		        En1 , v096
	.byte	W12
	.byte		N06   , En1 , v080
	.byte	W06
	.byte		        En1 , v060
	.byte	W06
	.byte	PEND
	.byte		N12   , En1 , v092
	.byte	W12
	.byte		        En1 , v080
	.byte	W12
	.byte		        En1 , v096
	.byte	W12
	.byte		        En1 , v080
	.byte	W12
	.byte		        En1 , v088
	.byte	W12
	.byte		        En1 , v080
	.byte	W12
	.byte		        En1 , v096
	.byte	W12
	.byte		        En1 , v080
	.byte	W12
	.byte	PEND
	.byte		N24   , En2 , v108
	.byte	W12
	.byte		BEND  , c_v-64
	.byte	W11
	.byte		        c_v+0
	.byte	W01
	.byte		N12   , Bn1 , v096
	.byte	W12
	.byte		        Gn2 , v088
	.byte	W24
	.byte		N36   , Fn2 , v100
	.byte	W36
	.byte	PATT
	 .word	seq_022_4 + 0x40
	.byte	PATT
	 .word	seq_022_4 + 0x22
	.byte	PATT
	 .word	seq_022_4 + 0x40
	.byte	W12
	.byte		N12   , En2 , v096
	.byte	W12
	.byte		        Dn2 
	.byte	W12
	.byte		        An1 
	.byte	W12
	.byte	PATT
	 .word	seq_022_4 + 0x40
	.byte	PATT
	 .word	seq_022_4 + 0x22
	.byte	PATT
	 .word	seq_022_4 + 0x40
	.byte	W96
	.byte	PATT
	 .word	seq_022_4 + 0x40
	.byte	PATT
	 .word	seq_022_4 + 0x22
	.byte	PATT
	 .word	seq_022_4 + 0x40
	.byte	W12
	.byte		VOL   , 82*seq_022_mvl/mxv
	.byte		N12   , En2 , v127
	.byte	W12
	.byte		        Dn2 , v116
	.byte	W12
	.byte		        Bn1 
	.byte	W12
	.byte		VOICE , 121
	.byte		VOL   , 41*seq_022_mvl/mxv
	.byte		PAN   , c_v+0
	.byte		TIE   , En3 , v080
	.byte	W96
	.byte	W12
	.byte		EOT
	.byte	W24
	.byte		N60   , Gs3 
	.byte	W60
	.byte		        Dn4 
	.byte	W72
	.byte		N48   , En3 
	.byte	W24
	.byte	W24
	.byte		N12   , Bn3 
	.byte	W12
	.byte		N36   , Dn4 
	.byte	W48
	.byte		N36
	.byte	W12
	.byte	W36
	.byte		N60   , Gs4 
	.byte	W60
	.byte	W60
	.byte		N24   , Dn4 
	.byte	W36
	.byte		N96   , En3 
	.byte	W96
	.byte	W96
	.byte	W96
	.byte	W96
	.byte	W96
	.byte	W96
	.byte	W96
	.byte	W96
	.byte	W96
	.byte	W96
	.byte	W96
	.byte	W96
	.byte	W96
	.byte	W96
	.byte	W96
	.byte	W96
	.byte	W96
	.byte	W96
	.byte	W96
	.byte	W96
	.byte	W96
	.byte	GOTO
	 .word	seq_022_4 + 0x2
	.byte	FINE

@*********************** Track 06 ***********************@

seq_022_5:
	.byte	KEYSH , seq_022_key+0
	.byte		VOICE , 127
	.byte		VOL   , 99*seq_022_mvl/mxv
	.byte		N12   , Cn1 , v127
	.byte	W24
	.byte		N12
	.byte	W24
	.byte		N12
	.byte	W18
	.byte		N06   , Fn1 
	.byte	W06
	.byte		N12   , En1 , v120
	.byte	W24
	.byte		N24   , An2 , v088
	.byte	W24
	.byte		N12   , Dn1 , v100
	.byte	W12
	.byte		        Cn1 , v088
	.byte	W24
	.byte		        Cn1 , v096
	.byte	W12
	.byte		        Dn1 , v100
	.byte	W24
	.byte	PEND
	.byte		N12   , Cn1 , v092
	.byte	W24
	.byte		        Dn1 , v100
	.byte	W18
	.byte		N06   , Dn1 , v080
	.byte	W06
	.byte		N12   , Cn1 , v100
	.byte	W12
	.byte		        Cn1 , v092
	.byte	W12
	.byte		        Dn1 , v100
	.byte	W12
	.byte		        Cn1 , v088
	.byte	W12
	.byte	PEND
	.byte		N24   , Cs2 , v092
	.byte	W24
	.byte		N12   , Dn1 , v100
	.byte	W12
	.byte		        Cn1 , v092
	.byte	W24
	.byte		        Cn1 , v088
	.byte	W12
	.byte		        Dn1 , v100
	.byte	W24
	.byte	PEND
	.byte	W24
	.byte		N12
	.byte	W18
	.byte		N06   , Dn1 , v072
	.byte	W06
	.byte		        Dn1 , v096
	.byte	W06
	.byte		        Dn1 , v060
	.byte	W06
	.byte		N12   , Dn1 , v100
	.byte	W12
	.byte		N06   , Dn1 , v096
	.byte	W06
	.byte		        Dn1 , v060
	.byte	W06
	.byte		N36   , Cs2 , v096
	.byte	W12
	.byte	W24
	.byte		N12   , Dn1 , v100
	.byte	W12
	.byte		        Cn1 , v092
	.byte	W24
	.byte		N12
	.byte	W12
	.byte		        Dn1 , v100
	.byte	W24
	.byte		N12   , Cn1 , v100
	.byte	W24
	.byte		        Dn1 
	.byte	W18
	.byte		N06   , Dn1 , v080
	.byte	W06
	.byte		N12   , Cn1 , v096
	.byte	W12
	.byte		        Cn1 , v080
	.byte	W12
	.byte		        Dn1 , v100
	.byte	W12
	.byte		        Cn1 , v080
	.byte	W12
	.byte	PEND
	.byte		N24   , An2 , v092
	.byte	W24
	.byte		N12   , Dn1 , v100
	.byte	W12
	.byte		        Cn1 , v080
	.byte	W24
	.byte		        Cn1 , v092
	.byte	W12
	.byte		        Dn1 , v100
	.byte	W24
	.byte		N06   , Dn1 , v096
	.byte	W06
	.byte		        Dn1 , v060
	.byte	W06
	.byte		N12   , Cn1 , v080
	.byte	W12
	.byte		N06   , Dn1 , v096
	.byte	W06
	.byte		N06
	.byte	W06
	.byte		N12
	.byte	W12
	.byte	PATT
	 .word	seq_022_5 + 0x15
	.byte	PATT
	 .word	seq_022_5 + 0x27
	.byte	PATT
	 .word	seq_022_5 + 0x40
	.byte		N06   , Fs1 , v052
	.byte	W12
	.byte		N12   , Cn1 , v112
	.byte	W12
	.byte		N06   , Fs1 , v052
	.byte	W12
	.byte		N12   , Cn1 , v116
	.byte	W12
	.byte		N06   , Fs1 , v052
	.byte	W12
	.byte		N12   , Cn1 , v116
	.byte	W12
	.byte		        Dn1 , v120
	.byte	W12
	.byte		        An2 , v088
	.byte	W12
	.byte		N24   , Cs2 , v096
	.byte	W24
	.byte		N12   , Dn1 , v100
	.byte	W12
	.byte		        Cn1 , v092
	.byte	W24
	.byte		N12
	.byte	W12
	.byte		        Dn1 , v100
	.byte	W24
	.byte	PATT
	 .word	seq_022_5 + 0x7B
	.byte		N12   , Cn1 , v100
	.byte	W24
	.byte		        Dn1 
	.byte	W12
	.byte		        Cn1 , v080
	.byte	W24
	.byte		        Cn1 , v092
	.byte	W12
	.byte		        Dn1 , v100
	.byte	W24
	.byte		N06   , Dn1 , v096
	.byte	W06
	.byte		        Dn1 , v060
	.byte	W06
	.byte		N12   , Cn1 , v080
	.byte	W12
	.byte		        Dn1 , v100
	.byte	W12
	.byte		        Cn1 , v076
	.byte	W12
	.byte		N24   , Cs2 , v120
	.byte	W24
	.byte		N12   , En1 
	.byte	W24
	.byte		        Cn1 , v127
	.byte	W12
	.byte		        Cn1 , v100
	.byte	W12
	.byte		N06   , Dn1 , v112
	.byte	W06
	.byte		N12   , Cn1 , v100
	.byte	W18
	.byte		        Cn1 , v127
	.byte	W24
	.byte		        En1 , v120
	.byte	W24
	.byte		        Cn1 , v127
	.byte	W12
	.byte		        Cn1 , v100
	.byte	W12
	.byte		N06   , Dn1 , v112
	.byte	W06
	.byte		N12   , Cn1 , v100
	.byte	W18
	.byte		        Cn1 , v127
	.byte	W24
	.byte		        En1 , v120
	.byte	W18
	.byte		N06   , Dn1 , v052
	.byte	W06
	.byte		N12   , Cn1 , v127
	.byte	W12
	.byte		        Cn1 , v100
	.byte	W12
	.byte		N06   , Dn1 , v112
	.byte	W06
	.byte		N12   , Cn1 , v100
	.byte	W12
	.byte		N06   , Dn1 , v072
	.byte	W06
	.byte		N12   , Cn1 , v127
	.byte	W24
	.byte		        En1 , v120
	.byte	W18
	.byte		N06   , Dn1 , v088
	.byte	W06
	.byte		        Cn1 , v100
	.byte	W06
	.byte		        Dn1 , v088
	.byte	W06
	.byte		N06
	.byte	W06
	.byte		        Dn1 , v072
	.byte	W06
	.byte		        Dn1 , v088
	.byte	W06
	.byte		        Cn2 , v100
	.byte	W06
	.byte		        An1 , v112
	.byte	W06
	.byte		        Fn1 
	.byte	W06
	.byte		N12   , Cn1 , v127
	.byte	W12
	.byte		        Cn1 , v100
	.byte	W12
	.byte		        En1 , v120
	.byte	W24
	.byte		        Cn1 , v127
	.byte	W12
	.byte		        Cn1 , v100
	.byte	W12
	.byte		N06   , Dn1 , v112
	.byte	W06
	.byte		N12   , Cn1 , v100
	.byte	W18
	.byte	PEND
	.byte	PATT
	 .word	seq_022_5 + 0x180
	.byte		N12   , Cn1 , v127
	.byte	W12
	.byte		        Cn1 , v100
	.byte	W12
	.byte		        En1 , v120
	.byte	W18
	.byte		N06   , Dn1 , v060
	.byte	W06
	.byte		N12   , Cn1 , v127
	.byte	W12
	.byte		        Cn1 , v100
	.byte	W12
	.byte		N06   , Dn1 , v112
	.byte	W06
	.byte		N12   , Cn1 , v100
	.byte	W18
	.byte		        Fn3 , v092
	.byte	W12
	.byte		        Cn1 , v100
	.byte	W06
	.byte		N06   , Fn3 , v108
	.byte	W06
	.byte		        En1 , v120
	.byte	W06
	.byte		N12   , Fn3 , v100
	.byte	W12
	.byte		N06   , Fn3 , v080
	.byte	W06
	.byte		        Fn3 , v100
	.byte	W06
	.byte		        Fn3 , v072
	.byte	W06
	.byte		        Dn1 , v088
	.byte	W06
	.byte		        Fn3 , v092
	.byte	W06
	.byte		        Dn1 , v112
	.byte	W06
	.byte		        Fn3 , v100
	.byte	W06
	.byte		        Fn3 , v092
	.byte	W06
	.byte		        Fn3 , v108
	.byte	W06
	.byte		N12   , Cn1 , v127
	.byte	W48
	.byte		        En1 , v112
	.byte	W12
	.byte		        Bn1 , v120
	.byte	W12
	.byte		        An1 , v127
	.byte	W24
	.byte	W12
	.byte		        Cn1 
	.byte	W24
	.byte		N12
	.byte	W12
	.byte		        En1 , v092
	.byte	W36
	.byte		        An1 , v100
	.byte	W12
	.byte		        Cn1 , v127
	.byte	W24
	.byte		N12
	.byte	W24
	.byte		        En1 , v092
	.byte	W12
	.byte		        Cn2 
	.byte	W12
	.byte		        An1 , v100
	.byte	W24
	.byte	W12
	.byte		        Cn1 , v127
	.byte	W24
	.byte		N12
	.byte	W12
	.byte		        En1 , v092
	.byte	W24
	.byte		N06   , Fn3 , v120
	.byte	W06
	.byte		N06
	.byte	W06
	.byte		        Fn3 , v112
	.byte	W06
	.byte		        Fn3 , v127
	.byte	W06
	.byte		N12   , Cn1 , v100
	.byte	W24
	.byte		        Dn1 
	.byte	W12
	.byte		        Cn1 , v088
	.byte	W24
	.byte		        Cn1 , v096
	.byte	W12
	.byte		        Dn1 , v100
	.byte	W24
	.byte	PEND
	.byte	PATT
	 .word	seq_022_5 + 0x27
	.byte		N12   , Cn1 , v100
	.byte		N24   , An2 , v088
	.byte	W24
	.byte		N12   , Dn1 , v100
	.byte	W12
	.byte		        Cn1 , v088
	.byte	W24
	.byte		        Cn1 , v096
	.byte	W12
	.byte		        Dn1 , v100
	.byte	W24
	.byte	PEND
	.byte	W24
	.byte		        Dn1 , v120
	.byte	W18
	.byte		N06   , Dn1 , v092
	.byte	W06
	.byte		        Dn1 , v116
	.byte	W06
	.byte		        Dn1 , v080
	.byte	W06
	.byte		N12   , Dn1 , v120
	.byte	W12
	.byte		N06   , Dn1 , v116
	.byte	W06
	.byte		        Dn1 , v080
	.byte	W06
	.byte		N12   , Cs2 , v116
	.byte	W12
	.byte	PATT
	 .word	seq_022_5 + 0x222
	.byte	PATT
	 .word	seq_022_5 + 0x27
	.byte		N12   , Cn1 , v100
	.byte	W24
	.byte		        Dn1 
	.byte	W12
	.byte		        Cn1 , v092
	.byte	W24
	.byte		        Cn1 , v088
	.byte	W12
	.byte		        Dn1 , v100
	.byte	W24
	.byte	PEND
	.byte	W24
	.byte		N12   , Dn1 , v100
	.byte	W18
	.byte		N06   , Dn1 , v072
	.byte	W06
	.byte		        Dn1 , v096
	.byte	W06
	.byte		        Dn1 , v060
	.byte	W06
	.byte		N12   , Dn1 , v100
	.byte	W12
	.byte		N06   , Dn1 , v096
	.byte	W06
	.byte		        Dn1 , v060
	.byte	W06
	.byte		N12   , Cs2 , v096
	.byte	W12
	.byte	PEND
	.byte	PATT
	 .word	seq_022_5 + 0x222
	.byte	PATT
	 .word	seq_022_5 + 0x27
	.byte	PATT
	 .word	seq_022_5 + 0x273
	.byte	PATT
	 .word	seq_022_5 + 0x283
	.byte	PATT
	 .word	seq_022_5 + 0x222
	.byte	PATT
	 .word	seq_022_5 + 0x237
	.byte	PATT
	 .word	seq_022_5 + 0x283
	.byte	GOTO
	 .word	seq_022_5 + 0x2
	.byte	FINE

@******************************************************@

	.align	2

seq_022:
	.byte	6	@ NumTrks
	.byte	0	@ NumBlks
	.byte	seq_022_pri	@ Priority
	.byte	seq_022_rev	@ Reverb

	.word	seq_022_grp

	.word	seq_022_0
	.word	seq_022_1
	.word	seq_022_2
	.word	seq_022_3
	.word	seq_022_4
	.word	seq_022_5

	.end
