@ File generated by m4a2s Song-Module
	.include "MPlayDef.s"

	.equ	seq_006_grp, bank_005
	.equ	seq_006_pri, 0
	.equ	seq_006_rev, 0
	.equ	seq_006_mvl, 127
	.equ	seq_006_key, 0

	.section .rodata
	.global	seq_006
	.align	2

@*********************** Track 01 ***********************@

seq_006_0:
	.byte	KEYSH , seq_006_key+0
	.byte	TEMPO , 130/2
	.byte		VOICE , 61
	.byte		VOL   , 82*seq_006_mvl/mxv
	.byte	W24
	.byte		PAN   , c_v+14
	.byte	W06
	.byte		N18   , Fs3 , v112
	.byte	W18
	.byte		N06   , Gs3 
	.byte	W12
	.byte		        As3 
	.byte	W07
	.byte		N02   , As3 , v100
	.byte	W02
	.byte		N15   , Bn3 , v112
	.byte	W15
	.byte		N05   , As3 
	.byte	W12
	.byte		N06   , Gs3 
	.byte	W06
	.byte		N18   , As3 
	.byte	W18
	.byte		N08   , Bn3 
	.byte	W08
	.byte		N04
	.byte	W10
	.byte		N06   , Cs4 
	.byte	W06
	.byte		N05
	.byte	W12
	.byte		TIE   , Fs4 
	.byte	W60
	.byte	W24
	.byte	W03
	.byte		VOL   , 81*seq_006_mvl/mxv
	.byte	W06
	.byte		        78*seq_006_mvl/mxv
	.byte	W04
	.byte		        76*seq_006_mvl/mxv
	.byte	W03
	.byte		        72*seq_006_mvl/mxv
	.byte	W03
	.byte		        67*seq_006_mvl/mxv
	.byte	W04
	.byte		        62*seq_006_mvl/mxv
	.byte	W03
	.byte		        57*seq_006_mvl/mxv
	.byte	W03
	.byte		        50*seq_006_mvl/mxv
	.byte	W04
	.byte		        42*seq_006_mvl/mxv
	.byte	W03
	.byte		        34*seq_006_mvl/mxv
	.byte	W03
	.byte		        25*seq_006_mvl/mxv
	.byte	W04
	.byte		        15*seq_006_mvl/mxv
	.byte	W05
	.byte		EOT
	.byte	FINE

@*********************** Track 02 ***********************@

seq_006_1:
	.byte	KEYSH , seq_006_key+0
	.byte		VOICE , 61
	.byte		VOL   , 82*seq_006_mvl/mxv
	.byte	W24
	.byte		PAN   , c_v-14
	.byte	W06
	.byte		N18   , Ds3 , v100
	.byte	W18
	.byte		N06   , En3 
	.byte	W12
	.byte		N05   , Fs3 
	.byte	W07
	.byte		N02   , Gn3 , v092
	.byte	W02
	.byte		N15   , Gs3 , v100
	.byte	W15
	.byte		N05   , Fs3 
	.byte	W12
	.byte		N06   , En3 
	.byte	W06
	.byte		N18   , Fs3 
	.byte	W18
	.byte		N08
	.byte	W08
	.byte		N04
	.byte	W10
	.byte		N06   , As3 
	.byte	W06
	.byte		N05
	.byte	W12
	.byte		TIE   , Ds4 
	.byte	W60
	.byte	W24
	.byte	W03
	.byte		VOL   , 81*seq_006_mvl/mxv
	.byte	W06
	.byte		        78*seq_006_mvl/mxv
	.byte	W04
	.byte		        76*seq_006_mvl/mxv
	.byte	W03
	.byte		        72*seq_006_mvl/mxv
	.byte	W03
	.byte		        67*seq_006_mvl/mxv
	.byte	W04
	.byte		        62*seq_006_mvl/mxv
	.byte	W03
	.byte		        57*seq_006_mvl/mxv
	.byte	W03
	.byte		        50*seq_006_mvl/mxv
	.byte	W04
	.byte		        42*seq_006_mvl/mxv
	.byte	W03
	.byte		        34*seq_006_mvl/mxv
	.byte	W03
	.byte		        25*seq_006_mvl/mxv
	.byte	W04
	.byte		        15*seq_006_mvl/mxv
	.byte	W05
	.byte		EOT
	.byte	FINE

@*********************** Track 03 ***********************@

seq_006_2:
	.byte	KEYSH , seq_006_key+0
	.byte		VOICE , 34
	.byte		VOL   , 82*seq_006_mvl/mxv
	.byte		PAN   , c_v+0
	.byte	W24
	.byte		BEND  , c_v-64
	.byte		N17   , Bn0 , v100
	.byte	W01
	.byte		BEND  , c_v-61
	.byte	W01
	.byte		        c_v-52
	.byte	W01
	.byte		        c_v-36
	.byte	W01
	.byte		        c_v-13
	.byte	W01
	.byte		        c_v+0
	.byte	W13
	.byte		N06
	.byte	W18
	.byte		        Fs0 
	.byte	W18
	.byte		N11
	.byte	W12
	.byte		N06
	.byte	W06
	.byte		        Gs0 
	.byte	W06
	.byte		N18   , Fs0 
	.byte	W18
	.byte		N06   , Gs0 
	.byte	W06
	.byte		        En0 
	.byte	W12
	.byte		        Cs1 
	.byte	W06
	.byte		        As0 
	.byte	W12
	.byte		BEND  , c_v-64
	.byte		TIE   , Bn0 
	.byte	W01
	.byte		BEND  , c_v-63
	.byte	W01
	.byte		        c_v-60
	.byte	W01
	.byte		        c_v-53
	.byte	W01
	.byte		        c_v-45
	.byte	W01
	.byte		        c_v-33
	.byte	W01
	.byte		        c_v-20
	.byte	W01
	.byte		        c_v-4
	.byte	W01
	.byte		        c_v+0
	.byte	W52
	.byte	W24
	.byte	W03
	.byte		VOL   , 81*seq_006_mvl/mxv
	.byte	W06
	.byte		        78*seq_006_mvl/mxv
	.byte	W04
	.byte		        76*seq_006_mvl/mxv
	.byte	W03
	.byte		        72*seq_006_mvl/mxv
	.byte	W03
	.byte		        67*seq_006_mvl/mxv
	.byte	W04
	.byte		        62*seq_006_mvl/mxv
	.byte	W03
	.byte		        57*seq_006_mvl/mxv
	.byte	W03
	.byte		        50*seq_006_mvl/mxv
	.byte	W04
	.byte		        42*seq_006_mvl/mxv
	.byte	W03
	.byte		        34*seq_006_mvl/mxv
	.byte	W03
	.byte		        25*seq_006_mvl/mxv
	.byte	W04
	.byte		        15*seq_006_mvl/mxv
	.byte	W05
	.byte		EOT
	.byte	FINE

@*********************** Track 04 ***********************@

seq_006_3:
	.byte	KEYSH , seq_006_key+0
	.byte		VOICE , 101
	.byte		PAN   , c_v-64
	.byte		VOL   , 82*seq_006_mvl/mxv
	.byte	W24
	.byte	W06
	.byte		N18   , Bn2 , v060
	.byte	W18
	.byte		N06   , Cs3 
	.byte	W12
	.byte		        Ds3 
	.byte	W07
	.byte		N02   , Ds3 , v052
	.byte	W02
	.byte		N15   , En3 , v060
	.byte	W15
	.byte		N05   , Ds3 
	.byte	W12
	.byte		N06   , Cs3 
	.byte	W06
	.byte		N18   , Ds3 
	.byte	W18
	.byte		N07   , En3 
	.byte	W08
	.byte		N04
	.byte	W10
	.byte		N05   , Fs3 
	.byte	W06
	.byte		N05
	.byte	W12
	.byte		TIE
	.byte	W60
	.byte	W24
	.byte	W03
	.byte		VOL   , 81*seq_006_mvl/mxv
	.byte	W06
	.byte		        78*seq_006_mvl/mxv
	.byte	W04
	.byte		        76*seq_006_mvl/mxv
	.byte	W03
	.byte		        72*seq_006_mvl/mxv
	.byte	W03
	.byte		        67*seq_006_mvl/mxv
	.byte	W04
	.byte		        62*seq_006_mvl/mxv
	.byte	W03
	.byte		        57*seq_006_mvl/mxv
	.byte	W03
	.byte		        50*seq_006_mvl/mxv
	.byte	W04
	.byte		        42*seq_006_mvl/mxv
	.byte	W03
	.byte		        34*seq_006_mvl/mxv
	.byte	W03
	.byte		        25*seq_006_mvl/mxv
	.byte	W04
	.byte		        15*seq_006_mvl/mxv
	.byte	W05
	.byte		EOT
	.byte	FINE

@*********************** Track 05 ***********************@

seq_006_4:
	.byte	KEYSH , seq_006_key+0
	.byte		VOICE , 102
	.byte		VOL   , 82*seq_006_mvl/mxv
	.byte		PAN   , c_v+63
	.byte	W24
	.byte	W06
	.byte		N18   , Fs3 , v060
	.byte	W18
	.byte		N06   , Gs3 
	.byte	W12
	.byte		        As3 
	.byte	W07
	.byte		N02   , As3 , v052
	.byte	W02
	.byte		N15   , Bn3 , v060
	.byte	W15
	.byte		N05   , As3 
	.byte	W12
	.byte		N06   , Gs3 
	.byte	W06
	.byte		N18   , As3 
	.byte	W18
	.byte		N07   , Gs3 
	.byte	W08
	.byte		N04
	.byte	W10
	.byte		N05   , Cs4 
	.byte	W06
	.byte		N06
	.byte	W12
	.byte		TIE   , As3 
	.byte	W60
	.byte	W24
	.byte	W03
	.byte		VOL   , 81*seq_006_mvl/mxv
	.byte	W06
	.byte		        78*seq_006_mvl/mxv
	.byte	W04
	.byte		        76*seq_006_mvl/mxv
	.byte	W03
	.byte		        72*seq_006_mvl/mxv
	.byte	W03
	.byte		        67*seq_006_mvl/mxv
	.byte	W04
	.byte		        62*seq_006_mvl/mxv
	.byte	W03
	.byte		        57*seq_006_mvl/mxv
	.byte	W03
	.byte		        50*seq_006_mvl/mxv
	.byte	W04
	.byte		        42*seq_006_mvl/mxv
	.byte	W03
	.byte		        34*seq_006_mvl/mxv
	.byte	W03
	.byte		        25*seq_006_mvl/mxv
	.byte	W04
	.byte		        15*seq_006_mvl/mxv
	.byte	W05
	.byte		EOT
	.byte	FINE

@*********************** Track 06 ***********************@

seq_006_5:
	.byte	KEYSH , seq_006_key+0
	.byte		VOICE , 127
	.byte		VOL   , 105*seq_006_mvl/mxv
	.byte		N06   , Cn1 , v104
	.byte		N24   , Gn2 , v127
	.byte	W06
	.byte		N02   , Dn1 , v092
	.byte	W02
	.byte		N04
	.byte	W04
	.byte		N06   , Dn1 , v104
	.byte	W06
	.byte		        Dn1 , v124
	.byte	W06
	.byte		        Cn1 , v127
	.byte		N24   , Cs2 
	.byte	W06
	.byte		N02   , Fs1 , v076
	.byte	W02
	.byte		        Fs1 , v084
	.byte	W02
	.byte		        Fs1 , v092
	.byte	W02
	.byte		N06   , Fs1 , v088
	.byte	W06
	.byte		N06
	.byte	W06
	.byte		        Dn1 , v112
	.byte	W06
	.byte		        Cn1 , v092
	.byte		N06   , Fs1 , v088
	.byte	W06
	.byte		        Fs1 , v108
	.byte	W06
	.byte		        Dn1 , v124
	.byte	W06
	.byte		        Fs1 , v108
	.byte	W06
	.byte		        Cn1 , v100
	.byte		N06   , Fs1 , v080
	.byte	W06
	.byte		N12   , As1 , v056
	.byte	W06
	.byte		N06   , Dn1 , v100
	.byte	W06
	.byte		N02   , Cn2 , v084
	.byte	W02
	.byte		        Cn2 , v100
	.byte	W02
	.byte		N04   , An1 , v084
	.byte	W04
	.byte		        Cn1 , v120
	.byte	W04
	.byte		N06   , Dn1 , v100
	.byte		N06   , Fs1 , v108
	.byte	W06
	.byte		        Cn1 , v100
	.byte		N06   , Fs1 , v060
	.byte	W06
	.byte		        Dn1 , v100
	.byte		N12   , Gn2 , v127
	.byte	W12
	.byte		N06   , Cn1 , v100
	.byte		N06   , Fs1 , v064
	.byte	W06
	.byte		        Dn1 , v100
	.byte		N18   , An2 , v116
	.byte	W12
	.byte		N06   , Fs1 , v064
	.byte	W06
	.byte		        Dn1 , v127
	.byte		N60   , Cs2 
	.byte	W48
	.byte		BEND  , c_v+0
	.byte	W12
	.byte	FINE

@******************************************************@

	.align	2

seq_006:
	.byte	6	@ NumTrks
	.byte	0	@ NumBlks
	.byte	seq_006_pri	@ Priority
	.byte	seq_006_rev	@ Reverb

	.word	seq_006_grp

	.word	seq_006_0
	.word	seq_006_1
	.word	seq_006_2
	.word	seq_006_3
	.word	seq_006_4
	.word	seq_006_5

	.end
