@ File generated by m4a2s Song-Module
	.include "MPlayDef.s"

	.equ	seq_046_grp, bank_035
	.equ	seq_046_pri, 0
	.equ	seq_046_rev, 148
	.equ	seq_046_mvl, 127
	.equ	seq_046_key, 0

	.section .rodata
	.global	seq_046
	.align	2

@*********************** Track 01 ***********************@

seq_046_0:
	.byte	KEYSH , seq_046_key+0
	.byte	TEMPO , 144/2
	.byte		VOICE , 61
	.byte		VOL   , 70*seq_046_mvl/mxv
	.byte		PAN   , c_v+0
	.byte		BEND  , c_v-16
	.byte		N32   , An4 , v100
	.byte	W03
	.byte		BEND  , c_v-14
	.byte	W03
	.byte		        c_v-11
	.byte	W01
	.byte		        c_v-8
	.byte	W01
	.byte		        c_v-5
	.byte	W02
	.byte		        c_v+0
	.byte	W02
	.byte		        c_v+7
	.byte	W02
	.byte		        c_v+12
	.byte	W01
	.byte		        c_v+16
	.byte	W21
	.byte		N06
	.byte	W12
	.byte		N44
	.byte	W48
	.byte		N03   , An4 , v100
	.byte	W06
	.byte		N03
	.byte	W18
	.byte		N04
	.byte	W06
	.byte		N64
	.byte	W66
	.byte	PEND
	.byte		BEND  , c_v-16
	.byte		N32   , An4 , v100
	.byte	W03
	.byte		BEND  , c_v-14
	.byte	W03
	.byte		        c_v-11
	.byte	W01
	.byte		        c_v-8
	.byte	W01
	.byte		        c_v-5
	.byte	W02
	.byte		        c_v+0
	.byte	W02
	.byte		        c_v+7
	.byte	W02
	.byte		        c_v+12
	.byte	W01
	.byte		        c_v+16
	.byte	W21
	.byte		N06
	.byte	W12
	.byte		N44
	.byte	W48
	.byte	PEND
	.byte	PATT
	 .word	seq_046_0 + 0x25
	.byte	PATT
	 .word	seq_046_0 + 0x30
	.byte	PATT
	 .word	seq_046_0 + 0x25
	.byte	PATT
	 .word	seq_046_0 + 0x30
	.byte	PATT
	 .word	seq_046_0 + 0x25
	.byte	PATT
	 .word	seq_046_0 + 0x30
	.byte	PATT
	 .word	seq_046_0 + 0x25
	.byte		BEND  , c_v-16
	.byte		N32   , Fn4 , v100
	.byte	W03
	.byte		BEND  , c_v-14
	.byte	W03
	.byte		        c_v-11
	.byte	W01
	.byte		        c_v-8
	.byte	W01
	.byte		        c_v-5
	.byte	W02
	.byte		        c_v+0
	.byte	W02
	.byte		        c_v+7
	.byte	W02
	.byte		        c_v+12
	.byte	W01
	.byte		        c_v+16
	.byte	W21
	.byte		N06
	.byte	W12
	.byte		N44
	.byte	W48
	.byte	PEND
	.byte		N03   , Fn4 , v100
	.byte	W06
	.byte		N03
	.byte	W18
	.byte		N04
	.byte	W06
	.byte		N64
	.byte	W66
	.byte	PEND
	.byte	PATT
	 .word	seq_046_0 + 0x6F
	.byte	PATT
	 .word	seq_046_0 + 0x8B
	.byte		BEND  , c_v-16
	.byte		N32   , En4 , v100
	.byte	W03
	.byte		BEND  , c_v-14
	.byte	W03
	.byte		        c_v-11
	.byte	W01
	.byte		        c_v-8
	.byte	W01
	.byte		        c_v-5
	.byte	W02
	.byte		        c_v+0
	.byte	W02
	.byte		        c_v+7
	.byte	W02
	.byte		        c_v+12
	.byte	W01
	.byte		        c_v+16
	.byte	W21
	.byte		N06
	.byte	W12
	.byte		N44
	.byte	W48
	.byte	PEND
	.byte		N03   , En4 , v100
	.byte	W06
	.byte		N03
	.byte	W18
	.byte		N04
	.byte	W06
	.byte		N64
	.byte	W66
	.byte	PEND
	.byte	PATT
	 .word	seq_046_0 + 0xA0
	.byte	PATT
	 .word	seq_046_0 + 0xBC
	.byte		N96   , En4 , v100
	.byte	W96
	.byte		        Fs4 
	.byte	W96
	.byte		        Gn4 
	.byte	W96
	.byte		N96
	.byte	W96
	.byte		        En4 
	.byte	W96
	.byte		        Fs4 
	.byte	W96
	.byte		        Gn4 
	.byte	W96
	.byte		N96
	.byte	W96
	.byte	W24
	.byte		VOL   , 77*seq_046_mvl/mxv
	.byte		N24   , Cn3 
	.byte	W24
	.byte		        Fn3 
	.byte	W24
	.byte		        Gn3 
	.byte	W24
	.byte		N48
	.byte	W48
	.byte		N24
	.byte	W24
	.byte		        Bn3 
	.byte	W24
	.byte		N48
	.byte	W48
	.byte		N48
	.byte	W48
	.byte		        Dn4 
	.byte	W48
	.byte		N48
	.byte	W36
	.byte	W01
	.byte		BEND  , c_v+15
	.byte	W02
	.byte		        c_v+12
	.byte	W01
	.byte		        c_v+10
	.byte	W02
	.byte		        c_v+7
	.byte	W02
	.byte		        c_v+0
	.byte	W01
	.byte		        c_v-6
	.byte	W02
	.byte		        c_v-12
	.byte	W01
	.byte		VOL   , 70*seq_046_mvl/mxv
	.byte		BEND  , c_v-16
	.byte		N32   , Cn4 
	.byte	W03
	.byte		BEND  , c_v-14
	.byte	W03
	.byte		        c_v-11
	.byte	W01
	.byte		        c_v-8
	.byte	W01
	.byte		        c_v-5
	.byte	W02
	.byte		        c_v+0
	.byte	W02
	.byte		        c_v+7
	.byte	W02
	.byte		        c_v+12
	.byte	W01
	.byte		        c_v+16
	.byte	W21
	.byte		N06
	.byte	W12
	.byte		N44
	.byte	W48
	.byte		N03
	.byte	W06
	.byte		N03
	.byte	W18
	.byte		N04
	.byte	W06
	.byte		N64
	.byte	W66
	.byte		BEND  , c_v-16
	.byte		N32   , Ds4 
	.byte	W03
	.byte		BEND  , c_v-14
	.byte	W03
	.byte		        c_v-11
	.byte	W01
	.byte		        c_v-8
	.byte	W01
	.byte		        c_v-5
	.byte	W02
	.byte		        c_v+0
	.byte	W02
	.byte		        c_v+7
	.byte	W02
	.byte		        c_v+12
	.byte	W01
	.byte		        c_v+16
	.byte	W21
	.byte		N06
	.byte	W12
	.byte		N44
	.byte	W48
	.byte		N03   , Dn4 
	.byte	W06
	.byte		N03
	.byte	W18
	.byte		N04
	.byte	W06
	.byte		N64
	.byte	W66
	.byte	GOTO
	 .word	seq_046_0 + 0x51
	.byte	FINE

@*********************** Track 02 ***********************@

seq_046_1:
	.byte	KEYSH , seq_046_key+0
	.byte		VOICE , 38
	.byte		VOL   , 90*seq_046_mvl/mxv
	.byte		PAN   , c_v+0
	.byte		BEND  , c_v+16
	.byte		N16   , Cn0 , v127
	.byte	W18
	.byte		N06   , Gn0 
	.byte	W18
	.byte		N16   , Cn1 
	.byte	W24
	.byte		N06   , Cn0 
	.byte	W18
	.byte		N16
	.byte	W18
	.byte	W12
	.byte		N10   , Cn0 , v127
	.byte	W18
	.byte		N10
	.byte	W18
	.byte		        Dn0 
	.byte	W12
	.byte		        Gn0 
	.byte	W12
	.byte		        Dn1 
	.byte	W12
	.byte		        Cn1 
	.byte	W12
	.byte	PEND
	.byte		N16   , Cn0 , v127
	.byte	W18
	.byte		N06   , Gn0 
	.byte	W18
	.byte		N16   , Cn1 
	.byte	W24
	.byte		N06   , Cn0 
	.byte	W18
	.byte		N16
	.byte	W18
	.byte	PEND
	.byte	PATT
	 .word	seq_046_1 + 0x19
	.byte		BEND  , c_v+16
	.byte		N16   , Cn0 , v127
	.byte	W18
	.byte		N06   , Gn0 
	.byte	W18
	.byte		N16   , Cn1 
	.byte	W24
	.byte		N06   , Cn0 
	.byte	W18
	.byte		N16
	.byte	W18
	.byte	PATT
	 .word	seq_046_1 + 0x19
	.byte	PATT
	 .word	seq_046_1 + 0x29
	.byte	PATT
	 .word	seq_046_1 + 0x19
	.byte	PATT
	 .word	seq_046_1 + 0x29
	.byte	PATT
	 .word	seq_046_1 + 0x19
	.byte		N16   , Fn0 , v127
	.byte	W18
	.byte		N06   , Gs0 
	.byte	W18
	.byte		N16   , Cn1 
	.byte	W24
	.byte		N06   , As0 
	.byte	W18
	.byte		N16   , Fn0 
	.byte	W18
	.byte	PEND
	.byte	W12
	.byte		N06   , Ds0 
	.byte	W18
	.byte		N16
	.byte	W18
	.byte		N07
	.byte	W12
	.byte		N07
	.byte	W12
	.byte		N07
	.byte	W12
	.byte		N07
	.byte	W12
	.byte	PATT
	 .word	seq_046_1 + 0x68
	.byte	W12
	.byte		N06   , Ds0 , v127
	.byte	W18
	.byte		N16
	.byte	W18
	.byte		N07
	.byte	W12
	.byte		N07
	.byte	W12
	.byte		N07
	.byte	W12
	.byte		        Dn0 
	.byte	W12
	.byte		N16   , Cs0 
	.byte	W18
	.byte		N06   , En0 
	.byte	W18
	.byte		N18   , Bn0 
	.byte	W24
	.byte		N06   , Gs0 
	.byte	W18
	.byte		N16   , Cn0 
	.byte	W18
	.byte	W12
	.byte		N06
	.byte	W18
	.byte		N16
	.byte	W18
	.byte		N07   , Cs0 
	.byte	W12
	.byte		N07
	.byte	W12
	.byte		N07
	.byte	W12
	.byte		        Cn0 
	.byte	W12
	.byte		N16   , Cs0 
	.byte	W18
	.byte		N06   , En0 
	.byte	W18
	.byte		N16   , Bn0 
	.byte	W24
	.byte		N06   , An0 
	.byte	W18
	.byte		N16   , Cn0 
	.byte	W18
	.byte	W12
	.byte		N06
	.byte	W18
	.byte		N16
	.byte	W18
	.byte		N07   , Dn0 
	.byte	W12
	.byte		N07
	.byte	W12
	.byte		N07
	.byte	W12
	.byte		N07
	.byte	W12
	.byte		N16   , Cn0 , v127
	.byte	W18
	.byte		N06   , Gn0 
	.byte	W18
	.byte		N16   , Cn1 
	.byte	W24
	.byte		N06   , Bn0 
	.byte	W18
	.byte		N16   , Gn0 
	.byte	W18
	.byte	PEND
	.byte	W12
	.byte		N10   , Cn0 , v127
	.byte	W18
	.byte		N10
	.byte	W18
	.byte		N07
	.byte	W12
	.byte		N07
	.byte	W12
	.byte		        Dn0 
	.byte	W12
	.byte		        Cn0 
	.byte	W12
	.byte	PEND
	.byte		N16   , Cn0 , v127
	.byte	W18
	.byte		N06   , Gn0 
	.byte	W18
	.byte		N16   , Dn1 
	.byte	W24
	.byte		N06   , Cn1 
	.byte	W18
	.byte		N16   , Gn0 
	.byte	W18
	.byte	PEND
	.byte	W12
	.byte		N10   , Cn0 , v127
	.byte	W18
	.byte		N10
	.byte	W18
	.byte		N10
	.byte	W12
	.byte		        Gn0 
	.byte	W12
	.byte		        Dn1 
	.byte	W12
	.byte		        Cn1 
	.byte	W12
	.byte	PEND
	.byte	PATT
	 .word	seq_046_1 + 0xD5
	.byte	PATT
	 .word	seq_046_1 + 0xE6
	.byte	PATT
	 .word	seq_046_1 + 0xF6
	.byte	PATT
	 .word	seq_046_1 + 0x107
	.byte		N12   , Fn1 , v127
	.byte	W18
	.byte		N06
	.byte	W18
	.byte		N06
	.byte	W24
	.byte		N06
	.byte	W18
	.byte		N16
	.byte	W18
	.byte	PEND
	.byte	W12
	.byte		N12
	.byte	W18
	.byte		N06
	.byte	W18
	.byte		N06
	.byte	W12
	.byte		N06
	.byte	W12
	.byte		N06
	.byte	W12
	.byte		N06
	.byte	W12
	.byte		N12   , En1 
	.byte	W18
	.byte		N06
	.byte	W18
	.byte		N06
	.byte	W24
	.byte		N06
	.byte	W18
	.byte		N16
	.byte	W18
	.byte	W12
	.byte		N12   , Ds1 
	.byte	W18
	.byte		N06
	.byte	W18
	.byte		N06
	.byte	W12
	.byte		N06
	.byte	W12
	.byte		N06
	.byte	W12
	.byte		N06
	.byte	W12
	.byte		N12   , Dn1 
	.byte	W18
	.byte		N06
	.byte	W18
	.byte		N06
	.byte	W24
	.byte		N06
	.byte	W18
	.byte		N16
	.byte	W18
	.byte	W12
	.byte		N12
	.byte	W18
	.byte		N06
	.byte	W18
	.byte		N06
	.byte	W12
	.byte		N06
	.byte	W12
	.byte		N06
	.byte	W12
	.byte		N06
	.byte	W12
	.byte	PATT
	 .word	seq_046_1 + 0x12B
	.byte	W12
	.byte		N12   , As0 , v127
	.byte	W18
	.byte		N06
	.byte	W18
	.byte		N06
	.byte	W12
	.byte		N06
	.byte	W12
	.byte		N06
	.byte	W12
	.byte		N06
	.byte	W12
	.byte	GOTO
	 .word	seq_046_1 + 0x3E
	.byte	FINE

@*********************** Track 03 ***********************@

seq_046_2:
	.byte	KEYSH , seq_046_key+0
	.byte		VOICE , 102
	.byte		VOL   , 35*seq_046_mvl/mxv
	.byte		PAN   , c_v+0
	.byte		BEND  , c_v-16
	.byte		N32   , Fn4 , v100
	.byte	W03
	.byte		BEND  , c_v-14
	.byte	W03
	.byte		        c_v-11
	.byte	W01
	.byte		        c_v-8
	.byte	W01
	.byte		        c_v-5
	.byte	W03
	.byte		        c_v+1
	.byte	W01
	.byte		        c_v+5
	.byte	W02
	.byte		        c_v+10
	.byte	W01
	.byte		        c_v+16
	.byte	W21
	.byte		N06
	.byte	W12
	.byte		N44
	.byte	W48
	.byte		BEND  , c_v-16
	.byte		N03   , Fn4 , v100
	.byte	W06
	.byte		N03
	.byte	W18
	.byte		N04
	.byte	W06
	.byte		N64
	.byte	W66
	.byte	PEND
	.byte		N32   , Fn4 , v100
	.byte	W03
	.byte		BEND  , c_v-14
	.byte	W03
	.byte		        c_v-11
	.byte	W01
	.byte		        c_v-8
	.byte	W01
	.byte		        c_v-5
	.byte	W03
	.byte		        c_v+1
	.byte	W01
	.byte		        c_v+5
	.byte	W02
	.byte		        c_v+10
	.byte	W01
	.byte		        c_v+16
	.byte	W21
	.byte		N06
	.byte	W12
	.byte		N44
	.byte	W48
	.byte	PEND
	.byte	PATT
	 .word	seq_046_2 + 0x23
	.byte		PAN   , c_v+0
	.byte		N32   , Fn4 , v100
	.byte	W03
	.byte		BEND  , c_v-14
	.byte	W03
	.byte		        c_v-11
	.byte	W01
	.byte		        c_v-8
	.byte	W01
	.byte		        c_v-5
	.byte	W03
	.byte		        c_v+1
	.byte	W01
	.byte		        c_v+5
	.byte	W02
	.byte		        c_v+10
	.byte	W01
	.byte		        c_v+16
	.byte	W21
	.byte		N06
	.byte	W12
	.byte		N44
	.byte	W48
	.byte	PATT
	 .word	seq_046_2 + 0x23
	.byte	PATT
	 .word	seq_046_2 + 0x30
	.byte	PATT
	 .word	seq_046_2 + 0x23
	.byte	PATT
	 .word	seq_046_2 + 0x30
	.byte	PATT
	 .word	seq_046_2 + 0x23
	.byte		N32   , Cs4 , v100
	.byte	W03
	.byte		BEND  , c_v-14
	.byte	W03
	.byte		        c_v-11
	.byte	W01
	.byte		        c_v-8
	.byte	W01
	.byte		        c_v-5
	.byte	W03
	.byte		        c_v+1
	.byte	W01
	.byte		        c_v+5
	.byte	W02
	.byte		        c_v+10
	.byte	W01
	.byte		        c_v+16
	.byte	W21
	.byte		N06
	.byte	W12
	.byte		N44
	.byte	W48
	.byte		N03   , Cs4 , v100
	.byte	W06
	.byte		N03
	.byte	W18
	.byte		N04
	.byte	W06
	.byte		N64
	.byte	W66
	.byte	PEND
	.byte		BEND  , c_v-16
	.byte		N32
	.byte	W03
	.byte		BEND  , c_v-14
	.byte	W03
	.byte		        c_v-11
	.byte	W01
	.byte		        c_v-8
	.byte	W01
	.byte		        c_v-5
	.byte	W03
	.byte		        c_v+1
	.byte	W01
	.byte		        c_v+5
	.byte	W02
	.byte		        c_v+10
	.byte	W01
	.byte		        c_v+16
	.byte	W21
	.byte		N06
	.byte	W12
	.byte		N44
	.byte	W48
	.byte	PATT
	 .word	seq_046_2 + 0x9C
	.byte		BEND  , c_v-16
	.byte		N32   , Cn4 , v100
	.byte	W03
	.byte		BEND  , c_v-14
	.byte	W03
	.byte		        c_v-11
	.byte	W01
	.byte		        c_v-8
	.byte	W01
	.byte		        c_v-5
	.byte	W03
	.byte		        c_v+1
	.byte	W01
	.byte		        c_v+5
	.byte	W02
	.byte		        c_v+10
	.byte	W01
	.byte		        c_v+16
	.byte	W21
	.byte		N06
	.byte	W12
	.byte		N44
	.byte	W48
	.byte	PEND
	.byte		N03   , Cn4 , v100
	.byte	W06
	.byte		N03
	.byte	W18
	.byte		N04
	.byte	W06
	.byte		N64
	.byte	W66
	.byte	PEND
	.byte	PATT
	 .word	seq_046_2 + 0xC5
	.byte	PATT
	 .word	seq_046_2 + 0xE1
	.byte		N96   , Cn4 , v100
	.byte	W96
	.byte		        Dn4 
	.byte	W96
	.byte		        Ds4 
	.byte	W96
	.byte		        Fn4 
	.byte	W96
	.byte		        Cn4 
	.byte	W96
	.byte		        Dn4 
	.byte	W96
	.byte		        Ds4 
	.byte	W96
	.byte		        Fn4 
	.byte	W96
	.byte	W24
	.byte		VOL   , 49*seq_046_mvl/mxv
	.byte		N24   , An2 
	.byte	W24
	.byte		        Cn3 
	.byte	W24
	.byte		        Fn3 
	.byte	W24
	.byte		N48   , Dn3 
	.byte	W48
	.byte		N24   , En3 
	.byte	W24
	.byte		        Gn3 
	.byte	W24
	.byte		N48
	.byte	W48
	.byte		N48
	.byte	W48
	.byte		        As3 
	.byte	W48
	.byte		N48
	.byte	W36
	.byte	W01
	.byte		BEND  , c_v+15
	.byte	W02
	.byte		        c_v+12
	.byte	W01
	.byte		        c_v+10
	.byte	W02
	.byte		        c_v+7
	.byte	W02
	.byte		        c_v+0
	.byte	W01
	.byte		        c_v-6
	.byte	W02
	.byte		        c_v-12
	.byte	W01
	.byte		VOL   , 35*seq_046_mvl/mxv
	.byte		BEND  , c_v-16
	.byte		N32   , An3 
	.byte	W03
	.byte		BEND  , c_v-14
	.byte	W03
	.byte		        c_v-11
	.byte	W01
	.byte		        c_v-8
	.byte	W01
	.byte		        c_v-5
	.byte	W03
	.byte		        c_v+1
	.byte	W01
	.byte		        c_v+5
	.byte	W02
	.byte		        c_v+10
	.byte	W01
	.byte		        c_v+16
	.byte	W21
	.byte		N06
	.byte	W12
	.byte		N44
	.byte	W48
	.byte		N03
	.byte	W06
	.byte		N03
	.byte	W18
	.byte		N04
	.byte	W06
	.byte		N64
	.byte	W66
	.byte	PATT
	 .word	seq_046_2 + 0xC5
	.byte	PATT
	 .word	seq_046_2 + 0xE1
	.byte	GOTO
	 .word	seq_046_2 + 0x4F
	.byte	FINE

@*********************** Track 04 ***********************@

seq_046_3:
	.byte	KEYSH , seq_046_key+0
	.byte		VOICE , 101
	.byte		VOL   , 35*seq_046_mvl/mxv
	.byte		PAN   , c_v-64
	.byte		BEND  , c_v-16
	.byte		N32   , As3 , v100
	.byte	W03
	.byte		BEND  , c_v-14
	.byte	W03
	.byte		        c_v-11
	.byte	W01
	.byte		        c_v-8
	.byte	W01
	.byte		        c_v-5
	.byte	W02
	.byte		        c_v+0
	.byte	W02
	.byte		        c_v+7
	.byte	W02
	.byte		        c_v+12
	.byte	W01
	.byte		        c_v+16
	.byte	W21
	.byte		N06
	.byte	W12
	.byte		N44
	.byte	W48
	.byte		N03   , As3 , v100
	.byte	W06
	.byte		N03
	.byte	W18
	.byte		N04
	.byte	W06
	.byte		N64
	.byte	W66
	.byte	PEND
	.byte		BEND  , c_v-16
	.byte		N32   , As3 , v100
	.byte	W03
	.byte		BEND  , c_v-14
	.byte	W03
	.byte		        c_v-11
	.byte	W01
	.byte		        c_v-8
	.byte	W01
	.byte		        c_v-5
	.byte	W02
	.byte		        c_v+0
	.byte	W02
	.byte		        c_v+7
	.byte	W02
	.byte		        c_v+12
	.byte	W01
	.byte		        c_v+16
	.byte	W21
	.byte		N06
	.byte	W12
	.byte		N44
	.byte	W48
	.byte	PEND
	.byte	PATT
	 .word	seq_046_3 + 0x23
	.byte		VOL   , 35*seq_046_mvl/mxv
	.byte		BEND  , c_v-16
	.byte		N32   , As3 , v100
	.byte	W03
	.byte		BEND  , c_v-14
	.byte	W03
	.byte		        c_v-11
	.byte	W01
	.byte		        c_v-8
	.byte	W01
	.byte		        c_v-5
	.byte	W02
	.byte		        c_v+0
	.byte	W02
	.byte		        c_v+7
	.byte	W02
	.byte		        c_v+12
	.byte	W01
	.byte		        c_v+16
	.byte	W21
	.byte		N06
	.byte	W12
	.byte		N44
	.byte	W48
	.byte	PATT
	 .word	seq_046_3 + 0x23
	.byte	PATT
	 .word	seq_046_3 + 0x2E
	.byte	PATT
	 .word	seq_046_3 + 0x23
	.byte	PATT
	 .word	seq_046_3 + 0x2E
	.byte	PATT
	 .word	seq_046_3 + 0x23
	.byte		BEND  , c_v-16
	.byte		N32   , Gs3 , v100
	.byte	W03
	.byte		BEND  , c_v-14
	.byte	W03
	.byte		        c_v-11
	.byte	W01
	.byte		        c_v-8
	.byte	W01
	.byte		        c_v-5
	.byte	W02
	.byte		        c_v+0
	.byte	W02
	.byte		        c_v+7
	.byte	W02
	.byte		        c_v+12
	.byte	W01
	.byte		        c_v+16
	.byte	W21
	.byte		N06
	.byte	W12
	.byte		N44
	.byte	W48
	.byte	PEND
	.byte		N03   , Gn3 , v100
	.byte	W06
	.byte		N03
	.byte	W18
	.byte		N04
	.byte	W06
	.byte		N64
	.byte	W66
	.byte	PEND
	.byte	PATT
	 .word	seq_046_3 + 0x85
	.byte	PATT
	 .word	seq_046_3 + 0xA1
	.byte		BEND  , c_v-16
	.byte		N32   , Gn3 , v100
	.byte	W03
	.byte		BEND  , c_v-14
	.byte	W03
	.byte		        c_v-11
	.byte	W01
	.byte		        c_v-8
	.byte	W01
	.byte		        c_v-5
	.byte	W02
	.byte		        c_v+0
	.byte	W02
	.byte		        c_v+7
	.byte	W02
	.byte		        c_v+12
	.byte	W01
	.byte		        c_v+16
	.byte	W21
	.byte		N06
	.byte	W12
	.byte		N44
	.byte	W48
	.byte	PEND
	.byte		N03   , Fs3 
	.byte	W06
	.byte		N03
	.byte	W18
	.byte		N04
	.byte	W06
	.byte		N64
	.byte	W66
	.byte	PATT
	 .word	seq_046_3 + 0xB6
	.byte		N03   , Fs3 , v100
	.byte	W06
	.byte		N03
	.byte	W18
	.byte		N04   , Fn3 
	.byte	W06
	.byte		N64
	.byte	W66
	.byte		N96   , Gn3 
	.byte	W96
	.byte		        An3 
	.byte	W96
	.byte		        As3 
	.byte	W96
	.byte		        Cn4 
	.byte	W96
	.byte		        Gn3 
	.byte	W96
	.byte		        An3 
	.byte	W96
	.byte		        As3 
	.byte	W96
	.byte		        Cn4 
	.byte	W96
	.byte		VOL   , 49*seq_046_mvl/mxv
	.byte		N44   , Cn2 
	.byte	W48
	.byte		N44
	.byte	W48
	.byte		N44
	.byte	W48
	.byte		N44
	.byte	W48
	.byte		        Bn1 
	.byte	W48
	.byte		N44
	.byte	W48
	.byte		        As1 
	.byte	W48
	.byte		N44
	.byte	W36
	.byte	W01
	.byte		BEND  , c_v+15
	.byte	W02
	.byte		        c_v+12
	.byte	W01
	.byte		        c_v+10
	.byte	W02
	.byte		        c_v+7
	.byte	W01
	.byte		        c_v+0
	.byte	W02
	.byte		        c_v-6
	.byte	W02
	.byte		        c_v-12
	.byte	W01
	.byte	W96
	.byte	W96
	.byte	W96
	.byte	W96
	.byte	GOTO
	 .word	seq_046_3 + 0x4F
	.byte	FINE

@*********************** Track 05 ***********************@

seq_046_4:
	.byte	KEYSH , seq_046_key+0
	.byte	W96
	.byte	W96
	.byte	W96
	.byte	W96
	.byte		VOICE , 12
	.byte		VOL   , 77*seq_046_mvl/mxv
	.byte		PAN   , c_v+0
	.byte		BEND  , c_v+16
	.byte		N09   , Dn5 , v080
	.byte	W24
	.byte		        En5 
	.byte	W24
	.byte		        Fn5 
	.byte	W24
	.byte		        Gn5 
	.byte	W24
	.byte		N09   , Dn5 , v080
	.byte	W36
	.byte		N09
	.byte	W24
	.byte		N09
	.byte	W12
	.byte		        En5 
	.byte	W24
	.byte	PEND
	.byte		        Fn5 
	.byte	W96
	.byte		VOL   , 59*seq_046_mvl/mxv
	.byte		N09   , As5 
	.byte	W12
	.byte		        An5 
	.byte	W12
	.byte		        Fn5 
	.byte	W12
	.byte		        Dn6 
	.byte	W60
	.byte		VOL   , 77*seq_046_mvl/mxv
	.byte		N09   , Dn5 
	.byte	W24
	.byte		        En5 
	.byte	W24
	.byte		        Fn5 
	.byte	W24
	.byte		        Gn5 
	.byte	W24
	.byte	PATT
	 .word	seq_046_4 + 0x18
	.byte		N09   , Fn5 , v080
	.byte	W96
	.byte		        Gs5 
	.byte	W12
	.byte		        Gn5 
	.byte	W12
	.byte		        Ds5 
	.byte	W12
	.byte		        Fn5 
	.byte	W36
	.byte		        Gn5 
	.byte	W12
	.byte		        Gs5 
	.byte	W12
	.byte		        Fn5 
	.byte	W96
	.byte		VOL   , 59*seq_046_mvl/mxv
	.byte		N09   , Fn6 
	.byte	W12
	.byte		        Ds6 
	.byte	W12
	.byte		        Cs6 
	.byte	W12
	.byte		        Cn6 
	.byte	W12
	.byte		VOL   , 77*seq_046_mvl/mxv
	.byte	W12
	.byte		N09   , As5 
	.byte	W12
	.byte		        Gs5 
	.byte	W12
	.byte		        Gn5 
	.byte	W12
	.byte		        En5 
	.byte	W96
	.byte		        Gn5 
	.byte	W12
	.byte		        Fs5 
	.byte	W12
	.byte		        Dn5 
	.byte	W12
	.byte		        En5 
	.byte	W36
	.byte		        Fs5 
	.byte	W12
	.byte		        Gn5 
	.byte	W12
	.byte		        En5 
	.byte	W96
	.byte		        Fn5 
	.byte	W12
	.byte		        En5 
	.byte	W12
	.byte		        Fn5 
	.byte	W12
	.byte		        Gn5 
	.byte	W60
	.byte		VOICE , 62
	.byte		VOL   , 70*seq_046_mvl/mxv
	.byte	W24
	.byte		N24   , Gn3 , v092
	.byte	W24
	.byte		        Cn4 
	.byte	W24
	.byte		        Gn4 , v076
	.byte	W24
	.byte		N48   , Fs4 , v076
	.byte	W48
	.byte		N24   , Dn4 , v084
	.byte	W24
	.byte		        Fs4 , v076
	.byte	W24
	.byte	PEND
	.byte		N96   , Gn4 
	.byte	W96
	.byte		N96
	.byte	W96
	.byte	W24
	.byte		N24   , Gn3 , v092
	.byte	W24
	.byte		        Cn4 
	.byte	W24
	.byte		        Gn4 , v076
	.byte	W24
	.byte	PATT
	 .word	seq_046_4 + 0x8D
	.byte		N96   , Gn4 , v076
	.byte	W96
	.byte		N96
	.byte	W96
	.byte	W24
	.byte		N24   , Cn3 , v092
	.byte	W24
	.byte		        Fn3 
	.byte	W24
	.byte		        Cn4 
	.byte	W24
	.byte		N48   , Bn3 
	.byte	W48
	.byte		N24   , Cn4 
	.byte	W24
	.byte		        Dn4 
	.byte	W24
	.byte		N48
	.byte	W48
	.byte		        En4 
	.byte	W48
	.byte		        Fn4 
	.byte	W48
	.byte		        Gn4 
	.byte	W36
	.byte	W01
	.byte		BEND  , c_v+15
	.byte	W02
	.byte		        c_v+12
	.byte	W01
	.byte		        c_v+10
	.byte	W02
	.byte		        c_v+7
	.byte	W02
	.byte		        c_v+0
	.byte	W01
	.byte		        c_v-6
	.byte	W02
	.byte		        c_v-12
	.byte	W01
	.byte		VOICE , 61
	.byte		PAN   , c_v+32
	.byte		VOL   , 82*seq_046_mvl/mxv
	.byte		BEND  , c_v-16
	.byte		N32   , En4 , v100
	.byte	W03
	.byte		BEND  , c_v-14
	.byte	W03
	.byte		        c_v-11
	.byte	W01
	.byte		        c_v-8
	.byte	W01
	.byte		        c_v-5
	.byte	W02
	.byte		        c_v+0
	.byte	W02
	.byte		        c_v+7
	.byte	W02
	.byte		        c_v+12
	.byte	W01
	.byte		        c_v+16
	.byte	W21
	.byte		N06
	.byte	W12
	.byte		N44
	.byte	W48
	.byte		N03
	.byte	W06
	.byte		N03
	.byte	W18
	.byte		N04
	.byte	W06
	.byte		N64
	.byte	W66
	.byte		BEND  , c_v-16
	.byte		N32   , Gn4 
	.byte	W03
	.byte		BEND  , c_v-14
	.byte	W03
	.byte		        c_v-11
	.byte	W01
	.byte		        c_v-8
	.byte	W01
	.byte		        c_v-5
	.byte	W02
	.byte		        c_v+0
	.byte	W02
	.byte		        c_v+7
	.byte	W02
	.byte		        c_v+12
	.byte	W01
	.byte		        c_v+16
	.byte	W21
	.byte		N06
	.byte	W12
	.byte		N44
	.byte	W48
	.byte		N03
	.byte	W06
	.byte		N03
	.byte	W18
	.byte		N04
	.byte	W06
	.byte		N64
	.byte	W66
	.byte	GOTO
	 .word	seq_046_4 + 0x6
	.byte	FINE

@*********************** Track 06 ***********************@

seq_046_5:
	.byte	KEYSH , seq_046_key+0
	.byte	W96
	.byte	W96
	.byte	W96
	.byte	W96
	.byte		VOICE , 113
	.byte		VOL   , 42*seq_046_mvl/mxv
	.byte		PAN   , c_v+63
	.byte		BEND  , c_v+16
	.byte		N10   , As4 , v127
	.byte	W24
	.byte		        Cn5 
	.byte	W24
	.byte		        Dn5 
	.byte	W24
	.byte		        En5 
	.byte	W24
	.byte		N10   , As4 , v127
	.byte	W36
	.byte		N10
	.byte	W24
	.byte		N10
	.byte	W12
	.byte		        Cn5 
	.byte	W24
	.byte	PEND
	.byte		        Dn5 
	.byte	W96
	.byte		        Fn5 
	.byte	W12
	.byte		N10
	.byte	W12
	.byte		        Dn5 
	.byte	W12
	.byte		        An5 
	.byte	W60
	.byte		        As4 
	.byte	W24
	.byte		        Cn5 
	.byte	W24
	.byte		        Dn5 
	.byte	W24
	.byte		        En5 
	.byte	W24
	.byte	PATT
	 .word	seq_046_5 + 0x18
	.byte		N10   , Cs5 , v127
	.byte	W96
	.byte		        Fn5 
	.byte	W12
	.byte		        Ds5 
	.byte	W12
	.byte		        Cn5 
	.byte	W12
	.byte		        Cs5 
	.byte	W36
	.byte		        Ds5 
	.byte	W12
	.byte		        Fn5 
	.byte	W12
	.byte		        Cs5 
	.byte	W96
	.byte		        Cs6 
	.byte	W12
	.byte		        Cn6 
	.byte	W12
	.byte		        As5 
	.byte	W12
	.byte		        Gs5 
	.byte	W24
	.byte		        Fn5 
	.byte	W12
	.byte		N10
	.byte	W12
	.byte		        En5 
	.byte	W12
	.byte		        Cn5 
	.byte	W96
	.byte		        En5 
	.byte	W12
	.byte		        Dn5 
	.byte	W12
	.byte		        Bn4 
	.byte	W12
	.byte		        Cn5 
	.byte	W36
	.byte		        Dn5 
	.byte	W12
	.byte		        En5 
	.byte	W12
	.byte		        Cn5 
	.byte	W96
	.byte		        Dn5 
	.byte	W12
	.byte		        Cn5 
	.byte	W12
	.byte		        Dn5 
	.byte	W12
	.byte		        En5 
	.byte	W60
	.byte		VOICE , 123
	.byte		VOL   , 49*seq_046_mvl/mxv
	.byte	W24
	.byte		N24   , Cn4 , v100
	.byte	W24
	.byte		        En4 
	.byte	W24
	.byte		        Bn4 
	.byte	W24
	.byte		N48   , An4 , v100
	.byte	W48
	.byte		N24   , Fs4 
	.byte	W24
	.byte		        An4 
	.byte	W24
	.byte	PEND
	.byte		N96   , As4 
	.byte	W96
	.byte		        Cn5 
	.byte	W96
	.byte	W24
	.byte		N24   , Cn4 
	.byte	W24
	.byte		        En4 
	.byte	W24
	.byte		        Bn4 
	.byte	W24
	.byte	PATT
	 .word	seq_046_5 + 0x7F
	.byte		N96   , As4 , v100
	.byte	W96
	.byte		        Cn5 
	.byte	W96
	.byte		PAN   , c_v+63
	.byte		N44   , Fn3 
	.byte	W48
	.byte		N44
	.byte	W48
	.byte		N44
	.byte	W48
	.byte		N44
	.byte	W48
	.byte		        En3 
	.byte	W48
	.byte		N44
	.byte	W48
	.byte		        Ds3 
	.byte	W48
	.byte		N44
	.byte	W36
	.byte	W01
	.byte		BEND  , c_v+15
	.byte	W02
	.byte		        c_v+12
	.byte	W01
	.byte		        c_v+10
	.byte	W02
	.byte		        c_v+7
	.byte	W02
	.byte		        c_v+0
	.byte	W01
	.byte		        c_v-6
	.byte	W02
	.byte		        c_v-12
	.byte	W01
	.byte		PAN   , c_v+0
	.byte		BEND  , c_v-16
	.byte		N32   , An3 
	.byte	W03
	.byte		BEND  , c_v-14
	.byte	W03
	.byte		        c_v-11
	.byte	W01
	.byte		        c_v-8
	.byte	W01
	.byte		        c_v-5
	.byte	W02
	.byte		        c_v+0
	.byte	W02
	.byte		        c_v+7
	.byte	W02
	.byte		        c_v+12
	.byte	W01
	.byte		        c_v+16
	.byte	W21
	.byte		N06
	.byte	W12
	.byte		N44
	.byte	W48
	.byte		N03
	.byte	W06
	.byte		N03
	.byte	W18
	.byte		N04
	.byte	W06
	.byte		N64
	.byte	W66
	.byte		BEND  , c_v-16
	.byte		N32   , Cn4 
	.byte	W03
	.byte		BEND  , c_v-14
	.byte	W03
	.byte		        c_v-11
	.byte	W01
	.byte		        c_v-8
	.byte	W01
	.byte		        c_v-5
	.byte	W02
	.byte		        c_v+0
	.byte	W02
	.byte		        c_v+7
	.byte	W02
	.byte		        c_v+12
	.byte	W01
	.byte		        c_v+16
	.byte	W21
	.byte		N06
	.byte	W12
	.byte		N44
	.byte	W48
	.byte		N03
	.byte	W06
	.byte		N03
	.byte	W18
	.byte		N04
	.byte	W06
	.byte		N64
	.byte	W66
	.byte	GOTO
	 .word	seq_046_5 + 0x6
	.byte	FINE

@*********************** Track 07 ***********************@

seq_046_6:
	.byte	KEYSH , seq_046_key+0
	.byte		VOICE , 127
	.byte		VOL   , 90*seq_046_mvl/mxv
	.byte		PAN   , c_v+0
	.byte		N06   , En0 , v112
	.byte	W12
	.byte		        En0 , v092
	.byte	W06
	.byte		N06
	.byte	W06
	.byte		        En0 , v112
	.byte	W12
	.byte		        En0 , v092
	.byte	W06
	.byte		N06
	.byte	W06
	.byte		        En0 , v112
	.byte	W12
	.byte		        En0 , v092
	.byte	W06
	.byte		N06
	.byte	W06
	.byte		        En0 , v112
	.byte	W12
	.byte		        En0 , v092
	.byte	W06
	.byte		N06
	.byte	W06
	.byte		N06   , En0 , v112
	.byte	W12
	.byte		        En0 , v092
	.byte	W06
	.byte		N06
	.byte	W06
	.byte		        En0 , v112
	.byte	W12
	.byte		        En0 , v092
	.byte	W06
	.byte		N06
	.byte	W06
	.byte		        En0 , v112
	.byte	W12
	.byte		        En0 , v092
	.byte	W06
	.byte		N06
	.byte	W06
	.byte		        En0 , v112
	.byte	W12
	.byte		        En0 , v092
	.byte	W06
	.byte		N06
	.byte	W06
	.byte	PEND
	.byte	PATT
	 .word	seq_046_6 + 0x29
	.byte		N06   , En0 , v112
	.byte	W12
	.byte		        En0 , v092
	.byte	W06
	.byte		N06
	.byte	W06
	.byte		        En0 , v112
	.byte	W12
	.byte		        En0 , v092
	.byte	W06
	.byte		N06
	.byte	W06
	.byte		        BnM1, v127
	.byte	W12
	.byte		        BnM1, v108
	.byte	W06
	.byte		N06
	.byte	W06
	.byte		        AnM1, v127
	.byte	W06
	.byte		        AnM1, v108
	.byte	W06
	.byte		        AnM1, v127
	.byte	W06
	.byte		N06
	.byte	W06
	.byte		N06   , An6 , v120
	.byte	W12
	.byte		        An6 , v100
	.byte	W06
	.byte		N06
	.byte	W06
	.byte		N12   , Ds7 , v120
	.byte	W12
	.byte		N06   , En0 , v092
	.byte	W06
	.byte		N06
	.byte	W12
	.byte		        En0 , v112
	.byte	W06
	.byte		        En0 , v092
	.byte	W06
	.byte		        En0 , v112
	.byte	W06
	.byte		N12   , Ds7 , v120
	.byte	W12
	.byte		N06   , En0 , v092
	.byte	W06
	.byte		N06
	.byte	W06
	.byte	PEND
	.byte		N06   , En0 , v112
	.byte	W12
	.byte		        En0 , v092
	.byte	W06
	.byte		N06
	.byte	W06
	.byte		N12   , Ds7 , v120
	.byte	W12
	.byte		N06   , En0 , v092
	.byte	W06
	.byte		N06
	.byte	W12
	.byte		        En0 , v112
	.byte	W06
	.byte		        En0 , v092
	.byte	W06
	.byte		        En0 , v112
	.byte	W06
	.byte		        Ds7 , v120
	.byte	W06
	.byte		        En0 , v112
	.byte	W06
	.byte		        En0 , v092
	.byte	W06
	.byte		        En0 , v112
	.byte	W06
	.byte	PEND
	.byte		N06   , En0 , v112
	.byte	W12
	.byte		        En0 , v092
	.byte	W06
	.byte		N06
	.byte	W06
	.byte		N12   , Ds7 , v120
	.byte	W12
	.byte		N06   , En0 , v092
	.byte	W06
	.byte		N06
	.byte	W12
	.byte		        En0 , v112
	.byte	W06
	.byte		        En0 , v092
	.byte	W06
	.byte		        En0 , v112
	.byte	W06
	.byte		N12   , Ds7 , v120
	.byte	W12
	.byte		N06   , En0 , v092
	.byte	W06
	.byte		N06
	.byte	W06
	.byte	PEND
	.byte		        En0 , v112
	.byte	W12
	.byte		        En0 , v092
	.byte	W06
	.byte		N06
	.byte	W06
	.byte		N12   , Ds7 , v120
	.byte	W12
	.byte		N06   , En0 , v092
	.byte	W06
	.byte		N06
	.byte	W06
	.byte		        Fn0 , v127
	.byte	W06
	.byte		        Fn0 , v108
	.byte	W06
	.byte		        Fn0 , v127
	.byte	W06
	.byte		N06
	.byte	W06
	.byte		        Gs6 , v120
	.byte	W06
	.byte		        Gs6 , v100
	.byte	W06
	.byte		        Gs6 , v120
	.byte	W06
	.byte		N06
	.byte	W06
	.byte	PATT
	 .word	seq_046_6 + 0x74
	.byte	PATT
	 .word	seq_046_6 + 0x9B
	.byte	PATT
	 .word	seq_046_6 + 0xC4
	.byte	PATT
	 .word	seq_046_6 + 0x9B
	.byte		N06   , En0 , v112
	.byte	W12
	.byte		        En0 , v092
	.byte	W06
	.byte		N06
	.byte	W06
	.byte		N12   , Ds7 , v120
	.byte	W12
	.byte		N06   , En0 , v092
	.byte	W06
	.byte		N06
	.byte	W12
	.byte		        En0 , v112
	.byte	W06
	.byte		        En0 , v088
	.byte	W06
	.byte		        En0 , v112
	.byte	W06
	.byte		N12   , Ds7 , v120
	.byte	W12
	.byte		N06   , En0 , v092
	.byte	W06
	.byte		N06
	.byte	W06
	.byte		        En0 , v112
	.byte	W12
	.byte		        En0 , v088
	.byte	W06
	.byte		N06
	.byte	W06
	.byte		N12   , Ds7 , v120
	.byte	W12
	.byte		N06   , En0 , v088
	.byte	W06
	.byte		N06
	.byte	W12
	.byte		        En0 , v112
	.byte	W06
	.byte		        En0 , v092
	.byte	W06
	.byte		        En0 , v112
	.byte	W06
	.byte		        Ds7 , v120
	.byte	W06
	.byte		        En0 , v112
	.byte	W06
	.byte		        En0 , v092
	.byte	W06
	.byte		        En0 , v112
	.byte	W06
	.byte		N06
	.byte	W12
	.byte		        En0 , v092
	.byte	W06
	.byte		N06
	.byte	W06
	.byte		N12   , Ds7 , v120
	.byte	W12
	.byte		N06   , En0 , v092
	.byte	W06
	.byte		N06
	.byte	W12
	.byte		        En0 , v112
	.byte	W06
	.byte		        En0 , v092
	.byte	W06
	.byte		        En0 , v112
	.byte	W06
	.byte		N12   , Ds7 , v120
	.byte	W12
	.byte		N06   , En0 , v088
	.byte	W06
	.byte		N06
	.byte	W06
	.byte	PATT
	 .word	seq_046_6 + 0x9B
	.byte	PATT
	 .word	seq_046_6 + 0xC4
	.byte		N06   , En0 , v112
	.byte	W12
	.byte		        Ds7 , v120
	.byte	W06
	.byte		        En0 , v112
	.byte	W06
	.byte		        Ds7 , v120
	.byte	W12
	.byte		N06
	.byte	W06
	.byte		        En0 , v112
	.byte	W12
	.byte		        Ds7 , v120
	.byte	W06
	.byte		N06
	.byte	W06
	.byte		        En0 , v112
	.byte	W06
	.byte		        Ds7 , v120
	.byte	W06
	.byte		        En0 , v112
	.byte	W06
	.byte		        Ds7 , v120
	.byte	W06
	.byte		N06
	.byte	W06
	.byte	PATT
	 .word	seq_046_6 + 0x9B
	.byte	PATT
	 .word	seq_046_6 + 0xC4
	.byte	PATT
	 .word	seq_046_6 + 0x9B
	.byte		N06   , En0 , v112
	.byte	W12
	.byte		        En0 , v092
	.byte	W06
	.byte		N06
	.byte	W06
	.byte		N12   , Ds7 , v120
	.byte	W12
	.byte		N06   , En0 , v092
	.byte	W06
	.byte		N06
	.byte	W06
	.byte		        Dn0 , v127
	.byte	W06
	.byte		        Dn0 , v100
	.byte	W06
	.byte		        Dn0 , v127
	.byte	W06
	.byte		N06
	.byte	W06
	.byte		        Cs0 
	.byte	W06
	.byte		        Cs0 , v100
	.byte	W06
	.byte		        Cs0 , v127
	.byte	W06
	.byte		N06
	.byte	W06
	.byte	PEND
	.byte	PATT
	 .word	seq_046_6 + 0x9B
	.byte	PATT
	 .word	seq_046_6 + 0xC4
	.byte	PATT
	 .word	seq_046_6 + 0x9B
	.byte	PATT
	 .word	seq_046_6 + 0x1D6
	.byte	PATT
	 .word	seq_046_6 + 0x9B
	.byte	PATT
	 .word	seq_046_6 + 0xC4
	.byte	PATT
	 .word	seq_046_6 + 0x9B
	.byte	PATT
	 .word	seq_046_6 + 0x9B
	.byte	PATT
	 .word	seq_046_6 + 0xC4
	.byte	PATT
	 .word	seq_046_6 + 0x9B
	.byte		N06   , En0 , v112
	.byte	W12
	.byte		        En0 , v092
	.byte	W06
	.byte		N06
	.byte	W06
	.byte		N12   , Ds7 , v120
	.byte	W12
	.byte		N06   , En0 , v092
	.byte	W06
	.byte		N06
	.byte	W12
	.byte		        En0 , v112
	.byte	W06
	.byte		        En0 , v092
	.byte	W06
	.byte		        En0 , v112
	.byte	W06
	.byte		N12   , Ds7 , v120
	.byte	W06
	.byte		N06   , En0 , v112
	.byte	W06
	.byte		        En0 , v092
	.byte	W06
	.byte		        En0 , v112
	.byte	W06
	.byte		N06
	.byte	W12
	.byte		N12   , Ds7 , v120
	.byte	W12
	.byte		N12
	.byte	W12
	.byte		N12
	.byte	W12
	.byte		N06   , Fn7 
	.byte	W12
	.byte		        Fn7 , v100
	.byte	W06
	.byte		N06
	.byte	W06
	.byte		        Dn7 , v120
	.byte	W06
	.byte		        Dn7 , v100
	.byte	W06
	.byte		        Dn7 , v120
	.byte	W06
	.byte		N06
	.byte	W06
	.byte	GOTO
	 .word	seq_046_6 + 0x74
	.byte	FINE

@******************************************************@

	.align	2

seq_046:
	.byte	7	@ NumTrks
	.byte	0	@ NumBlks
	.byte	seq_046_pri	@ Priority
	.byte	seq_046_rev	@ Reverb

	.word	seq_046_grp

	.word	seq_046_0
	.word	seq_046_1
	.word	seq_046_2
	.word	seq_046_3
	.word	seq_046_4
	.word	seq_046_5
	.word	seq_046_6

	.end
