@ File generated by m4a2s Song-Module
	.include "MPlayDef.s"

	.equ	seq_391_grp, bank_044
	.equ	seq_391_pri, 50
	.equ	seq_391_rev, 0
	.equ	seq_391_mvl, 127
	.equ	seq_391_key, 0

	.section .rodata
	.global	seq_391
	.align	2

@*********************** Track 01 ***********************@

seq_391_0:
	.byte	KEYSH , seq_391_key+0
	.byte	TEMPO , 190/2
	.byte		VOICE , 127
	.byte		VOL   , 50*seq_391_mvl/mxv
	.byte		N02   , Cn3 , v060
	.byte	W02
	.byte		        As2 , v072
	.byte	W02
	.byte		        Gs3 , v108
	.byte	W02
	.byte		        Cn4 , v127
	.byte	W02
	.byte		        Bn3 
	.byte	W02
	.byte		        An3 , v112
	.byte	W02
	.byte		        Fs3 , v104
	.byte	W02
	.byte		        Dn3 , v088
	.byte	W02
	.byte		        An2 , v072
	.byte	W02
	.byte		        Ds2 , v052
	.byte	W02
	.byte		VOL   , 25*seq_391_mvl/mxv
	.byte		N02   , Gn3 , v127
	.byte	W02
	.byte		        Fs3 
	.byte	W02
	.byte		        En3 , v112
	.byte	W02
	.byte		        Cs3 , v104
	.byte	W02
	.byte		        An2 , v088
	.byte	W02
	.byte		        En2 , v072
	.byte	W02
	.byte		VOL   , 21*seq_391_mvl/mxv
	.byte		N02   , En3 , v127
	.byte	W02
	.byte		        Ds3 
	.byte	W02
	.byte		        Cs3 , v112
	.byte	W02
	.byte		        As2 , v104
	.byte	W02
	.byte		        Fs2 , v088
	.byte	W02
	.byte		        Cs2 , v072
	.byte	W02
	.byte		VOL   , 17*seq_391_mvl/mxv
	.byte		N02   , Cs3 , v127
	.byte	W02
	.byte		        Cn3 
	.byte	W02
	.byte		        As2 , v112
	.byte	W02
	.byte		        Gn2 , v104
	.byte	W02
	.byte		        Ds2 , v088
	.byte	W02
	.byte		        As1 , v072
	.byte	W18
	.byte	FINE

@******************************************************@

	.align	2

seq_391:
	.byte	1	@ NumTrks
	.byte	0	@ NumBlks
	.byte	seq_391_pri	@ Priority
	.byte	seq_391_rev	@ Reverb

	.word	seq_391_grp

	.word	seq_391_0

	.end
