@ File generated by m4a2s Song-Module
	.include "MPlayDef.s"

	.equ	seq_016_grp, bank_007
	.equ	seq_016_pri, 0
	.equ	seq_016_rev, 0
	.equ	seq_016_mvl, 127
	.equ	seq_016_key, 0

	.section .rodata
	.global	seq_016
	.align	2

@*********************** Track 01 ***********************@

seq_016_0:
	.byte	KEYSH , seq_016_key+0
	.byte	TEMPO , 80/2
	.byte		PAN   , c_v+0
	.byte		VOL   , 63*seq_016_mvl/mxv
	.byte	W01
	.byte		VOICE , 4
	.byte		N96   , Fn3 , v127
	.byte	W92
	.byte	W03
	.byte	W01
	.byte		N96   , Gn3 , v127
	.byte	W92
	.byte	W03
	.byte	PEND
	.byte	W01
	.byte		N96   , Fn3 , v127
	.byte	W92
	.byte	W03
	.byte	PEND
	.byte	PATT
	 .word	seq_016_0 + 0x10
	.byte	PATT
	 .word	seq_016_0 + 0x17
	.byte	PATT
	 .word	seq_016_0 + 0x10
	.byte	PATT
	 .word	seq_016_0 + 0x17
	.byte	PATT
	 .word	seq_016_0 + 0x10
	.byte	PATT
	 .word	seq_016_0 + 0x17
	.byte	W01
	.byte		N76   , Gn3 , v127
	.byte	W76
	.byte	W01
	.byte		N06   , Gn3 , v100
	.byte	W06
	.byte		        An3 
	.byte	W12
	.byte	PEND
	.byte	PATT
	 .word	seq_016_0 + 0x17
	.byte	W01
	.byte		N17   , Gn3 , v127
	.byte	W17
	.byte		N60   , Gn3 , v100
	.byte	W60
	.byte		N06
	.byte	W06
	.byte		        An3 
	.byte	W12
	.byte	W01
	.byte		N78   , Fn3 , v127
	.byte	W78
	.byte		N18
	.byte	W17
	.byte	PATT
	 .word	seq_016_0 + 0x3C
	.byte	W01
	.byte		N78   , Fn3 , v127
	.byte	W78
	.byte		N18   , An3 
	.byte	W17
	.byte	PEND
	.byte	W01
	.byte		N78   , Gn3 , v127
	.byte	W78
	.byte		N06   , Gn3 , v100
	.byte	W06
	.byte		        An3 
	.byte	W11
	.byte	PEND
	.byte	PATT
	 .word	seq_016_0 + 0x67
	.byte	PATT
	 .word	seq_016_0 + 0x70
	.byte	GOTO
	 .word	seq_016_0 + 0x67
	.byte	W96
	.byte	FINE

@*********************** Track 02 ***********************@

seq_016_1:
	.byte	KEYSH , seq_016_key+0
	.byte		VOICE , 5
	.byte		PAN   , c_v+0
	.byte		VOL   , 77*seq_016_mvl/mxv
	.byte		N96   , As2 , v127
	.byte	W96
	.byte		        Cn3 
	.byte	W96
	.byte		        As2 
	.byte	W96
	.byte		        Cn3 
	.byte	W96
	.byte		        As2 
	.byte	W96
	.byte		        Cn3 
	.byte	W96
	.byte		        As2 
	.byte	W96
	.byte		        Cn3 
	.byte	W96
	.byte		        As2 
	.byte	W96
	.byte		        Cn3 
	.byte	W96
	.byte		        As2 
	.byte	W96
	.byte		        Cn3 
	.byte	W96
	.byte		N78   , As2 
	.byte	W78
	.byte		N18
	.byte	W18
	.byte		N78   , Cn3 , v127
	.byte	W78
	.byte		N18   , Bn2 
	.byte	W18
	.byte	PEND
	.byte		N78   , As2 , v127
	.byte	W78
	.byte		N18   , Dn3 
	.byte	W18
	.byte	PEND
	.byte		N78   , Cn3 
	.byte	W78
	.byte		N18   , Dn3 
	.byte	W18
	.byte	PATT
	 .word	seq_016_1 + 0x2F
	.byte	PATT
	 .word	seq_016_1 + 0x27
	.byte	GOTO
	 .word	seq_016_1 + 0x2F
	.byte	W96
	.byte	FINE

@*********************** Track 03 ***********************@

seq_016_2:
	.byte	KEYSH , seq_016_key+0
	.byte		VOICE , 6
	.byte		PAN   , c_v+0
	.byte		VOL   , 70*seq_016_mvl/mxv
	.byte		N96   , Dn2 , v127
	.byte	W96
	.byte		        En2 
	.byte	W96
	.byte		        Dn2 
	.byte	W96
	.byte		        En2 
	.byte	W96
	.byte		        Dn2 
	.byte	W96
	.byte		        En2 
	.byte	W96
	.byte		        Dn2 
	.byte	W96
	.byte		        En2 
	.byte	W96
	.byte		        Dn2 
	.byte	W96
	.byte		        En2 
	.byte	W96
	.byte		        Dn2 
	.byte	W96
	.byte		        En2 
	.byte	W96
	.byte		N78   , Dn2 
	.byte	W78
	.byte		N18
	.byte	W18
	.byte		N78   , En2 , v127
	.byte	W78
	.byte		N18   , Ds2 
	.byte	W18
	.byte	PEND
	.byte		N78   , Dn2 , v127
	.byte	W78
	.byte		N18   , Fn2 
	.byte	W18
	.byte	PEND
	.byte		N78   , En2 
	.byte	W78
	.byte		N18   , Fn2 
	.byte	W18
	.byte	PATT
	 .word	seq_016_2 + 0x2F
	.byte	PATT
	 .word	seq_016_2 + 0x27
	.byte	GOTO
	 .word	seq_016_2 + 0x2F
	.byte	W96
	.byte	FINE

@*********************** Track 04 ***********************@

seq_016_3:
	.byte	KEYSH , seq_016_key+0
	.byte		VOICE , 4
	.byte		PAN   , c_v+0
	.byte		VOL   , 49*seq_016_mvl/mxv
	.byte	W96
	.byte	W96
	.byte	W96
	.byte	W96
	.byte	W96
	.byte	W42
	.byte		N54   , En4 , v096
	.byte	W54
	.byte	W96
	.byte	W96
	.byte	W96
	.byte	W42
	.byte		N24
	.byte	W24
	.byte		        Cn4 , v100
	.byte	W24
	.byte		N84   , As3 
	.byte	W06
	.byte	W78
	.byte		N06   , An3 
	.byte	W06
	.byte		        As3 
	.byte	W06
	.byte		N24   , Cn4 
	.byte	W06
	.byte	W42
	.byte		N12   , En4 , v096
	.byte	W12
	.byte		N36   , Gn4 , v084
	.byte	W36
	.byte		N84   , As3 , v100
	.byte	W06
	.byte	PEND
	.byte	W78
	.byte		N06   , An3 , v100
	.byte	W06
	.byte		        As3 
	.byte	W06
	.byte		N48   , Cn4 
	.byte	W06
	.byte	PEND
	.byte	W42
	.byte		N24   , En4 , v096
	.byte	W24
	.byte		        Cn4 , v100
	.byte	W24
	.byte		N06   , As3 
	.byte	W06
	.byte	PEND
	.byte		N78   , As3 , v100
	.byte	W78
	.byte		N06   , An3 
	.byte	W06
	.byte		        As3 
	.byte	W06
	.byte		N48   , Cn4 
	.byte	W06
	.byte	PATT
	 .word	seq_016_3 + 0x27
	.byte	PATT
	 .word	seq_016_3 + 0x35
	.byte	PATT
	 .word	seq_016_3 + 0x40
	.byte	GOTO
	 .word	seq_016_3 + 0x4C
	.byte	W96
	.byte	FINE

@*********************** Track 05 ***********************@

seq_016_4:
	.byte	KEYSH , seq_016_key+0
	.byte		VOICE , 38
	.byte		PAN   , c_v+0
	.byte		VOL   , 90*seq_016_mvl/mxv
	.byte		N06   , As0 , v127
	.byte	W36
	.byte		N06
	.byte	W06
	.byte		N06
	.byte	W54
	.byte		        Cn1 
	.byte	W36
	.byte		N06
	.byte	W06
	.byte		N06
	.byte	W24
	.byte		N06
	.byte	W12
	.byte		N06
	.byte	W06
	.byte		        Bn0 
	.byte	W12
	.byte		N06   , As0 , v127
	.byte	W12
	.byte		N06
	.byte	W06
	.byte		        As1 
	.byte	W18
	.byte		        As0 
	.byte	W12
	.byte		N06
	.byte	W06
	.byte		        As1 
	.byte	W12
	.byte		        As0 
	.byte	W12
	.byte		N06
	.byte	W06
	.byte		        As1 
	.byte	W12
	.byte	PEND
	.byte		N06   , Cn1 , v127
	.byte	W12
	.byte		N06
	.byte	W06
	.byte		        Cn2 
	.byte	W18
	.byte		        Cn1 
	.byte	W12
	.byte		N06
	.byte	W06
	.byte		        Cn2 
	.byte	W12
	.byte		        Cn1 
	.byte	W12
	.byte		N06
	.byte	W06
	.byte		        Cn2 
	.byte	W12
	.byte	PEND
	.byte	PATT
	 .word	seq_016_4 + 0x1C
	.byte	PATT
	 .word	seq_016_4 + 0x31
	.byte	PATT
	 .word	seq_016_4 + 0x1C
	.byte	PATT
	 .word	seq_016_4 + 0x31
	.byte	PATT
	 .word	seq_016_4 + 0x1C
	.byte		N06   , Cn1 , v127
	.byte	W12
	.byte		N06
	.byte	W06
	.byte		        Cn2 
	.byte	W18
	.byte		        Cn1 
	.byte	W12
	.byte		N06
	.byte	W06
	.byte		        Cn2 
	.byte	W12
	.byte		        Cn1 
	.byte	W12
	.byte		N06
	.byte	W06
	.byte		        Cn2 
	.byte	W06
	.byte		        Bn1 
	.byte	W06
	.byte		N06   , As0 , v127
	.byte	W06
	.byte		        Fn0 
	.byte	W06
	.byte		        As0 
	.byte	W06
	.byte		        As1 
	.byte	W18
	.byte		        As0 
	.byte	W06
	.byte		        Fn0 
	.byte	W06
	.byte		        As0 
	.byte	W06
	.byte		        As1 
	.byte	W12
	.byte		        As0 
	.byte	W06
	.byte		        Fn0 
	.byte	W06
	.byte		        As0 
	.byte	W06
	.byte		        As1 
	.byte	W12
	.byte	PEND
	.byte		N06   , Cn1 , v127
	.byte	W06
	.byte		        Gn0 
	.byte	W06
	.byte		        Cn1 
	.byte	W06
	.byte		        Cn2 
	.byte	W18
	.byte		        Cn1 
	.byte	W06
	.byte		        Gn0 
	.byte	W06
	.byte		        Cn1 
	.byte	W06
	.byte		        Cn2 
	.byte	W12
	.byte		        Cn1 
	.byte	W06
	.byte		        Gn0 
	.byte	W06
	.byte		        Cn1 
	.byte	W06
	.byte		        Cn2 
	.byte	W06
	.byte		        Bn1 
	.byte	W06
	.byte	PEND
	.byte	PATT
	 .word	seq_016_4 + 0x75
	.byte	PATT
	 .word	seq_016_4 + 0x90
	.byte		N06   , As0 , v127
	.byte	W06
	.byte		        Fn0 
	.byte	W06
	.byte		        As1 
	.byte	W06
	.byte		        As0 
	.byte	W09
	.byte		        As1 
	.byte	W06
	.byte		N03   , As0 
	.byte	W03
	.byte		N06   , Fn0 
	.byte	W06
	.byte		N07   , As1 
	.byte	W06
	.byte		N06   , As0 
	.byte	W06
	.byte		        As1 
	.byte	W12
	.byte		        As0 
	.byte	W06
	.byte		        Fn0 
	.byte	W06
	.byte		        As0 
	.byte	W06
	.byte		        As1 
	.byte	W06
	.byte		N03   , Dn1 
	.byte	W03
	.byte		        As0 
	.byte	W03
	.byte	PEND
	.byte		N06   , Cn1 , v127
	.byte	W06
	.byte		        Gn0 
	.byte	W06
	.byte		        Cn2 
	.byte	W06
	.byte		        Cn1 
	.byte	W09
	.byte		        Cn2 
	.byte	W06
	.byte		N03   , Cn1 
	.byte	W03
	.byte		N06   , Gn0 
	.byte	W06
	.byte		N07   , Cn2 
	.byte	W06
	.byte		N06   , Cn1 
	.byte	W06
	.byte		        Cn2 
	.byte	W12
	.byte		        Cn1 
	.byte	W06
	.byte		        Gn0 
	.byte	W06
	.byte		        Cn1 
	.byte	W06
	.byte		        Cn2 
	.byte	W06
	.byte		N03   , Cn1 
	.byte	W03
	.byte		        Bn0 
	.byte	W03
	.byte	PEND
	.byte	PATT
	 .word	seq_016_4 + 0xB7
	.byte	PATT
	 .word	seq_016_4 + 0xDF
	.byte	GOTO
	 .word	seq_016_4 + 0xB7
	.byte	W96
	.byte	FINE

@*********************** Track 06 ***********************@

seq_016_5:
	.byte	KEYSH , seq_016_key+0
	.byte		VOICE , 127
	.byte		VOL   , 90*seq_016_mvl/mxv
	.byte	W96
	.byte	W96
	.byte	W96
	.byte	W78
	.byte		N01   , As3 , v028
	.byte	W06
	.byte		N02   , As3 , v040
	.byte	W06
	.byte		N01   , As3 , v020
	.byte	W06
	.byte		N06   , Cn1 , v116
	.byte		N02   , As3 , v032
	.byte	W06
	.byte		        As3 , v024
	.byte	W06
	.byte		        As3 , v028
	.byte	W06
	.byte		N01   , As3 , v024
	.byte	W06
	.byte		N02   , As3 , v028
	.byte	W06
	.byte		N01   , As3 , v020
	.byte	W06
	.byte		N06   , Cn1 , v116
	.byte		N02   , As3 , v032
	.byte	W06
	.byte		        As3 , v024
	.byte	W06
	.byte		        As3 , v028
	.byte	W06
	.byte		N01   , As3 , v024
	.byte	W06
	.byte		N02   , As3 , v028
	.byte	W06
	.byte		N06   , Cn1 , v116
	.byte		N01   , As3 , v024
	.byte	W06
	.byte		N02   , As3 , v036
	.byte	W06
	.byte		N01   , As3 , v024
	.byte	W06
	.byte		N02   , As3 , v032
	.byte	W06
	.byte		N01   , As3 , v024
	.byte	W06
	.byte		N06   , Cn1 , v116
	.byte		N02   , As3 , v032
	.byte	W06
	.byte		        As3 , v024
	.byte	W06
	.byte		        As3 , v028
	.byte	W06
	.byte		N01   , As3 , v024
	.byte	W06
	.byte		N02   , As3 , v028
	.byte	W06
	.byte		N01   , As3 , v020
	.byte	W06
	.byte		N06   , Cn1 , v116
	.byte		N02   , As3 , v032
	.byte	W06
	.byte		        As3 , v024
	.byte	W06
	.byte		        As3 , v028
	.byte	W06
	.byte		N01   , As3 , v024
	.byte	W06
	.byte		N02   , As3 , v028
	.byte	W06
	.byte		N06   , Cn1 , v116
	.byte		N01   , As3 , v024
	.byte	W06
	.byte		N02   , As3 , v036
	.byte	W06
	.byte		N01   , As3 , v024
	.byte	W06
	.byte		N06   , En1 , v116
	.byte		N02   , As3 , v032
	.byte	W06
	.byte		N01   , As3 , v024
	.byte	W06
	.byte		N06   , Cn1 , v116
	.byte		N02   , As3 , v032
	.byte	W06
	.byte		        As3 , v024
	.byte	W06
	.byte		        As3 , v028
	.byte	W06
	.byte		N01   , As3 , v024
	.byte	W05
	.byte		N06   , En1 , v116
	.byte	W01
	.byte		N02   , As3 , v028
	.byte	W06
	.byte		N01   , As3 , v020
	.byte	W06
	.byte		N02   , As3 , v032
	.byte	W06
	.byte		N06   , Cn1 , v116
	.byte		N02   , As3 , v024
	.byte	W06
	.byte		        As3 , v028
	.byte	W06
	.byte		N06   , Cn1 , v116
	.byte		N01   , As3 , v024
	.byte	W06
	.byte		N02   , As3 , v028
	.byte	W05
	.byte		N06   , En1 , v116
	.byte	W01
	.byte		N01   , As3 , v024
	.byte	W06
	.byte		N02   , As3 , v036
	.byte	W06
	.byte		N06   , Cn1 , v116
	.byte		N01   , As3 , v024
	.byte	W06
	.byte		N02   , As3 , v032
	.byte	W06
	.byte		N01   , As3 , v024
	.byte	W06
	.byte		N06   , Cn1 , v116
	.byte		N02   , As3 , v032
	.byte	W06
	.byte		        As3 , v024
	.byte	W06
	.byte		        As3 , v028
	.byte	W06
	.byte		N01   , As3 , v024
	.byte	W06
	.byte		N06   , En1 , v116
	.byte		N02   , As3 , v028
	.byte	W06
	.byte		N01   , As3 , v020
	.byte	W06
	.byte		N02   , As3 , v032
	.byte	W06
	.byte		N06   , Cn1 , v116
	.byte		N02   , As3 , v024
	.byte	W06
	.byte		        As3 , v028
	.byte	W06
	.byte		N06   , Cn1 , v116
	.byte		N01   , As3 , v024
	.byte	W06
	.byte		N02   , As3 , v028
	.byte	W06
	.byte		N06   , En1 , v116
	.byte		N01   , As3 , v024
	.byte	W06
	.byte		N02   , As3 , v036
	.byte	W06
	.byte		N06   , Cn1 , v116
	.byte		N01   , As3 , v024
	.byte	W06
	.byte		N06   , Cn1 , v116
	.byte		N02   , As3 , v032
	.byte	W06
	.byte		N06   , En1 , v116
	.byte		N01   , As3 , v024
	.byte	W06
	.byte		N06   , Cn1 , v116
	.byte		N02   , As3 , v032
	.byte	W06
	.byte		        As3 , v024
	.byte	W06
	.byte		N06   , Cn1 , v116
	.byte		N02   , As3 , v028
	.byte	W06
	.byte		N01   , As3 , v024
	.byte	W06
	.byte		N06   , En1 , v116
	.byte		N02   , As3 , v028
	.byte	W06
	.byte		N01   , As3 , v020
	.byte	W06
	.byte		N06   , Cn1 , v116
	.byte		N02   , As3 , v032
	.byte	W06
	.byte		N06   , Cn1 , v116
	.byte		N02   , As3 , v024
	.byte	W06
	.byte		        As3 , v028
	.byte	W06
	.byte		N06   , En1 , v116
	.byte		N01   , As3 , v024
	.byte	W06
	.byte		N02   , As3 , v028
	.byte	W06
	.byte		N06   , Cn1 , v116
	.byte		N01   , As3 , v024
	.byte	W06
	.byte		N02   , As3 , v036
	.byte	W06
	.byte		N06   , Cn1 , v116
	.byte		N01   , As3 , v024
	.byte	W06
	.byte		N06   , En1 , v116
	.byte		N02   , As3 , v032
	.byte	W06
	.byte		N06   , Cn1 , v116
	.byte		N01   , As3 , v024
	.byte	W06
	.byte		N06   , Cn1 , v116
	.byte		N02   , As3 , v032
	.byte	W06
	.byte		        As3 , v024
	.byte	W06
	.byte		N06   , Cn1 , v116
	.byte		N02   , As3 , v028
	.byte	W06
	.byte		N01   , As3 , v024
	.byte	W06
	.byte		N06   , En1 , v116
	.byte		N02   , As3 , v028
	.byte	W06
	.byte		N01   , As3 , v020
	.byte	W06
	.byte		N06   , Cn1 , v116
	.byte		N02   , As3 , v032
	.byte	W06
	.byte		N06   , Cn1 , v116
	.byte		N02   , As3 , v024
	.byte	W06
	.byte		        As3 , v028
	.byte	W06
	.byte		N06   , En1 , v116
	.byte		N01   , As3 , v024
	.byte	W06
	.byte		N02   , As3 , v028
	.byte	W06
	.byte		N06   , Cn1 , v116
	.byte		N01   , As3 , v024
	.byte	W06
	.byte		N06   , Cn1 , v116
	.byte		N02   , As3 , v036
	.byte	W06
	.byte		N06   , En1 , v116
	.byte		N01   , As3 , v024
	.byte	W06
	.byte		        As3 , v036
	.byte	W03
	.byte		        As3 , v024
	.byte	W03
	.byte		N06   , En1 , v116
	.byte		N01   , As3 , v032
	.byte	W03
	.byte		        As3 , v024
	.byte	W03
	.byte		N06   , Cn1 , v116
	.byte		N01   , As3 , v032
	.byte	W03
	.byte		        As3 , v024
	.byte	W03
	.byte		        As3 , v028
	.byte	W03
	.byte		        As3 , v024
	.byte	W03
	.byte		N06   , En1 , v116
	.byte		N01   , As3 , v028
	.byte	W03
	.byte		        As3 , v020
	.byte	W03
	.byte		N06   , Cn1 , v116
	.byte		N01   , As3 , v032
	.byte	W03
	.byte		        As3 , v024
	.byte	W03
	.byte		        As3 , v028
	.byte	W03
	.byte		N06   , Cn1 , v116
	.byte		N01   , As3 , v024
	.byte	W03
	.byte		        As3 , v028
	.byte	W03
	.byte		        As3 , v024
	.byte	W03
	.byte		        As3 , v036
	.byte	W03
	.byte		        As3 , v024
	.byte	W03
	.byte		N06   , Cn1 , v116
	.byte		N01   , As3 , v032
	.byte	W03
	.byte		        As3 , v024
	.byte	W03
	.byte		        As3 , v032
	.byte	W03
	.byte		N06   , Cn1 , v116
	.byte		N01   , As3 , v024
	.byte	W03
	.byte		        As3 , v028
	.byte	W03
	.byte		        As3 , v024
	.byte	W03
	.byte		N06   , En1 , v116
	.byte		N01   , As3 , v028
	.byte	W03
	.byte		        As3 , v020
	.byte	W03
	.byte		N06   , Cn1 , v116
	.byte		N01   , As3 , v032
	.byte	W03
	.byte		        As3 , v024
	.byte	W03
	.byte		        As3 , v028
	.byte	W03
	.byte		N06   , Cn1 , v116
	.byte		N01   , As3 , v024
	.byte	W03
	.byte		        As3 , v028
	.byte	W03
	.byte		N03   , En1 , v116
	.byte		N01   , As3 , v024
	.byte	W03
	.byte		N06   , En1 , v116
	.byte		N01   , As3 , v036
	.byte	W03
	.byte		        As3 , v024
	.byte	W03
	.byte		        As3 , v032
	.byte	W03
	.byte		        As3 , v024
	.byte	W03
	.byte		N06   , Cn1 , v116
	.byte		N01   , As3 , v032
	.byte	W03
	.byte		        As3 , v024
	.byte	W03
	.byte		        As3 , v028
	.byte	W03
	.byte		        As3 , v024
	.byte	W03
	.byte		N06   , En1 , v116
	.byte		N01   , As3 , v028
	.byte	W03
	.byte		        As3 , v020
	.byte	W03
	.byte		N06   , Cn1 , v116
	.byte		N01   , As3 , v032
	.byte	W03
	.byte		        As3 , v024
	.byte	W03
	.byte		        As3 , v028
	.byte	W03
	.byte		N06   , Cn1 , v116
	.byte		N01   , As3 , v024
	.byte	W03
	.byte		        As3 , v028
	.byte	W03
	.byte		        As3 , v024
	.byte	W03
	.byte		        As3 , v036
	.byte	W03
	.byte		        As3 , v024
	.byte	W03
	.byte		N06   , Cn1 , v116
	.byte		N01   , As3 , v032
	.byte	W03
	.byte		        As3 , v024
	.byte	W03
	.byte		        As3 , v032
	.byte	W03
	.byte		N06   , Cn1 , v116
	.byte		N01   , As3 , v024
	.byte	W03
	.byte		        As3 , v028
	.byte	W03
	.byte		        As3 , v024
	.byte	W03
	.byte		N06   , En1 , v116
	.byte		N01   , As3 , v028
	.byte	W03
	.byte		        As3 , v020
	.byte	W03
	.byte		N06   , Cn1 , v116
	.byte		N01   , As3 , v032
	.byte	W03
	.byte		        As3 , v024
	.byte	W03
	.byte		        As3 , v028
	.byte	W03
	.byte		N06   , Cn1 , v116
	.byte		N01   , As3 , v024
	.byte	W03
	.byte		        As3 , v028
	.byte	W03
	.byte		N06   , En1 , v116
	.byte		N01   , As3 , v024
	.byte	W03
	.byte		        As3 , v036
	.byte	W03
	.byte		N03   , Cn1 , v116
	.byte		N01   , As3 , v024
	.byte	W03
	.byte		N03   , En1 , v116
	.byte		N01   , As3 , v032
	.byte	W03
	.byte		N03   , En1 , v116
	.byte		N01   , As3 , v024
	.byte	W03
	.byte		N03   , Cn1 , v116
	.byte		N01   , As3 , v032
	.byte	W03
	.byte		N03   , Cn1 , v116
	.byte		N01   , As3 , v024
	.byte	W03
	.byte		        As3 , v028
	.byte	W03
	.byte		        As3 , v024
	.byte	W03
	.byte		N06   , En1 , v116
	.byte		N01   , As3 , v028
	.byte	W03
	.byte		        As3 , v020
	.byte	W03
	.byte		N03   , Cn1 , v116
	.byte		N01   , As3 , v032
	.byte	W03
	.byte		N03   , Cn1 , v116
	.byte		N01   , As3 , v024
	.byte	W03
	.byte		        As3 , v028
	.byte	W03
	.byte		        As3 , v024
	.byte	W03
	.byte		N06   , En1 , v116
	.byte		N01   , As3 , v028
	.byte	W03
	.byte		        As3 , v024
	.byte	W03
	.byte		N03   , Cn1 , v116
	.byte		N01   , As3 , v036
	.byte	W03
	.byte		N03   , Cn1 , v116
	.byte		N01   , As3 , v024
	.byte	W03
	.byte		        As3 , v032
	.byte	W03
	.byte		N03   , Cn1 , v116
	.byte		N01   , As3 , v024
	.byte	W03
	.byte		        As3 , v032
	.byte	W03
	.byte		N03   , Cn1 , v116
	.byte		N01   , As3 , v024
	.byte	W03
	.byte		N06   , En1 , v116
	.byte		N01   , As3 , v028
	.byte	W03
	.byte		        As3 , v024
	.byte	W03
	.byte		        As3 , v028
	.byte	W03
	.byte		        As3 , v020
	.byte	W03
	.byte		N03   , Cn1 , v116
	.byte		N01   , As3 , v032
	.byte	W03
	.byte		        As3 , v024
	.byte	W03
	.byte		N03   , Cn1 , v116
	.byte		N01   , As3 , v028
	.byte	W03
	.byte		N03   , Cn1 , v116
	.byte		N01   , As3 , v024
	.byte	W03
	.byte		        As3 , v028
	.byte	W03
	.byte		N03   , En1 , v116
	.byte		N01   , As3 , v024
	.byte	W03
	.byte		N06   , En1 , v116
	.byte		N01   , As3 , v036
	.byte	W03
	.byte		        As3 , v024
	.byte	W03
	.byte		N03   , Cn1 , v116
	.byte		N01   , As3 , v032
	.byte	W03
	.byte		        As3 , v024
	.byte	W03
	.byte		N03   , Cn1 , v116
	.byte		N01   , As3 , v032
	.byte	W03
	.byte		N03   , Cn1 , v116
	.byte		N01   , As3 , v024
	.byte	W03
	.byte		        As3 , v028
	.byte	W03
	.byte		        As3 , v024
	.byte	W03
	.byte		N06   , En1 , v116
	.byte		N01   , As3 , v028
	.byte	W03
	.byte		        As3 , v020
	.byte	W03
	.byte		N03   , Cn1 , v116
	.byte		N01   , As3 , v032
	.byte	W03
	.byte		N03   , Cn1 , v116
	.byte		N01   , As3 , v024
	.byte	W03
	.byte		        As3 , v028
	.byte	W03
	.byte		        As3 , v024
	.byte	W03
	.byte		N06   , En1 , v116
	.byte		N01   , As3 , v028
	.byte	W03
	.byte		        As3 , v024
	.byte	W03
	.byte		N03   , Cn1 , v116
	.byte		N01   , As3 , v036
	.byte	W03
	.byte		N03   , Cn1 , v116
	.byte		N01   , As3 , v024
	.byte	W03
	.byte		        As3 , v032
	.byte	W03
	.byte		N03   , Cn1 , v116
	.byte		N01   , As3 , v024
	.byte	W03
	.byte		        As3 , v032
	.byte	W03
	.byte		N03   , Cn1 , v116
	.byte		N01   , As3 , v024
	.byte	W03
	.byte		N06   , En1 , v116
	.byte		N01   , As3 , v028
	.byte	W03
	.byte		        As3 , v024
	.byte	W03
	.byte		        As3 , v028
	.byte	W03
	.byte		        As3 , v020
	.byte	W03
	.byte		N03   , Cn1 , v116
	.byte		N01   , As3 , v032
	.byte	W03
	.byte		        As3 , v024
	.byte	W03
	.byte		N03   , En1 , v116
	.byte		N01   , As3 , v028
	.byte	W03
	.byte		N06   , Cn1 , v116
	.byte		N01   , As3 , v024
	.byte	W03
	.byte		        As3 , v028
	.byte	W03
	.byte		N03   , Cn1 , v116
	.byte		N01   , As3 , v024
	.byte	W03
	.byte		N03   , En1 , v116
	.byte		N01   , As3 , v036
	.byte	W03
	.byte		N03   , Cn1 , v116
	.byte		N01   , As3 , v024
	.byte	W03
	.byte		N02   , En1 , v076
	.byte		N01   , As3 , v032
	.byte	W02
	.byte		N02   , En1 , v116
	.byte	W01
	.byte		N01   , As3 , v024
	.byte	W01
	.byte		N02   , En1 , v096
	.byte	W02
	.byte		N03   , Cn1 , v116
	.byte		N01   , As3 , v032
	.byte	W03
	.byte		N06   , Cn1 , v116
	.byte		N01   , As3 , v024
	.byte	W03
	.byte		        As3 , v028
	.byte	W03
	.byte		        As3 , v024
	.byte	W03
	.byte		N06   , En1 , v116
	.byte		N01   , As3 , v028
	.byte	W03
	.byte		        As3 , v020
	.byte	W03
	.byte		N03   , Cn1 , v116
	.byte		N01   , As3 , v032
	.byte	W03
	.byte		N06   , Cn1 , v116
	.byte		N01   , As3 , v024
	.byte	W03
	.byte		        As3 , v028
	.byte	W03
	.byte		        As3 , v024
	.byte	W03
	.byte		N06   , En1 , v116
	.byte		N01   , As3 , v028
	.byte	W03
	.byte		        As3 , v024
	.byte	W03
	.byte		N03   , Cn1 , v116
	.byte		N01   , As3 , v036
	.byte	W03
	.byte		N03   , Cn1 , v116
	.byte		N01   , As3 , v024
	.byte	W03
	.byte		N06   , En1 , v116
	.byte		N01   , As3 , v032
	.byte	W03
	.byte		        As3 , v024
	.byte	W03
	.byte		        As3 , v032
	.byte	W03
	.byte		N05   , Cn1 , v116
	.byte		N01   , As3 , v024
	.byte	W03
	.byte		        As3 , v028
	.byte	W03
	.byte		        As3 , v024
	.byte	W03
	.byte		N06   , En1 , v116
	.byte		N01   , As3 , v028
	.byte	W03
	.byte		        As3 , v020
	.byte	W03
	.byte		N03   , Cn1 , v116
	.byte		N01   , As3 , v032
	.byte	W03
	.byte		        As3 , v024
	.byte	W03
	.byte		N03   , Cn1 , v116
	.byte		N01   , As3 , v028
	.byte	W03
	.byte		N03   , Cn1 , v116
	.byte		N01   , As3 , v024
	.byte	W03
	.byte		        As3 , v028
	.byte	W03
	.byte		N03   , En1 , v116
	.byte		N01   , As3 , v024
	.byte	W03
	.byte		N06   , En1 , v116
	.byte		N01   , As3 , v036
	.byte	W03
	.byte		        As3 , v024
	.byte	W03
	.byte		N06   , Cn1 , v116
	.byte		N01   , As3 , v032
	.byte	W03
	.byte		        As3 , v024
	.byte	W03
	.byte	PEND
	.byte		N03   , Cn1 , v116
	.byte		N01   , As3 , v032
	.byte	W03
	.byte		N06   , Cn1 , v116
	.byte		N01   , As3 , v024
	.byte	W03
	.byte		        As3 , v028
	.byte	W03
	.byte		        As3 , v024
	.byte	W03
	.byte		N06   , En1 , v116
	.byte		N01   , As3 , v028
	.byte	W03
	.byte		        As3 , v020
	.byte	W03
	.byte		N03   , Cn1 , v116
	.byte		N01   , As3 , v032
	.byte	W03
	.byte		N06   , Cn1 , v116
	.byte		N01   , As3 , v024
	.byte	W03
	.byte		        As3 , v028
	.byte	W03
	.byte		        As3 , v024
	.byte	W03
	.byte		N06   , En1 , v116
	.byte		N01   , As3 , v028
	.byte	W03
	.byte		        As3 , v024
	.byte	W03
	.byte		N03   , Cn1 , v116
	.byte		N01   , As3 , v036
	.byte	W03
	.byte		N03   , Cn1 , v116
	.byte		N01   , As3 , v024
	.byte	W03
	.byte		N06   , En1 , v116
	.byte		N01   , As3 , v032
	.byte	W03
	.byte		        As3 , v024
	.byte	W03
	.byte		        As3 , v032
	.byte	W03
	.byte		N06   , Cn1 , v116
	.byte		N01   , As3 , v024
	.byte	W03
	.byte		        As3 , v028
	.byte	W03
	.byte		        As3 , v024
	.byte	W03
	.byte		N06   , En1 , v116
	.byte		N01   , As3 , v028
	.byte	W03
	.byte		        As3 , v020
	.byte	W03
	.byte		N06   , Cn1 , v116
	.byte		N01   , As3 , v032
	.byte	W03
	.byte		        As3 , v024
	.byte	W03
	.byte		N03   , Cn1 , v116
	.byte		N01   , As3 , v028
	.byte	W03
	.byte		N03   , Cn1 , v116
	.byte		N01   , As3 , v024
	.byte	W03
	.byte		N06   , En1 , v116
	.byte		N01   , As3 , v028
	.byte	W03
	.byte		        As3 , v024
	.byte	W03
	.byte		        As3 , v036
	.byte	W03
	.byte		N03   , Cn1 , v116
	.byte		N01   , As3 , v024
	.byte	W03
	.byte		N03   , En1 , v116
	.byte		N01   , As3 , v032
	.byte	W03
	.byte		N03   , En1 , v116
	.byte		N01   , As3 , v024
	.byte	W03
	.byte	PATT
	 .word	seq_016_5 + 0x47B
	.byte		N03   , Cn1 , v116
	.byte		N01   , As3 , v032
	.byte	W03
	.byte		N06   , Cn1 , v116
	.byte		N01   , As3 , v024
	.byte	W03
	.byte		        As3 , v028
	.byte	W03
	.byte		        As3 , v024
	.byte	W03
	.byte		N06   , En1 , v116
	.byte		N01   , As3 , v028
	.byte	W03
	.byte		        As3 , v020
	.byte	W03
	.byte		N03   , Cn1 , v116
	.byte		N01   , As3 , v032
	.byte	W03
	.byte		N06   , Cn1 , v116
	.byte		N01   , As3 , v024
	.byte	W03
	.byte		        As3 , v028
	.byte	W03
	.byte		        As3 , v024
	.byte	W03
	.byte		N06   , En1 , v116
	.byte		N01   , As3 , v028
	.byte	W03
	.byte		        As3 , v024
	.byte	W03
	.byte		N03   , Cn1 , v116
	.byte		N01   , As3 , v036
	.byte	W03
	.byte		N03   , Cn1 , v116
	.byte		N01   , As3 , v024
	.byte	W03
	.byte		N06   , En1 , v116
	.byte		N01   , As3 , v032
	.byte	W03
	.byte		        As3 , v024
	.byte	W03
	.byte		        As3 , v032
	.byte	W03
	.byte		N06   , Cn1 , v116
	.byte		N01   , As3 , v024
	.byte	W03
	.byte		        As3 , v028
	.byte	W03
	.byte		        As3 , v024
	.byte	W03
	.byte		N06   , En1 , v116
	.byte		N01   , As3 , v028
	.byte	W03
	.byte		        As3 , v020
	.byte	W03
	.byte		N06   , Cn1 , v116
	.byte		N01   , As3 , v032
	.byte	W03
	.byte		        As3 , v024
	.byte	W03
	.byte		N03   , Cn1 , v116
	.byte		N01   , As3 , v028
	.byte	W03
	.byte		N06   , En1 , v116
	.byte		N01   , As3 , v024
	.byte	W03
	.byte		        As3 , v028
	.byte	W03
	.byte		N03   , Cn1 , v116
	.byte		N01   , As3 , v024
	.byte	W03
	.byte		N03   , En1 , v116
	.byte		N01   , As3 , v036
	.byte	W03
	.byte		N03   , Cn1 , v116
	.byte		N01   , As3 , v024
	.byte	W03
	.byte		N02   , En1 , v076
	.byte		N01   , As3 , v032
	.byte	W02
	.byte		N02   , En1 , v116
	.byte	W01
	.byte		N01   , As3 , v024
	.byte	W01
	.byte		N02   , En1 , v096
	.byte	W02
	.byte	GOTO
	 .word	seq_016_5 + 0x47B
	.byte	W96
	.byte	FINE

@******************************************************@

	.align	2

seq_016:
	.byte	6	@ NumTrks
	.byte	0	@ NumBlks
	.byte	seq_016_pri	@ Priority
	.byte	seq_016_rev	@ Reverb

	.word	seq_016_grp

	.word	seq_016_0
	.word	seq_016_1
	.word	seq_016_2
	.word	seq_016_3
	.word	seq_016_4
	.word	seq_016_5

	.end
