@ File generated by m4a2s Song-Module
	.include "MPlayDef.s"

	.equ	seq_029_grp, bank_024
	.equ	seq_029_pri, 0
	.equ	seq_029_rev, 148
	.equ	seq_029_mvl, 127
	.equ	seq_029_key, 0

	.section .rodata
	.global	seq_029
	.align	2

@*********************** Track 01 ***********************@

seq_029_0:
	.byte	KEYSH , seq_029_key+0
	.byte	TEMPO , 136/2
	.byte		VOICE , 111
	.byte		VOL   , 78*seq_029_mvl/mxv
	.byte		PAN   , c_v+0
	.byte		BEND  , c_v+0
	.byte		N04   , Gn3 , v100
	.byte	W04
	.byte		        Gs3 
	.byte	W04
	.byte		        Bn3 
	.byte	W04
	.byte		        Cn4 
	.byte	W04
	.byte		        Bn3 
	.byte	W04
	.byte		        Gs3 
	.byte	W04
	.byte		N72   , Gn3 
	.byte	W48
	.byte	W03
	.byte		VOL   , 77*seq_029_mvl/mxv
	.byte	W03
	.byte		        73*seq_029_mvl/mxv
	.byte	W04
	.byte		        66*seq_029_mvl/mxv
	.byte	W03
	.byte		        57*seq_029_mvl/mxv
	.byte	W04
	.byte		        45*seq_029_mvl/mxv
	.byte	W03
	.byte		        30*seq_029_mvl/mxv
	.byte	W04
	.byte		        15*seq_029_mvl/mxv
	.byte	W24
	.byte		        78*seq_029_mvl/mxv
	.byte	W96
	.byte	W96
	.byte	W96
	.byte		VOICE , 111
	.byte		VOL   , 78*seq_029_mvl/mxv
	.byte	W10
	.byte		N02   , Fs3 , v092
	.byte	W02
	.byte		N06   , Gn3 
	.byte	W06
	.byte		        Fn3 
	.byte	W06
	.byte		N12   , Gn3 
	.byte	W12
	.byte		        Bn3 
	.byte	W12
	.byte		        Cn4 
	.byte	W12
	.byte		        Bn3 
	.byte	W12
	.byte		        Gs3 
	.byte	W12
	.byte		N06   , Bn3 
	.byte	W06
	.byte		        Gs3 
	.byte	W06
	.byte		N02   , Gn3 
	.byte	W02
	.byte		        Gs3 
	.byte	W02
	.byte		N13   , Gn3 
	.byte	W14
	.byte		N40   , Gn3 , v084
	.byte	W42
	.byte		N06   , Gn3 , v092
	.byte	W06
	.byte		N05   , Fn3 
	.byte	W06
	.byte		N06
	.byte	W06
	.byte		        Gn3 
	.byte	W06
	.byte		N12   , Gs3 
	.byte	W12
	.byte		N72   , Gn3 , v092
	.byte	W48
	.byte	W03
	.byte		VOL   , 77*seq_029_mvl/mxv
	.byte	W03
	.byte		        73*seq_029_mvl/mxv
	.byte	W04
	.byte		        66*seq_029_mvl/mxv
	.byte	W03
	.byte		        57*seq_029_mvl/mxv
	.byte	W04
	.byte		        45*seq_029_mvl/mxv
	.byte	W03
	.byte		        30*seq_029_mvl/mxv
	.byte	W04
	.byte		        15*seq_029_mvl/mxv
	.byte	W24
	.byte	PEND
	.byte	W96
	.byte		        78*seq_029_mvl/mxv
	.byte	W11
	.byte		N02   , En3 
	.byte	W02
	.byte		N05   , Fn3 
	.byte	W05
	.byte		N06   , En3 
	.byte	W06
	.byte		N12   , Fn3 
	.byte	W12
	.byte		        Gn3 
	.byte	W12
	.byte		N11   , Gs3 
	.byte	W12
	.byte		N06
	.byte	W06
	.byte		        Gn3 
	.byte	W06
	.byte		N12   , Fn3 
	.byte	W12
	.byte		N11   , Gn3 
	.byte	W11
	.byte		N02   , An3 
	.byte	W01
	.byte	W01
	.byte		N05   , Gs3 
	.byte	W05
	.byte		N06   , Cn4 
	.byte	W06
	.byte		N48   , Gs3 
	.byte	W32
	.byte	W01
	.byte		VOL   , 76*seq_029_mvl/mxv
	.byte	W03
	.byte		        68*seq_029_mvl/mxv
	.byte	W04
	.byte		        57*seq_029_mvl/mxv
	.byte	W03
	.byte		        40*seq_029_mvl/mxv
	.byte	W04
	.byte		        19*seq_029_mvl/mxv
	.byte	W01
	.byte		        78*seq_029_mvl/mxv
	.byte		N02   , Gn3 
	.byte	W02
	.byte		N04   , Gs3 
	.byte	W04
	.byte		N06   , Gn3 
	.byte	W06
	.byte		        Gs3 
	.byte	W06
	.byte		        Bn3 
	.byte	W06
	.byte		        Cn4 
	.byte	W06
	.byte		        Gs3 
	.byte	W06
	.byte	PATT
	 .word	seq_029_0 + 0x69
	.byte	W96
	.byte		VOL   , 78*seq_029_mvl/mxv
	.byte	W12
	.byte		VOICE , 79
	.byte		N06   , Fn4 , v064
	.byte	W06
	.byte		        Gn4 
	.byte	W06
	.byte		        Gs4 
	.byte	W12
	.byte		        Bn4 
	.byte	W12
	.byte		        Cn5 
	.byte	W06
	.byte		        Dn5 
	.byte	W06
	.byte		N36   , Ds5 
	.byte	W24
	.byte	W03
	.byte		VOL   , 74*seq_029_mvl/mxv
	.byte	W03
	.byte		        62*seq_029_mvl/mxv
	.byte	W04
	.byte		        42*seq_029_mvl/mxv
	.byte	W02
	.byte		        78*seq_029_mvl/mxv
	.byte	W12
	.byte		N06
	.byte	W06
	.byte		        Fs5 
	.byte	W06
	.byte		        Gn5 
	.byte	W06
	.byte		        Fs5 
	.byte	W06
	.byte		N12   , Ds5 
	.byte	W24
	.byte		N06   , Dn5 
	.byte	W06
	.byte		        En5 
	.byte	W06
	.byte		        Fn5 
	.byte	W06
	.byte		        En5 
	.byte	W06
	.byte		N12   , Dn5 
	.byte	W12
	.byte		N36   , Cn5 
	.byte	W15
	.byte		VOL   , 76*seq_029_mvl/mxv
	.byte	W03
	.byte		        71*seq_029_mvl/mxv
	.byte	W04
	.byte		        63*seq_029_mvl/mxv
	.byte	W03
	.byte		        51*seq_029_mvl/mxv
	.byte	W04
	.byte		        37*seq_029_mvl/mxv
	.byte	W03
	.byte		        18*seq_029_mvl/mxv
	.byte	W04
	.byte		        0*seq_029_mvl/mxv
	.byte	W60
	.byte	W96
	.byte		VOICE , 73
	.byte		VOL   , 86*seq_029_mvl/mxv
	.byte		N56   , Gn4 , v060
	.byte	W60
	.byte		N06
	.byte	W06
	.byte		        Gs4 
	.byte	W06
	.byte		N04   , Bn4 
	.byte	W04
	.byte		        Cn5 
	.byte	W04
	.byte		        Bn4 
	.byte	W04
	.byte		        Gs4 
	.byte	W04
	.byte		        Bn4 
	.byte	W04
	.byte		        Gs4 
	.byte	W04
	.byte		N96   , Gn4 
	.byte	W72
	.byte	W03
	.byte		VOL   , 85*seq_029_mvl/mxv
	.byte	W03
	.byte		        81*seq_029_mvl/mxv
	.byte	W04
	.byte		        74*seq_029_mvl/mxv
	.byte	W03
	.byte		        65*seq_029_mvl/mxv
	.byte	W04
	.byte		        53*seq_029_mvl/mxv
	.byte	W03
	.byte		        38*seq_029_mvl/mxv
	.byte	W04
	.byte		        86*seq_029_mvl/mxv
	.byte		N56   , Fn4 
	.byte	W60
	.byte		N06
	.byte	W06
	.byte		        Gn4 
	.byte	W06
	.byte		N12   , Gs4 
	.byte	W12
	.byte		        Bn4 
	.byte	W12
	.byte		N32   , Cn5 
	.byte	W36
	.byte		N06
	.byte	W06
	.byte		        Dn5 
	.byte	W06
	.byte		N32   , Ds5 
	.byte	W36
	.byte		N04
	.byte	W04
	.byte		        Gn5 
	.byte	W04
	.byte		        Ds5 
	.byte	W04
	.byte		N80   , Cs5 
	.byte	W60
	.byte	W03
	.byte		VOL   , 85*seq_029_mvl/mxv
	.byte	W03
	.byte		        81*seq_029_mvl/mxv
	.byte	W04
	.byte		        74*seq_029_mvl/mxv
	.byte	W03
	.byte		        65*seq_029_mvl/mxv
	.byte	W04
	.byte		        53*seq_029_mvl/mxv
	.byte	W03
	.byte		        38*seq_029_mvl/mxv
	.byte	W04
	.byte		        86*seq_029_mvl/mxv
	.byte		N06   , As4 
	.byte	W06
	.byte		        Cs5 
	.byte	W06
	.byte		N72   , Cn5 
	.byte	W48
	.byte	W03
	.byte		VOL   , 85*seq_029_mvl/mxv
	.byte	W03
	.byte		        81*seq_029_mvl/mxv
	.byte	W04
	.byte		        74*seq_029_mvl/mxv
	.byte	W03
	.byte		        65*seq_029_mvl/mxv
	.byte	W04
	.byte		        53*seq_029_mvl/mxv
	.byte	W03
	.byte		        38*seq_029_mvl/mxv
	.byte	W04
	.byte		        86*seq_029_mvl/mxv
	.byte	W24
	.byte		N56   , Gn4 
	.byte	W60
	.byte		N06
	.byte	W06
	.byte		        Gs4 
	.byte	W06
	.byte		N04   , Bn4 
	.byte	W04
	.byte		        Cn5 
	.byte	W04
	.byte		        Bn4 
	.byte	W04
	.byte		        Gs4 
	.byte	W04
	.byte		        Bn4 
	.byte	W04
	.byte		        Gs4 
	.byte	W04
	.byte		N84   , Gn4 
	.byte	W60
	.byte	W03
	.byte		VOL   , 85*seq_029_mvl/mxv
	.byte	W03
	.byte		        81*seq_029_mvl/mxv
	.byte	W04
	.byte		        74*seq_029_mvl/mxv
	.byte	W03
	.byte		        65*seq_029_mvl/mxv
	.byte	W04
	.byte		        53*seq_029_mvl/mxv
	.byte	W03
	.byte		        38*seq_029_mvl/mxv
	.byte	W04
	.byte		        86*seq_029_mvl/mxv
	.byte		N04
	.byte	W04
	.byte		        Gs4 
	.byte	W04
	.byte		        Gn4 
	.byte	W04
	.byte		N56   , Fn4 
	.byte	W60
	.byte		N06
	.byte	W06
	.byte		        Gn4 
	.byte	W06
	.byte		        Gs4 
	.byte	W06
	.byte		        Gn4 
	.byte	W06
	.byte		        Gs4 
	.byte	W06
	.byte		        Bn4 
	.byte	W06
	.byte		N32   , Cn5 
	.byte	W36
	.byte		N06
	.byte	W06
	.byte		        Dn5 
	.byte	W06
	.byte		N32   , Ds5 
	.byte	W32
	.byte	W03
	.byte		N04
	.byte	W04
	.byte		        Gn5 
	.byte	W04
	.byte		        Ds5 
	.byte	W05
	.byte		N80   , Cs5 
	.byte	W60
	.byte	W03
	.byte		VOL   , 85*seq_029_mvl/mxv
	.byte	W03
	.byte		        81*seq_029_mvl/mxv
	.byte	W04
	.byte		        74*seq_029_mvl/mxv
	.byte	W03
	.byte		        65*seq_029_mvl/mxv
	.byte	W04
	.byte		        53*seq_029_mvl/mxv
	.byte	W03
	.byte		        38*seq_029_mvl/mxv
	.byte	W04
	.byte		        86*seq_029_mvl/mxv
	.byte		N06   , Fn5 , v052
	.byte	W06
	.byte		        Gs5 
	.byte	W06
	.byte		N92   , Gn5 
	.byte	W72
	.byte	W03
	.byte		VOL   , 85*seq_029_mvl/mxv
	.byte	W03
	.byte		        81*seq_029_mvl/mxv
	.byte	W04
	.byte		        74*seq_029_mvl/mxv
	.byte	W03
	.byte		        65*seq_029_mvl/mxv
	.byte	W04
	.byte		        53*seq_029_mvl/mxv
	.byte	W03
	.byte		        38*seq_029_mvl/mxv
	.byte	W04
	.byte		        86*seq_029_mvl/mxv
	.byte		N48   , Gs5 
	.byte	W48
	.byte		N54   , Fn5 
	.byte	W32
	.byte	W01
	.byte		VOL   , 84*seq_029_mvl/mxv
	.byte	W03
	.byte		        78*seq_029_mvl/mxv
	.byte	W04
	.byte		        70*seq_029_mvl/mxv
	.byte	W03
	.byte		        57*seq_029_mvl/mxv
	.byte	W04
	.byte		        40*seq_029_mvl/mxv
	.byte	W01
	.byte	W02
	.byte		        21*seq_029_mvl/mxv
	.byte	W04
	.byte		        0*seq_029_mvl/mxv
	.byte	W90
	.byte	W96
	.byte	W96
	.byte	W96
	.byte	GOTO
	 .word	seq_029_0 + 0x31
	.byte	W96
	.byte	FINE

@*********************** Track 02 ***********************@

seq_029_1:
	.byte	KEYSH , seq_029_key+0
	.byte		VOICE , 61
	.byte		VOL   , 78*seq_029_mvl/mxv
	.byte		PAN   , c_v+0
	.byte	W24
	.byte	W96
	.byte	W96
	.byte	W96
	.byte	W96
	.byte	W96
	.byte	W96
	.byte	W72
	.byte		VOICE , 108
	.byte		VOL   , 100*seq_029_mvl/mxv
	.byte	W12
	.byte		N06   , Bn3 , v127
	.byte	W06
	.byte		        Gs3 
	.byte	W06
	.byte		N36   , Gn3 
	.byte	W21
	.byte		VOL   , 96*seq_029_mvl/mxv
	.byte	W03
	.byte		        84*seq_029_mvl/mxv
	.byte	W04
	.byte		        66*seq_029_mvl/mxv
	.byte	W03
	.byte		        40*seq_029_mvl/mxv
	.byte	W04
	.byte		        6*seq_029_mvl/mxv
	.byte	W01
	.byte		        0*seq_029_mvl/mxv
	.byte	W60
	.byte	W96
	.byte	W96
	.byte	W72
	.byte		        100*seq_029_mvl/mxv
	.byte	W12
	.byte		N06   , Bn3 
	.byte	W06
	.byte		        Gs3 
	.byte	W06
	.byte		N18   , Gn3 
	.byte	W09
	.byte		VOL   , 91*seq_029_mvl/mxv
	.byte	W03
	.byte		        66*seq_029_mvl/mxv
	.byte	W04
	.byte		        24*seq_029_mvl/mxv
	.byte	W02
	.byte		        100*seq_029_mvl/mxv
	.byte		N42
	.byte	W24
	.byte	W03
	.byte		VOL   , 96*seq_029_mvl/mxv
	.byte	W03
	.byte		        84*seq_029_mvl/mxv
	.byte	W04
	.byte		        66*seq_029_mvl/mxv
	.byte	W03
	.byte		        40*seq_029_mvl/mxv
	.byte	W04
	.byte		        6*seq_029_mvl/mxv
	.byte	W01
	.byte		        0*seq_029_mvl/mxv
	.byte	W36
	.byte		        86*seq_029_mvl/mxv
	.byte	W12
	.byte		VOICE , 123
	.byte		N06   , Cn4 , v072
	.byte	W06
	.byte		        Dn4 
	.byte	W06
	.byte		        Ds4 
	.byte	W12
	.byte		        Fs4 
	.byte	W12
	.byte		        Gn4 
	.byte	W06
	.byte		        An4 
	.byte	W06
	.byte		N36   , As4 
	.byte	W36
	.byte	W12
	.byte		N06   , Gn4 
	.byte	W06
	.byte		        As4 
	.byte	W06
	.byte		        Bn4 
	.byte	W06
	.byte		        As4 
	.byte	W06
	.byte		N12   , Gn4 
	.byte	W24
	.byte		N06   , Fn4 
	.byte	W06
	.byte		        Gn4 
	.byte	W06
	.byte		        An4 
	.byte	W06
	.byte		        Gn4 
	.byte	W06
	.byte		N12   , Fn4 
	.byte	W12
	.byte		N24   , Gn4 
	.byte	W96
	.byte	W96
	.byte	W96
	.byte	W96
	.byte	W96
	.byte	W96
	.byte	W96
	.byte	W96
	.byte	W96
	.byte	W96
	.byte	W96
	.byte	W96
	.byte	W96
	.byte	W96
	.byte	W96
	.byte	W96
	.byte	W96
	.byte	W96
	.byte	W96
	.byte	GOTO
	 .word	seq_029_1 + 0xD
	.byte	W96
	.byte	FINE

@*********************** Track 03 ***********************@

seq_029_2:
	.byte	KEYSH , seq_029_key+0
	.byte		VOICE , 38
	.byte		VOL   , 100*seq_029_mvl/mxv
	.byte		BENDR , 12
	.byte		PAN   , c_v+0
	.byte		BEND  , c_v+0
	.byte		N24   , Gn1 , v127
	.byte	W01
	.byte		BEND  , c_v-1
	.byte	W01
	.byte		        c_v-1
	.byte	W01
	.byte		        c_v-2
	.byte	W01
	.byte		        c_v-3
	.byte	W01
	.byte		        c_v-4
	.byte	W02
	.byte		        c_v-6
	.byte	W01
	.byte		        c_v-8
	.byte	W01
	.byte		        c_v-11
	.byte	W01
	.byte		        c_v-13
	.byte	W01
	.byte		        c_v-16
	.byte	W02
	.byte		        c_v-20
	.byte	W01
	.byte		        c_v-23
	.byte	W01
	.byte		        c_v-27
	.byte	W01
	.byte		        c_v-31
	.byte	W01
	.byte		        c_v-36
	.byte	W02
	.byte		        c_v-41
	.byte	W01
	.byte		        c_v-46
	.byte	W01
	.byte		        c_v-52
	.byte	W01
	.byte		        c_v-57
	.byte	W01
	.byte		        c_v-64
	.byte	W01
	.byte		BEND  , c_v+0
	.byte		N06   , Cn1 , v127
	.byte	W06
	.byte		N06
	.byte	W06
	.byte		N06
	.byte	W06
	.byte		N11   , Cn2 
	.byte	W12
	.byte		N06   , Gn0 
	.byte	W06
	.byte		        An0 
	.byte	W06
	.byte		        Gn0 
	.byte	W06
	.byte		        As0 
	.byte	W06
	.byte		N06
	.byte	W06
	.byte		N06
	.byte	W06
	.byte		BEND  , c_v-20
	.byte		N18   , As1 
	.byte	W01
	.byte		BEND  , c_v-13
	.byte	W01
	.byte		        c_v-8
	.byte	W01
	.byte		        c_v-4
	.byte	W01
	.byte		        c_v-1
	.byte	W01
	.byte		        c_v-1
	.byte	W01
	.byte		        c_v+0
	.byte	W12
	.byte		N06   , Dn2 
	.byte	W06
	.byte		        Dn1 
	.byte	W06
	.byte	PEND
	.byte		N06   , Cn1 , v127
	.byte	W06
	.byte		N06
	.byte	W06
	.byte		N06
	.byte	W06
	.byte		N12   , Cn2 
	.byte	W12
	.byte		N06   , Gn0 
	.byte	W06
	.byte		        An0 
	.byte	W06
	.byte		        Gn0 
	.byte	W06
	.byte		        As1 
	.byte	W24
	.byte		        Gn0 
	.byte	W12
	.byte		        An0 
	.byte	W06
	.byte		        Gn0 
	.byte	W06
	.byte	PEND
	.byte		BEND  , c_v+0
	.byte		N06   , Cn1 
	.byte	W06
	.byte		        Cn2 
	.byte	W06
	.byte		        Cn1 
	.byte	W06
	.byte		N11   , Cn2 
	.byte	W12
	.byte		N06   , Gn0 
	.byte	W06
	.byte		        An0 
	.byte	W06
	.byte		        Gn0 
	.byte	W06
	.byte		        As0 
	.byte	W06
	.byte		N06
	.byte	W06
	.byte		N06
	.byte	W06
	.byte		BEND  , c_v-20
	.byte		N18   , As1 
	.byte	W01
	.byte		BEND  , c_v-13
	.byte	W01
	.byte		        c_v-8
	.byte	W01
	.byte		        c_v-4
	.byte	W01
	.byte		        c_v-1
	.byte	W01
	.byte		        c_v-1
	.byte	W01
	.byte		        c_v+0
	.byte	W12
	.byte		N06   , Dn2 
	.byte	W06
	.byte		        Dn1 
	.byte	W06
	.byte		        Gn1 
	.byte	W24
	.byte		N48   , As1 
	.byte	W48
	.byte		BEND  , c_v+0
	.byte		N24   , Dn2 
	.byte	W01
	.byte		BEND  , c_v-1
	.byte	W01
	.byte		        c_v-1
	.byte	W01
	.byte		        c_v-2
	.byte	W01
	.byte		        c_v-3
	.byte	W01
	.byte		        c_v-4
	.byte	W02
	.byte		        c_v-6
	.byte	W01
	.byte		        c_v-8
	.byte	W01
	.byte		        c_v-11
	.byte	W01
	.byte		        c_v-13
	.byte	W01
	.byte		        c_v-16
	.byte	W02
	.byte		        c_v-20
	.byte	W01
	.byte		        c_v-23
	.byte	W01
	.byte		        c_v-27
	.byte	W01
	.byte		        c_v-31
	.byte	W01
	.byte		        c_v-36
	.byte	W02
	.byte		        c_v-41
	.byte	W01
	.byte		        c_v-46
	.byte	W01
	.byte		        c_v-52
	.byte	W01
	.byte		        c_v-57
	.byte	W01
	.byte		        c_v-64
	.byte	W01
	.byte	PATT
	 .word	seq_029_2 + 0x39
	.byte		N06   , Cn1 , v127
	.byte	W06
	.byte		N06
	.byte	W06
	.byte		N06
	.byte	W06
	.byte		N12   , Cn2 
	.byte	W12
	.byte		N06   , Gn0 
	.byte	W06
	.byte		        An0 
	.byte	W06
	.byte		        Gn0 
	.byte	W06
	.byte		        As1 
	.byte	W24
	.byte		        Gn1 
	.byte	W06
	.byte		        Gn0 
	.byte	W06
	.byte		        An0 
	.byte	W06
	.byte		        Gn0 
	.byte	W06
	.byte	PATT
	 .word	seq_029_2 + 0x39
	.byte	PATT
	 .word	seq_029_2 + 0x6B
	.byte		BEND  , c_v+0
	.byte		N06   , Fn1 , v127
	.byte	W06
	.byte		N06
	.byte	W06
	.byte		N06
	.byte	W06
	.byte		N11   , Fn2 
	.byte	W12
	.byte		N06   , Fn1 
	.byte	W06
	.byte		        Gn1 
	.byte	W06
	.byte		        Fn1 
	.byte	W06
	.byte		        Ds1 
	.byte	W06
	.byte		N06
	.byte	W06
	.byte		N06
	.byte	W06
	.byte		BEND  , c_v-20
	.byte		N18   , Ds2 
	.byte	W01
	.byte		BEND  , c_v-13
	.byte	W01
	.byte		        c_v-8
	.byte	W01
	.byte		        c_v-4
	.byte	W01
	.byte		        c_v-1
	.byte	W01
	.byte		        c_v-1
	.byte	W01
	.byte		        c_v+0
	.byte	W12
	.byte		N06   , Gn2 
	.byte	W06
	.byte		        Gn1 
	.byte	W06
	.byte		        Fn1 
	.byte	W06
	.byte		N06
	.byte	W06
	.byte		N06
	.byte	W06
	.byte		N12   , Fn2 
	.byte	W12
	.byte		N06   , Fn1 
	.byte	W06
	.byte		        Gn1 
	.byte	W06
	.byte		        Fn1 
	.byte	W06
	.byte		        As1 
	.byte	W24
	.byte		        Bn1 
	.byte	W06
	.byte		        As0 
	.byte	W06
	.byte		        Cn1 
	.byte	W06
	.byte		        As0 
	.byte	W06
	.byte	PATT
	 .word	seq_029_2 + 0x39
	.byte	PATT
	 .word	seq_029_2 + 0x6B
	.byte		N12   , An0 , v127
	.byte	W96
	.byte		        Ds1 
	.byte	W48
	.byte		        Fn1 
	.byte	W24
	.byte		N06   , Dn1 
	.byte	W06
	.byte		N06
	.byte	W06
	.byte		        Dn2 
	.byte	W06
	.byte		        Dn1 
	.byte	W06
	.byte	PATT
	 .word	seq_029_2 + 0x39
	.byte		N06   , Cn2 , v127
	.byte	W18
	.byte		N18   , As1 
	.byte	W18
	.byte		N06   , Dn1 
	.byte	W06
	.byte		        As0 
	.byte	W06
	.byte		        Cn2 
	.byte	W24
	.byte		BEND  , c_v+0
	.byte		N24   , Gn1 
	.byte	W01
	.byte		BEND  , c_v-1
	.byte	W01
	.byte		        c_v-1
	.byte	W01
	.byte		        c_v-2
	.byte	W01
	.byte		        c_v-3
	.byte	W01
	.byte		        c_v-4
	.byte	W02
	.byte		        c_v-6
	.byte	W01
	.byte		        c_v-8
	.byte	W01
	.byte		        c_v-11
	.byte	W01
	.byte		        c_v-13
	.byte	W01
	.byte		        c_v-16
	.byte	W02
	.byte		        c_v-20
	.byte	W01
	.byte		        c_v-23
	.byte	W01
	.byte		        c_v-27
	.byte	W01
	.byte		        c_v-31
	.byte	W01
	.byte		        c_v-36
	.byte	W02
	.byte		        c_v-41
	.byte	W01
	.byte		        c_v-46
	.byte	W01
	.byte		        c_v-52
	.byte	W01
	.byte		        c_v-57
	.byte	W01
	.byte		        c_v-64
	.byte	W01
	.byte		        c_v+0
	.byte		N17   , Cn1 
	.byte	W18
	.byte		N18   , Gn0 
	.byte	W18
	.byte		N12   , Gs0 
	.byte	W12
	.byte		N06   , Cn1 
	.byte	W06
	.byte		        Gn0 
	.byte	W06
	.byte		        Cn1 
	.byte	W06
	.byte		N18   , Gn1 
	.byte	W18
	.byte		N05   , Cn2 
	.byte	W06
	.byte		N06   , Fn1 
	.byte	W06
	.byte		N18   , Cn1 
	.byte	W18
	.byte		        Gn0 
	.byte	W18
	.byte		N12   , Gs0 
	.byte	W12
	.byte		N06   , Cn1 
	.byte	W06
	.byte		N04   , Cn2 
	.byte	W06
	.byte		N06   , Gn1 
	.byte	W06
	.byte		N18   , Cn2 
	.byte	W18
	.byte		N05   , Gs1 
	.byte	W06
	.byte		        Gn1 
	.byte	W06
	.byte		N18   , Fn1 
	.byte	W18
	.byte		        Gs0 
	.byte	W18
	.byte		N12   , Gs1 
	.byte	W12
	.byte		N06   , Fn0 
	.byte	W06
	.byte		N04   , Cn2 
	.byte	W06
	.byte		N06   , Cn1 
	.byte	W06
	.byte		N12   , Cs1 
	.byte	W12
	.byte		N06   , Fn1 
	.byte	W06
	.byte		        Cs1 
	.byte	W06
	.byte		N04   , Cs2 
	.byte	W06
	.byte		N17   , Cn1 
	.byte	W18
	.byte		N18   , Gn0 
	.byte	W18
	.byte		N06   , Gn1 
	.byte	W06
	.byte		        Gn0 
	.byte	W06
	.byte		        Cn1 
	.byte	W06
	.byte		        Gn0 
	.byte	W06
	.byte		        Gs0 
	.byte	W06
	.byte		BEND  , c_v-13
	.byte		N18   , Gn1 
	.byte	W01
	.byte		BEND  , c_v-8
	.byte	W01
	.byte		        c_v-4
	.byte	W01
	.byte		        c_v-1
	.byte	W01
	.byte		        c_v-1
	.byte	W01
	.byte		        c_v+0
	.byte	W13
	.byte		N06   , Gs0 
	.byte	W06
	.byte		        Cn1 
	.byte	W06
	.byte		N18   , Cs1 
	.byte	W18
	.byte		        Gs0 
	.byte	W18
	.byte		N12   , Cn1 
	.byte	W12
	.byte		N18   , Cs1 
	.byte	W18
	.byte		        Fn1 
	.byte	W18
	.byte		N12   , Gs1 
	.byte	W12
	.byte		N18   , Cn1 
	.byte	W17
	.byte		BEND  , c_v-20
	.byte	W01
	.byte		        c_v-13
	.byte		N18   , Cn2 
	.byte	W01
	.byte		BEND  , c_v-8
	.byte	W01
	.byte		        c_v-4
	.byte	W01
	.byte		        c_v-1
	.byte	W01
	.byte		        c_v-1
	.byte	W01
	.byte		        c_v+0
	.byte	W13
	.byte		N12   , Cn1 
	.byte	W12
	.byte		N06   , Gn0 
	.byte	W06
	.byte		        Gn1 
	.byte	W06
	.byte		        Gs0 
	.byte	W06
	.byte		        Gs1 
	.byte	W06
	.byte		        An0 
	.byte	W06
	.byte		        An1 
	.byte	W06
	.byte		        Bn0 
	.byte	W06
	.byte		        Bn1 
	.byte	W06
	.byte		        Cn1 
	.byte	W06
	.byte		N12   , Cn2 
	.byte	W12
	.byte		N18   , Gn0 
	.byte	W18
	.byte		N12   , Gs0 
	.byte	W12
	.byte		N06   , Cn1 
	.byte	W06
	.byte		N04   , Cn2 
	.byte	W06
	.byte		N05   , Cn1 
	.byte	W06
	.byte		N12   , Gn0 
	.byte	W12
	.byte		        Gn1 
	.byte	W12
	.byte		N06   , Cs1 
	.byte	W06
	.byte		        Cn1 
	.byte	W06
	.byte		N12   , Cn2 
	.byte	W12
	.byte		N18   , Gn0 
	.byte	W18
	.byte		N06   , Gs0 
	.byte	W06
	.byte		        Gn0 
	.byte	W06
	.byte		        Cn1 
	.byte	W06
	.byte		N04   , Cn2 
	.byte	W06
	.byte		N06   , Gn0 
	.byte	W06
	.byte		N12   , Cn1 
	.byte	W12
	.byte		BEND  , c_v-13
	.byte		N18   , Cn2 
	.byte	W01
	.byte		BEND  , c_v-8
	.byte	W01
	.byte		        c_v-4
	.byte	W01
	.byte		        c_v-1
	.byte	W01
	.byte		        c_v-1
	.byte	W01
	.byte		        c_v+0
	.byte	W13
	.byte		N06   , Fn1 
	.byte	W06
	.byte		N12   , Fn0 
	.byte	W12
	.byte		N18   , Cn1 
	.byte	W18
	.byte		N05   , Cn2 
	.byte	W06
	.byte		N06   , Cn1 
	.byte	W06
	.byte		        Fn1 
	.byte	W06
	.byte		        Fn0 
	.byte	W06
	.byte		N05   , Fn1 
	.byte	W06
	.byte		N12   , Cn1 
	.byte	W12
	.byte		N06   , Dn1 
	.byte	W06
	.byte		N05   , Dn2 
	.byte	W06
	.byte		N06   , Cs1 
	.byte	W06
	.byte		        Gn0 
	.byte	W06
	.byte		N12   , Cn1 
	.byte	W12
	.byte		        Gn1 
	.byte	W12
	.byte		N06   , Cn1 
	.byte	W06
	.byte		        Cn2 
	.byte	W06
	.byte		        Gn0 
	.byte	W06
	.byte		        Gn1 
	.byte	W06
	.byte		        Cn1 
	.byte	W06
	.byte		        Gn1 
	.byte	W06
	.byte		BEND  , c_v-13
	.byte		N18   , Gn2 
	.byte	W01
	.byte		BEND  , c_v-8
	.byte	W01
	.byte		        c_v-4
	.byte	W01
	.byte		        c_v-1
	.byte	W01
	.byte		        c_v-1
	.byte	W01
	.byte		        c_v+0
	.byte	W13
	.byte		N06   , Gs1 
	.byte	W06
	.byte		        Cn1 
	.byte	W06
	.byte		N18   , Cs2 
	.byte	W18
	.byte		        Gs1 
	.byte	W18
	.byte		N12   , Cn1 
	.byte	W12
	.byte		N18   , Cs1 
	.byte	W18
	.byte		        Fn1 
	.byte	W18
	.byte		N04   , Fn2 
	.byte	W06
	.byte		N06   , Gs1 
	.byte	W06
	.byte		        Cn1 
	.byte	W06
	.byte		        Cn2 
	.byte	W06
	.byte		        Cn1 
	.byte	W06
	.byte		N12   , Cn2 
	.byte	W12
	.byte		        Gn0 
	.byte	W12
	.byte		        Cn1 
	.byte	W12
	.byte		N04   , En2 
	.byte	W06
	.byte		N06   , Gn0 
	.byte	W06
	.byte		N12   , En1 
	.byte	W12
	.byte		BEND  , c_v-13
	.byte		N18   , En2 
	.byte	W01
	.byte		BEND  , c_v-8
	.byte	W01
	.byte		        c_v-4
	.byte	W01
	.byte		        c_v-1
	.byte	W01
	.byte		        c_v-1
	.byte	W01
	.byte		        c_v+0
	.byte	W13
	.byte		N72   , Cs1 
	.byte	W30
	.byte		VOL   , 97*seq_029_mvl/mxv
	.byte	W04
	.byte		        95*seq_029_mvl/mxv
	.byte	W03
	.byte		        92*seq_029_mvl/mxv
	.byte	W04
	.byte		        88*seq_029_mvl/mxv
	.byte	W03
	.byte		        83*seq_029_mvl/mxv
	.byte	W04
	.byte		        77*seq_029_mvl/mxv
	.byte	W03
	.byte		        71*seq_029_mvl/mxv
	.byte	W04
	.byte		        63*seq_029_mvl/mxv
	.byte	W03
	.byte		        55*seq_029_mvl/mxv
	.byte	W04
	.byte		        46*seq_029_mvl/mxv
	.byte	W03
	.byte		        36*seq_029_mvl/mxv
	.byte	W04
	.byte		        25*seq_029_mvl/mxv
	.byte	W03
	.byte		        100*seq_029_mvl/mxv
	.byte		BEND  , c_v+0
	.byte		N24   , Gn1 
	.byte	W01
	.byte		BEND  , c_v-1
	.byte	W01
	.byte		        c_v-1
	.byte	W01
	.byte		        c_v-2
	.byte	W01
	.byte		        c_v-3
	.byte	W01
	.byte		        c_v-4
	.byte	W02
	.byte		        c_v-6
	.byte	W01
	.byte		        c_v-8
	.byte	W01
	.byte		        c_v-11
	.byte	W01
	.byte		        c_v-13
	.byte	W01
	.byte		        c_v-16
	.byte	W02
	.byte		        c_v-20
	.byte	W01
	.byte		        c_v-23
	.byte	W01
	.byte		        c_v-27
	.byte	W01
	.byte		        c_v-31
	.byte	W01
	.byte		        c_v-36
	.byte	W02
	.byte		        c_v-41
	.byte	W01
	.byte		        c_v-46
	.byte	W01
	.byte		        c_v-52
	.byte	W01
	.byte		        c_v-57
	.byte	W01
	.byte		        c_v-64
	.byte	W01
	.byte		        c_v+0
	.byte		N06   , Cn1 
	.byte	W06
	.byte		N06
	.byte	W06
	.byte		N06
	.byte	W06
	.byte		BEND  , c_v-13
	.byte		N12   , Cn2 
	.byte	W01
	.byte		BEND  , c_v-8
	.byte	W01
	.byte		        c_v-4
	.byte	W01
	.byte		        c_v-1
	.byte	W01
	.byte		        c_v-1
	.byte	W01
	.byte		        c_v+0
	.byte	W07
	.byte		N06   , Gn1 
	.byte	W06
	.byte		        As1 
	.byte	W06
	.byte		        Gn1 
	.byte	W06
	.byte		        As1 
	.byte	W06
	.byte		        Gn1 
	.byte	W06
	.byte		        As1 
	.byte	W12
	.byte		BEND  , c_v+0
	.byte		N24   , Cn2 
	.byte	W01
	.byte		BEND  , c_v-1
	.byte	W01
	.byte		        c_v-1
	.byte	W01
	.byte		        c_v-2
	.byte	W01
	.byte		        c_v-3
	.byte	W01
	.byte		        c_v-4
	.byte	W02
	.byte		        c_v-6
	.byte	W01
	.byte		        c_v-8
	.byte	W01
	.byte		        c_v-11
	.byte	W01
	.byte		        c_v-13
	.byte	W01
	.byte		        c_v-16
	.byte	W02
	.byte		        c_v-20
	.byte	W01
	.byte		        c_v-23
	.byte	W01
	.byte		        c_v-27
	.byte	W01
	.byte		        c_v-31
	.byte	W01
	.byte		        c_v-36
	.byte	W02
	.byte		        c_v-41
	.byte	W01
	.byte		        c_v-46
	.byte	W01
	.byte		        c_v-52
	.byte	W01
	.byte		        c_v-57
	.byte	W01
	.byte		        c_v-64
	.byte	W01
	.byte		        c_v+0
	.byte		N06   , Fn1 
	.byte	W06
	.byte		N06
	.byte	W06
	.byte		N06
	.byte	W06
	.byte		BEND  , c_v-13
	.byte		N11   , Fn2 
	.byte	W01
	.byte		BEND  , c_v-8
	.byte	W01
	.byte		        c_v-4
	.byte	W01
	.byte		        c_v-1
	.byte	W01
	.byte		        c_v-1
	.byte	W01
	.byte		        c_v+0
	.byte	W07
	.byte		N06   , Fn1 
	.byte	W06
	.byte		        As1 
	.byte	W06
	.byte		        Dn2 
	.byte	W06
	.byte		        Fn2 
	.byte	W06
	.byte		        As1 
	.byte	W06
	.byte		        Fn2 
	.byte	W12
	.byte		        Gn2 
	.byte	W06
	.byte		        Gn0 
	.byte	W06
	.byte		        As0 
	.byte	W06
	.byte		        Dn1 
	.byte	W06
	.byte		        Cn1 
	.byte	W06
	.byte		N06
	.byte	W06
	.byte		N06
	.byte	W06
	.byte		N11   , Cn2 
	.byte	W12
	.byte		N06   , Gn0 
	.byte	W06
	.byte		        An0 
	.byte	W06
	.byte		        Gn0 
	.byte	W06
	.byte		        As0 
	.byte	W06
	.byte		N06
	.byte	W06
	.byte		N06
	.byte	W05
	.byte		BEND  , c_v-20
	.byte	W01
	.byte		        c_v-13
	.byte		N18   , As1 
	.byte	W01
	.byte		BEND  , c_v-8
	.byte	W01
	.byte		        c_v-4
	.byte	W01
	.byte		        c_v-1
	.byte	W01
	.byte		        c_v-1
	.byte	W01
	.byte		        c_v+0
	.byte	W13
	.byte		N06   , Dn2 
	.byte	W06
	.byte		        Dn1 
	.byte	W06
	.byte		        Cn1 
	.byte	W06
	.byte		N06
	.byte	W06
	.byte		N06
	.byte	W06
	.byte		N12   , Cn2 
	.byte	W12
	.byte		N06   , Gn0 
	.byte	W06
	.byte		        An0 
	.byte	W06
	.byte		        Gn0 
	.byte	W06
	.byte		        As1 
	.byte	W06
	.byte		        Gn1 
	.byte	W06
	.byte		        Bn1 
	.byte	W12
	.byte		BEND  , c_v+0
	.byte	W01
	.byte		        c_v-1
	.byte		N23   , Cn2 
	.byte	W01
	.byte		BEND  , c_v-1
	.byte	W01
	.byte		        c_v-2
	.byte	W01
	.byte		        c_v-3
	.byte	W01
	.byte		        c_v-5
	.byte	W01
	.byte		        c_v-6
	.byte	W02
	.byte		        c_v-8
	.byte	W01
	.byte		        c_v-11
	.byte	W01
	.byte		        c_v-14
	.byte	W01
	.byte		        c_v-17
	.byte	W01
	.byte		        c_v-20
	.byte	W01
	.byte		        c_v-24
	.byte	W02
	.byte		        c_v-28
	.byte	W01
	.byte		        c_v-32
	.byte	W01
	.byte		        c_v-37
	.byte	W01
	.byte		        c_v-42
	.byte	W01
	.byte		        c_v-47
	.byte	W01
	.byte		        c_v-53
	.byte	W01
	.byte		        c_v-59
	.byte	W02
	.byte		        c_v-64
	.byte	W01
	.byte	GOTO
	 .word	seq_029_2 + 0xE9
	.byte		BEND  , c_v+0
	.byte	W96
	.byte	FINE

@*********************** Track 04 ***********************@

seq_029_3:
	.byte	KEYSH , seq_029_key+0
	.byte		VOICE , 55
	.byte		VOL   , 100*seq_029_mvl/mxv
	.byte		PAN   , c_v+0
	.byte	W24
	.byte	W96
	.byte	W96
	.byte	W96
	.byte	W60
	.byte		BEND  , c_v-64
	.byte		N12   , Dn5 , v127
	.byte	W01
	.byte		BEND  , c_v-50
	.byte	W01
	.byte		        c_v-38
	.byte	W01
	.byte		        c_v-27
	.byte	W01
	.byte		        c_v-18
	.byte	W01
	.byte		        c_v-11
	.byte	W02
	.byte		        c_v-6
	.byte	W01
	.byte		        c_v-2
	.byte	W01
	.byte		        c_v-1
	.byte	W01
	.byte		        c_v+0
	.byte	W01
	.byte		        c_v-2
	.byte	W01
	.byte		        c_v-6
	.byte		N24   , An4 
	.byte	W01
	.byte		BEND  , c_v-13
	.byte	W01
	.byte		        c_v-23
	.byte	W01
	.byte		        c_v-36
	.byte	W02
	.byte		        c_v-52
	.byte	W01
	.byte		        c_v-64
	.byte	W18
	.byte		BEND  , c_v+0
	.byte	W96
	.byte	W96
	.byte	W96
	.byte	W96
	.byte	W96
	.byte	W96
	.byte	W96
	.byte	W72
	.byte		N24   , En4 , v127
	.byte	W24
	.byte		        Fn4 
	.byte	W96
	.byte		        Ds4 
	.byte	W48
	.byte		        Fn4 
	.byte	W48
	.byte	W96
	.byte	W48
	.byte		VOL   , 78*seq_029_mvl/mxv
	.byte	W12
	.byte		BEND  , c_v-64
	.byte		N12   , En5 
	.byte	W01
	.byte		BEND  , c_v-50
	.byte	W01
	.byte		        c_v-38
	.byte	W01
	.byte		        c_v-27
	.byte	W01
	.byte		        c_v-18
	.byte	W01
	.byte		        c_v-11
	.byte	W02
	.byte		        c_v-6
	.byte	W01
	.byte		        c_v-2
	.byte	W01
	.byte		        c_v-1
	.byte	W01
	.byte		        c_v+0
	.byte	W01
	.byte		        c_v-2
	.byte	W01
	.byte		        c_v-6
	.byte		N24   , An4 
	.byte	W01
	.byte		BEND  , c_v-13
	.byte	W01
	.byte		        c_v-23
	.byte	W01
	.byte		        c_v-36
	.byte	W02
	.byte		        c_v-52
	.byte	W01
	.byte		        c_v-64
	.byte	W18
	.byte		        c_v+0
	.byte	W96
	.byte	W96
	.byte	W96
	.byte	W96
	.byte	W96
	.byte	W96
	.byte	W96
	.byte	W96
	.byte	W96
	.byte	W96
	.byte	W96
	.byte	W96
	.byte	W96
	.byte	W60
	.byte		        c_v-64
	.byte		N12   , En5 
	.byte	W01
	.byte		BEND  , c_v-50
	.byte	W01
	.byte		        c_v-38
	.byte	W01
	.byte		        c_v-27
	.byte	W01
	.byte		        c_v-18
	.byte	W01
	.byte		        c_v-11
	.byte	W02
	.byte		        c_v-6
	.byte	W01
	.byte		        c_v-2
	.byte	W01
	.byte		        c_v-1
	.byte	W01
	.byte		        c_v+0
	.byte	W01
	.byte		        c_v-2
	.byte	W01
	.byte		        c_v-6
	.byte		N24   , An4 
	.byte	W01
	.byte		BEND  , c_v-13
	.byte	W01
	.byte		        c_v-23
	.byte	W01
	.byte		        c_v-36
	.byte	W02
	.byte		        c_v-52
	.byte	W01
	.byte		        c_v-64
	.byte	W18
	.byte		        c_v+0
	.byte	W18
	.byte		        c_v-64
	.byte		N11   , Fn5 
	.byte	W01
	.byte		BEND  , c_v-42
	.byte	W01
	.byte		        c_v-24
	.byte	W01
	.byte		        c_v-11
	.byte	W01
	.byte		        c_v-3
	.byte	W01
	.byte		        c_v-1
	.byte	W01
	.byte		        c_v+0
	.byte	W06
	.byte		        c_v-64
	.byte		N06
	.byte	W01
	.byte		BEND  , c_v-42
	.byte	W01
	.byte		        c_v-24
	.byte	W01
	.byte		        c_v-11
	.byte	W01
	.byte		        c_v-3
	.byte	W01
	.byte		        c_v-1
	.byte	W01
	.byte		        c_v-64
	.byte		N17
	.byte	W01
	.byte		BEND  , c_v-42
	.byte	W01
	.byte		        c_v-24
	.byte	W01
	.byte		        c_v-11
	.byte	W01
	.byte		        c_v-3
	.byte	W01
	.byte		        c_v-1
	.byte	W01
	.byte		        c_v+0
	.byte	W12
	.byte		        c_v-64
	.byte		N06
	.byte	W01
	.byte		BEND  , c_v-42
	.byte	W01
	.byte		        c_v-24
	.byte	W01
	.byte		        c_v-11
	.byte	W01
	.byte		        c_v-3
	.byte	W01
	.byte		        c_v-1
	.byte	W01
	.byte		        c_v-64
	.byte		N12
	.byte	W01
	.byte		BEND  , c_v-53
	.byte	W01
	.byte		        c_v-42
	.byte	W01
	.byte		        c_v-32
	.byte	W01
	.byte		        c_v-24
	.byte	W01
	.byte		        c_v-17
	.byte	W02
	.byte		        c_v-11
	.byte	W01
	.byte		        c_v-7
	.byte	W01
	.byte		        c_v-3
	.byte	W01
	.byte		        c_v-1
	.byte	W01
	.byte		        c_v-1
	.byte	W01
	.byte		        c_v-6
	.byte		N24   , As4 
	.byte	W01
	.byte		BEND  , c_v-13
	.byte	W01
	.byte		        c_v-23
	.byte	W01
	.byte		        c_v-36
	.byte	W02
	.byte		        c_v-52
	.byte	W01
	.byte		        c_v-64
	.byte	W18
	.byte		        c_v+0
	.byte	W96
	.byte	W96
	.byte	GOTO
	 .word	seq_029_3 + 0x37
	.byte	W96
	.byte	FINE

@*********************** Track 05 ***********************@

seq_029_4:
	.byte	KEYSH , seq_029_key+0
	.byte		VOICE , 102
	.byte		VOL   , 78*seq_029_mvl/mxv
	.byte		PAN   , c_v+0
	.byte	W24
	.byte		N16   , Cn4 , v040
	.byte	W18
	.byte		N04
	.byte	W18
	.byte		N09   , Gn3 
	.byte	W12
	.byte		N16   , As3 
	.byte	W18
	.byte		N04
	.byte	W18
	.byte		N09   , Dn4 
	.byte	W12
	.byte	PEND
	.byte		N16   , Cn4 , v040
	.byte	W18
	.byte		N04
	.byte	W18
	.byte		N09   , Gn3 
	.byte	W12
	.byte		N08   , As3 
	.byte	W48
	.byte	PEND
	.byte	PATT
	 .word	seq_029_4 + 0x9
	.byte		N08   , Cn4 , v040
	.byte	W24
	.byte		N44   , En4 
	.byte	W48
	.byte		N08   , Dn4 
	.byte	W24
	.byte	W96
	.byte	W96
	.byte	PATT
	 .word	seq_029_4 + 0x9
	.byte	PATT
	 .word	seq_029_4 + 0x1B
	.byte	W96
	.byte	W96
	.byte	PATT
	 .word	seq_029_4 + 0x9
	.byte		N16   , Cn4 , v040
	.byte	W18
	.byte		N04
	.byte	W18
	.byte		N09   , Gn3 
	.byte	W12
	.byte		N08   , As3 
	.byte	W24
	.byte		        En4 
	.byte	W24
	.byte		        Fn4 
	.byte	W96
	.byte		        Ds4 
	.byte	W48
	.byte		        Dn4 
	.byte	W24
	.byte		N05
	.byte	W06
	.byte		N06
	.byte	W12
	.byte		N06
	.byte	W06
	.byte	PATT
	 .word	seq_029_4 + 0x9
	.byte		N06   , Cn4 , v040
	.byte	W18
	.byte		N18   , As3 
	.byte	W18
	.byte		N12   , Bn3 
	.byte	W12
	.byte		N06   , Cn4 
	.byte	W48
	.byte	W96
	.byte	W96
	.byte	W96
	.byte	W96
	.byte		VOL   , 55*seq_029_mvl/mxv
	.byte		N72   , Gs4 , v048
	.byte	W72
	.byte		N24   , Fn4 
	.byte	W24
	.byte		N84   , Gn4 
	.byte	W96
	.byte		VOL   , 70*seq_029_mvl/mxv
	.byte		N06   , Cn4 
	.byte	W06
	.byte		        Gn3 
	.byte	W06
	.byte		        Cn4 
	.byte	W06
	.byte		N54   , Gn4 
	.byte	W54
	.byte		N24   , Fn4 
	.byte	W24
	.byte		N06   , Cn4 
	.byte	W06
	.byte		        Gn3 
	.byte	W06
	.byte		        Cn4 
	.byte	W06
	.byte		N12   , Gn4 
	.byte	W12
	.byte		N06   , Gs4 
	.byte	W06
	.byte		        Bn4 
	.byte	W06
	.byte		        Gs4 
	.byte	W06
	.byte		N48   , Gn4 
	.byte	W48
	.byte		N06   , Fn4 
	.byte	W06
	.byte		        Gs3 
	.byte	W06
	.byte		        Cn4 
	.byte	W06
	.byte		N42   , Fn4 
	.byte	W42
	.byte		N12
	.byte	W12
	.byte		        Gs4 
	.byte	W12
	.byte		        Fn4 
	.byte	W12
	.byte		N48   , En4 
	.byte	W48
	.byte		        Cn4 
	.byte	W48
	.byte		N72   , Cs4 
	.byte	W72
	.byte		N24   , Fn4 
	.byte	W24
	.byte		N96   , Gn4 
	.byte	W96
	.byte		N48   , Fn4 
	.byte	W48
	.byte		N54   , Gs4 
	.byte	W32
	.byte	W01
	.byte		VOL   , 69*seq_029_mvl/mxv
	.byte	W03
	.byte		        64*seq_029_mvl/mxv
	.byte	W04
	.byte		        57*seq_029_mvl/mxv
	.byte	W03
	.byte		        46*seq_029_mvl/mxv
	.byte	W04
	.byte		        33*seq_029_mvl/mxv
	.byte	W01
	.byte	W02
	.byte		        17*seq_029_mvl/mxv
	.byte	W04
	.byte		        0*seq_029_mvl/mxv
	.byte	W18
	.byte		        70*seq_029_mvl/mxv
	.byte	W36
	.byte		N06   , As3 
	.byte	W12
	.byte		        Cn4 
	.byte	W24
	.byte	W60
	.byte		        Fn4 
	.byte	W12
	.byte		        Gn4 
	.byte	W24
	.byte		VOL   , 78*seq_029_mvl/mxv
	.byte		N16   , Cn4 
	.byte	W18
	.byte		N04
	.byte	W18
	.byte		N09   , Gn3 
	.byte	W12
	.byte		N16   , As3 
	.byte	W18
	.byte		N04
	.byte	W18
	.byte		N09   , Dn4 
	.byte	W12
	.byte		N16   , Cn4 
	.byte	W18
	.byte		N04
	.byte	W12
	.byte		N06   , Gn3 
	.byte	W06
	.byte		        An3 
	.byte	W06
	.byte		N05   , Gn3 
	.byte	W06
	.byte		N06   , As3 
	.byte	W06
	.byte		        Gn3 
	.byte	W06
	.byte		N05   , Bn3 
	.byte	W12
	.byte		N06   , Cn4 
	.byte	W06
	.byte		N02   , Gn3 , v036
	.byte	W02
	.byte		        En3 , v028
	.byte	W02
	.byte		        Cn3 , v020
	.byte	W14
	.byte	GOTO
	 .word	seq_029_4 + 0x37
	.byte	W96
	.byte	FINE

@*********************** Track 06 ***********************@

seq_029_5:
	.byte	KEYSH , seq_029_key+0
	.byte		VOICE , 101
	.byte		VOL   , 78*seq_029_mvl/mxv
	.byte		PAN   , c_v+0
	.byte	W24
	.byte		N16   , Gn3 , v052
	.byte	W18
	.byte		N04
	.byte	W18
	.byte		N09   , En3 
	.byte	W12
	.byte		N16   , Gn3 
	.byte	W18
	.byte		N04
	.byte	W18
	.byte		N09   , As3 
	.byte	W12
	.byte	PEND
	.byte		N16   , Gn3 , v052
	.byte	W18
	.byte		N04
	.byte	W18
	.byte		N09   , En3 
	.byte	W12
	.byte		N08   , Gn3 
	.byte	W48
	.byte	PEND
	.byte	PATT
	 .word	seq_029_5 + 0x9
	.byte		N08   , Gn3 , v052
	.byte	W24
	.byte		N44   , As3 
	.byte	W48
	.byte		N08   , Bn3 
	.byte	W24
	.byte	W96
	.byte	W96
	.byte	PATT
	 .word	seq_029_5 + 0x9
	.byte	PATT
	 .word	seq_029_5 + 0x1B
	.byte	W96
	.byte	W96
	.byte	PATT
	 .word	seq_029_5 + 0x9
	.byte		N16   , Gn3 , v052
	.byte	W18
	.byte		N04
	.byte	W18
	.byte		N09   , En3 
	.byte	W12
	.byte		N08   , Gn3 
	.byte	W24
	.byte		        As3 
	.byte	W24
	.byte		        Cn4 
	.byte	W96
	.byte		        As3 
	.byte	W48
	.byte		N08
	.byte	W24
	.byte		N05
	.byte	W06
	.byte		N06
	.byte	W12
	.byte		N06
	.byte	W06
	.byte	PATT
	 .word	seq_029_5 + 0x9
	.byte		N06   , Gn3 , v052
	.byte	W18
	.byte		N18
	.byte	W18
	.byte		N12
	.byte	W12
	.byte		N06
	.byte	W48
	.byte	W96
	.byte	W96
	.byte	W96
	.byte	W96
	.byte		VOL   , 55*seq_029_mvl/mxv
	.byte		N72   , Ds4 
	.byte	W72
	.byte		N24   , Cn4 
	.byte	W24
	.byte		N84   , Dn4 
	.byte	W96
	.byte		VOL   , 70*seq_029_mvl/mxv
	.byte		N06   , Gn3 
	.byte	W06
	.byte		        Cn3 
	.byte	W06
	.byte		        Gn3 
	.byte	W06
	.byte		N54   , Cn4 
	.byte	W54
	.byte		N24   , As3 
	.byte	W24
	.byte		N06   , Gn3 
	.byte	W06
	.byte		        Cn3 
	.byte	W06
	.byte		        Gn3 
	.byte	W06
	.byte		N12   , Cn4 
	.byte	W12
	.byte		N06   , Cs4 
	.byte	W06
	.byte		        En4 
	.byte	W06
	.byte		        Cs4 
	.byte	W06
	.byte		N48   , Cn4 
	.byte	W48
	.byte		N06
	.byte	W06
	.byte		        Cs3 
	.byte	W06
	.byte		        Gs3 
	.byte	W06
	.byte		N42   , Cn4 
	.byte	W42
	.byte		N12
	.byte	W12
	.byte		        Cs4 
	.byte	W12
	.byte		        Cn4 
	.byte	W12
	.byte		N48
	.byte	W48
	.byte		        Gn3 
	.byte	W48
	.byte		N72   , Gs3 
	.byte	W72
	.byte		N24   , Cn4 
	.byte	W24
	.byte		N96   , En4 
	.byte	W96
	.byte		N48   , Cn4 
	.byte	W48
	.byte		N54   , Fn4 
	.byte	W32
	.byte	W01
	.byte		VOL   , 69*seq_029_mvl/mxv
	.byte	W03
	.byte		        64*seq_029_mvl/mxv
	.byte	W04
	.byte		        57*seq_029_mvl/mxv
	.byte	W03
	.byte		        46*seq_029_mvl/mxv
	.byte	W04
	.byte		        33*seq_029_mvl/mxv
	.byte	W01
	.byte	W02
	.byte		        17*seq_029_mvl/mxv
	.byte	W04
	.byte		        0*seq_029_mvl/mxv
	.byte	W18
	.byte		        70*seq_029_mvl/mxv
	.byte	W36
	.byte		N06   , Fn3 
	.byte	W12
	.byte		        Gn3 
	.byte	W24
	.byte	W60
	.byte		        Cn4 
	.byte	W12
	.byte		        Dn4 
	.byte	W24
	.byte		VOL   , 78*seq_029_mvl/mxv
	.byte		N16   , Gn3 
	.byte	W18
	.byte		N04
	.byte	W18
	.byte		N09   , En3 
	.byte	W12
	.byte		N16   , Gn3 
	.byte	W18
	.byte		N04
	.byte	W18
	.byte		N09   , As3 
	.byte	W12
	.byte		N16   , Gn3 
	.byte	W18
	.byte		N04
	.byte	W12
	.byte		N06   , Dn3 
	.byte	W06
	.byte		        En3 
	.byte	W06
	.byte		N05   , Dn3 
	.byte	W06
	.byte		N06   , Fn3 
	.byte	W06
	.byte		        Dn3 
	.byte	W06
	.byte		N05   , Fn3 
	.byte	W12
	.byte		N06   , Gn3 
	.byte	W06
	.byte		N02   , En3 , v036
	.byte	W02
	.byte		        Cn3 , v028
	.byte	W02
	.byte		        Gn2 , v020
	.byte	W14
	.byte	GOTO
	 .word	seq_029_5 + 0x37
	.byte	W96
	.byte	FINE

@*********************** Track 07 ***********************@

seq_029_6:
	.byte	KEYSH , seq_029_key+0
	.byte		VOICE , 127
	.byte		VOL   , 100*seq_029_mvl/mxv
	.byte		PAN   , c_v+0
	.byte		N04   , Dn1 , v120
	.byte	W04
	.byte		        Cn2 , v100
	.byte	W04
	.byte		        An1 
	.byte	W04
	.byte		N06   , Fn1 
	.byte	W06
	.byte		        Dn1 , v120
	.byte	W06
	.byte		N12   , Cn1 , v112
	.byte		N24   , An2 , v100
	.byte		N02   , As3 , v052
	.byte	W06
	.byte		        As3 , v036
	.byte	W06
	.byte		N02
	.byte	W06
	.byte		        As3 , v052
	.byte	W06
	.byte		N12   , Bn0 , v112
	.byte		N02   , As3 , v028
	.byte	W06
	.byte		        As3 , v036
	.byte	W06
	.byte		N12   , Dn1 , v120
	.byte		N02   , As3 , v052
	.byte	W06
	.byte		        As3 , v032
	.byte	W06
	.byte		N12   , Cn1 , v127
	.byte		N02   , As3 , v052
	.byte	W06
	.byte		        As3 , v036
	.byte	W06
	.byte		N02
	.byte	W06
	.byte		N06   , Bn0 , v112
	.byte		N02   , As3 , v052
	.byte	W06
	.byte		N12   , Dn1 , v120
	.byte		N02   , As3 , v028
	.byte	W06
	.byte		        As3 , v032
	.byte	W06
	.byte		N12   , Bn0 , v112
	.byte		N02   , As3 , v052
	.byte	W06
	.byte		        As3 , v036
	.byte	W06
	.byte		N12   , Cn1 , v127
	.byte		N02   , As3 , v052
	.byte	W06
	.byte		        As3 , v036
	.byte	W06
	.byte		N02
	.byte	W06
	.byte		N06   , Dn1 , v120
	.byte		N02   , As3 , v052
	.byte	W06
	.byte		N12   , Bn0 , v112
	.byte		N02   , As3 , v032
	.byte	W06
	.byte		N02
	.byte	W06
	.byte		N12   , Dn1 , v120
	.byte		N02   , As3 , v052
	.byte	W06
	.byte		        As3 , v032
	.byte	W06
	.byte		N12   , Bn0 , v112
	.byte		N02   , As3 , v052
	.byte	W06
	.byte		        As3 , v028
	.byte	W06
	.byte		        As3 , v036
	.byte	W06
	.byte		        As3 , v032
	.byte	W06
	.byte		        As3 , v040
	.byte		N06   , Fs4 , v100
	.byte	W06
	.byte		N03   , Dn1 , v096
	.byte		N02   , As3 , v028
	.byte	W03
	.byte		N03   , Dn1 , v112
	.byte	W03
	.byte		N06   , Dn1 , v120
	.byte		N02   , As3 , v036
	.byte	W06
	.byte		N06   , Dn1 , v120
	.byte		N02   , As3 , v032
	.byte	W06
	.byte	PEND
	.byte		N12   , Cn1 , v127
	.byte		N02   , As3 , v052
	.byte	W06
	.byte		        As3 , v036
	.byte	W06
	.byte		N02
	.byte	W06
	.byte		N06   , Dn1 , v120
	.byte		N02   , As3 , v052
	.byte	W06
	.byte		N11   , Bn0 , v112
	.byte		N02   , As3 , v028
	.byte	W06
	.byte		        As3 , v036
	.byte	W06
	.byte		        As3 , v052
	.byte	W06
	.byte		        As3 , v032
	.byte	W06
	.byte		N06   , Cn1 , v127
	.byte		N02   , As3 , v052
	.byte	W06
	.byte		N12   , Dn1 , v120
	.byte		N02   , As3 , v036
	.byte	W06
	.byte		N02
	.byte	W06
	.byte		N06   , Bn0 , v112
	.byte		N02   , As3 , v052
	.byte	W06
	.byte		N12   , Dn1 , v120
	.byte		N02   , As3 , v028
	.byte	W06
	.byte		        As3 , v032
	.byte	W06
	.byte		N12   , Bn0 , v112
	.byte		N02   , As3 , v052
	.byte	W06
	.byte		        As3 , v036
	.byte	W06
	.byte		N12   , Bn0 , v112
	.byte		N02   , As3 , v052
	.byte	W06
	.byte		        As3 , v036
	.byte	W06
	.byte		N02
	.byte	W06
	.byte		        As3 , v052
	.byte	W06
	.byte		N12   , Dn1 , v120
	.byte		N02   , As3 , v032
	.byte	W06
	.byte		N02
	.byte	W06
	.byte		        As3 , v052
	.byte	W06
	.byte		N06   , Dn1 , v120
	.byte		N02   , As3 , v032
	.byte	W06
	.byte		N06   , Cn1 , v127
	.byte		N02   , As3 , v052
	.byte	W06
	.byte		N03   , Dn1 , v096
	.byte		N02   , As3 , v040
	.byte	W03
	.byte		N03   , Dn1 , v112
	.byte	W03
	.byte		N12   , Dn1 , v120
	.byte		N02   , As3 , v036
	.byte	W06
	.byte		        As3 , v032
	.byte	W06
	.byte		N12   , Bn0 , v112
	.byte		N02   , As3 , v040
	.byte	W06
	.byte		        As3 , v028
	.byte	W06
	.byte		        As3 , v036
	.byte		N12   , Fs4 , v100
	.byte	W06
	.byte		N02   , As3 , v032
	.byte	W06
	.byte		N12   , Bn0 , v112
	.byte		N24   , An2 , v100
	.byte		N02   , As3 , v052
	.byte	W06
	.byte		        As3 , v036
	.byte	W06
	.byte		N02
	.byte	W06
	.byte		        As3 , v052
	.byte	W06
	.byte		N12   , Bn0 , v112
	.byte		N02   , As3 , v028
	.byte	W06
	.byte		        As3 , v036
	.byte	W06
	.byte		N12   , Dn1 , v120
	.byte		N02   , As3 , v052
	.byte	W06
	.byte		        As3 , v032
	.byte	W06
	.byte		N12   , Cn1 , v127
	.byte		N02   , As3 , v052
	.byte	W06
	.byte		        As3 , v036
	.byte	W06
	.byte		N02
	.byte	W06
	.byte		N06   , Bn0 , v112
	.byte		N02   , As3 , v052
	.byte	W06
	.byte		N12   , Dn1 , v120
	.byte		N02   , As3 , v028
	.byte	W06
	.byte		        As3 , v032
	.byte	W06
	.byte		N12   , Bn0 , v112
	.byte		N02   , As3 , v052
	.byte	W06
	.byte		        As3 , v036
	.byte	W06
	.byte	PEND
	.byte		N12   , Cn1 , v127
	.byte		N02   , As3 , v052
	.byte	W06
	.byte		        As3 , v036
	.byte	W06
	.byte		N02
	.byte	W06
	.byte		N06   , Dn1 , v120
	.byte		N02   , As3 , v052
	.byte	W06
	.byte		N12   , Bn0 , v112
	.byte		N02   , As3 , v032
	.byte	W06
	.byte		N02
	.byte	W06
	.byte		N12   , Dn1 , v120
	.byte		N02   , As3 , v052
	.byte	W06
	.byte		        As3 , v032
	.byte	W06
	.byte		N12   , Bn0 , v112
	.byte		N02   , As3 , v052
	.byte	W06
	.byte		        As3 , v028
	.byte	W06
	.byte		        As3 , v036
	.byte	W06
	.byte		        As3 , v032
	.byte	W06
	.byte		        As3 , v040
	.byte		N06   , Fs4 , v100
	.byte	W06
	.byte		N03   , Dn1 
	.byte		N02   , As3 , v028
	.byte	W03
	.byte		N03   , Dn1 , v112
	.byte	W03
	.byte		N12   , Dn1 , v120
	.byte		N02   , As3 , v036
	.byte	W06
	.byte		        As3 , v032
	.byte	W06
	.byte		N12   , Cn1 , v127
	.byte		N02   , As3 , v052
	.byte	W06
	.byte		        As3 , v036
	.byte	W06
	.byte		N02
	.byte	W06
	.byte		N06   , Dn1 , v120
	.byte		N02   , As3 , v052
	.byte	W06
	.byte		N12   , Bn0 , v112
	.byte		N02   , As3 , v028
	.byte	W06
	.byte		        As3 , v036
	.byte	W06
	.byte		        As3 , v052
	.byte	W06
	.byte		        As3 , v032
	.byte	W06
	.byte		N06   , Cn1 , v127
	.byte		N02   , As3 , v052
	.byte	W06
	.byte		N12   , Dn1 , v120
	.byte		N02   , As3 , v036
	.byte	W06
	.byte		N02
	.byte	W06
	.byte		N06   , Bn0 , v112
	.byte		N02   , As3 , v052
	.byte	W06
	.byte		N12   , Dn1 , v120
	.byte		N02   , As3 , v028
	.byte	W06
	.byte		        As3 , v032
	.byte	W06
	.byte		N12   , Bn0 , v112
	.byte		N02   , As3 , v052
	.byte	W06
	.byte		        As3 , v036
	.byte	W06
	.byte	PEND
	.byte		N12   , Bn0 , v112
	.byte		N02   , As3 , v052
	.byte	W06
	.byte		        As3 , v036
	.byte	W06
	.byte		N02
	.byte	W06
	.byte		        As3 , v052
	.byte	W06
	.byte		N12   , Dn1 , v120
	.byte		N02   , As3 , v032
	.byte	W06
	.byte		N02
	.byte	W06
	.byte		        As3 , v052
	.byte	W06
	.byte		N06   , Dn1 , v120
	.byte		N02   , As3 , v032
	.byte	W06
	.byte		N06   , Cn1 , v127
	.byte		N02   , As3 , v052
	.byte	W06
	.byte		N03   , Dn1 , v092
	.byte		N02   , As3 , v040
	.byte	W03
	.byte		N03   , Dn1 , v108
	.byte	W03
	.byte		N12   , Dn1 , v120
	.byte		N02   , As3 , v036
	.byte	W06
	.byte		        As3 , v032
	.byte	W06
	.byte		        As3 , v040
	.byte		N12   , Gn4 , v100
	.byte	W06
	.byte		N02   , As3 , v028
	.byte	W06
	.byte		N06   , Dn1 , v120
	.byte		N02   , As3 , v036
	.byte	W06
	.byte		N06   , Dn1 , v120
	.byte		N02   , As3 , v032
	.byte	W06
	.byte	PATT
	 .word	seq_029_6 + 0x15A
	.byte	PATT
	 .word	seq_029_6 + 0x64
	.byte	PATT
	 .word	seq_029_6 + 0x1F8
	.byte		N12   , Bn0 , v112
	.byte		N02   , As3 , v052
	.byte	W06
	.byte		        As3 , v036
	.byte	W06
	.byte		N02
	.byte	W06
	.byte		        As3 , v052
	.byte	W06
	.byte		N12   , Dn1 , v120
	.byte		N02   , As3 , v032
	.byte	W06
	.byte		N02
	.byte	W06
	.byte		        As3 , v052
	.byte	W06
	.byte		N06   , Dn1 , v120
	.byte		N02   , As3 , v032
	.byte	W06
	.byte		N06   , Cn1 , v127
	.byte		N02   , As3 , v052
	.byte	W06
	.byte		N03   , Dn1 , v092
	.byte		N02   , As3 , v040
	.byte	W03
	.byte		N03   , Dn1 , v112
	.byte	W03
	.byte		N12   , Dn1 , v120
	.byte		N02   , As3 , v036
	.byte	W06
	.byte		        As3 , v032
	.byte	W06
	.byte		N12   , Bn0 , v112
	.byte		N02   , As3 , v040
	.byte	W06
	.byte		        As3 , v028
	.byte	W06
	.byte		N06   , Dn1 , v120
	.byte		N02   , As3 , v036
	.byte	W06
	.byte		N06   , Dn1 , v120
	.byte		N02   , As3 , v032
	.byte	W06
	.byte		N13   , Cn1 , v127
	.byte		N02   , As3 , v052
	.byte	W06
	.byte		        As3 , v036
	.byte	W06
	.byte		N02
	.byte	W06
	.byte		        As3 , v052
	.byte	W06
	.byte		N13   , Cn1 , v127
	.byte		N02   , As3 , v032
	.byte	W06
	.byte		N02
	.byte	W06
	.byte		        As3 , v052
	.byte	W06
	.byte		        As3 , v032
	.byte	W06
	.byte		N13   , Cn1 , v127
	.byte		N02   , As3 , v052
	.byte	W06
	.byte		        As3 , v028
	.byte	W06
	.byte		        As3 , v036
	.byte	W06
	.byte		        As3 , v032
	.byte	W06
	.byte		N13   , Cn1 , v127
	.byte		N02   , As3 , v040
	.byte	W06
	.byte		        As3 , v028
	.byte	W06
	.byte		        As3 , v036
	.byte	W06
	.byte		        As3 , v032
	.byte	W06
	.byte		N24   , Gn2 , v112
	.byte		N02   , As3 , v052
	.byte	W06
	.byte		        As3 , v036
	.byte	W06
	.byte		N02
	.byte	W06
	.byte		        As3 , v052
	.byte	W06
	.byte		N12   , Cn1 , v127
	.byte		N02   , As3 , v032
	.byte	W06
	.byte		N02
	.byte	W06
	.byte		        As3 , v052
	.byte	W06
	.byte		        As3 , v032
	.byte	W06
	.byte		N24   , Gn2 , v112
	.byte		N02   , As3 , v052
	.byte	W06
	.byte		        As3 , v028
	.byte	W06
	.byte		        As3 , v036
	.byte	W06
	.byte		        As3 , v032
	.byte	W06
	.byte		N04   , Cn1 , v127
	.byte		N02   , As3 , v040
	.byte	W04
	.byte		N04   , Dn1 , v120
	.byte	W02
	.byte		N02   , As3 , v028
	.byte	W02
	.byte		N04   , Dn1 , v120
	.byte	W04
	.byte		N08   , Cn2 , v100
	.byte		N02   , As3 , v036
	.byte	W06
	.byte		        As3 , v032
	.byte	W02
	.byte		N04   , Fn1 , v100
	.byte	W04
	.byte		N12   , Bn0 , v112
	.byte		N24   , An2 , v100
	.byte		N02   , As3 , v052
	.byte	W06
	.byte		        As3 , v036
	.byte	W06
	.byte		N02
	.byte	W06
	.byte		        As3 , v052
	.byte	W06
	.byte		N06   , Bn0 , v112
	.byte		N02   , As3 , v028
	.byte	W06
	.byte		        As3 , v036
	.byte	W06
	.byte		N06   , Dn1 , v120
	.byte		N02   , As3 , v052
	.byte	W06
	.byte		        As3 , v032
	.byte	W06
	.byte		N06   , Cn1 , v127
	.byte		N02   , As3 , v052
	.byte	W06
	.byte		        As3 , v036
	.byte	W06
	.byte		N02
	.byte	W06
	.byte		N06   , Bn0 , v112
	.byte		N02   , As3 , v052
	.byte	W06
	.byte		N06   , Dn1 , v120
	.byte		N02   , As3 , v028
	.byte	W06
	.byte		        As3 , v032
	.byte	W06
	.byte		N06   , Bn0 , v112
	.byte		N02   , As3 , v052
	.byte	W06
	.byte		        As3 , v036
	.byte	W06
	.byte		N06   , Cn1 , v127
	.byte		N02   , As3 , v052
	.byte	W06
	.byte		        As3 , v036
	.byte	W06
	.byte		N02
	.byte	W06
	.byte		N06   , Dn1 , v120
	.byte		N02   , As3 , v052
	.byte	W06
	.byte		N06   , Bn0 , v112
	.byte		N02   , As3 , v032
	.byte	W06
	.byte		N02
	.byte	W06
	.byte		N06   , Dn1 , v120
	.byte		N02   , As3 , v052
	.byte	W06
	.byte		        As3 , v032
	.byte	W06
	.byte		N06   , Bn0 , v112
	.byte		N02   , As3 , v052
	.byte	W06
	.byte		        As3 , v028
	.byte	W06
	.byte		        As3 , v036
	.byte	W06
	.byte		        As3 , v032
	.byte	W06
	.byte		        As3 , v040
	.byte		N04   , Gn6 , v100
	.byte	W04
	.byte		N04
	.byte	W02
	.byte		N02   , As3 , v028
	.byte	W02
	.byte		N04   , Gn6 , v100
	.byte	W04
	.byte		N06   , En3 
	.byte		N02   , As3 , v036
	.byte	W06
	.byte		        As3 , v032
	.byte		N06   , Gn6 , v100
	.byte	W06
	.byte		N24   , An2 , v100
	.byte		N06   , En3 
	.byte		N02   , As3 , v052
	.byte	W06
	.byte		N06   , En3 , v100
	.byte		N02   , As3 , v036
	.byte	W06
	.byte		N02
	.byte	W06
	.byte		N06   , Ds3 , v100
	.byte		N02   , As3 , v052
	.byte	W06
	.byte		N06   , Bn0 , v112
	.byte		N02   , As3 , v028
	.byte	W06
	.byte		        As3 , v036
	.byte		N06   , Gn6 , v100
	.byte	W06
	.byte		        Ds3 
	.byte		N02   , As3 , v052
	.byte	W06
	.byte		N06   , En3 , v100
	.byte		N02   , As3 , v032
	.byte	W06
	.byte		N06   , En3 , v100
	.byte		N02   , As3 , v052
	.byte	W06
	.byte		N06   , En3 , v100
	.byte		N02   , As3 , v036
	.byte	W06
	.byte		N02
	.byte		N06   , Gn6 , v100
	.byte	W06
	.byte		        En3 
	.byte		N02   , As3 , v052
	.byte	W06
	.byte		N06   , Bn0 , v112
	.byte		N02   , As3 , v028
	.byte	W06
	.byte		N06   , Ds3 , v100
	.byte		N02   , As3 , v032
	.byte	W06
	.byte		        As3 , v052
	.byte		N06   , Gn6 , v100
	.byte	W06
	.byte		        En3 
	.byte		N02   , As3 , v036
	.byte	W06
	.byte	PEND
	.byte		N06   , Ds3 , v100
	.byte		N02   , As3 , v052
	.byte	W06
	.byte		N06   , En3 , v100
	.byte		N02   , As3 , v036
	.byte	W06
	.byte		N02
	.byte	W06
	.byte		N06   , Ds3 , v100
	.byte		N02   , As3 , v052
	.byte	W06
	.byte		N06   , Bn0 , v112
	.byte		N02   , As3 , v032
	.byte	W06
	.byte		N02
	.byte		N06   , Gn6 , v100
	.byte	W06
	.byte		        Ds3 
	.byte		N02   , As3 , v052
	.byte	W06
	.byte		N06   , En3 , v100
	.byte		N02   , As3 , v032
	.byte	W06
	.byte		N06   , En3 , v100
	.byte		N02   , As3 , v052
	.byte	W06
	.byte		N06   , Bn0 , v112
	.byte		N02   , As3 , v028
	.byte	W06
	.byte		        As3 , v036
	.byte		N06   , Gn6 , v100
	.byte	W06
	.byte		N02   , As3 , v032
	.byte		N06   , Gn6 , v100
	.byte	W06
	.byte		        Bn0 , v112
	.byte		N02   , As3 , v040
	.byte	W06
	.byte		N06   , Ds3 , v100
	.byte		N02   , As3 , v028
	.byte	W06
	.byte		        As3 , v036
	.byte		N06   , Gn6 , v100
	.byte	W06
	.byte		        En3 
	.byte		N02   , As3 , v032
	.byte	W06
	.byte	PEND
	.byte		N06   , En3 , v100
	.byte		N02   , As3 , v052
	.byte	W06
	.byte		N06   , En3 , v100
	.byte		N02   , As3 , v036
	.byte	W06
	.byte		N02
	.byte	W06
	.byte		N06   , Ds3 , v100
	.byte		N02   , As3 , v052
	.byte	W06
	.byte		N06   , Bn0 , v112
	.byte		N02   , As3 , v028
	.byte	W06
	.byte		        As3 , v036
	.byte		N06   , Gn6 , v100
	.byte	W06
	.byte		        Ds3 
	.byte		N02   , As3 , v052
	.byte	W06
	.byte		N06   , En3 , v100
	.byte		N02   , As3 , v032
	.byte	W06
	.byte		N06   , En3 , v100
	.byte		N02   , As3 , v052
	.byte	W06
	.byte		N06   , En3 , v100
	.byte		N02   , As3 , v036
	.byte	W06
	.byte		N02
	.byte		N06   , Gn6 , v100
	.byte	W06
	.byte		        En3 
	.byte		N02   , As3 , v052
	.byte	W06
	.byte		N06   , Bn0 , v112
	.byte		N02   , As3 , v028
	.byte	W06
	.byte		        As3 , v032
	.byte		N06   , Gn6 , v100
	.byte	W06
	.byte		        En3 
	.byte		N02   , As3 , v052
	.byte	W06
	.byte		N06   , Ds3 , v100
	.byte		N02   , As3 , v036
	.byte	W06
	.byte	PEND
	.byte		N06   , En3 , v100
	.byte		N02   , As3 , v052
	.byte	W06
	.byte		        As3 , v036
	.byte		N06   , Gn6 , v100
	.byte	W06
	.byte		N02   , As3 , v036
	.byte	W06
	.byte		N06   , Ds3 , v100
	.byte		N02   , As3 , v052
	.byte	W06
	.byte		N06   , Bn0 , v112
	.byte		N02   , As3 , v032
	.byte	W06
	.byte		N02
	.byte		N06   , Gn6 , v100
	.byte	W06
	.byte		        Ds3 
	.byte		N02   , As3 , v052
	.byte	W06
	.byte		N06   , En3 , v100
	.byte		N02   , As3 , v032
	.byte	W06
	.byte		N06   , En3 , v100
	.byte		N02   , As3 , v052
	.byte	W06
	.byte		N06   , Bn0 , v112
	.byte		N02   , As3 , v028
	.byte	W06
	.byte		        As3 , v036
	.byte		N06   , Gn6 , v100
	.byte	W06
	.byte		N02   , As3 , v032
	.byte		N06   , Gn6 , v100
	.byte	W06
	.byte		N04   , Ds3 
	.byte		N02   , As3 , v040
	.byte	W04
	.byte		N04   , Dn1 , v100
	.byte	W02
	.byte		N02   , As3 , v028
	.byte	W02
	.byte		N04   , Dn1 , v120
	.byte	W04
	.byte		N06   , En3 , v100
	.byte		N02   , As3 , v036
	.byte	W06
	.byte		N06   , Dn1 , v120
	.byte		N06   , Ds3 , v100
	.byte		N02   , As3 , v032
	.byte	W06
	.byte		        As3 , v052
	.byte		N06   , Gn6 , v100
	.byte	W06
	.byte		N02   , As3 , v036
	.byte	W06
	.byte		N02
	.byte	W06
	.byte		N06   , Dn1 , v120
	.byte		N02   , As3 , v052
	.byte	W06
	.byte		        As3 , v032
	.byte		N06   , Gn6 , v100
	.byte	W06
	.byte		N02   , As3 , v032
	.byte	W06
	.byte		N06   , Bn0 , v112
	.byte		N02   , As3 , v052
	.byte	W06
	.byte		        As3 , v032
	.byte	W06
	.byte		        As3 , v052
	.byte		N06   , Gn6 , v100
	.byte	W06
	.byte		        Dn1 , v120
	.byte		N02   , As3 , v028
	.byte	W06
	.byte		        As3 , v036
	.byte	W06
	.byte		        As3 , v032
	.byte	W02
	.byte		N04   , Gn6 , v100
	.byte	W04
	.byte		N06   , Bn0 , v112
	.byte		N06   , Dn1 
	.byte		N02   , As3 , v040
	.byte	W06
	.byte		        As3 , v028
	.byte	W06
	.byte		        As3 , v036
	.byte		N06   , Gn6 , v100
	.byte	W06
	.byte		        Dn1 , v120
	.byte		N02   , As3 , v032
	.byte	W06
	.byte		        As3 , v052
	.byte		N06   , Gn6 , v100
	.byte	W06
	.byte		N02   , As3 , v036
	.byte	W06
	.byte		N06   , Dn1 , v120
	.byte		N02   , As3 , v036
	.byte	W06
	.byte		N06   , Bn0 , v112
	.byte		N02   , As3 , v052
	.byte	W06
	.byte		        As3 , v032
	.byte		N06   , Gn6 , v100
	.byte	W06
	.byte		N02   , As3 , v032
	.byte	W06
	.byte		N06   , Bn0 , v112
	.byte		N02   , As3 , v052
	.byte	W06
	.byte		N06   , Dn1 , v120
	.byte		N02   , As3 , v032
	.byte	W06
	.byte		        As3 , v052
	.byte		N06   , Gn6 , v100
	.byte	W06
	.byte		N03   , Dn1 , v120
	.byte		N02   , As3 , v028
	.byte	W03
	.byte		N03   , Dn1 , v120
	.byte	W03
	.byte		N06   , Bn0 , v112
	.byte		N02   , As3 , v036
	.byte	W06
	.byte		N06   , Dn1 , v112
	.byte		N02   , As3 , v032
	.byte		N06   , Gn6 , v100
	.byte	W06
	.byte		        Bn0 , v112
	.byte		N02   , As3 , v040
	.byte	W06
	.byte		N06   , Dn1 , v112
	.byte		N02   , As3 , v028
	.byte		N03   , Gn6 , v100
	.byte	W03
	.byte		N03
	.byte	W03
	.byte		N06   , En3 
	.byte		N02   , As3 , v036
	.byte	W06
	.byte		N06   , Dn1 , v112
	.byte		N02   , As3 , v032
	.byte		N06   , Gn6 , v100
	.byte	W06
	.byte	PATT
	 .word	seq_029_6 + 0x42E
	.byte	PATT
	 .word	seq_029_6 + 0x492
	.byte	PATT
	 .word	seq_029_6 + 0x4F5
	.byte		N06   , En3 , v100
	.byte		N02   , As3 , v052
	.byte	W06
	.byte		        As3 , v036
	.byte		N06   , Gn6 , v100
	.byte	W06
	.byte		N02   , As3 , v036
	.byte	W06
	.byte		N06   , Ds3 , v100
	.byte		N02   , As3 , v052
	.byte	W06
	.byte		N06   , Bn0 , v112
	.byte		N02   , As3 , v032
	.byte	W06
	.byte		N02
	.byte		N06   , Gn6 , v100
	.byte	W06
	.byte		        Ds3 
	.byte		N02   , As3 , v052
	.byte	W06
	.byte		N06   , En3 , v100
	.byte		N02   , As3 , v032
	.byte	W06
	.byte		N06   , En3 , v100
	.byte		N02   , As3 , v052
	.byte	W06
	.byte		N06   , Bn0 , v112
	.byte		N02   , As3 , v028
	.byte	W06
	.byte		        As3 , v036
	.byte		N06   , Gn6 , v100
	.byte	W06
	.byte		N02   , As3 , v032
	.byte		N06   , Gn6 , v100
	.byte	W06
	.byte		N03   , Ds3 
	.byte		N02   , As3 , v040
	.byte	W03
	.byte		N03   , Ds3 , v100
	.byte	W03
	.byte		        Dn1 
	.byte		N02   , As3 , v028
	.byte	W03
	.byte		N03   , Dn1 , v112
	.byte	W03
	.byte		N06   , En3 , v100
	.byte		N02   , As3 , v036
	.byte	W06
	.byte		N06   , Dn1 , v120
	.byte		N02   , As3 , v032
	.byte	W06
	.byte		        As3 , v052
	.byte		N06   , Gn6 , v100
	.byte	W06
	.byte		N02   , As3 , v036
	.byte	W06
	.byte		N02
	.byte	W06
	.byte		N06   , Dn1 , v120
	.byte		N02   , As3 , v052
	.byte	W06
	.byte		N06   , Bn0 , v112
	.byte		N02   , As3 , v032
	.byte		N06   , Gn6 , v100
	.byte	W06
	.byte		N02   , As3 , v032
	.byte	W06
	.byte		        As3 , v052
	.byte	W06
	.byte		        As3 , v032
	.byte	W06
	.byte		        As3 , v052
	.byte		N06   , Gn6 , v100
	.byte	W06
	.byte		        Dn1 , v120
	.byte		N02   , As3 , v028
	.byte	W06
	.byte		        As3 , v036
	.byte	W06
	.byte		        As3 , v032
	.byte	W02
	.byte		N04   , Gn6 , v100
	.byte	W04
	.byte		N06   , Bn0 , v112
	.byte		N06   , Dn1 
	.byte		N02   , As3 , v040
	.byte	W06
	.byte		        As3 , v028
	.byte	W06
	.byte		        As3 , v036
	.byte		N06   , Gn6 , v100
	.byte	W06
	.byte		N02   , As3 , v032
	.byte	W06
	.byte		N06   , Bn0 , v112
	.byte		N02   , As3 , v052
	.byte		N06   , Gn6 , v100
	.byte	W06
	.byte		N02   , As3 , v036
	.byte	W06
	.byte		N02
	.byte	W06
	.byte		        As3 , v052
	.byte	W06
	.byte		N06   , Dn1 , v120
	.byte		N02   , As3 , v032
	.byte		N06   , Gn6 , v100
	.byte	W06
	.byte		N02   , As3 , v032
	.byte	W06
	.byte		        As3 , v052
	.byte	W06
	.byte		N06   , Dn1 , v120
	.byte		N02   , As3 , v032
	.byte	W06
	.byte		N06   , Cn1 , v127
	.byte		N02   , As3 , v052
	.byte		N06   , Gn6 , v100
	.byte	W06
	.byte		N03   , Dn1 , v120
	.byte		N02   , As3 , v028
	.byte	W03
	.byte		N03   , Dn1 , v120
	.byte	W03
	.byte		N06
	.byte		N02   , As3 , v036
	.byte	W06
	.byte		        As3 , v032
	.byte	W02
	.byte		N04   , Gn6 , v100
	.byte	W04
	.byte		N06   , Cn1 , v127
	.byte		N02   , As3 , v040
	.byte		N06   , Gn6 , v100
	.byte	W06
	.byte		N02   , As3 , v028
	.byte	W06
	.byte		N06   , Dn1 , v120
	.byte		N02   , As3 , v036
	.byte	W06
	.byte		N06   , Dn1 , v120
	.byte		N02   , As3 , v032
	.byte	W06
	.byte		N24   , An2 , v100
	.byte		N02   , As3 , v052
	.byte	W06
	.byte		        As3 , v036
	.byte	W06
	.byte		N02
	.byte	W06
	.byte		        As3 , v052
	.byte	W06
	.byte		N12   , Cn1 , v127
	.byte		N02   , As3 , v032
	.byte	W06
	.byte		N02
	.byte	W06
	.byte		        As3 , v052
	.byte	W06
	.byte		        As3 , v032
	.byte	W06
	.byte		N24   , Cs2 , v100
	.byte		N02   , As3 , v052
	.byte	W06
	.byte		        As3 , v028
	.byte	W06
	.byte		        As3 , v036
	.byte	W06
	.byte		        As3 , v032
	.byte	W06
	.byte		N12   , Cn1 , v127
	.byte		N02   , As3 , v040
	.byte	W06
	.byte		        As3 , v028
	.byte	W06
	.byte		        As3 , v036
	.byte	W06
	.byte		        As3 , v032
	.byte	W06
	.byte		N24   , An2 , v100
	.byte		N02   , As3 , v052
	.byte	W06
	.byte		        As3 , v036
	.byte	W06
	.byte		N02
	.byte	W06
	.byte		        As3 , v052
	.byte	W06
	.byte		N06   , Bn0 , v112
	.byte		N02   , As3 , v032
	.byte	W06
	.byte		N06   , Dn1 , v120
	.byte		N02   , As3 , v032
	.byte	W06
	.byte		N12   , Cn1 , v127
	.byte		N02   , As3 , v052
	.byte	W06
	.byte		        As3 , v032
	.byte	W06
	.byte		N06   , Cn1 , v127
	.byte		N02   , As3 , v052
	.byte	W06
	.byte		N06   , Dn1 , v120
	.byte		N02   , As3 , v028
	.byte	W06
	.byte		N06   , Bn0 , v112
	.byte		N02   , As3 , v036
	.byte	W06
	.byte		N06   , Dn1 , v092
	.byte		N02   , As3 , v032
	.byte	W06
	.byte		N12   , Bn0 , v112
	.byte		N02   , As3 , v040
	.byte	W06
	.byte		        As3 , v028
	.byte	W06
	.byte		        As3 , v036
	.byte	W06
	.byte		N06   , Dn1 , v120
	.byte		N02   , As3 , v032
	.byte	W06
	.byte		N12   , Cn1 , v127
	.byte		N02   , As3 , v052
	.byte	W06
	.byte		        As3 , v036
	.byte	W06
	.byte		N02
	.byte	W06
	.byte		N06   , Cn1 , v127
	.byte		N02   , As3 , v052
	.byte	W06
	.byte		N06   , Bn0 , v112
	.byte		N02   , As3 , v032
	.byte	W06
	.byte		N12   , Dn1 , v120
	.byte		N02   , As3 , v032
	.byte	W06
	.byte		        As3 , v052
	.byte	W06
	.byte		N12   , Bn0 , v112
	.byte		N02   , As3 , v032
	.byte	W06
	.byte		        As3 , v052
	.byte	W06
	.byte		N06   , Dn1 , v120
	.byte		N02   , As3 , v028
	.byte	W06
	.byte		N12   , Bn0 , v112
	.byte		N02   , As3 , v036
	.byte	W06
	.byte		        As3 , v032
	.byte	W06
	.byte		N03   , Cn2 , v100
	.byte		N02   , As3 , v040
	.byte	W03
	.byte		N03   , Cn2 , v100
	.byte	W03
	.byte		N06   , An1 
	.byte		N02   , As3 , v028
	.byte	W06
	.byte		N06   , Fn1 , v100
	.byte		N02   , As3 , v036
	.byte	W06
	.byte		N06   , Dn1 , v120
	.byte		N02   , As3 , v032
	.byte	W06
	.byte		N18   , An2 , v100
	.byte		N02   , As3 , v052
	.byte	W06
	.byte		        As3 , v036
	.byte	W06
	.byte		N02
	.byte	W06
	.byte		N06   , Dn1 , v120
	.byte		N02   , As3 , v052
	.byte	W06
	.byte		N06   , Cn1 , v127
	.byte		N02   , As3 , v032
	.byte	W06
	.byte		N06   , Cn1 , v127
	.byte		N02   , As3 , v032
	.byte	W06
	.byte		N06   , Dn1 , v120
	.byte		N02   , As3 , v052
	.byte	W06
	.byte		N06   , Cn1 , v127
	.byte		N02   , As3 , v032
	.byte	W06
	.byte		N24   , An2 , v100
	.byte		N02   , As3 , v052
	.byte	W06
	.byte		        As3 , v028
	.byte	W06
	.byte		        As3 , v036
	.byte	W06
	.byte		        As3 , v032
	.byte	W06
	.byte		N06   , Dn1 , v092
	.byte		N02   , As3 , v040
	.byte	W06
	.byte		N06   , Dn1 , v108
	.byte		N02   , As3 , v028
	.byte	W06
	.byte		N06   , Dn1 , v124
	.byte		N02   , As3 , v036
	.byte	W06
	.byte		N06   , Dn1 , v127
	.byte		N02   , As3 , v032
	.byte	W06
	.byte		N12   , Dn1 , v127
	.byte		N18   , An2 , v100
	.byte		N02   , As3 , v052
	.byte	W06
	.byte		        As3 , v036
	.byte	W06
	.byte		N02
	.byte	W06
	.byte		N12   , Dn1 , v127
	.byte		N18   , Cs2 , v100
	.byte		N02   , As3 , v052
	.byte	W06
	.byte		        As3 , v032
	.byte	W06
	.byte		N02
	.byte	W06
	.byte		N12   , Dn1 , v127
	.byte		N24   , An2 , v100
	.byte		N02   , As3 , v052
	.byte	W06
	.byte		        As3 , v032
	.byte	W06
	.byte		N06   , Dn1 , v120
	.byte		N02   , As3 , v052
	.byte	W06
	.byte		N06   , Cn1 , v127
	.byte		N02   , As3 , v028
	.byte	W06
	.byte		N06   , Dn1 , v120
	.byte		N02   , As3 , v036
	.byte	W06
	.byte		N12   , Cn1 , v127
	.byte		N02   , As3 , v032
	.byte	W06
	.byte		        As3 , v040
	.byte	W06
	.byte		N03   , Dn1 , v108
	.byte		N02   , As3 , v044
	.byte	W03
	.byte		N03   , Dn1 , v108
	.byte	W03
	.byte		N06   , Dn1 , v127
	.byte		N02   , As3 , v052
	.byte	W06
	.byte		N06   , Dn1 , v127
	.byte		N02   , As3 , v056
	.byte	W06
	.byte	GOTO
	 .word	seq_029_6 + 0x15A
	.byte	W96
	.byte	FINE

@******************************************************@

	.align	2

seq_029:
	.byte	7	@ NumTrks
	.byte	0	@ NumBlks
	.byte	seq_029_pri	@ Priority
	.byte	seq_029_rev	@ Reverb

	.word	seq_029_grp

	.word	seq_029_0
	.word	seq_029_1
	.word	seq_029_2
	.word	seq_029_3
	.word	seq_029_4
	.word	seq_029_5
	.word	seq_029_6

	.end
