@ File generated by m4a2s Song-Module
	.include "MPlayDef.s"

	.equ	seq_014_grp, bank_007
	.equ	seq_014_pri, 0
	.equ	seq_014_rev, 0
	.equ	seq_014_mvl, 127
	.equ	seq_014_key, 0

	.section .rodata
	.global	seq_014
	.align	2

@*********************** Track 01 ***********************@

seq_014_0:
	.byte	KEYSH , seq_014_key+0
	.byte	TEMPO , 144/2
	.byte		VOICE , 61
	.byte		VOL   , 76*seq_014_mvl/mxv
	.byte		PAN   , c_v+0
	.byte	W24
	.byte		N12   , Gn4 , v096
	.byte	W12
	.byte		N02   , En4 , v084
	.byte	W02
	.byte		        Cn4 , v080
	.byte	W02
	.byte		        Gn3 , v072
	.byte	W80
	.byte	W24
	.byte		N12   , Gn4 , v096
	.byte	W12
	.byte		N02   , En4 , v088
	.byte	W02
	.byte		        Cn4 , v080
	.byte	W02
	.byte		        Gn3 , v076
	.byte	W68
	.byte		N06   , Fn4 , v096
	.byte	W06
	.byte		        Gn4 , v112
	.byte	W06
	.byte	W24
	.byte		N12   , Gn4 , v096
	.byte	W12
	.byte		N02   , En4 , v088
	.byte	W02
	.byte		        Cn4 , v080
	.byte	W02
	.byte		        Gn3 , v072
	.byte	W80
	.byte	W24
	.byte		N12   , Gn4 , v096
	.byte	W12
	.byte		N02   , En4 , v084
	.byte	W02
	.byte		        Cn4 , v080
	.byte	W02
	.byte		        Gn3 , v072
	.byte	W68
	.byte		N06   , As4 , v096
	.byte	W06
	.byte		        Cn5 , v112
	.byte	W06
	.byte	W24
	.byte		N12   , Gn4 , v096
	.byte	W12
	.byte		N02   , En4 , v084
	.byte	W02
	.byte		        Cn4 , v076
	.byte	W02
	.byte		        Gn3 , v072
	.byte	W80
	.byte	W24
	.byte		N12   , Gn4 , v096
	.byte	W12
	.byte		N02   , En4 , v088
	.byte	W02
	.byte		        Cn4 , v084
	.byte	W02
	.byte		        Gn3 , v076
	.byte	W68
	.byte		N06   , Fn4 , v096
	.byte	W06
	.byte		        Gn4 , v108
	.byte	W06
	.byte	W24
	.byte		N12   , Gn4 , v096
	.byte	W12
	.byte		N02   , En4 
	.byte	W02
	.byte		        Cn4 
	.byte	W02
	.byte		        Gn3 
	.byte	W80
	.byte	W48
	.byte		BEND  , c_v-64
	.byte		N06   , As4 , v104
	.byte	W01
	.byte		BEND  , c_v-52
	.byte	W01
	.byte		        c_v-17
	.byte	W01
	.byte		        c_v+0
	.byte	W03
	.byte		N05   , An4 , v080
	.byte	W06
	.byte		N06   , As4 , v092
	.byte	W06
	.byte		N05   , An4 , v088
	.byte	W06
	.byte		N06   , As4 , v096
	.byte	W06
	.byte		        Bn4 , v104
	.byte	W12
	.byte		N12   , Cn5 , v112
	.byte	W12
	.byte		N02   , Gn4 , v092
	.byte	W02
	.byte		        En4 , v084
	.byte	W02
	.byte		        Cn4 , v076
	.byte	W14
	.byte	W24
	.byte		N12   , Gn4 , v096
	.byte	W12
	.byte		N02   , En4 , v088
	.byte	W02
	.byte		        Cn4 , v084
	.byte	W02
	.byte		        Gn3 
	.byte	W80
	.byte	W24
	.byte		N12   , Gn4 , v096
	.byte	W12
	.byte		N02   , En4 , v084
	.byte	W02
	.byte		        Cn4 , v076
	.byte	W02
	.byte		        Gn3 , v072
	.byte	W68
	.byte		N06   , Fn4 , v096
	.byte	W06
	.byte		        Gn4 , v108
	.byte	W06
	.byte	W24
	.byte		N12   , Gn4 , v096
	.byte	W12
	.byte		N02   , En4 , v088
	.byte	W02
	.byte		        Cn4 , v084
	.byte	W02
	.byte		        Gn3 , v080
	.byte	W80
	.byte	PEND
	.byte	PATT
	 .word	seq_014_0 + 0xD8
	.byte	W78
	.byte		N06   , An4 , v096
	.byte	W42
	.byte	W90
	.byte		N30   , Fn4 
	.byte	W24
	.byte		VOL   , 76*seq_014_mvl/mxv
	.byte	W01
	.byte		        68*seq_014_mvl/mxv
	.byte	W02
	.byte		        46*seq_014_mvl/mxv
	.byte	W02
	.byte		        11*seq_014_mvl/mxv
	.byte	W01
	.byte		        0*seq_014_mvl/mxv
	.byte	W48
	.byte		        76*seq_014_mvl/mxv
	.byte	W32
	.byte	W03
	.byte		N05   , Bn4 
	.byte	W07
	.byte		N04
	.byte	W30
	.byte	W96
	.byte		N18   , Cn4 , v092
	.byte	W18
	.byte		N06   , An3 , v088
	.byte	W18
	.byte		N36   , Fn4 , v104
	.byte	W30
	.byte		VOL   , 76*seq_014_mvl/mxv
	.byte	W01
	.byte		        68*seq_014_mvl/mxv
	.byte	W02
	.byte		        46*seq_014_mvl/mxv
	.byte	W02
	.byte		        9*seq_014_mvl/mxv
	.byte	W01
	.byte		        76*seq_014_mvl/mxv
	.byte		N18   , Dn4 , v092
	.byte	W18
	.byte		N06   , Bn3 , v080
	.byte	W18
	.byte		N84   , Gn4 , v104
	.byte	W12
	.byte	W60
	.byte		VOL   , 76*seq_014_mvl/mxv
	.byte	W01
	.byte		        72*seq_014_mvl/mxv
	.byte	W02
	.byte		        68*seq_014_mvl/mxv
	.byte	W02
	.byte		        59*seq_014_mvl/mxv
	.byte	W02
	.byte		        46*seq_014_mvl/mxv
	.byte	W02
	.byte		        30*seq_014_mvl/mxv
	.byte	W01
	.byte		        11*seq_014_mvl/mxv
	.byte	W02
	.byte		        76*seq_014_mvl/mxv
	.byte		N06   , Bn4 , v096
	.byte	W06
	.byte		N06
	.byte	W18
	.byte		N24
	.byte	W18
	.byte		VOL   , 76*seq_014_mvl/mxv
	.byte	W01
	.byte		        68*seq_014_mvl/mxv
	.byte	W02
	.byte		        46*seq_014_mvl/mxv
	.byte	W02
	.byte		        9*seq_014_mvl/mxv
	.byte	W01
	.byte		        0*seq_014_mvl/mxv
	.byte	W12
	.byte		        76*seq_014_mvl/mxv
	.byte	W12
	.byte		N12   , Gn4 
	.byte	W12
	.byte		N02   , En4 , v088
	.byte	W02
	.byte		        Cn4 , v084
	.byte	W02
	.byte		        Gn3 , v076
	.byte	W80
	.byte		BEND  , c_v+0
	.byte	W24
	.byte	GOTO
	 .word	seq_014_0 + 0x1A
	.byte	FINE

@*********************** Track 02 ***********************@

seq_014_1:
	.byte	KEYSH , seq_014_key+0
	.byte		VOICE , 101
	.byte		VOL   , 62*seq_014_mvl/mxv
	.byte		PAN   , c_v+0
	.byte	W24
	.byte		N12   , Cn4 , v048
	.byte	W12
	.byte		N02   , Gn3 , v044
	.byte	W02
	.byte		        En3 
	.byte	W02
	.byte		        Cn3 , v040
	.byte	W80
	.byte	W24
	.byte		N12   , Cn4 , v048
	.byte	W12
	.byte		N02   , Gn3 , v044
	.byte	W02
	.byte		        En3 
	.byte	W02
	.byte		        Cn3 , v040
	.byte	W68
	.byte		N06   , Cn4 , v048
	.byte	W06
	.byte		        Dn4 , v052
	.byte	W06
	.byte	W24
	.byte		N12   , Cn4 , v048
	.byte	W12
	.byte		N02   , Gn3 
	.byte	W02
	.byte		        En3 , v044
	.byte	W02
	.byte		        Cn3 
	.byte	W80
	.byte	W24
	.byte		N12   , Cn4 , v048
	.byte	W12
	.byte		N02   , Gn3 
	.byte	W02
	.byte		        En3 , v044
	.byte	W02
	.byte		        Cn3 , v040
	.byte	W68
	.byte		N06   , Fn4 , v048
	.byte	W06
	.byte		        Gn4 , v056
	.byte	W06
	.byte	W24
	.byte		N12   , Cn4 , v048
	.byte	W12
	.byte		N02   , Gn3 
	.byte	W02
	.byte		        En3 , v044
	.byte	W02
	.byte		        Cn3 , v040
	.byte	W80
	.byte	W24
	.byte		N12   , Cn4 , v048
	.byte	W12
	.byte		N02   , Gn3 
	.byte	W02
	.byte		        En3 , v044
	.byte	W02
	.byte		        Cn3 , v040
	.byte	W68
	.byte		N06   , Cn4 , v048
	.byte	W06
	.byte		        Dn4 , v052
	.byte	W06
	.byte	W24
	.byte		N12   , Cn4 , v048
	.byte	W12
	.byte		N02   , Gn3 , v044
	.byte	W02
	.byte		        En3 
	.byte	W02
	.byte		        Cn3 , v040
	.byte	W80
	.byte	PEND
	.byte	W48
	.byte		N06   , En4 , v052
	.byte	W06
	.byte		N05   , Ds4 , v044
	.byte	W06
	.byte		N06   , En4 , v048
	.byte	W06
	.byte		N05   , Ds4 , v044
	.byte	W06
	.byte		N06   , En4 , v048
	.byte	W06
	.byte		        Fn4 , v052
	.byte	W12
	.byte		N12   , Gn4 , v056
	.byte	W12
	.byte		N02   , En4 , v048
	.byte	W02
	.byte		        Cn4 
	.byte	W02
	.byte		        Gn3 
	.byte	W14
	.byte	PATT
	 .word	seq_014_1 + 0x70
	.byte	W24
	.byte		N12   , Cn4 , v048
	.byte	W12
	.byte		N02   , Gn3 , v044
	.byte	W02
	.byte		        En3 
	.byte	W02
	.byte		        Cn3 , v040
	.byte	W68
	.byte		N06   , Cn4 , v048
	.byte	W06
	.byte		        Dn4 , v052
	.byte	W06
	.byte	W24
	.byte		N12   , Cn4 , v048
	.byte	W12
	.byte		N02   , Gn3 , v044
	.byte	W02
	.byte		        En3 , v040
	.byte	W02
	.byte		        Cn3 
	.byte	W80
	.byte	PATT
	 .word	seq_014_1 + 0x70
	.byte	W78
	.byte		N06   , Fn4 , v048
	.byte	W42
	.byte	W90
	.byte		N30   , An3 
	.byte	W24
	.byte		VOL   , 62*seq_014_mvl/mxv
	.byte	W01
	.byte		        56*seq_014_mvl/mxv
	.byte	W02
	.byte		        38*seq_014_mvl/mxv
	.byte	W02
	.byte		        9*seq_014_mvl/mxv
	.byte	W01
	.byte		        0*seq_014_mvl/mxv
	.byte	W24
	.byte		        62*seq_014_mvl/mxv
	.byte	W56
	.byte	W03
	.byte		N05   , Gn4 
	.byte	W07
	.byte		N04
	.byte	W30
	.byte	W96
	.byte		N18   , An3 
	.byte	W18
	.byte		N06   , Fn3 , v040
	.byte	W18
	.byte		N36   , Cn4 , v052
	.byte	W30
	.byte		VOL   , 62*seq_014_mvl/mxv
	.byte	W01
	.byte		        56*seq_014_mvl/mxv
	.byte	W02
	.byte		        38*seq_014_mvl/mxv
	.byte	W02
	.byte		        8*seq_014_mvl/mxv
	.byte	W01
	.byte		        62*seq_014_mvl/mxv
	.byte		N18   , Bn3 , v044
	.byte	W18
	.byte		N06   , Gn3 , v040
	.byte	W18
	.byte		N84   , Dn4 , v052
	.byte	W12
	.byte	W60
	.byte		VOL   , 62*seq_014_mvl/mxv
	.byte	W01
	.byte		        60*seq_014_mvl/mxv
	.byte	W02
	.byte		        56*seq_014_mvl/mxv
	.byte	W02
	.byte		        48*seq_014_mvl/mxv
	.byte	W02
	.byte		        38*seq_014_mvl/mxv
	.byte	W02
	.byte		        25*seq_014_mvl/mxv
	.byte	W01
	.byte		        9*seq_014_mvl/mxv
	.byte	W02
	.byte		        62*seq_014_mvl/mxv
	.byte		N06   , Gn4 , v048
	.byte	W06
	.byte		N06
	.byte	W18
	.byte		N24
	.byte	W18
	.byte		VOL   , 62*seq_014_mvl/mxv
	.byte	W01
	.byte		        56*seq_014_mvl/mxv
	.byte	W02
	.byte		        38*seq_014_mvl/mxv
	.byte	W02
	.byte		        8*seq_014_mvl/mxv
	.byte	W01
	.byte		        0*seq_014_mvl/mxv
	.byte	W18
	.byte		        62*seq_014_mvl/mxv
	.byte	W06
	.byte		N12   , Cn4 
	.byte	W12
	.byte		N02   , Gn3 , v044
	.byte	W02
	.byte		        En3 
	.byte	W02
	.byte		        Cn3 , v040
	.byte	W80
	.byte	W24
	.byte	GOTO
	 .word	seq_014_1 + 0x17
	.byte	FINE

@*********************** Track 03 ***********************@

seq_014_2:
	.byte	KEYSH , seq_014_key+0
	.byte		VOICE , 0
	.byte		PAN   , c_v+0
	.byte		VOL   , 90*seq_014_mvl/mxv
	.byte	W84
	.byte		N12   , An4 , v092
	.byte	W06
	.byte		N54   , Gn4 , v108
	.byte		N54   , As4 
	.byte	W30
	.byte	W24
	.byte	W36
	.byte		N06   , An4 , v100
	.byte	W06
	.byte		        Gn4 , v116
	.byte		N06   , As4 
	.byte	W06
	.byte		        An4 , v100
	.byte	W06
	.byte		        Gn4 , v112
	.byte		N06   , As4 
	.byte	W06
	.byte		        An4 , v100
	.byte	W06
	.byte		        Gn4 , v120
	.byte		N06   , As4 
	.byte	W06
	.byte		        An4 , v112
	.byte	W06
	.byte		        Gn4 , v100
	.byte	W06
	.byte		        Fn4 , v092
	.byte	W12
	.byte	W32
	.byte	W03
	.byte		TIE   , Cn4 , v100
	.byte	W01
	.byte		N72   , Gn4 , v120
	.byte	W68
	.byte	W02
	.byte		N04   , Fs5 , v052
	.byte	W02
	.byte		N84   , Gn5 , v080
	.byte	W12
	.byte	W24
	.byte	W03
	.byte		VOL   , 90*seq_014_mvl/mxv
	.byte	W07
	.byte		EOT   , Cn4 
	.byte	W01
	.byte		VOL   , 88*seq_014_mvl/mxv
	.byte	W03
	.byte		        86*seq_014_mvl/mxv
	.byte	W04
	.byte		        84*seq_014_mvl/mxv
	.byte	W04
	.byte		        81*seq_014_mvl/mxv
	.byte	W03
	.byte		        78*seq_014_mvl/mxv
	.byte	W04
	.byte		        75*seq_014_mvl/mxv
	.byte	W04
	.byte		        71*seq_014_mvl/mxv
	.byte	W03
	.byte		        66*seq_014_mvl/mxv
	.byte	W04
	.byte		        61*seq_014_mvl/mxv
	.byte	W04
	.byte		        55*seq_014_mvl/mxv
	.byte	W04
	.byte		        90*seq_014_mvl/mxv
	.byte		N12   , Gn4 , v100
	.byte	W06
	.byte		        Dn5 , v112
	.byte	W06
	.byte		        Fn5 , v096
	.byte	W06
	.byte		N28   , En5 , v084
	.byte	W30
	.byte		N44   , Cn4 , v120
	.byte	W48
	.byte		N12   , Cn4 , v096
	.byte	W12
	.byte		N06   , Gn4 , v112
	.byte	W10
	.byte		N03   , Bn4 , v124
	.byte	W03
	.byte		N11   , Cn5 , v108
	.byte	W11
	.byte		N44   , As4 , v100
	.byte	W36
	.byte	W12
	.byte		N06   , An4 , v096
	.byte	W12
	.byte		N12   , As4 , v116
	.byte	W12
	.byte		N06   , An4 , v088
	.byte	W11
	.byte		N02   , An4 , v100
	.byte	W02
	.byte		N11   , As4 , v120
	.byte	W11
	.byte		N06   , An4 , v088
	.byte	W12
	.byte		N12   , As4 , v116
	.byte	W12
	.byte		N06   , An4 , v092
	.byte	W12
	.byte		N12   , Gn4 , v100
	.byte	W12
	.byte		N06   , Fn4 , v084
	.byte	W10
	.byte		N03   , Fs4 , v100
	.byte	W02
	.byte	W01
	.byte		N17   , Gn4 , v120
	.byte	W17
	.byte		N06   , En4 , v108
	.byte	W18
	.byte		N80   , Cn4 
	.byte	W80
	.byte	W02
	.byte		N02   , An3 , v100
	.byte	W02
	.byte		N12   , As3 , v120
	.byte	W12
	.byte		TIE   , Gn3 , v100
	.byte	W96
	.byte	W11
	.byte		EOT
	.byte	W01
	.byte		N44   , Cn4 , v112
	.byte	W48
	.byte		N12   , Cn4 , v092
	.byte	W12
	.byte		N06   , Gn4 , v112
	.byte	W10
	.byte		N03   , Bn4 , v100
	.byte	W03
	.byte		N11   , Cn5 , v127
	.byte	W11
	.byte		N44   , As4 , v108
	.byte	W36
	.byte	W12
	.byte		N06   , An4 , v088
	.byte	W12
	.byte		N12   , As4 , v112
	.byte	W12
	.byte		N06   , An4 , v092
	.byte	W10
	.byte		N02   , An4 , v100
	.byte	W02
	.byte		N12   , As4 , v124
	.byte	W12
	.byte		N06   , An4 , v080
	.byte	W12
	.byte		N12   , As4 , v108
	.byte	W12
	.byte		        Dn5 , v092
	.byte	W22
	.byte		N02   , Ds5 , v108
	.byte	W02
	.byte		N12   , En5 , v116
	.byte	W12
	.byte	W12
	.byte		N68   , Cn5 , v120
	.byte	W68
	.byte	W02
	.byte		N02   , Fs5 , v100
	.byte	W02
	.byte		TIE   , Gn5 , v112
	.byte	W36
	.byte	W68
	.byte	W02
	.byte		N02   , Fs3 , v060
	.byte	W01
	.byte		EOT   , Gn5 
	.byte	W01
	.byte		N06   , Gn3 , v088
	.byte	W06
	.byte		        An3 , v100
	.byte	W06
	.byte		        Bn3 , v092
	.byte	W06
	.byte		        Cn4 , v104
	.byte	W06
	.byte		        Dn4 , v096
	.byte	W06
	.byte		        En4 , v108
	.byte	W06
	.byte		N05   , Fn4 , v100
	.byte	W06
	.byte		N06   , Gn4 , v112
	.byte	W06
	.byte		N18   , Fn4 , v127
	.byte	W18
	.byte		N06   , Cn4 , v108
	.byte	W18
	.byte		N72   , An4 , v127
	.byte	W72
	.byte	W01
	.byte		N11   , Bn4 , v084
	.byte	W04
	.byte		N30   , Cn5 , v108
	.byte	W07
	.byte	W06
	.byte		N06   , An3 , v092
	.byte	W06
	.byte		        Cn4 , v096
	.byte	W06
	.byte		N05   , Fn4 , v104
	.byte	W05
	.byte		N01   , Gs4 , v108
	.byte	W01
	.byte		N06   , An4 , v127
	.byte	W06
	.byte		        Fn4 , v108
	.byte	W06
	.byte		        Gn4 , v120
	.byte	W06
	.byte		        En4 , v100
	.byte	W06
	.byte		        Fn4 , v120
	.byte	W06
	.byte		        Dn4 , v092
	.byte	W06
	.byte		        En4 , v104
	.byte	W06
	.byte		N05   , Cn4 , v088
	.byte	W05
	.byte		N01   , Gs3 , v076
	.byte	W01
	.byte		N06   , An3 , v100
	.byte	W06
	.byte		        Fn3 , v088
	.byte	W06
	.byte		        Cn3 , v068
	.byte	W36
	.byte		N18   , Gn4 , v116
	.byte	W18
	.byte		N06   , Dn4 , v096
	.byte	W18
	.byte		N72   , Bn4 , v127
	.byte	W72
	.byte	W01
	.byte		N11   , Dn5 , v080
	.byte	W04
	.byte		N30   , Gn5 , v100
	.byte	W07
	.byte	W06
	.byte		N06   , As4 
	.byte	W06
	.byte		        An4 , v088
	.byte	W06
	.byte		        Gn4 , v076
	.byte	W06
	.byte		        Bn4 , v127
	.byte	W06
	.byte		        An4 , v112
	.byte	W06
	.byte		N05   , Gn4 , v092
	.byte	W05
	.byte		N01   , Cs5 , v100
	.byte	W01
	.byte		N12   , Dn5 , v127
	.byte	W12
	.byte		N06   , Bn4 , v120
	.byte	W06
	.byte		        Gn4 , v108
	.byte	W06
	.byte		        Dn4 , v100
	.byte	W06
	.byte		        Bn3 , v127
	.byte	W06
	.byte		        Gn3 , v100
	.byte	W06
	.byte		        An3 , v112
	.byte	W06
	.byte		N05   , Bn3 , v120
	.byte	W05
	.byte		N01   , En4 , v100
	.byte	W01
	.byte		N18   , Fn4 , v127
	.byte	W18
	.byte		N06   , Cn4 
	.byte	W18
	.byte		N32   , An4 
	.byte	W36
	.byte		N18   , Gn4 
	.byte	W18
	.byte		N06   , Dn4 
	.byte	W17
	.byte		N02   , As4 , v112
	.byte	W02
	.byte		N80   , Bn4 , v127
	.byte	W11
	.byte	W78
	.byte		N06   , Fn4 
	.byte	W12
	.byte		N06
	.byte	W11
	.byte		N02   , En4 , v112
	.byte	W02
	.byte		N05   , Fn4 , v127
	.byte	W05
	.byte		N06   , En4 , v120
	.byte	W06
	.byte		N05   , Dn4 , v108
	.byte	W06
	.byte		N16   , Cn4 , v127
	.byte	W17
	.byte		N02   , Bn4 , v116
	.byte	W02
	.byte		N64   , Cn5 , v127
	.byte	W64
	.byte	W01
	.byte		N06   , An4 , v100
	.byte	W06
	.byte		N54   , Gn4 , v116
	.byte		N54   , As4 
	.byte	W30
	.byte		BEND  , c_v+0
	.byte	W24
	.byte	GOTO
	 .word	seq_014_2 + 0x14
	.byte	FINE

@*********************** Track 04 ***********************@

seq_014_3:
	.byte	KEYSH , seq_014_key+0
	.byte		VOICE , 0
	.byte		PAN   , c_v+0
	.byte		VOL   , 74*seq_014_mvl/mxv
	.byte	W96
	.byte	W24
	.byte	W24
	.byte		N36   , As2 , v100
	.byte		N36   , Dn3 
	.byte	W36
	.byte		N92
	.byte		N92   , Fn3 
	.byte	W60
	.byte	W32
	.byte	W03
	.byte		TIE   , En3 
	.byte	W84
	.byte	W01
	.byte	W32
	.byte	W03
	.byte		EOT
	.byte	W01
	.byte		N80   , As2 
	.byte		N80   , Dn3 
	.byte	W80
	.byte	W03
	.byte		TIE   , Gn2 , v116
	.byte		TIE   , Cn3 
	.byte	W01
	.byte	W96
	.byte	W24
	.byte	W24
	.byte		EOT   , Gn2 
	.byte		        Cn3 
	.byte		N36   , As2 , v100
	.byte		N36   , Dn3 
	.byte	W36
	.byte		N92
	.byte		N92   , Fn3 
	.byte	W60
	.byte	W32
	.byte	W03
	.byte		        Gn2 , v116
	.byte		N92   , En3 , v100
	.byte	W84
	.byte	W01
	.byte	W10
	.byte		TIE   , As2 , v092
	.byte	W01
	.byte		        Dn3 
	.byte	W96
	.byte	W11
	.byte		EOT   , As2 
	.byte	W01
	.byte		        Dn3 
	.byte	W01
	.byte		TIE   , Gn2 , v104
	.byte		TIE   , Cn3 
	.byte	W96
	.byte	W24
	.byte	W24
	.byte		EOT   , Gn2 
	.byte		        Cn3 
	.byte		N36   , As2 , v120
	.byte		N36   , Dn3 
	.byte	W36
	.byte		N48
	.byte		N48   , Fn3 
	.byte	W48
	.byte		N48
	.byte		N48   , An3 
	.byte	W12
	.byte	W32
	.byte	W03
	.byte		TIE   , Cn3 , v100
	.byte	W01
	.byte		N96   , Gn3 
	.byte	W84
	.byte	W12
	.byte		EOT   , Cn3 
	.byte		N60   , En3 , v120
	.byte		N60   , Cn4 
	.byte	W60
	.byte		N24   , Cn3 
	.byte		N24   , Gn3 
	.byte	W24
	.byte		N22   , Gn2 
	.byte		N22   , En3 
	.byte	W22
	.byte		VOL   , 82*seq_014_mvl/mxv
	.byte		N20   , Cn3 , v100
	.byte	W01
	.byte		N19   , An3 
	.byte	W01
	.byte	W18
	.byte		N08   , An2 
	.byte		N08   , Fn3 
	.byte	W17
	.byte		N72   , Fn3 , v112
	.byte		N72   , Cn4 
	.byte	W84
	.byte	W01
	.byte	W24
	.byte		N08   , Fn3 , v100
	.byte		N08   , An3 
	.byte	W30
	.byte		        Fn3 
	.byte		N08   , An3 
	.byte	W36
	.byte		N18   , Fn3 , v112
	.byte		N18   , An3 
	.byte	W18
	.byte		N06   , En3 
	.byte		N06   , As3 
	.byte	W06
	.byte		N05   , Ds3 
	.byte		N06   , Bn3 
	.byte	W05
	.byte		N19   , Dn3 , v100
	.byte	W01
	.byte		N18   , Bn3 
	.byte	W18
	.byte		N08   , Bn2 
	.byte		N08   , Gn3 
	.byte	W19
	.byte		N72   , Gn3 , v116
	.byte		N72   , Dn4 
	.byte	W80
	.byte	W03
	.byte	W24
	.byte		N08   , Bn3 , v100
	.byte		N08   , Dn4 
	.byte	W30
	.byte		        Bn3 
	.byte		N08   , Dn4 
	.byte	W42
	.byte		N18   , Cn3 , v120
	.byte	W18
	.byte		N06   , An2 , v108
	.byte	W18
	.byte		N32   , Fn3 , v120
	.byte	W32
	.byte	W03
	.byte		N18   , Dn3 
	.byte	W19
	.byte		N06   , Bn2 , v108
	.byte	W18
	.byte		N84   , Gn3 , v120
	.byte	W12
	.byte	W72
	.byte		N24   , Dn3 , v108
	.byte	W24
	.byte		N23   , Gn2 
	.byte	W23
	.byte		N18   , Gn2 , v116
	.byte		N18   , En3 
	.byte	W01
	.byte	W18
	.byte		TIE   , Cn3 
	.byte		TIE   , Gn3 
	.byte	W96
	.byte	W05
	.byte		EOT   , Cn3 
	.byte	W01
	.byte		        Gn3 
	.byte	W24
	.byte	GOTO
	 .word	seq_014_3 + 0xB
	.byte	FINE

@*********************** Track 05 ***********************@

seq_014_4:
	.byte	KEYSH , seq_014_key+0
	.byte		VOICE , 34
	.byte		VOL   , 105*seq_014_mvl/mxv
	.byte		BENDR , 2
	.byte		PAN   , c_v+0
	.byte		N12   , Cn1 , v127
	.byte	W24
	.byte		        Cn2 
	.byte	W19
	.byte		N06   , Cn1 
	.byte	W12
	.byte		N06
	.byte	W06
	.byte		N06
	.byte	W11
	.byte		        Cn2 
	.byte	W06
	.byte		        Cn1 
	.byte	W12
	.byte		BEND  , c_v-32
	.byte		N18   , As1 
	.byte	W01
	.byte		BEND  , c_v-29
	.byte	W01
	.byte		        c_v-18
	.byte	W02
	.byte		        c_v+0
	.byte	W14
	.byte		N06   , An1 
	.byte	W06
	.byte		        Gn1 
	.byte	W06
	.byte		N12   , Cn1 
	.byte	W24
	.byte		N12   , Cn2 , v127
	.byte	W19
	.byte		N06   , Cn1 
	.byte	W12
	.byte		N06
	.byte	W06
	.byte		N06
	.byte	W11
	.byte		        Cn2 
	.byte	W06
	.byte		        Cn1 
	.byte	W12
	.byte		BEND  , c_v-32
	.byte		N18   , Dn2 
	.byte	W01
	.byte		BEND  , c_v-29
	.byte	W01
	.byte		        c_v-18
	.byte	W02
	.byte		        c_v+0
	.byte	W14
	.byte		N06   , Cn2 
	.byte	W06
	.byte		        As1 
	.byte	W06
	.byte		N12   , Cn1 , v127
	.byte	W24
	.byte		        Cn2 
	.byte	W19
	.byte		N06   , Cn1 
	.byte	W12
	.byte		N06
	.byte	W06
	.byte		N06
	.byte	W11
	.byte		        Cn2 
	.byte	W06
	.byte		        Cn1 
	.byte	W12
	.byte		BEND  , c_v-32
	.byte		N18   , As1 
	.byte	W01
	.byte		BEND  , c_v-29
	.byte	W01
	.byte		        c_v-18
	.byte	W02
	.byte		        c_v+0
	.byte	W14
	.byte		N06   , An1 
	.byte	W06
	.byte		        Gn1 
	.byte	W06
	.byte	PEND
	.byte		N12   , Cn1 , v127
	.byte	W24
	.byte		        Cn2 
	.byte	W19
	.byte		N06   , Cn1 
	.byte	W12
	.byte		N06
	.byte	W06
	.byte		N06
	.byte	W11
	.byte		        Cn2 
	.byte	W06
	.byte		        Cn1 
	.byte	W12
	.byte		BEND  , c_v-32
	.byte		N18   , As1 
	.byte	W01
	.byte		BEND  , c_v-29
	.byte	W01
	.byte		        c_v-18
	.byte	W02
	.byte		        c_v+0
	.byte	W14
	.byte		N06   , Bn1 
	.byte	W06
	.byte		        Cn2 
	.byte	W06
	.byte	PEND
	.byte	PATT
	 .word	seq_014_4 + 0x4F
	.byte		N12   , Cn1 , v127
	.byte	W24
	.byte		        Cn2 
	.byte	W19
	.byte		N06   , Cn1 
	.byte	W12
	.byte		N06
	.byte	W06
	.byte		N06
	.byte	W11
	.byte		        Cn2 
	.byte	W06
	.byte		        Cn1 
	.byte	W12
	.byte		BEND  , c_v-32
	.byte		N18   , Dn2 
	.byte	W01
	.byte		BEND  , c_v-29
	.byte	W01
	.byte		        c_v-18
	.byte	W02
	.byte		        c_v+0
	.byte	W14
	.byte		N06   , Cn2 
	.byte	W06
	.byte		        As1 
	.byte	W06
	.byte	PATT
	 .word	seq_014_4 + 0x4F
	.byte		N12   , Cn1 , v127
	.byte	W24
	.byte		        Cn2 
	.byte	W19
	.byte		N06   , Cn1 
	.byte	W12
	.byte		N06
	.byte	W06
	.byte		N06
	.byte	W11
	.byte		N07   , Cn2 
	.byte	W06
	.byte		N06   , Cn1 
	.byte	W12
	.byte		BEND  , c_v-32
	.byte		N18   , As1 
	.byte	W01
	.byte		BEND  , c_v-29
	.byte	W01
	.byte		        c_v-18
	.byte	W02
	.byte		        c_v+0
	.byte	W14
	.byte		N06   , Fn2 
	.byte	W06
	.byte		        En2 
	.byte	W06
	.byte	PATT
	 .word	seq_014_4 + 0x4F
	.byte		N12   , Cn1 , v127
	.byte	W24
	.byte		        Cn2 
	.byte	W19
	.byte		N06   , Cn1 
	.byte	W12
	.byte		N06
	.byte	W06
	.byte		N06
	.byte	W11
	.byte		N07   , Cn2 
	.byte	W06
	.byte		N06   , Cn1 
	.byte	W12
	.byte		BEND  , c_v-32
	.byte		N18   , Dn2 
	.byte	W01
	.byte		BEND  , c_v-29
	.byte	W01
	.byte		        c_v-18
	.byte	W02
	.byte		        c_v+0
	.byte	W14
	.byte		N06   , Cn2 
	.byte	W06
	.byte		        As1 
	.byte	W06
	.byte	PATT
	 .word	seq_014_4 + 0x4F
	.byte	PATT
	 .word	seq_014_4 + 0x72
	.byte		N12   , Fn1 , v127
	.byte	W24
	.byte		        Fn2 
	.byte	W19
	.byte		N06   , Fn1 
	.byte	W12
	.byte		N06
	.byte	W06
	.byte		N06
	.byte	W11
	.byte		        Fn2 
	.byte	W06
	.byte		        Fn1 
	.byte	W12
	.byte		BEND  , c_v-32
	.byte		N18   , Ds2 
	.byte	W01
	.byte		BEND  , c_v-29
	.byte	W01
	.byte		        c_v-18
	.byte	W02
	.byte		        c_v+0
	.byte	W14
	.byte		N06   , Dn2 
	.byte	W06
	.byte		        Cn2 
	.byte	W06
	.byte		N12   , Fn1 
	.byte	W24
	.byte		        Fn2 
	.byte	W19
	.byte		N06   , Fn1 
	.byte	W12
	.byte		N06
	.byte	W06
	.byte		N06
	.byte	W11
	.byte		        Fn2 
	.byte	W06
	.byte		        Fn1 
	.byte	W12
	.byte		BEND  , c_v-32
	.byte		N18   , Ds2 
	.byte	W01
	.byte		BEND  , c_v-29
	.byte	W01
	.byte		        c_v-18
	.byte	W02
	.byte		        c_v+0
	.byte	W14
	.byte		N06   , En2 
	.byte	W06
	.byte		        Fn2 
	.byte	W06
	.byte		N12   , Gn1 
	.byte	W24
	.byte		        Gn2 
	.byte	W19
	.byte		N06   , Gn1 
	.byte	W12
	.byte		N06
	.byte	W06
	.byte		N06
	.byte	W11
	.byte		        Gn2 
	.byte	W06
	.byte		        Gn1 
	.byte	W12
	.byte		BEND  , c_v-32
	.byte		N18   , Fn2 
	.byte	W01
	.byte		BEND  , c_v-29
	.byte	W01
	.byte		        c_v-18
	.byte	W02
	.byte		        c_v+0
	.byte	W14
	.byte		N06   , En2 
	.byte	W06
	.byte		        Dn2 
	.byte	W06
	.byte		N12   , Gn1 
	.byte	W24
	.byte		        Gn2 
	.byte	W18
	.byte		N06   , Gn1 
	.byte	W12
	.byte		N06
	.byte	W06
	.byte		        Gn2 
	.byte	W12
	.byte		N12   , Gn1 
	.byte	W12
	.byte		N06   , Gs1 
	.byte	W06
	.byte		        Bn1 
	.byte	W06
	.byte		BEND  , c_v-32
	.byte		N18   , Fn1 
	.byte	W01
	.byte		BEND  , c_v-29
	.byte	W01
	.byte		        c_v-18
	.byte	W02
	.byte		        c_v+0
	.byte	W14
	.byte		N06   , Cn1 
	.byte	W18
	.byte		BEND  , c_v-32
	.byte		N18   , An1 
	.byte	W01
	.byte		BEND  , c_v-29
	.byte	W01
	.byte		        c_v-18
	.byte	W02
	.byte		        c_v+0
	.byte	W14
	.byte		N06   , Fn1 
	.byte	W06
	.byte		        Gn1 
	.byte	W06
	.byte		        Fn1 
	.byte	W06
	.byte		BEND  , c_v-32
	.byte		N18   , Gn1 
	.byte	W01
	.byte		BEND  , c_v-29
	.byte	W01
	.byte		        c_v-18
	.byte	W02
	.byte		        c_v+0
	.byte	W14
	.byte		N06   , Dn1 
	.byte	W18
	.byte		BEND  , c_v-32
	.byte		N17   , Bn1 
	.byte	W01
	.byte		BEND  , c_v-29
	.byte	W01
	.byte		        c_v-18
	.byte	W02
	.byte		        c_v+0
	.byte	W08
	.byte		BENDR , 12
	.byte	W06
	.byte		N06
	.byte	W06
	.byte		        Cn2 
	.byte	W06
	.byte		        Dn2 
	.byte	W06
	.byte		        Gn2 
	.byte	W06
	.byte		        Dn2 
	.byte	W06
	.byte		        En2 
	.byte	W06
	.byte		        Bn1 
	.byte	W06
	.byte		        Dn2 
	.byte	W06
	.byte		        Gn1 
	.byte	W06
	.byte		        Cn2 
	.byte	W06
	.byte		        Dn1 
	.byte	W06
	.byte		        Dn2 
	.byte	W06
	.byte		N06
	.byte	W18
	.byte		BEND  , c_v+0
	.byte		N24   , Gn1 
	.byte	W01
	.byte		BEND  , c_v-1
	.byte	W01
	.byte		        c_v-1
	.byte	W01
	.byte		        c_v-2
	.byte	W01
	.byte		        c_v-3
	.byte	W02
	.byte		        c_v-5
	.byte	W01
	.byte		        c_v-7
	.byte	W01
	.byte		        c_v-9
	.byte	W01
	.byte		        c_v-11
	.byte	W02
	.byte		        c_v-14
	.byte	W01
	.byte		        c_v-17
	.byte	W01
	.byte		        c_v-21
	.byte	W01
	.byte		        c_v-25
	.byte	W01
	.byte		        c_v-29
	.byte	W02
	.byte		        c_v-33
	.byte	W01
	.byte		        c_v-38
	.byte	W01
	.byte		        c_v-43
	.byte	W01
	.byte		        c_v-49
	.byte	W02
	.byte		        c_v-55
	.byte	W01
	.byte		        c_v-61
	.byte	W01
	.byte		PAN   , c_v+0
	.byte		BENDR , 2
	.byte		BEND  , c_v+0
	.byte		N12   , Cn1 
	.byte	W24
	.byte		        Cn2 
	.byte	W19
	.byte		N06   , Cn1 
	.byte	W12
	.byte		N06
	.byte	W06
	.byte		N06
	.byte	W11
	.byte		        Cn2 
	.byte	W06
	.byte		        Cn1 
	.byte	W12
	.byte		BEND  , c_v-32
	.byte		N18   , As1 
	.byte	W01
	.byte		BEND  , c_v-29
	.byte	W01
	.byte		        c_v-18
	.byte	W02
	.byte		        c_v+0
	.byte	W14
	.byte		N06   , An1 
	.byte	W06
	.byte		        Gn1 
	.byte	W06
	.byte		N12   , Cn1 
	.byte	W24
	.byte	GOTO
	 .word	seq_014_4 + 0x2F
	.byte	FINE

@*********************** Track 06 ***********************@

seq_014_5:
	.byte	KEYSH , seq_014_key+0
	.byte		VOICE , 127
	.byte		VOL   , 105*seq_014_mvl/mxv
	.byte		PAN   , c_v+0
	.byte		N24   , An2 , v104
	.byte		N02   , As3 , v040
	.byte	W12
	.byte		        As3 , v032
	.byte	W06
	.byte		N02
	.byte	W06
	.byte		N06   , Dn1 , v127
	.byte		N02   , As3 , v040
	.byte	W12
	.byte		N06   , Cn1 , v127
	.byte		N02   , As3 , v028
	.byte	W06
	.byte		N06   , Cn1 , v127
	.byte		N02   , As3 , v028
	.byte	W06
	.byte		        As3 , v040
	.byte	W06
	.byte		N06   , Cn1 , v127
	.byte	W06
	.byte		        Dn1 
	.byte		N02   , As3 , v028
	.byte	W06
	.byte		N02
	.byte	W06
	.byte		N06   , Cn1 , v127
	.byte		N02   , As3 , v040
	.byte	W06
	.byte		N06   , Dn1 , v127
	.byte	W06
	.byte		N02   , As3 , v028
	.byte	W06
	.byte		N02
	.byte	W06
	.byte		N06   , Cn1 , v127
	.byte		N02   , As3 , v052
	.byte	W06
	.byte		        As3 , v028
	.byte	W06
	.byte		N06   , Dn1 , v127
	.byte		N02   , As3 , v036
	.byte	W06
	.byte		        As3 , v028
	.byte	W06
	.byte		N06   , Cn1 , v127
	.byte		N02   , As3 , v040
	.byte	W12
	.byte		        As3 , v032
	.byte	W06
	.byte		N02
	.byte	W06
	.byte	PEND
	.byte		N06   , Dn1 , v127
	.byte		N02   , As3 , v040
	.byte	W12
	.byte		N06   , Cn1 , v127
	.byte		N02   , As3 , v028
	.byte	W06
	.byte		N06   , Cn1 , v127
	.byte		N02   , As3 , v028
	.byte	W06
	.byte		        As3 , v040
	.byte	W12
	.byte		N06   , Dn1 , v127
	.byte		N02   , As3 , v028
	.byte	W06
	.byte		N02
	.byte	W06
	.byte		N06   , Cn1 , v127
	.byte		N02   , As3 , v040
	.byte	W12
	.byte		N06   , Dn1 , v108
	.byte		N02   , As3 , v028
	.byte	W06
	.byte		N06   , Dn1 , v127
	.byte		N02   , As3 , v028
	.byte	W06
	.byte		N06   , Cn1 , v127
	.byte		N02   , As3 , v052
	.byte	W06
	.byte		N06   , Dn1 , v127
	.byte		N02   , As3 , v028
	.byte	W06
	.byte		        As3 , v036
	.byte	W06
	.byte		        As3 , v028
	.byte	W06
	.byte		N06   , Cn1 , v127
	.byte		N02   , As3 , v040
	.byte	W12
	.byte		        As3 , v032
	.byte	W06
	.byte		N02
	.byte	W06
	.byte		N06   , Dn1 , v127
	.byte		N02   , As3 , v040
	.byte	W12
	.byte		N06   , Cn1 , v127
	.byte		N02   , As3 , v028
	.byte	W06
	.byte		N06   , Cn1 , v127
	.byte		N02   , As3 , v028
	.byte	W06
	.byte		        As3 , v040
	.byte	W06
	.byte		N06   , Cn1 , v127
	.byte	W06
	.byte		        Dn1 
	.byte		N02   , As3 , v028
	.byte	W06
	.byte		N02
	.byte	W06
	.byte		N06   , Cn1 , v127
	.byte		N02   , As3 , v040
	.byte	W06
	.byte		N06   , Dn1 , v127
	.byte	W06
	.byte		N02   , As3 , v028
	.byte	W06
	.byte		N02
	.byte	W06
	.byte		N06   , Cn1 , v127
	.byte		N02   , As3 , v052
	.byte	W06
	.byte		        As3 , v028
	.byte	W06
	.byte		N06   , Dn1 , v127
	.byte		N02   , As3 , v036
	.byte	W06
	.byte		        As3 , v028
	.byte	W06
	.byte	PEND
	.byte		N06   , Cn1 , v127
	.byte		N02   , As3 , v040
	.byte	W12
	.byte		        As3 , v032
	.byte	W06
	.byte		N02
	.byte	W06
	.byte		N06   , Dn1 , v127
	.byte		N02   , As3 , v040
	.byte	W12
	.byte		N06   , Cn1 , v127
	.byte		N02   , As3 , v028
	.byte	W06
	.byte		N06   , Cn1 , v127
	.byte		N02   , As3 , v028
	.byte	W06
	.byte		        As3 , v040
	.byte	W12
	.byte		N06   , Dn1 , v127
	.byte		N02   , As3 , v028
	.byte	W06
	.byte		N02
	.byte	W06
	.byte		N06   , Cn1 , v127
	.byte		N02   , As3 , v040
	.byte	W06
	.byte		N06   , Dn1 , v127
	.byte	W06
	.byte		N02   , As3 , v028
	.byte	W06
	.byte		N06   , Cn1 , v127
	.byte		N02   , As3 , v028
	.byte	W06
	.byte		        Dn1 , v096
	.byte		N02   , As3 , v052
	.byte	W02
	.byte		N04   , Dn1 , v112
	.byte	W04
	.byte		N06   , Dn1 , v096
	.byte		N02   , As3 , v028
	.byte	W06
	.byte		N06   , Dn1 , v124
	.byte		N02   , As3 , v036
	.byte	W06
	.byte		N06   , Dn1 , v127
	.byte		N02   , As3 , v028
	.byte	W06
	.byte		N24   , An2 , v104
	.byte		N02   , As3 , v040
	.byte	W12
	.byte		        As3 , v032
	.byte	W06
	.byte		N02
	.byte	W06
	.byte		N06   , Dn1 , v127
	.byte		N02   , As3 , v040
	.byte	W12
	.byte		N06   , Cn1 , v127
	.byte		N02   , As3 , v028
	.byte	W06
	.byte		N06   , Cn1 , v127
	.byte		N02   , As3 , v028
	.byte	W06
	.byte		        As3 , v040
	.byte	W06
	.byte		N06   , Cn1 , v127
	.byte	W06
	.byte		        Dn1 
	.byte		N02   , As3 , v028
	.byte	W06
	.byte		N02
	.byte	W06
	.byte		N06   , Cn1 , v127
	.byte		N02   , As3 , v040
	.byte	W06
	.byte		N06   , Dn1 , v127
	.byte	W06
	.byte		N02   , As3 , v028
	.byte	W06
	.byte		N02
	.byte	W06
	.byte		N06   , Cn1 , v127
	.byte		N02   , As3 , v052
	.byte	W06
	.byte		        As3 , v028
	.byte	W06
	.byte		N06   , Dn1 , v127
	.byte		N02   , As3 , v036
	.byte	W06
	.byte		        As3 , v028
	.byte	W06
	.byte	PEND
	.byte		N06   , Cn1 , v127
	.byte		N02   , As3 , v040
	.byte	W12
	.byte		        As3 , v032
	.byte	W06
	.byte		N02
	.byte	W06
	.byte		N06   , Dn1 , v127
	.byte		N02   , As3 , v040
	.byte	W12
	.byte		N06   , Cn1 , v127
	.byte		N02   , As3 , v028
	.byte	W06
	.byte		N06   , Cn1 , v127
	.byte		N02   , As3 , v028
	.byte	W06
	.byte		        As3 , v040
	.byte	W12
	.byte		N06   , Dn1 , v127
	.byte		N02   , As3 , v028
	.byte	W06
	.byte		N02
	.byte	W06
	.byte		N06   , Cn1 , v127
	.byte		N02   , As3 , v040
	.byte	W12
	.byte		N06   , Dn1 , v104
	.byte		N02   , As3 , v028
	.byte	W06
	.byte		N06   , Dn1 , v127
	.byte		N02   , As3 , v028
	.byte	W06
	.byte		N06   , Cn1 , v127
	.byte		N02   , As3 , v052
	.byte	W06
	.byte		N06   , Dn1 , v127
	.byte		N02   , As3 , v028
	.byte	W06
	.byte		        As3 , v036
	.byte	W06
	.byte		        As3 , v028
	.byte	W06
	.byte	PATT
	 .word	seq_014_5 + 0xB3
	.byte		N06   , Cn1 , v127
	.byte		N02   , As3 , v040
	.byte	W12
	.byte		        As3 , v032
	.byte	W06
	.byte		N02
	.byte	W06
	.byte		N06   , Dn1 , v127
	.byte		N02   , As3 , v040
	.byte	W12
	.byte		N06   , Cn1 , v127
	.byte		N02   , As3 , v028
	.byte	W06
	.byte		N06   , Cn1 , v127
	.byte		N02   , As3 , v028
	.byte	W06
	.byte		        As3 , v040
	.byte	W12
	.byte		N06   , Dn1 , v127
	.byte		N02   , As3 , v028
	.byte	W06
	.byte		N02
	.byte	W06
	.byte		N06   , Cn1 , v127
	.byte		N02   , As3 , v040
	.byte	W06
	.byte		N06   , Dn1 , v127
	.byte	W06
	.byte		N02   , As3 , v028
	.byte	W06
	.byte		N06   , Cn1 , v127
	.byte		N02   , As3 , v028
	.byte	W06
	.byte		        Dn1 , v096
	.byte		N02   , As3 , v052
	.byte	W02
	.byte		N04   , Dn1 , v112
	.byte	W04
	.byte		N06   , Dn1 , v096
	.byte		N02   , As3 , v028
	.byte	W06
	.byte		N06   , Ds1 , v088
	.byte		N02   , As3 , v036
	.byte	W06
	.byte		N06   , Ds1 , v088
	.byte		N02   , As3 , v028
	.byte	W06
	.byte		N24   , An2 , v104
	.byte		N02   , As3 , v040
	.byte	W12
	.byte		        As3 , v032
	.byte	W06
	.byte		N02
	.byte	W06
	.byte		N06   , Ds1 , v088
	.byte		N02   , As3 , v040
	.byte	W12
	.byte		N06   , Cn1 , v127
	.byte		N02   , As3 , v028
	.byte	W06
	.byte		N06   , Cn1 , v127
	.byte		N02   , As3 , v028
	.byte	W06
	.byte		        As3 , v040
	.byte	W06
	.byte		N06   , Cn1 , v127
	.byte	W06
	.byte		        Dn1 
	.byte		N02   , As3 , v028
	.byte	W06
	.byte		N02
	.byte	W06
	.byte		N06   , Cn1 , v127
	.byte		N02   , As3 , v040
	.byte	W06
	.byte		N06   , Dn1 , v127
	.byte	W06
	.byte		N02   , As3 , v028
	.byte	W06
	.byte		N02
	.byte	W06
	.byte		N06   , Cn1 , v127
	.byte		N02   , As3 , v052
	.byte	W06
	.byte		        As3 , v028
	.byte	W06
	.byte		N06   , Ds1 , v088
	.byte		N02   , As3 , v036
	.byte	W06
	.byte		        As3 , v028
	.byte	W06
	.byte		N06   , Cn1 , v127
	.byte		N02   , As3 , v040
	.byte	W12
	.byte		        As3 , v032
	.byte	W06
	.byte		N02
	.byte	W06
	.byte		N06   , Ds1 , v088
	.byte		N02   , As3 , v040
	.byte	W12
	.byte		N06   , Cn1 , v127
	.byte		N02   , As3 , v028
	.byte	W06
	.byte		N06   , Cn1 , v127
	.byte		N02   , As3 , v028
	.byte	W06
	.byte		        As3 , v040
	.byte	W12
	.byte		N06   , Ds1 , v120
	.byte		N02   , As3 , v028
	.byte	W06
	.byte		N02
	.byte	W06
	.byte		N06   , Cn1 , v127
	.byte		N02   , As3 , v040
	.byte	W12
	.byte		N06   , Dn1 , v104
	.byte		N02   , As3 , v028
	.byte	W06
	.byte		N06   , Dn1 , v127
	.byte		N02   , As3 , v028
	.byte	W06
	.byte		N06   , Cn1 , v127
	.byte		N02   , As3 , v052
	.byte	W06
	.byte		N06   , Dn1 , v127
	.byte		N02   , As3 , v028
	.byte	W06
	.byte		N06   , Ds1 , v088
	.byte		N02   , As3 , v036
	.byte	W06
	.byte		N06   , Ds1 , v088
	.byte		N02   , As3 , v028
	.byte	W06
	.byte		N06   , Cn1 , v127
	.byte		N02   , As3 , v040
	.byte	W12
	.byte		        As3 , v032
	.byte	W06
	.byte		N02
	.byte	W06
	.byte		N06   , Ds1 , v088
	.byte		N02   , As3 , v040
	.byte	W12
	.byte		N06   , Cn1 , v127
	.byte		N02   , As3 , v028
	.byte	W06
	.byte		N06   , Cn1 , v127
	.byte		N02   , As3 , v028
	.byte	W06
	.byte		        As3 , v040
	.byte	W06
	.byte		N06   , Cn1 , v127
	.byte	W06
	.byte		        Dn1 
	.byte		N02   , As3 , v028
	.byte	W06
	.byte		N02
	.byte	W06
	.byte		N06   , Cn1 , v127
	.byte		N02   , As3 , v040
	.byte	W06
	.byte		N06   , Dn1 , v127
	.byte	W06
	.byte		N02   , As3 , v028
	.byte	W06
	.byte		N02
	.byte	W06
	.byte		N06   , Cn1 , v127
	.byte		N02   , As3 , v052
	.byte	W06
	.byte		        As3 , v028
	.byte	W06
	.byte		N06   , Ds1 , v088
	.byte		N02   , As3 , v036
	.byte	W06
	.byte		N06   , Dn1 , v127
	.byte		N02   , As3 , v028
	.byte	W06
	.byte		N06   , Cn1 , v127
	.byte		N02   , As3 , v040
	.byte	W12
	.byte		        As3 , v032
	.byte	W06
	.byte		N02
	.byte	W06
	.byte		N06   , Ds1 , v088
	.byte		N02   , As3 , v040
	.byte	W12
	.byte		N06   , Cn1 , v127
	.byte		N02   , As3 , v028
	.byte	W06
	.byte		N06   , Cn1 , v127
	.byte		N02   , As3 , v028
	.byte	W06
	.byte		        As3 , v040
	.byte	W12
	.byte		N06   , Ds1 , v120
	.byte		N02   , As3 , v028
	.byte	W06
	.byte		N02
	.byte	W06
	.byte		N06   , Cn1 , v127
	.byte		N02   , As3 , v040
	.byte	W06
	.byte		N06   , Dn1 , v127
	.byte		N02   , Fn3 , v060
	.byte	W02
	.byte		N04   , Fn3 , v092
	.byte	W04
	.byte		N06   , Fn3 , v068
	.byte		N02   , As3 , v028
	.byte	W06
	.byte		N06   , Cn1 , v127
	.byte		N06   , Fn3 , v092
	.byte		N02   , As3 , v028
	.byte	W06
	.byte		        Dn1 , v096
	.byte		N06   , Fn3 , v072
	.byte		N02   , As3 , v052
	.byte	W02
	.byte		N04   , Dn1 , v112
	.byte	W04
	.byte		N06   , Dn1 , v096
	.byte		N06   , Fn3 , v092
	.byte		N02   , As3 , v028
	.byte	W06
	.byte		N06   , Dn1 , v124
	.byte		N06   , Fn3 , v080
	.byte		N02   , As3 , v036
	.byte	W06
	.byte		N06   , Dn1 , v127
	.byte		N06   , Fn3 , v104
	.byte		N02   , As3 , v028
	.byte	W06
	.byte		N24   , An2 , v104
	.byte		N02   , As3 , v040
	.byte	W12
	.byte		        As3 , v032
	.byte	W06
	.byte		N02
	.byte	W06
	.byte		N06   , Ds1 , v088
	.byte		N02   , As3 , v040
	.byte	W12
	.byte		N06   , Cn1 , v127
	.byte		N02   , As3 , v028
	.byte	W06
	.byte		N06   , Cn1 , v127
	.byte		N02   , As3 , v028
	.byte	W06
	.byte		        As3 , v040
	.byte	W06
	.byte		N06   , Cn1 , v127
	.byte	W06
	.byte		        Ds1 , v120
	.byte		N02   , As3 , v028
	.byte	W06
	.byte		N02
	.byte	W06
	.byte		N06   , Cn1 , v127
	.byte		N02   , As3 , v040
	.byte	W06
	.byte		N06   , Dn1 , v127
	.byte	W06
	.byte		N02   , As3 , v028
	.byte	W06
	.byte		N02
	.byte	W06
	.byte		N06   , Cn1 , v127
	.byte		N02   , As3 , v052
	.byte	W06
	.byte		        As3 , v028
	.byte	W06
	.byte		N06   , Ds1 , v088
	.byte		N02   , As3 , v036
	.byte	W06
	.byte		        As3 , v028
	.byte	W06
	.byte		N06   , Cn1 , v127
	.byte		N02   , As3 , v040
	.byte	W12
	.byte		        As3 , v032
	.byte	W06
	.byte		N02
	.byte	W06
	.byte		N06   , Ds1 , v088
	.byte		N02   , As3 , v040
	.byte	W12
	.byte		N06   , Cn1 , v127
	.byte		N02   , As3 , v028
	.byte	W06
	.byte		N06   , Cn1 , v127
	.byte		N02   , As3 , v028
	.byte	W06
	.byte		        As3 , v040
	.byte	W12
	.byte		N06   , Ds1 , v088
	.byte		N02   , As3 , v028
	.byte	W06
	.byte		N02
	.byte	W06
	.byte		N06   , Cn1 , v127
	.byte		N02   , As3 , v040
	.byte	W12
	.byte		N06   , Dn1 , v104
	.byte		N02   , As3 , v028
	.byte	W06
	.byte		N06   , Dn1 , v127
	.byte		N02   , As3 , v028
	.byte	W06
	.byte		N06   , Cn1 , v127
	.byte		N02   , As3 , v052
	.byte	W06
	.byte		N06   , Dn1 , v127
	.byte		N02   , As3 , v028
	.byte	W06
	.byte		N06   , Ds1 , v088
	.byte		N02   , As3 , v036
	.byte	W06
	.byte		N06   , Ds1 , v088
	.byte		N02   , As3 , v028
	.byte	W06
	.byte		N06   , Cn1 , v127
	.byte		N02   , As3 , v040
	.byte	W12
	.byte		        As3 , v032
	.byte	W06
	.byte		N02
	.byte	W06
	.byte		N06   , Ds1 , v088
	.byte		N02   , As3 , v040
	.byte	W12
	.byte		N06   , Cn1 , v127
	.byte		N02   , As3 , v028
	.byte	W06
	.byte		N06   , Cn1 , v127
	.byte		N02   , As3 , v028
	.byte	W06
	.byte		        As3 , v040
	.byte	W06
	.byte		N06   , Cn1 , v127
	.byte	W06
	.byte		        Ds1 , v120
	.byte		N02   , As3 , v028
	.byte	W06
	.byte		N02
	.byte	W06
	.byte		N06   , Cn1 , v127
	.byte		N02   , As3 , v040
	.byte	W06
	.byte		N06   , Dn1 , v127
	.byte	W06
	.byte		N02   , As3 , v028
	.byte	W06
	.byte		N02
	.byte	W06
	.byte		N06   , Cn1 , v127
	.byte		N02   , As3 , v052
	.byte	W06
	.byte		        As3 , v028
	.byte	W06
	.byte		N06   , Ds1 , v088
	.byte		N02   , As3 , v036
	.byte	W06
	.byte		        As3 , v028
	.byte	W06
	.byte		N06   , Cn1 , v127
	.byte		N02   , As3 , v040
	.byte	W12
	.byte		        As3 , v028
	.byte	W06
	.byte		N02
	.byte	W06
	.byte		N06   , Ds1 , v088
	.byte		N02   , As3 , v040
	.byte	W12
	.byte		N06   , Cn1 , v127
	.byte		N02   , As3 , v028
	.byte	W06
	.byte		N06   , Cn1 , v127
	.byte		N02   , As3 , v028
	.byte	W06
	.byte		        As3 , v040
	.byte	W06
	.byte		        Fn3 , v060
	.byte	W02
	.byte		N04   , Fn3 , v092
	.byte	W04
	.byte		N06   , Ds1 , v088
	.byte		N06   , Fn3 , v068
	.byte		N02   , As3 , v028
	.byte	W06
	.byte		N06   , Cn1 , v127
	.byte		N06   , Fn3 , v092
	.byte		N02   , As3 , v028
	.byte	W06
	.byte		        Dn1 , v096
	.byte		N06   , Fn3 , v072
	.byte		N02   , As3 , v052
	.byte	W02
	.byte		N04   , Dn1 , v112
	.byte	W04
	.byte		N06   , Dn1 , v096
	.byte		N12   , Fn3 , v092
	.byte		N02   , As3 , v028
	.byte	W06
	.byte		N06   , Ds1 , v088
	.byte		N02   , As3 , v036
	.byte	W06
	.byte		N06   , Ds1 , v088
	.byte		N12   , Fn3 , v104
	.byte		N02   , As3 , v028
	.byte	W06
	.byte		N24   , An2 , v104
	.byte		N02   , As3 , v040
	.byte	W12
	.byte		        As3 , v028
	.byte	W06
	.byte		N02
	.byte	W06
	.byte		N06   , Ds1 , v088
	.byte		N02   , As3 , v040
	.byte	W12
	.byte		N06   , Cn1 , v127
	.byte		N02   , Fn3 , v072
	.byte		N02   , As3 , v028
	.byte	W02
	.byte		N04   , Fn3 , v100
	.byte	W04
	.byte		N02   , Dn1 , v096
	.byte		N12   , Fn3 , v100
	.byte		N02   , As3 , v028
	.byte	W02
	.byte		N04   , Dn1 , v112
	.byte	W04
	.byte		N06   , Cn1 , v127
	.byte		N02   , As3 , v052
	.byte	W06
	.byte		N06   , Dn1 , v127
	.byte		N02   , As3 , v028
	.byte	W06
	.byte		N06   , Ds1 , v088
	.byte		N02   , As3 , v036
	.byte	W06
	.byte		N06   , Ds1 , v120
	.byte		N02   , As3 , v028
	.byte	W06
	.byte		N24   , Cs2 , v104
	.byte		N02   , As3 , v040
	.byte	W12
	.byte		        As3 , v032
	.byte	W06
	.byte		N02
	.byte	W06
	.byte		N06   , Ds1 , v088
	.byte		N02   , As3 , v040
	.byte	W12
	.byte		N06   , Cn1 , v127
	.byte		N02   , Fn3 , v072
	.byte		N02   , As3 , v028
	.byte	W02
	.byte		N04   , Fn3 , v100
	.byte	W04
	.byte		N02   , Dn1 , v096
	.byte		N12   , Fn3 , v100
	.byte		N02   , As3 , v028
	.byte	W02
	.byte		N04   , Dn1 , v112
	.byte	W04
	.byte		N06   , Cn1 , v127
	.byte		N02   , As3 , v040
	.byte	W06
	.byte		N06   , Dn1 , v112
	.byte		N12   , Fn3 , v100
	.byte	W06
	.byte		N06   , Ds1 
	.byte		N02   , As3 , v028
	.byte	W06
	.byte		N06   , Dn1 , v072
	.byte		N02   , As3 , v028
	.byte	W06
	.byte		N06   , Dn1 , v096
	.byte		N02   , As3 , v040
	.byte	W06
	.byte		N06   , Dn1 , v068
	.byte	W06
	.byte		        Dn1 , v080
	.byte		N02   , As3 , v028
	.byte	W06
	.byte		N06   , Dn1 , v076
	.byte		N02   , As3 , v028
	.byte	W06
	.byte		N06   , Dn1 , v100
	.byte		N02   , As3 , v052
	.byte	W06
	.byte		N06   , Dn1 , v084
	.byte		N02   , As3 , v028
	.byte	W06
	.byte		N06   , Dn1 , v104
	.byte		N02   , As3 , v036
	.byte	W06
	.byte		N06   , Dn1 , v092
	.byte		N02   , As3 , v028
	.byte	W06
	.byte		N06   , Ds1 , v088
	.byte		N24   , An2 , v104
	.byte		N02   , As3 , v040
	.byte	W06
	.byte		N06   , Ds1 , v120
	.byte	W06
	.byte		N02   , As3 , v028
	.byte	W06
	.byte		N06   , Dn1 , v127
	.byte		N02   , As3 , v028
	.byte	W06
	.byte		N06   , Bn0 , v127
	.byte		N24   , Cs2 , v104
	.byte		N02   , As3 , v052
	.byte	W06
	.byte		        Dn1 , v096
	.byte		N02   , As3 , v028
	.byte	W02
	.byte		N04   , Dn1 , v112
	.byte	W04
	.byte		N06   , Dn1 , v100
	.byte		N02   , As3 , v036
	.byte	W06
	.byte		N06   , Dn1 , v116
	.byte		N02   , As3 , v028
	.byte	W06
	.byte	PATT
	 .word	seq_014_5 + 0x16A
	.byte	PATT
	 .word	seq_014_5 + 0x5C
	.byte	GOTO
	 .word	seq_014_5 + 0x69
	.byte	FINE

@******************************************************@

	.align	2

seq_014:
	.byte	6	@ NumTrks
	.byte	0	@ NumBlks
	.byte	seq_014_pri	@ Priority
	.byte	seq_014_rev	@ Reverb

	.word	seq_014_grp

	.word	seq_014_0
	.word	seq_014_1
	.word	seq_014_2
	.word	seq_014_3
	.word	seq_014_4
	.word	seq_014_5

	.end
