@ File generated by m4a2s Song-Module
	.include "MPlayDef.s"

	.equ	seq_034_grp, bank_027
	.equ	seq_034_pri, 0
	.equ	seq_034_rev, 0
	.equ	seq_034_mvl, 127
	.equ	seq_034_key, 0

	.section .rodata
	.global	seq_034
	.align	2

@*********************** Track 01 ***********************@

seq_034_0:
	.byte	KEYSH , seq_034_key+0
	.byte	TEMPO , 140/2
	.byte		VOICE , 81
	.byte		VOL   , 60*seq_034_mvl/mxv
	.byte		PAN   , c_v+0
	.byte		BENDR , 12
	.byte		BEND  , c_v+0
	.byte		N03   , Fs4 , v120
	.byte	W06
	.byte		N05
	.byte	W06
	.byte	TEMPO , 132/2
	.byte	W06
	.byte		N04   , Fn4 
	.byte	W06
	.byte	TEMPO , 124/2
	.byte		N03   , En4 
	.byte	W12
	.byte	TEMPO , 116/2
	.byte		N36   , Ds4 
	.byte	W03
	.byte		BEND  , c_v+0
	.byte	W02
	.byte		        c_v-1
	.byte	W02
	.byte		        c_v-1
	.byte	W02
	.byte		        c_v-2
	.byte	W02
	.byte		        c_v-2
	.byte	W01
	.byte	TEMPO , 108/2
	.byte	W01
	.byte		        c_v-3
	.byte	W02
	.byte		        c_v-5
	.byte	W02
	.byte		        c_v-6
	.byte	W02
	.byte		        c_v-8
	.byte	W02
	.byte		        c_v-10
	.byte	W02
	.byte		        c_v-12
	.byte	W01
	.byte	TEMPO , 100/2
	.byte		VOL   , 53*seq_034_mvl/mxv
	.byte	W01
	.byte		BEND  , c_v-14
	.byte	W02
	.byte		VOL   , 46*seq_034_mvl/mxv
	.byte		BEND  , c_v-17
	.byte	W02
	.byte		        c_v-20
	.byte	W01
	.byte		VOL   , 40*seq_034_mvl/mxv
	.byte	W01
	.byte		BEND  , c_v-23
	.byte	W02
	.byte		VOL   , 33*seq_034_mvl/mxv
	.byte		BEND  , c_v-27
	.byte	W02
	.byte		        c_v-30
	.byte	W24
	.byte	W01
	.byte	FINE

@*********************** Track 02 ***********************@

seq_034_1:
	.byte	KEYSH , seq_034_key+0
	.byte		VOICE , 80
	.byte		VOL   , 73*seq_034_mvl/mxv
	.byte		PAN   , c_v+0
	.byte		BENDR , 12
	.byte		BEND  , c_v+0
	.byte		N03   , An3 , v100
	.byte		N03   , Dn4 , v112
	.byte	W06
	.byte		N05   , An3 , v100
	.byte		N05   , Dn4 , v112
	.byte	W12
	.byte		N04   , Gs3 , v100
	.byte		N04   , Cs4 , v112
	.byte	W06
	.byte		N03   , Gn3 , v100
	.byte		N03   , Cn4 , v112
	.byte	W12
	.byte		N36   , Fs3 , v100
	.byte		N36   , Bn3 , v112
	.byte	W03
	.byte		BEND  , c_v+0
	.byte	W02
	.byte		        c_v-1
	.byte	W02
	.byte		        c_v-1
	.byte	W02
	.byte		        c_v-2
	.byte	W02
	.byte		        c_v-2
	.byte	W02
	.byte		        c_v-3
	.byte	W02
	.byte		        c_v-5
	.byte	W02
	.byte		        c_v-6
	.byte	W02
	.byte		        c_v-8
	.byte	W02
	.byte		        c_v-10
	.byte	W02
	.byte		        c_v-12
	.byte	W01
	.byte		VOL   , 66*seq_034_mvl/mxv
	.byte	W01
	.byte		BEND  , c_v-14
	.byte	W02
	.byte		VOL   , 60*seq_034_mvl/mxv
	.byte		BEND  , c_v-17
	.byte	W02
	.byte		        c_v-20
	.byte	W01
	.byte		VOL   , 53*seq_034_mvl/mxv
	.byte	W01
	.byte		BEND  , c_v-23
	.byte	W02
	.byte		VOL   , 46*seq_034_mvl/mxv
	.byte		BEND  , c_v-27
	.byte	W02
	.byte		        c_v-30
	.byte	W24
	.byte	W01
	.byte	FINE

@*********************** Track 03 ***********************@

seq_034_2:
	.byte	KEYSH , seq_034_key+0
	.byte		VOICE , 121
	.byte		VOL   , 53*seq_034_mvl/mxv
	.byte		PAN   , c_v+63
	.byte		BENDR , 12
	.byte		BEND  , c_v+0
	.byte		N03   , Fs3 , v120
	.byte	W06
	.byte		N05
	.byte	W12
	.byte		N04   , Fn3 
	.byte	W06
	.byte		N03   , En3 
	.byte	W12
	.byte		N36   , Ds3 
	.byte	W03
	.byte		BEND  , c_v+0
	.byte	W02
	.byte		        c_v-1
	.byte	W02
	.byte		        c_v-1
	.byte	W02
	.byte		        c_v-2
	.byte	W02
	.byte		        c_v-2
	.byte	W02
	.byte		        c_v-3
	.byte	W02
	.byte		        c_v-5
	.byte	W02
	.byte		        c_v-6
	.byte	W02
	.byte		        c_v-8
	.byte	W02
	.byte		        c_v-10
	.byte	W02
	.byte		        c_v-12
	.byte	W02
	.byte		        c_v-14
	.byte	W02
	.byte		        c_v-17
	.byte	W02
	.byte		        c_v-20
	.byte	W02
	.byte		        c_v-23
	.byte	W02
	.byte		        c_v-27
	.byte	W02
	.byte		        c_v-30
	.byte	W24
	.byte	W01
	.byte	FINE

@*********************** Track 04 ***********************@

seq_034_3:
	.byte	KEYSH , seq_034_key+0
	.byte		VOICE , 122
	.byte		VOL   , 53*seq_034_mvl/mxv
	.byte		PAN   , c_v-64
	.byte		BENDR , 12
	.byte		BEND  , c_v+0
	.byte		N03   , An2 , v120
	.byte	W06
	.byte		N05
	.byte	W12
	.byte		N04   , Gs2 
	.byte	W06
	.byte		N03   , Gn2 
	.byte	W12
	.byte		N36   , Fs2 
	.byte	W03
	.byte		BEND  , c_v+0
	.byte	W02
	.byte		        c_v-1
	.byte	W02
	.byte		        c_v-1
	.byte	W02
	.byte		        c_v-2
	.byte	W02
	.byte		        c_v-2
	.byte	W02
	.byte		        c_v-3
	.byte	W02
	.byte		        c_v-5
	.byte	W02
	.byte		        c_v-6
	.byte	W02
	.byte		        c_v-8
	.byte	W02
	.byte		        c_v-10
	.byte	W02
	.byte		        c_v-12
	.byte	W02
	.byte		        c_v-14
	.byte	W02
	.byte		        c_v-17
	.byte	W02
	.byte		        c_v-20
	.byte	W02
	.byte		        c_v-23
	.byte	W02
	.byte		        c_v-27
	.byte	W02
	.byte		        c_v-30
	.byte	W24
	.byte	W01
	.byte	FINE

@*********************** Track 05 ***********************@

seq_034_4:
	.byte	KEYSH , seq_034_key+0
	.byte		VOICE , 9
	.byte		VOL   , 36*seq_034_mvl/mxv
	.byte		PAN   , c_v-35
	.byte		BENDR , 12
	.byte		BEND  , c_v+0
	.byte	W36
	.byte		N03   , Cn5 , v096
	.byte	W06
	.byte		BEND  , c_v-1
	.byte		N03   , Fn5 , v084
	.byte	W03
	.byte		BEND  , c_v-2
	.byte	W03
	.byte		        c_v-3
	.byte		N03   , Cn5 , v096
	.byte	W03
	.byte		BEND  , c_v-5
	.byte	W03
	.byte		        c_v-8
	.byte		N03   , An5 , v112
	.byte	W03
	.byte		BEND  , c_v-10
	.byte		N03   , As5 , v096
	.byte	W03
	.byte		BEND  , c_v-14
	.byte		N03   , An5 , v116
	.byte	W03
	.byte		BEND  , c_v-17
	.byte		N03   , As5 , v104
	.byte	W03
	.byte		BEND  , c_v-20
	.byte		N03   , An5 , v108
	.byte	W03
	.byte		BEND  , c_v-23
	.byte		N03   , As5 , v076
	.byte	W03
	.byte		BEND  , c_v-27
	.byte		N03   , An5 , v072
	.byte	W03
	.byte		BEND  , c_v-30
	.byte		N03   , As5 , v040
	.byte	W03
	.byte		BEND  , c_v-32
	.byte		N06   , An5 , v028
	.byte	W18
	.byte	FINE

@*********************** Track 06 ***********************@

seq_034_5:
	.byte	KEYSH , seq_034_key+0
	.byte		VOICE , 34
	.byte		VOL   , 73*seq_034_mvl/mxv
	.byte		PAN   , c_v+0
	.byte		BENDR , 12
	.byte		BEND  , c_v+0
	.byte		N03   , Dn1 , v120
	.byte	W06
	.byte		N03
	.byte	W12
	.byte		        Cs1 
	.byte	W06
	.byte		        Cn1 
	.byte	W12
	.byte		N36   , Bn0 
	.byte	W03
	.byte		BEND  , c_v+0
	.byte	W02
	.byte		        c_v-1
	.byte	W02
	.byte		        c_v-1
	.byte	W02
	.byte		        c_v-2
	.byte	W02
	.byte		        c_v-2
	.byte	W02
	.byte		        c_v-3
	.byte	W02
	.byte		        c_v-5
	.byte	W01
	.byte		VOL   , 68*seq_034_mvl/mxv
	.byte	W01
	.byte		BEND  , c_v-6
	.byte	W02
	.byte		VOL   , 64*seq_034_mvl/mxv
	.byte		BEND  , c_v-8
	.byte	W02
	.byte		        c_v-10
	.byte	W01
	.byte		VOL   , 58*seq_034_mvl/mxv
	.byte	W01
	.byte		BEND  , c_v-12
	.byte	W02
	.byte		VOL   , 53*seq_034_mvl/mxv
	.byte		BEND  , c_v-14
	.byte	W02
	.byte		        c_v-17
	.byte	W01
	.byte		VOL   , 48*seq_034_mvl/mxv
	.byte	W01
	.byte		BEND  , c_v-20
	.byte	W02
	.byte		VOL   , 42*seq_034_mvl/mxv
	.byte		BEND  , c_v-23
	.byte	W02
	.byte		        c_v-27
	.byte	W01
	.byte		VOL   , 37*seq_034_mvl/mxv
	.byte	W01
	.byte		BEND  , c_v-30
	.byte	W24
	.byte	W01
	.byte	FINE

@******************************************************@

	.align	2

seq_034:
	.byte	6	@ NumTrks
	.byte	0	@ NumBlks
	.byte	seq_034_pri	@ Priority
	.byte	seq_034_rev	@ Reverb

	.word	seq_034_grp

	.word	seq_034_0
	.word	seq_034_1
	.word	seq_034_2
	.word	seq_034_3
	.word	seq_034_4
	.word	seq_034_5

	.end
