@ File generated by m4a2s Song-Module
	.include "MPlayDef.s"

	.equ	seq_011_grp, bank_006
	.equ	seq_011_pri, 0
	.equ	seq_011_rev, 0
	.equ	seq_011_mvl, 127
	.equ	seq_011_key, 0

	.section .rodata
	.global	seq_011
	.align	2

@*********************** Track 01 ***********************@

seq_011_0:
	.byte	KEYSH , seq_011_key+0
	.byte	TEMPO , 150/2
	.byte		VOICE , 12
	.byte		VOL   , 77*seq_011_mvl/mxv
	.byte		N06   , Fn5 , v100
	.byte	W06
	.byte		        Gn5 
	.byte	W06
	.byte		N06
	.byte	W06
	.byte		        Fn5 
	.byte	W06
	.byte		        Fs5 
	.byte	W06
	.byte		        Gn5 
	.byte	W06
	.byte		        Fn5 
	.byte	W06
	.byte		        Gn5 
	.byte	W06
	.byte		        Fn5 
	.byte	W06
	.byte		        Gn5 
	.byte	W06
	.byte		N06
	.byte	W06
	.byte		        Fn5 
	.byte	W06
	.byte		        Fs5 
	.byte	W06
	.byte		        Gn5 
	.byte	W06
	.byte		        Fn5 
	.byte	W06
	.byte		        Gn5 
	.byte	W06
	.byte		N06   , Fn5 , v100
	.byte	W06
	.byte		        Gn5 
	.byte	W06
	.byte		N06
	.byte	W06
	.byte		        Fn5 
	.byte	W06
	.byte		        Fs5 
	.byte	W06
	.byte		        Gn5 
	.byte	W06
	.byte		        Fn5 
	.byte	W06
	.byte		        Gn5 
	.byte	W06
	.byte	PEND
	.byte		N06   , Fn5 , v100
	.byte	W06
	.byte		        Gn5 
	.byte	W06
	.byte		N06
	.byte	W06
	.byte		        Fn5 
	.byte	W06
	.byte		        Fs5 
	.byte	W06
	.byte		        Gn5 
	.byte	W06
	.byte		        Fn5 
	.byte	W06
	.byte		        Gn5 
	.byte	W06
	.byte		N06   , Fn5 , v100
	.byte	W06
	.byte		        Gn5 
	.byte	W06
	.byte		N06
	.byte	W06
	.byte		        Fn5 
	.byte	W06
	.byte		        Fs5 
	.byte	W06
	.byte		        Gn5 
	.byte	W06
	.byte		        Fn5 
	.byte	W06
	.byte		        Gn5 
	.byte	W06
	.byte		        Fn5 
	.byte	W06
	.byte		        Gn5 
	.byte	W06
	.byte		N06
	.byte	W06
	.byte		        Fn5 
	.byte	W06
	.byte		        Fs5 
	.byte	W06
	.byte		        Gn5 
	.byte	W06
	.byte		        Fn5 
	.byte	W06
	.byte		        Gn5 
	.byte	W06
	.byte	PEND
	.byte	PATT
	 .word	seq_011_0 + 0x4F
	.byte	PATT
	 .word	seq_011_0 + 0x4F
	.byte	PATT
	 .word	seq_011_0 + 0x4F
	.byte	PATT
	 .word	seq_011_0 + 0x2A
	.byte	GOTO
	 .word	seq_011_0 + 0x3D
	.byte	FINE

@*********************** Track 02 ***********************@

seq_011_1:
	.byte	KEYSH , seq_011_key+0
	.byte		VOICE , 124
	.byte		BENDR , 10
	.byte		VOL   , 25*seq_011_mvl/mxv
	.byte		BEND  , c_v-3
	.byte		N48   , Cn3 , v127
	.byte	W01
	.byte		BEND  , c_v-5
	.byte	W01
	.byte		        c_v-8
	.byte	W01
	.byte		        c_v-10
	.byte	W01
	.byte		        c_v-12
	.byte	W01
	.byte		        c_v-14
	.byte	W01
	.byte		        c_v-16
	.byte	W01
	.byte		        c_v-18
	.byte	W01
	.byte		        c_v-21
	.byte	W01
	.byte		        c_v-23
	.byte	W01
	.byte		        c_v-24
	.byte	W01
	.byte		        c_v-28
	.byte	W01
	.byte		        c_v-30
	.byte	W01
	.byte		        c_v-32
	.byte	W01
	.byte		        c_v-34
	.byte	W01
	.byte		        c_v-35
	.byte	W01
	.byte		        c_v-37
	.byte	W01
	.byte		        c_v-38
	.byte	W01
	.byte		        c_v-40
	.byte	W01
	.byte		        c_v-42
	.byte	W01
	.byte		        c_v-43
	.byte	W01
	.byte		        c_v-46
	.byte	W01
	.byte		        c_v-47
	.byte	W01
	.byte		        c_v-48
	.byte	W01
	.byte		        c_v-49
	.byte	W01
	.byte		        c_v-51
	.byte	W01
	.byte		        c_v-52
	.byte	W01
	.byte		        c_v-53
	.byte	W01
	.byte		        c_v-54
	.byte	W01
	.byte		        c_v-55
	.byte	W01
	.byte		        c_v-56
	.byte	W01
	.byte		        c_v-57
	.byte	W01
	.byte		        c_v-58
	.byte	W01
	.byte		        c_v-59
	.byte	W01
	.byte		        c_v-60
	.byte	W01
	.byte		        c_v-60
	.byte	W01
	.byte		        c_v-61
	.byte	W01
	.byte		        c_v-61
	.byte	W01
	.byte		        c_v-62
	.byte	W01
	.byte		        c_v-62
	.byte	W01
	.byte		        c_v-63
	.byte	W01
	.byte		        c_v-63
	.byte	W01
	.byte		        c_v-64
	.byte	W01
	.byte		        c_v-64
	.byte	W01
	.byte		        c_v-64
	.byte	W01
	.byte		        c_v-64
	.byte	W01
	.byte		        c_v-64
	.byte	W01
	.byte		        c_v-64
	.byte	W01
	.byte		N96
	.byte	W48
	.byte	W48
	.byte		BEND  , c_v-64
	.byte		N36   , Cn3 , v127
	.byte	W01
	.byte		BEND  , c_v-64
	.byte	W01
	.byte		        c_v-64
	.byte	W01
	.byte		        c_v-64
	.byte	W01
	.byte		        c_v-63
	.byte	W01
	.byte		        c_v-63
	.byte	W01
	.byte		        c_v-62
	.byte	W01
	.byte		        c_v-62
	.byte	W01
	.byte		        c_v-61
	.byte	W01
	.byte		        c_v-60
	.byte	W01
	.byte		        c_v-59
	.byte	W01
	.byte		        c_v-57
	.byte	W01
	.byte		        c_v-55
	.byte	W01
	.byte		        c_v-54
	.byte	W01
	.byte		        c_v-53
	.byte	W01
	.byte		        c_v-51
	.byte	W01
	.byte		        c_v-49
	.byte	W01
	.byte		        c_v-48
	.byte	W01
	.byte		        c_v-46
	.byte	W01
	.byte		        c_v-44
	.byte	W01
	.byte		        c_v-42
	.byte	W01
	.byte		        c_v-38
	.byte	W01
	.byte		        c_v-35
	.byte	W01
	.byte		        c_v-33
	.byte	W01
	.byte		        c_v-30
	.byte	W01
	.byte		        c_v-28
	.byte	W01
	.byte		        c_v-26
	.byte	W01
	.byte		        c_v-24
	.byte	W01
	.byte		        c_v-23
	.byte	W01
	.byte		        c_v-21
	.byte	W01
	.byte		        c_v-20
	.byte	W01
	.byte		        c_v-19
	.byte	W01
	.byte		        c_v-18
	.byte	W01
	.byte		        c_v-17
	.byte	W01
	.byte		        c_v-17
	.byte	W01
	.byte		        c_v-17
	.byte	W01
	.byte		        c_v-17
	.byte		N36
	.byte	W01
	.byte		BEND  , c_v-17
	.byte	W01
	.byte		        c_v-17
	.byte	W01
	.byte		        c_v-18
	.byte	W01
	.byte		        c_v-18
	.byte	W01
	.byte		        c_v-19
	.byte	W01
	.byte		        c_v-20
	.byte	W01
	.byte		        c_v-21
	.byte	W01
	.byte		        c_v-22
	.byte	W01
	.byte		        c_v-24
	.byte	W01
	.byte		        c_v-25
	.byte	W01
	.byte		        c_v-28
	.byte	W01
	.byte		        c_v-30
	.byte	W01
	.byte		        c_v-31
	.byte	W01
	.byte		        c_v-33
	.byte	W01
	.byte		        c_v-34
	.byte	W01
	.byte		        c_v-35
	.byte	W01
	.byte		        c_v-37
	.byte	W01
	.byte		        c_v-38
	.byte	W01
	.byte		        c_v-39
	.byte	W01
	.byte		        c_v-40
	.byte	W01
	.byte		        c_v-41
	.byte	W01
	.byte		        c_v-42
	.byte	W01
	.byte		        c_v-43
	.byte	W01
	.byte		        c_v-44
	.byte	W01
	.byte		        c_v-45
	.byte	W01
	.byte		        c_v-45
	.byte	W01
	.byte		        c_v-46
	.byte	W01
	.byte		        c_v-47
	.byte	W01
	.byte		        c_v-47
	.byte	W01
	.byte		        c_v-47
	.byte	W01
	.byte		        c_v-48
	.byte	W01
	.byte		        c_v-48
	.byte	W01
	.byte		        c_v-48
	.byte	W01
	.byte		        c_v-48
	.byte	W01
	.byte		        c_v-48
	.byte	W01
	.byte		        c_v-48
	.byte		N24
	.byte	W24
	.byte		BEND  , c_v-48
	.byte		N36
	.byte	W01
	.byte		BEND  , c_v-48
	.byte	W01
	.byte		        c_v-48
	.byte	W01
	.byte		        c_v-48
	.byte	W01
	.byte		        c_v-48
	.byte	W01
	.byte		        c_v-47
	.byte	W01
	.byte		        c_v-47
	.byte	W01
	.byte		        c_v-47
	.byte	W01
	.byte		        c_v-46
	.byte	W01
	.byte		        c_v-46
	.byte	W01
	.byte		        c_v-45
	.byte	W01
	.byte		        c_v-44
	.byte	W01
	.byte		        c_v-43
	.byte	W01
	.byte		        c_v-42
	.byte	W01
	.byte		        c_v-41
	.byte	W01
	.byte		        c_v-40
	.byte	W01
	.byte		        c_v-39
	.byte	W01
	.byte		        c_v-38
	.byte	W01
	.byte		        c_v-37
	.byte	W01
	.byte		        c_v-36
	.byte	W01
	.byte		        c_v-34
	.byte	W01
	.byte		        c_v-32
	.byte	W01
	.byte		        c_v-30
	.byte	W01
	.byte		        c_v-29
	.byte	W01
	.byte		        c_v-27
	.byte	W01
	.byte		        c_v-25
	.byte	W01
	.byte		        c_v-24
	.byte	W01
	.byte		        c_v-22
	.byte	W01
	.byte		        c_v-21
	.byte	W01
	.byte		        c_v-20
	.byte	W01
	.byte		        c_v-19
	.byte	W01
	.byte		        c_v-18
	.byte	W01
	.byte		        c_v-18
	.byte	W01
	.byte		        c_v-17
	.byte	W01
	.byte		        c_v-17
	.byte	W01
	.byte		        c_v-17
	.byte	W01
	.byte		        c_v-17
	.byte		N72   , Cn3 , v112
	.byte	W01
	.byte		BEND  , c_v-17
	.byte	W01
	.byte		        c_v-17
	.byte	W01
	.byte		        c_v-18
	.byte	W01
	.byte		        c_v-19
	.byte	W01
	.byte		        c_v-20
	.byte	W01
	.byte		        c_v-21
	.byte	W01
	.byte		        c_v-22
	.byte	W01
	.byte		        c_v-24
	.byte	W01
	.byte		        c_v-26
	.byte	W01
	.byte		        c_v-28
	.byte	W01
	.byte		        c_v-32
	.byte	W01
	.byte		        c_v-34
	.byte	W01
	.byte		        c_v-35
	.byte	W01
	.byte		        c_v-36
	.byte	W01
	.byte		        c_v-37
	.byte	W01
	.byte		        c_v-38
	.byte	W01
	.byte		        c_v-39
	.byte	W01
	.byte		        c_v-40
	.byte	W01
	.byte		        c_v-41
	.byte	W01
	.byte		        c_v-43
	.byte	W01
	.byte		        c_v-44
	.byte	W01
	.byte		        c_v-44
	.byte	W01
	.byte		        c_v-46
	.byte	W01
	.byte		        c_v-47
	.byte	W01
	.byte		        c_v-48
	.byte	W01
	.byte		        c_v-49
	.byte	W01
	.byte		        c_v-50
	.byte	W01
	.byte		        c_v-51
	.byte	W01
	.byte		        c_v-51
	.byte	W01
	.byte		        c_v-52
	.byte	W01
	.byte		        c_v-53
	.byte	W01
	.byte		        c_v-54
	.byte	W01
	.byte		        c_v-55
	.byte	W01
	.byte		        c_v-56
	.byte	W01
	.byte		        c_v-56
	.byte	W01
	.byte		        c_v-57
	.byte	W01
	.byte		        c_v-58
	.byte	W01
	.byte		        c_v-58
	.byte	W01
	.byte		        c_v-59
	.byte	W01
	.byte		        c_v-59
	.byte	W01
	.byte		        c_v-60
	.byte	W01
	.byte		        c_v-60
	.byte	W01
	.byte		        c_v-61
	.byte	W01
	.byte		        c_v-61
	.byte	W01
	.byte		        c_v-62
	.byte	W01
	.byte		        c_v-62
	.byte	W01
	.byte		        c_v-62
	.byte	W01
	.byte		        c_v-63
	.byte	W01
	.byte		        c_v-63
	.byte	W01
	.byte		        c_v-63
	.byte	W01
	.byte		        c_v-63
	.byte	W01
	.byte		        c_v-64
	.byte	W01
	.byte		        c_v-64
	.byte	W01
	.byte		        c_v-64
	.byte	W01
	.byte		        c_v-64
	.byte	W01
	.byte		        c_v-64
	.byte	W01
	.byte		        c_v-64
	.byte	W01
	.byte		        c_v-64
	.byte	W01
	.byte		        c_v-64
	.byte	W01
	.byte		        c_v-64
	.byte	W12
	.byte		        c_v+0
	.byte		N03   , Bn2 , v104
	.byte	W03
	.byte		        An2 , v092
	.byte	W03
	.byte		        En3 , v108
	.byte	W03
	.byte		        Cs4 , v120
	.byte	W03
	.byte		        Cn4 , v127
	.byte	W03
	.byte		        An3 , v112
	.byte	W03
	.byte		        Fn3 , v100
	.byte	W03
	.byte		        Cn3 , v092
	.byte	W03
	.byte		        Dn3 , v108
	.byte	W03
	.byte		        Cs3 , v112
	.byte	W03
	.byte		        Bn2 
	.byte	W03
	.byte		        As2 
	.byte	W03
	.byte		        Bn2 
	.byte	W03
	.byte		        As2 , v108
	.byte	W03
	.byte		        An2 , v104
	.byte	W03
	.byte		        As2 , v100
	.byte	W03
	.byte		        An2 , v104
	.byte	W03
	.byte		        Gs2 , v108
	.byte	W03
	.byte		        An2 
	.byte	W03
	.byte		        Gs2 
	.byte	W03
	.byte		        Gn2 
	.byte	W03
	.byte		        Gs2 
	.byte	W03
	.byte		        Gn2 , v104
	.byte	W03
	.byte		        Fs2 , v100
	.byte	W03
	.byte		        Gn2 , v096
	.byte	W03
	.byte		        Fs2 
	.byte	W03
	.byte		        Gn2 , v100
	.byte	W03
	.byte		        Fn2 , v104
	.byte	W03
	.byte		BEND  , c_v-64
	.byte		N36   , Cn3 , v112
	.byte	W01
	.byte		BEND  , c_v-64
	.byte	W01
	.byte		        c_v-64
	.byte	W01
	.byte		        c_v-64
	.byte	W01
	.byte		        c_v-63
	.byte	W01
	.byte		        c_v-63
	.byte	W01
	.byte		        c_v-62
	.byte	W01
	.byte		        c_v-62
	.byte	W01
	.byte		        c_v-61
	.byte	W01
	.byte		        c_v-60
	.byte	W01
	.byte		        c_v-59
	.byte	W01
	.byte		        c_v-57
	.byte	W01
	.byte		        c_v-55
	.byte	W01
	.byte		        c_v-54
	.byte	W01
	.byte		        c_v-53
	.byte	W01
	.byte		        c_v-51
	.byte	W01
	.byte		        c_v-49
	.byte	W01
	.byte		        c_v-48
	.byte	W01
	.byte		        c_v-46
	.byte	W01
	.byte		        c_v-44
	.byte	W01
	.byte		        c_v-42
	.byte	W01
	.byte		        c_v-38
	.byte	W01
	.byte		        c_v-35
	.byte	W01
	.byte		        c_v-33
	.byte	W01
	.byte		        c_v-30
	.byte	W01
	.byte		        c_v-28
	.byte	W01
	.byte		        c_v-26
	.byte	W01
	.byte		        c_v-24
	.byte	W01
	.byte		        c_v-23
	.byte	W01
	.byte		        c_v-21
	.byte	W01
	.byte		        c_v-20
	.byte	W01
	.byte		        c_v-19
	.byte	W01
	.byte		        c_v-18
	.byte	W01
	.byte		        c_v-17
	.byte	W01
	.byte		        c_v-17
	.byte	W01
	.byte		        c_v-17
	.byte	W01
	.byte		        c_v-17
	.byte		N60   , Cn3 , v127
	.byte	W01
	.byte		BEND  , c_v-17
	.byte	W01
	.byte		        c_v-17
	.byte	W01
	.byte		        c_v-18
	.byte	W01
	.byte		        c_v-19
	.byte	W01
	.byte		        c_v-20
	.byte	W01
	.byte		        c_v-21
	.byte	W01
	.byte		        c_v-22
	.byte	W01
	.byte		        c_v-24
	.byte	W01
	.byte		        c_v-26
	.byte	W01
	.byte		        c_v-28
	.byte	W01
	.byte		        c_v-32
	.byte	W01
	.byte		        c_v-34
	.byte	W01
	.byte		        c_v-35
	.byte	W01
	.byte		        c_v-36
	.byte	W01
	.byte		        c_v-37
	.byte	W01
	.byte		        c_v-38
	.byte	W01
	.byte		        c_v-39
	.byte	W01
	.byte		        c_v-40
	.byte	W01
	.byte		        c_v-41
	.byte	W01
	.byte		        c_v-43
	.byte	W01
	.byte		        c_v-44
	.byte	W01
	.byte		        c_v-44
	.byte	W01
	.byte		        c_v-46
	.byte	W01
	.byte		        c_v-47
	.byte	W01
	.byte		        c_v-48
	.byte	W01
	.byte		        c_v-49
	.byte	W01
	.byte		        c_v-50
	.byte	W01
	.byte		        c_v-51
	.byte	W01
	.byte		        c_v-51
	.byte	W01
	.byte		        c_v-52
	.byte	W01
	.byte		        c_v-53
	.byte	W01
	.byte		        c_v-54
	.byte	W01
	.byte		        c_v-55
	.byte	W01
	.byte		        c_v-56
	.byte	W01
	.byte		        c_v-56
	.byte	W01
	.byte		        c_v-57
	.byte	W01
	.byte		        c_v-58
	.byte	W01
	.byte		        c_v-58
	.byte	W01
	.byte		        c_v-59
	.byte	W01
	.byte		        c_v-59
	.byte	W01
	.byte		        c_v-60
	.byte	W01
	.byte		        c_v-60
	.byte	W01
	.byte		        c_v-61
	.byte	W01
	.byte		        c_v-61
	.byte	W01
	.byte		        c_v-62
	.byte	W01
	.byte		        c_v-62
	.byte	W01
	.byte		        c_v-62
	.byte	W01
	.byte		        c_v-63
	.byte	W01
	.byte		        c_v-63
	.byte	W01
	.byte		        c_v-63
	.byte	W01
	.byte		        c_v-63
	.byte	W01
	.byte		        c_v-64
	.byte	W01
	.byte		        c_v-64
	.byte	W01
	.byte		        c_v-64
	.byte	W01
	.byte		        c_v-64
	.byte	W01
	.byte		        c_v-64
	.byte	W01
	.byte		        c_v-64
	.byte	W01
	.byte		        c_v-64
	.byte	W01
	.byte		        c_v-64
	.byte	W01
	.byte		        c_v-64
	.byte		N96
	.byte	W36
	.byte		BEND  , c_v-64
	.byte	W01
	.byte		        c_v-64
	.byte	W01
	.byte		        c_v-64
	.byte	W01
	.byte		        c_v-63
	.byte	W01
	.byte		        c_v-62
	.byte	W01
	.byte		        c_v-61
	.byte	W01
	.byte		        c_v-60
	.byte	W01
	.byte		        c_v-59
	.byte	W01
	.byte		        c_v-57
	.byte	W01
	.byte		        c_v-55
	.byte	W01
	.byte		        c_v-53
	.byte	W01
	.byte		        c_v-49
	.byte	W01
	.byte		        c_v-48
	.byte	W12
	.byte		        c_v-51
	.byte	W01
	.byte		        c_v-53
	.byte	W01
	.byte		        c_v-55
	.byte	W01
	.byte		        c_v-57
	.byte	W01
	.byte		        c_v-58
	.byte	W01
	.byte		        c_v-60
	.byte	W01
	.byte		        c_v-61
	.byte	W01
	.byte		        c_v-62
	.byte	W01
	.byte		        c_v-63
	.byte	W01
	.byte		        c_v-64
	.byte	W01
	.byte		        c_v-64
	.byte	W01
	.byte		        c_v-64
	.byte	W24
	.byte	W01
	.byte	GOTO
	 .word	seq_011_1 + 0x70
	.byte	FINE

@******************************************************@

	.align	2

seq_011:
	.byte	2	@ NumTrks
	.byte	0	@ NumBlks
	.byte	seq_011_pri	@ Priority
	.byte	seq_011_rev	@ Reverb

	.word	seq_011_grp

	.word	seq_011_0
	.word	seq_011_1

	.end
