@ File generated by m4a2s Song-Module
	.include "MPlayDef.s"

	.equ	seq_010_grp, bank_006
	.equ	seq_010_pri, 0
	.equ	seq_010_rev, 0
	.equ	seq_010_mvl, 127
	.equ	seq_010_key, 0

	.section .rodata
	.global	seq_010
	.align	2

@*********************** Track 01 ***********************@

seq_010_0:
	.byte	KEYSH , seq_010_key+0
	.byte	TEMPO , 160/2
	.byte		VOICE , 80
	.byte		VOL   , 100*seq_010_mvl/mxv
	.byte		N06   , Cn5 , v052
	.byte	W12
	.byte		N06
	.byte	W12
	.byte		N06
	.byte	W06
	.byte		N06
	.byte	W12
	.byte		N06
	.byte	W12
	.byte		N06
	.byte	W12
	.byte		N06
	.byte	W06
	.byte		N06
	.byte	W12
	.byte		N06
	.byte	W12
	.byte		N06   , Bn4 , v052
	.byte	W12
	.byte		N06
	.byte	W12
	.byte		N06
	.byte	W06
	.byte		N06
	.byte	W12
	.byte		N06
	.byte	W12
	.byte		N06
	.byte	W12
	.byte		N06
	.byte	W06
	.byte		N06
	.byte	W12
	.byte		N06
	.byte	W12
	.byte		        Cn5 
	.byte	W12
	.byte		N06
	.byte	W12
	.byte		N06
	.byte	W06
	.byte		N06
	.byte	W12
	.byte		N06
	.byte	W12
	.byte		N06
	.byte	W12
	.byte		N06
	.byte	W06
	.byte		N06
	.byte	W12
	.byte		N06
	.byte	W12
	.byte	GOTO
	 .word	seq_010_0 + 0x1C
	.byte	FINE

@*********************** Track 02 ***********************@

seq_010_1:
	.byte	KEYSH , seq_010_key+0
	.byte		VOICE , 101
	.byte		VOL   , 78*seq_010_mvl/mxv
	.byte		N06   , En4 , v052
	.byte	W12
	.byte		N06
	.byte	W12
	.byte		N06
	.byte	W06
	.byte		N06
	.byte	W12
	.byte		N06
	.byte	W12
	.byte		N06
	.byte	W12
	.byte		N06
	.byte	W06
	.byte		N06
	.byte	W12
	.byte		N06
	.byte	W12
	.byte		N06   , Dn4 , v052
	.byte	W12
	.byte		N06
	.byte	W12
	.byte		N06
	.byte	W06
	.byte		N06
	.byte	W12
	.byte		N06
	.byte	W12
	.byte		N06
	.byte	W12
	.byte		N06
	.byte	W06
	.byte		N06
	.byte	W12
	.byte		N06
	.byte	W12
	.byte		        En4 
	.byte	W12
	.byte		N06
	.byte	W12
	.byte		N06
	.byte	W06
	.byte		N06
	.byte	W12
	.byte		N06
	.byte	W12
	.byte		N06
	.byte	W12
	.byte		N06
	.byte	W06
	.byte		N06
	.byte	W12
	.byte		N06
	.byte	W12
	.byte	GOTO
	 .word	seq_010_1 + 0x1A
	.byte	FINE

@*********************** Track 03 ***********************@

seq_010_2:
	.byte	KEYSH , seq_010_key+0
	.byte		VOICE , 102
	.byte		VOL   , 78*seq_010_mvl/mxv
	.byte		N06   , An4 , v052
	.byte	W12
	.byte		N06
	.byte	W12
	.byte		N06
	.byte	W06
	.byte		N06
	.byte	W12
	.byte		N06
	.byte	W12
	.byte		N06
	.byte	W12
	.byte		N06
	.byte	W06
	.byte		N06
	.byte	W12
	.byte		N06
	.byte	W12
	.byte		N06   , Gn4 , v052
	.byte	W12
	.byte		N06
	.byte	W12
	.byte		N06
	.byte	W06
	.byte		N06
	.byte	W12
	.byte		N06
	.byte	W12
	.byte		N06
	.byte	W12
	.byte		N06
	.byte	W06
	.byte		N06
	.byte	W12
	.byte		N06
	.byte	W12
	.byte		        An4 
	.byte	W12
	.byte		N06
	.byte	W12
	.byte		N06
	.byte	W06
	.byte		N06
	.byte	W12
	.byte		N06
	.byte	W12
	.byte		N06
	.byte	W12
	.byte		N06
	.byte	W06
	.byte		N06
	.byte	W12
	.byte		N06
	.byte	W12
	.byte	GOTO
	 .word	seq_010_2 + 0x1A
	.byte	FINE

@*********************** Track 04 ***********************@

seq_010_3:
	.byte	KEYSH , seq_010_key+0
	.byte		VOICE , 123
	.byte		VOL   , 78*seq_010_mvl/mxv
	.byte		PAN   , c_v+0
	.byte		N06   , An4 , v072
	.byte	W06
	.byte		        En5 
	.byte	W06
	.byte		        An5 
	.byte	W06
	.byte		        An4 
	.byte	W06
	.byte		        En5 
	.byte	W06
	.byte		        An5 
	.byte	W06
	.byte		        An4 
	.byte	W06
	.byte		        En5 
	.byte	W06
	.byte		        An5 
	.byte	W06
	.byte		        An4 
	.byte	W06
	.byte		        En5 
	.byte	W06
	.byte		        An5 
	.byte	W06
	.byte		        An4 
	.byte	W06
	.byte		        En5 
	.byte	W06
	.byte		        An5 
	.byte	W06
	.byte		        En5 
	.byte	W06
	.byte		N06   , Gn4 , v072
	.byte	W06
	.byte		        Dn5 
	.byte	W06
	.byte		        Gn5 
	.byte	W06
	.byte		        Gn4 
	.byte	W06
	.byte		        Dn5 
	.byte	W06
	.byte		        Gn5 
	.byte	W06
	.byte		        Gn4 
	.byte	W06
	.byte		        Dn5 
	.byte	W06
	.byte		        Gn5 
	.byte	W06
	.byte		        Gn4 
	.byte	W06
	.byte		        Dn5 
	.byte	W06
	.byte		        Gn5 
	.byte	W06
	.byte		        Gn4 
	.byte	W06
	.byte		        Dn5 
	.byte	W06
	.byte		        Gn5 
	.byte	W06
	.byte		        Dn5 
	.byte	W06
	.byte		        An4 
	.byte	W06
	.byte		        En5 
	.byte	W06
	.byte		        An5 
	.byte	W06
	.byte		        An4 
	.byte	W06
	.byte		        En5 
	.byte	W06
	.byte		        An5 
	.byte	W06
	.byte		        An4 
	.byte	W06
	.byte		        En5 
	.byte	W06
	.byte		        An5 
	.byte	W06
	.byte		        An4 
	.byte	W06
	.byte		        En5 
	.byte	W06
	.byte		        An5 
	.byte	W06
	.byte		        An4 
	.byte	W06
	.byte		        En5 
	.byte	W06
	.byte		        An5 
	.byte	W06
	.byte		        En5 
	.byte	W06
	.byte	GOTO
	 .word	seq_010_3 + 0x2A
	.byte	FINE

@*********************** Track 05 ***********************@

seq_010_4:
	.byte	KEYSH , seq_010_key+0
	.byte		VOICE , 34
	.byte		VOL   , 100*seq_010_mvl/mxv
	.byte		BEND  , c_v+0
	.byte		N18   , Dn1 , v127
	.byte	W18
	.byte		        An1 
	.byte	W18
	.byte		BEND  , c_v-20
	.byte		N24   , Dn2 
	.byte	W01
	.byte		BEND  , c_v-13
	.byte	W01
	.byte		        c_v-7
	.byte	W01
	.byte		        c_v-3
	.byte	W02
	.byte		        c_v-1
	.byte	W01
	.byte		        c_v+0
	.byte	W18
	.byte		N12   , Dn1 
	.byte	W12
	.byte		N24   , Cn2 
	.byte	W24
	.byte		N18   , Cn1 , v127
	.byte	W18
	.byte		        Gn1 
	.byte	W18
	.byte		BEND  , c_v-20
	.byte		N24   , Cn2 
	.byte	W01
	.byte		BEND  , c_v-13
	.byte	W01
	.byte		        c_v-7
	.byte	W01
	.byte		        c_v-3
	.byte	W02
	.byte		        c_v-1
	.byte	W01
	.byte		        c_v+0
	.byte	W18
	.byte		N12   , Gn1 
	.byte	W12
	.byte		N24   , Cn1 
	.byte	W24
	.byte		BEND  , c_v+0
	.byte		N18   , Dn1 
	.byte	W18
	.byte		        An1 
	.byte	W18
	.byte		BEND  , c_v-20
	.byte		N24   , Dn2 
	.byte	W01
	.byte		BEND  , c_v-13
	.byte	W01
	.byte		        c_v-7
	.byte	W01
	.byte		        c_v-3
	.byte	W02
	.byte		        c_v-1
	.byte	W01
	.byte		        c_v+0
	.byte	W18
	.byte		N12   , Dn1 
	.byte	W12
	.byte		N24   , Cn2 
	.byte	W24
	.byte	GOTO
	 .word	seq_010_4 + 0x24
	.byte	FINE

@*********************** Track 06 ***********************@

seq_010_5:
	.byte	KEYSH , seq_010_key+0
	.byte		VOICE , 127
	.byte		VOL   , 100*seq_010_mvl/mxv
	.byte		N06   , CsM1, v104
	.byte		N18   , An2 , v100
	.byte		N02   , As3 , v052
	.byte	W06
	.byte		        As3 , v044
	.byte	W06
	.byte		N02
	.byte	W06
	.byte		        As3 , v040
	.byte		N06   , Gs7 , v104
	.byte	W06
	.byte		        CsM1
	.byte		N02   , As3 , v040
	.byte	W06
	.byte		        As3 , v032
	.byte	W06
	.byte		        As3 , v052
	.byte		N06   , Cn8 , v104
	.byte	W06
	.byte		N02   , As3 , v044
	.byte	W06
	.byte		N06   , CsM1, v104
	.byte		N02   , As3 , v036
	.byte	W06
	.byte		        As3 , v040
	.byte		N06   , Cn8 , v104
	.byte	W06
	.byte		N02   , As3 , v040
	.byte		N06   , Gs7 , v104
	.byte	W06
	.byte		N02   , As3 , v044
	.byte	W06
	.byte		N06   , CsM1, v104
	.byte		N02   , As3 , v052
	.byte	W06
	.byte		        As3 , v044
	.byte		N06   , Gs7 , v104
	.byte	W06
	.byte		N02   , As3 , v048
	.byte		N06   , Cn8 , v104
	.byte	W06
	.byte		N02   , As3 , v040
	.byte	W06
	.byte		N06   , CsM1, v104
	.byte		N02   , As3 , v052
	.byte	W06
	.byte		        As3 , v044
	.byte	W06
	.byte		N02
	.byte		N06   , Cn8 , v104
	.byte	W06
	.byte		N02   , As3 , v040
	.byte		N06   , Gs7 , v104
	.byte	W06
	.byte		        CsM1
	.byte		N02   , As3 , v040
	.byte	W06
	.byte		        As3 , v032
	.byte	W06
	.byte		        As3 , v052
	.byte		N06   , Cn8 , v104
	.byte	W06
	.byte		N02   , As3 , v044
	.byte	W06
	.byte		N06   , CsM1, v104
	.byte		N02   , As3 , v036
	.byte	W06
	.byte		        As3 , v040
	.byte		N06   , Cn8 , v104
	.byte	W06
	.byte		N02   , As3 , v040
	.byte		N06   , Gs7 , v104
	.byte	W06
	.byte		        CsM1
	.byte		N02   , As3 , v044
	.byte	W06
	.byte		N06   , CsM1, v104
	.byte		N02   , As3 , v052
	.byte	W06
	.byte		        As3 , v040
	.byte		N03   , Gs7 , v072
	.byte	W03
	.byte		        Gs7 , v088
	.byte	W03
	.byte		N02   , As3 , v048
	.byte		N06   , Gs7 , v104
	.byte	W06
	.byte		N02   , As3 , v040
	.byte		N06   , Cn8 , v104
	.byte	W06
	.byte		        CsM1
	.byte		N02   , As3 , v052
	.byte	W06
	.byte		        As3 , v044
	.byte	W06
	.byte		N02
	.byte		N06   , Cn8 , v104
	.byte	W06
	.byte		N02   , As3 , v040
	.byte		N06   , Gs7 , v104
	.byte	W06
	.byte		        CsM1
	.byte		N02   , As3 , v040
	.byte	W06
	.byte		        As3 , v032
	.byte	W06
	.byte		        As3 , v052
	.byte		N06   , Cn8 , v104
	.byte	W06
	.byte		N02   , As3 , v044
	.byte	W06
	.byte		N06   , CsM1, v104
	.byte		N02   , As3 , v036
	.byte	W06
	.byte		        As3 , v040
	.byte		N06   , Cn8 , v104
	.byte	W06
	.byte		N02   , As3 , v040
	.byte		N06   , Gs7 , v104
	.byte	W06
	.byte		N02   , As3 , v044
	.byte	W06
	.byte		N06   , CsM1, v104
	.byte		N02   , As3 , v052
	.byte	W06
	.byte		        As3 , v044
	.byte		N06   , Gs7 , v104
	.byte	W06
	.byte		N02   , As3 , v048
	.byte		N06   , Cn8 , v104
	.byte	W06
	.byte		N02   , As3 , v040
	.byte	W06
	.byte	GOTO
	 .word	seq_010_5 + 0x5D
	.byte	FINE

@******************************************************@

	.align	2

seq_010:
	.byte	6	@ NumTrks
	.byte	0	@ NumBlks
	.byte	seq_010_pri	@ Priority
	.byte	seq_010_rev	@ Reverb

	.word	seq_010_grp

	.word	seq_010_0
	.word	seq_010_1
	.word	seq_010_2
	.word	seq_010_3
	.word	seq_010_4
	.word	seq_010_5

	.end
