@ File generated by m4a2s Song-Module
	.include "MPlayDef.s"

	.equ	seq_125_grp, bank_044
	.equ	seq_125_pri, 32
	.equ	seq_125_rev, 0
	.equ	seq_125_mvl, 127
	.equ	seq_125_key, 0

	.section .rodata
	.global	seq_125
	.align	2

@*********************** Track 01 ***********************@

seq_125_0:
	.byte	KEYSH , seq_125_key+0
	.byte	TEMPO , 150/2
	.byte		VOICE , 103
	.byte		VOL   , 80*seq_125_mvl/mxv
	.byte		N01   , Fn5 , v068
	.byte	W01
	.byte		        En5 , v088
	.byte	W01
	.byte		        Ds5 , v100
	.byte	W01
	.byte		        Dn5 , v108
	.byte	W01
	.byte		        Cs5 , v116
	.byte	W01
	.byte		        Cn5 , v112
	.byte	W01
	.byte		        Bn4 , v108
	.byte	W01
	.byte		        As4 
	.byte	W01
	.byte		        An4 , v104
	.byte	W01
	.byte		        Gs4 , v100
	.byte	W01
	.byte		        Gn4 
	.byte	W01
	.byte		        Fs4 , v096
	.byte	W01
	.byte		        Fn4 , v092
	.byte	W01
	.byte		        En4 
	.byte	W01
	.byte		        Ds4 , v088
	.byte	W01
	.byte		        Dn4 
	.byte	W01
	.byte		        Cs4 , v084
	.byte	W01
	.byte		        Cn4 
	.byte	W01
	.byte		        Bn3 , v080
	.byte	W01
	.byte		        As3 
	.byte	W01
	.byte		        An3 
	.byte	W01
	.byte		        Gs3 , v076
	.byte	W01
	.byte		        Gn3 
	.byte	W01
	.byte		        Fs3 
	.byte	W01
	.byte		        Fn3 , v072
	.byte	W01
	.byte		        En3 
	.byte	W01
	.byte		        Ds3 , v068
	.byte	W01
	.byte		        Dn3 
	.byte	W01
	.byte		        Cs3 , v064
	.byte	W01
	.byte		        Cn3 , v060
	.byte	W01
	.byte		        Bn2 , v056
	.byte	W01
	.byte		        As2 , v052
	.byte	W01
	.byte		        An2 , v044
	.byte	W01
	.byte		        Gs2 , v036
	.byte	W01
	.byte		        Gn2 , v028
	.byte	W01
	.byte		        Fs2 , v020
	.byte	W13
	.byte	FINE

@*********************** Track 02 ***********************@

seq_125_1:
	.byte		VOL   , 80*seq_125_mvl/mxv
	.byte	KEYSH , seq_125_key+0
	.byte		VOICE , 104
	.byte		BENDR , 20
	.byte		BEND  , c_v+0
	.byte		N48   , Dn2 , v092
	.byte	W03
	.byte		BEND  , c_v+2
	.byte	W01
	.byte		        c_v+5
	.byte	W02
	.byte		        c_v+10
	.byte	W02
	.byte		        c_v+15
	.byte	W02
	.byte		        c_v+20
	.byte	W02
	.byte		        c_v+24
	.byte	W02
	.byte		        c_v+28
	.byte	W02
	.byte		        c_v+32
	.byte	W02
	.byte		        c_v+36
	.byte	W02
	.byte		        c_v+40
	.byte	W02
	.byte		        c_v+43
	.byte	W02
	.byte		        c_v+46
	.byte	W02
	.byte		        c_v+49
	.byte	W02
	.byte		        c_v+51
	.byte	W02
	.byte		        c_v+53
	.byte	W02
	.byte		        c_v+56
	.byte	W02
	.byte		        c_v+57
	.byte	W02
	.byte		        c_v+59
	.byte	W02
	.byte		        c_v+60
	.byte	W02
	.byte		        c_v+61
	.byte	W02
	.byte		        c_v+62
	.byte	W02
	.byte		        c_v+63
	.byte	W02
	.byte		        c_v+63
	.byte	W02
	.byte	FINE

@******************************************************@

	.align	2

seq_125:
	.byte	2	@ NumTrks
	.byte	0	@ NumBlks
	.byte	seq_125_pri	@ Priority
	.byte	seq_125_rev	@ Reverb

	.word	seq_125_grp

	.word	seq_125_0
	.word	seq_125_1

	.end
