@ File generated by m4a2s Song-Module
	.include "MPlayDef.s"

	.equ	seq_030_grp, bank_025
	.equ	seq_030_pri, 0
	.equ	seq_030_rev, 178
	.equ	seq_030_mvl, 127
	.equ	seq_030_key, 0

	.section .rodata
	.global	seq_030
	.align	2

@*********************** Track 01 ***********************@

seq_030_0:
	.byte	KEYSH , seq_030_key+0
	.byte	TEMPO , 140/2
	.byte		VOICE , 12
	.byte		PAN   , c_v+0
	.byte		VOL   , 78*seq_030_mvl/mxv
	.byte		N04   , Fs4 , v120
	.byte	W04
	.byte		        Gn4 
	.byte	W04
	.byte		        Gs4 
	.byte	W04
	.byte		        Gn4 
	.byte	W04
	.byte		        An4 
	.byte	W04
	.byte		        As4 
	.byte	W04
	.byte		N09   , Bn4 
	.byte	W96
	.byte	W12
	.byte		N09   , Fs3 , v120
	.byte	W12
	.byte		        Bn3 
	.byte	W12
	.byte		        Ds4 
	.byte	W12
	.byte		N04   , Fs4 
	.byte	W04
	.byte		        Fs4 , v108
	.byte	W04
	.byte		        Fs4 , v092
	.byte	W04
	.byte		N06   , Fs4 , v112
	.byte	W06
	.byte		        Gs4 , v120
	.byte	W06
	.byte		N09   , Fs4 
	.byte	W12
	.byte		        Gs4 
	.byte	W12
	.byte		N06   , Fs4 
	.byte	W06
	.byte		        Gs4 
	.byte	W06
	.byte		        An4 
	.byte	W06
	.byte		        Gs4 
	.byte	W06
	.byte		N09   , Fs4 
	.byte	W12
	.byte		        Gs4 
	.byte	W12
	.byte		N04   , Fs4 
	.byte	W04
	.byte		        Fs4 , v100
	.byte	W04
	.byte		        Fs4 , v124
	.byte	W04
	.byte		N09   , En4 , v112
	.byte	W12
	.byte		        Ds4 , v120
	.byte	W12
	.byte		        En4 
	.byte	W12
	.byte		        Ds4 
	.byte	W12
	.byte		N04   , Bn3 
	.byte	W04
	.byte		        Bn3 , v092
	.byte	W04
	.byte		        Bn3 , v108
	.byte	W04
	.byte		        Bn3 , v092
	.byte	W04
	.byte		        Bn3 , v108
	.byte	W04
	.byte		        Bn3 , v096
	.byte	W04
	.byte		        Bn3 , v108
	.byte	W04
	.byte		        Bn3 , v096
	.byte	W04
	.byte		        Bn3 , v112
	.byte	W04
	.byte		        Bn3 , v092
	.byte	W04
	.byte		        Bn3 , v112
	.byte	W04
	.byte		        Bn3 , v100
	.byte	W04
	.byte		        Bn3 , v112
	.byte	W04
	.byte		        Bn3 , v092
	.byte	W04
	.byte		        Bn3 , v096
	.byte	W04
	.byte		        Bn3 , v104
	.byte	W04
	.byte		        Bn3 , v084
	.byte	W04
	.byte		        Bn3 , v096
	.byte	W04
	.byte		        Bn3 , v080
	.byte	W04
	.byte		        Bn3 , v088
	.byte	W04
	.byte		        Bn3 , v080
	.byte	W04
	.byte		        An4 , v127
	.byte	W04
	.byte		        An4 , v124
	.byte	W04
	.byte		        An4 , v116
	.byte	W04
	.byte		        An4 , v120
	.byte	W04
	.byte		        An4 , v104
	.byte	W04
	.byte		        An4 , v120
	.byte	W04
	.byte		        An4 , v108
	.byte	W04
	.byte		        An4 , v092
	.byte	W04
	.byte		        An4 , v108
	.byte	W04
	.byte		        An4 , v088
	.byte	W04
	.byte		        An4 , v100
	.byte	W04
	.byte		        An4 , v088
	.byte	W04
	.byte		        Gs4 , v104
	.byte	W04
	.byte		        Gs4 , v100
	.byte	W04
	.byte		        Gs4 , v092
	.byte	W04
	.byte		        Gs4 , v108
	.byte	W04
	.byte		        Gs4 , v100
	.byte	W04
	.byte		        Gs4 , v112
	.byte	W04
	.byte		        Fs4 , v124
	.byte	W04
	.byte		        Fs4 , v120
	.byte	W04
	.byte		        Fs4 , v127
	.byte	W04
	.byte		        Fs4 , v124
	.byte	W04
	.byte		        Fs4 , v127
	.byte	W04
	.byte		N04
	.byte	W04
	.byte	W12
	.byte		N09   , En3 , v120
	.byte	W12
	.byte		        Gs3 
	.byte	W12
	.byte		        Bn3 
	.byte	W12
	.byte		N04   , En4 
	.byte	W04
	.byte		        En4 , v092
	.byte	W04
	.byte		        En4 , v108
	.byte	W04
	.byte		N06   , En4 , v120
	.byte	W06
	.byte		        Fs4 
	.byte	W06
	.byte		N09   , En4 
	.byte	W12
	.byte		        Fs4 
	.byte	W12
	.byte		N06   , En4 
	.byte	W06
	.byte		        Fs4 
	.byte	W06
	.byte		        Gs4 
	.byte	W06
	.byte		        Fs4 
	.byte	W06
	.byte		N09   , En4 
	.byte	W12
	.byte		        Fs4 
	.byte	W12
	.byte		N04   , Gs4 
	.byte	W04
	.byte		        Gs4 , v096
	.byte	W04
	.byte		        Gs4 , v127
	.byte	W04
	.byte		N09   , Fs4 , v112
	.byte	W12
	.byte		        En4 , v120
	.byte	W12
	.byte		        Gs4 
	.byte	W10
	.byte		N02   , Fn4 
	.byte	W02
	.byte		N09   , Fs4 , v120
	.byte	W12
	.byte		N04   , Ds4 
	.byte	W04
	.byte		        Ds4 , v092
	.byte	W04
	.byte		        Ds4 , v108
	.byte	W04
	.byte		        Ds4 , v092
	.byte	W04
	.byte		        Ds4 , v108
	.byte	W04
	.byte		        Ds4 , v096
	.byte	W04
	.byte		        Ds4 , v100
	.byte	W04
	.byte		        Ds4 , v096
	.byte	W04
	.byte		N04
	.byte	W04
	.byte		        Ds4 , v080
	.byte	W04
	.byte		        Ds4 , v108
	.byte	W04
	.byte		        Ds4 , v104
	.byte	W04
	.byte		        Ds4 , v084
	.byte	W04
	.byte		        Ds4 , v104
	.byte	W04
	.byte		        Ds4 , v080
	.byte	W04
	.byte		        Ds4 , v084
	.byte	W04
	.byte		        Ds4 , v072
	.byte	W04
	.byte		        Ds4 , v060
	.byte	W04
	.byte		        Ds4 , v072
	.byte	W04
	.byte		        Ds4 , v064
	.byte	W04
	.byte		        Ds4 , v056
	.byte	W04
	.byte	PEND
	.byte	W84
	.byte		        Gn4 , v120
	.byte	W04
	.byte		        Gn4 , v108
	.byte	W04
	.byte		        Gn4 , v127
	.byte	W04
	.byte		        Gs4 
	.byte	W04
	.byte		        Gs4 , v124
	.byte	W04
	.byte		        Gs4 , v116
	.byte	W04
	.byte		        Gs4 , v120
	.byte	W04
	.byte		        Gs4 , v104
	.byte	W04
	.byte		        Gs4 , v120
	.byte	W04
	.byte		        Gs4 , v108
	.byte	W04
	.byte		        Gs4 , v092
	.byte	W04
	.byte		        Gs4 , v108
	.byte	W04
	.byte		        Gs4 , v088
	.byte	W04
	.byte		        Gs4 , v100
	.byte	W04
	.byte		        Gs4 , v088
	.byte	W04
	.byte		        En4 , v104
	.byte	W04
	.byte		        En4 , v100
	.byte	W04
	.byte		        En4 , v092
	.byte	W04
	.byte		        En4 , v108
	.byte	W04
	.byte		        En4 , v100
	.byte	W04
	.byte		        En4 , v112
	.byte	W04
	.byte		        Gs4 , v124
	.byte	W04
	.byte		        Gs4 , v120
	.byte	W04
	.byte		        Gs4 , v127
	.byte	W04
	.byte		        Gs4 , v124
	.byte	W04
	.byte		        Gs4 , v127
	.byte	W04
	.byte		N04
	.byte	W04
	.byte	PATT
	 .word	seq_030_0 + 0x121
	.byte		N04   , Gs4 , v127
	.byte	W04
	.byte		        Gs4 , v124
	.byte	W04
	.byte		        Gs4 , v116
	.byte	W04
	.byte		        Gs4 , v120
	.byte	W04
	.byte		        Gs4 , v104
	.byte	W04
	.byte		        Gs4 , v120
	.byte	W04
	.byte		        Gs4 , v108
	.byte	W04
	.byte		        Gs4 , v092
	.byte	W04
	.byte		        Gs4 , v108
	.byte	W04
	.byte		        Gs4 , v088
	.byte	W04
	.byte		        Gs4 , v100
	.byte	W04
	.byte		        Gs4 , v088
	.byte	W04
	.byte		        As4 , v104
	.byte	W04
	.byte		        As4 , v100
	.byte	W04
	.byte		        As4 , v092
	.byte	W04
	.byte		        As4 , v108
	.byte	W04
	.byte		        As4 , v100
	.byte	W04
	.byte		        As4 , v112
	.byte	W04
	.byte		        Gs4 , v124
	.byte	W04
	.byte		        Gs4 , v120
	.byte	W04
	.byte		        Gs4 , v127
	.byte	W04
	.byte		        Gs4 , v124
	.byte	W04
	.byte		        Gs4 , v127
	.byte	W04
	.byte		N04
	.byte	W04
	.byte		N09   , Fs4 , v120
	.byte	W12
	.byte		N04   , Bn4 
	.byte	W04
	.byte		        Bn4 , v092
	.byte	W04
	.byte		        Bn4 , v108
	.byte	W04
	.byte		        Bn4 , v092
	.byte	W04
	.byte		        Bn4 , v108
	.byte	W04
	.byte		        Bn4 , v096
	.byte	W04
	.byte		        Bn4 , v100
	.byte	W04
	.byte		        Bn4 , v096
	.byte	W04
	.byte		N04
	.byte	W04
	.byte		        Bn4 , v080
	.byte	W04
	.byte		        Bn4 , v108
	.byte	W04
	.byte		        Bn4 , v104
	.byte	W04
	.byte		        Bn4 , v084
	.byte	W04
	.byte		        Bn4 , v104
	.byte	W04
	.byte		        Bn4 , v080
	.byte	W04
	.byte		        Bn4 , v084
	.byte	W04
	.byte		        Bn4 , v072
	.byte	W04
	.byte		        Bn4 , v060
	.byte	W04
	.byte		        Bn4 , v076
	.byte	W04
	.byte		        Bn4 , v100
	.byte	W04
	.byte		        Bn4 , v120
	.byte	W04
	.byte		N09   , Bn4 , v127
	.byte	W24
	.byte		        An4 
	.byte	W24
	.byte		N06
	.byte	W06
	.byte		N09   , As4 , v120
	.byte	W12
	.byte		N06   , Bn4 
	.byte	W06
	.byte		N06
	.byte	W06
	.byte		        Fs4 
	.byte	W06
	.byte		        Gs4 
	.byte	W06
	.byte		        As4 
	.byte	W06
	.byte		        Bn4 
	.byte	W06
	.byte		        Fs4 
	.byte	W06
	.byte		        Ds4 
	.byte	W06
	.byte		        Fs4 
	.byte	W06
	.byte		        Bn4 
	.byte	W06
	.byte		        Fs4 
	.byte	W06
	.byte		        Ds4 
	.byte	W06
	.byte		        Fs4 
	.byte	W06
	.byte		        Bn4 , v116
	.byte	W06
	.byte		        Fs4 
	.byte	W06
	.byte		        Ds4 
	.byte	W06
	.byte		        Fs4 , v112
	.byte	W06
	.byte		        Bn4 
	.byte	W06
	.byte		        Fs4 
	.byte	W06
	.byte		        Ds4 , v108
	.byte	W06
	.byte		        Fs4 
	.byte	W06
	.byte		        Bn4 , v104
	.byte	W06
	.byte		        Fs4 
	.byte	W06
	.byte		        Ds4 , v100
	.byte	W06
	.byte		        Fs4 
	.byte	W06
	.byte		        Bn4 , v096
	.byte	W06
	.byte		        Fs4 
	.byte	W06
	.byte		        Ds4 , v092
	.byte	W06
	.byte		        Fs4 , v088
	.byte	W06
	.byte		        Bn4 , v084
	.byte	W06
	.byte		        Fs4 
	.byte	W06
	.byte		        Ds4 , v080
	.byte	W06
	.byte		        Fs4 , v076
	.byte	W06
	.byte		        Bn4 , v072
	.byte	W06
	.byte		        Fs4 , v068
	.byte	W06
	.byte		        Ds4 
	.byte	W06
	.byte		        Fs4 , v064
	.byte	W06
	.byte		VOICE , 48
	.byte		VOL   , 62*seq_030_mvl/mxv
	.byte		N72   , Ds4 , v100
	.byte	W72
	.byte		N24   , En4 
	.byte	W24
	.byte		N48   , Fs4 
	.byte	W48
	.byte		        Bn4 , v092
	.byte	W48
	.byte		N96   , An4 , v096
	.byte	W96
	.byte		N60   , Gs4 , v100
	.byte	W60
	.byte		N18   , Fs4 
	.byte	W18
	.byte		        En4 
	.byte	W18
	.byte		N72   , Ds4 
	.byte	W72
	.byte		N24   , En4 
	.byte	W24
	.byte		N60   , Fs4 
	.byte	W60
	.byte		N18   , Bn4 , v092
	.byte	W18
	.byte		        As4 , v096
	.byte	W18
	.byte		N96   , An4 , v100
	.byte	W96
	.byte		N48   , Cs5 , v096
	.byte	W48
	.byte		        En5 , v092
	.byte	W48
	.byte		N12   , Ds5 
	.byte	W06
	.byte		VOL   , 55*seq_030_mvl/mxv
	.byte	W02
	.byte		        39*seq_030_mvl/mxv
	.byte	W02
	.byte		        23*seq_030_mvl/mxv
	.byte	W02
	.byte		VOICE , 12
	.byte		VOL   , 78*seq_030_mvl/mxv
	.byte		N12   , Fs4 , v112
	.byte	W12
	.byte		        Bn4 , v127
	.byte	W12
	.byte		        Fs4 , v112
	.byte	W12
	.byte		        An4 , v124
	.byte	W12
	.byte		N06   , An4 , v127
	.byte	W06
	.byte		        Gs4 
	.byte	W06
	.byte		N12   , Fs4 , v120
	.byte	W12
	.byte		        En4 , v108
	.byte	W12
	.byte		N06   , Fs4 , v120
	.byte	W06
	.byte		        Bn4 
	.byte	W06
	.byte		N12
	.byte	W12
	.byte		N12
	.byte	W12
	.byte		        Fs4 
	.byte	W12
	.byte		N03   , An4 
	.byte	W03
	.byte		        An4 , v084
	.byte	W03
	.byte		N04   , An4 , v108
	.byte	W04
	.byte		N03   , An4 , v080
	.byte	W03
	.byte		N04   , An4 , v108
	.byte	W04
	.byte		N03   , An4 , v080
	.byte	W03
	.byte		N04   , An4 , v108
	.byte	W04
	.byte		N12   , Fs4 , v120
	.byte	W12
	.byte		        An4 
	.byte	W12
	.byte	W12
	.byte		        Fs4 , v100
	.byte	W12
	.byte		        Bn4 , v108
	.byte	W12
	.byte		        Ds5 , v127
	.byte	W12
	.byte		        En5 
	.byte	W12
	.byte		N06   , En5 , v120
	.byte	W06
	.byte		        Ds5 , v108
	.byte	W06
	.byte		N12   , Cs5 , v127
	.byte	W12
	.byte		        Gs5 
	.byte	W12
	.byte		N06   , Fs5 
	.byte	W06
	.byte		        Gs5 , v108
	.byte	W06
	.byte		        Fs5 , v124
	.byte	W06
	.byte		        Ds5 , v096
	.byte	W06
	.byte		        En5 , v120
	.byte	W06
	.byte		        Fs5 , v096
	.byte	W06
	.byte		        En5 , v104
	.byte	W06
	.byte		        Cs5 , v092
	.byte	W06
	.byte		        Ds5 , v120
	.byte	W06
	.byte		        En5 , v104
	.byte	W06
	.byte		        Ds5 , v112
	.byte	W06
	.byte		        Bn4 , v096
	.byte	W06
	.byte		        Cs5 , v120
	.byte	W06
	.byte		        Bn4 , v100
	.byte	W06
	.byte		        As4 , v096
	.byte	W06
	.byte		        Gs4 , v084
	.byte	W06
	.byte		N03   , Fs4 , v127
	.byte	W03
	.byte		        Fs4 , v096
	.byte	W03
	.byte		        Fs4 , v112
	.byte	W03
	.byte		N04   , Fs4 , v088
	.byte	W04
	.byte		N03   , Fs4 , v116
	.byte	W03
	.byte		        Fs4 , v092
	.byte	W03
	.byte		N04   , Fs4 , v112
	.byte	W04
	.byte		N03   , Fs4 , v088
	.byte	W03
	.byte		N04   , Fs4 , v112
	.byte	W04
	.byte		N03   , Fs4 , v096
	.byte	W03
	.byte		N04   , Fs4 , v112
	.byte	W04
	.byte		        Fs4 , v100
	.byte	W04
	.byte		        Fs4 , v108
	.byte	W04
	.byte		        Fs4 , v072
	.byte	W04
	.byte		        Fs4 , v084
	.byte	W04
	.byte		        Fs4 , v072
	.byte	W04
	.byte		        Fs4 , v096
	.byte	W04
	.byte		        Fs4 , v076
	.byte	W04
	.byte		        Fs4 , v088
	.byte	W04
	.byte		        Fs4 , v048
	.byte	W04
	.byte		        Fs4 , v080
	.byte	W04
	.byte		        Fs4 , v064
	.byte	W04
	.byte		        Fs4 , v084
	.byte	W04
	.byte		        Fs4 , v064
	.byte	W04
	.byte		        Fs4 , v048
	.byte	W04
	.byte		N05   , Fs4 , v084
	.byte	W03
	.byte	W02
	.byte		        Fs4 , v052
	.byte	W05
	.byte		        Fs4 , v040
	.byte	W88
	.byte	W01
	.byte	GOTO
	 .word	seq_030_0 + 0x1B
	.byte	FINE

@*********************** Track 02 ***********************@

seq_030_1:
	.byte	KEYSH , seq_030_key+0
	.byte		VOICE , 34
	.byte		BENDR , 12
	.byte		PAN   , c_v+0
	.byte		VOL   , 100*seq_030_mvl/mxv
	.byte		BEND  , c_v+0
	.byte		N24   , Fs1 , v127
	.byte	W02
	.byte		BEND  , c_v-1
	.byte	W02
	.byte		        c_v-3
	.byte	W03
	.byte		        c_v-7
	.byte	W02
	.byte		        c_v-11
	.byte	W02
	.byte		        c_v-18
	.byte	W03
	.byte		        c_v-25
	.byte	W02
	.byte		        c_v-34
	.byte	W03
	.byte		        c_v-45
	.byte	W02
	.byte		        c_v-56
	.byte	W03
	.byte		BEND  , c_v+0
	.byte		N24   , Bn0 , v127
	.byte	W24
	.byte		N18   , Fs0 
	.byte	W18
	.byte		N06   , Bn0 
	.byte	W12
	.byte		N06
	.byte	W12
	.byte		N06
	.byte	W06
	.byte		N12   , Fs0 
	.byte	W12
	.byte		N12
	.byte	W12
	.byte	PEND
	.byte		N24   , Bn0 , v127
	.byte	W24
	.byte		N18   , Fs0 
	.byte	W18
	.byte		N06   , Bn0 
	.byte	W12
	.byte		N06
	.byte	W12
	.byte		N06
	.byte	W06
	.byte		N12   , Fs0 
	.byte	W12
	.byte		N12
	.byte	W12
	.byte	PEND
	.byte		N24   , Bn0 
	.byte	W24
	.byte		N18   , Fs0 
	.byte	W18
	.byte		N06   , Bn0 
	.byte	W12
	.byte		N06
	.byte	W12
	.byte		N06
	.byte	W06
	.byte		N12   , Fs0 
	.byte	W12
	.byte		        Ds1 
	.byte	W12
	.byte	PATT
	 .word	seq_030_1 + 0x39
	.byte		N24   , Bn0 , v127
	.byte	W24
	.byte		N18   , Fs0 
	.byte	W18
	.byte		N06   , Bn0 
	.byte	W12
	.byte		N06
	.byte	W12
	.byte		N06
	.byte	W06
	.byte		N12   , Ds1 
	.byte	W12
	.byte		        Fs1 
	.byte	W12
	.byte		N24   , En1 
	.byte	W24
	.byte		N18   , Bn0 
	.byte	W18
	.byte		N06   , En1 
	.byte	W12
	.byte		N06
	.byte	W12
	.byte		N06
	.byte	W06
	.byte		N12   , Bn0 
	.byte	W12
	.byte		N12
	.byte	W12
	.byte		N24   , En1 
	.byte	W24
	.byte		N18   , Bn0 
	.byte	W18
	.byte		N06   , En1 
	.byte	W12
	.byte		N06
	.byte	W12
	.byte		N06
	.byte	W06
	.byte		N12   , Bn0 
	.byte	W12
	.byte		        En1 
	.byte	W12
	.byte	PATT
	 .word	seq_030_1 + 0x39
	.byte		N24   , Bn0 , v127
	.byte	W24
	.byte		N18   , Fs0 
	.byte	W18
	.byte		N06   , Bn0 
	.byte	W12
	.byte		N06
	.byte	W12
	.byte		N06
	.byte	W06
	.byte		N12   , Ds1 
	.byte	W12
	.byte		        Bn0 
	.byte	W12
	.byte		N18   , En1 
	.byte	W18
	.byte		        Bn0 
	.byte	W18
	.byte		        Gs0 
	.byte	W18
	.byte		        Bn0 
	.byte	W18
	.byte		BEND  , c_v+0
	.byte		N24   , En1 
	.byte	W02
	.byte		BEND  , c_v-1
	.byte	W02
	.byte		        c_v-3
	.byte	W03
	.byte		        c_v-7
	.byte	W02
	.byte		        c_v-11
	.byte	W02
	.byte		        c_v-18
	.byte	W03
	.byte		        c_v-25
	.byte	W02
	.byte		        c_v-34
	.byte	W03
	.byte		        c_v-45
	.byte	W02
	.byte		        c_v-56
	.byte	W03
	.byte		BEND  , c_v+0
	.byte		N24   , Bn0 , v127
	.byte	W24
	.byte		N18   , Fs0 
	.byte	W18
	.byte		N06   , Bn0 
	.byte	W12
	.byte		N06
	.byte	W12
	.byte		N06
	.byte	W06
	.byte		N12   , Ds1 
	.byte	W12
	.byte		        Fs1 
	.byte	W12
	.byte	PEND
	.byte		N18   , En1 
	.byte	W18
	.byte		        Bn0 
	.byte	W18
	.byte		        Gs0 
	.byte	W18
	.byte		        En1 
	.byte	W18
	.byte		BEND  , c_v+0
	.byte		N24   , Gs1 
	.byte	W02
	.byte		BEND  , c_v-1
	.byte	W02
	.byte		        c_v-3
	.byte	W03
	.byte		        c_v-7
	.byte	W02
	.byte		        c_v-11
	.byte	W02
	.byte		        c_v-18
	.byte	W03
	.byte		        c_v-25
	.byte	W02
	.byte		        c_v-34
	.byte	W03
	.byte		        c_v-45
	.byte	W02
	.byte		        c_v-56
	.byte	W03
	.byte	PATT
	 .word	seq_030_1 + 0xD4
	.byte		N08   , Bn1 , v127
	.byte	W24
	.byte		N23   , An1 
	.byte	W24
	.byte		N06
	.byte	W06
	.byte		        As1 
	.byte	W12
	.byte		N30   , Bn1 
	.byte	W06
	.byte		BEND  , c_v+0
	.byte	W02
	.byte		        c_v-1
	.byte	W02
	.byte		        c_v-3
	.byte	W03
	.byte		        c_v-7
	.byte	W02
	.byte		        c_v-11
	.byte	W02
	.byte		        c_v-18
	.byte	W03
	.byte		        c_v-25
	.byte	W02
	.byte		        c_v-34
	.byte	W03
	.byte		        c_v-45
	.byte	W02
	.byte		        c_v-56
	.byte	W03
	.byte	PATT
	 .word	seq_030_1 + 0x23
	.byte	PATT
	 .word	seq_030_1 + 0x39
	.byte	PATT
	 .word	seq_030_1 + 0x39
	.byte		N24   , Bn0 , v127
	.byte	W24
	.byte		N18   , Fs0 
	.byte	W18
	.byte		N06   , Bn0 
	.byte	W12
	.byte		N06
	.byte	W12
	.byte		        Fs0 
	.byte	W06
	.byte		N12   , Bn0 
	.byte	W12
	.byte		        As0 
	.byte	W12
	.byte		N24   , An0 , v127
	.byte	W24
	.byte		N18   , En0 
	.byte	W18
	.byte		N06   , An0 
	.byte	W12
	.byte		N06
	.byte	W12
	.byte		N06
	.byte	W06
	.byte		N12   , En0 
	.byte	W12
	.byte		N12
	.byte	W12
	.byte	PEND
	.byte		N24   , An0 
	.byte	W24
	.byte		N18   , En0 
	.byte	W18
	.byte		N06   , An0 
	.byte	W12
	.byte		N06
	.byte	W12
	.byte		        En0 
	.byte	W06
	.byte		N12   , An0 
	.byte	W12
	.byte		        As0 
	.byte	W12
	.byte	PATT
	 .word	seq_030_1 + 0x39
	.byte		N24   , Bn0 , v127
	.byte	W24
	.byte		N18   , Fs0 
	.byte	W18
	.byte		N06   , Bn0 
	.byte	W12
	.byte		N06
	.byte	W12
	.byte		        Fs0 
	.byte	W06
	.byte		N11   , Bn0 
	.byte	W12
	.byte		N12   , As0 
	.byte	W12
	.byte	PATT
	 .word	seq_030_1 + 0x155
	.byte		N24   , An0 , v127
	.byte	W24
	.byte		N18   , En0 
	.byte	W18
	.byte		N06   , An0 
	.byte	W12
	.byte		N06
	.byte	W12
	.byte		        En0 
	.byte	W06
	.byte		        An0 
	.byte	W06
	.byte		        En0 
	.byte	W06
	.byte		        An0 
	.byte	W06
	.byte		        As0 
	.byte	W06
	.byte		        Bn0 
	.byte	W06
	.byte		N06
	.byte	W12
	.byte		        Fs0 
	.byte	W06
	.byte		N06
	.byte	W12
	.byte		        Ds1 
	.byte	W06
	.byte		N06
	.byte	W12
	.byte		        Fs0 
	.byte	W06
	.byte		N06
	.byte	W12
	.byte		        Bn0 
	.byte	W06
	.byte		N06
	.byte	W12
	.byte		        As0 
	.byte	W06
	.byte		N24   , An0 
	.byte	W24
	.byte		N18   , En0 
	.byte	W18
	.byte		N06   , An0 
	.byte	W12
	.byte		N06
	.byte	W12
	.byte		        Cs1 
	.byte	W06
	.byte		N12   , An0 
	.byte	W12
	.byte		        Cs1 
	.byte	W12
	.byte		N06   , Bn0 
	.byte	W06
	.byte		N06
	.byte	W12
	.byte		        Fs0 
	.byte	W06
	.byte		N06
	.byte	W12
	.byte		        Ds1 
	.byte	W06
	.byte		N06
	.byte	W12
	.byte		        Bn0 
	.byte	W06
	.byte		N06
	.byte	W12
	.byte		        Gs1 
	.byte	W06
	.byte		N06
	.byte	W12
	.byte		        En1 
	.byte	W06
	.byte		N18   , Fs1 
	.byte	W18
	.byte		        Ds1 
	.byte	W18
	.byte		        Bn0 
	.byte	W18
	.byte		N06   , Cs1 
	.byte	W12
	.byte		N06
	.byte	W06
	.byte		N12   , As0 
	.byte	W12
	.byte		        Fs0 
	.byte	W12
	.byte	PATT
	 .word	seq_030_1 + 0x39
	.byte	PATT
	 .word	seq_030_1 + 0x39
	.byte	GOTO
	 .word	seq_030_1 + 0x39
	.byte	FINE

@*********************** Track 03 ***********************@

seq_030_2:
	.byte	KEYSH , seq_030_key+0
	.byte		VOICE , 124
	.byte		VOL   , 50*seq_030_mvl/mxv
	.byte		PAN   , c_v+0
	.byte	W24
	.byte		N06   , Fs5 , v100
	.byte	W06
	.byte		        En5 
	.byte	W06
	.byte		        Ds5 
	.byte	W06
	.byte		        En5 
	.byte	W06
	.byte		        Fs5 
	.byte	W06
	.byte		        En5 
	.byte	W06
	.byte		        Ds5 
	.byte	W06
	.byte		        En5 
	.byte	W06
	.byte		        Fs5 
	.byte	W06
	.byte		        En5 
	.byte	W06
	.byte		        Ds5 
	.byte	W06
	.byte		        En5 
	.byte	W06
	.byte		        Fs5 
	.byte	W06
	.byte		        En5 
	.byte	W06
	.byte		        Ds5 
	.byte	W06
	.byte		        En5 
	.byte	W06
	.byte	PEND
	.byte	PATT
	 .word	seq_030_2 + 0x9
	.byte	PATT
	 .word	seq_030_2 + 0x9
	.byte		N06   , Fs5 , v100
	.byte	W06
	.byte		        Gs5 
	.byte	W06
	.byte		        Fs5 
	.byte	W06
	.byte		        Gs5 
	.byte	W06
	.byte		        Fs5 
	.byte	W12
	.byte		        Gs5 
	.byte	W12
	.byte		N18   , An5 
	.byte	W18
	.byte		N06   , Bn5 
	.byte	W06
	.byte		        An5 
	.byte	W12
	.byte		        Gs5 
	.byte	W12
	.byte		        Fs5 
	.byte	W12
	.byte		N24   , Ds5 
	.byte	W24
	.byte		        Bn4 
	.byte	W24
	.byte		N12   , Ds5 
	.byte	W12
	.byte		N06   , Fs5 
	.byte	W06
	.byte		        Ds5 
	.byte	W06
	.byte		        Fs5 
	.byte	W06
	.byte		        An5 
	.byte	W06
	.byte		        En5 
	.byte	W06
	.byte		        Bn4 
	.byte	W06
	.byte		        Gs4 
	.byte	W06
	.byte		        Bn4 
	.byte	W06
	.byte		        En5 
	.byte	W06
	.byte		        Bn4 
	.byte	W06
	.byte		        Gs4 
	.byte	W06
	.byte		        Bn4 
	.byte	W06
	.byte		        En5 
	.byte	W06
	.byte		        Bn4 
	.byte	W06
	.byte		        Gs4 
	.byte	W06
	.byte		        Bn4 
	.byte	W06
	.byte		        En5 
	.byte	W06
	.byte		        Bn4 
	.byte	W06
	.byte		        Gs4 
	.byte	W06
	.byte		        Bn4 
	.byte	W06
	.byte		        En5 
	.byte	W06
	.byte		        Bn4 
	.byte	W06
	.byte		        Gs4 
	.byte	W06
	.byte		        Bn4 
	.byte	W06
	.byte		        En5 
	.byte	W06
	.byte		        Bn4 
	.byte	W06
	.byte		        En5 
	.byte	W06
	.byte		        Gs5 
	.byte	W06
	.byte		        En5 
	.byte	W06
	.byte		        Bn4 
	.byte	W06
	.byte		        Gs4 
	.byte	W06
	.byte		        Bn4 
	.byte	W06
	.byte		        En5 
	.byte	W06
	.byte		        Bn4 
	.byte	W06
	.byte		        Gs5 
	.byte	W06
	.byte		        Bn5 
	.byte	W06
	.byte		        Fs5 
	.byte	W06
	.byte		        Ds5 
	.byte	W06
	.byte		        Bn4 
	.byte	W06
	.byte		        Ds5 
	.byte	W06
	.byte		        Fs5 
	.byte	W06
	.byte		        Ds5 
	.byte	W06
	.byte		        Fs5 
	.byte	W06
	.byte		        Bn5 
	.byte	W06
	.byte		        Ds6 
	.byte	W06
	.byte		        Bn5 
	.byte	W06
	.byte		        Fs5 
	.byte	W06
	.byte		        Ds5 
	.byte	W06
	.byte		        Fs5 
	.byte	W06
	.byte		        Ds5 
	.byte	W06
	.byte		        Bn4 
	.byte	W06
	.byte		        Fs4 
	.byte	W06
	.byte		        Fs5 
	.byte	W06
	.byte		        Ds5 
	.byte	W06
	.byte		        Bn4 
	.byte	W06
	.byte		        Fs5 
	.byte	W06
	.byte		        Bn5 
	.byte	W06
	.byte		        Fs5 
	.byte	W06
	.byte		        Ds5 
	.byte	W06
	.byte		        Bn5 
	.byte	W06
	.byte		        Ds6 
	.byte	W06
	.byte		        Bn5 
	.byte	W06
	.byte		        Fs5 
	.byte	W06
	.byte		        Ds6 
	.byte	W06
	.byte		        Fs6 
	.byte	W06
	.byte		        Ds6 
	.byte	W06
	.byte		        Bn5 
	.byte	W06
	.byte		        Fs6 
	.byte	W06
	.byte		N48   , En6 , v100
	.byte	W48
	.byte		N24   , Cs6 
	.byte	W24
	.byte		        En6 
	.byte	W24
	.byte	PEND
	.byte		N06   , Ds6 
	.byte	W06
	.byte		        Bn5 
	.byte	W06
	.byte		        Fs5 
	.byte	W06
	.byte		        Bn5 
	.byte	W06
	.byte		        Ds6 
	.byte	W06
	.byte		        Bn5 
	.byte	W06
	.byte		        Fs5 
	.byte	W06
	.byte		        Bn5 
	.byte	W06
	.byte		        Ds6 
	.byte	W06
	.byte		        Bn5 
	.byte	W06
	.byte		        Fs5 
	.byte	W06
	.byte		        Bn5 
	.byte	W06
	.byte		        Ds6 
	.byte	W06
	.byte		        Bn5 
	.byte	W06
	.byte		        Ds6 
	.byte	W06
	.byte		        Fs6 
	.byte	W06
	.byte	PATT
	 .word	seq_030_2 + 0xE1
	.byte		N06   , Ds6 , v100
	.byte	W06
	.byte		        Cs6 
	.byte	W06
	.byte		        Bn5 
	.byte	W06
	.byte		        Cs6 
	.byte	W06
	.byte		        Ds6 
	.byte	W06
	.byte		        Cs6 
	.byte	W06
	.byte		        Bn5 
	.byte	W06
	.byte		        Cs6 
	.byte	W06
	.byte		        Ds6 
	.byte	W06
	.byte		        Cs6 
	.byte	W06
	.byte		        Bn5 
	.byte	W06
	.byte		        Cs6 
	.byte	W06
	.byte		        Ds6 
	.byte	W06
	.byte		        Cs6 
	.byte	W06
	.byte		        Bn5 
	.byte	W06
	.byte		        Cs6 
	.byte	W06
	.byte		N08   , Ds6 
	.byte	W24
	.byte		N24   , Cs6 
	.byte	W24
	.byte		N06
	.byte	W06
	.byte		        Dn6 
	.byte	W12
	.byte		        Ds6 
	.byte	W30
	.byte	W96
	.byte		VOICE , 12
	.byte	W96
	.byte		VOL   , 62*seq_030_mvl/mxv
	.byte		N06   , Bn4 , v120
	.byte	W06
	.byte		        Fs4 , v100
	.byte	W06
	.byte		        Ds4 , v116
	.byte	W06
	.byte		        Fs4 , v100
	.byte	W06
	.byte		        Bn4 , v120
	.byte	W06
	.byte		        Fs4 , v104
	.byte	W06
	.byte		        Ds4 , v120
	.byte	W06
	.byte		        Fs4 , v088
	.byte	W06
	.byte		        Bn4 , v120
	.byte	W06
	.byte		        Fs4 , v108
	.byte	W06
	.byte		        Ds4 , v120
	.byte	W06
	.byte		        Fs4 , v096
	.byte	W06
	.byte		        Bn4 , v120
	.byte	W06
	.byte		        Fs4 , v092
	.byte	W06
	.byte		        Ds4 , v120
	.byte	W06
	.byte		        Fs4 , v104
	.byte	W06
	.byte		        Bn4 , v120
	.byte	W06
	.byte		        Fs4 , v100
	.byte	W06
	.byte		        Ds4 , v112
	.byte	W06
	.byte		        Fs4 , v092
	.byte	W06
	.byte		        Bn4 , v120
	.byte	W06
	.byte		        Fs4 , v092
	.byte	W06
	.byte		        Ds4 , v108
	.byte	W06
	.byte		        Fs4 , v092
	.byte	W06
	.byte		        Bn4 , v120
	.byte	W06
	.byte		        Fs4 , v092
	.byte	W06
	.byte		        Ds4 , v108
	.byte	W06
	.byte		        Fs4 , v096
	.byte	W06
	.byte		        Bn4 , v120
	.byte	W06
	.byte		        Fs4 , v096
	.byte	W06
	.byte		        Ds4 , v112
	.byte	W06
	.byte		        Fs4 , v100
	.byte	W06
	.byte		        An4 , v120
	.byte	W06
	.byte		        En4 , v100
	.byte	W06
	.byte		        Cs4 , v116
	.byte	W06
	.byte		        En4 , v092
	.byte	W06
	.byte		        An4 , v120
	.byte	W06
	.byte		        En4 , v100
	.byte	W06
	.byte		        Cs4 , v108
	.byte	W06
	.byte		        En4 , v096
	.byte	W06
	.byte		        An4 , v120
	.byte	W06
	.byte		        En4 , v100
	.byte	W06
	.byte		        Cs4 , v108
	.byte	W06
	.byte		        En4 , v100
	.byte	W06
	.byte		        An4 , v120
	.byte	W06
	.byte		        En4 , v096
	.byte	W06
	.byte		        Cs4 , v108
	.byte	W06
	.byte		        En4 , v100
	.byte	W06
	.byte		        Gs4 , v120
	.byte	W06
	.byte		        En4 , v100
	.byte	W06
	.byte		        Cs4 , v116
	.byte	W06
	.byte		        En4 , v100
	.byte	W06
	.byte		        Gs4 , v120
	.byte	W06
	.byte		        En4 , v100
	.byte	W06
	.byte		        Cs4 , v120
	.byte	W06
	.byte		        En4 , v100
	.byte	W06
	.byte		        Gs4 , v120
	.byte	W06
	.byte		        En4 , v100
	.byte	W06
	.byte		        Cs4 , v116
	.byte	W06
	.byte		        En4 , v100
	.byte	W06
	.byte		        Gs4 , v120
	.byte	W06
	.byte		        En4 , v092
	.byte	W06
	.byte		        Cs4 , v116
	.byte	W06
	.byte		        En4 , v096
	.byte	W06
	.byte		        Fs4 , v120
	.byte	W06
	.byte		        Ds4 , v100
	.byte	W06
	.byte		        Bn3 , v112
	.byte	W06
	.byte		        Ds4 , v088
	.byte	W06
	.byte		        Fs4 , v120
	.byte	W06
	.byte		        Ds4 , v108
	.byte	W06
	.byte		        Bn3 , v120
	.byte	W06
	.byte		        Ds4 , v100
	.byte	W06
	.byte		        Fs4 , v120
	.byte	W06
	.byte		        Ds4 , v100
	.byte	W06
	.byte		        Bn3 , v124
	.byte	W06
	.byte		        Ds4 , v084
	.byte	W06
	.byte		        Fs4 , v120
	.byte	W06
	.byte		        Ds4 , v088
	.byte	W06
	.byte		        Bn3 , v112
	.byte	W06
	.byte		        Ds4 , v096
	.byte	W06
	.byte		        Fs4 , v120
	.byte	W06
	.byte		        Ds4 , v104
	.byte	W06
	.byte		        Bn3 , v112
	.byte	W06
	.byte		        Ds4 , v104
	.byte	W06
	.byte		        Fs4 , v120
	.byte	W06
	.byte		        Ds4 , v100
	.byte	W06
	.byte		        Bn3 , v112
	.byte	W06
	.byte		        Ds4 , v096
	.byte	W06
	.byte		        Fs4 , v120
	.byte	W06
	.byte		        Ds4 , v108
	.byte	W06
	.byte		        Bn3 , v120
	.byte	W06
	.byte		        Ds4 , v104
	.byte	W06
	.byte		        Fs4 , v120
	.byte	W06
	.byte		        Ds4 , v092
	.byte	W06
	.byte		        Fs4 , v108
	.byte	W06
	.byte		        Bn4 , v092
	.byte	W06
	.byte		        An4 , v120
	.byte	W06
	.byte		        En4 , v096
	.byte	W06
	.byte		        Cs4 , v112
	.byte	W06
	.byte		        En4 , v100
	.byte	W06
	.byte		        An4 , v120
	.byte	W06
	.byte		        En4 , v104
	.byte	W06
	.byte		        Cs4 , v120
	.byte	W06
	.byte		        En4 , v100
	.byte	W06
	.byte		        An4 , v120
	.byte	W06
	.byte		        En4 , v112
	.byte	W06
	.byte		        Cs4 , v124
	.byte	W06
	.byte		        En4 , v096
	.byte	W06
	.byte		        An4 , v120
	.byte	W06
	.byte		        En4 , v096
	.byte	W06
	.byte		        Cs4 , v112
	.byte	W06
	.byte		        En4 , v096
	.byte	W06
	.byte		VOL   , 70*seq_030_mvl/mxv
	.byte		N06   , An4 , v120
	.byte	W06
	.byte		        En4 , v108
	.byte	W06
	.byte		        Cs4 , v120
	.byte	W06
	.byte		        En4 , v104
	.byte	W06
	.byte		        An4 , v120
	.byte	W06
	.byte		        En4 , v096
	.byte	W06
	.byte		        Cs4 , v120
	.byte	W06
	.byte		        En4 , v100
	.byte	W06
	.byte		VOL   , 78*seq_030_mvl/mxv
	.byte		N06   , An4 , v120
	.byte	W06
	.byte		        En4 , v104
	.byte	W06
	.byte		        An4 , v116
	.byte	W06
	.byte		        En4 , v104
	.byte	W06
	.byte		        An4 , v120
	.byte	W06
	.byte		        Cs5 , v100
	.byte	W06
	.byte		        An4 , v124
	.byte	W06
	.byte		        En5 , v127
	.byte	W06
	.byte		VOICE , 124
	.byte		VOL   , 50*seq_030_mvl/mxv
	.byte		N06   , Ds6 , v100
	.byte	W06
	.byte		N06
	.byte	W30
	.byte		N06
	.byte	W06
	.byte		N06
	.byte	W30
	.byte		N04   , Bn4 
	.byte	W04
	.byte		        Ds5 
	.byte	W04
	.byte		        Fs5 
	.byte	W04
	.byte		        Gs5 
	.byte	W04
	.byte		        As5 
	.byte	W04
	.byte		        Bn5 
	.byte	W04
	.byte		N06   , Cs6 
	.byte	W06
	.byte		        An5 
	.byte	W06
	.byte		        En5 
	.byte	W06
	.byte		        An5 
	.byte	W06
	.byte		        Cs6 
	.byte	W06
	.byte		        An5 
	.byte	W06
	.byte		        En5 
	.byte	W06
	.byte		        An5 
	.byte	W06
	.byte		        Cs6 
	.byte	W06
	.byte		        An5 
	.byte	W06
	.byte		        En5 
	.byte	W06
	.byte		        An5 
	.byte	W06
	.byte		        Cs6 
	.byte	W06
	.byte		        An5 
	.byte	W06
	.byte		        En5 
	.byte	W06
	.byte		        An5 
	.byte	W06
	.byte		        Ds6 
	.byte	W06
	.byte		N06
	.byte	W30
	.byte		        Bn5 
	.byte	W06
	.byte		N06
	.byte	W30
	.byte		N04   , Fs5 
	.byte	W04
	.byte		        Gs5 
	.byte	W04
	.byte		        As5 
	.byte	W04
	.byte		        Bn5 
	.byte	W04
	.byte		        Cs6 
	.byte	W04
	.byte		        En6 
	.byte	W04
	.byte		N24   , Fs6 
	.byte	W24
	.byte		        En6 
	.byte	W24
	.byte		N16   , Cs6 
	.byte	W16
	.byte		N16
	.byte	W16
	.byte		        Gs5 
	.byte	W16
	.byte	PATT
	 .word	seq_030_2 + 0x9
	.byte	PATT
	 .word	seq_030_2 + 0x9
	.byte	GOTO
	 .word	seq_030_2 + 0x2C
	.byte	FINE

@*********************** Track 04 ***********************@

seq_030_3:
	.byte	KEYSH , seq_030_key+0
	.byte		VOICE , 102
	.byte		PAN   , c_v-64
	.byte		VOL   , 47*seq_030_mvl/mxv
	.byte		N24   , Fs4 , v092
	.byte	W24
	.byte		N06   , Bn4 
	.byte	W16
	.byte		        Bn4 , v084
	.byte	W16
	.byte		PAN   , c_v+63
	.byte		N06   , Bn4 , v064
	.byte	W16
	.byte		PAN   , c_v-64
	.byte		N06   , Bn4 , v048
	.byte	W16
	.byte		PAN   , c_v+63
	.byte		N06   , Bn4 , v036
	.byte	W16
	.byte		PAN   , c_v-64
	.byte		N06   , Bn4 , v028
	.byte	W16
	.byte	W96
	.byte	W96
	.byte		PAN   , c_v+0
	.byte	W60
	.byte		N06   , Fs4 , v076
	.byte	W12
	.byte		        Gs4 
	.byte	W12
	.byte		N60   , An4 
	.byte	W12
	.byte	W48
	.byte		N24   , Gs4 
	.byte	W24
	.byte		        Fs4 
	.byte	W24
	.byte		N06   , En4 
	.byte	W16
	.byte		PAN   , c_v-64
	.byte		N06   , En4 , v084
	.byte	W16
	.byte		PAN   , c_v+63
	.byte		N06   , En4 , v064
	.byte	W16
	.byte		PAN   , c_v-64
	.byte		N06   , En4 , v048
	.byte	W16
	.byte		PAN   , c_v+63
	.byte		N06   , En4 , v036
	.byte	W16
	.byte		PAN   , c_v-64
	.byte		N06   , En4 , v028
	.byte	W16
	.byte	W96
	.byte		PAN   , c_v+0
	.byte	W96
	.byte	W12
	.byte		N06   , Ds4 , v076
	.byte	W18
	.byte		        Fs4 
	.byte	W18
	.byte		N24   , Bn4 
	.byte	W24
	.byte		        An4 
	.byte	W24
	.byte		N05   , Gs4 
	.byte	W06
	.byte		N05
	.byte	W24
	.byte		PAN   , c_v-64
	.byte	W06
	.byte		N05   , En4 , v092
	.byte	W06
	.byte		N05
	.byte	W18
	.byte		PAN   , c_v+63
	.byte	W12
	.byte		N05   , Gs4 
	.byte	W06
	.byte		N05
	.byte	W12
	.byte		PAN   , c_v+0
	.byte	W06
	.byte		N18   , Fs4 , v076
	.byte	W18
	.byte		        Ds4 
	.byte	W18
	.byte		        Bn3 
	.byte	W18
	.byte		        Ds4 
	.byte	W18
	.byte		N06   , Fs4 
	.byte	W12
	.byte		        Ds4 
	.byte	W12
	.byte		N05   , Gs4 
	.byte	W06
	.byte		N05
	.byte	W24
	.byte		PAN   , c_v+63
	.byte	W06
	.byte		N05   , As4 , v092
	.byte	W06
	.byte		N05
	.byte	W18
	.byte		PAN   , c_v-64
	.byte	W12
	.byte		N05   , Gs4 
	.byte	W06
	.byte		N05
	.byte	W12
	.byte		PAN   , c_v+0
	.byte	W06
	.byte		N08   , Fs4 , v076
	.byte	W08
	.byte		N02   , Ds4 , v064
	.byte	W02
	.byte		        Bn3 , v056
	.byte	W02
	.byte		N01   , Fs3 , v040
	.byte	W42
	.byte		N06   , Fs4 , v076
	.byte	W12
	.byte		N06
	.byte	W06
	.byte		        Gs4 
	.byte	W12
	.byte		        As4 
	.byte	W12
	.byte		        Bn4 
	.byte	W24
	.byte		N23   , An4 
	.byte	W24
	.byte		N06
	.byte	W06
	.byte		        As4 
	.byte	W12
	.byte		N08   , Bn4 
	.byte	W08
	.byte		N02   , Fs4 , v072
	.byte	W02
	.byte		        Ds4 , v068
	.byte	W02
	.byte		        Bn3 , v056
	.byte	W02
	.byte		N01   , Fs3 , v036
	.byte	W16
	.byte		N08   , Bn4 , v076
	.byte	W08
	.byte		N02   , Fs4 , v072
	.byte	W02
	.byte		        Ds4 , v068
	.byte	W02
	.byte		        Bn3 , v056
	.byte	W02
	.byte		N01   , Fs3 , v036
	.byte	W80
	.byte	W02
	.byte	W96
	.byte	W96
	.byte	W96
	.byte	W24
	.byte		N08   , An4 , v084
	.byte	W24
	.byte		N17
	.byte	W18
	.byte		N08
	.byte	W30
	.byte	PEND
	.byte	W24
	.byte		N08
	.byte	W24
	.byte		N17   , Gs4 
	.byte	W18
	.byte		N17
	.byte	W18
	.byte		N12   , An4 
	.byte	W12
	.byte		N08   , Bn4 
	.byte	W08
	.byte		N02   , Fs4 , v080
	.byte	W02
	.byte		        Ds4 , v076
	.byte	W02
	.byte		        Bn3 , v064
	.byte	W02
	.byte		N01   , Fs3 , v040
	.byte	W80
	.byte	W02
	.byte	W96
	.byte	PATT
	 .word	seq_030_3 + 0xF9
	.byte	W24
	.byte		N08   , An4 , v084
	.byte	W24
	.byte		N17
	.byte	W18
	.byte		N17
	.byte	W18
	.byte		N12   , Cs5 
	.byte	W12
	.byte		N05   , Bn4 
	.byte	W06
	.byte		N05
	.byte	W23
	.byte		PAN   , c_v-64
	.byte	W07
	.byte		N05   , Fs4 , v092
	.byte	W06
	.byte		N05
	.byte	W17
	.byte		PAN   , c_v+63
	.byte	W13
	.byte		N05   , Bn4 
	.byte	W06
	.byte		N05
	.byte	W11
	.byte		PAN   , c_v+0
	.byte	W07
	.byte		N18   , An4 , v076
	.byte	W18
	.byte		        Fs4 
	.byte	W18
	.byte		        Cs4 
	.byte	W18
	.byte		        Fs4 
	.byte	W18
	.byte		N06   , An4 
	.byte	W12
	.byte		        Cs5 
	.byte	W12
	.byte		N05   , Bn4 
	.byte	W06
	.byte		N05
	.byte	W23
	.byte		PAN   , c_v+63
	.byte	W07
	.byte		N05   , Ds5 , v092
	.byte	W06
	.byte		N05
	.byte	W17
	.byte		PAN   , c_v-64
	.byte	W13
	.byte		N05   , Bn4 
	.byte	W06
	.byte		N05
	.byte	W11
	.byte		PAN   , c_v+0
	.byte	W07
	.byte	W24
	.byte		N08   , An4 , v080
	.byte	W24
	.byte		N17
	.byte	W18
	.byte		N17
	.byte	W18
	.byte		N12   , As4 
	.byte	W12
	.byte		N06   , Bn4 
	.byte	W16
	.byte		PAN   , c_v-64
	.byte		N06   , Bn4 , v084
	.byte	W16
	.byte		PAN   , c_v+63
	.byte		N06   , Bn4 , v064
	.byte	W16
	.byte		PAN   , c_v-64
	.byte		N06   , Bn4 , v048
	.byte	W16
	.byte		PAN   , c_v+63
	.byte		N06   , Bn4 , v036
	.byte	W16
	.byte		PAN   , c_v-64
	.byte		N06   , Bn4 , v028
	.byte	W16
	.byte	W96
	.byte	GOTO
	 .word	seq_030_3 + 0x2A
	.byte	FINE

@*********************** Track 05 ***********************@

seq_030_4:
	.byte	KEYSH , seq_030_key+0
	.byte		VOICE , 101
	.byte		PAN   , c_v+63
	.byte		VOL   , 47*seq_030_mvl/mxv
	.byte		N24   , As3 , v092
	.byte	W24
	.byte		N06   , Ds4 
	.byte	W16
	.byte		PAN   , c_v-64
	.byte		N06   , Ds4 , v084
	.byte	W16
	.byte		PAN   , c_v+63
	.byte		N06   , Ds4 , v064
	.byte	W16
	.byte		PAN   , c_v-64
	.byte		N06   , Ds4 , v048
	.byte	W16
	.byte		PAN   , c_v+63
	.byte		N06   , Ds4 , v036
	.byte	W16
	.byte		PAN   , c_v-64
	.byte		N06   , Ds4 , v028
	.byte	W16
	.byte		PAN   , c_v+63
	.byte	W96
	.byte	W96
	.byte		        c_v+0
	.byte	W60
	.byte		N06   , An3 , v076
	.byte	W12
	.byte		        Bn3 
	.byte	W12
	.byte		N60   , Cs4 
	.byte	W12
	.byte	W48
	.byte		N24   , Bn3 
	.byte	W24
	.byte		        An3 
	.byte	W24
	.byte		N06   , Gs3 
	.byte	W15
	.byte		PAN   , c_v-64
	.byte	W01
	.byte		N06   , Gs3 , v084
	.byte	W15
	.byte		PAN   , c_v+63
	.byte	W01
	.byte		N06   , Gs3 , v064
	.byte	W15
	.byte		PAN   , c_v-64
	.byte	W01
	.byte		N06   , Gs3 , v048
	.byte	W15
	.byte		PAN   , c_v+63
	.byte	W01
	.byte		N06   , Gs3 , v036
	.byte	W15
	.byte		PAN   , c_v-64
	.byte	W01
	.byte		N06   , Gs3 , v028
	.byte	W15
	.byte		PAN   , c_v+63
	.byte	W01
	.byte	W96
	.byte		        c_v+0
	.byte	W96
	.byte	W12
	.byte		N06   , Fs3 , v076
	.byte	W18
	.byte		        Bn3 
	.byte	W18
	.byte		N24   , Ds4 
	.byte	W24
	.byte		        Cs4 
	.byte	W24
	.byte		N05   , Bn3 
	.byte	W06
	.byte		N05
	.byte	W24
	.byte		PAN   , c_v-64
	.byte	W06
	.byte		N05   , Gs3 , v092
	.byte	W06
	.byte		N05
	.byte	W18
	.byte		PAN   , c_v+63
	.byte	W12
	.byte		N05   , Bn3 
	.byte	W06
	.byte		N05
	.byte	W12
	.byte		PAN   , c_v+0
	.byte	W06
	.byte		N18   , Bn3 , v076
	.byte	W18
	.byte		        Fs3 
	.byte	W18
	.byte		        Ds3 
	.byte	W18
	.byte		        Fs3 
	.byte	W18
	.byte		N06   , Bn3 
	.byte	W12
	.byte		        Fs3 
	.byte	W12
	.byte		N05   , Bn3 
	.byte	W06
	.byte		N05
	.byte	W24
	.byte		PAN   , c_v+63
	.byte	W06
	.byte		N05   , Cs4 , v092
	.byte	W06
	.byte		N05
	.byte	W18
	.byte		PAN   , c_v-64
	.byte	W12
	.byte		N05   , Bn3 
	.byte	W06
	.byte		N05
	.byte	W12
	.byte		PAN   , c_v+0
	.byte	W06
	.byte		N08   , Bn3 , v076
	.byte	W08
	.byte		N02   , Fs3 , v064
	.byte	W02
	.byte		        Ds3 , v056
	.byte	W02
	.byte		N01   , Bn2 , v040
	.byte	W42
	.byte		N06   , Bn3 , v076
	.byte	W12
	.byte		N06
	.byte	W06
	.byte		N06
	.byte	W12
	.byte		        Cs4 
	.byte	W12
	.byte		        Ds4 
	.byte	W24
	.byte		N23   , Cs4 
	.byte	W24
	.byte		N06
	.byte	W06
	.byte		        Dn4 
	.byte	W12
	.byte		N08   , Ds4 
	.byte	W08
	.byte		N02   , Bn3 , v072
	.byte	W02
	.byte		        Fs3 , v068
	.byte	W02
	.byte		        Ds3 , v056
	.byte	W02
	.byte		N01   , Bn2 , v036
	.byte	W16
	.byte		N08   , Ds4 , v076
	.byte	W08
	.byte		N02   , Bn3 , v072
	.byte	W02
	.byte		        Fs3 , v068
	.byte	W02
	.byte		        Ds3 , v056
	.byte	W02
	.byte		N01   , Bn2 , v036
	.byte	W80
	.byte	W02
	.byte	W96
	.byte	W96
	.byte	W96
	.byte	W24
	.byte		N08   , Cs4 , v084
	.byte	W24
	.byte		N17
	.byte	W18
	.byte		N08
	.byte	W30
	.byte	PEND
	.byte	W24
	.byte		N08
	.byte	W24
	.byte		N17
	.byte	W18
	.byte		N17
	.byte	W18
	.byte		N12
	.byte	W12
	.byte		N08   , Ds4 
	.byte	W08
	.byte		N02   , Bn3 , v080
	.byte	W02
	.byte		        Fs3 , v076
	.byte	W02
	.byte		        Ds3 , v064
	.byte	W02
	.byte		N01   , Bn2 , v040
	.byte	W80
	.byte	W02
	.byte	W96
	.byte	PATT
	 .word	seq_030_4 + 0x104
	.byte	W24
	.byte		N08   , Cs4 , v084
	.byte	W24
	.byte		N17
	.byte	W18
	.byte		N17
	.byte	W18
	.byte		N12   , En4 
	.byte	W12
	.byte		N05   , Ds4 
	.byte	W06
	.byte		N05
	.byte	W24
	.byte		PAN   , c_v-64
	.byte	W06
	.byte		N05   , Bn3 , v092
	.byte	W06
	.byte		N05
	.byte	W18
	.byte		PAN   , c_v+63
	.byte	W12
	.byte		N05   , Ds4 
	.byte	W06
	.byte		N05
	.byte	W12
	.byte		PAN   , c_v+0
	.byte	W06
	.byte		N18   , Cs4 , v076
	.byte	W18
	.byte		        An3 
	.byte	W18
	.byte		        En3 
	.byte	W18
	.byte		        An3 
	.byte	W18
	.byte		N06   , Cs4 
	.byte	W12
	.byte		        En4 
	.byte	W12
	.byte		N05   , Ds4 
	.byte	W06
	.byte		N05
	.byte	W24
	.byte		PAN   , c_v+63
	.byte	W06
	.byte		N05   , Fs4 , v092
	.byte	W06
	.byte		N05
	.byte	W18
	.byte		PAN   , c_v-64
	.byte	W12
	.byte		N05   , Ds4 
	.byte	W06
	.byte		N05
	.byte	W12
	.byte		PAN   , c_v+0
	.byte	W06
	.byte	W24
	.byte		N08   , Cs4 , v084
	.byte	W24
	.byte		N17   , En4 
	.byte	W18
	.byte		N17
	.byte	W18
	.byte		N12   , Dn4 
	.byte	W12
	.byte		N06   , Ds4 
	.byte	W16
	.byte		PAN   , c_v-64
	.byte		N06
	.byte	W16
	.byte		PAN   , c_v+63
	.byte		N06   , Ds4 , v064
	.byte	W16
	.byte		PAN   , c_v-64
	.byte		N06   , Ds4 , v048
	.byte	W16
	.byte		PAN   , c_v+63
	.byte		N06   , Ds4 , v036
	.byte	W16
	.byte		PAN   , c_v-64
	.byte		N06   , Ds4 , v028
	.byte	W16
	.byte	W96
	.byte	GOTO
	 .word	seq_030_4 + 0x2D
	.byte	FINE

@*********************** Track 06 ***********************@

seq_030_5:
	.byte	KEYSH , seq_030_key+0
	.byte		VOICE , 123
	.byte		VOL   , 39*seq_030_mvl/mxv
	.byte		PAN   , c_v+0
	.byte	W24
	.byte	W96
	.byte	W96
	.byte	W96
	.byte	W96
	.byte	W96
	.byte	W96
	.byte	W96
	.byte	W96
	.byte	W96
	.byte	W96
	.byte	W96
	.byte	W96
	.byte	W96
	.byte	W96
	.byte	W96
	.byte	W96
	.byte	W96
	.byte	W24
	.byte		N24   , Bn3 , v100
	.byte	W24
	.byte		        Fs4 
	.byte	W24
	.byte		        Ds4 
	.byte	W24
	.byte		N96   , En4 
	.byte	W96
	.byte		N60   , Cs4 
	.byte	W60
	.byte		N18   , En4 
	.byte	W18
	.byte		        Cs4 
	.byte	W18
	.byte		N72   , Ds4 
	.byte	W72
	.byte		N24   , Bn3 
	.byte	W24
	.byte		N60   , Fs3 
	.byte	W56
	.byte	W02
	.byte		N18   , Fs4 
	.byte	W18
	.byte		N20   , Ds4 
	.byte	W20
	.byte		N96   , En4 
	.byte	W96
	.byte		N56   , An4 
	.byte	W60
	.byte		N18   , Cs5 
	.byte	W18
	.byte		        An4 
	.byte	W18
	.byte	W96
	.byte	W96
	.byte	W96
	.byte	W96
	.byte	W96
	.byte	W96
	.byte	GOTO
	 .word	seq_030_5 + 0xA
	.byte	FINE

@*********************** Track 07 ***********************@

seq_030_6:
	.byte	KEYSH , seq_030_key+0
	.byte		VOICE , 127
	.byte		PAN   , c_v+0
	.byte		VOL   , 100*seq_030_mvl/mxv
	.byte		N02   , Dn1 , v076
	.byte		N24   , Cs2 , v100
	.byte	W02
	.byte		N04   , Dn1 
	.byte	W04
	.byte		N06
	.byte	W12
	.byte		N06
	.byte	W06
	.byte		N24   , An2 , v100
	.byte		N02   , As3 , v052
	.byte	W06
	.byte		        As3 , v032
	.byte	W06
	.byte		        As3 , v040
	.byte	W06
	.byte		        As3 , v028
	.byte	W06
	.byte		N12   , Ds1 , v100
	.byte		N02   , As3 , v052
	.byte	W06
	.byte		        As3 , v028
	.byte	W06
	.byte		        As3 , v032
	.byte	W06
	.byte		N12   , Cn1 , v112
	.byte		N02   , As3 , v052
	.byte	W06
	.byte		        As3 , v024
	.byte	W06
	.byte		N06   , Cn1 , v112
	.byte		N02   , As3 , v036
	.byte	W06
	.byte		N06   , Cn1 , v112
	.byte		N02   , As3 , v032
	.byte	W06
	.byte		N02
	.byte	W06
	.byte		N12   , Ds1 , v100
	.byte		N02   , As3 , v052
	.byte	W06
	.byte		        As3 , v028
	.byte	W06
	.byte		N12   , Cn1 , v112
	.byte		N02   , As3 , v032
	.byte	W06
	.byte		        As3 , v044
	.byte	W06
	.byte	PEND
	.byte		N12   , Cn1 , v112
	.byte		N02   , As3 , v052
	.byte	W06
	.byte		        As3 , v032
	.byte	W06
	.byte		        As3 , v040
	.byte	W06
	.byte		        As3 , v028
	.byte	W06
	.byte		N12   , Ds1 , v100
	.byte		N02   , As3 , v052
	.byte	W06
	.byte		        As3 , v028
	.byte	W06
	.byte		        As3 , v032
	.byte	W06
	.byte		N12   , Cn1 , v112
	.byte		N02   , As3 , v052
	.byte	W06
	.byte		        As3 , v024
	.byte	W06
	.byte		N06   , Cn1 , v112
	.byte		N02   , As3 , v036
	.byte	W06
	.byte		N06   , Cn1 , v112
	.byte		N02   , As3 , v032
	.byte	W06
	.byte		N02
	.byte	W06
	.byte		N12   , Ds1 , v100
	.byte		N02   , As3 , v052
	.byte	W06
	.byte		        As3 , v028
	.byte	W06
	.byte		N12   , Cn1 , v112
	.byte		N02   , As3 , v032
	.byte	W06
	.byte		        As3 , v044
	.byte	W06
	.byte		N12   , Cn1 , v112
	.byte		N02   , As3 , v052
	.byte	W06
	.byte		        As3 , v032
	.byte	W06
	.byte		        As3 , v040
	.byte	W06
	.byte		        As3 , v028
	.byte	W06
	.byte		N12   , Ds1 , v100
	.byte		N02   , As3 , v052
	.byte	W06
	.byte		        As3 , v028
	.byte	W06
	.byte		        As3 , v032
	.byte	W06
	.byte		N12   , Cn1 , v112
	.byte		N02   , As3 , v052
	.byte	W06
	.byte		        As3 , v024
	.byte	W06
	.byte		N06   , Ds1 , v100
	.byte		N02   , As3 , v036
	.byte	W06
	.byte		N12   , Cn1 , v112
	.byte		N02   , As3 , v032
	.byte	W06
	.byte		N02
	.byte	W06
	.byte		N12   , Ds1 , v100
	.byte		N02   , As3 , v052
	.byte	W06
	.byte		        As3 , v028
	.byte	W06
	.byte		N12   , Cn1 , v112
	.byte		N02   , As3 , v032
	.byte	W06
	.byte		        As3 , v044
	.byte	W06
	.byte	PEND
	.byte		N12   , Cn1 , v112
	.byte		N02   , As3 , v052
	.byte	W06
	.byte		        As3 , v032
	.byte	W06
	.byte		        As3 , v040
	.byte	W06
	.byte		        As3 , v028
	.byte	W06
	.byte		N12   , Ds1 , v100
	.byte		N02   , As3 , v052
	.byte	W06
	.byte		        As3 , v028
	.byte	W06
	.byte		        As3 , v032
	.byte	W06
	.byte		N12   , Cn1 , v112
	.byte		N02   , As3 , v052
	.byte	W06
	.byte		        As3 , v024
	.byte	W06
	.byte		N06   , Cn1 , v112
	.byte		N02   , As3 , v036
	.byte	W06
	.byte		N12   , Cn1 , v112
	.byte		N02   , As3 , v032
	.byte	W06
	.byte		N02
	.byte	W06
	.byte		N12   , Ds1 , v100
	.byte		N02   , As3 , v052
	.byte	W06
	.byte		        As3 , v028
	.byte	W06
	.byte		N12   , Cn1 , v112
	.byte		N02   , As3 , v032
	.byte	W06
	.byte		        As3 , v044
	.byte	W06
	.byte	PEND
	.byte		N12   , Cn1 , v112
	.byte		N02   , As3 , v052
	.byte	W06
	.byte		        As3 , v032
	.byte	W06
	.byte		        As3 , v040
	.byte	W06
	.byte		        As3 , v028
	.byte	W06
	.byte		N12   , Ds1 , v100
	.byte		N02   , As3 , v052
	.byte	W06
	.byte		        As3 , v028
	.byte	W06
	.byte		        As3 , v032
	.byte	W06
	.byte		N12   , Cn1 , v112
	.byte		N02   , As3 , v052
	.byte	W06
	.byte		        As3 , v024
	.byte	W06
	.byte		N06   , Ds1 , v100
	.byte		N02   , As3 , v036
	.byte	W06
	.byte		N12   , Cn1 , v112
	.byte		N02   , As3 , v032
	.byte	W06
	.byte		N02
	.byte	W06
	.byte		N06   , Ds1 , v108
	.byte		N02   , As3 , v052
	.byte	W06
	.byte		N06   , Dn1 , v100
	.byte		N02   , As3 , v028
	.byte	W06
	.byte		N06   , Cn1 , v112
	.byte		N02   , As3 , v032
	.byte	W06
	.byte		N06   , Ds1 , v100
	.byte		N02   , As3 , v044
	.byte	W06
	.byte	PATT
	 .word	seq_030_6 + 0x16
	.byte		N12   , Cn1 , v112
	.byte		N02   , As3 , v052
	.byte	W06
	.byte		        As3 , v032
	.byte	W06
	.byte		        As3 , v040
	.byte	W06
	.byte		        As3 , v028
	.byte	W06
	.byte		N12   , Ds1 , v100
	.byte		N02   , As3 , v052
	.byte	W06
	.byte		        As3 , v028
	.byte	W06
	.byte		        As3 , v032
	.byte	W06
	.byte		N12   , Cn1 , v112
	.byte		N02   , As3 , v052
	.byte	W06
	.byte		        As3 , v024
	.byte	W06
	.byte		N06   , Ds1 , v100
	.byte		N02   , As3 , v036
	.byte	W06
	.byte		N12   , Cn1 , v112
	.byte		N02   , As3 , v032
	.byte	W06
	.byte		N02
	.byte	W06
	.byte		N12   , Ds1 , v100
	.byte		N02   , As3 , v052
	.byte	W06
	.byte		        As3 , v028
	.byte	W06
	.byte		N06   , Cn1 , v112
	.byte		N02   , As3 , v032
	.byte	W06
	.byte		N06   , Dn1 , v100
	.byte		N02   , As3 , v044
	.byte	W06
	.byte	PEND
	.byte	PATT
	 .word	seq_030_6 + 0xF9
	.byte		N12   , Cn1 , v112
	.byte		N02   , As3 , v052
	.byte	W06
	.byte		        As3 , v032
	.byte	W06
	.byte		        As3 , v040
	.byte	W06
	.byte		        As3 , v028
	.byte	W06
	.byte		N12   , Ds1 , v100
	.byte		N02   , As3 , v052
	.byte	W06
	.byte		        As3 , v028
	.byte	W06
	.byte		        As3 , v032
	.byte	W06
	.byte		N12   , Cn1 , v112
	.byte		N02   , As3 , v052
	.byte	W06
	.byte		        As3 , v024
	.byte	W06
	.byte		N06   , Ds1 , v112
	.byte		N02   , As3 , v036
	.byte	W06
	.byte		N12   , Cn1 , v112
	.byte		N02   , As3 , v032
	.byte	W06
	.byte		N02
	.byte	W06
	.byte		N06   , Ds1 , v112
	.byte		N02   , As3 , v052
	.byte	W06
	.byte		N06   , Cn1 , v112
	.byte		N02   , As3 , v028
	.byte	W06
	.byte		N06   , Dn1 , v080
	.byte		N02   , As3 , v032
	.byte	W06
	.byte		N06   , Ds1 , v100
	.byte		N02   , As3 , v044
	.byte	W06
	.byte		N06   , Bn0 , v112
	.byte		N24   , An2 , v100
	.byte		N02   , As3 , v052
	.byte	W06
	.byte		N12   , Ds1 , v100
	.byte		N02   , As3 , v032
	.byte	W06
	.byte		        As3 , v040
	.byte	W06
	.byte		N06   , Cn1 , v112
	.byte		N02   , As3 , v028
	.byte	W06
	.byte		N12   , Dn1 , v100
	.byte		N02   , As3 , v052
	.byte	W06
	.byte		        As3 , v028
	.byte	W06
	.byte		N06   , Bn0 , v100
	.byte		N24   , Cs2 
	.byte		N02   , As3 , v032
	.byte	W06
	.byte		N12   , Ds1 , v100
	.byte		N02   , As3 , v052
	.byte	W06
	.byte		        As3 , v024
	.byte	W06
	.byte		N06   , Cn1 , v112
	.byte		N02   , As3 , v036
	.byte	W06
	.byte		N12   , Dn1 , v100
	.byte		N02   , As3 , v032
	.byte	W06
	.byte		N02
	.byte	W06
	.byte		        Dn1 , v076
	.byte		N24   , An2 , v100
	.byte		N02   , As3 , v052
	.byte	W02
	.byte		N04   , Dn1 , v100
	.byte	W04
	.byte		N12   , Ds1 
	.byte		N02   , As3 , v028
	.byte	W06
	.byte		        As3 , v032
	.byte	W06
	.byte		N06   , Ds1 , v100
	.byte		N02   , As3 , v044
	.byte	W06
	.byte		N12   , Cn1 , v112
	.byte		N24   , An2 , v100
	.byte		N02   , As3 , v052
	.byte	W06
	.byte		        As3 , v032
	.byte	W06
	.byte		N12   , Cn1 , v112
	.byte		N02   , As3 , v040
	.byte	W06
	.byte		        As3 , v028
	.byte	W06
	.byte		N12   , Ds1 , v100
	.byte		N02   , As3 , v052
	.byte	W06
	.byte		        As3 , v028
	.byte	W06
	.byte		N06   , Cn1 , v112
	.byte		N02   , As3 , v032
	.byte	W06
	.byte		N12   , Cn1 , v112
	.byte		N02   , As3 , v052
	.byte	W06
	.byte		        As3 , v024
	.byte	W06
	.byte		N06   , Ds1 , v100
	.byte		N02   , As3 , v036
	.byte	W06
	.byte		N12   , Cn1 , v112
	.byte		N02   , As3 , v032
	.byte	W06
	.byte		N02
	.byte	W06
	.byte		N06   , Ds1 , v100
	.byte		N02   , As3 , v052
	.byte	W06
	.byte		N12   , Cn1 , v112
	.byte		N02   , As3 , v028
	.byte	W06
	.byte		        As3 , v032
	.byte	W06
	.byte		N06   , Ds1 , v100
	.byte		N02   , As3 , v044
	.byte	W06
	.byte		N06   , Cn1 , v112
	.byte		N24   , An2 , v100
	.byte		N02   , As3 , v052
	.byte	W06
	.byte		N12   , Ds1 , v100
	.byte		N02   , As3 , v032
	.byte	W06
	.byte		        As3 , v040
	.byte	W06
	.byte		N06   , Cn1 , v112
	.byte		N02   , As3 , v028
	.byte	W06
	.byte		N12   , Dn1 , v100
	.byte		N02   , As3 , v052
	.byte	W06
	.byte		        As3 , v028
	.byte	W06
	.byte		N06   , Bn0 , v100
	.byte		N24   , Cs2 
	.byte		N02   , As3 , v032
	.byte	W06
	.byte		N12   , Ds1 , v100
	.byte		N02   , As3 , v052
	.byte	W06
	.byte		        As3 , v024
	.byte	W06
	.byte		N06   , Cn1 , v112
	.byte		N02   , As3 , v036
	.byte	W06
	.byte		N12   , Dn1 , v100
	.byte		N02   , As3 , v032
	.byte	W06
	.byte		N02
	.byte	W06
	.byte		N06   , Ds1 , v100
	.byte		N24   , An2 
	.byte		N02   , As3 , v052
	.byte	W06
	.byte		N06   , Ds1 , v100
	.byte		N02   , As3 , v028
	.byte	W06
	.byte		N06   , Dn1 , v100
	.byte		N02   , As3 , v032
	.byte	W06
	.byte		N06   , Ds1 , v100
	.byte		N02   , As3 , v044
	.byte	W06
	.byte		N24   , An2 , v100
	.byte		N02   , As3 , v052
	.byte	W06
	.byte		        As3 , v032
	.byte	W06
	.byte		        As3 , v040
	.byte	W06
	.byte		        As3 , v028
	.byte	W06
	.byte		N12   , Ds1 , v100
	.byte		N02   , As3 , v052
	.byte	W06
	.byte		        As3 , v028
	.byte	W06
	.byte		N06   , Cn1 , v112
	.byte		N02   , As3 , v032
	.byte	W06
	.byte		N06   , Cn1 , v112
	.byte		N02   , As3 , v052
	.byte	W06
	.byte		        As3 , v024
	.byte	W06
	.byte		N06   , Ds1 , v100
	.byte		N02   , As3 , v036
	.byte	W06
	.byte		N12   , Cn1 , v112
	.byte		N02   , As3 , v032
	.byte	W06
	.byte		N02
	.byte	W06
	.byte		N06   , Bn0 , v112
	.byte		N02   , Dn1 , v076
	.byte		N02   , As3 , v052
	.byte	W02
	.byte		N10   , Dn1 , v100
	.byte	W04
	.byte		N02   , As3 , v028
	.byte	W06
	.byte		N06   , Dn1 , v080
	.byte		N02   , As3 , v032
	.byte	W06
	.byte		N06   , Dn1 , v100
	.byte		N02   , As3 , v044
	.byte	W06
	.byte		N12   , Cn1 , v112
	.byte		N12   , Ds1 , v100
	.byte		N02   , As3 , v052
	.byte	W06
	.byte		        As3 , v032
	.byte	W06
	.byte		        As3 , v040
	.byte	W06
	.byte		        As3 , v028
	.byte	W06
	.byte		N06   , Bn0 , v100
	.byte		N02   , Dn1 , v076
	.byte		N02   , As3 , v052
	.byte	W02
	.byte		N04   , Dn1 , v100
	.byte	W04
	.byte		N06
	.byte		N02   , As3 , v028
	.byte	W06
	.byte		N06   , Dn1 , v100
	.byte		N02   , As3 , v032
	.byte	W06
	.byte		N06   , Dn1 , v100
	.byte		N02   , As3 , v052
	.byte	W06
	.byte		N06   , Ds1 , v100
	.byte		N02   , As3 , v024
	.byte	W06
	.byte		N06   , Dn1 , v100
	.byte		N02   , As3 , v036
	.byte	W06
	.byte		N06   , Cn1 , v112
	.byte		N02   , As3 , v032
	.byte	W06
	.byte		N06   , Dn1 , v100
	.byte		N02   , As3 , v032
	.byte	W06
	.byte		N06   , Bn0 , v112
	.byte		N02   , Dn1 , v076
	.byte		N02   , As3 , v052
	.byte	W02
	.byte		N04   , Dn1 , v100
	.byte	W04
	.byte		N06
	.byte		N02   , As3 , v028
	.byte	W06
	.byte		N06   , Dn1 , v112
	.byte		N02   , As3 , v032
	.byte	W06
	.byte		N06   , Dn1 , v100
	.byte		N02   , As3 , v044
	.byte	W06
	.byte		N24   , An2 , v100
	.byte		N02   , As3 , v052
	.byte	W06
	.byte		        As3 , v032
	.byte	W06
	.byte		        As3 , v040
	.byte	W06
	.byte		        As3 , v028
	.byte	W06
	.byte		N12   , Ds1 , v100
	.byte		N02   , As3 , v052
	.byte	W06
	.byte		        As3 , v028
	.byte	W06
	.byte		        As3 , v032
	.byte	W06
	.byte		N12   , Cn1 , v112
	.byte		N02   , As3 , v052
	.byte	W06
	.byte		        As3 , v024
	.byte	W06
	.byte		N06   , Cn1 , v112
	.byte		N02   , As3 , v036
	.byte	W06
	.byte		N12   , Cn1 , v112
	.byte		N02   , As3 , v032
	.byte	W06
	.byte		N02
	.byte	W06
	.byte		N12   , Ds1 , v100
	.byte		N02   , As3 , v052
	.byte	W06
	.byte		        As3 , v028
	.byte	W06
	.byte		N12   , Cn1 , v112
	.byte		N02   , As3 , v032
	.byte	W06
	.byte		        As3 , v044
	.byte	W06
	.byte	PEND
	.byte	PATT
	 .word	seq_030_6 + 0x19D
	.byte	PATT
	 .word	seq_030_6 + 0x436
	.byte	PATT
	 .word	seq_030_6 + 0xAD
	.byte	PATT
	 .word	seq_030_6 + 0xF9
	.byte		N12   , Cn1 , v112
	.byte		N02   , As3 , v052
	.byte	W06
	.byte		        As3 , v032
	.byte	W06
	.byte		        As3 , v040
	.byte	W06
	.byte		        As3 , v028
	.byte	W06
	.byte		N12   , Ds1 , v100
	.byte		N02   , As3 , v052
	.byte	W06
	.byte		        As3 , v028
	.byte	W06
	.byte		        As3 , v032
	.byte	W06
	.byte		N12   , Cn1 , v112
	.byte		N02   , As3 , v052
	.byte	W06
	.byte		        As3 , v024
	.byte	W06
	.byte		N06   , Ds1 , v100
	.byte		N02   , As3 , v036
	.byte	W06
	.byte		N12   , Cn1 , v112
	.byte		N02   , As3 , v032
	.byte	W06
	.byte		N02
	.byte	W06
	.byte		N06   , Ds1 , v112
	.byte		N02   , As3 , v052
	.byte	W06
	.byte		N06   , Dn1 , v100
	.byte		N02   , As3 , v028
	.byte	W06
	.byte		N06   , Cn1 , v112
	.byte		N02   , As3 , v032
	.byte	W06
	.byte		N06   , Ds1 , v100
	.byte		N02   , As3 , v044
	.byte	W06
	.byte	PATT
	 .word	seq_030_6 + 0x436
	.byte	PATT
	 .word	seq_030_6 + 0xAD
	.byte	PATT
	 .word	seq_030_6 + 0xF9
	.byte		N12   , Cn1 , v112
	.byte		N02   , As3 , v052
	.byte	W06
	.byte		        As3 , v032
	.byte	W06
	.byte		        As3 , v040
	.byte	W06
	.byte		        As3 , v028
	.byte	W06
	.byte		N12   , Ds1 , v100
	.byte		N02   , As3 , v052
	.byte	W06
	.byte		        As3 , v028
	.byte	W06
	.byte		        As3 , v032
	.byte	W06
	.byte		N12   , Cn1 , v112
	.byte		N02   , As3 , v052
	.byte	W06
	.byte		        As3 , v024
	.byte	W06
	.byte		N06   , Ds1 , v100
	.byte		N02   , As3 , v036
	.byte	W06
	.byte		N06   , Cn1 , v112
	.byte		N02   , As3 , v032
	.byte	W06
	.byte		N06   , Ds1 , v112
	.byte		N02   , As3 , v032
	.byte	W06
	.byte		N03   , Dn1 , v096
	.byte		N02   , As3 , v052
	.byte	W03
	.byte		N03   , Dn1 , v060
	.byte	W03
	.byte		        Dn1 , v084
	.byte		N02   , As3 , v028
	.byte	W03
	.byte		N03   , Dn1 , v096
	.byte	W03
	.byte		        Dn1 , v072
	.byte		N02   , As3 , v032
	.byte	W03
	.byte		N03   , Dn1 , v088
	.byte	W03
	.byte		        Dn1 , v100
	.byte		N02   , As3 , v044
	.byte	W03
	.byte		N03   , Dn1 , v112
	.byte	W03
	.byte		N06   , Bn0 
	.byte		N24   , An2 , v100
	.byte		N02   , As3 , v052
	.byte	W06
	.byte		N12   , Ds1 , v100
	.byte		N02   , As3 , v032
	.byte	W06
	.byte		        As3 , v040
	.byte	W06
	.byte		N06   , Cn1 , v112
	.byte		N02   , As3 , v028
	.byte	W06
	.byte		N12   , Dn1 , v100
	.byte		N02   , As3 , v052
	.byte	W06
	.byte		        As3 , v028
	.byte	W06
	.byte		N06   , Ds1 , v100
	.byte		N24   , Cs2 
	.byte		N02   , As3 , v032
	.byte	W06
	.byte		N12   , Ds1 , v100
	.byte		N02   , As3 , v052
	.byte	W06
	.byte		        As3 , v024
	.byte	W06
	.byte		N06   , Cn1 , v112
	.byte		N02   , As3 , v036
	.byte	W06
	.byte		N12   , Dn1 , v100
	.byte		N02   , As3 , v032
	.byte	W06
	.byte		N02
	.byte	W06
	.byte		        Ds1 , v076
	.byte		N24   , An2 , v100
	.byte		N02   , As3 , v052
	.byte	W02
	.byte		N04   , Ds1 , v100
	.byte	W04
	.byte		N12
	.byte		N02   , As3 , v028
	.byte	W06
	.byte		        As3 , v032
	.byte	W06
	.byte		N06   , Ds1 , v100
	.byte		N02   , As3 , v044
	.byte	W06
	.byte		N12   , Cn1 , v112
	.byte		N24   , An2 , v100
	.byte		N02   , As3 , v052
	.byte	W06
	.byte		        As3 , v032
	.byte	W06
	.byte		N12   , Cn1 , v112
	.byte		N02   , As3 , v040
	.byte	W06
	.byte		        As3 , v028
	.byte	W06
	.byte		N12   , Ds1 , v100
	.byte		N02   , As3 , v052
	.byte	W06
	.byte		        As3 , v028
	.byte	W06
	.byte		N06   , Cn1 , v112
	.byte		N02   , As3 , v032
	.byte	W06
	.byte		N12   , Cn1 , v112
	.byte		N02   , As3 , v052
	.byte	W06
	.byte		        As3 , v024
	.byte	W06
	.byte		N06   , Ds1 , v100
	.byte		N02   , As3 , v036
	.byte	W06
	.byte		N12   , Cn1 , v112
	.byte		N02   , As3 , v032
	.byte	W06
	.byte		N02
	.byte	W06
	.byte		N06   , Ds1 , v100
	.byte		N24   , Cs2 
	.byte		N02   , As3 , v052
	.byte	W06
	.byte		N12   , Cn1 , v112
	.byte		N02   , As3 , v028
	.byte	W06
	.byte		        As3 , v032
	.byte	W06
	.byte		N06   , Dn1 , v100
	.byte		N02   , As3 , v044
	.byte	W06
	.byte		N06   , Bn0 , v112
	.byte		N24   , An2 , v100
	.byte		N02   , As3 , v052
	.byte	W06
	.byte		N12   , Ds1 , v100
	.byte		N02   , As3 , v032
	.byte	W06
	.byte		        As3 , v040
	.byte	W06
	.byte		N06   , Cn1 , v112
	.byte		N02   , As3 , v028
	.byte	W06
	.byte		N12   , Dn1 , v100
	.byte		N02   , As3 , v052
	.byte	W06
	.byte		        As3 , v028
	.byte	W06
	.byte		N06   , Ds1 , v100
	.byte		N24   , Cs2 
	.byte		N02   , As3 , v032
	.byte	W06
	.byte		N12   , Ds1 , v100
	.byte		N02   , As3 , v052
	.byte	W06
	.byte		        As3 , v024
	.byte	W06
	.byte		N06   , Cn1 , v112
	.byte		N02   , As3 , v036
	.byte	W06
	.byte		N12   , Dn1 , v100
	.byte		N02   , As3 , v032
	.byte	W06
	.byte		N02
	.byte	W06
	.byte		N06   , Ds1 , v076
	.byte		N24   , An2 , v100
	.byte		N02   , As3 , v052
	.byte	W06
	.byte		N06   , Ds1 , v100
	.byte		N02   , As3 , v028
	.byte	W06
	.byte		N06   , Dn1 , v100
	.byte		N02   , As3 , v032
	.byte	W06
	.byte		N06   , Dn1 , v100
	.byte		N02   , As3 , v044
	.byte	W06
	.byte		N12   , Cn1 , v112
	.byte		N24   , Cs2 , v100
	.byte		N02   , As3 , v052
	.byte	W06
	.byte		        As3 , v032
	.byte	W06
	.byte		N12   , Cn1 , v112
	.byte		N02   , As3 , v040
	.byte	W06
	.byte		        As3 , v028
	.byte	W06
	.byte		N12   , Ds1 , v100
	.byte		N02   , As3 , v052
	.byte	W06
	.byte		        As3 , v028
	.byte	W06
	.byte		N06   , Cn1 , v112
	.byte		N02   , As3 , v032
	.byte	W06
	.byte		N12   , Cn1 , v112
	.byte		N02   , As3 , v052
	.byte	W06
	.byte		        As3 , v024
	.byte	W06
	.byte		N06   , Ds1 , v100
	.byte		N02   , As3 , v036
	.byte	W06
	.byte		N12   , Cn1 , v112
	.byte		N02   , As3 , v032
	.byte	W06
	.byte		N02
	.byte	W06
	.byte		N06   , Ds1 , v112
	.byte		N02   , As3 , v052
	.byte	W06
	.byte		N06   , Cn1 , v112
	.byte		N02   , As3 , v028
	.byte	W06
	.byte		N06   , Dn1 , v080
	.byte		N02   , As3 , v032
	.byte	W06
	.byte		N06   , Ds1 , v100
	.byte		N02   , As3 , v044
	.byte	W06
	.byte	PATT
	 .word	seq_030_6 + 0x16
	.byte	PATT
	 .word	seq_030_6 + 0x19D
	.byte	GOTO
	 .word	seq_030_6 + 0x62
	.byte	FINE

@******************************************************@

	.align	2

seq_030:
	.byte	7	@ NumTrks
	.byte	0	@ NumBlks
	.byte	seq_030_pri	@ Priority
	.byte	seq_030_rev	@ Reverb

	.word	seq_030_grp

	.word	seq_030_0
	.word	seq_030_1
	.word	seq_030_2
	.word	seq_030_3
	.word	seq_030_4
	.word	seq_030_5
	.word	seq_030_6

	.end
