@ File generated by m4a2s Song-Module
	.include "MPlayDef.s"

	.equ	seq_037_grp, bank_029
	.equ	seq_037_pri, 0
	.equ	seq_037_rev, 148
	.equ	seq_037_mvl, 127
	.equ	seq_037_key, 0

	.section .rodata
	.global	seq_037
	.align	2

@*********************** Track 01 ***********************@

seq_037_0:
	.byte	KEYSH , seq_037_key+0
	.byte	TEMPO , 110/2
	.byte		VOICE , 80
	.byte		MOD   , 0
	.byte		VOL   , 62*seq_037_mvl/mxv
	.byte		PAN   , c_v+0
	.byte		BEND  , c_v+0
	.byte	W12
	.byte		N04   , An4 , v064
	.byte	W12
	.byte		N08   , Gn4 
	.byte	W08
	.byte		N04   , An4 
	.byte	W12
	.byte		N04
	.byte	W12
	.byte		N04
	.byte	W12
	.byte		N04
	.byte	W04
	.byte		N05   , Gn4 
	.byte	W12
	.byte		        An4 
	.byte	W12
	.byte	W12
	.byte		N04   , As4 , v064
	.byte	W12
	.byte		N08   , An4 
	.byte	W08
	.byte		N04   , As4 
	.byte	W12
	.byte		N04
	.byte	W12
	.byte		N04
	.byte	W12
	.byte		N04
	.byte	W04
	.byte		N05   , Cn5 
	.byte	W20
	.byte		N04
	.byte	W04
	.byte	PEND
	.byte	W12
	.byte		N04   , An4 , v064
	.byte	W12
	.byte		N08   , Gn4 
	.byte	W08
	.byte		N04   , An4 
	.byte	W12
	.byte		N04
	.byte	W12
	.byte		N04
	.byte	W12
	.byte		N04
	.byte	W04
	.byte		N05   , Gn4 
	.byte	W12
	.byte		        An4 
	.byte	W12
	.byte	PEND
	.byte	PATT
	 .word	seq_037_0 + 0x24
	.byte	PATT
	 .word	seq_037_0 + 0x3B
	.byte	W12
	.byte		N04   , As4 , v064
	.byte	W12
	.byte		N08   , An4 
	.byte	W08
	.byte		N04   , As4 
	.byte	W12
	.byte		N04
	.byte	W12
	.byte		N04
	.byte	W12
	.byte		N04
	.byte	W04
	.byte		N05   , Cn5 
	.byte	W20
	.byte	PEND
	.byte		N04   , Cn5 , v064
	.byte	W04
	.byte	PATT
	 .word	seq_037_0 + 0x3B
	.byte	PATT
	 .word	seq_037_0 + 0x24
	.byte		VOL   , 55*seq_037_mvl/mxv
	.byte	W12
	.byte		N04   , An4 , v064
	.byte	W12
	.byte		N08   , Gn4 
	.byte	W08
	.byte		N04   , An4 
	.byte	W12
	.byte		N04
	.byte	W12
	.byte		N04
	.byte	W12
	.byte		N04
	.byte	W04
	.byte		N05   , Gn4 
	.byte	W12
	.byte		        An4 
	.byte	W12
	.byte	PEND
	.byte	PATT
	 .word	seq_037_0 + 0x24
	.byte	PATT
	 .word	seq_037_0 + 0x3B
	.byte	PATT
	 .word	seq_037_0 + 0x24
	.byte	PATT
	 .word	seq_037_0 + 0x3B
	.byte	PATT
	 .word	seq_037_0 + 0x24
	.byte	PATT
	 .word	seq_037_0 + 0x3B
	.byte	W12
	.byte		N04   , As4 , v064
	.byte	W12
	.byte		N08   , An4 
	.byte	W08
	.byte		N04   , As4 
	.byte	W12
	.byte		N04
	.byte	W12
	.byte		N04
	.byte	W12
	.byte		        Cn5 
	.byte	W28
	.byte	PEND
	.byte	PATT
	 .word	seq_037_0 + 0x3B
	.byte	PATT
	 .word	seq_037_0 + 0x24
	.byte	PATT
	 .word	seq_037_0 + 0x3B
	.byte	PATT
	 .word	seq_037_0 + 0xB6
	.byte		VOL   , 62*seq_037_mvl/mxv
	.byte	W12
	.byte		N04   , An4 , v064
	.byte	W12
	.byte		N08   , Gn4 
	.byte	W08
	.byte		N04   , An4 
	.byte	W12
	.byte		N04
	.byte	W12
	.byte		N04
	.byte	W12
	.byte		N04
	.byte	W04
	.byte		N05   , Gn4 
	.byte	W12
	.byte		        An4 
	.byte	W12
	.byte	PEND
	.byte	PATT
	 .word	seq_037_0 + 0x24
	.byte	PATT
	 .word	seq_037_0 + 0x3B
	.byte	PATT
	 .word	seq_037_0 + 0xB6
	.byte	PATT
	 .word	seq_037_0 + 0x7F
	.byte	PATT
	 .word	seq_037_0 + 0x24
	.byte	PATT
	 .word	seq_037_0 + 0x3B
	.byte	PATT
	 .word	seq_037_0 + 0x24
	.byte	PATT
	 .word	seq_037_0 + 0x3B
	.byte	PATT
	 .word	seq_037_0 + 0x24
	.byte	PATT
	 .word	seq_037_0 + 0x3B
	.byte	PATT
	 .word	seq_037_0 + 0xB6
	.byte	PATT
	 .word	seq_037_0 + 0x3B
	.byte	PATT
	 .word	seq_037_0 + 0x24
	.byte	PATT
	 .word	seq_037_0 + 0x3B
	.byte	PATT
	 .word	seq_037_0 + 0x24
	.byte	PATT
	 .word	seq_037_0 + 0x3B
	.byte	PATT
	 .word	seq_037_0 + 0x24
	.byte	PATT
	 .word	seq_037_0 + 0x3B
	.byte	W12
	.byte		N04   , As4 , v064
	.byte	W12
	.byte		N08   , An4 
	.byte	W08
	.byte		N04   , As4 
	.byte	W12
	.byte		N04
	.byte	W12
	.byte		N04
	.byte	W12
	.byte		N04
	.byte	W04
	.byte		N05   , Cn5 
	.byte	W08
	.byte		N04
	.byte	W16
	.byte	PATT
	 .word	seq_037_0 + 0xDC
	.byte	PATT
	 .word	seq_037_0 + 0x5C
	.byte	GOTO
	 .word	seq_037_0 + 0x71
	.byte	FINE

@*********************** Track 02 ***********************@

seq_037_1:
	.byte	KEYSH , seq_037_key+0
	.byte		VOICE , 121
	.byte		VOL   , 39*seq_037_mvl/mxv
	.byte		MOD   , 0
	.byte		PAN   , c_v+0
	.byte		BEND  , c_v+0
	.byte	W12
	.byte		N03   , Fn4 , v052
	.byte	W12
	.byte		N07   , En4 
	.byte	W08
	.byte		N03   , Fn4 
	.byte	W12
	.byte		N03
	.byte	W12
	.byte		N03
	.byte	W12
	.byte		N03
	.byte	W04
	.byte		N04   , En4 
	.byte	W12
	.byte		        Fn4 
	.byte	W12
	.byte	W12
	.byte		N03   , Gn4 , v052
	.byte	W12
	.byte		N07   , Fs4 
	.byte	W08
	.byte		N03   , Gn4 
	.byte	W12
	.byte		N03
	.byte	W12
	.byte		N03
	.byte	W12
	.byte		N03
	.byte	W04
	.byte		N04
	.byte	W20
	.byte		N03
	.byte	W04
	.byte	PEND
	.byte	W12
	.byte		N03   , Fn4 , v052
	.byte	W12
	.byte		N07   , En4 
	.byte	W08
	.byte		N03   , Fn4 
	.byte	W12
	.byte		N03
	.byte	W12
	.byte		N03
	.byte	W12
	.byte		N03
	.byte	W04
	.byte		N04   , En4 
	.byte	W12
	.byte		        Fn4 
	.byte	W12
	.byte	PEND
	.byte	PATT
	 .word	seq_037_1 + 0x22
	.byte	PATT
	 .word	seq_037_1 + 0x38
	.byte	W12
	.byte		N03   , Gn4 , v052
	.byte	W12
	.byte		N07   , Fs4 
	.byte	W08
	.byte		N03   , Gn4 
	.byte	W12
	.byte		N03
	.byte	W12
	.byte		N03
	.byte	W12
	.byte		N03
	.byte	W04
	.byte		N04
	.byte	W20
	.byte	PEND
	.byte		N03   , Gn4 , v052
	.byte	W04
	.byte	PATT
	 .word	seq_037_1 + 0x38
	.byte	PATT
	 .word	seq_037_1 + 0x22
	.byte		PAN   , c_v+63
	.byte	W12
	.byte		N03   , Fn4 , v052
	.byte	W12
	.byte		N07   , En4 
	.byte	W08
	.byte		N03   , Fn4 
	.byte	W12
	.byte		N03
	.byte	W12
	.byte		N03
	.byte	W12
	.byte		N03
	.byte	W04
	.byte		N04   , En4 
	.byte	W12
	.byte		        Fn4 
	.byte	W12
	.byte	PEND
	.byte	PATT
	 .word	seq_037_1 + 0x22
	.byte	PATT
	 .word	seq_037_1 + 0x38
	.byte	PATT
	 .word	seq_037_1 + 0x22
	.byte	PATT
	 .word	seq_037_1 + 0x38
	.byte	PATT
	 .word	seq_037_1 + 0x22
	.byte	PATT
	 .word	seq_037_1 + 0x38
	.byte	W12
	.byte		N03   , Gn4 , v052
	.byte	W12
	.byte		N07   , Fs4 
	.byte	W08
	.byte		N03   , Gn4 
	.byte	W12
	.byte		N03
	.byte	W12
	.byte		N03
	.byte	W12
	.byte		N03
	.byte	W28
	.byte	PEND
	.byte	PATT
	 .word	seq_037_1 + 0x38
	.byte	PATT
	 .word	seq_037_1 + 0x22
	.byte	PATT
	 .word	seq_037_1 + 0x38
	.byte	PATT
	 .word	seq_037_1 + 0xB2
	.byte		PAN   , c_v+0
	.byte	W12
	.byte		N03   , Fn4 , v052
	.byte	W12
	.byte		N07   , En4 
	.byte	W08
	.byte		N03   , Fn4 
	.byte	W12
	.byte		N03
	.byte	W12
	.byte		N03
	.byte	W12
	.byte		N03
	.byte	W04
	.byte		N04   , En4 
	.byte	W12
	.byte		        Fn4 
	.byte	W12
	.byte	PEND
	.byte	PATT
	 .word	seq_037_1 + 0x22
	.byte	PATT
	 .word	seq_037_1 + 0x38
	.byte	PATT
	 .word	seq_037_1 + 0xB2
	.byte	PATT
	 .word	seq_037_1 + 0x7B
	.byte	PATT
	 .word	seq_037_1 + 0x22
	.byte	PATT
	 .word	seq_037_1 + 0x38
	.byte	PATT
	 .word	seq_037_1 + 0x22
	.byte	PATT
	 .word	seq_037_1 + 0x38
	.byte	PATT
	 .word	seq_037_1 + 0x22
	.byte	PATT
	 .word	seq_037_1 + 0x38
	.byte	PATT
	 .word	seq_037_1 + 0xB2
	.byte	PATT
	 .word	seq_037_1 + 0x38
	.byte	PATT
	 .word	seq_037_1 + 0x22
	.byte	PATT
	 .word	seq_037_1 + 0x38
	.byte	PATT
	 .word	seq_037_1 + 0x22
	.byte	PATT
	 .word	seq_037_1 + 0x38
	.byte	PATT
	 .word	seq_037_1 + 0x22
	.byte	PATT
	 .word	seq_037_1 + 0x38
	.byte	W12
	.byte		N03   , Gn4 , v052
	.byte	W12
	.byte		N07   , Fs4 
	.byte	W08
	.byte		N03   , Gn4 
	.byte	W12
	.byte		N03
	.byte	W12
	.byte		N03
	.byte	W12
	.byte		N03
	.byte	W04
	.byte		N04
	.byte	W08
	.byte		N03
	.byte	W16
	.byte	PATT
	 .word	seq_037_1 + 0xD8
	.byte	PATT
	 .word	seq_037_1 + 0x59
	.byte	GOTO
	 .word	seq_037_1 + 0x6D
	.byte	FINE

@*********************** Track 03 ***********************@

seq_037_2:
	.byte	KEYSH , seq_037_key+0
	.byte		VOICE , 122
	.byte		MOD   , 0
	.byte		VOL   , 39*seq_037_mvl/mxv
	.byte		PAN   , c_v+0
	.byte		BEND  , c_v+0
	.byte	W12
	.byte		N03   , Cn4 , v052
	.byte	W12
	.byte		N07   , Bn3 
	.byte	W08
	.byte		N03   , Cn4 
	.byte	W12
	.byte		N03
	.byte	W12
	.byte		N03
	.byte	W12
	.byte		N03
	.byte	W04
	.byte		N04   , Bn3 
	.byte	W12
	.byte		        Cn4 
	.byte	W12
	.byte	W12
	.byte		N03   , Dn4 , v052
	.byte	W12
	.byte		N07   , Cs4 
	.byte	W08
	.byte		N03   , Dn4 
	.byte	W12
	.byte		N03
	.byte	W12
	.byte		N03
	.byte	W12
	.byte		N03
	.byte	W04
	.byte		N04   , En4 
	.byte	W20
	.byte		N03
	.byte	W04
	.byte	PEND
	.byte	W12
	.byte		N03   , Cn4 , v052
	.byte	W12
	.byte		N07   , Bn3 
	.byte	W08
	.byte		N03   , Cn4 
	.byte	W12
	.byte		N03
	.byte	W12
	.byte		N03
	.byte	W12
	.byte		N03
	.byte	W04
	.byte		N04   , Bn3 
	.byte	W12
	.byte		        Cn4 
	.byte	W12
	.byte	PEND
	.byte	PATT
	 .word	seq_037_2 + 0x22
	.byte	PATT
	 .word	seq_037_2 + 0x39
	.byte	W12
	.byte		N03   , Dn4 , v052
	.byte	W12
	.byte		N07   , Cs4 
	.byte	W08
	.byte		N03   , Dn4 
	.byte	W12
	.byte		N03
	.byte	W12
	.byte		N03
	.byte	W12
	.byte		N03
	.byte	W04
	.byte		N04   , En4 
	.byte	W20
	.byte	PEND
	.byte		N03   , En4 , v052
	.byte	W04
	.byte	PATT
	 .word	seq_037_2 + 0x39
	.byte	PATT
	 .word	seq_037_2 + 0x22
	.byte		PAN   , c_v-64
	.byte	W12
	.byte		N03   , Cn4 , v052
	.byte	W12
	.byte		N07   , Bn3 
	.byte	W08
	.byte		N03   , Cn4 
	.byte	W12
	.byte		N03
	.byte	W12
	.byte		N03
	.byte	W12
	.byte		N03
	.byte	W04
	.byte		N04   , Bn3 
	.byte	W12
	.byte		        Cn4 
	.byte	W12
	.byte	PEND
	.byte	PATT
	 .word	seq_037_2 + 0x22
	.byte	PATT
	 .word	seq_037_2 + 0x39
	.byte	PATT
	 .word	seq_037_2 + 0x22
	.byte	PATT
	 .word	seq_037_2 + 0x39
	.byte	PATT
	 .word	seq_037_2 + 0x22
	.byte	PATT
	 .word	seq_037_2 + 0x39
	.byte	W12
	.byte		N03   , Dn4 , v052
	.byte	W12
	.byte		N07   , Cs4 
	.byte	W08
	.byte		N03   , Dn4 
	.byte	W12
	.byte		N03
	.byte	W12
	.byte		N03
	.byte	W12
	.byte		        En4 
	.byte	W28
	.byte	PEND
	.byte	PATT
	 .word	seq_037_2 + 0x39
	.byte	PATT
	 .word	seq_037_2 + 0x22
	.byte	PATT
	 .word	seq_037_2 + 0x39
	.byte	PATT
	 .word	seq_037_2 + 0xB4
	.byte		PAN   , c_v+0
	.byte	W12
	.byte		N03   , Cn4 , v052
	.byte	W12
	.byte		N07   , Bn3 
	.byte	W08
	.byte		N03   , Cn4 
	.byte	W12
	.byte		N03
	.byte	W12
	.byte		N03
	.byte	W12
	.byte		N03
	.byte	W04
	.byte		N04   , Bn3 
	.byte	W12
	.byte		        Cn4 
	.byte	W12
	.byte	PEND
	.byte	PATT
	 .word	seq_037_2 + 0x22
	.byte	PATT
	 .word	seq_037_2 + 0x39
	.byte	PATT
	 .word	seq_037_2 + 0xB4
	.byte	PATT
	 .word	seq_037_2 + 0x7D
	.byte	PATT
	 .word	seq_037_2 + 0x22
	.byte	PATT
	 .word	seq_037_2 + 0x39
	.byte	PATT
	 .word	seq_037_2 + 0x22
	.byte	PATT
	 .word	seq_037_2 + 0x39
	.byte	PATT
	 .word	seq_037_2 + 0x22
	.byte	PATT
	 .word	seq_037_2 + 0x39
	.byte	PATT
	 .word	seq_037_2 + 0xB4
	.byte	PATT
	 .word	seq_037_2 + 0x39
	.byte	PATT
	 .word	seq_037_2 + 0x22
	.byte	PATT
	 .word	seq_037_2 + 0x39
	.byte	PATT
	 .word	seq_037_2 + 0x22
	.byte	PATT
	 .word	seq_037_2 + 0x39
	.byte	PATT
	 .word	seq_037_2 + 0x22
	.byte	PATT
	 .word	seq_037_2 + 0x39
	.byte	W12
	.byte		N03   , Dn4 , v052
	.byte	W12
	.byte		N07   , Cs4 
	.byte	W08
	.byte		N03   , Dn4 
	.byte	W12
	.byte		N03
	.byte	W12
	.byte		N03
	.byte	W12
	.byte		N03
	.byte	W04
	.byte		N04   , En4 
	.byte	W08
	.byte		N03
	.byte	W16
	.byte	PATT
	 .word	seq_037_2 + 0xDA
	.byte	PATT
	 .word	seq_037_2 + 0x5A
	.byte	GOTO
	 .word	seq_037_2 + 0x6F
	.byte	FINE

@*********************** Track 04 ***********************@

seq_037_3:
	.byte	KEYSH , seq_037_key+0
	.byte		VOICE , 36
	.byte		VOL   , 100*seq_037_mvl/mxv
	.byte		MOD   , 0
	.byte		BENDR , 12
	.byte		PAN   , c_v+0
	.byte		BEND  , c_v+0
	.byte	W96
	.byte	W96
	.byte	W96
	.byte	W56
	.byte		N06   , As1 , v127
	.byte	W12
	.byte		N04   , Cn2 
	.byte	W04
	.byte		N08   , An1 
	.byte	W08
	.byte		N04   , Fn1 
	.byte	W04
	.byte		N08   , Gn1 
	.byte	W08
	.byte		N16   , Fn1 
	.byte	W04
	.byte	W06
	.byte		BEND  , c_v-8
	.byte	W01
	.byte		        c_v-16
	.byte	W02
	.byte		        c_v-32
	.byte	W01
	.byte		        c_v-50
	.byte	W02
	.byte		        c_v+0
	.byte		N06   , Fn0 , v127
	.byte	W12
	.byte		N08   , An0 
	.byte	W08
	.byte		N06   , Fn0 
	.byte	W12
	.byte		        An0 
	.byte	W12
	.byte		N06
	.byte	W12
	.byte		N04
	.byte	W04
	.byte		N06   , Cn1 
	.byte	W12
	.byte		N12   , Fn1 
	.byte	W06
	.byte		BEND  , c_v-8
	.byte	W01
	.byte		        c_v-16
	.byte	W02
	.byte		        c_v-32
	.byte	W01
	.byte		        c_v-50
	.byte	W02
	.byte	PEND
	.byte		BEND  , c_v+0
	.byte	W12
	.byte		N06   , Gn0 , v127
	.byte	W12
	.byte		N08   , As0 
	.byte	W08
	.byte		N06   , Dn1 
	.byte	W12
	.byte		        Cn1 
	.byte	W12
	.byte		N06
	.byte	W12
	.byte		N04
	.byte	W04
	.byte		N08   , As0 
	.byte	W08
	.byte		N04   , An0 
	.byte	W04
	.byte		N08   , Gn0 
	.byte	W08
	.byte	PEND
	.byte		N13   , Fn0 , v127
	.byte	W04
	.byte	W06
	.byte		BEND  , c_v-8
	.byte	W01
	.byte		        c_v-16
	.byte	W02
	.byte		        c_v-32
	.byte	W03
	.byte		        c_v+0
	.byte		N06   , Fn0 , v127
	.byte	W12
	.byte		N08   , An0 
	.byte	W08
	.byte		N06   , Fn0 
	.byte	W12
	.byte		        An0 
	.byte	W12
	.byte		N06
	.byte	W12
	.byte		N04
	.byte	W04
	.byte		N06   , Cn1 
	.byte	W12
	.byte		N12   , Fn1 
	.byte	W06
	.byte		BEND  , c_v-8
	.byte	W01
	.byte		        c_v-16
	.byte	W02
	.byte		        c_v-32
	.byte	W01
	.byte		        c_v-50
	.byte	W02
	.byte	PEND
	.byte		BEND  , c_v+0
	.byte	W12
	.byte		N06   , Gn0 , v127
	.byte	W12
	.byte		N08   , As0 
	.byte	W08
	.byte		N06   , Dn1 
	.byte	W12
	.byte		        Cn1 
	.byte	W12
	.byte		N06
	.byte	W12
	.byte		N04
	.byte	W04
	.byte		N08   , En1 
	.byte	W08
	.byte		N04   , Cn1 
	.byte	W04
	.byte		N08   , Gn1 
	.byte	W08
	.byte		N16   , Fn1 
	.byte	W04
	.byte	PEND
	.byte	PATT
	 .word	seq_037_3 + 0x25
	.byte		BEND  , c_v+0
	.byte	W12
	.byte		N06   , Gn0 , v127
	.byte	W12
	.byte		N08   , As0 
	.byte	W08
	.byte		N06   , Dn1 
	.byte	W12
	.byte		        Cn1 
	.byte	W12
	.byte		N06
	.byte	W12
	.byte		N04
	.byte	W04
	.byte		N08   , As0 
	.byte	W08
	.byte		N04   , An0 
	.byte	W04
	.byte		N08   , Gn0 
	.byte	W08
	.byte		N13   , Fn0 
	.byte	W04
	.byte	PEND
	.byte	PATT
	 .word	seq_037_3 + 0x71
	.byte	PATT
	 .word	seq_037_3 + 0x9A
	.byte	PATT
	 .word	seq_037_3 + 0x25
	.byte	PATT
	 .word	seq_037_3 + 0xBF
	.byte	PATT
	 .word	seq_037_3 + 0x71
	.byte		BEND  , c_v+0
	.byte	W12
	.byte		N06   , Gn0 , v127
	.byte	W12
	.byte		N08   , As0 
	.byte	W08
	.byte		N06   , Dn1 
	.byte	W12
	.byte		        Cn1 
	.byte	W12
	.byte		N06
	.byte	W12
	.byte		N16
	.byte	W10
	.byte		BEND  , c_v-8
	.byte	W01
	.byte		        c_v-16
	.byte	W02
	.byte		        c_v-32
	.byte	W01
	.byte		        c_v-50
	.byte	W02
	.byte		        c_v+0
	.byte	W12
	.byte	W12
	.byte		N06   , Fn0 , v127
	.byte	W12
	.byte		N08   , An0 
	.byte	W08
	.byte		N06   , Fn0 
	.byte	W12
	.byte		        An0 
	.byte	W12
	.byte		N06
	.byte	W12
	.byte		N04
	.byte	W04
	.byte		N06   , Cn1 
	.byte	W12
	.byte		N12   , Fn1 
	.byte	W06
	.byte		BEND  , c_v-8
	.byte	W01
	.byte		        c_v-16
	.byte	W02
	.byte		        c_v-32
	.byte	W01
	.byte		        c_v-50
	.byte	W02
	.byte	PEND
	.byte	PATT
	 .word	seq_037_3 + 0xBF
	.byte	PATT
	 .word	seq_037_3 + 0x71
	.byte		BEND  , c_v+0
	.byte	W12
	.byte		N06   , Gn0 , v127
	.byte	W12
	.byte		N08   , As0 
	.byte	W08
	.byte		N06   , Dn1 
	.byte	W12
	.byte		        Cn1 
	.byte	W12
	.byte		N06
	.byte	W12
	.byte		N16   , Gn1 
	.byte	W10
	.byte		BEND  , c_v-8
	.byte	W01
	.byte		        c_v-16
	.byte	W02
	.byte		        c_v-32
	.byte	W01
	.byte		        c_v-50
	.byte	W02
	.byte		        c_v+0
	.byte	W12
	.byte	PEND
	.byte	PATT
	 .word	seq_037_3 + 0x25
	.byte	PATT
	 .word	seq_037_3 + 0xBF
	.byte	PATT
	 .word	seq_037_3 + 0x71
	.byte	PATT
	 .word	seq_037_3 + 0x141
	.byte	PATT
	 .word	seq_037_3 + 0x116
	.byte	PATT
	 .word	seq_037_3 + 0xBF
	.byte	PATT
	 .word	seq_037_3 + 0x71
	.byte	PATT
	 .word	seq_037_3 + 0x9A
	.byte	PATT
	 .word	seq_037_3 + 0x25
	.byte	PATT
	 .word	seq_037_3 + 0xBF
	.byte	PATT
	 .word	seq_037_3 + 0x71
	.byte	PATT
	 .word	seq_037_3 + 0x9A
	.byte	PATT
	 .word	seq_037_3 + 0x25
	.byte	PATT
	 .word	seq_037_3 + 0xBF
	.byte	PATT
	 .word	seq_037_3 + 0x71
	.byte	PATT
	 .word	seq_037_3 + 0x9A
	.byte	PATT
	 .word	seq_037_3 + 0x25
	.byte	PATT
	 .word	seq_037_3 + 0xBF
	.byte	PATT
	 .word	seq_037_3 + 0x71
	.byte	PATT
	 .word	seq_037_3 + 0x9A
	.byte	PATT
	 .word	seq_037_3 + 0x25
	.byte	PATT
	 .word	seq_037_3 + 0x50
	.byte	GOTO
	 .word	seq_037_3 + 0x6D
	.byte	FINE

@*********************** Track 05 ***********************@

seq_037_4:
	.byte	KEYSH , seq_037_key+0
	.byte		VOICE , 12
	.byte		MOD   , 0
	.byte		VOL   , 100*seq_037_mvl/mxv
	.byte		PAN   , c_v+0
	.byte		BEND  , c_v+0
	.byte	W96
	.byte	W96
	.byte	W96
	.byte	W96
	.byte	W96
	.byte	W92
	.byte	W04
	.byte	W96
	.byte	W96
	.byte		N12   , Fn4 , v120
	.byte		N12   , An4 
	.byte	W24
	.byte		        Cn4 
	.byte		N12   , Fn4 
	.byte	W20
	.byte		N04   , Cn4 , v112
	.byte	W04
	.byte		N08   , Dn4 , v120
	.byte	W08
	.byte		N12   , Cn4 
	.byte	W12
	.byte		N12
	.byte	W16
	.byte		N08   , Cn4 , v112
	.byte		N08   , Fn4 
	.byte	W08
	.byte		N12   , Dn4 , v120
	.byte		N12   , Gn4 
	.byte	W04
	.byte	PEND
	.byte	W12
	.byte		N12   , Dn4 , v120
	.byte		N12   , As4 
	.byte	W12
	.byte		        Cn4 
	.byte		N12   , Gn4 
	.byte	W20
	.byte		N04   , Cn4 , v112
	.byte	W04
	.byte		N08   , Dn4 , v120
	.byte	W08
	.byte		N12   , Cn4 
	.byte	W12
	.byte		        Cn4 , v112
	.byte	W16
	.byte		N08   , Gs3 , v120
	.byte		N08   , Bn3 
	.byte	W08
	.byte		N12   , An3 , v124
	.byte		N12   , Cn4 
	.byte	W04
	.byte	PEND
	.byte	W96
	.byte	W96
	.byte	PATT
	 .word	seq_037_4 + 0x15
	.byte	W12
	.byte		N12   , Dn4 , v120
	.byte		N12   , As4 
	.byte	W12
	.byte		        Cn4 
	.byte		N12   , Gn4 
	.byte	W20
	.byte		N04   , Cn4 , v112
	.byte	W04
	.byte		N08   , Dn4 , v120
	.byte	W08
	.byte		N12   , Cn4 
	.byte	W12
	.byte		N12
	.byte		N12   , En4 
	.byte	W16
	.byte		N08   , As3 
	.byte		N08   , Dn4 
	.byte	W08
	.byte		N12   , An3 , v124
	.byte		N12   , Cn4 
	.byte	W04
	.byte	PEND
	.byte	W72
	.byte		N08   , Fn3 , v116
	.byte	W08
	.byte		N04   , An3 , v096
	.byte	W04
	.byte		N08   , Cn4 , v104
	.byte	W08
	.byte		N10   , Fn4 , v116
	.byte	W04
	.byte	PEND
	.byte	W72
	.byte		N08   , Gn3 , v116
	.byte	W08
	.byte		N04   , As3 , v096
	.byte	W04
	.byte		N08   , Dn4 , v104
	.byte	W08
	.byte		        Gn4 , v116
	.byte	W04
	.byte	PEND
	.byte	W08
	.byte		VOICE , 108
	.byte	W04
	.byte		N12   , Cn4 , v127
	.byte	W12
	.byte		N08   , Bn3 
	.byte	W08
	.byte		N16   , Cn4 
	.byte	W16
	.byte		N12
	.byte	W12
	.byte		N08   , Bn3 
	.byte	W08
	.byte		N16   , Cn4 
	.byte	W28
	.byte	W12
	.byte		N12   , Dn4 
	.byte	W12
	.byte		N08   , Cs4 
	.byte	W08
	.byte		N16   , Dn4 
	.byte	W16
	.byte		N12   , En4 
	.byte	W12
	.byte		N08   , Dn4 
	.byte	W08
	.byte		N12   , En4 
	.byte	W12
	.byte		N04   , Dn4 
	.byte	W04
	.byte		N08   , Cn4 
	.byte	W08
	.byte		N16   , As3 
	.byte	W04
	.byte	W12
	.byte		N12   , Cn4 
	.byte	W12
	.byte		N08   , Bn3 
	.byte	W08
	.byte		N16   , Cn4 
	.byte	W16
	.byte		N12
	.byte	W12
	.byte		N08   , Bn3 
	.byte	W08
	.byte		N16   , Cn4 
	.byte	W28
	.byte	W12
	.byte		N12   , Dn4 
	.byte	W12
	.byte		N08   , Cs4 
	.byte	W08
	.byte		N16   , Dn4 
	.byte	W16
	.byte		N12   , En4 
	.byte	W12
	.byte		N08   , Dn4 
	.byte	W08
	.byte		N12   , En4 
	.byte	W12
	.byte		N16   , Gn4 
	.byte	W16
	.byte	W96
	.byte	W96
	.byte		VOICE , 12
	.byte	W96
	.byte	W96
	.byte	PATT
	 .word	seq_037_4 + 0x15
	.byte	PATT
	 .word	seq_037_4 + 0x39
	.byte	W96
	.byte	W96
	.byte	PATT
	 .word	seq_037_4 + 0x15
	.byte	PATT
	 .word	seq_037_4 + 0x66
	.byte	PATT
	 .word	seq_037_4 + 0x8C
	.byte	PATT
	 .word	seq_037_4 + 0x9E
	.byte	W12
	.byte		N12   , Cn4 , v120
	.byte	W12
	.byte		N08   , Bn3 
	.byte	W08
	.byte		N12   , Cn4 
	.byte	W16
	.byte		N12
	.byte	W12
	.byte		N08   , Bn3 
	.byte	W08
	.byte		N12   , Cn4 
	.byte	W12
	.byte		N04   , Fn3 
	.byte	W04
	.byte		N08   , An3 
	.byte	W08
	.byte		N12   , Ds4 
	.byte	W04
	.byte	PEND
	.byte	W12
	.byte		        Dn4 
	.byte	W12
	.byte		N08   , Cs4 
	.byte	W08
	.byte		N12   , Dn4 
	.byte	W12
	.byte		        En4 
	.byte	W12
	.byte		N12
	.byte	W12
	.byte		N04   , Dn4 
	.byte	W04
	.byte		N08   , En4 
	.byte	W08
	.byte		N04   , Dn4 
	.byte	W04
	.byte		N08   , Cn4 
	.byte	W08
	.byte		N12   , As3 
	.byte	W04
	.byte	W12
	.byte		N12   , Cn4 , v120
	.byte		N12   , An4 
	.byte	W12
	.byte		N08   , Bn3 
	.byte		N08   , Gs4 
	.byte	W08
	.byte		N12   , Cn4 
	.byte		N12   , An4 
	.byte	W12
	.byte		N04   , Fn3 
	.byte	W04
	.byte		N12   , Cn4 
	.byte		N12   , An4 
	.byte	W12
	.byte		N08   , Bn3 
	.byte		N08   , Gs4 
	.byte	W08
	.byte		N12   , Cn4 
	.byte		N12   , An4 
	.byte	W12
	.byte		N04   , Fn3 
	.byte		N04   , Cn4 
	.byte	W04
	.byte		N08   , An3 
	.byte		N08   , Fn4 
	.byte	W08
	.byte		N12   , Ds4 
	.byte		N12   , Cn5 
	.byte	W04
	.byte	PEND
	.byte	W12
	.byte		        Dn4 
	.byte		N12   , As4 
	.byte	W12
	.byte		N08   , Cs4 
	.byte		N08   , An4 
	.byte	W08
	.byte		N12   , Dn4 
	.byte		N12   , As4 
	.byte	W12
	.byte		        En4 
	.byte		N12   , Cn5 
	.byte	W12
	.byte		        En4 
	.byte		N12   , Cn5 
	.byte	W12
	.byte		N04   , Dn4 
	.byte		N04   , As4 
	.byte	W04
	.byte		N08   , En4 
	.byte		N08   , Cn5 
	.byte	W08
	.byte		N04   , Dn4 
	.byte		N04   , As4 
	.byte	W04
	.byte		N08   , Cn4 
	.byte		N08   , An4 
	.byte	W08
	.byte		N12   , As3 
	.byte		N12   , Gn4 
	.byte	W04
	.byte	PATT
	 .word	seq_037_4 + 0x12F
	.byte	W12
	.byte		N12   , Dn4 , v120
	.byte	W12
	.byte		N08   , Cs4 
	.byte	W08
	.byte		N12   , Dn4 
	.byte	W12
	.byte		        En4 
	.byte	W12
	.byte		N12
	.byte	W12
	.byte		N04   , Dn4 
	.byte	W04
	.byte		N08   , En4 
	.byte	W08
	.byte		N04   , Dn4 
	.byte	W04
	.byte		N08   , En4 
	.byte	W08
	.byte		N12   , Gn4 
	.byte	W04
	.byte	PATT
	 .word	seq_037_4 + 0x168
	.byte	W12
	.byte		N12   , Dn4 , v120
	.byte		N12   , As4 
	.byte	W12
	.byte		N08   , Cs4 
	.byte		N08   , An4 
	.byte	W08
	.byte		N12   , Dn4 
	.byte		N12   , As4 
	.byte	W12
	.byte		        En4 
	.byte		N12   , Cn5 
	.byte	W12
	.byte		        En4 
	.byte		N12   , Cn5 
	.byte	W12
	.byte		N04   , Dn4 
	.byte		N04   , As4 
	.byte	W04
	.byte		N08   , En4 
	.byte		N08   , Cn5 
	.byte	W08
	.byte		N04   , Dn4 
	.byte		N04   , As4 
	.byte	W04
	.byte		N08   , En4 
	.byte		N08   , Cn5 
	.byte	W08
	.byte		N04   , Gn4 
	.byte		N04   , En5 
	.byte	W04
	.byte		N12   , An4 
	.byte		N12   , Fn5 
	.byte	W96
	.byte	W92
	.byte	GOTO
	 .word	seq_037_4 + 0x12
	.byte	FINE

@*********************** Track 06 ***********************@

seq_037_5:
	.byte	KEYSH , seq_037_key+0
	.byte		VOICE , 61
	.byte		MOD   , 0
	.byte		VOL   , 78*seq_037_mvl/mxv
	.byte		PAN   , c_v+0
	.byte		BEND  , c_v+0
	.byte	W96
	.byte	W96
	.byte	W96
	.byte	W96
	.byte	W96
	.byte	W92
	.byte	W04
	.byte	W96
	.byte	W96
	.byte	W96
	.byte	W96
	.byte	W12
	.byte		N06   , Fn4 , v076
	.byte		N06   , An4 
	.byte	W20
	.byte		        Fn4 
	.byte		N06   , An4 
	.byte	W16
	.byte		N19   , Fn4 
	.byte		N19   , An4 
	.byte	W20
	.byte		N04   , En4 
	.byte		N04   , Gn4 
	.byte	W16
	.byte		N06   , Fn4 
	.byte		N06   , An4 
	.byte	W12
	.byte	PEND
	.byte	W12
	.byte		N06   , Gn4 , v076
	.byte		N06   , As4 
	.byte	W20
	.byte		        Gn4 
	.byte		N06   , As4 
	.byte	W16
	.byte		N19   , Gn4 
	.byte		N19   , As4 
	.byte	W20
	.byte		N04   , Gn4 
	.byte		N04   , Cn5 
	.byte	W16
	.byte		N06   , Gn4 
	.byte		N06   , Cn5 
	.byte	W12
	.byte	PEND
	.byte	W96
	.byte	W96
	.byte	PATT
	 .word	seq_037_5 + 0x17
	.byte	W12
	.byte		N06   , Gn4 , v076
	.byte		N06   , As4 
	.byte	W20
	.byte		        Gn4 
	.byte		N06   , As4 
	.byte	W16
	.byte		N07   , Gn4 
	.byte		N07   , As4 
	.byte	W08
	.byte		N04   , Gn4 
	.byte		N04   , As4 
	.byte	W12
	.byte		N06   , Gn4 
	.byte		N06   , Cn5 
	.byte	W28
	.byte	PEND
	.byte		VOICE , 12
	.byte	W96
	.byte	W96
	.byte	W96
	.byte	W80
	.byte		N16   , En5 , v080
	.byte	W16
	.byte	W96
	.byte		VOICE , 61
	.byte	W96
	.byte	W12
	.byte		N06   , An3 
	.byte		N06   , Fn4 
	.byte	W20
	.byte		        An3 
	.byte		N06   , Fn4 
	.byte	W16
	.byte		N19   , An3 
	.byte		N19   , Fn4 
	.byte	W20
	.byte		N04   , Gs3 
	.byte		N04   , En4 
	.byte	W16
	.byte		N06   , An3 
	.byte		N06   , Fn4 
	.byte	W12
	.byte	W12
	.byte		        As3 
	.byte		N06   , Gn4 
	.byte	W20
	.byte		        As3 
	.byte		N06   , Gn4 
	.byte	W16
	.byte		N07   , As3 
	.byte		N07   , Gn4 
	.byte	W08
	.byte		N04   , As3 
	.byte		N04   , Gn4 
	.byte	W12
	.byte		N06   , Cn4 
	.byte		N06   , An4 
	.byte	W28
	.byte	W96
	.byte	W96
	.byte	PATT
	 .word	seq_037_5 + 0x17
	.byte	PATT
	 .word	seq_037_5 + 0x32
	.byte	W96
	.byte	W96
	.byte	PATT
	 .word	seq_037_5 + 0x17
	.byte	PATT
	 .word	seq_037_5 + 0x54
	.byte	W96
	.byte	W96
	.byte		VOICE , 73
	.byte	W84
	.byte		N08   , Gn4 , v068
	.byte	W08
	.byte		N04   , An4 
	.byte	W04
	.byte		N12   , As4 
	.byte	W12
	.byte		N06   , Cn5 , v060
	.byte	W08
	.byte		        An4 , v068
	.byte	W12
	.byte		        Gn4 
	.byte	W12
	.byte		N24   , Fn4 
	.byte	W24
	.byte		N06   , Gn4 
	.byte	W16
	.byte		N84   , An4 
	.byte	W12
	.byte	W24
	.byte		VOL   , 74*seq_037_mvl/mxv
	.byte	W06
	.byte		        70*seq_037_mvl/mxv
	.byte	W06
	.byte		        64*seq_037_mvl/mxv
	.byte	W06
	.byte		        55*seq_037_mvl/mxv
	.byte	W06
	.byte		        45*seq_037_mvl/mxv
	.byte	W06
	.byte		        34*seq_037_mvl/mxv
	.byte	W06
	.byte		        18*seq_037_mvl/mxv
	.byte	W06
	.byte		        7*seq_037_mvl/mxv
	.byte	W30
	.byte		        78*seq_037_mvl/mxv
	.byte	W96
	.byte	W96
	.byte	W12
	.byte		N06   , As4 , v072
	.byte	W12
	.byte		N08   , An4 
	.byte	W08
	.byte		N06   , As4 
	.byte	W12
	.byte		N10   , Dn5 , v060
	.byte	W12
	.byte		N04
	.byte	W04
	.byte		N06   , Cn5 , v068
	.byte	W12
	.byte		        As4 
	.byte	W12
	.byte		        Cn5 
	.byte	W12
	.byte		N20   , An4 , v072
	.byte	W20
	.byte		TIE   , Fn4 
	.byte	W52
	.byte		VOL   , 74*seq_037_mvl/mxv
	.byte	W06
	.byte		        70*seq_037_mvl/mxv
	.byte	W06
	.byte		        63*seq_037_mvl/mxv
	.byte	W06
	.byte		        55*seq_037_mvl/mxv
	.byte	W06
	.byte		        42*seq_037_mvl/mxv
	.byte	W06
	.byte		        27*seq_037_mvl/mxv
	.byte	W06
	.byte		        16*seq_037_mvl/mxv
	.byte	W06
	.byte		        7*seq_037_mvl/mxv
	.byte	W06
	.byte		EOT
	.byte	W24
	.byte		VOICE , 61
	.byte		VOL   , 78*seq_037_mvl/mxv
	.byte	W44
	.byte	GOTO
	 .word	seq_037_5 + 0x12
	.byte	FINE

@*********************** Track 07 ***********************@

seq_037_6:
	.byte	KEYSH , seq_037_key+0
	.byte		VOICE , 114
	.byte		MOD   , 0
	.byte		PAN   , c_v+0
	.byte		VOL   , 86*seq_037_mvl/mxv
	.byte		BEND  , c_v+0
	.byte	W96
	.byte	W96
	.byte	W96
	.byte	W96
	.byte	W96
	.byte	W92
	.byte	W04
	.byte	W96
	.byte	W96
	.byte	W96
	.byte	W96
	.byte	W96
	.byte	W96
	.byte	W96
	.byte	W96
	.byte	W96
	.byte	W96
	.byte	W12
	.byte		N12   , An3 , v072
	.byte	W12
	.byte		N08   , Gs3 
	.byte	W08
	.byte		N12   , An3 
	.byte	W12
	.byte		N04   , Fn3 
	.byte	W04
	.byte		N12   , An3 
	.byte	W12
	.byte		N08   , Gs3 
	.byte	W08
	.byte		N28   , An3 
	.byte	W28
	.byte	PEND
	.byte	W12
	.byte		N12   , As3 
	.byte	W12
	.byte		N08   , An3 
	.byte	W08
	.byte		N12   , As3 
	.byte	W12
	.byte		N04   , En3 
	.byte	W04
	.byte		N12   , Cn4 
	.byte	W12
	.byte		N08   , As3 
	.byte	W08
	.byte		N12   , Cn4 
	.byte	W12
	.byte		N04   , As3 
	.byte	W04
	.byte		N08   , An3 
	.byte	W08
	.byte		N16   , Gn3 
	.byte	W04
	.byte	PATT
	 .word	seq_037_6 + 0x1D
	.byte	W12
	.byte		N12   , As3 , v072
	.byte	W12
	.byte		N08   , An3 
	.byte	W08
	.byte		N12   , As3 
	.byte	W12
	.byte		N04   , En3 
	.byte	W04
	.byte		N12   , Cn4 
	.byte	W12
	.byte		N08   , As3 
	.byte	W08
	.byte		N28   , Cn4 
	.byte	W28
	.byte	W96
	.byte	W96
	.byte	W96
	.byte	W96
	.byte	W96
	.byte	W96
	.byte	W96
	.byte	W96
	.byte	W96
	.byte	W96
	.byte	W96
	.byte	W96
	.byte	W12
	.byte		N12   , An3 , v076
	.byte	W12
	.byte		N08   , Gs3 
	.byte	W08
	.byte		N12   , An3 
	.byte	W12
	.byte		N04   , Fn3 
	.byte	W04
	.byte		N12   , An3 
	.byte	W12
	.byte		N08   , Gs3 
	.byte	W08
	.byte		N28   , An3 
	.byte	W28
	.byte	PEND
	.byte	W12
	.byte		N12   , As3 , v076
	.byte	W12
	.byte		N08   , An3 
	.byte	W08
	.byte		N12   , As3 
	.byte	W12
	.byte		        Cn4 
	.byte	W12
	.byte		N12
	.byte	W12
	.byte		N04   , As3 
	.byte	W04
	.byte		N08   , Cn4 
	.byte	W08
	.byte		N04   , As3 
	.byte	W04
	.byte		N08   , An3 
	.byte	W08
	.byte		N28   , Gn3 
	.byte	W04
	.byte	PEND
	.byte	W96
	.byte	W96
	.byte	PATT
	 .word	seq_037_6 + 0x7C
	.byte	PATT
	 .word	seq_037_6 + 0x94
	.byte	W96
	.byte	W96
	.byte	W96
	.byte	W92
	.byte	GOTO
	 .word	seq_037_6 + 0x12
	.byte	FINE

@*********************** Track 08 ***********************@

seq_037_7:
	.byte	KEYSH , seq_037_key+0
	.byte		VOICE , 127
	.byte		MOD   , 0
	.byte		VOL   , 94*seq_037_mvl/mxv
	.byte		PAN   , c_v+0
	.byte		BEND  , c_v+0
	.byte		N06   , Cn1 , v127
	.byte		N02   , As3 , v040
	.byte	W08
	.byte		        As3 , v028
	.byte	W04
	.byte		        As3 , v032
	.byte	W08
	.byte		        As3 , v028
	.byte	W04
	.byte		        As3 , v032
	.byte	W08
	.byte		        As3 , v040
	.byte	W04
	.byte		        As3 , v028
	.byte	W08
	.byte		N06   , Cn1 , v127
	.byte		N02   , As3 , v032
	.byte	W04
	.byte		        As3 , v040
	.byte	W08
	.byte		        As3 , v028
	.byte	W04
	.byte		        As3 , v032
	.byte	W08
	.byte		N06   , Cn1 , v127
	.byte		N02   , As3 , v040
	.byte	W04
	.byte		        As3 , v028
	.byte	W08
	.byte		        As3 , v040
	.byte	W04
	.byte		        As3 , v032
	.byte	W08
	.byte		        As3 , v036
	.byte	W04
	.byte		N06   , Cn1 , v127
	.byte		N02   , As3 , v040
	.byte	W08
	.byte		        As3 , v028
	.byte	W04
	.byte		        As3 , v032
	.byte	W08
	.byte		        As3 , v028
	.byte	W04
	.byte		        As3 , v032
	.byte	W08
	.byte		        As3 , v040
	.byte	W04
	.byte		        As3 , v028
	.byte	W08
	.byte		N06   , Cn1 , v127
	.byte		N02   , As3 , v032
	.byte	W04
	.byte		        As3 , v040
	.byte	W08
	.byte		        As3 , v028
	.byte	W04
	.byte		        As3 , v032
	.byte	W08
	.byte		N06   , Cn1 , v127
	.byte		N02   , As3 , v040
	.byte	W04
	.byte		        As3 , v028
	.byte	W08
	.byte		        As3 , v040
	.byte	W04
	.byte		        As3 , v032
	.byte	W08
	.byte		N04   , Cn1 , v108
	.byte		N02   , As3 , v036
	.byte	W04
	.byte		N06   , Cn1 , v127
	.byte		N02   , As3 , v040
	.byte	W08
	.byte		        As3 , v028
	.byte	W04
	.byte		        As3 , v032
	.byte	W08
	.byte		        As3 , v028
	.byte	W04
	.byte		        As3 , v032
	.byte	W08
	.byte		        As3 , v040
	.byte	W04
	.byte		        As3 , v028
	.byte	W08
	.byte		N06   , Cn1 , v127
	.byte		N02   , As3 , v032
	.byte	W04
	.byte		        As3 , v040
	.byte	W08
	.byte		        As3 , v028
	.byte	W04
	.byte		        As3 , v032
	.byte	W08
	.byte		N06   , Cn1 , v127
	.byte		N02   , As3 , v040
	.byte	W04
	.byte		        As3 , v028
	.byte	W08
	.byte		        As3 , v040
	.byte	W04
	.byte		        As3 , v032
	.byte	W08
	.byte		        As3 , v036
	.byte	W04
	.byte		N06   , Cn1 , v127
	.byte		N02   , As3 , v040
	.byte	W08
	.byte		        As3 , v028
	.byte	W04
	.byte		        As3 , v032
	.byte	W08
	.byte		        As3 , v028
	.byte	W04
	.byte		        As3 , v032
	.byte	W08
	.byte		        As3 , v040
	.byte	W04
	.byte		        As3 , v028
	.byte	W08
	.byte		N06   , Cn1 , v127
	.byte		N02   , As3 , v032
	.byte	W04
	.byte		        As3 , v040
	.byte	W08
	.byte		        As3 , v028
	.byte	W04
	.byte		        As3 , v032
	.byte	W08
	.byte		N04   , Cn1 , v127
	.byte		N02   , As3 , v040
	.byte	W04
	.byte		        Dn1 , v092
	.byte		N12   , Gn2 , v120
	.byte		N02   , As3 , v028
	.byte	W02
	.byte		N06   , Dn1 , v127
	.byte	W06
	.byte		N06
	.byte		N02   , As3 , v040
	.byte	W04
	.byte		        As3 , v032
	.byte	W08
	.byte		N04   , Cn1 , v108
	.byte		N03   , Dn1 , v127
	.byte		N02   , As3 , v036
	.byte	W04
	.byte		N06   , Cn1 , v127
	.byte		N24   , An2 , v120
	.byte		N02   , As3 , v040
	.byte	W08
	.byte		        As3 , v028
	.byte	W04
	.byte		N06   , Cn1 , v127
	.byte		N02   , As3 , v032
	.byte	W08
	.byte		        As3 , v028
	.byte	W04
	.byte		N06   , Dn1 , v127
	.byte		N02   , As3 , v032
	.byte	W08
	.byte		N06   , Cn1 , v127
	.byte		N02   , As3 , v040
	.byte	W04
	.byte		        As3 , v028
	.byte	W08
	.byte		N04   , Cn1 , v127
	.byte		N02   , As3 , v032
	.byte	W04
	.byte		N06   , Cn1 , v127
	.byte		N02   , As3 , v040
	.byte	W08
	.byte		N06   , Cn1 , v127
	.byte		N02   , As3 , v028
	.byte	W04
	.byte		        As3 , v032
	.byte	W08
	.byte		N04   , Cn1 , v127
	.byte		N02   , As3 , v040
	.byte	W04
	.byte		N06   , Dn1 , v127
	.byte		N02   , As3 , v028
	.byte	W08
	.byte		        As3 , v040
	.byte	W04
	.byte		N06   , Cn1 , v127
	.byte		N02   , As3 , v032
	.byte	W08
	.byte		        As3 , v036
	.byte	W04
	.byte	PEND
	.byte		N06   , Cn1 , v127
	.byte		N02   , As3 , v040
	.byte	W08
	.byte		        As3 , v028
	.byte	W04
	.byte		N06   , Cn1 , v127
	.byte		N02   , As3 , v032
	.byte	W08
	.byte		        As3 , v028
	.byte	W04
	.byte		N06   , Dn1 , v127
	.byte		N02   , As3 , v032
	.byte	W08
	.byte		N06   , Cn1 , v127
	.byte		N02   , As3 , v040
	.byte	W04
	.byte		        As3 , v028
	.byte	W08
	.byte		N04   , Cn1 , v127
	.byte		N02   , As3 , v032
	.byte	W04
	.byte		N06   , Cn1 , v127
	.byte		N02   , As3 , v040
	.byte	W08
	.byte		N06   , Cn1 , v127
	.byte		N02   , As3 , v028
	.byte	W04
	.byte		        As3 , v032
	.byte	W08
	.byte		N04   , Cn1 , v127
	.byte		N02   , As3 , v040
	.byte	W04
	.byte		N06   , Dn1 , v127
	.byte		N02   , As3 , v028
	.byte	W08
	.byte		        As3 , v040
	.byte	W04
	.byte		N06   , Cn1 , v127
	.byte		N02   , As3 , v032
	.byte	W08
	.byte	PEND
	.byte		N04   , Cn1 , v108
	.byte		N03   , Dn1 , v127
	.byte		N02   , As3 , v036
	.byte	W04
	.byte		N06   , Cn1 , v127
	.byte		N02   , As3 , v040
	.byte	W08
	.byte		        As3 , v028
	.byte	W04
	.byte		N06   , Cn1 , v127
	.byte		N02   , As3 , v032
	.byte	W08
	.byte		        As3 , v028
	.byte	W04
	.byte		N06   , Dn1 , v127
	.byte		N02   , As3 , v032
	.byte	W08
	.byte		N06   , Cn1 , v127
	.byte		N02   , As3 , v040
	.byte	W04
	.byte		        As3 , v028
	.byte	W08
	.byte		N04   , Cn1 , v127
	.byte		N02   , As3 , v032
	.byte	W04
	.byte		N06   , Cn1 , v127
	.byte		N02   , As3 , v040
	.byte	W08
	.byte		N06   , Cn1 , v127
	.byte		N02   , As3 , v028
	.byte	W04
	.byte		        As3 , v032
	.byte	W08
	.byte		N04   , Cn1 , v127
	.byte		N02   , As3 , v040
	.byte	W04
	.byte		N06   , Dn1 , v127
	.byte		N02   , As3 , v028
	.byte	W08
	.byte		        As3 , v040
	.byte	W04
	.byte		N06   , Cn1 , v127
	.byte		N02   , As3 , v032
	.byte	W08
	.byte		        As3 , v036
	.byte	W04
	.byte	PEND
	.byte		N06   , Cn1 , v127
	.byte		N02   , As3 , v040
	.byte	W08
	.byte		        As3 , v028
	.byte	W04
	.byte		N06   , Cn1 , v127
	.byte		N02   , As3 , v032
	.byte	W08
	.byte		        As3 , v028
	.byte	W04
	.byte		N06   , Dn1 , v127
	.byte		N02   , As3 , v032
	.byte	W08
	.byte		N06   , Cn1 , v127
	.byte		N02   , As3 , v040
	.byte	W04
	.byte		        As3 , v028
	.byte	W08
	.byte		N04   , Cn1 , v127
	.byte		N02   , As3 , v032
	.byte	W04
	.byte		N06   , Cn1 , v127
	.byte		N02   , As3 , v040
	.byte	W08
	.byte		N06   , Cn1 , v127
	.byte		N02   , As3 , v028
	.byte	W04
	.byte		        As3 , v032
	.byte	W08
	.byte		N04   , Cn1 , v127
	.byte		N02   , As3 , v040
	.byte	W04
	.byte		        Dn1 , v092
	.byte		N02   , As3 , v028
	.byte	W02
	.byte		N06   , Dn1 , v127
	.byte	W06
	.byte		N06
	.byte		N02   , As3 , v040
	.byte	W04
	.byte		N06   , Cn1 , v127
	.byte		N02   , As3 , v032
	.byte	W08
	.byte		N04   , Cn1 , v108
	.byte		N03   , Dn1 , v127
	.byte		N02   , As3 , v036
	.byte	W04
	.byte	PEND
	.byte		N06   , Cn1 , v127
	.byte		N24   , An2 , v120
	.byte		N02   , As3 , v040
	.byte	W08
	.byte		        As3 , v028
	.byte	W04
	.byte		        As3 , v032
	.byte	W08
	.byte		        As3 , v028
	.byte	W04
	.byte		N06   , Dn1 , v127
	.byte		N02   , As3 , v032
	.byte	W08
	.byte		        As3 , v040
	.byte	W04
	.byte		        As3 , v028
	.byte	W08
	.byte		N06   , Cn1 , v127
	.byte		N02   , As3 , v032
	.byte	W04
	.byte		        As3 , v040
	.byte	W08
	.byte		N06   , Cn1 , v127
	.byte		N02   , As3 , v028
	.byte	W04
	.byte		        As3 , v032
	.byte	W08
	.byte		N04   , Cn1 , v127
	.byte		N02   , As3 , v040
	.byte	W04
	.byte		N06   , Dn1 , v127
	.byte		N02   , As3 , v028
	.byte	W08
	.byte		        As3 , v040
	.byte	W04
	.byte		        As3 , v032
	.byte	W08
	.byte		        As3 , v036
	.byte	W04
	.byte	PEND
	.byte		N06   , Cn1 , v127
	.byte		N02   , As3 , v040
	.byte	W08
	.byte		        As3 , v028
	.byte	W04
	.byte		        As3 , v032
	.byte	W08
	.byte		        As3 , v028
	.byte	W04
	.byte		N06   , Dn1 , v127
	.byte		N02   , As3 , v032
	.byte	W08
	.byte		        As3 , v040
	.byte	W04
	.byte		        As3 , v028
	.byte	W08
	.byte		N06   , Cn1 , v127
	.byte		N02   , As3 , v032
	.byte	W04
	.byte		        As3 , v040
	.byte	W08
	.byte		N06   , Cn1 , v127
	.byte		N02   , As3 , v028
	.byte	W04
	.byte		        As3 , v032
	.byte	W08
	.byte		N04   , Cn1 , v127
	.byte		N02   , As3 , v040
	.byte	W04
	.byte		N06   , Dn1 , v127
	.byte		N02   , As3 , v028
	.byte	W08
	.byte		        As3 , v040
	.byte	W04
	.byte		N06   , Cn1 , v127
	.byte		N02   , As3 , v032
	.byte	W08
	.byte		N03   , Dn1 , v127
	.byte		N02   , As3 , v036
	.byte	W04
	.byte	PEND
	.byte		N06   , Cn1 , v127
	.byte		N02   , As3 , v040
	.byte	W08
	.byte		        As3 , v028
	.byte	W04
	.byte		        As3 , v032
	.byte	W08
	.byte		        As3 , v028
	.byte	W04
	.byte		N06   , Dn1 , v127
	.byte		N02   , As3 , v032
	.byte	W08
	.byte		        As3 , v040
	.byte	W04
	.byte		        As3 , v028
	.byte	W08
	.byte		N06   , Cn1 , v127
	.byte		N02   , As3 , v032
	.byte	W04
	.byte		        As3 , v040
	.byte	W08
	.byte		N06   , Cn1 , v127
	.byte		N02   , As3 , v028
	.byte	W04
	.byte		        As3 , v032
	.byte	W08
	.byte		N04   , Cn1 , v127
	.byte		N02   , As3 , v040
	.byte	W04
	.byte		N06   , Dn1 , v127
	.byte		N02   , As3 , v028
	.byte	W08
	.byte		        As3 , v040
	.byte	W04
	.byte		        As3 , v032
	.byte	W08
	.byte		        As3 , v036
	.byte	W04
	.byte	PEND
	.byte		N06   , Cn1 , v127
	.byte		N02   , As3 , v040
	.byte	W08
	.byte		        As3 , v028
	.byte	W04
	.byte		        As3 , v032
	.byte	W08
	.byte		        As3 , v028
	.byte	W04
	.byte		N06   , Dn1 , v127
	.byte		N02   , As3 , v032
	.byte	W08
	.byte		        As3 , v040
	.byte	W04
	.byte		        As3 , v028
	.byte	W08
	.byte		N06   , Cn1 , v127
	.byte		N02   , As3 , v032
	.byte	W04
	.byte		        As3 , v040
	.byte	W08
	.byte		N06   , Cn1 , v127
	.byte		N02   , As3 , v028
	.byte	W04
	.byte		        As3 , v032
	.byte	W08
	.byte		N04   , Cn1 , v127
	.byte		N02   , As3 , v040
	.byte	W04
	.byte		        Dn1 , v092
	.byte		N02   , As3 , v028
	.byte	W02
	.byte		N06   , Dn1 , v127
	.byte	W06
	.byte		N06
	.byte		N02   , As3 , v040
	.byte	W04
	.byte		N06   , Cn1 , v127
	.byte		N02   , As3 , v032
	.byte	W08
	.byte		N03   , Dn1 , v127
	.byte		N02   , As3 , v036
	.byte	W04
	.byte	PEND
	.byte	PATT
	 .word	seq_037_7 + 0x28D
	.byte	PATT
	 .word	seq_037_7 + 0x2D9
	.byte	PATT
	 .word	seq_037_7 + 0x32A
	.byte		N06   , Cn1 , v127
	.byte		N02   , As3 , v040
	.byte	W08
	.byte		        As3 , v028
	.byte	W04
	.byte		        As3 , v032
	.byte	W08
	.byte		        As3 , v028
	.byte	W04
	.byte		N06   , Dn1 , v127
	.byte		N02   , As3 , v032
	.byte	W08
	.byte		        As3 , v040
	.byte	W04
	.byte		        As3 , v028
	.byte	W08
	.byte		N04   , Cn1 , v127
	.byte		N02   , As3 , v032
	.byte	W04
	.byte		N06   , Dn1 , v127
	.byte		N02   , As3 , v040
	.byte	W08
	.byte		N04   , Dn1 , v127
	.byte		N02   , As3 , v028
	.byte	W04
	.byte		N06   , Cn1 , v127
	.byte	W08
	.byte		N04   , Dn1 
	.byte		N12   , Gn2 , v120
	.byte	W04
	.byte		N02   , Fn3 , v072
	.byte		N02   , As3 , v028
	.byte	W02
	.byte		N05   , Fn3 , v112
	.byte	W06
	.byte		N06   , Cn1 , v127
	.byte		N16   , Fn3 , v112
	.byte		N02   , As3 , v040
	.byte	W12
	.byte		N04   , Dn1 , v127
	.byte	W04
	.byte	PATT
	 .word	seq_037_7 + 0x113
	.byte		N06   , Cn1 , v127
	.byte		N02   , As3 , v040
	.byte	W08
	.byte		        As3 , v028
	.byte	W04
	.byte		N06   , Cn1 , v127
	.byte		N02   , As3 , v032
	.byte	W08
	.byte		        As3 , v028
	.byte	W04
	.byte		N06   , Dn1 , v127
	.byte		N02   , As3 , v032
	.byte	W08
	.byte		N06   , Cn1 , v127
	.byte		N02   , As3 , v040
	.byte	W04
	.byte		        As3 , v028
	.byte	W08
	.byte		N04   , Cn1 , v127
	.byte		N02   , As3 , v032
	.byte	W04
	.byte		N06   , Cn1 , v127
	.byte		N02   , As3 , v040
	.byte	W08
	.byte		N06   , Cn1 , v127
	.byte		N02   , As3 , v028
	.byte	W04
	.byte		        As3 , v032
	.byte	W08
	.byte		N04   , Cn1 , v127
	.byte		N02   , As3 , v040
	.byte	W04
	.byte		N06   , Dn1 , v127
	.byte		N02   , As3 , v028
	.byte	W08
	.byte		        As3 , v040
	.byte	W04
	.byte		N06   , Cn1 , v127
	.byte		N02   , As3 , v032
	.byte	W08
	.byte		N04   , Cn1 , v108
	.byte		N03   , Dn1 , v127
	.byte		N02   , As3 , v036
	.byte	W04
	.byte	PATT
	 .word	seq_037_7 + 0x1CF
	.byte	PATT
	 .word	seq_037_7 + 0x228
	.byte	PATT
	 .word	seq_037_7 + 0x28D
	.byte	PATT
	 .word	seq_037_7 + 0x2D9
	.byte	PATT
	 .word	seq_037_7 + 0x32A
	.byte		N06   , Cn1 , v127
	.byte		N02   , As3 , v040
	.byte	W08
	.byte		        As3 , v028
	.byte	W04
	.byte		        As3 , v032
	.byte	W08
	.byte		        As3 , v028
	.byte	W04
	.byte		N06   , Dn1 , v127
	.byte		N02   , As3 , v032
	.byte	W08
	.byte		        As3 , v040
	.byte	W04
	.byte		        As3 , v028
	.byte	W08
	.byte		N04   , Cn1 , v127
	.byte		N02   , As3 , v032
	.byte	W04
	.byte		N06   , Dn1 , v127
	.byte		N02   , As3 , v040
	.byte	W08
	.byte		N04   , Dn1 , v127
	.byte		N02   , As3 , v028
	.byte	W04
	.byte		N06   , Cn1 , v127
	.byte	W08
	.byte		N04   , Dn1 
	.byte		N12   , Gn2 , v120
	.byte	W04
	.byte		N02   , Fn3 , v072
	.byte		N02   , As3 , v028
	.byte	W02
	.byte		N05   , Fn3 , v112
	.byte	W06
	.byte		N16
	.byte		N02   , As3 , v040
	.byte	W04
	.byte		N12   , Fs4 , v112
	.byte	W12
	.byte	PATT
	 .word	seq_037_7 + 0x28D
	.byte	PATT
	 .word	seq_037_7 + 0x2D9
	.byte	PATT
	 .word	seq_037_7 + 0x32A
	.byte	PATT
	 .word	seq_037_7 + 0x373
	.byte	PATT
	 .word	seq_037_7 + 0x28D
	.byte	PATT
	 .word	seq_037_7 + 0x2D9
	.byte	PATT
	 .word	seq_037_7 + 0x32A
	.byte		N06   , Cn1 , v127
	.byte		N02   , As3 , v040
	.byte	W08
	.byte		        As3 , v028
	.byte	W04
	.byte		        As3 , v032
	.byte	W08
	.byte		        As3 , v028
	.byte	W04
	.byte		N06   , Dn1 , v127
	.byte		N02   , As3 , v032
	.byte	W08
	.byte		        As3 , v040
	.byte	W04
	.byte		        As3 , v028
	.byte	W08
	.byte		N04   , Cn1 , v127
	.byte		N02   , As3 , v032
	.byte	W04
	.byte		N06   , Dn1 , v127
	.byte		N02   , As3 , v040
	.byte	W08
	.byte		N04   , Dn1 , v127
	.byte		N02   , As3 , v028
	.byte	W04
	.byte		N06   , Cn1 , v127
	.byte	W08
	.byte		N04   , Dn1 
	.byte		N12   , Gn2 , v120
	.byte	W04
	.byte		N02   , Fn3 , v072
	.byte		N02   , As3 , v028
	.byte	W02
	.byte		N05   , Fn3 , v112
	.byte	W06
	.byte		N16
	.byte		N02   , As3 , v040
	.byte	W16
	.byte	PATT
	 .word	seq_037_7 + 0x28D
	.byte	PATT
	 .word	seq_037_7 + 0x2D9
	.byte	PATT
	 .word	seq_037_7 + 0x32A
	.byte	PATT
	 .word	seq_037_7 + 0x373
	.byte	PATT
	 .word	seq_037_7 + 0x28D
	.byte	PATT
	 .word	seq_037_7 + 0x2D9
	.byte	PATT
	 .word	seq_037_7 + 0x32A
	.byte		N06   , Cn1 , v127
	.byte		N02   , As3 , v040
	.byte	W08
	.byte		        As3 , v028
	.byte	W04
	.byte		        As3 , v032
	.byte	W08
	.byte		        As3 , v028
	.byte	W04
	.byte		N06   , Dn1 , v127
	.byte		N02   , As3 , v032
	.byte	W08
	.byte		        As3 , v040
	.byte	W04
	.byte		        As3 , v028
	.byte	W08
	.byte		N04   , Cn1 , v127
	.byte		N02   , As3 , v032
	.byte	W04
	.byte		N06   , Dn1 , v127
	.byte		N02   , As3 , v040
	.byte	W08
	.byte		N04   , Dn1 , v127
	.byte		N02   , As3 , v028
	.byte	W04
	.byte		N06   , Cn1 , v127
	.byte	W08
	.byte		N04   , Dn1 
	.byte		N12   , Gn2 , v120
	.byte	W04
	.byte		N02   , Fn3 , v072
	.byte		N02   , As3 , v028
	.byte	W02
	.byte		N05   , Fn3 , v112
	.byte	W06
	.byte		N12
	.byte		N02   , As3 , v040
	.byte	W12
	.byte		N04   , Fn3 , v112
	.byte	W04
	.byte	PATT
	 .word	seq_037_7 + 0x113
	.byte	PATT
	 .word	seq_037_7 + 0x16F
	.byte	GOTO
	 .word	seq_037_7 + 0x1C5
	.byte	FINE

@******************************************************@

	.align	2

seq_037:
	.byte	8	@ NumTrks
	.byte	0	@ NumBlks
	.byte	seq_037_pri	@ Priority
	.byte	seq_037_rev	@ Reverb

	.word	seq_037_grp

	.word	seq_037_0
	.word	seq_037_1
	.word	seq_037_2
	.word	seq_037_3
	.word	seq_037_4
	.word	seq_037_5
	.word	seq_037_6
	.word	seq_037_7

	.end
