@ File generated by m4a2s Song-Module
	.include "MPlayDef.s"

	.equ	seq_027_grp, bank_022
	.equ	seq_027_pri, 0
	.equ	seq_027_rev, 178
	.equ	seq_027_mvl, 127
	.equ	seq_027_key, 0

	.section .rodata
	.global	seq_027
	.align	2

@*********************** Track 01 ***********************@

seq_027_0:
	.byte	KEYSH , seq_027_key+0
	.byte	TEMPO , 116/2
	.byte		VOICE , 11
	.byte		MOD   , 0
	.byte		VOL   , 62*seq_027_mvl/mxv
	.byte		PAN   , c_v+0
	.byte		BEND  , c_v+0
	.byte		N05   , An4 , v060
	.byte	W06
	.byte		        An5 , v064
	.byte	W06
	.byte		        Gn4 , v068
	.byte	W06
	.byte		        Gn5 , v072
	.byte	W06
	.byte		        Ds4 , v076
	.byte	W06
	.byte		        Ds5 , v080
	.byte	W06
	.byte		        Cn4 , v084
	.byte	W06
	.byte		        Cn5 , v088
	.byte	W06
	.byte		        An4 , v092
	.byte	W06
	.byte		        An5 , v096
	.byte	W06
	.byte		        Gn4 , v100
	.byte	W06
	.byte		        Gn5 , v104
	.byte	W06
	.byte		        Ds4 , v108
	.byte	W06
	.byte		        Ds5 , v112
	.byte	W06
	.byte		        Cn4 , v116
	.byte	W06
	.byte		        Cn5 , v120
	.byte	W06
	.byte		        As4 , v124
	.byte	W06
	.byte		        As5 , v116
	.byte	W06
	.byte		        Gs4 , v108
	.byte	W06
	.byte		        Gs5 , v100
	.byte	W06
	.byte		        En4 , v092
	.byte	W06
	.byte		        En5 , v088
	.byte	W06
	.byte		        Cs4 , v076
	.byte	W06
	.byte		        Cs5 , v068
	.byte	W06
	.byte		        As4 , v060
	.byte	W06
	.byte		        As5 
	.byte	W06
	.byte		        Gs4 
	.byte	W06
	.byte		        Gs5 
	.byte	W06
	.byte		        En4 
	.byte	W06
	.byte		        En5 
	.byte	W06
	.byte		        Cs4 
	.byte	W06
	.byte		        Cs5 
	.byte	W06
	.byte		        An4 
	.byte	W06
	.byte		        An5 , v064
	.byte	W06
	.byte		        Gn4 , v068
	.byte	W06
	.byte		        Gn5 , v072
	.byte	W06
	.byte		        Ds4 , v076
	.byte	W06
	.byte		        Ds5 , v080
	.byte	W06
	.byte		        Cn4 , v084
	.byte	W06
	.byte		        Cn5 , v088
	.byte	W06
	.byte		        An4 , v092
	.byte	W06
	.byte		        An5 , v096
	.byte	W06
	.byte		        Gn4 , v100
	.byte	W06
	.byte		        Gn5 , v104
	.byte	W06
	.byte		        Ds4 , v108
	.byte	W06
	.byte		        Ds5 , v112
	.byte	W06
	.byte		        Cn4 , v116
	.byte	W06
	.byte		        Cn5 , v120
	.byte	W06
	.byte		        Gs4 , v124
	.byte	W06
	.byte		        Gs5 , v116
	.byte	W06
	.byte		        Fs4 , v108
	.byte	W06
	.byte		        Fs5 , v100
	.byte	W06
	.byte		        Dn4 , v092
	.byte	W06
	.byte		        Dn5 , v088
	.byte	W06
	.byte		        Bn3 , v076
	.byte	W06
	.byte		        Bn4 , v068
	.byte	W06
	.byte		        Gs4 , v060
	.byte	W06
	.byte		        Gs5 
	.byte	W06
	.byte		        Fs4 
	.byte	W06
	.byte		        Fs5 
	.byte	W06
	.byte		        Dn4 
	.byte	W06
	.byte		        Dn5 
	.byte	W06
	.byte		        Bn3 
	.byte	W06
	.byte		        Bn4 
	.byte	W06
	.byte		VOICE , 54
	.byte		VOL   , 90*seq_027_mvl/mxv
	.byte		PAN   , c_v+0
	.byte		N44   , Gn3 , v100
	.byte	W48
	.byte		        Cn4 , v112
	.byte	W48
	.byte		N32   , Bn3 
	.byte	W36
	.byte		N10   , Fn3 , v100
	.byte	W12
	.byte		N92
	.byte	W48
	.byte	W60
	.byte		VOL   , 99*seq_027_mvl/mxv
	.byte		N08   , Dn3 , v112
	.byte	W12
	.byte		        Ds3 
	.byte	W12
	.byte		        En3 
	.byte	W12
	.byte		VOL   , 90*seq_027_mvl/mxv
	.byte		N44   , Fn3 , v100
	.byte	W48
	.byte		        As3 , v112
	.byte	W48
	.byte		N32   , An3 
	.byte	W36
	.byte		N10   , En3 , v100
	.byte	W12
	.byte		VOL   , 90*seq_027_mvl/mxv
	.byte		TIE
	.byte	W48
	.byte		VOL   , 74*seq_027_mvl/mxv
	.byte	W24
	.byte		        57*seq_027_mvl/mxv
	.byte	W24
	.byte		        49*seq_027_mvl/mxv
	.byte	W24
	.byte		        41*seq_027_mvl/mxv
	.byte	W08
	.byte		EOT
	.byte	W16
	.byte		VOICE , 54
	.byte		MOD   , 0
	.byte		VOL   , 52*seq_027_mvl/mxv
	.byte		PAN   , c_v+0
	.byte		BEND  , c_v+0
	.byte		TIE   , Ds4 , v112
	.byte	W12
	.byte		VOL   , 61*seq_027_mvl/mxv
	.byte	W12
	.byte		        77*seq_027_mvl/mxv
	.byte	W12
	.byte		        94*seq_027_mvl/mxv
	.byte	W04
	.byte		MOD   , 0
	.byte	W02
	.byte		        0
	.byte	W01
	.byte		        0
	.byte	W01
	.byte		        0
	.byte	W01
	.byte		        0
	.byte	W01
	.byte		        1
	.byte	W01
	.byte		        1
	.byte	W01
	.byte		        1
	.byte		VOL   , 105*seq_027_mvl/mxv
	.byte	W01
	.byte		MOD   , 1
	.byte	W01
	.byte		        2
	.byte	W02
	.byte		        2
	.byte	W01
	.byte		        2
	.byte	W01
	.byte		        3
	.byte	W01
	.byte		        3
	.byte	W01
	.byte		        3
	.byte	W01
	.byte		        4
	.byte	W01
	.byte		        4
	.byte	W01
	.byte		        4
	.byte	W01
	.byte		        4
	.byte	W01
	.byte		        4
	.byte	W01
	.byte		        5
	.byte	W01
	.byte		        5
	.byte	W01
	.byte		        6
	.byte	W01
	.byte		        6
	.byte	W01
	.byte		        7
	.byte	W01
	.byte		        8
	.byte	W01
	.byte		        8
	.byte	W01
	.byte		        8
	.byte	W01
	.byte		        8
	.byte	W01
	.byte		        9
	.byte	W01
	.byte		        10
	.byte	W01
	.byte		        10
	.byte		VOL   , 90*seq_027_mvl/mxv
	.byte	W01
	.byte		MOD   , 10
	.byte		VOL   , 82*seq_027_mvl/mxv
	.byte	W01
	.byte		MOD   , 11
	.byte		VOL   , 74*seq_027_mvl/mxv
	.byte	W01
	.byte		MOD   , 11
	.byte	W01
	.byte		        11
	.byte	W01
	.byte		        12
	.byte		VOL   , 57*seq_027_mvl/mxv
	.byte	W06
	.byte		        41*seq_027_mvl/mxv
	.byte	W04
	.byte		BEND  , c_v-1
	.byte	W01
	.byte		        c_v-2
	.byte	W01
	.byte		        c_v-4
	.byte	W01
	.byte		        c_v-7
	.byte	W01
	.byte		        c_v-8
	.byte	W01
	.byte		        c_v-9
	.byte	W01
	.byte		        c_v-11
	.byte	W01
	.byte		        c_v-14
	.byte	W01
	.byte		VOL   , 33*seq_027_mvl/mxv
	.byte		BEND  , c_v-15
	.byte	W01
	.byte		        c_v-18
	.byte	W01
	.byte		        c_v-19
	.byte	W01
	.byte		        c_v-20
	.byte	W01
	.byte		        c_v-22
	.byte	W01
	.byte		        c_v-24
	.byte	W02
	.byte		        c_v-25
	.byte	W02
	.byte		        c_v-27
	.byte	W02
	.byte		        c_v-28
	.byte	W01
	.byte		VOL   , 24*seq_027_mvl/mxv
	.byte		BEND  , c_v-29
	.byte	W01
	.byte		        c_v-30
	.byte	W01
	.byte		        c_v-31
	.byte	W01
	.byte		        c_v-32
	.byte	W02
	.byte		        c_v-33
	.byte	W02
	.byte		        c_v-34
	.byte	W02
	.byte		        c_v-35
	.byte	W02
	.byte		        c_v-36
	.byte	W05
	.byte		        c_v-37
	.byte	W05
	.byte		        c_v-38
	.byte	W02
	.byte		        c_v-39
	.byte	W02
	.byte		        c_v-40
	.byte	W03
	.byte		        c_v-41
	.byte	W01
	.byte	PEND
	.byte		EOT   , Ds4 
	.byte	W01
	.byte		BEND  , c_v-42
	.byte	W02
	.byte		        c_v-43
	.byte	W02
	.byte		        c_v-44
	.byte	W07
	.byte		        c_v-45
	.byte	W05
	.byte		        c_v-46
	.byte	W06
	.byte		        c_v-47
	.byte	W18
	.byte		        c_v-46
	.byte	W07
	.byte		        c_v-45
	.byte	W07
	.byte		MOD   , 0
	.byte		VOL   , 52*seq_027_mvl/mxv
	.byte		BEND  , c_v+0
	.byte		TIE   , Fs4 , v104
	.byte	W12
	.byte		VOL   , 61*seq_027_mvl/mxv
	.byte	W12
	.byte		        77*seq_027_mvl/mxv
	.byte	W12
	.byte		        94*seq_027_mvl/mxv
	.byte	W04
	.byte		MOD   , 0
	.byte	W02
	.byte		        0
	.byte	W01
	.byte		        0
	.byte	W01
	.byte		        0
	.byte	W01
	.byte		        0
	.byte	W01
	.byte		        1
	.byte	W01
	.byte		        1
	.byte	W01
	.byte		        1
	.byte		VOL   , 105*seq_027_mvl/mxv
	.byte	W01
	.byte		MOD   , 1
	.byte	W01
	.byte		        2
	.byte	W02
	.byte		        2
	.byte	W01
	.byte		        2
	.byte	W01
	.byte		        3
	.byte	W01
	.byte		        3
	.byte	W01
	.byte		        3
	.byte	W01
	.byte		        4
	.byte	W01
	.byte		        4
	.byte	W01
	.byte		        4
	.byte	W01
	.byte		        4
	.byte	W01
	.byte		        4
	.byte	W01
	.byte		        5
	.byte	W01
	.byte		        5
	.byte	W01
	.byte		        6
	.byte	W01
	.byte		        6
	.byte	W01
	.byte		        7
	.byte	W01
	.byte		        8
	.byte	W01
	.byte		        8
	.byte	W01
	.byte		        8
	.byte	W01
	.byte		        8
	.byte	W01
	.byte		        9
	.byte	W01
	.byte		        10
	.byte	W01
	.byte		        10
	.byte		VOL   , 90*seq_027_mvl/mxv
	.byte	W01
	.byte		MOD   , 10
	.byte		VOL   , 82*seq_027_mvl/mxv
	.byte	W01
	.byte		MOD   , 11
	.byte		VOL   , 74*seq_027_mvl/mxv
	.byte	W01
	.byte		MOD   , 11
	.byte	W01
	.byte		        11
	.byte	W01
	.byte		        12
	.byte		VOL   , 57*seq_027_mvl/mxv
	.byte	W06
	.byte		        41*seq_027_mvl/mxv
	.byte	W04
	.byte		BEND  , c_v-1
	.byte	W01
	.byte		        c_v-2
	.byte	W01
	.byte		        c_v-4
	.byte	W01
	.byte		        c_v-7
	.byte	W01
	.byte		        c_v-8
	.byte	W01
	.byte		        c_v-9
	.byte	W01
	.byte		        c_v-11
	.byte	W01
	.byte		        c_v-14
	.byte	W01
	.byte	PATT
	 .word	seq_027_0 + 0x181
	.byte		EOT   , Fs4 
	.byte	W01
	.byte		BEND  , c_v-42
	.byte	W02
	.byte		        c_v-43
	.byte	W02
	.byte		        c_v-44
	.byte	W07
	.byte		        c_v-45
	.byte	W05
	.byte		        c_v-46
	.byte	W06
	.byte		        c_v-47
	.byte	W18
	.byte		        c_v-46
	.byte	W07
	.byte		        c_v-45
	.byte	W07
	.byte		MOD   , 0
	.byte		VOL   , 52*seq_027_mvl/mxv
	.byte		BEND  , c_v+0
	.byte		TIE   , Cs4 , v112
	.byte	W12
	.byte		VOL   , 61*seq_027_mvl/mxv
	.byte	W12
	.byte		        77*seq_027_mvl/mxv
	.byte	W12
	.byte		        94*seq_027_mvl/mxv
	.byte	W04
	.byte		MOD   , 0
	.byte	W02
	.byte		        0
	.byte	W01
	.byte		        0
	.byte	W01
	.byte		        0
	.byte	W01
	.byte		        0
	.byte	W01
	.byte		        1
	.byte	W01
	.byte		        1
	.byte	W01
	.byte		        1
	.byte		VOL   , 105*seq_027_mvl/mxv
	.byte	W01
	.byte		MOD   , 1
	.byte	W01
	.byte		        2
	.byte	W02
	.byte		        2
	.byte	W01
	.byte		        2
	.byte	W01
	.byte		        3
	.byte	W01
	.byte		        3
	.byte	W01
	.byte		        3
	.byte	W01
	.byte		        4
	.byte	W01
	.byte		        4
	.byte	W01
	.byte		        4
	.byte	W01
	.byte		        4
	.byte	W01
	.byte		        4
	.byte	W01
	.byte		        5
	.byte	W01
	.byte		        5
	.byte	W01
	.byte		        6
	.byte	W01
	.byte		        6
	.byte	W01
	.byte		        7
	.byte	W01
	.byte		        8
	.byte	W01
	.byte		        8
	.byte	W01
	.byte		        8
	.byte	W01
	.byte		        8
	.byte	W01
	.byte		        9
	.byte	W01
	.byte		        10
	.byte	W01
	.byte		        10
	.byte		VOL   , 90*seq_027_mvl/mxv
	.byte	W01
	.byte		MOD   , 10
	.byte		VOL   , 82*seq_027_mvl/mxv
	.byte	W01
	.byte		MOD   , 11
	.byte		VOL   , 74*seq_027_mvl/mxv
	.byte	W01
	.byte		MOD   , 11
	.byte	W01
	.byte		        11
	.byte	W01
	.byte		        12
	.byte		VOL   , 57*seq_027_mvl/mxv
	.byte	W06
	.byte		        41*seq_027_mvl/mxv
	.byte	W04
	.byte		BEND  , c_v-1
	.byte	W01
	.byte		        c_v-2
	.byte	W01
	.byte		        c_v-4
	.byte	W01
	.byte		        c_v-7
	.byte	W01
	.byte		        c_v-8
	.byte	W01
	.byte		        c_v-9
	.byte	W01
	.byte		        c_v-11
	.byte	W01
	.byte		        c_v-14
	.byte	W01
	.byte	PATT
	 .word	seq_027_0 + 0x181
	.byte		EOT   , Cs4 
	.byte	W01
	.byte		BEND  , c_v-42
	.byte	W02
	.byte		        c_v-43
	.byte	W02
	.byte		        c_v-44
	.byte	W07
	.byte		        c_v-45
	.byte	W05
	.byte		        c_v-46
	.byte	W06
	.byte		        c_v-47
	.byte	W18
	.byte		        c_v-46
	.byte	W07
	.byte		        c_v-45
	.byte	W07
	.byte		MOD   , 0
	.byte		VOL   , 52*seq_027_mvl/mxv
	.byte		BEND  , c_v+0
	.byte		TIE   , En4 , v112
	.byte	W12
	.byte		VOL   , 61*seq_027_mvl/mxv
	.byte	W11
	.byte		MOD   , 0
	.byte	W01
	.byte		        0
	.byte		VOL   , 77*seq_027_mvl/mxv
	.byte	W01
	.byte		MOD   , 0
	.byte	W01
	.byte		        0
	.byte	W01
	.byte		        1
	.byte	W01
	.byte		        1
	.byte	W01
	.byte		        2
	.byte	W01
	.byte		        3
	.byte	W01
	.byte		        4
	.byte	W01
	.byte		        4
	.byte	W01
	.byte		        4
	.byte	W01
	.byte		        5
	.byte	W01
	.byte		        5
	.byte	W01
	.byte		        6
	.byte		VOL   , 94*seq_027_mvl/mxv
	.byte	W01
	.byte		MOD   , 6
	.byte	W01
	.byte		        7
	.byte	W01
	.byte		        7
	.byte	W01
	.byte		        8
	.byte	W01
	.byte		        8
	.byte	W01
	.byte		        8
	.byte	W01
	.byte		        8
	.byte	W01
	.byte		        9
	.byte	W01
	.byte		        10
	.byte	W02
	.byte		        10
	.byte	W01
	.byte		        11
	.byte		VOL   , 105*seq_027_mvl/mxv
	.byte	W01
	.byte		MOD   , 11
	.byte	W01
	.byte		        11
	.byte	W01
	.byte		        12
	.byte	W01
	.byte		        12
	.byte	W01
	.byte		        12
	.byte	W03
	.byte		        12
	.byte	W04
	.byte		VOL   , 74*seq_027_mvl/mxv
	.byte	W12
	.byte		        66*seq_027_mvl/mxv
	.byte	W06
	.byte		BEND  , c_v-1
	.byte	W01
	.byte		        c_v-3
	.byte	W01
	.byte		        c_v-5
	.byte	W01
	.byte		        c_v-6
	.byte	W01
	.byte		        c_v-9
	.byte	W01
	.byte		        c_v-11
	.byte	W01
	.byte		VOL   , 57*seq_027_mvl/mxv
	.byte		BEND  , c_v-13
	.byte	W01
	.byte		        c_v-15
	.byte	W01
	.byte		        c_v-17
	.byte	W01
	.byte		        c_v-19
	.byte	W01
	.byte		        c_v-21
	.byte	W01
	.byte		        c_v-22
	.byte	W01
	.byte		        c_v-25
	.byte	W01
	.byte		        c_v-26
	.byte	W01
	.byte		        c_v-27
	.byte	W01
	.byte		        c_v-28
	.byte	W01
	.byte		        c_v-30
	.byte	W01
	.byte		        c_v-31
	.byte	W01
	.byte		        c_v-32
	.byte	W02
	.byte		        c_v-33
	.byte	W01
	.byte		        c_v-34
	.byte	W01
	.byte		        c_v-35
	.byte	W02
	.byte		        c_v-36
	.byte	W15
	.byte		        c_v-35
	.byte	W02
	.byte		        c_v-34
	.byte	W01
	.byte		EOT
	.byte	W24
	.byte		BEND  , c_v+0
	.byte	W12
	.byte		N12
	.byte	W12
	.byte		        Fn4 
	.byte	W12
	.byte		        Fs4 
	.byte	W12
	.byte		MOD   , 0
	.byte		VOL   , 52*seq_027_mvl/mxv
	.byte		BEND  , c_v+0
	.byte		TIE   , Gn4 , v072
	.byte	W12
	.byte		VOL   , 61*seq_027_mvl/mxv
	.byte	W12
	.byte		        77*seq_027_mvl/mxv
	.byte	W12
	.byte		        94*seq_027_mvl/mxv
	.byte	W04
	.byte		MOD   , 0
	.byte	W02
	.byte		        0
	.byte	W01
	.byte		        0
	.byte	W01
	.byte		        0
	.byte	W01
	.byte		        0
	.byte	W01
	.byte		        1
	.byte	W01
	.byte		        1
	.byte	W01
	.byte		        1
	.byte		VOL   , 105*seq_027_mvl/mxv
	.byte	W01
	.byte		MOD   , 1
	.byte	W01
	.byte		        2
	.byte	W02
	.byte		        2
	.byte	W01
	.byte		        2
	.byte	W01
	.byte		        3
	.byte	W01
	.byte		        3
	.byte	W01
	.byte		        3
	.byte	W01
	.byte		        4
	.byte	W01
	.byte		        4
	.byte	W01
	.byte		        4
	.byte	W01
	.byte		        4
	.byte	W01
	.byte		        4
	.byte	W01
	.byte		        5
	.byte	W01
	.byte		        5
	.byte	W01
	.byte		        6
	.byte	W01
	.byte		        6
	.byte	W01
	.byte		        7
	.byte	W01
	.byte		        8
	.byte	W01
	.byte		        8
	.byte	W01
	.byte		        8
	.byte	W01
	.byte		        8
	.byte	W01
	.byte		        9
	.byte	W01
	.byte		        10
	.byte	W01
	.byte		        10
	.byte		VOL   , 90*seq_027_mvl/mxv
	.byte	W01
	.byte		MOD   , 10
	.byte		VOL   , 82*seq_027_mvl/mxv
	.byte	W01
	.byte		MOD   , 11
	.byte		VOL   , 74*seq_027_mvl/mxv
	.byte	W01
	.byte		MOD   , 11
	.byte		BEND  , c_v-1
	.byte	W01
	.byte		MOD   , 11
	.byte		BEND  , c_v-2
	.byte	W01
	.byte		MOD   , 12
	.byte		VOL   , 57*seq_027_mvl/mxv
	.byte		BEND  , c_v-4
	.byte	W01
	.byte		        c_v-5
	.byte	W01
	.byte		        c_v-8
	.byte	W01
	.byte		        c_v-9
	.byte	W01
	.byte		        c_v-11
	.byte	W01
	.byte		        c_v-14
	.byte	W01
	.byte		VOL   , 41*seq_027_mvl/mxv
	.byte		BEND  , c_v-15
	.byte	W01
	.byte		        c_v-18
	.byte	W01
	.byte		        c_v-19
	.byte	W01
	.byte		        c_v-20
	.byte	W01
	.byte		        c_v-22
	.byte	W01
	.byte		        c_v-24
	.byte	W02
	.byte		        c_v-25
	.byte	W01
	.byte		        c_v-26
	.byte	W01
	.byte		        c_v-27
	.byte	W02
	.byte		        c_v-28
	.byte	W01
	.byte		VOL   , 33*seq_027_mvl/mxv
	.byte		BEND  , c_v-29
	.byte	W01
	.byte		        c_v-30
	.byte	W01
	.byte		        c_v-31
	.byte	W01
	.byte		        c_v-32
	.byte	W02
	.byte		        c_v-33
	.byte	W02
	.byte		        c_v-34
	.byte	W02
	.byte		        c_v-35
	.byte	W02
	.byte		        c_v-36
	.byte	W01
	.byte		VOL   , 24*seq_027_mvl/mxv
	.byte	W04
	.byte		BEND  , c_v-37
	.byte	W05
	.byte		        c_v-38
	.byte	W20
	.byte		EOT
	.byte	W54
	.byte	W01
	.byte		MOD   , 0
	.byte		VOL   , 52*seq_027_mvl/mxv
	.byte		BEND  , c_v+0
	.byte		TIE   , An4 , v084
	.byte	W12
	.byte		VOL   , 61*seq_027_mvl/mxv
	.byte	W12
	.byte		        77*seq_027_mvl/mxv
	.byte	W12
	.byte		        94*seq_027_mvl/mxv
	.byte	W04
	.byte		MOD   , 0
	.byte	W02
	.byte		        0
	.byte	W01
	.byte		        0
	.byte	W01
	.byte		        0
	.byte	W01
	.byte		        0
	.byte	W01
	.byte		        1
	.byte	W01
	.byte		        1
	.byte	W01
	.byte		        1
	.byte		VOL   , 105*seq_027_mvl/mxv
	.byte	W01
	.byte		MOD   , 1
	.byte	W01
	.byte		        2
	.byte	W02
	.byte		        2
	.byte	W01
	.byte		        2
	.byte	W01
	.byte		        3
	.byte	W01
	.byte		        3
	.byte	W01
	.byte		        3
	.byte	W01
	.byte		        4
	.byte	W01
	.byte		        4
	.byte	W01
	.byte		        4
	.byte	W01
	.byte		        4
	.byte	W01
	.byte		        4
	.byte	W01
	.byte		        5
	.byte	W01
	.byte		        5
	.byte	W01
	.byte		        6
	.byte	W01
	.byte		        6
	.byte	W01
	.byte		        7
	.byte	W01
	.byte		        8
	.byte	W01
	.byte		        8
	.byte	W01
	.byte		        8
	.byte	W01
	.byte		        8
	.byte	W01
	.byte		        9
	.byte	W01
	.byte		        10
	.byte	W01
	.byte		        10
	.byte		VOL   , 90*seq_027_mvl/mxv
	.byte	W01
	.byte		MOD   , 10
	.byte		VOL   , 82*seq_027_mvl/mxv
	.byte	W01
	.byte		MOD   , 11
	.byte		VOL   , 74*seq_027_mvl/mxv
	.byte	W01
	.byte		MOD   , 11
	.byte		BEND  , c_v-1
	.byte	W01
	.byte		MOD   , 11
	.byte		BEND  , c_v-2
	.byte	W01
	.byte		MOD   , 12
	.byte		VOL   , 57*seq_027_mvl/mxv
	.byte		BEND  , c_v-4
	.byte	W01
	.byte		        c_v-5
	.byte	W01
	.byte		        c_v-8
	.byte	W01
	.byte		        c_v-9
	.byte	W01
	.byte		        c_v-11
	.byte	W01
	.byte		        c_v-14
	.byte	W01
	.byte		VOL   , 41*seq_027_mvl/mxv
	.byte		BEND  , c_v-15
	.byte	W01
	.byte		        c_v-18
	.byte	W01
	.byte		        c_v-19
	.byte	W01
	.byte		        c_v-20
	.byte	W01
	.byte		        c_v-22
	.byte	W01
	.byte		        c_v-24
	.byte	W02
	.byte		        c_v-25
	.byte	W01
	.byte		        c_v-26
	.byte	W01
	.byte		        c_v-27
	.byte	W02
	.byte		        c_v-28
	.byte	W01
	.byte		VOL   , 33*seq_027_mvl/mxv
	.byte		BEND  , c_v-29
	.byte	W01
	.byte		        c_v-30
	.byte	W01
	.byte		        c_v-31
	.byte	W01
	.byte		        c_v-32
	.byte	W02
	.byte		        c_v-33
	.byte	W02
	.byte		        c_v-34
	.byte	W02
	.byte		        c_v-35
	.byte	W02
	.byte		        c_v-36
	.byte	W01
	.byte		VOL   , 24*seq_027_mvl/mxv
	.byte	W04
	.byte		BEND  , c_v-37
	.byte	W05
	.byte		        c_v-38
	.byte	W02
	.byte		        c_v-39
	.byte	W02
	.byte		        c_v-40
	.byte	W03
	.byte		        c_v-41
	.byte	W02
	.byte		        c_v-42
	.byte	W02
	.byte		        c_v-43
	.byte	W02
	.byte		        c_v-44
	.byte	W07
	.byte		EOT
	.byte		BEND  , c_v-45
	.byte	W54
	.byte	W01
	.byte		MOD   , 0
	.byte		VOL   , 52*seq_027_mvl/mxv
	.byte		BEND  , c_v+0
	.byte		TIE   , En4 , v112
	.byte	W12
	.byte		VOL   , 61*seq_027_mvl/mxv
	.byte	W12
	.byte		        77*seq_027_mvl/mxv
	.byte	W12
	.byte		        94*seq_027_mvl/mxv
	.byte	W04
	.byte		MOD   , 0
	.byte	W02
	.byte		        0
	.byte	W01
	.byte		        0
	.byte	W01
	.byte		        0
	.byte	W01
	.byte		        0
	.byte	W01
	.byte		        1
	.byte	W01
	.byte		        1
	.byte	W01
	.byte		        1
	.byte		VOL   , 105*seq_027_mvl/mxv
	.byte	W01
	.byte		MOD   , 1
	.byte	W01
	.byte		        2
	.byte	W02
	.byte		        2
	.byte	W01
	.byte		        2
	.byte	W01
	.byte		        3
	.byte	W01
	.byte		        3
	.byte	W01
	.byte		        3
	.byte	W01
	.byte		        4
	.byte	W01
	.byte		        4
	.byte	W01
	.byte		        4
	.byte	W01
	.byte		        4
	.byte		VOL   , 74*seq_027_mvl/mxv
	.byte	W01
	.byte		MOD   , 4
	.byte	W01
	.byte		        5
	.byte	W01
	.byte		        5
	.byte	W01
	.byte		        6
	.byte	W01
	.byte		        6
	.byte	W01
	.byte		        7
	.byte	W01
	.byte		        8
	.byte	W01
	.byte		        8
	.byte	W01
	.byte		        8
	.byte	W01
	.byte		        8
	.byte	W01
	.byte		        9
	.byte	W01
	.byte		        10
	.byte		VOL   , 66*seq_027_mvl/mxv
	.byte	W01
	.byte		MOD   , 10
	.byte	W01
	.byte		        10
	.byte	W01
	.byte		        11
	.byte	W01
	.byte		        11
	.byte		BEND  , c_v-1
	.byte	W01
	.byte		MOD   , 11
	.byte		BEND  , c_v-2
	.byte	W01
	.byte		MOD   , 12
	.byte		BEND  , c_v-4
	.byte	W01
	.byte		        c_v-5
	.byte	W01
	.byte		        c_v-8
	.byte	W01
	.byte		        c_v-9
	.byte	W01
	.byte		        c_v-11
	.byte	W01
	.byte		        c_v-14
	.byte	W01
	.byte		VOL   , 57*seq_027_mvl/mxv
	.byte		BEND  , c_v-15
	.byte	W01
	.byte		        c_v-18
	.byte	W01
	.byte		        c_v-19
	.byte	W01
	.byte		        c_v-20
	.byte	W01
	.byte		        c_v-22
	.byte	W01
	.byte		        c_v-24
	.byte	W02
	.byte		        c_v-25
	.byte	W01
	.byte		        c_v-26
	.byte	W01
	.byte		        c_v-27
	.byte	W02
	.byte		        c_v-28
	.byte	W01
	.byte		        c_v-29
	.byte	W01
	.byte		        c_v-30
	.byte	W01
	.byte		        c_v-31
	.byte	W01
	.byte		        c_v-32
	.byte	W02
	.byte		        c_v-33
	.byte	W02
	.byte		        c_v-34
	.byte	W02
	.byte		        c_v-35
	.byte	W02
	.byte		        c_v-36
	.byte	W05
	.byte		        c_v-37
	.byte	W05
	.byte		        c_v-38
	.byte	W20
	.byte		EOT
	.byte	W54
	.byte	W01
	.byte		MOD   , 0
	.byte		VOL   , 44*seq_027_mvl/mxv
	.byte		BEND  , c_v+0
	.byte		N92   , Fs4 , v072
	.byte	W24
	.byte		VOL   , 52*seq_027_mvl/mxv
	.byte	W12
	.byte		        69*seq_027_mvl/mxv
	.byte	W04
	.byte		MOD   , 0
	.byte	W01
	.byte		        0
	.byte	W01
	.byte		        0
	.byte	W01
	.byte		        0
	.byte	W01
	.byte		        0
	.byte	W01
	.byte		        1
	.byte	W01
	.byte		        1
	.byte	W01
	.byte		        1
	.byte	W01
	.byte		VOL   , 85*seq_027_mvl/mxv
	.byte		MOD   , 1
	.byte	W02
	.byte		        2
	.byte	W01
	.byte		        2
	.byte	W01
	.byte		        2
	.byte	W01
	.byte		        2
	.byte	W01
	.byte		        3
	.byte	W01
	.byte		        3
	.byte	W01
	.byte		        3
	.byte	W01
	.byte		        4
	.byte	W01
	.byte		        4
	.byte	W01
	.byte		        4
	.byte	W01
	.byte		        4
	.byte	W01
	.byte		        5
	.byte	W01
	.byte		        5
	.byte	W01
	.byte		        6
	.byte	W01
	.byte		        6
	.byte	W01
	.byte		        7
	.byte	W01
	.byte		        7
	.byte	W01
	.byte		        8
	.byte	W01
	.byte		        8
	.byte	W01
	.byte		        8
	.byte	W01
	.byte		        9
	.byte	W01
	.byte		        9
	.byte	W01
	.byte		VOL   , 105*seq_027_mvl/mxv
	.byte		MOD   , 10
	.byte	W01
	.byte		        10
	.byte	W01
	.byte		        11
	.byte	W01
	.byte		        11
	.byte	W01
	.byte		        11
	.byte		BEND  , c_v-1
	.byte	W01
	.byte		MOD   , 12
	.byte		BEND  , c_v-2
	.byte	W01
	.byte		        c_v-4
	.byte	W01
	.byte		        c_v-5
	.byte	W01
	.byte		        c_v-8
	.byte	W01
	.byte		        c_v-9
	.byte	W01
	.byte		        c_v-11
	.byte	W01
	.byte		        c_v-14
	.byte	W01
	.byte		        c_v-15
	.byte	W01
	.byte		        c_v-18
	.byte	W01
	.byte		        c_v-19
	.byte	W01
	.byte		        c_v-20
	.byte	W01
	.byte		        c_v-22
	.byte	W01
	.byte		        c_v-24
	.byte	W02
	.byte		        c_v-25
	.byte	W01
	.byte		        c_v-26
	.byte	W01
	.byte		        c_v-27
	.byte	W03
	.byte		MOD   , 0
	.byte		VOL   , 44*seq_027_mvl/mxv
	.byte		BEND  , c_v+0
	.byte		N32   , An4 
	.byte	W06
	.byte		VOL   , 52*seq_027_mvl/mxv
	.byte	W06
	.byte		        69*seq_027_mvl/mxv
	.byte	W06
	.byte		        85*seq_027_mvl/mxv
	.byte	W06
	.byte		        105*seq_027_mvl/mxv
	.byte	W12
	.byte		N56   , Cn5 
	.byte	W18
	.byte		BEND  , c_v-4
	.byte	W06
	.byte		VOL   , 66*seq_027_mvl/mxv
	.byte		BEND  , c_v-7
	.byte	W06
	.byte		        c_v-10
	.byte	W06
	.byte		VOL   , 49*seq_027_mvl/mxv
	.byte		BEND  , c_v-13
	.byte	W06
	.byte		        c_v-16
	.byte	W06
	.byte		VOL   , 33*seq_027_mvl/mxv
	.byte	W12
	.byte	GOTO
	 .word	seq_027_0 + 0x2
	.byte	W96
	.byte	FINE

@*********************** Track 02 ***********************@

seq_027_1:
	.byte	KEYSH , seq_027_key+0
	.byte		VOICE , 11
	.byte		MOD   , 0
	.byte		VOL   , 62*seq_027_mvl/mxv
	.byte		PAN   , c_v+0
	.byte		BEND  , c_v+0
	.byte	W09
	.byte		N05   , An4 , v040
	.byte	W06
	.byte		        An5 
	.byte	W06
	.byte		        Gn4 , v044
	.byte	W06
	.byte		        Gn5 
	.byte	W06
	.byte		        Ds4 , v048
	.byte	W06
	.byte		        Ds5 , v052
	.byte	W06
	.byte		        Cn4 
	.byte	W06
	.byte		        Cn5 , v056
	.byte	W06
	.byte		        An4 , v060
	.byte	W06
	.byte		        An5 
	.byte	W06
	.byte		        Gn4 , v064
	.byte	W06
	.byte		        Gn5 , v068
	.byte	W06
	.byte		        Ds4 
	.byte	W06
	.byte		        Ds5 , v072
	.byte	W06
	.byte		        Cn4 , v076
	.byte	W03
	.byte	W03
	.byte		        Cn5 
	.byte	W06
	.byte		        As4 , v080
	.byte	W06
	.byte		        As5 , v076
	.byte	W06
	.byte		        Gs4 , v072
	.byte	W06
	.byte		        Gs5 , v064
	.byte	W06
	.byte		        En4 , v060
	.byte	W06
	.byte		        En5 , v056
	.byte	W06
	.byte		        Cs4 , v048
	.byte	W06
	.byte		        Cs5 , v044
	.byte	W06
	.byte		        As4 , v040
	.byte	W06
	.byte		        As5 
	.byte	W06
	.byte		        Gs4 
	.byte	W06
	.byte		        Gs5 
	.byte	W06
	.byte		        En4 
	.byte	W06
	.byte		        En5 
	.byte	W06
	.byte		        Cs4 
	.byte	W03
	.byte	W03
	.byte		        Cs5 
	.byte	W06
	.byte		        An4 
	.byte	W06
	.byte		        An5 
	.byte	W06
	.byte		        Gn4 , v044
	.byte	W06
	.byte		        Gn5 
	.byte	W06
	.byte		        Ds4 , v048
	.byte	W06
	.byte		        Ds5 , v052
	.byte	W06
	.byte		        Cn4 
	.byte	W06
	.byte		        Cn5 , v056
	.byte	W06
	.byte		        An4 , v060
	.byte	W06
	.byte		        An5 
	.byte	W06
	.byte		        Gn4 , v064
	.byte	W06
	.byte		        Gn5 , v068
	.byte	W06
	.byte		        Ds4 
	.byte	W06
	.byte		        Ds5 , v072
	.byte	W06
	.byte		        Cn4 , v076
	.byte	W03
	.byte	W03
	.byte		        Cn5 
	.byte	W06
	.byte		        Gs4 , v080
	.byte	W06
	.byte		        Gs5 , v076
	.byte	W06
	.byte		        Fs4 , v072
	.byte	W06
	.byte		        Fs5 , v064
	.byte	W06
	.byte		        Dn4 , v060
	.byte	W06
	.byte		        Dn5 , v056
	.byte	W06
	.byte		        Bn3 , v048
	.byte	W06
	.byte		        Bn4 , v044
	.byte	W09
	.byte		VOICE , 54
	.byte		VOL   , 99*seq_027_mvl/mxv
	.byte		PAN   , c_v+0
	.byte		N08   , Ds3 , v120
	.byte	W12
	.byte		        Fn3 
	.byte	W12
	.byte		        Fs3 
	.byte	W12
	.byte		VOICE , 11
	.byte		VOL   , 62*seq_027_mvl/mxv
	.byte		PAN   , c_v+0
	.byte		N05   , An4 , v084
	.byte	W06
	.byte		        An5 
	.byte	W06
	.byte		        Gn4 
	.byte	W06
	.byte		        Gn5 
	.byte	W06
	.byte		        Ds4 
	.byte	W06
	.byte		        Ds5 
	.byte	W06
	.byte		        Cn4 
	.byte	W06
	.byte		        Cn5 
	.byte	W06
	.byte		        An4 
	.byte	W06
	.byte		        An5 
	.byte	W06
	.byte		        Gn4 
	.byte	W06
	.byte		        Gn5 
	.byte	W06
	.byte		        Ds4 
	.byte	W06
	.byte		        Ds5 
	.byte	W06
	.byte		        Cn4 
	.byte	W06
	.byte		        Cn5 
	.byte	W06
	.byte		        Bn4 
	.byte	W06
	.byte		        Bn5 
	.byte	W06
	.byte		        Gs4 
	.byte	W06
	.byte		        Gs5 
	.byte	W06
	.byte		        Fn4 
	.byte	W06
	.byte		        Fn5 
	.byte	W06
	.byte		        Dn4 
	.byte	W06
	.byte		        Dn5 
	.byte	W06
	.byte		        Bn4 
	.byte	W06
	.byte		        Bn5 
	.byte	W06
	.byte		        Fn5 , v120
	.byte	W06
	.byte		        Fn6 
	.byte	W06
	.byte		        Dn5 , v116
	.byte	W06
	.byte		        Dn6 , v112
	.byte	W06
	.byte		        Bn4 
	.byte	W06
	.byte		        Bn5 , v108
	.byte	W06
	.byte		        Gs4 , v104
	.byte	W06
	.byte		        Gs5 , v100
	.byte	W06
	.byte		        Fn4 
	.byte	W06
	.byte		        Fn5 , v096
	.byte	W06
	.byte		        Dn4 , v092
	.byte	W06
	.byte		        Dn5 
	.byte	W06
	.byte		        Bn3 , v088
	.byte	W06
	.byte		        Bn4 
	.byte	W06
	.byte		        Gs3 , v084
	.byte	W06
	.byte		        Gs4 
	.byte	W06
	.byte		        Fn3 
	.byte	W06
	.byte		        Fn4 
	.byte	W06
	.byte		        Dn3 
	.byte	W06
	.byte		        Dn4 
	.byte	W06
	.byte		        Bn2 
	.byte	W06
	.byte		        Bn3 
	.byte	W06
	.byte		        As4 
	.byte	W06
	.byte		        As5 
	.byte	W06
	.byte		        Fn4 
	.byte	W06
	.byte		        Fn5 
	.byte	W06
	.byte		        Cs4 
	.byte	W06
	.byte		        Cs5 
	.byte	W06
	.byte		        As3 
	.byte	W06
	.byte		        As4 
	.byte	W06
	.byte		N05
	.byte	W06
	.byte		        As5 
	.byte	W06
	.byte		        Fn4 
	.byte	W06
	.byte		        Fn5 
	.byte	W06
	.byte		        Cs4 
	.byte	W06
	.byte		        Cs5 
	.byte	W06
	.byte		        As3 
	.byte	W06
	.byte		        As4 
	.byte	W06
	.byte		        An4 
	.byte	W06
	.byte		        An5 
	.byte	W06
	.byte		        En4 
	.byte	W06
	.byte		        En5 
	.byte	W06
	.byte		        Cn4 
	.byte	W06
	.byte		        Cn5 
	.byte	W06
	.byte		        An3 
	.byte	W06
	.byte		        An4 
	.byte	W06
	.byte		N05
	.byte	W06
	.byte		        An5 
	.byte	W06
	.byte		        En4 
	.byte	W06
	.byte		        En5 
	.byte	W06
	.byte		        Cn4 
	.byte	W06
	.byte		        Cn5 
	.byte	W06
	.byte		        An3 
	.byte	W06
	.byte		        An4 
	.byte	W06
	.byte		N05
	.byte	W06
	.byte		        An5 
	.byte	W06
	.byte		        En4 , v080
	.byte	W06
	.byte		        En5 
	.byte	W06
	.byte		        Cn4 , v076
	.byte	W06
	.byte		        Cn5 , v072
	.byte	W06
	.byte		        An3 , v068
	.byte	W06
	.byte		        An4 , v060
	.byte	W06
	.byte		        An4 , v056
	.byte	W06
	.byte		        An5 , v048
	.byte	W06
	.byte		        En4 , v040
	.byte	W06
	.byte		        En5 , v032
	.byte	W06
	.byte		        Cn4 , v028
	.byte	W06
	.byte		        Cn5 , v024
	.byte	W06
	.byte		        An3 , v020
	.byte	W06
	.byte		        An4 
	.byte	W06
	.byte		VOICE , 54
	.byte		VOL   , 82*seq_027_mvl/mxv
	.byte		PAN   , c_v+0
	.byte		N92   , Cn3 , v120
	.byte	W06
	.byte		VOL   , 90*seq_027_mvl/mxv
	.byte	W06
	.byte		        105*seq_027_mvl/mxv
	.byte	W84
	.byte		        105*seq_027_mvl/mxv
	.byte		N40   , Bn2 
	.byte	W12
	.byte		VOL   , 90*seq_027_mvl/mxv
	.byte	W06
	.byte		        82*seq_027_mvl/mxv
	.byte	W18
	.byte		        74*seq_027_mvl/mxv
	.byte	W24
	.byte		        66*seq_027_mvl/mxv
	.byte	W36
	.byte		        57*seq_027_mvl/mxv
	.byte		N92   , Ds3 
	.byte	W06
	.byte		VOL   , 82*seq_027_mvl/mxv
	.byte	W06
	.byte		        105*seq_027_mvl/mxv
	.byte	W24
	.byte		        90*seq_027_mvl/mxv
	.byte	W24
	.byte		        82*seq_027_mvl/mxv
	.byte	W24
	.byte		        74*seq_027_mvl/mxv
	.byte	W12
	.byte		        57*seq_027_mvl/mxv
	.byte		N40   , Dn3 
	.byte	W06
	.byte		VOL   , 82*seq_027_mvl/mxv
	.byte	W06
	.byte		        105*seq_027_mvl/mxv
	.byte	W24
	.byte		        90*seq_027_mvl/mxv
	.byte	W24
	.byte		        82*seq_027_mvl/mxv
	.byte	W36
	.byte		        82*seq_027_mvl/mxv
	.byte		N32   , As2 
	.byte	W36
	.byte		VOL   , 99*seq_027_mvl/mxv
	.byte		N32
	.byte	W36
	.byte		N22
	.byte	W06
	.byte		VOL   , 74*seq_027_mvl/mxv
	.byte	W06
	.byte		        66*seq_027_mvl/mxv
	.byte	W12
	.byte		        90*seq_027_mvl/mxv
	.byte		N40   , An2 
	.byte	W06
	.byte		VOL   , 82*seq_027_mvl/mxv
	.byte	W06
	.byte		        105*seq_027_mvl/mxv
	.byte	W24
	.byte		        90*seq_027_mvl/mxv
	.byte	W24
	.byte		        82*seq_027_mvl/mxv
	.byte	W36
	.byte		        57*seq_027_mvl/mxv
	.byte		N92   , Gn2 
	.byte	W06
	.byte		VOL   , 82*seq_027_mvl/mxv
	.byte	W06
	.byte		        105*seq_027_mvl/mxv
	.byte	W24
	.byte		        90*seq_027_mvl/mxv
	.byte	W24
	.byte		        82*seq_027_mvl/mxv
	.byte	W24
	.byte		        74*seq_027_mvl/mxv
	.byte	W12
	.byte		        57*seq_027_mvl/mxv
	.byte		N60   , Fs2 
	.byte	W06
	.byte		VOL   , 82*seq_027_mvl/mxv
	.byte	W06
	.byte		        105*seq_027_mvl/mxv
	.byte	W24
	.byte		        90*seq_027_mvl/mxv
	.byte	W18
	.byte		        82*seq_027_mvl/mxv
	.byte	W18
	.byte		        74*seq_027_mvl/mxv
	.byte	W12
	.byte		VOICE , 5
	.byte		VOL   , 105*seq_027_mvl/mxv
	.byte		PAN   , c_v+0
	.byte		N11   , Cs2 , v127
	.byte	W12
	.byte		N03   , Cs1 , v127
	.byte	W06
	.byte		N06
	.byte	W30
	.byte		N03
	.byte	W06
	.byte		N06
	.byte	W54
	.byte	PEND
	.byte	PATT
	 .word	seq_027_1 + 0x20D
	.byte		N03   , Cs1 , v127
	.byte	W06
	.byte		N06
	.byte	W30
	.byte		N03
	.byte	W06
	.byte		N06
	.byte	W42
	.byte		N11
	.byte	W12
	.byte	W06
	.byte		N03   , Cs2 
	.byte	W06
	.byte		N06   , Cs1 
	.byte	W12
	.byte		N03   , En1 
	.byte	W06
	.byte		N05   , En2 
	.byte	W12
	.byte		        En1 
	.byte	W06
	.byte		N03   , Gn1 
	.byte	W06
	.byte		N05   , Gn2 
	.byte	W12
	.byte		        Gn1 
	.byte	W06
	.byte		        As1 
	.byte	W06
	.byte		        As2 
	.byte	W12
	.byte		N05
	.byte	W06
	.byte		VOICE , 101
	.byte		N32   , Cn2 , v080
	.byte	W36
	.byte		N54   , Fs1 
	.byte	W60
	.byte		VOL   , 105*seq_027_mvl/mxv
	.byte		N36   , Ds1 
	.byte	W12
	.byte		VOL   , 82*seq_027_mvl/mxv
	.byte	W12
	.byte		        66*seq_027_mvl/mxv
	.byte	W06
	.byte		        49*seq_027_mvl/mxv
	.byte	W06
	.byte		        105*seq_027_mvl/mxv
	.byte		N36   , Fs1 
	.byte	W12
	.byte		VOL   , 82*seq_027_mvl/mxv
	.byte	W12
	.byte		        66*seq_027_mvl/mxv
	.byte	W06
	.byte		        49*seq_027_mvl/mxv
	.byte	W06
	.byte		        105*seq_027_mvl/mxv
	.byte		N24   , An1 
	.byte	W12
	.byte		VOL   , 82*seq_027_mvl/mxv
	.byte	W12
	.byte		        105*seq_027_mvl/mxv
	.byte		N36   , Cn2 
	.byte	W12
	.byte		VOL   , 82*seq_027_mvl/mxv
	.byte	W12
	.byte		        66*seq_027_mvl/mxv
	.byte	W12
	.byte		        105*seq_027_mvl/mxv
	.byte		N36   , Ds2 
	.byte	W12
	.byte		VOL   , 82*seq_027_mvl/mxv
	.byte	W12
	.byte		        66*seq_027_mvl/mxv
	.byte	W12
	.byte		        105*seq_027_mvl/mxv
	.byte		N24   , Fs2 
	.byte	W12
	.byte		VOL   , 82*seq_027_mvl/mxv
	.byte	W12
	.byte		N32   , An2 
	.byte	W36
	.byte		N36   , Cn3 
	.byte	W18
	.byte		VOL   , 82*seq_027_mvl/mxv
	.byte		BEND  , c_v-4
	.byte	W06
	.byte		VOL   , 66*seq_027_mvl/mxv
	.byte		BEND  , c_v-7
	.byte	W06
	.byte		VOL   , 49*seq_027_mvl/mxv
	.byte		BEND  , c_v-10
	.byte	W30
	.byte	GOTO
	 .word	seq_027_1 + 0x2
	.byte	W96
	.byte	FINE

@*********************** Track 03 ***********************@

seq_027_2:
	.byte	KEYSH , seq_027_key+0
	.byte	W96
	.byte	W96
	.byte	W96
	.byte	W96
	.byte		VOICE , 121
	.byte		MOD   , 0
	.byte		VOL   , 62*seq_027_mvl/mxv
	.byte		PAN   , c_v+63
	.byte		BEND  , c_v+0
	.byte		N44   , Ds3 , v100
	.byte	W48
	.byte		        Gn3 , v112
	.byte	W48
	.byte		N32   , Fn3 
	.byte	W36
	.byte		N10   , Dn3 , v100
	.byte	W12
	.byte		N92
	.byte	W48
	.byte	W60
	.byte		VOICE , 54
	.byte		VOL   , 90*seq_027_mvl/mxv
	.byte		PAN   , c_v+0
	.byte		N08   , Dn3 , v112
	.byte	W12
	.byte		        Ds3 
	.byte	W12
	.byte		        En3 
	.byte	W12
	.byte		VOICE , 121
	.byte		VOL   , 62*seq_027_mvl/mxv
	.byte		PAN   , c_v+63
	.byte		N44   , Cs3 , v100
	.byte	W48
	.byte		        Fn3 , v112
	.byte	W48
	.byte		N32   , En3 
	.byte	W36
	.byte		N10   , Cn3 , v100
	.byte	W12
	.byte		VOL   , 62*seq_027_mvl/mxv
	.byte		TIE
	.byte	W48
	.byte		VOL   , 45*seq_027_mvl/mxv
	.byte	W24
	.byte		        33*seq_027_mvl/mxv
	.byte	W24
	.byte		        24*seq_027_mvl/mxv
	.byte	W24
	.byte		        16*seq_027_mvl/mxv
	.byte	W08
	.byte		EOT
	.byte	W16
	.byte		VOICE , 121
	.byte		MOD   , 0
	.byte		VOL   , 52*seq_027_mvl/mxv
	.byte		PAN   , c_v+63
	.byte		BEND  , c_v+0
	.byte		TIE   , Gn3 , v092
	.byte	W12
	.byte		VOL   , 61*seq_027_mvl/mxv
	.byte	W12
	.byte		        77*seq_027_mvl/mxv
	.byte	W12
	.byte		        94*seq_027_mvl/mxv
	.byte	W04
	.byte		MOD   , 0
	.byte	W02
	.byte		        0
	.byte	W01
	.byte		        0
	.byte	W01
	.byte		        0
	.byte	W01
	.byte		        0
	.byte	W01
	.byte		        1
	.byte	W01
	.byte		        1
	.byte	W01
	.byte		        1
	.byte		VOL   , 105*seq_027_mvl/mxv
	.byte	W01
	.byte		MOD   , 1
	.byte	W01
	.byte		        2
	.byte	W02
	.byte		        2
	.byte	W01
	.byte		        2
	.byte	W01
	.byte		        3
	.byte	W01
	.byte		        3
	.byte	W01
	.byte		        3
	.byte	W01
	.byte		        4
	.byte	W01
	.byte		        4
	.byte	W01
	.byte		        4
	.byte	W01
	.byte		        4
	.byte	W01
	.byte		        4
	.byte	W01
	.byte		        5
	.byte	W01
	.byte		        5
	.byte	W01
	.byte		        6
	.byte	W01
	.byte		        6
	.byte	W01
	.byte		        7
	.byte	W01
	.byte		        8
	.byte	W01
	.byte		        8
	.byte	W01
	.byte		        8
	.byte	W01
	.byte		        8
	.byte	W01
	.byte		        9
	.byte	W01
	.byte		        10
	.byte	W01
	.byte		        10
	.byte		VOL   , 90*seq_027_mvl/mxv
	.byte	W01
	.byte		MOD   , 10
	.byte		VOL   , 82*seq_027_mvl/mxv
	.byte	W01
	.byte		MOD   , 11
	.byte		VOL   , 74*seq_027_mvl/mxv
	.byte	W01
	.byte		MOD   , 11
	.byte	W01
	.byte		        11
	.byte	W01
	.byte		        12
	.byte		VOL   , 57*seq_027_mvl/mxv
	.byte	W06
	.byte		        41*seq_027_mvl/mxv
	.byte	W04
	.byte		BEND  , c_v-1
	.byte	W01
	.byte		        c_v-2
	.byte	W01
	.byte		        c_v-4
	.byte	W01
	.byte		        c_v-7
	.byte	W01
	.byte		        c_v-8
	.byte	W01
	.byte		        c_v-9
	.byte	W01
	.byte		        c_v-11
	.byte	W01
	.byte		        c_v-14
	.byte	W01
	.byte		VOL   , 33*seq_027_mvl/mxv
	.byte		BEND  , c_v-15
	.byte	W01
	.byte		        c_v-18
	.byte	W01
	.byte		        c_v-19
	.byte	W01
	.byte		        c_v-20
	.byte	W01
	.byte		        c_v-22
	.byte	W01
	.byte		        c_v-24
	.byte	W02
	.byte		        c_v-25
	.byte	W02
	.byte		        c_v-27
	.byte	W02
	.byte		        c_v-28
	.byte	W01
	.byte		VOL   , 24*seq_027_mvl/mxv
	.byte		BEND  , c_v-29
	.byte	W01
	.byte		        c_v-30
	.byte	W01
	.byte		        c_v-31
	.byte	W01
	.byte		        c_v-32
	.byte	W02
	.byte		        c_v-33
	.byte	W02
	.byte		        c_v-34
	.byte	W02
	.byte		        c_v-35
	.byte	W02
	.byte		        c_v-36
	.byte	W05
	.byte		        c_v-37
	.byte	W05
	.byte		        c_v-38
	.byte	W02
	.byte		        c_v-39
	.byte	W02
	.byte		        c_v-40
	.byte	W03
	.byte		        c_v-41
	.byte	W01
	.byte	PEND
	.byte		EOT   , Gn3 
	.byte	W01
	.byte		BEND  , c_v-42
	.byte	W02
	.byte		        c_v-43
	.byte	W02
	.byte		        c_v-44
	.byte	W07
	.byte		        c_v-45
	.byte	W05
	.byte		        c_v-46
	.byte	W06
	.byte		        c_v-47
	.byte	W18
	.byte		        c_v-46
	.byte	W07
	.byte		        c_v-45
	.byte	W07
	.byte		MOD   , 0
	.byte		VOL   , 52*seq_027_mvl/mxv
	.byte		BEND  , c_v+0
	.byte		TIE   , Cn4 , v084
	.byte	W12
	.byte		VOL   , 61*seq_027_mvl/mxv
	.byte	W12
	.byte		        77*seq_027_mvl/mxv
	.byte	W12
	.byte		        94*seq_027_mvl/mxv
	.byte	W04
	.byte		MOD   , 0
	.byte	W02
	.byte		        0
	.byte	W01
	.byte		        0
	.byte	W01
	.byte		        0
	.byte	W01
	.byte		        0
	.byte	W01
	.byte		        1
	.byte	W01
	.byte		        1
	.byte	W01
	.byte		        1
	.byte		VOL   , 105*seq_027_mvl/mxv
	.byte	W01
	.byte		MOD   , 1
	.byte	W01
	.byte		        2
	.byte	W02
	.byte		        2
	.byte	W01
	.byte		        2
	.byte	W01
	.byte		        3
	.byte	W01
	.byte		        3
	.byte	W01
	.byte		        3
	.byte	W01
	.byte		        4
	.byte	W01
	.byte		        4
	.byte	W01
	.byte		        4
	.byte	W01
	.byte		        4
	.byte	W01
	.byte		        4
	.byte	W01
	.byte		        5
	.byte	W01
	.byte		        5
	.byte	W01
	.byte		        6
	.byte	W01
	.byte		        6
	.byte	W01
	.byte		        7
	.byte	W01
	.byte		        8
	.byte	W01
	.byte		        8
	.byte	W01
	.byte		        8
	.byte	W01
	.byte		        8
	.byte	W01
	.byte		        9
	.byte	W01
	.byte		        10
	.byte	W01
	.byte		        10
	.byte		VOL   , 90*seq_027_mvl/mxv
	.byte	W01
	.byte		MOD   , 10
	.byte		VOL   , 82*seq_027_mvl/mxv
	.byte	W01
	.byte		MOD   , 11
	.byte		VOL   , 74*seq_027_mvl/mxv
	.byte	W01
	.byte		MOD   , 11
	.byte	W01
	.byte		        11
	.byte	W01
	.byte		        12
	.byte		VOL   , 57*seq_027_mvl/mxv
	.byte	W06
	.byte		        41*seq_027_mvl/mxv
	.byte	W04
	.byte		BEND  , c_v-1
	.byte	W01
	.byte		        c_v-2
	.byte	W01
	.byte		        c_v-4
	.byte	W01
	.byte		        c_v-7
	.byte	W01
	.byte		        c_v-8
	.byte	W01
	.byte		        c_v-9
	.byte	W01
	.byte		        c_v-11
	.byte	W01
	.byte		        c_v-14
	.byte	W01
	.byte	PATT
	 .word	seq_027_2 + 0xD3
	.byte		EOT   , Cn4 
	.byte	W01
	.byte		BEND  , c_v-42
	.byte	W02
	.byte		        c_v-43
	.byte	W02
	.byte		        c_v-44
	.byte	W07
	.byte		        c_v-45
	.byte	W05
	.byte		        c_v-46
	.byte	W06
	.byte		        c_v-47
	.byte	W18
	.byte		        c_v-46
	.byte	W07
	.byte		        c_v-45
	.byte	W07
	.byte		MOD   , 0
	.byte		VOL   , 52*seq_027_mvl/mxv
	.byte		BEND  , c_v+0
	.byte		TIE   , Gn3 , v092
	.byte	W12
	.byte		VOL   , 61*seq_027_mvl/mxv
	.byte	W12
	.byte		        77*seq_027_mvl/mxv
	.byte	W12
	.byte		        94*seq_027_mvl/mxv
	.byte	W04
	.byte		MOD   , 0
	.byte	W02
	.byte		        0
	.byte	W01
	.byte		        0
	.byte	W01
	.byte		        0
	.byte	W01
	.byte		        0
	.byte	W01
	.byte		        1
	.byte	W01
	.byte		        1
	.byte	W01
	.byte		        1
	.byte		VOL   , 105*seq_027_mvl/mxv
	.byte	W01
	.byte		MOD   , 1
	.byte	W01
	.byte		        2
	.byte	W02
	.byte		        2
	.byte	W01
	.byte		        2
	.byte	W01
	.byte		        3
	.byte	W01
	.byte		        3
	.byte	W01
	.byte		        3
	.byte	W01
	.byte		        4
	.byte	W01
	.byte		        4
	.byte	W01
	.byte		        4
	.byte	W01
	.byte		        4
	.byte	W01
	.byte		        4
	.byte	W01
	.byte		        5
	.byte	W01
	.byte		        5
	.byte	W01
	.byte		        6
	.byte	W01
	.byte		        6
	.byte	W01
	.byte		        7
	.byte	W01
	.byte		        8
	.byte	W01
	.byte		        8
	.byte	W01
	.byte		        8
	.byte	W01
	.byte		        8
	.byte	W01
	.byte		        9
	.byte	W01
	.byte		        10
	.byte	W01
	.byte		        10
	.byte		VOL   , 90*seq_027_mvl/mxv
	.byte	W01
	.byte		MOD   , 10
	.byte		VOL   , 82*seq_027_mvl/mxv
	.byte	W01
	.byte		MOD   , 11
	.byte		VOL   , 74*seq_027_mvl/mxv
	.byte	W01
	.byte		MOD   , 11
	.byte	W01
	.byte		        11
	.byte	W01
	.byte		        12
	.byte		VOL   , 57*seq_027_mvl/mxv
	.byte	W06
	.byte		        41*seq_027_mvl/mxv
	.byte	W04
	.byte		BEND  , c_v-1
	.byte	W01
	.byte		        c_v-2
	.byte	W01
	.byte		        c_v-4
	.byte	W01
	.byte		        c_v-7
	.byte	W01
	.byte		        c_v-8
	.byte	W01
	.byte		        c_v-9
	.byte	W01
	.byte		        c_v-11
	.byte	W01
	.byte		        c_v-14
	.byte	W01
	.byte	PATT
	 .word	seq_027_2 + 0xD3
	.byte		EOT   , Gn3 
	.byte	W01
	.byte		BEND  , c_v-42
	.byte	W02
	.byte		        c_v-43
	.byte	W02
	.byte		        c_v-44
	.byte	W07
	.byte		        c_v-45
	.byte	W05
	.byte		        c_v-46
	.byte	W06
	.byte		        c_v-47
	.byte	W18
	.byte		        c_v-46
	.byte	W07
	.byte		        c_v-45
	.byte	W07
	.byte		MOD   , 0
	.byte		VOL   , 52*seq_027_mvl/mxv
	.byte		BEND  , c_v+0
	.byte		TIE   , As3 , v112
	.byte	W12
	.byte		VOL   , 61*seq_027_mvl/mxv
	.byte	W11
	.byte		MOD   , 0
	.byte	W01
	.byte		        0
	.byte		VOL   , 77*seq_027_mvl/mxv
	.byte	W01
	.byte		MOD   , 0
	.byte	W01
	.byte		        0
	.byte	W01
	.byte		        1
	.byte	W01
	.byte		        1
	.byte	W01
	.byte		        2
	.byte	W01
	.byte		        3
	.byte	W01
	.byte		        4
	.byte	W01
	.byte		        4
	.byte	W01
	.byte		        4
	.byte	W01
	.byte		        5
	.byte	W01
	.byte		        5
	.byte	W01
	.byte		        6
	.byte		VOL   , 94*seq_027_mvl/mxv
	.byte	W01
	.byte		MOD   , 6
	.byte	W01
	.byte		        7
	.byte	W01
	.byte		        7
	.byte	W01
	.byte		        8
	.byte	W01
	.byte		        8
	.byte	W01
	.byte		        8
	.byte	W01
	.byte		        8
	.byte	W01
	.byte		        9
	.byte	W01
	.byte		        10
	.byte	W02
	.byte		        10
	.byte	W01
	.byte		        11
	.byte		VOL   , 105*seq_027_mvl/mxv
	.byte	W01
	.byte		MOD   , 11
	.byte	W01
	.byte		        11
	.byte	W01
	.byte		        12
	.byte	W01
	.byte		        12
	.byte	W01
	.byte		        12
	.byte	W03
	.byte		        12
	.byte	W04
	.byte		VOL   , 74*seq_027_mvl/mxv
	.byte	W12
	.byte		        66*seq_027_mvl/mxv
	.byte	W06
	.byte		BEND  , c_v-1
	.byte	W01
	.byte		        c_v-3
	.byte	W01
	.byte		        c_v-5
	.byte	W01
	.byte		        c_v-6
	.byte	W01
	.byte		        c_v-9
	.byte	W01
	.byte		        c_v-11
	.byte	W01
	.byte		VOL   , 57*seq_027_mvl/mxv
	.byte		BEND  , c_v-13
	.byte	W01
	.byte		        c_v-15
	.byte	W01
	.byte		        c_v-17
	.byte	W01
	.byte		        c_v-19
	.byte	W01
	.byte		        c_v-21
	.byte	W01
	.byte		        c_v-22
	.byte	W01
	.byte		        c_v-25
	.byte	W01
	.byte		        c_v-26
	.byte	W01
	.byte		        c_v-27
	.byte	W01
	.byte		        c_v-28
	.byte	W01
	.byte		        c_v-30
	.byte	W01
	.byte		        c_v-31
	.byte	W01
	.byte		        c_v-32
	.byte	W02
	.byte		        c_v-33
	.byte	W01
	.byte		        c_v-34
	.byte	W01
	.byte		        c_v-35
	.byte	W02
	.byte		        c_v-36
	.byte	W15
	.byte		        c_v-35
	.byte	W02
	.byte		        c_v-34
	.byte	W01
	.byte		EOT
	.byte	W24
	.byte		MOD   , 0
	.byte		VOL   , 105*seq_027_mvl/mxv
	.byte		BEND  , c_v+0
	.byte	W12
	.byte		N12
	.byte	W12
	.byte		        Bn3 
	.byte	W12
	.byte		        Cn4 
	.byte	W12
	.byte		VOICE , 116
	.byte		VOL   , 82*seq_027_mvl/mxv
	.byte		PAN   , c_v+0
	.byte		N05   , Cs4 , v044
	.byte	W06
	.byte		        Cs5 , v048
	.byte	W06
	.byte		        Gn4 
	.byte	W06
	.byte		        Gn5 , v052
	.byte	W06
	.byte		        Fs4 , v056
	.byte	W06
	.byte		        Fs5 , v060
	.byte	W06
	.byte		        Cs4 , v064
	.byte	W06
	.byte		        Cs5 , v068
	.byte	W06
	.byte		        Gn4 , v072
	.byte	W06
	.byte		        Gn5 
	.byte	W06
	.byte		        Fs4 , v076
	.byte	W06
	.byte		        Fs5 , v084
	.byte	W06
	.byte		        Cs4 
	.byte	W06
	.byte		        Cs5 , v088
	.byte	W06
	.byte		        Gn4 , v092
	.byte	W06
	.byte		        Gn5 , v096
	.byte	W06
	.byte		N05   , Fs4 , v104
	.byte	W06
	.byte		        Fs5 , v096
	.byte	W06
	.byte		        Cs4 , v092
	.byte	W06
	.byte		        Cs5 , v088
	.byte	W06
	.byte		        Gn4 , v080
	.byte	W06
	.byte		        Gn5 , v076
	.byte	W06
	.byte		        Fs4 , v068
	.byte	W06
	.byte		        Fs5 , v064
	.byte	W06
	.byte		        Cs4 , v060
	.byte	W06
	.byte		        Cs5 , v056
	.byte	W06
	.byte		        Gn4 
	.byte	W06
	.byte		        Gn5 , v052
	.byte	W06
	.byte		        Fs4 
	.byte	W06
	.byte		        Fs5 , v048
	.byte	W06
	.byte		        Cs4 
	.byte	W06
	.byte		        Cs5 
	.byte	W06
	.byte	PEND
	.byte		        Cs4 , v044
	.byte	W06
	.byte		        Cs5 , v048
	.byte	W06
	.byte		        Gn4 , v052
	.byte	W06
	.byte		        Gn5 , v056
	.byte	W06
	.byte		        Fs4 , v064
	.byte	W06
	.byte		        Fs5 , v068
	.byte	W06
	.byte		        Cs4 , v072
	.byte	W06
	.byte		        Cs5 , v080
	.byte	W06
	.byte		        Gn4 , v084
	.byte	W06
	.byte		        Gn5 , v088
	.byte	W06
	.byte		        Fs4 , v096
	.byte	W06
	.byte		        Fs5 , v100
	.byte	W06
	.byte		        Cs4 , v108
	.byte	W06
	.byte		        Cs5 , v112
	.byte	W06
	.byte		        Gn4 , v120
	.byte	W06
	.byte		        Gn5 , v124
	.byte	W06
	.byte		        Fs4 , v072
	.byte	W06
	.byte		        Fs5 
	.byte	W06
	.byte		        Cn5 
	.byte	W06
	.byte		        Cn6 
	.byte	W06
	.byte		        Bn4 
	.byte	W06
	.byte		        Bn5 
	.byte	W06
	.byte		        Fs4 
	.byte	W06
	.byte		        Fs5 
	.byte	W06
	.byte		        Cn5 
	.byte	W06
	.byte		        Cn6 
	.byte	W06
	.byte		        Bn4 
	.byte	W06
	.byte		        Bn5 
	.byte	W06
	.byte		        Fs4 , v068
	.byte	W06
	.byte		        Fs5 
	.byte	W06
	.byte		        Cn5 
	.byte	W06
	.byte		        Cn6 
	.byte	W06
	.byte		N05   , Cs4 , v044
	.byte	W06
	.byte		        Cs5 , v048
	.byte	W06
	.byte		        Gn4 
	.byte	W06
	.byte		        Gn5 , v052
	.byte	W06
	.byte		        Fs4 , v056
	.byte	W06
	.byte		        Fs5 , v060
	.byte	W06
	.byte		        Cs4 , v064
	.byte	W06
	.byte		        Cs5 , v068
	.byte	W06
	.byte		        Gn4 , v072
	.byte	W06
	.byte		        Gn5 
	.byte	W06
	.byte		        Fs4 , v076
	.byte	W06
	.byte		        Fs5 , v084
	.byte	W06
	.byte		        Cs4 
	.byte	W06
	.byte		        Cs5 , v088
	.byte	W06
	.byte		        Gn4 , v092
	.byte	W06
	.byte		        Gn5 , v096
	.byte	W06
	.byte	PEND
	.byte	PATT
	 .word	seq_027_2 + 0x319
	.byte	PATT
	 .word	seq_027_2 + 0x399
	.byte		N05   , Fs4 , v104
	.byte	W06
	.byte		        Fs5 , v096
	.byte	W06
	.byte		        Cs4 , v092
	.byte	W06
	.byte		        Cs5 , v088
	.byte	W06
	.byte		        Gn4 , v080
	.byte	W06
	.byte		        Gn5 , v076
	.byte	W06
	.byte		        Fs4 , v072
	.byte	W06
	.byte		        Fs5 , v068
	.byte	W06
	.byte		        Cs4 , v064
	.byte	W06
	.byte		        Cs5 , v060
	.byte	W06
	.byte		        Gn4 
	.byte	W06
	.byte		        Gn5 
	.byte	W06
	.byte		        Fs4 
	.byte	W06
	.byte		        Fs5 , v056
	.byte	W06
	.byte		        Cs4 
	.byte	W06
	.byte		        Cs5 
	.byte	W06
	.byte	GOTO
	 .word	seq_027_2 + 0x2
	.byte	W96
	.byte	FINE

@*********************** Track 04 ***********************@

seq_027_3:
	.byte	KEYSH , seq_027_key+0
	.byte	W96
	.byte	W96
	.byte	W96
	.byte	W96
	.byte		VOICE , 122
	.byte		MOD   , 0
	.byte		VOL   , 62*seq_027_mvl/mxv
	.byte		PAN   , c_v-64
	.byte		BEND  , c_v+0
	.byte		N44   , Cn3 , v072
	.byte	W48
	.byte		        Ds3 
	.byte	W48
	.byte		N32   , Dn3 
	.byte	W36
	.byte		N10   , Bn2 
	.byte	W12
	.byte		N92
	.byte	W48
	.byte	W96
	.byte		N44   , As2 
	.byte	W48
	.byte		        Cs3 
	.byte	W48
	.byte		N32   , Cn3 
	.byte	W36
	.byte		N10   , An2 
	.byte	W12
	.byte		VOL   , 62*seq_027_mvl/mxv
	.byte		TIE
	.byte	W48
	.byte		VOL   , 45*seq_027_mvl/mxv
	.byte	W24
	.byte		        33*seq_027_mvl/mxv
	.byte	W24
	.byte		        24*seq_027_mvl/mxv
	.byte	W24
	.byte		        16*seq_027_mvl/mxv
	.byte	W08
	.byte		EOT
	.byte	W16
	.byte	W96
	.byte	W96
	.byte	W96
	.byte	W96
	.byte	W96
	.byte	W06
	.byte		VOICE , 126
	.byte		VOL   , 70*seq_027_mvl/mxv
	.byte		PAN   , c_v+63
	.byte		N06   , Ds3 
	.byte	W06
	.byte		        Fs3 
	.byte	W06
	.byte		        An3 
	.byte	W06
	.byte		        Cn4 
	.byte	W06
	.byte		        Ds4 
	.byte	W06
	.byte		        Fs4 
	.byte	W06
	.byte		        An4 
	.byte	W06
	.byte		        Cn5 
	.byte	W06
	.byte		        An4 
	.byte	W06
	.byte		        Fs4 
	.byte	W06
	.byte		        Ds4 
	.byte	W06
	.byte		        Cn4 
	.byte	W06
	.byte		        An3 
	.byte	W06
	.byte		        Fs3 
	.byte	W06
	.byte		        Ds3 
	.byte	W06
	.byte	W96
	.byte		PAN   , c_v-64
	.byte		BEND  , c_v+0
	.byte		N03   , An4 
	.byte	W06
	.byte		N03
	.byte	W12
	.byte		N03
	.byte	W06
	.byte		N03
	.byte	W12
	.byte		BEND  , c_v-8
	.byte		N03
	.byte	W06
	.byte		BEND  , c_v-16
	.byte		N03
	.byte	W12
	.byte		BEND  , c_v-24
	.byte		N03
	.byte	W06
	.byte		BEND  , c_v-47
	.byte		N03
	.byte	W18
	.byte		BEND  , c_v+0
	.byte	W18
	.byte		VOICE , 121
	.byte		MOD   , 0
	.byte		VOL   , 52*seq_027_mvl/mxv
	.byte		PAN   , c_v+0
	.byte		BEND  , c_v+0
	.byte		TIE   , Cs4 , v064
	.byte	W12
	.byte		VOL   , 61*seq_027_mvl/mxv
	.byte	W12
	.byte		        77*seq_027_mvl/mxv
	.byte	W12
	.byte		        94*seq_027_mvl/mxv
	.byte	W04
	.byte		MOD   , 0
	.byte	W02
	.byte		        0
	.byte	W01
	.byte		        0
	.byte	W01
	.byte		        0
	.byte	W01
	.byte		        0
	.byte	W01
	.byte		        1
	.byte	W01
	.byte		        1
	.byte	W01
	.byte		        1
	.byte		VOL   , 105*seq_027_mvl/mxv
	.byte	W01
	.byte		MOD   , 1
	.byte	W01
	.byte		        2
	.byte	W02
	.byte		        2
	.byte	W01
	.byte		        2
	.byte	W01
	.byte		        3
	.byte	W01
	.byte		        3
	.byte	W01
	.byte		        3
	.byte	W01
	.byte		        4
	.byte	W01
	.byte		        4
	.byte	W01
	.byte		        4
	.byte	W01
	.byte		        4
	.byte	W01
	.byte		        4
	.byte	W01
	.byte		        5
	.byte	W01
	.byte		        5
	.byte	W01
	.byte		        6
	.byte	W01
	.byte		        6
	.byte	W01
	.byte		        7
	.byte	W01
	.byte		        8
	.byte	W01
	.byte		        8
	.byte	W01
	.byte		        8
	.byte	W01
	.byte		        8
	.byte	W01
	.byte		        9
	.byte	W01
	.byte		        10
	.byte	W01
	.byte		        10
	.byte		VOL   , 90*seq_027_mvl/mxv
	.byte	W01
	.byte		MOD   , 10
	.byte		VOL   , 82*seq_027_mvl/mxv
	.byte	W01
	.byte		MOD   , 11
	.byte		VOL   , 74*seq_027_mvl/mxv
	.byte	W01
	.byte		MOD   , 11
	.byte		BEND  , c_v-1
	.byte	W01
	.byte		MOD   , 11
	.byte		BEND  , c_v-2
	.byte	W01
	.byte		MOD   , 12
	.byte		VOL   , 57*seq_027_mvl/mxv
	.byte		BEND  , c_v-4
	.byte	W01
	.byte		        c_v-5
	.byte	W01
	.byte		        c_v-8
	.byte	W01
	.byte		        c_v-9
	.byte	W01
	.byte		        c_v-11
	.byte	W01
	.byte		        c_v-14
	.byte	W01
	.byte		VOL   , 41*seq_027_mvl/mxv
	.byte		BEND  , c_v-15
	.byte	W01
	.byte		        c_v-18
	.byte	W01
	.byte		        c_v-19
	.byte	W01
	.byte		        c_v-20
	.byte	W01
	.byte		        c_v-22
	.byte	W01
	.byte		        c_v-24
	.byte	W02
	.byte		        c_v-25
	.byte	W01
	.byte		        c_v-26
	.byte	W01
	.byte		        c_v-27
	.byte	W02
	.byte		        c_v-28
	.byte	W01
	.byte		VOL   , 33*seq_027_mvl/mxv
	.byte		BEND  , c_v-29
	.byte	W01
	.byte		        c_v-30
	.byte	W01
	.byte		        c_v-31
	.byte	W01
	.byte		        c_v-32
	.byte	W02
	.byte		        c_v-33
	.byte	W02
	.byte		        c_v-34
	.byte	W02
	.byte		        c_v-35
	.byte	W02
	.byte		        c_v-36
	.byte	W01
	.byte		VOL   , 24*seq_027_mvl/mxv
	.byte	W04
	.byte		BEND  , c_v-37
	.byte	W05
	.byte		        c_v-38
	.byte	W20
	.byte		EOT
	.byte	W54
	.byte	W01
	.byte		MOD   , 0
	.byte		VOL   , 52*seq_027_mvl/mxv
	.byte		BEND  , c_v+0
	.byte		TIE   , Ds4 , v072
	.byte	W12
	.byte		VOL   , 61*seq_027_mvl/mxv
	.byte	W12
	.byte		        77*seq_027_mvl/mxv
	.byte	W12
	.byte		        94*seq_027_mvl/mxv
	.byte	W04
	.byte		MOD   , 0
	.byte	W02
	.byte		        0
	.byte	W01
	.byte		        0
	.byte	W01
	.byte		        0
	.byte	W01
	.byte		        0
	.byte	W01
	.byte		        1
	.byte	W01
	.byte		        1
	.byte	W01
	.byte		        1
	.byte		VOL   , 105*seq_027_mvl/mxv
	.byte	W01
	.byte		MOD   , 1
	.byte	W01
	.byte		        2
	.byte	W02
	.byte		        2
	.byte	W01
	.byte		        2
	.byte	W01
	.byte		        3
	.byte	W01
	.byte		        3
	.byte	W01
	.byte		        3
	.byte	W01
	.byte		        4
	.byte	W01
	.byte		        4
	.byte	W01
	.byte		        4
	.byte	W01
	.byte		        4
	.byte	W01
	.byte		        4
	.byte	W01
	.byte		        5
	.byte	W01
	.byte		        5
	.byte	W01
	.byte		        6
	.byte	W01
	.byte		        6
	.byte	W01
	.byte		        7
	.byte	W01
	.byte		        8
	.byte	W01
	.byte		        8
	.byte	W01
	.byte		        8
	.byte	W01
	.byte		        8
	.byte	W01
	.byte		        9
	.byte	W01
	.byte		        10
	.byte	W01
	.byte		        10
	.byte		VOL   , 90*seq_027_mvl/mxv
	.byte	W01
	.byte		MOD   , 10
	.byte		VOL   , 82*seq_027_mvl/mxv
	.byte	W01
	.byte		MOD   , 11
	.byte		VOL   , 74*seq_027_mvl/mxv
	.byte	W01
	.byte		MOD   , 11
	.byte		BEND  , c_v-1
	.byte	W01
	.byte		MOD   , 11
	.byte		BEND  , c_v-2
	.byte	W01
	.byte		MOD   , 12
	.byte		VOL   , 57*seq_027_mvl/mxv
	.byte		BEND  , c_v-4
	.byte	W01
	.byte		        c_v-5
	.byte	W01
	.byte		        c_v-8
	.byte	W01
	.byte		        c_v-9
	.byte	W01
	.byte		        c_v-11
	.byte	W01
	.byte		        c_v-14
	.byte	W01
	.byte		VOL   , 41*seq_027_mvl/mxv
	.byte		BEND  , c_v-15
	.byte	W01
	.byte		        c_v-18
	.byte	W01
	.byte		        c_v-19
	.byte	W01
	.byte		        c_v-20
	.byte	W01
	.byte		        c_v-22
	.byte	W01
	.byte		        c_v-24
	.byte	W02
	.byte		        c_v-25
	.byte	W01
	.byte		        c_v-26
	.byte	W01
	.byte		        c_v-27
	.byte	W02
	.byte		        c_v-28
	.byte	W01
	.byte		VOL   , 33*seq_027_mvl/mxv
	.byte		BEND  , c_v-29
	.byte	W01
	.byte		        c_v-30
	.byte	W01
	.byte		        c_v-31
	.byte	W01
	.byte		        c_v-32
	.byte	W01
	.byte		        c_v-33
	.byte	W01
	.byte		EOT
	.byte	W90
	.byte	W01
	.byte		VOICE , 54
	.byte		MOD   , 0
	.byte		VOL   , 82*seq_027_mvl/mxv
	.byte		PAN   , c_v+0
	.byte		BEND  , c_v+0
	.byte		TIE   , As3 , v100
	.byte	W12
	.byte		VOL   , 61*seq_027_mvl/mxv
	.byte	W12
	.byte		        77*seq_027_mvl/mxv
	.byte	W12
	.byte		        94*seq_027_mvl/mxv
	.byte	W04
	.byte		MOD   , 0
	.byte	W02
	.byte		        0
	.byte	W01
	.byte		        0
	.byte	W01
	.byte		        0
	.byte	W01
	.byte		        0
	.byte	W01
	.byte		        1
	.byte	W01
	.byte		        1
	.byte	W01
	.byte		        1
	.byte		VOL   , 105*seq_027_mvl/mxv
	.byte	W01
	.byte		MOD   , 1
	.byte	W01
	.byte		        2
	.byte	W02
	.byte		        2
	.byte	W01
	.byte		        2
	.byte	W01
	.byte		        3
	.byte	W01
	.byte		        3
	.byte	W01
	.byte		        3
	.byte	W01
	.byte		        4
	.byte	W01
	.byte		        4
	.byte	W01
	.byte		        4
	.byte	W01
	.byte		        4
	.byte		VOL   , 74*seq_027_mvl/mxv
	.byte	W01
	.byte		MOD   , 4
	.byte	W01
	.byte		        5
	.byte	W01
	.byte		        5
	.byte	W01
	.byte		        6
	.byte	W01
	.byte		        6
	.byte	W01
	.byte		        7
	.byte	W01
	.byte		        8
	.byte	W01
	.byte		        8
	.byte	W01
	.byte		        8
	.byte	W01
	.byte		        8
	.byte	W01
	.byte		        9
	.byte	W01
	.byte		        10
	.byte		VOL   , 66*seq_027_mvl/mxv
	.byte	W01
	.byte		MOD   , 10
	.byte	W01
	.byte		        10
	.byte	W01
	.byte		        11
	.byte	W01
	.byte		        11
	.byte		BEND  , c_v-1
	.byte	W01
	.byte		MOD   , 11
	.byte		BEND  , c_v-2
	.byte	W01
	.byte		MOD   , 12
	.byte		BEND  , c_v-4
	.byte	W01
	.byte		        c_v-5
	.byte	W01
	.byte		        c_v-8
	.byte	W01
	.byte		        c_v-9
	.byte	W01
	.byte		        c_v-11
	.byte	W01
	.byte		        c_v-14
	.byte	W01
	.byte		VOL   , 57*seq_027_mvl/mxv
	.byte		BEND  , c_v-15
	.byte	W01
	.byte		        c_v-18
	.byte	W01
	.byte		        c_v-19
	.byte	W01
	.byte		        c_v-20
	.byte	W01
	.byte		        c_v-22
	.byte	W01
	.byte		        c_v-24
	.byte	W02
	.byte		        c_v-25
	.byte	W01
	.byte		        c_v-26
	.byte	W01
	.byte		        c_v-27
	.byte	W02
	.byte		        c_v-28
	.byte	W01
	.byte		        c_v-29
	.byte	W01
	.byte		        c_v-30
	.byte	W01
	.byte		        c_v-31
	.byte	W01
	.byte		        c_v-32
	.byte	W02
	.byte		        c_v-33
	.byte	W02
	.byte		        c_v-34
	.byte	W02
	.byte		        c_v-35
	.byte	W02
	.byte		        c_v-36
	.byte	W05
	.byte		        c_v-37
	.byte	W05
	.byte		        c_v-38
	.byte	W20
	.byte		EOT
	.byte	W54
	.byte	W01
	.byte		MOD   , 0
	.byte		VOL   , 44*seq_027_mvl/mxv
	.byte		BEND  , c_v+0
	.byte		N92   , Cn4 , v076
	.byte	W24
	.byte		VOL   , 52*seq_027_mvl/mxv
	.byte	W12
	.byte		        69*seq_027_mvl/mxv
	.byte	W04
	.byte		MOD   , 0
	.byte	W02
	.byte		        0
	.byte	W01
	.byte		        0
	.byte	W01
	.byte		        0
	.byte	W01
	.byte		        0
	.byte	W01
	.byte		        1
	.byte	W01
	.byte		        1
	.byte	W01
	.byte		        1
	.byte		VOL   , 85*seq_027_mvl/mxv
	.byte	W01
	.byte		MOD   , 1
	.byte	W02
	.byte		        2
	.byte	W01
	.byte		        2
	.byte	W01
	.byte		        2
	.byte	W01
	.byte		        3
	.byte	W01
	.byte		        3
	.byte	W01
	.byte		        3
	.byte	W01
	.byte		        4
	.byte	W01
	.byte		        4
	.byte	W01
	.byte		        4
	.byte	W01
	.byte		        4
	.byte	W01
	.byte		        4
	.byte	W01
	.byte		        5
	.byte	W01
	.byte		        5
	.byte	W01
	.byte		        6
	.byte	W01
	.byte		        6
	.byte	W01
	.byte		        7
	.byte	W01
	.byte		        8
	.byte	W01
	.byte		        8
	.byte	W01
	.byte		        8
	.byte	W01
	.byte		        8
	.byte	W01
	.byte		        9
	.byte	W01
	.byte		        9
	.byte		VOL   , 105*seq_027_mvl/mxv
	.byte	W01
	.byte		MOD   , 10
	.byte	W01
	.byte		        11
	.byte	W01
	.byte		        11
	.byte	W01
	.byte		        11
	.byte		BEND  , c_v-1
	.byte	W01
	.byte		MOD   , 11
	.byte		BEND  , c_v-2
	.byte	W01
	.byte		MOD   , 12
	.byte		BEND  , c_v-4
	.byte	W01
	.byte		        c_v-5
	.byte	W01
	.byte		        c_v-8
	.byte	W01
	.byte		        c_v-9
	.byte	W01
	.byte		        c_v-11
	.byte	W01
	.byte		        c_v-14
	.byte	W01
	.byte		        c_v-15
	.byte	W01
	.byte		        c_v-18
	.byte	W01
	.byte		        c_v-19
	.byte	W01
	.byte		        c_v-20
	.byte	W01
	.byte		        c_v-22
	.byte	W01
	.byte		        c_v-24
	.byte	W02
	.byte		        c_v-25
	.byte	W01
	.byte		        c_v-26
	.byte	W01
	.byte		        c_v-27
	.byte	W03
	.byte		MOD   , 0
	.byte		VOL   , 44*seq_027_mvl/mxv
	.byte		BEND  , c_v+0
	.byte		N32   , Ds4 , v072
	.byte	W06
	.byte		VOL   , 52*seq_027_mvl/mxv
	.byte	W06
	.byte		        69*seq_027_mvl/mxv
	.byte	W06
	.byte		        85*seq_027_mvl/mxv
	.byte	W06
	.byte		        105*seq_027_mvl/mxv
	.byte	W12
	.byte		N56   , Fs4 
	.byte	W18
	.byte		BEND  , c_v-4
	.byte	W06
	.byte		VOL   , 66*seq_027_mvl/mxv
	.byte		BEND  , c_v-7
	.byte	W06
	.byte		        c_v-10
	.byte	W06
	.byte		VOL   , 49*seq_027_mvl/mxv
	.byte		BEND  , c_v-13
	.byte	W06
	.byte		        c_v-16
	.byte	W06
	.byte		VOL   , 33*seq_027_mvl/mxv
	.byte	W12
	.byte	GOTO
	 .word	seq_027_3 + 0x2
	.byte	W96
	.byte	FINE

@*********************** Track 05 ***********************@

seq_027_4:
	.byte	KEYSH , seq_027_key+0
	.byte	W96
	.byte	W96
	.byte	W96
	.byte	W96
	.byte	W96
	.byte	W96
	.byte	W96
	.byte	W96
	.byte	W96
	.byte	W96
	.byte	W96
	.byte	W96
	.byte	W96
	.byte	W96
	.byte	W96
	.byte	W96
	.byte	W96
	.byte	W96
	.byte	W96
	.byte		VOICE , 123
	.byte		VOL   , 105*seq_027_mvl/mxv
	.byte		PAN   , c_v-64
	.byte		BEND  , c_v+0
	.byte	W06
	.byte		N06   , Ds3 , v092
	.byte	W06
	.byte		        Fs3 
	.byte	W06
	.byte		        An3 
	.byte	W06
	.byte		        Cn4 
	.byte	W06
	.byte		        Ds4 
	.byte	W06
	.byte		        Fs4 
	.byte	W06
	.byte		        An4 
	.byte	W06
	.byte		        Cn5 
	.byte	W06
	.byte		        An4 
	.byte	W06
	.byte		        Fs4 
	.byte	W06
	.byte		        Ds4 
	.byte	W06
	.byte		        Cn4 
	.byte	W06
	.byte		        An3 
	.byte	W06
	.byte		        Fs3 
	.byte	W06
	.byte		        Ds3 
	.byte	W06
	.byte	W96
	.byte	W96
	.byte	W96
	.byte		PAN   , c_v+63
	.byte		BEND  , c_v+0
	.byte		N03   , An4 , v127
	.byte	W06
	.byte		N03
	.byte	W12
	.byte		N03
	.byte	W06
	.byte		N03
	.byte	W12
	.byte		BEND  , c_v-8
	.byte		N03
	.byte	W06
	.byte		BEND  , c_v-16
	.byte		N03
	.byte	W12
	.byte		BEND  , c_v-24
	.byte		N03   , An4 , v112
	.byte	W06
	.byte		BEND  , c_v-47
	.byte		N03   , An4 , v100
	.byte	W18
	.byte		BEND  , c_v+0
	.byte	W18
	.byte	W96
	.byte	W96
	.byte	GOTO
	 .word	seq_027_4 + 0x2
	.byte	W96
	.byte	FINE

@*********************** Track 06 ***********************@

seq_027_5:
	.byte	KEYSH , seq_027_key+0
	.byte	W96
	.byte	W96
	.byte	W96
	.byte	W96
	.byte	W96
	.byte	W96
	.byte	W96
	.byte	W96
	.byte	W96
	.byte		VOICE , 127
	.byte		VOL   , 105*seq_027_mvl/mxv
	.byte		PAN   , c_v+0
	.byte		N06   , Cn1 , v100
	.byte	W24
	.byte		        En1 , v080
	.byte		N12   , As1 , v092
	.byte		N01   , Cn6 , v080
	.byte	W12
	.byte		N06   , En1 , v076
	.byte	W06
	.byte		        En1 , v088
	.byte	W06
	.byte		        En1 , v096
	.byte	W06
	.byte		        En1 , v088
	.byte	W06
	.byte		        An1 , v096
	.byte	W06
	.byte		        An1 , v076
	.byte	W06
	.byte		        Gn1 , v096
	.byte	W06
	.byte		N06
	.byte	W06
	.byte		N24   , Cs2 
	.byte	W12
	.byte		VOICE , 127
	.byte		VOL   , 105*seq_027_mvl/mxv
	.byte		PAN   , c_v+0
	.byte		N06   , Cn1 , v100
	.byte	W12
	.byte		N01   , Cn6 , v052
	.byte	W12
	.byte		N06   , En1 , v088
	.byte	W12
	.byte		N01   , An3 , v056
	.byte	W12
	.byte		        Cn6 , v052
	.byte	W12
	.byte		N12   , As1 , v092
	.byte	W12
	.byte		N06   , En1 , v080
	.byte	W06
	.byte		        Cn1 , v072
	.byte	W06
	.byte		N01   , Cn6 , v092
	.byte	W06
	.byte		N06   , En1 , v076
	.byte	W06
	.byte		N01   , Cn6 , v100
	.byte	W12
	.byte		N12   , As1 , v080
	.byte	W12
	.byte		N06   , En1 , v088
	.byte	W12
	.byte		N01   , Cn6 , v092
	.byte	W12
	.byte		N12   , As1 , v100
	.byte	W12
	.byte		N06   , Cn1 , v060
	.byte		N01   , Cn6 , v056
	.byte	W12
	.byte		N06   , An1 , v112
	.byte	W06
	.byte		        An1 , v104
	.byte	W06
	.byte		N24   , Cs2 , v096
	.byte	W06
	.byte		N06   , Fn1 , v084
	.byte	W06
	.byte		        Cn1 , v100
	.byte	W12
	.byte		N01   , Cn6 , v052
	.byte	W12
	.byte		N06   , En1 , v088
	.byte	W12
	.byte		N01   , An3 , v056
	.byte	W12
	.byte		        Cn6 , v052
	.byte	W12
	.byte		N12   , As1 , v092
	.byte	W12
	.byte		N06   , En1 , v080
	.byte	W06
	.byte		        Cn1 , v072
	.byte	W06
	.byte		N01   , Cn6 , v092
	.byte	W06
	.byte		N06   , En1 , v076
	.byte	W06
	.byte		N01   , Cn6 , v100
	.byte	W12
	.byte		N12   , As1 , v080
	.byte	W12
	.byte		N06   , En1 , v108
	.byte		N01   , Cn6 , v060
	.byte	W12
	.byte		N06   , An1 , v096
	.byte	W12
	.byte		N12   , As1 , v100
	.byte	W06
	.byte		N06   , Cn1 , v120
	.byte	W06
	.byte		N01   , Cn6 , v056
	.byte	W06
	.byte		N06   , En1 , v108
	.byte	W06
	.byte		N01   , Cn6 , v096
	.byte	W06
	.byte		N06   , An1 , v080
	.byte	W06
	.byte		N24   , Cs2 , v100
	.byte	W12
	.byte		N01   , Cn6 , v108
	.byte	W12
	.byte		        Cn6 , v052
	.byte	W12
	.byte		N06   , En1 , v088
	.byte		N12   , As1 , v092
	.byte	W12
	.byte		N01   , An3 , v056
	.byte	W12
	.byte		        Cn6 , v052
	.byte	W12
	.byte		N06   , Cn1 , v072
	.byte		N12   , As1 , v092
	.byte	W12
	.byte		N06   , En1 , v080
	.byte	W06
	.byte		        Cn1 , v072
	.byte	W06
	.byte		N01   , Cn6 , v092
	.byte	W06
	.byte		N06   , En1 , v076
	.byte	W06
	.byte		N01   , Cn6 , v100
	.byte	W12
	.byte		N12   , As1 , v080
	.byte	W12
	.byte		N06   , En1 , v088
	.byte	W12
	.byte		N01   , Cn6 , v092
	.byte	W12
	.byte		N12   , As1 , v100
	.byte	W12
	.byte		N06   , Cn1 , v060
	.byte	W12
	.byte		        Gn1 , v112
	.byte	W06
	.byte		        An1 , v104
	.byte	W06
	.byte		        Gn1 , v092
	.byte	W06
	.byte		        Fn1 , v084
	.byte	W06
	.byte		        Cn1 , v100
	.byte	W12
	.byte		        An1 , v088
	.byte	W12
	.byte		N12   , As1 , v092
	.byte	W12
	.byte		N24   , Cs2 , v100
	.byte	W12
	.byte		N01   , Cn6 , v052
	.byte	W12
	.byte		N12   , As1 , v092
	.byte	W12
	.byte		N06   , En1 , v080
	.byte	W06
	.byte		        Cn1 , v072
	.byte	W06
	.byte		N01   , Cn6 , v092
	.byte	W06
	.byte		N06   , En1 , v076
	.byte	W06
	.byte		N01   , Cn6 , v100
	.byte	W12
	.byte		N12   , As1 , v080
	.byte	W12
	.byte		N06   , En1 , v088
	.byte	W12
	.byte		        Cn1 , v100
	.byte	W12
	.byte		N12   , As1 
	.byte	W12
	.byte		N01   , Cn6 , v056
	.byte	W06
	.byte		N06   , En1 , v080
	.byte	W06
	.byte		N03   , En1 , v056
	.byte	W03
	.byte		        En1 , v060
	.byte	W03
	.byte		        En1 , v064
	.byte	W03
	.byte		        En1 , v072
	.byte	W03
	.byte		        En1 , v076
	.byte	W03
	.byte		        En1 , v084
	.byte	W03
	.byte		        En1 , v092
	.byte	W03
	.byte		        En1 , v096
	.byte	W03
	.byte		N24   , Cs2 , v100
	.byte	W12
	.byte		N01   , Cn6 , v112
	.byte	W12
	.byte		N06   , En1 
	.byte	W12
	.byte		        En1 , v080
	.byte	W06
	.byte		N06
	.byte	W06
	.byte		N06
	.byte		N12   , As1 , v100
	.byte	W06
	.byte		N06   , Cn1 , v127
	.byte	W06
	.byte		        En1 , v080
	.byte	W12
	.byte		N01   , Cn6 , v096
	.byte	W12
	.byte		N06   , En1 , v080
	.byte	W12
	.byte		N01   , Cn6 , v100
	.byte	W12
	.byte		N06   , Cn1 , v127
	.byte		N12   , As1 , v080
	.byte	W12
	.byte		N06   , En1 , v112
	.byte	W12
	.byte		N01   , Cn6 , v092
	.byte	W06
	.byte		N06   , En1 , v080
	.byte	W06
	.byte		N12   , As1 , v100
	.byte	W12
	.byte		N06   , Cn1 , v127
	.byte		N01   , Cn6 , v056
	.byte	W12
	.byte		        Cn6 , v096
	.byte	W12
	.byte		N06   , Cn1 , v127
	.byte		N24   , Cs2 , v096
	.byte	W06
	.byte		N06   , En1 , v080
	.byte	W06
	.byte		        Cn1 , v127
	.byte	W12
	.byte		N01   , Cn6 , v112
	.byte	W12
	.byte		N06   , En1 
	.byte		N12   , As1 , v092
	.byte	W12
	.byte		N06   , En1 , v080
	.byte		N01   , An3 , v056
	.byte	W06
	.byte		N06   , En1 , v080
	.byte	W06
	.byte		N06
	.byte	W12
	.byte		N06
	.byte		N12   , As1 , v092
	.byte	W12
	.byte		N01   , Cn6 , v080
	.byte	W12
	.byte		N06   , En1 
	.byte	W12
	.byte		N24   , Cs2 , v088
	.byte	W12
	.byte		N06   , Cn1 , v127
	.byte	W12
	.byte		        En1 , v112
	.byte	W12
	.byte		N01   , Cn6 , v092
	.byte	W06
	.byte		N06   , En1 , v080
	.byte	W06
	.byte		        En1 , v096
	.byte	W06
	.byte		        En1 , v088
	.byte	W06
	.byte		        An1 , v096
	.byte	W06
	.byte		        An1 , v076
	.byte	W06
	.byte		        Gn1 , v096
	.byte	W06
	.byte		        An1 
	.byte	W06
	.byte		        Gn1 
	.byte	W06
	.byte		        Fn1 
	.byte	W06
	.byte		        Cn1 , v100
	.byte	W12
	.byte		N01   , Cn6 , v052
	.byte	W12
	.byte		N06   , En1 , v088
	.byte		N12   , As1 , v092
	.byte	W12
	.byte		N01   , An3 , v056
	.byte	W12
	.byte		        Cn6 , v052
	.byte	W12
	.byte		N06   , Cn1 , v072
	.byte		N12   , As1 , v092
	.byte	W12
	.byte		N06   , En1 , v080
	.byte		N01   , Cn6 
	.byte	W06
	.byte		N06   , Cn1 , v072
	.byte	W06
	.byte		N24   , Cs2 , v092
	.byte	W12
	.byte		N01   , Cn6 , v100
	.byte	W12
	.byte		N06   , Cn1 
	.byte		N12   , As1 , v080
	.byte	W12
	.byte		N06   , En1 , v088
	.byte		N01   , Cn6 , v060
	.byte	W12
	.byte		        Cn6 , v092
	.byte	W12
	.byte		N12   , As1 , v100
	.byte	W12
	.byte		N06   , Cn1 , v072
	.byte		N01   , Cn6 , v056
	.byte	W12
	.byte		N06   , En1 , v080
	.byte		N01   , Cn6 , v096
	.byte	W06
	.byte		N06   , Cn1 , v072
	.byte	W06
	.byte		N24   , Cs2 , v096
	.byte		N01   , An3 , v020
	.byte	W06
	.byte		N06   , En1 , v076
	.byte	W06
	.byte	W12
	.byte		        Cn1 , v127
	.byte	W12
	.byte		        En1 , v112
	.byte		N12   , As1 , v072
	.byte	W12
	.byte		N01   , An3 , v056
	.byte	W06
	.byte		N06   , En1 , v080
	.byte	W06
	.byte		N12   , As1 , v076
	.byte	W12
	.byte		N06   , Cn1 , v127
	.byte	W12
	.byte		        En1 , v080
	.byte		N12   , As1 
	.byte	W12
	.byte		N06   , Cn1 , v127
	.byte	W06
	.byte		        En1 , v080
	.byte	W06
	.byte		N12   , As1 , v100
	.byte	W12
	.byte		N06   , Cn1 , v096
	.byte	W12
	.byte		        En1 , v108
	.byte		N12   , As1 
	.byte	W12
	.byte		N06   , An1 , v096
	.byte	W12
	.byte		N12   , As1 , v112
	.byte	W06
	.byte		N06   , Gn1 , v088
	.byte	W06
	.byte		        Cn1 , v080
	.byte	W06
	.byte		        An1 , v076
	.byte	W06
	.byte		        An1 , v096
	.byte		N12   , As1 , v120
	.byte	W06
	.byte		N06   , An1 , v096
	.byte	W06
	.byte		N24   , Cs2 , v100
	.byte	W12
	.byte	GOTO
	 .word	seq_027_5 + 0x2
	.byte	W96
	.byte	FINE

@******************************************************@

	.align	2

seq_027:
	.byte	6	@ NumTrks
	.byte	0	@ NumBlks
	.byte	seq_027_pri	@ Priority
	.byte	seq_027_rev	@ Reverb

	.word	seq_027_grp

	.word	seq_027_0
	.word	seq_027_1
	.word	seq_027_2
	.word	seq_027_3
	.word	seq_027_4
	.word	seq_027_5

	.end
