@ File generated by m4a2s Song-Module
	.include "MPlayDef.s"

	.equ	seq_025_grp, bank_020
	.equ	seq_025_pri, 0
	.equ	seq_025_rev, 148
	.equ	seq_025_mvl, 127
	.equ	seq_025_key, 0

	.section .rodata
	.global	seq_025
	.align	2

@*********************** Track 01 ***********************@

seq_025_0:
	.byte	KEYSH , seq_025_key+0
	.byte	TEMPO , 132/2
	.byte		VOICE , 61
	.byte		MOD   , 0
	.byte		VOL   , 100*seq_025_mvl/mxv
	.byte		PAN   , c_v+20
	.byte		LFOS  , 22
	.byte		LFODL , 10
	.byte		N06   , Gn3 , v100
	.byte	W06
	.byte		N05   , An3 
	.byte	W06
	.byte		        Bn3 
	.byte	W06
	.byte		        Dn4 
	.byte	W18
	.byte		N06   , Fn3 
	.byte	W06
	.byte		N05   , Gn3 
	.byte	W06
	.byte		        An3 
	.byte	W06
	.byte		        Cn4 
	.byte	W18
	.byte		N05
	.byte	W06
	.byte		N06
	.byte	W12
	.byte		N36   , Dn4 
	.byte	W06
	.byte	W60
	.byte		VOICE , 66
	.byte		VOL   , 78*seq_025_mvl/mxv
	.byte		PAN   , c_v+0
	.byte		N06   , An3 , v092
	.byte	W18
	.byte		        Gs3 
	.byte	W18
	.byte	PEND
	.byte		PAN   , c_v+20
	.byte	W30
	.byte		VOICE , 56
	.byte		N05   , Fn4 , v100
	.byte	W06
	.byte		        En4 
	.byte	W06
	.byte		        Cn4 
	.byte	W06
	.byte		        An3 
	.byte	W06
	.byte		        Gn3 
	.byte	W06
	.byte		        En3 
	.byte	W06
	.byte		        Cn3 
	.byte	W06
	.byte		        As2 
	.byte	W06
	.byte		        Cn3 
	.byte	W06
	.byte		        Dn3 
	.byte	W06
	.byte		        Fn3 
	.byte	W06
	.byte	W12
	.byte		VOL   , 100*seq_025_mvl/mxv
	.byte		N06   , En3 
	.byte	W18
	.byte		VOICE , 61
	.byte		N06   , En4 , v092
	.byte	W06
	.byte		        Fn4 
	.byte	W06
	.byte		        Fs4 
	.byte	W06
	.byte		        Gn4 
	.byte	W06
	.byte		        En4 
	.byte	W06
	.byte		        Cn4 
	.byte	W06
	.byte		        As3 
	.byte	W06
	.byte		N12   , Gn3 
	.byte	W12
	.byte		N06   , En4 
	.byte	W06
	.byte		        Cn4 
	.byte	W06
	.byte	W12
	.byte		N05   , Cn3 
	.byte	W12
	.byte		N06   , As2 
	.byte	W06
	.byte		N04   , Dn3 , v100
	.byte	W12
	.byte		N06   , En3 , v092
	.byte	W14
	.byte		N24   , Cn3 
	.byte	W13
	.byte		VOL   , 96*seq_025_mvl/mxv
	.byte	W03
	.byte		        84*seq_025_mvl/mxv
	.byte	W04
	.byte		        66*seq_025_mvl/mxv
	.byte	W03
	.byte		        40*seq_025_mvl/mxv
	.byte	W03
	.byte		        15*seq_025_mvl/mxv
	.byte	W02
	.byte		VOICE , 56
	.byte		VOL   , 78*seq_025_mvl/mxv
	.byte		N05   , Cn4 , v100
	.byte	W06
	.byte		        En4 
	.byte	W06
	.byte		        Gn4 
	.byte	W06
	.byte		        Cn4 
	.byte	W06
	.byte		        En4 
	.byte	W06
	.byte		        An4 
	.byte	W12
	.byte		        Fn4 
	.byte	W06
	.byte		        Fs4 
	.byte	W06
	.byte		        Gn4 
	.byte	W18
	.byte		VOICE , 66
	.byte		VOL   , 78*seq_025_mvl/mxv
	.byte		PAN   , c_v+0
	.byte		N06   , An3 , v092
	.byte	W18
	.byte		        Gs3 
	.byte	W18
	.byte		PAN   , c_v+20
	.byte	W24
	.byte		VOICE , 56
	.byte	W06
	.byte		N05   , En4 , v100
	.byte	W06
	.byte		        Fn4 
	.byte	W06
	.byte		        Gn4 
	.byte	W06
	.byte		N06   , Cn5 
	.byte	W12
	.byte		        Bn4 
	.byte	W12
	.byte		        Cn5 
	.byte	W06
	.byte		        Dn5 
	.byte	W12
	.byte		N12   , En5 
	.byte	W06
	.byte	W18
	.byte		N04
	.byte	W12
	.byte		N04
	.byte	W06
	.byte		N54
	.byte	W48
	.byte	W03
	.byte		VOL   , 73*seq_025_mvl/mxv
	.byte	W03
	.byte		        58*seq_025_mvl/mxv
	.byte	W04
	.byte		        33*seq_025_mvl/mxv
	.byte	W02
	.byte		        15*seq_025_mvl/mxv
	.byte	W06
	.byte		        78*seq_025_mvl/mxv
	.byte		N05   , En4 
	.byte	W06
	.byte		        Fn3 
	.byte	W06
	.byte		        An3 
	.byte	W06
	.byte		N06   , En4 
	.byte	W12
	.byte		N06
	.byte	W06
	.byte		        Dn4 
	.byte	W18
	.byte		        Gn4 , v120
	.byte	W12
	.byte		VOL   , 78*seq_025_mvl/mxv
	.byte		N04   , Cn4 , v092
	.byte	W06
	.byte		N06
	.byte	W12
	.byte		N48   , Dn4 
	.byte	W06
	.byte	W30
	.byte		VOL   , 62*seq_025_mvl/mxv
	.byte	W06
	.byte		        55*seq_025_mvl/mxv
	.byte	W24
	.byte		VOICE , 66
	.byte		VOL   , 78*seq_025_mvl/mxv
	.byte		PAN   , c_v+0
	.byte		N06   , An3 
	.byte	W18
	.byte		        Gs3 
	.byte	W18
	.byte		PAN   , c_v+20
	.byte	W24
	.byte		VOICE , 56
	.byte	W06
	.byte		N05   , Fn4 
	.byte	W06
	.byte		        En4 
	.byte	W06
	.byte		        Cn4 
	.byte	W06
	.byte		        An3 
	.byte	W06
	.byte		        Gn3 
	.byte	W06
	.byte		        En3 
	.byte	W06
	.byte		        Cn3 
	.byte	W06
	.byte		        As2 
	.byte	W06
	.byte		        Cn3 
	.byte	W06
	.byte		        Dn3 
	.byte	W06
	.byte		        Fn3 
	.byte	W06
	.byte	W12
	.byte		N06   , En3 
	.byte	W18
	.byte		VOICE , 61
	.byte		VOL   , 100*seq_025_mvl/mxv
	.byte		N06   , En4 , v080
	.byte	W06
	.byte		        Fn4 
	.byte	W06
	.byte		        Fs4 
	.byte	W06
	.byte		        Gn4 
	.byte	W06
	.byte		        En4 
	.byte	W06
	.byte		        Cn4 
	.byte	W06
	.byte		        As3 
	.byte	W06
	.byte		N12   , Gn3 
	.byte	W12
	.byte		N06   , En4 
	.byte	W06
	.byte		        Cn4 
	.byte	W06
	.byte	W12
	.byte		N05   , Cn3 , v100
	.byte	W12
	.byte		N06   , As2 
	.byte	W06
	.byte		N05   , Dn3 , v112
	.byte	W12
	.byte		N06   , En3 , v100
	.byte	W14
	.byte		N24   , Cn3 
	.byte	W16
	.byte		VOL   , 100*seq_025_mvl/mxv
	.byte	W01
	.byte		        92*seq_025_mvl/mxv
	.byte	W02
	.byte		        73*seq_025_mvl/mxv
	.byte	W02
	.byte		        40*seq_025_mvl/mxv
	.byte	W01
	.byte		        78*seq_025_mvl/mxv
	.byte	W06
	.byte		VOICE , 56
	.byte		N05   , Cn4 
	.byte	W06
	.byte		        En4 
	.byte	W06
	.byte		        Gn4 
	.byte	W06
	.byte		        Cn4 
	.byte	W06
	.byte		        En4 
	.byte	W06
	.byte		        An4 
	.byte	W12
	.byte		        Fn4 
	.byte	W06
	.byte		        Fs4 
	.byte	W06
	.byte		        Gn4 
	.byte	W18
	.byte		N06   , En5 , v092
	.byte	W18
	.byte		        Dn5 
	.byte	W18
	.byte		N12   , Cn5 
	.byte	W12
	.byte		N06   , Dn5 
	.byte	W06
	.byte		        Cn5 
	.byte	W12
	.byte		        As4 
	.byte	W12
	.byte		N30   , Cn5 
	.byte	W24
	.byte		VOL   , 78*seq_025_mvl/mxv
	.byte	W01
	.byte		        73*seq_025_mvl/mxv
	.byte	W02
	.byte		        58*seq_025_mvl/mxv
	.byte	W02
	.byte		        33*seq_025_mvl/mxv
	.byte	W01
	.byte		        78*seq_025_mvl/mxv
	.byte	W06
	.byte		N05   , Gn3 
	.byte	W06
	.byte		        Cn4 
	.byte	W06
	.byte		        Fn4 
	.byte	W06
	.byte		N12   , En4 
	.byte	W12
	.byte		N05   , Gn4 , v112
	.byte	W24
	.byte		N06   , Gn3 , v100
	.byte	W06
	.byte		        An3 
	.byte	W06
	.byte		N05   , As3 , v112
	.byte	W06
	.byte		        An3 , v072
	.byte	W06
	.byte		        As3 
	.byte	W06
	.byte		        An3 
	.byte	W06
	.byte		        As3 
	.byte	W06
	.byte		        An3 , v080
	.byte	W06
	.byte		        As3 , v100
	.byte	W05
	.byte		N54   , Cn4 
	.byte	W07
	.byte	W32
	.byte	W01
	.byte		VOL   , 76*seq_025_mvl/mxv
	.byte	W03
	.byte		        69*seq_025_mvl/mxv
	.byte	W04
	.byte		        59*seq_025_mvl/mxv
	.byte	W03
	.byte		        44*seq_025_mvl/mxv
	.byte	W03
	.byte		        24*seq_025_mvl/mxv
	.byte	W02
	.byte		VOICE , 66
	.byte		VOL   , 78*seq_025_mvl/mxv
	.byte		N16   , As3 , v088
	.byte	W18
	.byte		        Bn3 , v104
	.byte	W18
	.byte		N06   , Cn4 , v120
	.byte	W12
	.byte		VOICE , 61
	.byte		VOL   , 100*seq_025_mvl/mxv
	.byte		N09   , Fn4 , v127
	.byte	W24
	.byte		N18   , Ds4 
	.byte	W18
	.byte		N05   , Fn4 
	.byte	W36
	.byte		VOICE , 56
	.byte		VOL   , 78*seq_025_mvl/mxv
	.byte		N06   , Cn4 , v092
	.byte	W06
	.byte		        Fn4 
	.byte	W06
	.byte		        As4 
	.byte	W06
	.byte		        An4 
	.byte	W06
	.byte		        Gn4 
	.byte	W06
	.byte		        Fn4 , v096
	.byte	W06
	.byte		        En4 , v100
	.byte	W06
	.byte		N12   , Ds4 , v116
	.byte	W12
	.byte		N06   , En4 
	.byte	W06
	.byte		        Fn4 
	.byte	W14
	.byte		N24   , Cn4 , v112
	.byte	W40
	.byte	W12
	.byte		N05   , Cn4 , v092
	.byte	W12
	.byte		N06
	.byte	W06
	.byte		        Gn3 
	.byte	W06
	.byte		        An3 
	.byte	W06
	.byte		N12   , As3 
	.byte	W12
	.byte		N06   , Bn3 
	.byte	W06
	.byte		        Cn4 
	.byte	W06
	.byte		        Fn4 
	.byte	W06
	.byte		        En4 
	.byte	W06
	.byte		        Dn4 
	.byte	W06
	.byte		N04   , Cn4 
	.byte	W12
	.byte		VOICE , 66
	.byte		N24   , As2 , v120
	.byte	W24
	.byte		N18   , Bn2 
	.byte	W18
	.byte		N06   , Cn3 
	.byte	W18
	.byte		N24   , Gn2 
	.byte	W36
	.byte	W12
	.byte		VOICE , 61
	.byte		VOL   , 100*seq_025_mvl/mxv
	.byte		N06   , Fn4 , v127
	.byte	W12
	.byte		N12   , Ds4 
	.byte	W12
	.byte		N06   , En4 
	.byte	W06
	.byte		        Fn4 
	.byte	W36
	.byte		VOICE , 56
	.byte		VOL   , 78*seq_025_mvl/mxv
	.byte		N06   , Cn4 , v092
	.byte	W06
	.byte		        Fn4 
	.byte	W06
	.byte		        As4 
	.byte	W06
	.byte		        Bn4 
	.byte	W06
	.byte		        Cn5 
	.byte	W06
	.byte		        Fn5 
	.byte	W06
	.byte		        Ds5 
	.byte	W06
	.byte		        Dn5 
	.byte	W06
	.byte		        Cn5 
	.byte	W06
	.byte		        An4 
	.byte	W06
	.byte		N05   , Fn4 
	.byte	W06
	.byte		VOICE , 61
	.byte		VOL   , 100*seq_025_mvl/mxv
	.byte		N12   , As4 , v127
	.byte	W12
	.byte		N06   , Bn4 
	.byte	W06
	.byte		N04   , Cn5 
	.byte	W18
	.byte		N10   , Fn4 , v108
	.byte	W11
	.byte		VOICE , 56
	.byte		VOL   , 78*seq_025_mvl/mxv
	.byte		BEND  , c_v+0
	.byte		N09   , Cs5 , v100
	.byte	W01
	.byte	W02
	.byte		BEND  , c_v+31
	.byte	W09
	.byte		        c_v+0
	.byte		N09
	.byte	W03
	.byte		BEND  , c_v+31
	.byte	W09
	.byte		        c_v+0
	.byte		N06   , Bn4 , v092
	.byte	W07
	.byte		        An4 
	.byte	W06
	.byte		        Gn4 
	.byte	W18
	.byte		        Bn4 
	.byte	W12
	.byte		        Dn4 
	.byte	W06
	.byte		        Fs4 
	.byte	W06
	.byte		        Gn4 
	.byte	W12
	.byte		N05   , Gn3 
	.byte	W06
	.byte	W06
	.byte		N06   , Gn4 , v112
	.byte	W06
	.byte		        Fs4 
	.byte	W12
	.byte		        Fn4 
	.byte	W12
	.byte		        En4 
	.byte	W06
	.byte		N08   , Dn4 
	.byte	W36
	.byte		N06   , As4 
	.byte	W12
	.byte		N78   , Cn5 
	.byte	W06
	.byte	W48
	.byte	W03
	.byte		VOL   , 77*seq_025_mvl/mxv
	.byte	W03
	.byte		        74*seq_025_mvl/mxv
	.byte	W04
	.byte		        67*seq_025_mvl/mxv
	.byte	W03
	.byte		        59*seq_025_mvl/mxv
	.byte	W03
	.byte		        49*seq_025_mvl/mxv
	.byte	W04
	.byte		        37*seq_025_mvl/mxv
	.byte	W10
	.byte		VOICE , 61
	.byte		VOL   , 100*seq_025_mvl/mxv
	.byte		N06   , Ds3 , v092
	.byte	W12
	.byte		N72   , Dn3 
	.byte	W06
	.byte	W48
	.byte	W03
	.byte		VOL   , 97*seq_025_mvl/mxv
	.byte	W03
	.byte		        92*seq_025_mvl/mxv
	.byte	W04
	.byte		        84*seq_025_mvl/mxv
	.byte	W03
	.byte		        73*seq_025_mvl/mxv
	.byte	W03
	.byte		        58*seq_025_mvl/mxv
	.byte	W04
	.byte		        40*seq_025_mvl/mxv
	.byte	W28
	.byte		        100*seq_025_mvl/mxv
	.byte	W96
	.byte		VOICE , 61
	.byte		MOD   , 0
	.byte		VOL   , 100*seq_025_mvl/mxv
	.byte		PAN   , c_v+20
	.byte		LFOS  , 22
	.byte		LFODL , 10
	.byte		N06   , Gn3 , v100
	.byte	W06
	.byte		N05   , An3 
	.byte	W06
	.byte		        Bn3 
	.byte	W06
	.byte		        Dn4 
	.byte	W18
	.byte		N06   , Fn3 
	.byte	W06
	.byte		N05   , Gn3 
	.byte	W06
	.byte		        An3 
	.byte	W06
	.byte		        Cn4 
	.byte	W18
	.byte		N05
	.byte	W06
	.byte		N06
	.byte	W12
	.byte		N36   , Dn4 
	.byte	W06
	.byte	PATT
	 .word	seq_025_0 + 0x2C
	.byte	GOTO
	 .word	seq_025_0 + 0x3A
	.byte	FINE

@*********************** Track 02 ***********************@

seq_025_1:
	.byte	KEYSH , seq_025_key+0
	.byte	W72
	.byte		VOICE , 61
	.byte		VOL   , 78*seq_025_mvl/mxv
	.byte		PAN   , c_v+0
	.byte		BEND  , c_v+0
	.byte		N04   , Fn3 , v100
	.byte	W06
	.byte		N06
	.byte	W18
	.byte		VOICE , 36
	.byte		VOL   , 100*seq_025_mvl/mxv
	.byte		PAN   , c_v+0
	.byte		N04   , Cn2 , v120
	.byte	W06
	.byte		N12   , Cn1 , v127
	.byte	W18
	.byte		N18   , En1 
	.byte	W24
	.byte		N15   , Fn1 
	.byte	W18
	.byte		N04
	.byte	W06
	.byte		N12   , Gn1 
	.byte	W12
	.byte		N02   , As1 , v112
	.byte	W06
	.byte		N05   , Cn2 , v120
	.byte	W06
	.byte	PEND
	.byte	W06
	.byte		N12   , Cn1 , v127
	.byte	W12
	.byte		N02   , Cn2 
	.byte	W06
	.byte		N06   , En1 
	.byte	W06
	.byte		N04   , En2 
	.byte	W12
	.byte		N05   , En1 , v120
	.byte	W06
	.byte		N15   , As1 , v127
	.byte	W18
	.byte		N06   , Gn1 
	.byte	W12
	.byte		N06
	.byte	W06
	.byte		        As1 
	.byte	W06
	.byte		N04   , Cn2 , v120
	.byte	W06
	.byte	W06
	.byte		N12   , Cn1 , v127
	.byte	W18
	.byte		N18   , En1 
	.byte	W18
	.byte		N02   , En2 
	.byte	W06
	.byte		N15   , Fn1 
	.byte	W18
	.byte		N04
	.byte	W06
	.byte		N12   , Gn1 
	.byte	W12
	.byte		N02   , As1 , v112
	.byte	W06
	.byte		N05   , Cn2 , v120
	.byte	W06
	.byte		N05   , Ds2 , v112
	.byte	W06
	.byte		        En2 
	.byte	W06
	.byte		        Cn2 , v120
	.byte	W06
	.byte		        Gn1 
	.byte	W06
	.byte		        En1 , v112
	.byte	W06
	.byte		        Cn1 
	.byte	W06
	.byte		N02   , Cn2 , v120
	.byte	W06
	.byte		N05   , Cn1 
	.byte	W06
	.byte		N06   , As0 , v127
	.byte	W06
	.byte		N04
	.byte	W12
	.byte		N05   , As0 , v120
	.byte	W12
	.byte		N04   , As0 , v127
	.byte	W12
	.byte		N08   , Cn1 , v120
	.byte	W06
	.byte	PEND
	.byte	W06
	.byte		N12   , Cn1 , v127
	.byte	W18
	.byte		N18   , En1 
	.byte	W24
	.byte		N15   , Fn1 
	.byte	W18
	.byte		N04
	.byte	W06
	.byte		N08   , Gn1 
	.byte	W09
	.byte		BEND  , c_v+0
	.byte	W03
	.byte		N02   , As1 , v112
	.byte	W06
	.byte		N05   , Cn2 , v120
	.byte	W06
	.byte	W06
	.byte		N12   , Cn2 , v127
	.byte	W12
	.byte		N02   , Gn1 
	.byte	W06
	.byte		N12   , Cn1 
	.byte	W18
	.byte		N04   , Dn1 
	.byte	W12
	.byte		N06
	.byte	W06
	.byte		        Fn1 
	.byte	W06
	.byte		N04   , An1 , v120
	.byte	W06
	.byte		N03   , Dn1 , v127
	.byte	W12
	.byte		N12
	.byte	W12
	.byte		        Gn1 
	.byte	W18
	.byte		N04
	.byte	W18
	.byte		N10
	.byte	W12
	.byte		N06
	.byte	W06
	.byte		N04
	.byte	W24
	.byte		N06
	.byte	W06
	.byte		N02   , Dn2 , v112
	.byte	W06
	.byte		N05   , Gn1 , v120
	.byte	W06
	.byte	W06
	.byte		N12   , Gn2 , v127
	.byte	W12
	.byte		N02   , Gn1 
	.byte	W06
	.byte		N04   , Dn2 
	.byte	W12
	.byte		N12   , Gn1 
	.byte	W12
	.byte		N15   , As1 
	.byte	W18
	.byte		N06   , Gn1 
	.byte	W12
	.byte		N06
	.byte	W06
	.byte		        As1 
	.byte	W06
	.byte		        Cn2 , v120
	.byte	W06
	.byte		N12   , Cn1 , v127
	.byte	W24
	.byte		N18   , En1 
	.byte	W24
	.byte		N15   , Fn1 
	.byte	W18
	.byte		N04
	.byte	W06
	.byte		N08   , Gn1 
	.byte	W12
	.byte		N02   , As1 , v112
	.byte	W06
	.byte		N05   , Cn2 , v120
	.byte	W06
	.byte		N12   , Cn1 , v127
	.byte	W18
	.byte		N02   , Cn2 
	.byte	W06
	.byte		N06   , En1 
	.byte	W06
	.byte		N04   , En2 
	.byte	W12
	.byte		N05   , En1 , v120
	.byte	W06
	.byte		N15   , As1 , v127
	.byte	W18
	.byte		N06   , Gn1 
	.byte	W12
	.byte		N06
	.byte	W06
	.byte		        As1 
	.byte	W06
	.byte		N04   , Cn2 , v120
	.byte	W06
	.byte	W06
	.byte		N12   , Cn1 , v127
	.byte	W18
	.byte		N18   , En1 
	.byte	W18
	.byte		N02   , En2 
	.byte	W06
	.byte		N15   , Fn1 
	.byte	W18
	.byte		N04
	.byte	W06
	.byte		N08   , Gn1 
	.byte	W12
	.byte		N02   , As1 , v112
	.byte	W06
	.byte		N05   , Cn2 , v120
	.byte	W06
	.byte	PEND
	.byte	PATT
	 .word	seq_025_1 + 0x6F
	.byte	W06
	.byte		N12   , Cn1 , v127
	.byte	W18
	.byte		N18   , En1 
	.byte	W24
	.byte		N15   , Fn1 
	.byte	W18
	.byte		N04
	.byte	W06
	.byte		N08   , Gn1 
	.byte	W12
	.byte		N02   , As1 , v112
	.byte	W06
	.byte		N05   , Cn2 , v120
	.byte	W06
	.byte	W06
	.byte		N12   , Gn2 , v127
	.byte	W12
	.byte		N02   , Gn1 
	.byte	W12
	.byte		N03   , Cn2 
	.byte	W06
	.byte		N12   , Gn0 
	.byte	W12
	.byte		N15   , As1 
	.byte	W18
	.byte		N06   , Gn1 
	.byte	W12
	.byte		N06
	.byte	W06
	.byte		        As1 
	.byte	W06
	.byte		N04   , Cn2 , v120
	.byte	W06
	.byte	PATT
	 .word	seq_025_1 + 0x136
	.byte		N05   , Gn2 , v112
	.byte	W06
	.byte		        Gn1 
	.byte	W06
	.byte		        Fn2 , v120
	.byte	W06
	.byte		        Fn1 
	.byte	W06
	.byte		        En2 , v112
	.byte	W06
	.byte		        Cn2 
	.byte	W06
	.byte		        Gn1 , v120
	.byte	W06
	.byte		N06   , Cn1 
	.byte	W06
	.byte		N04   , As0 , v127
	.byte	W06
	.byte		N04
	.byte	W12
	.byte		N05   , As0 , v120
	.byte	W12
	.byte		N04   , As0 , v127
	.byte	W06
	.byte		N08   , Cn1 , v120
	.byte	W12
	.byte		N18   , Fn1 , v127
	.byte	W24
	.byte		N15   , Ds1 
	.byte	W18
	.byte		N04   , Fn1 
	.byte	W12
	.byte		N12   , Bn2 , v112
	.byte	W06
	.byte		BEND  , c_v+31
	.byte	W06
	.byte		        c_v+0
	.byte		N04   , Cn2 , v120
	.byte	W06
	.byte		N05   , Ds1 , v112
	.byte	W06
	.byte		N05
	.byte	W12
	.byte		N10   , Fn1 , v120
	.byte	W06
	.byte	W06
	.byte		N05   , Fn1 , v112
	.byte	W06
	.byte		        Fn2 , v120
	.byte	W06
	.byte		        Fn1 
	.byte	W06
	.byte		N08   , Ds1 , v127
	.byte	W12
	.byte		N02   , En1 , v112
	.byte	W06
	.byte		N04   , Fn1 
	.byte	W14
	.byte		N12
	.byte	W16
	.byte		N05   , Bn1 
	.byte	W06
	.byte		        Cn2 , v120
	.byte	W06
	.byte		N06   , Fn1 
	.byte	W06
	.byte		        Fn0 
	.byte	W06
	.byte	W06
	.byte		N10   , Cn1 , v112
	.byte	W12
	.byte		N04   , Cn2 
	.byte	W06
	.byte		N05   , Gn1 , v120
	.byte	W06
	.byte		        En1 , v112
	.byte	W06
	.byte		        Cn1 
	.byte	W06
	.byte		N08   , En1 , v127
	.byte	W12
	.byte		N02   , En2 , v112
	.byte	W06
	.byte		N05   , En1 , v120
	.byte	W06
	.byte		        Gn1 , v112
	.byte	W06
	.byte		        Gn2 
	.byte	W06
	.byte		N06   , As0 , v120
	.byte	W06
	.byte		        As1 
	.byte	W06
	.byte		        Gn1 
	.byte	W06
	.byte		N18   , As0 , v127
	.byte	W24
	.byte		N15   , Bn0 
	.byte	W18
	.byte		N04   , Cn1 
	.byte	W18
	.byte		N12
	.byte	W12
	.byte		N05   , Gn1 , v100
	.byte	W06
	.byte		        As1 , v112
	.byte	W06
	.byte		        Cn2 
	.byte	W06
	.byte		        Cn1 , v120
	.byte	W06
	.byte		N06   , Fn1 , v127
	.byte	W12
	.byte		N06
	.byte	W12
	.byte		N12   , Ds1 
	.byte	W12
	.byte		N06   , En1 
	.byte	W06
	.byte		N04   , Fn1 
	.byte	W12
	.byte		N12   , Bn2 , v112
	.byte	W06
	.byte		BEND  , c_v+31
	.byte	W06
	.byte		        c_v+0
	.byte		N04   , Cn2 , v120
	.byte	W06
	.byte		N05   , Ds1 , v112
	.byte	W06
	.byte		N05
	.byte	W12
	.byte		N10   , Fn1 , v120
	.byte	W06
	.byte	W06
	.byte		N12   , Fn1 , v127
	.byte	W12
	.byte		N02   , Fn2 
	.byte	W06
	.byte		N06   , An1 
	.byte	W06
	.byte		N04   , An2 
	.byte	W12
	.byte		N05   , An1 , v120
	.byte	W06
	.byte		N12   , Ds1 , v112
	.byte	W12
	.byte		N06   , En1 , v120
	.byte	W06
	.byte		N10   , Fn1 
	.byte	W12
	.byte		N05   , Fn1 , v112
	.byte	W06
	.byte		        Fn2 , v120
	.byte	W06
	.byte		N06   , Fn1 
	.byte	W06
	.byte		N18   , Gn1 , v127
	.byte	W96
	.byte	W06
	.byte		VOICE , 61
	.byte		PAN   , c_v+0
	.byte		N06   , Dn4 , v112
	.byte	W06
	.byte		        Cs4 
	.byte	W12
	.byte		        Cn4 
	.byte	W12
	.byte		        Bn3 
	.byte	W06
	.byte		N05   , An3 
	.byte	W06
	.byte		VOICE , 36
	.byte		PAN   , c_v+0
	.byte		N05   , Gn2 , v080
	.byte	W06
	.byte		N06   , Gn3 , v088
	.byte	W06
	.byte		        Fs2 , v096
	.byte	W06
	.byte		        Fn2 , v100
	.byte	W06
	.byte		        Ds2 , v112
	.byte	W06
	.byte		        En2 , v120
	.byte	W06
	.byte		        Cn2 , v127
	.byte	W06
	.byte		        As1 
	.byte	W06
	.byte		N04   , Cn2 , v120
	.byte	W06
	.byte		N12   , Cn1 , v127
	.byte	W18
	.byte		N18   , En1 
	.byte	W24
	.byte		N15   , Fn1 
	.byte	W18
	.byte		N04
	.byte	W06
	.byte		N08   , Gn1 
	.byte	W12
	.byte		N02   , As1 , v112
	.byte	W06
	.byte		N05   , Cn2 , v120
	.byte	W06
	.byte	W06
	.byte		N12   , Cn1 , v112
	.byte	W18
	.byte		N14   , En1 , v127
	.byte	W18
	.byte		N01   , En2 
	.byte	W06
	.byte		N08   , Fn2 
	.byte	W12
	.byte		N02   , Fn1 , v120
	.byte	W06
	.byte		N06   , Fn2 , v127
	.byte	W06
	.byte		N01   , Ds2 
	.byte	W06
	.byte		N05   , En2 , v120
	.byte	W06
	.byte		N06   , As1 , v112
	.byte	W06
	.byte		N05   , Cn2 , v120
	.byte	W06
	.byte	W06
	.byte		N12   , Cn2 , v112
	.byte	W18
	.byte		N14   , En1 , v127
	.byte	W18
	.byte		N04   , En2 , v100
	.byte	W06
	.byte		N08   , Fn1 , v127
	.byte	W12
	.byte		N02   , Cn1 , v120
	.byte	W06
	.byte		N06   , Fn1 , v127
	.byte	W06
	.byte		N01   , As1 
	.byte	W01
	.byte		N05   , Fn1 
	.byte	W05
	.byte		        Gn1 , v120
	.byte	W06
	.byte		N01   , As1 , v112
	.byte	W06
	.byte		N05   , Cn2 , v120
	.byte	W06
	.byte		        Gn2 
	.byte	W06
	.byte		N06   , Gn3 , v104
	.byte	W06
	.byte		        Fs2 , v127
	.byte	W06
	.byte		        Fn2 
	.byte	W06
	.byte		        Ds2 
	.byte	W06
	.byte		        En2 
	.byte	W06
	.byte		        Cn2 
	.byte	W06
	.byte		        As1 
	.byte	W06
	.byte		N04   , Gn1 
	.byte	W06
	.byte		N08   , Gn1 , v120
	.byte	W12
	.byte		N06   , Gn1 , v127
	.byte	W12
	.byte		N08   , Gn1 , v120
	.byte	W12
	.byte		N06   , Gn1 , v127
	.byte	W06
	.byte	PATT
	 .word	seq_025_1 + 0x11
	.byte	GOTO
	 .word	seq_025_1 + 0x33
	.byte	FINE

@*********************** Track 03 ***********************@

seq_025_2:
	.byte	KEYSH , seq_025_key+0
	.byte		VOICE , 61
	.byte		MOD   , 0
	.byte		VOL   , 100*seq_025_mvl/mxv
	.byte		PAN   , c_v-20
	.byte		LFOS  , 22
	.byte		LFODL , 10
	.byte		N06   , Gn2 , v100
	.byte	W06
	.byte		N05   , An2 
	.byte	W06
	.byte		        Bn2 
	.byte	W06
	.byte		        Dn3 
	.byte	W18
	.byte		N06   , Fn2 
	.byte	W06
	.byte		N05   , Gn2 
	.byte	W06
	.byte		        An2 
	.byte	W06
	.byte		        Cn3 
	.byte	W18
	.byte		N04
	.byte	W06
	.byte		N06
	.byte	W12
	.byte		N36   , En3 
	.byte	W06
	.byte	PEND
	.byte	W54
	.byte		VOICE , 66
	.byte		MOD   , 0
	.byte		VOL   , 100*seq_025_mvl/mxv
	.byte		LFOS  , 23
	.byte		LFODL , 10
	.byte	W06
	.byte		N06   , En3 , v080
	.byte	W18
	.byte		        Ds3 
	.byte	W18
	.byte	PEND
	.byte		N48   , Gn3 , v072
	.byte	W36
	.byte	W03
	.byte		VOL   , 80*seq_025_mvl/mxv
	.byte	W03
	.byte		        63*seq_025_mvl/mxv
	.byte	W04
	.byte		        35*seq_025_mvl/mxv
	.byte	W24
	.byte	W02
	.byte		        78*seq_025_mvl/mxv
	.byte	W24
	.byte		VOICE , 102
	.byte	W12
	.byte		N06   , Gn2 , v064
	.byte	W84
	.byte	W12
	.byte		VOICE , 102
	.byte		VOL   , 100*seq_025_mvl/mxv
	.byte		N05   , Gn2 , v040
	.byte	W12
	.byte		N06   , Fn2 
	.byte	W06
	.byte		N04   , Gn2 , v048
	.byte	W12
	.byte		N06   , Cn3 , v040
	.byte	W14
	.byte		N24   , Gn2 
	.byte	W13
	.byte		VOL   , 96*seq_025_mvl/mxv
	.byte	W03
	.byte		        84*seq_025_mvl/mxv
	.byte	W04
	.byte		        66*seq_025_mvl/mxv
	.byte	W03
	.byte		        40*seq_025_mvl/mxv
	.byte	W17
	.byte		        86*seq_025_mvl/mxv
	.byte	W48
	.byte		VOICE , 66
	.byte	W12
	.byte		N06   , En3 , v080
	.byte	W18
	.byte		        Ds3 
	.byte	W18
	.byte		N48   , Gn3 
	.byte	W36
	.byte	W03
	.byte		VOL   , 80*seq_025_mvl/mxv
	.byte	W03
	.byte		        63*seq_025_mvl/mxv
	.byte	W04
	.byte		        35*seq_025_mvl/mxv
	.byte	W24
	.byte	W02
	.byte		        78*seq_025_mvl/mxv
	.byte	W18
	.byte		VOICE , 123
	.byte		MOD   , 5
	.byte		N12   , Gn3 , v072
	.byte	W06
	.byte	W18
	.byte		N04
	.byte	W12
	.byte		N04
	.byte	W06
	.byte		N54
	.byte	W48
	.byte	W03
	.byte		VOL   , 73*seq_025_mvl/mxv
	.byte	W03
	.byte		        58*seq_025_mvl/mxv
	.byte	W04
	.byte		        33*seq_025_mvl/mxv
	.byte	W02
	.byte		MOD   , 0
	.byte	W06
	.byte		VOL   , 86*seq_025_mvl/mxv
	.byte		N05   , En4 
	.byte	W06
	.byte		        Fn3 
	.byte	W06
	.byte		        An3 
	.byte	W06
	.byte		N06   , En4 
	.byte	W12
	.byte		N06
	.byte	W06
	.byte		        Dn4 
	.byte	W18
	.byte		        Gn4 
	.byte	W12
	.byte		VOICE , 61
	.byte		VOL   , 78*seq_025_mvl/mxv
	.byte		N04   , Cn3 , v092
	.byte	W06
	.byte		N06
	.byte	W12
	.byte		N48   , En3 
	.byte	W06
	.byte	W30
	.byte		VOL   , 62*seq_025_mvl/mxv
	.byte	W06
	.byte		        55*seq_025_mvl/mxv
	.byte	W12
	.byte		VOICE , 66
	.byte		VOL   , 86*seq_025_mvl/mxv
	.byte	W12
	.byte		N06   , En3 , v080
	.byte	W18
	.byte		        Ds3 
	.byte	W18
	.byte		N48   , Gn3 , v072
	.byte	W36
	.byte	W03
	.byte		VOL   , 81*seq_025_mvl/mxv
	.byte	W03
	.byte		        63*seq_025_mvl/mxv
	.byte	W04
	.byte		        37*seq_025_mvl/mxv
	.byte	W24
	.byte	W02
	.byte		        78*seq_025_mvl/mxv
	.byte	W24
	.byte		VOICE , 102
	.byte	W12
	.byte		N06   , Gn2 
	.byte	W84
	.byte	W12
	.byte		VOICE , 102
	.byte		VOL   , 100*seq_025_mvl/mxv
	.byte		N05   , Gn2 , v052
	.byte	W12
	.byte		N06   , Fn2 
	.byte	W06
	.byte		N05   , Gn2 , v056
	.byte	W12
	.byte		N06   , Cn3 , v052
	.byte	W14
	.byte		N24   , Gn2 
	.byte	W13
	.byte		VOL   , 96*seq_025_mvl/mxv
	.byte	W03
	.byte		        84*seq_025_mvl/mxv
	.byte	W04
	.byte		        66*seq_025_mvl/mxv
	.byte	W03
	.byte		        40*seq_025_mvl/mxv
	.byte	W17
	.byte		        100*seq_025_mvl/mxv
	.byte	W96
	.byte	W96
	.byte	W12
	.byte		VOICE , 123
	.byte		N06   , Cn5 , v080
	.byte	W36
	.byte		VOICE , 102
	.byte		VOL   , 78*seq_025_mvl/mxv
	.byte		N05   , Fn3 , v072
	.byte	W06
	.byte		        En3 , v040
	.byte	W06
	.byte		        Fn3 
	.byte	W06
	.byte		        En3 
	.byte	W06
	.byte		        Fn3 
	.byte	W06
	.byte		        En3 , v044
	.byte	W06
	.byte		        Fn3 , v060
	.byte	W06
	.byte		N17   , Gn3 
	.byte	W06
	.byte	W12
	.byte		VOICE , 123
	.byte		VOL   , 100*seq_025_mvl/mxv
	.byte		N04   , Gn4 , v068
	.byte	W12
	.byte		N18   , An4 , v072
	.byte	W24
	.byte		N16   , Fn4 , v068
	.byte	W18
	.byte		        Fs4 , v076
	.byte	W18
	.byte		N09   , Gn4 , v080
	.byte	W12
	.byte		VOICE , 102
	.byte		N09   , Cn4 , v052
	.byte	W24
	.byte		N18   , As3 
	.byte	W18
	.byte		N05   , Cn4 
	.byte	W54
	.byte	W24
	.byte		N12   , As3 
	.byte	W12
	.byte		N06   , Bn3 
	.byte	W06
	.byte		N04   , Cn4 , v048
	.byte	W14
	.byte		N24   , An3 
	.byte	W40
	.byte	W96
	.byte		VOICE , 123
	.byte		N24   , Fn3 , v072
	.byte	W24
	.byte		N18   , Fs3 
	.byte	W18
	.byte		N06   , Gn3 
	.byte	W18
	.byte		N24   , En3 
	.byte	W36
	.byte	W12
	.byte		VOICE , 102
	.byte		N06   , Cn4 , v052
	.byte	W12
	.byte		N12   , As3 
	.byte	W12
	.byte		N06   , Bn3 
	.byte	W06
	.byte		        Cn4 
	.byte	W54
	.byte	W48
	.byte		N12   , Fn4 
	.byte	W12
	.byte		N06   , Fs4 
	.byte	W06
	.byte		N04   , Gn4 
	.byte	W30
	.byte	W96
	.byte	W06
	.byte		N06   , An3 , v044
	.byte	W06
	.byte		        Gs3 
	.byte	W12
	.byte		        Gn3 
	.byte	W12
	.byte		        Fs3 
	.byte	W06
	.byte		N05   , Fn3 
	.byte	W36
	.byte		VOICE , 102
	.byte		VOL   , 78*seq_025_mvl/mxv
	.byte		N06   , Fn4 , v040
	.byte	W12
	.byte		N78   , Gn4 
	.byte	W06
	.byte	W48
	.byte	W03
	.byte		VOL   , 77*seq_025_mvl/mxv
	.byte	W03
	.byte		        73*seq_025_mvl/mxv
	.byte	W04
	.byte		        66*seq_025_mvl/mxv
	.byte	W03
	.byte		        58*seq_025_mvl/mxv
	.byte	W03
	.byte		        47*seq_025_mvl/mxv
	.byte	W04
	.byte		        33*seq_025_mvl/mxv
	.byte	W10
	.byte		VOICE , 102
	.byte		VOL   , 100*seq_025_mvl/mxv
	.byte		N06   , As2 , v048
	.byte	W12
	.byte		N72   , An2 
	.byte	W06
	.byte	W48
	.byte	W03
	.byte		VOL   , 97*seq_025_mvl/mxv
	.byte	W03
	.byte		        92*seq_025_mvl/mxv
	.byte	W04
	.byte		        84*seq_025_mvl/mxv
	.byte	W03
	.byte		        73*seq_025_mvl/mxv
	.byte	W03
	.byte		        58*seq_025_mvl/mxv
	.byte	W04
	.byte		        40*seq_025_mvl/mxv
	.byte	W28
	.byte		        78*seq_025_mvl/mxv
	.byte	W96
	.byte	PATT
	 .word	seq_025_2 + 0x2
	.byte	PATT
	 .word	seq_025_2 + 0x2B
	.byte	GOTO
	 .word	seq_025_2 + 0x3E
	.byte	FINE

@*********************** Track 04 ***********************@

seq_025_3:
	.byte	KEYSH , seq_025_key+0
	.byte	W90
	.byte		VOICE , 61
	.byte		VOL   , 94*seq_025_mvl/mxv
	.byte		PAN   , c_v+0
	.byte		N36   , Gn3 , v100
	.byte	W06
	.byte	W48
	.byte		MOD   , 0
	.byte		LFOS  , 25
	.byte		LFODL , 8
	.byte	W12
	.byte		VOICE , 112
	.byte		VOL   , 86*seq_025_mvl/mxv
	.byte		PAN   , c_v+0
	.byte		N06   , Bn2 , v040
	.byte	W18
	.byte		        As2 
	.byte	W18
	.byte		VOICE , 66
	.byte		N48   , Dn3 , v080
	.byte	W36
	.byte	W03
	.byte		VOL   , 80*seq_025_mvl/mxv
	.byte	W03
	.byte		        63*seq_025_mvl/mxv
	.byte	W04
	.byte		        35*seq_025_mvl/mxv
	.byte	W02
	.byte		        15*seq_025_mvl/mxv
	.byte	W48
	.byte		VOL   , 62*seq_025_mvl/mxv
	.byte	W12
	.byte		VOICE , 101
	.byte		PAN   , c_v+0
	.byte		N06   , An2 , v052
	.byte	W84
	.byte	PEND
	.byte		VOL   , 78*seq_025_mvl/mxv
	.byte	W12
	.byte		VOICE , 101
	.byte		PAN   , c_v+0
	.byte		N05   , As2 , v040
	.byte	W30
	.byte		N06
	.byte	W14
	.byte		N24
	.byte	W13
	.byte		VOL   , 75*seq_025_mvl/mxv
	.byte	W03
	.byte		        66*seq_025_mvl/mxv
	.byte	W04
	.byte		        52*seq_025_mvl/mxv
	.byte	W03
	.byte		        33*seq_025_mvl/mxv
	.byte	W03
	.byte		        15*seq_025_mvl/mxv
	.byte	W14
	.byte		        86*seq_025_mvl/mxv
	.byte	W60
	.byte		VOICE , 112
	.byte		PAN   , c_v+0
	.byte		N06   , Bn2 
	.byte	W18
	.byte		        As2 
	.byte	W18
	.byte		VOICE , 66
	.byte		PAN   , c_v+0
	.byte		N48   , Dn3 , v092
	.byte	W36
	.byte	W03
	.byte		VOL   , 80*seq_025_mvl/mxv
	.byte	W03
	.byte		        63*seq_025_mvl/mxv
	.byte	W04
	.byte		        35*seq_025_mvl/mxv
	.byte	W02
	.byte		        15*seq_025_mvl/mxv
	.byte	W24
	.byte		VOICE , 112
	.byte		VOL   , 78*seq_025_mvl/mxv
	.byte	W18
	.byte		N12   , An3 , v040
	.byte	W06
	.byte	W18
	.byte		N04
	.byte	W12
	.byte		N04
	.byte	W06
	.byte		N54
	.byte	W48
	.byte	W03
	.byte		VOL   , 73*seq_025_mvl/mxv
	.byte	W03
	.byte		        58*seq_025_mvl/mxv
	.byte	W04
	.byte		        33*seq_025_mvl/mxv
	.byte	W02
	.byte		        15*seq_025_mvl/mxv
	.byte	W24
	.byte		        86*seq_025_mvl/mxv
	.byte	W36
	.byte		N06   , Dn3 , v052
	.byte	W30
	.byte		VOICE , 61
	.byte		VOL   , 78*seq_025_mvl/mxv
	.byte		PAN   , c_v+0
	.byte		N48   , Gn3 , v092
	.byte	W06
	.byte	W30
	.byte		VOL   , 62*seq_025_mvl/mxv
	.byte	W06
	.byte		        55*seq_025_mvl/mxv
	.byte	W24
	.byte		        86*seq_025_mvl/mxv
	.byte		N06   , Bn2 , v040
	.byte	W18
	.byte		        As2 
	.byte	W18
	.byte		VOICE , 66
	.byte		N48   , Dn3 , v080
	.byte	W36
	.byte	W03
	.byte		VOL   , 81*seq_025_mvl/mxv
	.byte	W03
	.byte		        63*seq_025_mvl/mxv
	.byte	W04
	.byte		        37*seq_025_mvl/mxv
	.byte	W02
	.byte		        17*seq_025_mvl/mxv
	.byte	W48
	.byte	PATT
	 .word	seq_025_3 + 0x31
	.byte		VOL   , 78*seq_025_mvl/mxv
	.byte	W12
	.byte		VOICE , 101
	.byte		PAN   , c_v+0
	.byte		N05   , As2 , v052
	.byte	W30
	.byte		N06
	.byte	W14
	.byte		N24
	.byte	W13
	.byte		VOL   , 75*seq_025_mvl/mxv
	.byte	W03
	.byte		        66*seq_025_mvl/mxv
	.byte	W04
	.byte		        52*seq_025_mvl/mxv
	.byte	W03
	.byte		        33*seq_025_mvl/mxv
	.byte	W03
	.byte		        15*seq_025_mvl/mxv
	.byte	W14
	.byte	W24
	.byte		        78*seq_025_mvl/mxv
	.byte	W72
	.byte	W96
	.byte	W12
	.byte		VOICE , 112
	.byte		PAN   , c_v+0
	.byte		N06   , Gn3 , v056
	.byte	W84
	.byte	W12
	.byte		VOICE , 112
	.byte		N04   , Dn3 , v044
	.byte	W12
	.byte		N18   , En3 , v048
	.byte	W24
	.byte		N16   , Cn3 , v052
	.byte	W18
	.byte		        Cs3 , v056
	.byte	W18
	.byte		N09   , Dn3 , v060
	.byte	W12
	.byte		VOICE , 101
	.byte		PAN   , c_v+0
	.byte		N09   , An3 , v040
	.byte	W24
	.byte		N18   , Gn3 
	.byte	W18
	.byte		N05   , An3 
	.byte	W54
	.byte	W24
	.byte		N12   , Gn3 , v052
	.byte	W12
	.byte		N06   , Gs3 
	.byte	W06
	.byte		N04   , An3 , v048
	.byte	W14
	.byte		N24   , Fn3 
	.byte	W40
	.byte	W96
	.byte		VOICE , 112
	.byte		PAN   , c_v+0
	.byte		N24   , Dn2 , v056
	.byte	W24
	.byte		N18   , Ds2 
	.byte	W18
	.byte		N06   , En2 
	.byte	W54
	.byte	W12
	.byte		VOICE , 101
	.byte		PAN   , c_v+0
	.byte		N06   , An3 , v040
	.byte	W12
	.byte		N12   , Gn3 
	.byte	W12
	.byte		N06   , Gs3 
	.byte	W06
	.byte		        An3 
	.byte	W54
	.byte	W48
	.byte		N12   , Dn4 
	.byte	W12
	.byte		N06   , Ds4 
	.byte	W06
	.byte		N04   , En4 
	.byte	W30
	.byte	W96
	.byte	W96
	.byte	W78
	.byte		N06   , Fn2 , v048
	.byte	W12
	.byte		N72   , En2 
	.byte	W06
	.byte	W48
	.byte	W03
	.byte		VOL   , 77*seq_025_mvl/mxv
	.byte	W03
	.byte		        73*seq_025_mvl/mxv
	.byte	W04
	.byte		        66*seq_025_mvl/mxv
	.byte	W03
	.byte		        58*seq_025_mvl/mxv
	.byte	W03
	.byte		        47*seq_025_mvl/mxv
	.byte	W04
	.byte		        33*seq_025_mvl/mxv
	.byte	W28
	.byte		        78*seq_025_mvl/mxv
	.byte	W96
	.byte	W72
	.byte		VOICE , 61
	.byte		VOL   , 78*seq_025_mvl/mxv
	.byte		PAN   , c_v+0
	.byte		N04   , Fn3 , v100
	.byte	W06
	.byte		N06
	.byte	W12
	.byte		N36   , Gn3 
	.byte	W06
	.byte	W24
	.byte		VOL   , 78*seq_025_mvl/mxv
	.byte	W06
	.byte		        62*seq_025_mvl/mxv
	.byte	W06
	.byte		        55*seq_025_mvl/mxv
	.byte	W12
	.byte		MOD   , 0
	.byte		LFOS  , 25
	.byte		LFODL , 8
	.byte	W12
	.byte		VOICE , 112
	.byte		VOL   , 86*seq_025_mvl/mxv
	.byte		PAN   , c_v+0
	.byte		N06   , Bn2 , v040
	.byte	W18
	.byte		        As2 
	.byte	W18
	.byte	GOTO
	 .word	seq_025_3 + 0x21
	.byte	FINE

@*********************** Track 05 ***********************@

seq_025_4:
	.byte	KEYSH , seq_025_key+0
	.byte	W72
	.byte		VOICE , 61
	.byte		VOL   , 78*seq_025_mvl/mxv
	.byte		PAN   , c_v+0
	.byte		BEND  , c_v+0
	.byte		N04   , Fn3 , v100
	.byte	W06
	.byte		N06
	.byte	W18
	.byte		VOICE , 103
	.byte		VOL   , 100*seq_025_mvl/mxv
	.byte		PAN   , c_v+0
	.byte		N04   , Cn3 , v052
	.byte	W06
	.byte		N12   , Cn2 , v060
	.byte	W18
	.byte		N14   , En2 
	.byte	W24
	.byte		N13   , Fn2 
	.byte	W18
	.byte		N03
	.byte	W06
	.byte		N12   , Gn2 
	.byte	W12
	.byte		N02   , As2 , v040
	.byte	W06
	.byte		N05   , Cn3 , v052
	.byte	W06
	.byte		VOICE , 111
	.byte		MOD   , 0
	.byte		VOL   , 100*seq_025_mvl/mxv
	.byte		PAN   , c_v+0
	.byte		LFOS  , 20
	.byte		LFODL , 12
	.byte		N48   , An2 , v032
	.byte	W36
	.byte	W03
	.byte		VOL   , 92*seq_025_mvl/mxv
	.byte	W03
	.byte		        72*seq_025_mvl/mxv
	.byte	W04
	.byte		        39*seq_025_mvl/mxv
	.byte	W24
	.byte	W02
	.byte		        100*seq_025_mvl/mxv
	.byte	W24
	.byte	PEND
	.byte	W06
	.byte		VOICE , 103
	.byte		VOL   , 100*seq_025_mvl/mxv
	.byte		PAN   , c_v+0
	.byte		N12   , Cn2 , v060
	.byte	W18
	.byte		N14   , En2 
	.byte	W24
	.byte		N13   , Fn2 
	.byte	W18
	.byte		N03
	.byte	W06
	.byte		N12   , Gn2 
	.byte	W12
	.byte		N02   , As2 , v040
	.byte	W06
	.byte		N05   , Cn3 , v052
	.byte	W06
	.byte	W42
	.byte		N05   , Cn2 , v052
	.byte	W06
	.byte		N06   , As1 , v060
	.byte	W06
	.byte		N04
	.byte	W12
	.byte		N05   , As1 , v052
	.byte	W12
	.byte		N04   , As1 , v060
	.byte	W12
	.byte		N08   , Cn2 , v052
	.byte	W06
	.byte	PEND
	.byte	W06
	.byte		N12   , Cn2 , v060
	.byte	W18
	.byte		N14   , En2 
	.byte	W24
	.byte		N13   , Fn2 
	.byte	W18
	.byte		N03
	.byte	W06
	.byte		N08   , Gn2 
	.byte	W09
	.byte		BEND  , c_v+0
	.byte	W03
	.byte		N02   , As2 , v040
	.byte	W06
	.byte		N05   , Cn3 , v052
	.byte	W06
	.byte		VOICE , 111
	.byte		MOD   , 0
	.byte		VOL   , 100*seq_025_mvl/mxv
	.byte		PAN   , c_v+0
	.byte		LFOS  , 20
	.byte		LFODL , 12
	.byte		N48   , An2 , v040
	.byte	W36
	.byte	W03
	.byte		VOL   , 92*seq_025_mvl/mxv
	.byte	W03
	.byte		        72*seq_025_mvl/mxv
	.byte	W04
	.byte		        39*seq_025_mvl/mxv
	.byte	W24
	.byte	W02
	.byte		        100*seq_025_mvl/mxv
	.byte	W18
	.byte		N12   , Fn3 
	.byte	W06
	.byte	W18
	.byte		N04
	.byte	W12
	.byte		N04
	.byte	W06
	.byte		N54
	.byte	W48
	.byte	W03
	.byte		VOL   , 92*seq_025_mvl/mxv
	.byte	W03
	.byte		        72*seq_025_mvl/mxv
	.byte	W04
	.byte		        39*seq_025_mvl/mxv
	.byte	W02
	.byte	W24
	.byte		        100*seq_025_mvl/mxv
	.byte	W36
	.byte		N06   , An2 , v060
	.byte	W36
	.byte		VOICE , 103
	.byte		VOL   , 100*seq_025_mvl/mxv
	.byte		PAN   , c_v+0
	.byte		N12   , Cn2 
	.byte	W24
	.byte		N14   , En2 
	.byte	W24
	.byte		N13   , Fn2 
	.byte	W18
	.byte		N03
	.byte	W06
	.byte		N08   , Gn2 
	.byte	W12
	.byte		N02   , As2 , v040
	.byte	W06
	.byte		N05   , Cn3 , v052
	.byte	W06
	.byte	PATT
	 .word	seq_025_4 + 0x32
	.byte		VOICE , 103
	.byte		VOL   , 100*seq_025_mvl/mxv
	.byte		PAN   , c_v+0
	.byte	W06
	.byte		N12   , Cn2 , v060
	.byte	W18
	.byte		N14   , En2 
	.byte	W24
	.byte		N13   , Fn2 
	.byte	W18
	.byte		N03
	.byte	W06
	.byte		N08   , Gn2 
	.byte	W12
	.byte		N02   , As2 , v040
	.byte	W06
	.byte		N05   , Cn3 , v052
	.byte	W06
	.byte	PATT
	 .word	seq_025_4 + 0x6C
	.byte	W06
	.byte		N12   , Cn2 , v060
	.byte	W18
	.byte		N14   , En2 
	.byte	W24
	.byte		N13   , Fn2 
	.byte	W18
	.byte		N03
	.byte	W06
	.byte		N08   , Gn2 
	.byte	W12
	.byte		N02   , As2 , v040
	.byte	W06
	.byte		N05   , Cn3 , v052
	.byte	W06
	.byte	W36
	.byte		N12   , Gn1 , v060
	.byte	W12
	.byte		N15   , As2 
	.byte	W18
	.byte		N06   , Gn2 
	.byte	W12
	.byte		N06
	.byte	W06
	.byte		        As2 
	.byte	W06
	.byte		N04   , Cn3 , v052
	.byte	W06
	.byte	W12
	.byte		VOICE , 111
	.byte		MOD   , 0
	.byte		VOL   , 100*seq_025_mvl/mxv
	.byte		PAN   , c_v+0
	.byte		LFOS  , 20
	.byte		LFODL , 12
	.byte		N06   , Dn3 , v056
	.byte	W84
	.byte	W12
	.byte		VOICE , 111
	.byte		N04   , An2 , v044
	.byte	W12
	.byte		N18   , Bn2 , v048
	.byte	W24
	.byte		VOICE , 101
	.byte		VOL   , 78*seq_025_mvl/mxv
	.byte		PAN   , c_v+0
	.byte		N16   , Dn2 , v056
	.byte	W18
	.byte		        Ds2 , v064
	.byte	W18
	.byte		N09   , En2 
	.byte	W12
	.byte		VOICE , 123
	.byte		N09   , Fn2 , v112
	.byte	W24
	.byte		N18   , Ds2 
	.byte	W18
	.byte		N06   , Fn2 
	.byte	W54
	.byte	W24
	.byte		N12   , Ds2 , v100
	.byte	W12
	.byte		N06   , En2 
	.byte	W06
	.byte		N04   , Fn2 
	.byte	W14
	.byte		N24
	.byte	W40
	.byte	W96
	.byte		VOICE , 101
	.byte		N24   , As1 , v092
	.byte	W24
	.byte		N18   , Bn1 
	.byte	W18
	.byte		N06   , Cn2 
	.byte	W18
	.byte		N24
	.byte	W36
	.byte		VOICE , 123
	.byte	W12
	.byte		N06   , Fn2 , v100
	.byte	W12
	.byte		N12   , Ds2 
	.byte	W12
	.byte		N06   , En2 
	.byte	W06
	.byte		        Fn2 
	.byte	W54
	.byte	W48
	.byte		N12   , Ds2 , v112
	.byte	W12
	.byte		N06   , En2 
	.byte	W06
	.byte		N04   , Fn2 
	.byte	W18
	.byte		N10
	.byte	W12
	.byte	W96
	.byte	W96
	.byte		VOICE , 103
	.byte		VOL   , 100*seq_025_mvl/mxv
	.byte		PAN   , c_v+0
	.byte		N04   , Cn3 , v052
	.byte	W06
	.byte		N12   , Cn2 , v060
	.byte	W18
	.byte		N14   , En2 
	.byte	W24
	.byte		N13   , Fn2 
	.byte	W18
	.byte		N03
	.byte	W06
	.byte		N08   , Gn2 
	.byte	W12
	.byte		N02   , As2 , v040
	.byte	W06
	.byte		N05   , Cn3 , v052
	.byte	W06
	.byte	W06
	.byte		N12   , Cn2 , v040
	.byte	W18
	.byte		N16   , En2 , v060
	.byte	W72
	.byte	W24
	.byte		N14
	.byte	W24
	.byte		N13   , Fn2 
	.byte	W48
	.byte	W96
	.byte		N04   , Cn3 , v052
	.byte	W06
	.byte		N12   , Cn2 , v060
	.byte	W18
	.byte		N14   , En2 
	.byte	W24
	.byte		N13   , Fn2 
	.byte	W18
	.byte		N03
	.byte	W06
	.byte		N12   , Gn2 
	.byte	W12
	.byte		N02   , As2 , v040
	.byte	W06
	.byte		N05   , Cn3 , v052
	.byte	W06
	.byte	GOTO
	 .word	seq_025_4 + 0x32
	.byte	FINE

@*********************** Track 06 ***********************@

seq_025_5:
	.byte	KEYSH , seq_025_key+0
	.byte		VOICE , 127
	.byte		VOL   , 100*seq_025_mvl/mxv
	.byte		PAN   , c_v+0
	.byte		N06   , En1 , v112
	.byte	W06
	.byte		        En1 , v100
	.byte	W06
	.byte		N06
	.byte	W06
	.byte		        En1 , v120
	.byte	W18
	.byte		        En1 , v112
	.byte	W06
	.byte		        En1 , v100
	.byte	W06
	.byte		N06
	.byte	W06
	.byte		N03   , En1 , v120
	.byte	W03
	.byte		        En1 , v112
	.byte	W03
	.byte		N06
	.byte	W06
	.byte		N06
	.byte	W06
	.byte		N06
	.byte	W06
	.byte		N06
	.byte	W06
	.byte		        Cn1 , v127
	.byte	W06
	.byte		N18   , An2 , v120
	.byte	W06
	.byte	W18
	.byte		N02   , As3 , v036
	.byte	W06
	.byte		N02
	.byte	W06
	.byte		N02
	.byte	W06
	.byte		N12   , Dn1 , v127
	.byte	W06
	.byte		N02   , As3 , v036
	.byte	W06
	.byte		N02
	.byte	W06
	.byte		N02
	.byte	W06
	.byte		N12   , Cn1 , v127
	.byte	W06
	.byte		N02   , As3 , v036
	.byte	W06
	.byte		N12   , Dn1 , v127
	.byte	W06
	.byte		N02   , As3 , v036
	.byte	W06
	.byte		N02
	.byte	W06
	.byte		N02
	.byte	W06
	.byte	PEND
	.byte		N12   , Cn1 , v127
	.byte	W06
	.byte		N02   , As3 , v036
	.byte	W06
	.byte		N12   , Cn1 , v127
	.byte		N02   , As3 , v036
	.byte	W06
	.byte		N02
	.byte	W06
	.byte		N12   , Dn1 , v127
	.byte	W06
	.byte		N02   , As3 , v036
	.byte	W06
	.byte		N02
	.byte	W06
	.byte		N02
	.byte	W06
	.byte		N02
	.byte	W06
	.byte		N02
	.byte	W06
	.byte		N12   , Cn1 , v127
	.byte	W06
	.byte		N02   , As3 , v036
	.byte	W06
	.byte		N12   , Dn1 , v127
	.byte	W06
	.byte		N02   , As3 , v036
	.byte	W06
	.byte		N02
	.byte	W06
	.byte		N06   , Dn1 , v127
	.byte	W06
	.byte		N12   , Cn1 
	.byte	W06
	.byte		N02   , As3 , v036
	.byte	W12
	.byte		N02
	.byte	W06
	.byte		N12   , Dn1 , v127
	.byte	W06
	.byte		N02   , As3 , v036
	.byte	W06
	.byte		N02
	.byte	W06
	.byte		N02
	.byte	W06
	.byte		N02
	.byte	W06
	.byte		N02
	.byte	W06
	.byte		N12   , Cn1 , v127
	.byte	W06
	.byte		N02   , As3 , v036
	.byte	W06
	.byte		N12   , Dn1 , v127
	.byte	W06
	.byte		N02   , As3 , v036
	.byte	W06
	.byte		N02
	.byte	W06
	.byte		N02
	.byte	W06
	.byte		N12   , Cn1 , v127
	.byte	W06
	.byte		N02   , As3 , v036
	.byte	W06
	.byte		N12   , Cn1 , v127
	.byte		N02   , As3 , v036
	.byte	W06
	.byte		N02
	.byte	W06
	.byte		N12   , Dn1 , v127
	.byte	W06
	.byte		N02   , As3 , v036
	.byte	W06
	.byte		N06   , Dn1 , v127
	.byte	W06
	.byte		N06
	.byte	W06
	.byte		        Cn1 
	.byte	W06
	.byte		        Cn2 , v060
	.byte	W06
	.byte		        An1 
	.byte	W06
	.byte		        Fn1 
	.byte	W06
	.byte		N12   , Cn1 , v127
	.byte	W06
	.byte		N02   , As3 , v036
	.byte	W06
	.byte		N12   , Dn1 , v127
	.byte	W12
	.byte		        Cn1 
	.byte	W06
	.byte		N02   , As3 , v036
	.byte	W06
	.byte		N12   , Cn1 , v127
	.byte		N02   , As3 , v036
	.byte	W06
	.byte		N02
	.byte	W06
	.byte		N12   , Dn1 , v127
	.byte		N02   , As3 , v036
	.byte	W06
	.byte		N02
	.byte	W12
	.byte		N02
	.byte	W06
	.byte		N12   , Cn1 , v127
	.byte	W06
	.byte		N02   , As3 , v036
	.byte	W06
	.byte		N02
	.byte	W06
	.byte		N02
	.byte	W06
	.byte		N12   , Dn1 , v127
	.byte	W06
	.byte		N02   , As3 , v036
	.byte	W06
	.byte		N02
	.byte	W06
	.byte		N02
	.byte	W06
	.byte		N12   , Cn1 , v127
	.byte	W06
	.byte		N02   , As3 , v036
	.byte	W06
	.byte		N02
	.byte	W06
	.byte		N02
	.byte	W06
	.byte		N12   , Dn1 , v127
	.byte	W06
	.byte		N02   , As3 , v036
	.byte	W06
	.byte		N12   , Dn1 , v127
	.byte	W06
	.byte		N02   , As3 , v036
	.byte	W06
	.byte		N02
	.byte	W06
	.byte		N02
	.byte	W06
	.byte		N12   , Cn1 , v127
	.byte	W06
	.byte		N02   , As3 , v036
	.byte	W06
	.byte		N12   , Dn1 , v127
	.byte	W06
	.byte		N02   , As3 , v036
	.byte	W06
	.byte		N02
	.byte	W06
	.byte		N02
	.byte	W06
	.byte		N12   , Cn1 , v127
	.byte	W06
	.byte		N02   , As3 , v036
	.byte	W06
	.byte		N12   , Cn1 , v127
	.byte		N02   , As3 , v036
	.byte	W06
	.byte		N02
	.byte	W06
	.byte		N12   , Dn1 , v127
	.byte	W06
	.byte		N02   , As3 , v036
	.byte	W06
	.byte		N02
	.byte	W06
	.byte		N02
	.byte	W06
	.byte		N12   , Cn1 , v127
	.byte	W06
	.byte		N02   , As3 , v036
	.byte	W06
	.byte		N02
	.byte	W06
	.byte		N02
	.byte	W06
	.byte		N12   , Dn1 , v127
	.byte	W06
	.byte		N02   , As3 , v036
	.byte	W06
	.byte		N02
	.byte	W06
	.byte		N06   , Dn1 , v127
	.byte	W06
	.byte		N12   , Dn1 , v120
	.byte	W06
	.byte		N02   , As3 , v036
	.byte	W06
	.byte		N12   , Dn1 , v120
	.byte		N02   , As3 , v036
	.byte	W06
	.byte		N02
	.byte	W12
	.byte		N12   , Cn1 , v127
	.byte		N02   , As3 , v036
	.byte	W06
	.byte		N02
	.byte	W06
	.byte		N06   , Dn1 , v100
	.byte	W06
	.byte		        Cn2 
	.byte	W06
	.byte		        An1 
	.byte	W06
	.byte		        Cn1 , v127
	.byte	W06
	.byte		N12   , Fn1 , v100
	.byte	W06
	.byte		N02   , As3 , v036
	.byte	W06
	.byte		N06   , Fn1 , v100
	.byte	W06
	.byte		        Dn1 , v127
	.byte	W06
	.byte		N30   , Cs2 
	.byte	W06
	.byte	W06
	.byte		N02   , As3 , v036
	.byte	W06
	.byte		N02
	.byte	W06
	.byte		N02
	.byte	W06
	.byte		N02
	.byte	W06
	.byte		N02
	.byte	W06
	.byte		N12   , Dn1 , v127
	.byte	W06
	.byte		N02   , As3 , v036
	.byte	W06
	.byte		N02
	.byte	W06
	.byte		N02
	.byte	W06
	.byte		N12   , Cn1 , v120
	.byte	W06
	.byte		N02   , As3 , v036
	.byte	W06
	.byte		N12   , Dn1 , v127
	.byte	W06
	.byte		N02   , As3 , v036
	.byte	W06
	.byte		N02
	.byte	W06
	.byte		N02
	.byte	W06
	.byte		N12   , Cn1 , v127
	.byte	W06
	.byte		N02   , As3 , v036
	.byte	W06
	.byte		N12   , Cn1 , v127
	.byte		N02   , As3 , v036
	.byte	W06
	.byte		N02
	.byte	W06
	.byte		N12   , Dn1 , v127
	.byte	W06
	.byte		N02   , As3 , v036
	.byte	W06
	.byte		N02
	.byte	W06
	.byte		N02
	.byte	W06
	.byte		N02
	.byte	W06
	.byte		N02
	.byte	W06
	.byte		N12   , Cn1 , v127
	.byte	W06
	.byte		N02   , As3 , v036
	.byte	W06
	.byte		N12   , Dn1 , v127
	.byte	W06
	.byte		N02   , As3 , v036
	.byte	W06
	.byte		N02
	.byte	W06
	.byte		N02
	.byte	W06
	.byte		N12   , Cn1 , v127
	.byte	W06
	.byte		N02   , As3 , v036
	.byte	W06
	.byte		N02
	.byte	W06
	.byte		N02
	.byte	W06
	.byte		N12   , Cn1 , v120
	.byte		N02   , As3 , v036
	.byte	W06
	.byte		N02
	.byte	W06
	.byte		N12   , Dn1 , v127
	.byte	W06
	.byte		N02   , As3 , v036
	.byte	W06
	.byte		N02
	.byte	W06
	.byte		N02
	.byte	W06
	.byte		N12   , Cn1 , v127
	.byte	W06
	.byte		N02   , As3 , v036
	.byte	W06
	.byte		N12   , Dn1 , v127
	.byte	W06
	.byte		N02   , As3 , v036
	.byte	W06
	.byte		N02
	.byte	W06
	.byte		N02
	.byte	W06
	.byte		N12   , Cn1 , v120
	.byte	W06
	.byte		N02   , As3 , v036
	.byte	W06
	.byte		N12   , Cn1 , v120
	.byte		N02   , As3 , v036
	.byte	W06
	.byte		N02
	.byte	W06
	.byte		N12   , Dn1 , v127
	.byte	W06
	.byte		N02   , As3 , v036
	.byte	W06
	.byte		N06   , Dn1 , v127
	.byte	W06
	.byte		N06
	.byte	W06
	.byte		        Cn1 , v120
	.byte	W06
	.byte		        Cn2 , v060
	.byte	W06
	.byte		        An1 
	.byte	W06
	.byte		        Fn1 
	.byte	W06
	.byte		N12   , Cn1 , v120
	.byte	W06
	.byte		N02   , As3 , v036
	.byte	W06
	.byte		N06   , Dn1 , v127
	.byte	W06
	.byte		N30   , An2 , v092
	.byte	W06
	.byte	W06
	.byte		N02   , As3 , v036
	.byte	W06
	.byte		N02
	.byte	W06
	.byte		N02
	.byte	W06
	.byte		N12   , Dn1 , v127
	.byte	W06
	.byte		N02   , As3 , v036
	.byte	W06
	.byte		N02
	.byte	W06
	.byte		N02
	.byte	W06
	.byte		N12   , Cn1 , v120
	.byte	W06
	.byte		N02   , As3 , v036
	.byte	W06
	.byte		N02
	.byte	W06
	.byte		N02
	.byte	W06
	.byte		N12   , Dn1 , v127
	.byte	W06
	.byte		N02   , As3 , v036
	.byte	W06
	.byte		N02
	.byte	W06
	.byte		N02
	.byte	W06
	.byte		N12   , Cn1 , v120
	.byte	W06
	.byte		N02   , As3 , v036
	.byte	W06
	.byte		N02
	.byte	W06
	.byte		N02
	.byte	W06
	.byte		N12   , Dn1 , v127
	.byte	W06
	.byte		N02   , As3 , v036
	.byte	W06
	.byte		N12   , Dn1 , v127
	.byte	W06
	.byte		N02   , As3 , v036
	.byte	W06
	.byte		N02
	.byte	W06
	.byte		N02
	.byte	W06
	.byte		N12   , Cn1 , v120
	.byte	W06
	.byte		N02   , As3 , v036
	.byte	W06
	.byte		N12   , Dn1 , v127
	.byte	W06
	.byte		N02   , As3 , v036
	.byte	W06
	.byte		N02
	.byte	W06
	.byte		N02
	.byte	W06
	.byte		N12   , Cn1 , v120
	.byte	W06
	.byte		N02   , As3 , v036
	.byte	W06
	.byte		N12   , Cn1 , v120
	.byte		N02   , As3 , v036
	.byte	W06
	.byte		N02
	.byte	W06
	.byte		N12   , Dn1 , v127
	.byte	W06
	.byte		N02   , As3 , v036
	.byte	W06
	.byte		N02
	.byte	W06
	.byte		N02
	.byte	W06
	.byte		N12   , Cn1 , v120
	.byte	W06
	.byte		N02   , As3 , v036
	.byte	W06
	.byte		N02
	.byte	W06
	.byte		N02
	.byte	W06
	.byte		N12   , Dn1 , v127
	.byte	W06
	.byte		N02   , As3 , v036
	.byte	W06
	.byte		N02
	.byte	W06
	.byte		N02
	.byte	W06
	.byte		N12   , Dn1 , v120
	.byte	W06
	.byte		N02   , As3 , v036
	.byte	W06
	.byte		N12   , Dn1 , v120
	.byte		N02   , As3 , v036
	.byte	W06
	.byte		N02
	.byte	W12
	.byte		N12   , Cn1 , v127
	.byte		N02   , As3 , v036
	.byte	W06
	.byte		N02
	.byte	W06
	.byte		N06   , Dn1 , v100
	.byte	W06
	.byte		        Cn2 
	.byte	W06
	.byte		        An1 
	.byte	W06
	.byte		        Cn1 , v120
	.byte	W06
	.byte		N12   , Fn1 , v100
	.byte	W06
	.byte		N02   , As3 , v036
	.byte	W06
	.byte		N06   , Fn1 , v100
	.byte	W06
	.byte		N12   , Dn1 , v127
	.byte	W12
	.byte		        Cn1 , v112
	.byte	W12
	.byte		N02   , As3 , v040
	.byte	W12
	.byte		N12   , Dn1 , v100
	.byte	W12
	.byte		N02   , As3 , v040
	.byte	W12
	.byte		N06   , Cn1 , v100
	.byte		N02   , As3 , v040
	.byte	W06
	.byte		N06   , Dn1 , v080
	.byte	W06
	.byte		N12
	.byte		N02   , As3 , v040
	.byte	W12
	.byte		N12   , Dn1 , v100
	.byte		N02   , As3 , v040
	.byte	W12
	.byte		N02
	.byte	W06
	.byte		N06   , Dn1 , v080
	.byte	W06
	.byte		N12   , Cn1 , v100
	.byte		N02   , As3 , v040
	.byte	W12
	.byte		N12   , Cn1 , v100
	.byte		N02   , As3 , v040
	.byte	W12
	.byte		N12   , Dn1 , v100
	.byte	W12
	.byte		N02   , As3 , v040
	.byte	W06
	.byte		N12   , Cn1 , v100
	.byte	W06
	.byte		N02   , As3 , v040
	.byte	W06
	.byte		N06   , Dn1 , v080
	.byte	W06
	.byte		N12   , Cn1 , v100
	.byte	W12
	.byte		N06   , Dn1 
	.byte	W06
	.byte		N12   , Cn1 
	.byte	W06
	.byte		N02   , As3 , v040
	.byte	W06
	.byte		N06   , Dn1 , v080
	.byte	W06
	.byte		N12   , Cn1 , v100
	.byte		N02   , As3 , v040
	.byte	W12
	.byte		N06   , Cn1 , v100
	.byte		N02   , As3 , v040
	.byte	W06
	.byte		N06   , Cn1 , v100
	.byte	W06
	.byte		N12   , Dn1 
	.byte		N02   , As3 , v040
	.byte	W12
	.byte		N02
	.byte	W06
	.byte		N12   , Cn1 , v100
	.byte	W06
	.byte		N02   , As3 , v040
	.byte	W06
	.byte		N06   , Dn1 , v088
	.byte	W06
	.byte		N12   , Cn1 , v100
	.byte		N02   , As3 , v040
	.byte	W12
	.byte		N06   , Dn1 , v100
	.byte		N02   , As3 , v040
	.byte	W06
	.byte		N06   , Cn1 , v100
	.byte	W06
	.byte		        Dn1 
	.byte	W06
	.byte		N06
	.byte	W06
	.byte		N12   , Cn1 
	.byte	W06
	.byte		N02   , As3 , v036
	.byte	W06
	.byte		N06   , Dn1 , v100
	.byte	W06
	.byte		N12   , Cn1 
	.byte	W12
	.byte		N06   , Dn1 
	.byte	W06
	.byte		N06
	.byte	W06
	.byte		        Cn1 
	.byte	W06
	.byte		        Dn1 , v080
	.byte	W06
	.byte		N12   , Cn1 , v100
	.byte	W06
	.byte		N02   , As3 , v040
	.byte	W06
	.byte		N12   , Dn1 , v100
	.byte	W06
	.byte		N02   , As3 , v040
	.byte	W06
	.byte		N06   , Cn1 , v127
	.byte	W06
	.byte		N12   , Dn1 , v100
	.byte	W12
	.byte		        Cn1 
	.byte	W12
	.byte		N02   , As3 , v040
	.byte	W12
	.byte		N12   , Dn1 , v100
	.byte	W12
	.byte		N02   , As3 , v040
	.byte	W06
	.byte		N12   , Cn1 , v100
	.byte	W06
	.byte		N02   , As3 , v040
	.byte	W06
	.byte		N12   , Dn1 , v080
	.byte	W06
	.byte		N02   , As3 , v040
	.byte	W06
	.byte		N06   , Cn1 , v100
	.byte	W06
	.byte		N13   , Dn1 
	.byte	W12
	.byte		N02   , As3 , v056
	.byte	W12
	.byte		N12   , Cn1 , v100
	.byte		N02   , As3 , v040
	.byte	W12
	.byte		N12   , Cn1 , v100
	.byte		N02   , As3 , v040
	.byte	W12
	.byte		N13   , Dn1 , v100
	.byte		N02   , As3 , v040
	.byte	W12
	.byte		N02
	.byte	W06
	.byte		N12   , Cn1 , v100
	.byte	W06
	.byte		N02   , As3 , v040
	.byte	W06
	.byte		N06   , Dn1 , v080
	.byte	W06
	.byte		N12   , Cn1 , v100
	.byte	W12
	.byte		N06   , Dn1 
	.byte		N02   , As3 , v040
	.byte	W06
	.byte		N12   , Cn1 , v100
	.byte	W06
	.byte		N02   , As3 , v040
	.byte	W06
	.byte		N06   , Dn1 , v080
	.byte	W06
	.byte		N12   , Fs1 
	.byte	W12
	.byte		        An1 , v060
	.byte	W12
	.byte		N12
	.byte	W12
	.byte		N12
	.byte	W12
	.byte		        An1 , v100
	.byte	W12
	.byte		N12
	.byte	W12
	.byte		        An1 , v120
	.byte	W12
	.byte		N12
	.byte	W12
	.byte		N06
	.byte		N48   , Cs2 , v112
	.byte	W48
	.byte		N02   , As3 , v036
	.byte	W06
	.byte		N02
	.byte	W06
	.byte		N12   , Cn1 , v100
	.byte	W06
	.byte		N02   , As3 , v036
	.byte	W06
	.byte		N12   , Dn1 , v127
	.byte	W06
	.byte		N02   , As3 , v036
	.byte	W06
	.byte		N02
	.byte	W06
	.byte		N06   , Cn1 , v100
	.byte	W06
	.byte		N24   , An2 , v092
	.byte	W06
	.byte		N02   , As3 , v036
	.byte	W06
	.byte		N02
	.byte	W06
	.byte		N02
	.byte	W06
	.byte		N02
	.byte	W06
	.byte		N02
	.byte	W06
	.byte		N12   , Dn1 , v127
	.byte	W06
	.byte		N02   , As3 , v036
	.byte	W06
	.byte		N02
	.byte	W06
	.byte		N02
	.byte	W06
	.byte		N12   , Cn1 , v120
	.byte	W06
	.byte		N02   , As3 , v036
	.byte	W06
	.byte		N12   , Dn1 , v127
	.byte	W06
	.byte		N02   , As3 , v036
	.byte	W06
	.byte		N02
	.byte	W06
	.byte		N02
	.byte	W06
	.byte		N12   , Cn1 , v120
	.byte	W06
	.byte		N02   , As3 , v036
	.byte	W06
	.byte		N12   , Cn1 , v120
	.byte		N02   , As3 , v036
	.byte	W06
	.byte		N02
	.byte	W06
	.byte		N02
	.byte	W06
	.byte		N02
	.byte	W06
	.byte		N12   , Dn1 , v127
	.byte	W06
	.byte		N02   , As3 , v036
	.byte	W06
	.byte		N12   , Cn1 , v120
	.byte	W06
	.byte		N02   , As3 , v036
	.byte	W06
	.byte		N02
	.byte	W06
	.byte		N02
	.byte	W06
	.byte		N12   , Dn1 , v127
	.byte	W06
	.byte		N02   , As3 , v036
	.byte	W06
	.byte		N02
	.byte	W06
	.byte		N02
	.byte	W06
	.byte		N12   , Cn1 , v120
	.byte	W06
	.byte		N02   , As3 , v036
	.byte	W06
	.byte		N12   , Dn1 , v112
	.byte		N02   , As3 , v036
	.byte	W06
	.byte		N02
	.byte	W06
	.byte		N12   , Cn1 , v120
	.byte	W06
	.byte		N02   , As3 , v036
	.byte	W06
	.byte		N02
	.byte	W06
	.byte		N02
	.byte	W06
	.byte		N12   , Dn1 , v112
	.byte	W06
	.byte		N02   , As3 , v036
	.byte	W06
	.byte		N02
	.byte	W06
	.byte		N02
	.byte	W06
	.byte		N06   , Dn1 , v112
	.byte	W07
	.byte		N12
	.byte	W05
	.byte		N02   , As3 , v036
	.byte	W06
	.byte		N02
	.byte	W06
	.byte		N06   , En1 , v112
	.byte	W06
	.byte		        En1 , v100
	.byte	W06
	.byte		N06
	.byte	W06
	.byte		        En1 , v120
	.byte	W18
	.byte		        En1 , v112
	.byte	W06
	.byte		        En1 , v100
	.byte	W06
	.byte		N06
	.byte	W06
	.byte		N03   , En1 , v120
	.byte	W03
	.byte		        En1 , v112
	.byte	W03
	.byte		N06
	.byte	W06
	.byte		N06
	.byte	W06
	.byte		N06
	.byte	W06
	.byte		N06
	.byte	W06
	.byte		        Cn1 
	.byte	W06
	.byte		N18   , An2 , v120
	.byte	W06
	.byte	PATT
	 .word	seq_025_5 + 0x32
	.byte	GOTO
	 .word	seq_025_5 + 0x5C
	.byte	FINE

@******************************************************@

	.align	2

seq_025:
	.byte	6	@ NumTrks
	.byte	0	@ NumBlks
	.byte	seq_025_pri	@ Priority
	.byte	seq_025_rev	@ Reverb

	.word	seq_025_grp

	.word	seq_025_0
	.word	seq_025_1
	.word	seq_025_2
	.word	seq_025_3
	.word	seq_025_4
	.word	seq_025_5

	.end
