@ File generated by m4a2s Song-Module
	.include "MPlayDef.s"

	.equ	song_course_smk_donut_grp, bank_course_smk_donut
	.equ	song_course_smk_donut_pri, 0
	.equ	song_course_smk_donut_rev, 148
	.equ	song_course_smk_donut_mvl, 127
	.equ	song_course_smk_donut_key, 0

	.section .rodata
	.global	song_course_smk_donut
	.align	2

@*********************** Track 01 ***********************@

song_course_smk_donut_0:
	.byte	KEYSH , song_course_smk_donut_key+0
	.byte	TEMPO , 136/2
	.byte		VOICE , 12
	.byte		VOL   , 49*song_course_smk_donut_mvl/mxv
	.byte		PAN   , c_v+0
	.byte	W12
	.byte		N12   , Fn4 , v127
	.byte	W12
	.byte		        Gn4 
	.byte	W12
	.byte		        Gs4 
	.byte	W12
	.byte		N54   , As4 , v127
	.byte	W60
	.byte		N12   , Cn5 
	.byte	W12
	.byte		N06   , As4 
	.byte	W06
	.byte		        Gs4 
	.byte	W12
	.byte		N60   , As4 
	.byte	W06
	.byte	PEND
	.byte	W60
	.byte		N12   , Cn5 
	.byte	W12
	.byte		N06   , Dn5 
	.byte	W06
	.byte		        Ds5 
	.byte	W12
	.byte		N60
	.byte	W06
	.byte	W60
	.byte		N12   , Fn5 
	.byte	W12
	.byte		N06   , Ds5 
	.byte	W06
	.byte		        Dn5 
	.byte	W12
	.byte		N30   , As5 , v112
	.byte	W06
	.byte	W24
	.byte		N24   , Gs5 
	.byte	W24
	.byte		        Ds5 , v127
	.byte	W24
	.byte		        Cn5 
	.byte	W24
	.byte	PATT
	 .word	song_course_smk_donut_0 + 0x13
	.byte	W60
	.byte		VOICE , 0
	.byte		VOL   , 85*song_course_smk_donut_mvl/mxv
	.byte		N12   , As3 , v127
	.byte	W12
	.byte		        Cn4 
	.byte	W12
	.byte		        Dn4 
	.byte	W12
	.byte		N36   , Ds4 
	.byte	W36
	.byte		N06   , Gn3 , v104
	.byte	W06
	.byte		N05   , An3 , v108
	.byte	W12
	.byte		N24   , An3 , v127
	.byte	W30
	.byte		N12   , Cn4 , v120
	.byte	W12
	.byte		N09   , Ds4 , v127
	.byte	W12
	.byte		N09
	.byte	W12
	.byte		N12
	.byte	W12
	.byte		N06   , Gn3 , v116
	.byte	W06
	.byte		N05   , An3 , v120
	.byte	W12
	.byte		N18   , An3 , v127
	.byte	W18
	.byte		N06   , As3 
	.byte	W12
	.byte		        Bn3 
	.byte	W12
	.byte		N36   , Cn4 
	.byte	W36
	.byte		        As3 
	.byte	W36
	.byte		N24   , Fn3 
	.byte	W24
	.byte		        Gs3 
	.byte	W24
	.byte		        Gn3 
	.byte	W24
	.byte		        Fn3 
	.byte	W24
	.byte		        Gn3 
	.byte	W24
	.byte		N54   , Fn3 
	.byte	W60
	.byte		N12   , Gn3 
	.byte	W12
	.byte		N06   , Fn3 , v116
	.byte	W06
	.byte		        En3 , v100
	.byte	W10
	.byte		N60   , Fn3 , v127
	.byte	W08
	.byte	W60
	.byte		N12   , Gn3 
	.byte	W12
	.byte		N06   , Fn3 , v116
	.byte	W06
	.byte		N10   , En3 , v100
	.byte	W12
	.byte		        An3 , v127
	.byte	W06
	.byte	W06
	.byte		N06   , As3 
	.byte	W06
	.byte		        Cn4 
	.byte	W06
	.byte		        Ds4 
	.byte	W06
	.byte		        Dn4 
	.byte	W06
	.byte		        Fn3 , v112
	.byte	W06
	.byte		        Gn3 , v120
	.byte	W06
	.byte		        An3 , v127
	.byte	W06
	.byte		        Cn4 
	.byte	W06
	.byte		        As3 , v120
	.byte	W06
	.byte		        Gs3 , v112
	.byte	W06
	.byte		        Fn3 , v100
	.byte	W06
	.byte		        Gn3 , v120
	.byte	W06
	.byte		        Fn3 , v112
	.byte	W06
	.byte		        Ds3 , v100
	.byte	W06
	.byte		        Cs3 
	.byte	W06
	.byte		N72   , Cn3 , v127
	.byte	W78
	.byte		PAN   , c_v+0
	.byte		N06   , An2 , v112
	.byte	W06
	.byte		        Cn3 , v120
	.byte	W06
	.byte		        Fn3 , v127
	.byte	W06
	.byte		        Cn4 
	.byte	W06
	.byte		        An3 
	.byte	W06
	.byte		        As3 
	.byte	W06
	.byte		        Fs4 
	.byte	W06
	.byte		        Fn4 
	.byte	W06
	.byte		        An3 , v112
	.byte	W06
	.byte		        As3 , v120
	.byte	W06
	.byte		        Cn4 , v127
	.byte	W06
	.byte		        Ds4 
	.byte	W06
	.byte		        Cs4 , v120
	.byte	W06
	.byte		        As3 , v112
	.byte	W06
	.byte		        Gs3 , v100
	.byte	W06
	.byte		        Fn3 , v120
	.byte	W06
	.byte		        Ds3 , v112
	.byte	W06
	.byte		        Cs3 , v100
	.byte	W06
	.byte		        As2 
	.byte	W06
	.byte		N54   , Cn3 , v127
	.byte	W60
	.byte		N12   , Dn3 
	.byte	W12
	.byte		N06   , Cn3 , v116
	.byte	W06
	.byte		        As2 , v100
	.byte	W12
	.byte		N60   , Cn3 , v127
	.byte	W06
	.byte	W60
	.byte		N12   , Dn3 
	.byte	W12
	.byte		N07   , Cn3 , v116
	.byte	W06
	.byte		        As2 , v100
	.byte	W12
	.byte		N60   , Cn3 , v127
	.byte	W06
	.byte	W60
	.byte		VOICE , 12
	.byte		MOD   , 0
	.byte		VOL   , 49*song_course_smk_donut_mvl/mxv
	.byte		N12   , Fn4 
	.byte	W12
	.byte		        Gn4 
	.byte	W12
	.byte		        Gs4 
	.byte	W12
	.byte	GOTO
	 .word	song_course_smk_donut_0 + 0x13
	.byte	FINE

@*********************** Track 02 ***********************@

song_course_smk_donut_1:
	.byte	KEYSH , song_course_smk_donut_key+0
	.byte		VOICE , 34
	.byte		VOL   , 90*song_course_smk_donut_mvl/mxv
	.byte		PAN   , c_v+0
	.byte	W48
	.byte		N15   , Ds1 , v127
	.byte	W18
	.byte		        Gn1 
	.byte	W18
	.byte		N12   , As1 
	.byte	W12
	.byte		N15   , As0 
	.byte	W18
	.byte		        Fn1 
	.byte	W18
	.byte		N12   , As1 
	.byte	W12
	.byte	PEND
	.byte		N15   , Ds1 
	.byte	W18
	.byte		        Gn1 
	.byte	W18
	.byte		N12   , As1 
	.byte	W12
	.byte		N03   , As0 
	.byte	W06
	.byte		N09
	.byte	W12
	.byte		N03
	.byte	W06
	.byte		N09
	.byte	W12
	.byte		N10   , An0 
	.byte	W12
	.byte		N15   , Gs0 
	.byte	W18
	.byte		        Ds1 
	.byte	W18
	.byte		N12   , Cn2 
	.byte	W12
	.byte		N15   , Gn0 
	.byte	W18
	.byte		        Ds1 
	.byte	W18
	.byte		N12   , As1 
	.byte	W12
	.byte		N15   , Fn0 
	.byte	W18
	.byte		        Cn1 
	.byte	W18
	.byte		N12   , Gs1 
	.byte	W12
	.byte		N15   , As0 
	.byte	W18
	.byte		        Ds1 
	.byte	W18
	.byte		N12   , Bn1 
	.byte	W12
	.byte	PATT
	 .word	song_course_smk_donut_1 + 0x9
	.byte		N15   , Ds1 , v127
	.byte	W18
	.byte		        Gn1 
	.byte	W18
	.byte		N12   , As1 
	.byte	W12
	.byte		N03   , As0 
	.byte	W06
	.byte		N09
	.byte	W12
	.byte		N03
	.byte	W06
	.byte		N09
	.byte	W12
	.byte		N10   , Bn0 
	.byte	W12
	.byte		N15   , Cn1 , v127
	.byte	W18
	.byte		        Ds1 
	.byte	W18
	.byte		N12   , Gn1 
	.byte	W12
	.byte		        Fn1 
	.byte	W24
	.byte		N12
	.byte	W12
	.byte		        An0 
	.byte	W12
	.byte	PEND
	.byte	PATT
	 .word	song_course_smk_donut_1 + 0x69
	.byte		N15   , As0 , v127
	.byte	W18
	.byte		        Cs1 
	.byte	W18
	.byte		N12   , Fn1 
	.byte	W12
	.byte		N15   , As0 
	.byte	W24
	.byte		N12   , Fn1 
	.byte	W12
	.byte		        En1 
	.byte	W12
	.byte		        Ds1 
	.byte	W24
	.byte		N12
	.byte	W24
	.byte		N12
	.byte	W24
	.byte		N12
	.byte	W24
	.byte		N15   , Fn0 
	.byte	W18
	.byte		        Cn1 
	.byte	W18
	.byte		N12   , Fn1 
	.byte	W12
	.byte		N15   , Gn0 
	.byte	W18
	.byte		        Dn1 
	.byte	W18
	.byte		N12   , Gn1 
	.byte	W12
	.byte		N15   , An0 
	.byte	W18
	.byte		        Cn1 
	.byte	W18
	.byte		N12   , Fn1 
	.byte	W12
	.byte		N15   , As0 
	.byte	W18
	.byte		        Dn1 
	.byte	W18
	.byte		N12   , Fn1 
	.byte	W12
	.byte		N15   , An0 
	.byte	W18
	.byte		N12   , Dn1 
	.byte	W30
	.byte		N15   , Gn0 
	.byte	W18
	.byte		N12   , Cn1 
	.byte	W30
	.byte		N15   , Fn0 
	.byte	W18
	.byte		        Cn1 
	.byte	W18
	.byte		N12   , Fn1 
	.byte	W12
	.byte		N15   , Fn0 
	.byte	W18
	.byte		        Cn1 
	.byte	W18
	.byte		N12   , Fn1 
	.byte	W12
	.byte		N15   , An0 
	.byte	W18
	.byte		N12   , Gs0 
	.byte	W30
	.byte		N15   , Gn0 
	.byte	W18
	.byte		        Cs1 
	.byte	W18
	.byte		N12   , As0 
	.byte	W12
	.byte		N15   , An0 
	.byte	W18
	.byte		        Cn1 
	.byte	W18
	.byte		N12   , En1 
	.byte	W12
	.byte		N15   , Dn0 
	.byte	W18
	.byte		        An0 
	.byte	W18
	.byte		N12   , En1 
	.byte	W12
	.byte		N15   , Gn0 
	.byte	W18
	.byte		        As0 
	.byte	W18
	.byte		N12   , Dn1 
	.byte	W12
	.byte		N21   , Cn1 
	.byte	W24
	.byte		N09
	.byte	W12
	.byte		        Cs1 
	.byte	W12
	.byte		N12   , Dn1 
	.byte	W24
	.byte		N12
	.byte	W24
	.byte		        Gn0 
	.byte	W48
	.byte	GOTO
	 .word	song_course_smk_donut_1 + 0x9
	.byte	FINE

@*********************** Track 03 ***********************@

song_course_smk_donut_2:
	.byte	KEYSH , song_course_smk_donut_key+0
	.byte		PAN   , c_v+0
	.byte	W48
	.byte		VOICE , 123
	.byte		VOL   , 90*song_course_smk_donut_mvl/mxv
	.byte		N54   , Dn3 , v127
	.byte	W60
	.byte		N12   , Ds3 
	.byte	W12
	.byte		N06   , Dn3 
	.byte	W06
	.byte		        Cn3 
	.byte	W12
	.byte		N60   , Dn3 
	.byte	W06
	.byte	W60
	.byte		N12   , Gs3 
	.byte	W12
	.byte		N06   , As3 
	.byte	W06
	.byte		        Cn4 
	.byte	W12
	.byte		N60
	.byte	W06
	.byte	W60
	.byte		N12   , Dn4 
	.byte	W12
	.byte		N06   , Cn4 
	.byte	W06
	.byte		        As3 
	.byte	W12
	.byte		N30   , Gn4 , v100
	.byte	W06
	.byte	W24
	.byte		N24   , Fn4 
	.byte	W24
	.byte		N12   , Cn4 , v127
	.byte	W12
	.byte		        Fn3 
	.byte	W12
	.byte		        Gn3 
	.byte	W12
	.byte		        Gs3 
	.byte	W12
	.byte		N54   , Dn3 
	.byte	W60
	.byte		N12   , Ds3 
	.byte	W12
	.byte		N06   , Dn3 
	.byte	W06
	.byte		        Cn3 
	.byte	W12
	.byte		N60   , Dn3 
	.byte	W06
	.byte	W72
	.byte		VOICE , 124
	.byte	W24
	.byte		VOL   , 70*song_course_smk_donut_mvl/mxv
	.byte		N36   , Cn4 
	.byte	W36
	.byte		N06   , Ds3 , v104
	.byte	W06
	.byte		N05   , Fn3 , v108
	.byte	W12
	.byte		N24   , Fn3 , v127
	.byte	W30
	.byte		N12   , An3 , v120
	.byte	W12
	.byte		N09   , Cn4 , v127
	.byte	W12
	.byte		N09
	.byte	W12
	.byte		N12
	.byte	W12
	.byte		N06   , Ds3 , v116
	.byte	W06
	.byte		N05   , Fn3 , v120
	.byte	W12
	.byte		N18   , Fn3 , v127
	.byte	W18
	.byte		N06   , Gn3 
	.byte	W12
	.byte		        Gs3 
	.byte	W12
	.byte		N36
	.byte	W36
	.byte		        Fn3 
	.byte	W36
	.byte		N24   , Cs3 
	.byte	W24
	.byte		        Fn3 
	.byte	W24
	.byte		        Ds3 
	.byte	W24
	.byte		        Cs3 
	.byte	W24
	.byte		        Ds3 
	.byte	W24
	.byte		N48   , Cn3 
	.byte	W96
	.byte	W48
	.byte		VOICE , 124
	.byte	W42
	.byte		PAN   , c_v+0
	.byte		N10   , Fn3 
	.byte	W06
	.byte	W06
	.byte		N06   , Gn3 
	.byte	W06
	.byte		        An3 
	.byte	W06
	.byte		        Cn4 
	.byte	W06
	.byte		        As3 
	.byte	W06
	.byte		        Dn3 , v112
	.byte	W06
	.byte		        En3 , v120
	.byte	W06
	.byte		        Fn3 , v127
	.byte	W06
	.byte		        An3 
	.byte	W06
	.byte		        Gn3 , v120
	.byte	W06
	.byte		        Fn3 , v112
	.byte	W06
	.byte		        Cs3 , v100
	.byte	W06
	.byte		        Ds3 , v120
	.byte	W06
	.byte		        Cs3 , v112
	.byte	W06
	.byte		        Cn3 , v100
	.byte	W06
	.byte		        As2 
	.byte	W06
	.byte		N48   , An2 
	.byte	W78
	.byte		N06   , Fn2 , v127
	.byte	W06
	.byte		        An2 
	.byte	W06
	.byte		        Cn3 
	.byte	W06
	.byte		        An3 
	.byte	W06
	.byte		        Fn3 
	.byte	W06
	.byte		        Gn3 
	.byte	W06
	.byte		        Ds4 
	.byte	W06
	.byte		        Dn4 
	.byte	W06
	.byte		        Fn3 , v112
	.byte	W06
	.byte		        Gn3 , v120
	.byte	W06
	.byte		        An3 , v127
	.byte	W06
	.byte		        Cn4 
	.byte	W06
	.byte		        As3 , v120
	.byte	W06
	.byte		        Gn3 , v112
	.byte	W06
	.byte		        Fn3 , v100
	.byte	W06
	.byte		        Cs3 , v120
	.byte	W06
	.byte		        Cn3 , v112
	.byte	W06
	.byte		        As2 , v100
	.byte	W06
	.byte		        Gn2 
	.byte	W06
	.byte		N48   , An2 , v127
	.byte	W96
	.byte	W96
	.byte	W96
	.byte	GOTO
	 .word	song_course_smk_donut_2 + 0x5
	.byte	FINE

@*********************** Track 04 ***********************@

song_course_smk_donut_3:
	.byte	KEYSH , song_course_smk_donut_key+0
	.byte		VOICE , 122
	.byte		PAN   , c_v+63
	.byte		VOL   , 56*song_course_smk_donut_mvl/mxv
	.byte	W48
	.byte	W12
	.byte		N06   , Dn3 , v100
	.byte	W12
	.byte		N06
	.byte	W18
	.byte		        Ds3 
	.byte	W12
	.byte		N06
	.byte	W12
	.byte		N06
	.byte	W06
	.byte		        Fn3 
	.byte	W12
	.byte		        Ds3 
	.byte	W12
	.byte	PEND
	.byte	W12
	.byte		N06   , Dn3 , v100
	.byte	W12
	.byte		N06
	.byte	W18
	.byte		        Ds3 
	.byte	W12
	.byte		N06
	.byte	W12
	.byte		N06
	.byte	W06
	.byte		N06
	.byte	W12
	.byte		        Fn3 
	.byte	W12
	.byte	PEND
	.byte	W12
	.byte		        Gn3 
	.byte	W12
	.byte		        Ds3 
	.byte	W18
	.byte		        Fn3 
	.byte	W12
	.byte		N06
	.byte	W12
	.byte		N06
	.byte	W06
	.byte		        Ds3 
	.byte	W24
	.byte	W12
	.byte		N06
	.byte	W12
	.byte		N06
	.byte	W18
	.byte		N06
	.byte	W12
	.byte		N06
	.byte	W12
	.byte		N06
	.byte	W06
	.byte		N06
	.byte	W24
	.byte	PATT
	 .word	song_course_smk_donut_3 + 0x9
	.byte	PATT
	 .word	song_course_smk_donut_3 + 0x1B
	.byte	W12
	.byte		N06   , Gn3 , v100
	.byte	W12
	.byte		N06
	.byte	W18
	.byte		N06
	.byte	W12
	.byte		N06
	.byte	W12
	.byte		N06
	.byte	W06
	.byte		N06
	.byte	W24
	.byte	PEND
	.byte	PATT
	 .word	song_course_smk_donut_3 + 0x51
	.byte		N06   , Fn3 , v100
	.byte	W18
	.byte		N06
	.byte	W06
	.byte		N06
	.byte	W18
	.byte		N06
	.byte	W12
	.byte		N06
	.byte	W12
	.byte		N06
	.byte	W06
	.byte		N06
	.byte	W12
	.byte		N06
	.byte	W12
	.byte		N06
	.byte	W24
	.byte		N06
	.byte	W24
	.byte		N06
	.byte	W24
	.byte		N06
	.byte	W24
	.byte		        Cn3 
	.byte	W12
	.byte		N06
	.byte	W12
	.byte		N06
	.byte	W18
	.byte		        Dn3 
	.byte	W12
	.byte		N06
	.byte	W12
	.byte		N06
	.byte	W06
	.byte		N06
	.byte	W12
	.byte		N06
	.byte	W12
	.byte		        En3 
	.byte	W12
	.byte		N06
	.byte	W12
	.byte		N06
	.byte	W18
	.byte		        Fn3 
	.byte	W12
	.byte		N06
	.byte	W12
	.byte		N06
	.byte	W06
	.byte		N06
	.byte	W12
	.byte		N06
	.byte	W12
	.byte		        En3 
	.byte	W18
	.byte		N06
	.byte	W30
	.byte		        Dn3 
	.byte	W18
	.byte		        Ds3 
	.byte	W30
	.byte		        En3 
	.byte	W12
	.byte		N06
	.byte	W12
	.byte		        Dn3 
	.byte	W18
	.byte		        En3 
	.byte	W12
	.byte		N06
	.byte	W12
	.byte		N06
	.byte	W06
	.byte		        Dn3 
	.byte	W12
	.byte		N06
	.byte	W12
	.byte		        Gn3 
	.byte	W18
	.byte		        Fs3 
	.byte	W30
	.byte		        Fn3 
	.byte	W18
	.byte		        En3 
	.byte	W30
	.byte	W12
	.byte		N06
	.byte	W12
	.byte		N06
	.byte	W18
	.byte		N06
	.byte	W12
	.byte		N06
	.byte	W12
	.byte		N06
	.byte	W06
	.byte		N06
	.byte	W12
	.byte		N06
	.byte	W12
	.byte	W12
	.byte		        Dn3 
	.byte	W12
	.byte		N06
	.byte	W18
	.byte		N06
	.byte	W12
	.byte		N06
	.byte	W12
	.byte		N06
	.byte	W06
	.byte		N06
	.byte	W12
	.byte		N06
	.byte	W12
	.byte	W12
	.byte		        Cn3 
	.byte	W12
	.byte		N06
	.byte	W18
	.byte		N06
	.byte	W12
	.byte		N06
	.byte	W12
	.byte		N06
	.byte	W06
	.byte		N06
	.byte	W12
	.byte		N06
	.byte	W12
	.byte	GOTO
	 .word	song_course_smk_donut_3 + 0x9
	.byte	FINE

@*********************** Track 05 ***********************@

song_course_smk_donut_4:
	.byte	KEYSH , song_course_smk_donut_key+0
	.byte		VOICE , 121
	.byte		PAN   , c_v-64
	.byte		VOL   , 56*song_course_smk_donut_mvl/mxv
	.byte	W48
	.byte	W12
	.byte		N06   , Gn2 , v100
	.byte	W12
	.byte		N06
	.byte	W18
	.byte		        Gs2 
	.byte	W12
	.byte		N06
	.byte	W12
	.byte		N06
	.byte	W06
	.byte		N06
	.byte	W12
	.byte		N06
	.byte	W12
	.byte	PEND
	.byte	W12
	.byte		        Gn2 
	.byte	W12
	.byte		N06
	.byte	W18
	.byte		        Gs2 
	.byte	W12
	.byte		N06
	.byte	W12
	.byte		N06
	.byte	W06
	.byte		N06
	.byte	W12
	.byte		        Gn2 
	.byte	W12
	.byte	W12
	.byte		        Ds3 
	.byte	W12
	.byte		        Cn3 
	.byte	W18
	.byte		        Dn3 
	.byte	W12
	.byte		N06
	.byte	W12
	.byte		N06
	.byte	W06
	.byte		        As2 
	.byte	W24
	.byte	W12
	.byte		        Gs2 
	.byte	W12
	.byte		N06
	.byte	W18
	.byte		N06
	.byte	W12
	.byte		N06
	.byte	W12
	.byte		N06
	.byte	W06
	.byte		N06
	.byte	W24
	.byte	PATT
	 .word	song_course_smk_donut_4 + 0x9
	.byte	PATT
	 .word	song_course_smk_donut_4 + 0x9
	.byte	W12
	.byte		N06   , As2 , v100
	.byte	W12
	.byte		N06
	.byte	W18
	.byte		        An2 
	.byte	W12
	.byte		N06
	.byte	W12
	.byte		N06
	.byte	W06
	.byte		N06
	.byte	W24
	.byte	PEND
	.byte	PATT
	 .word	song_course_smk_donut_4 + 0x4E
	.byte		N06   , Gs2 , v100
	.byte	W18
	.byte		N06
	.byte	W06
	.byte		N06
	.byte	W18
	.byte		N06
	.byte	W12
	.byte		N06
	.byte	W12
	.byte		N06
	.byte	W06
	.byte		N06
	.byte	W12
	.byte		N06
	.byte	W12
	.byte		N06
	.byte	W24
	.byte		N06
	.byte	W24
	.byte		N06
	.byte	W24
	.byte		N06
	.byte	W24
	.byte		        An2 
	.byte	W12
	.byte		N06
	.byte	W12
	.byte		N06
	.byte	W18
	.byte		        As2 
	.byte	W12
	.byte		N06
	.byte	W12
	.byte		N06
	.byte	W06
	.byte		N06
	.byte	W12
	.byte		N06
	.byte	W12
	.byte		        Cn3 
	.byte	W12
	.byte		N06
	.byte	W12
	.byte		N06
	.byte	W18
	.byte		        Dn3 
	.byte	W12
	.byte		N06
	.byte	W12
	.byte		N06
	.byte	W06
	.byte		N06
	.byte	W12
	.byte		N06
	.byte	W12
	.byte		        Cn3 
	.byte	W18
	.byte		N06
	.byte	W30
	.byte		        As2 
	.byte	W18
	.byte		N06
	.byte	W30
	.byte		        Cn3 
	.byte	W12
	.byte		N06
	.byte	W12
	.byte		N06
	.byte	W18
	.byte		N06
	.byte	W12
	.byte		N06
	.byte	W12
	.byte		N06
	.byte	W06
	.byte		N06
	.byte	W12
	.byte		N06
	.byte	W12
	.byte		        En3 
	.byte	W18
	.byte		        Ds3 
	.byte	W30
	.byte		        Dn3 
	.byte	W18
	.byte		        Cn3 
	.byte	W30
	.byte	W12
	.byte		N06
	.byte	W12
	.byte		N06
	.byte	W18
	.byte		N06
	.byte	W12
	.byte		N06
	.byte	W12
	.byte		N06
	.byte	W06
	.byte		N06
	.byte	W12
	.byte		N06
	.byte	W12
	.byte	W12
	.byte		        As2 
	.byte	W12
	.byte		N06
	.byte	W18
	.byte		N06
	.byte	W12
	.byte		N06
	.byte	W12
	.byte		N06
	.byte	W06
	.byte		N06
	.byte	W12
	.byte		N06
	.byte	W12
	.byte	W12
	.byte		        An2 
	.byte	W12
	.byte		N06
	.byte	W18
	.byte		N06
	.byte	W12
	.byte		N06
	.byte	W12
	.byte		N06
	.byte	W06
	.byte		N06
	.byte	W12
	.byte		N06
	.byte	W12
	.byte	GOTO
	 .word	song_course_smk_donut_4 + 0x9
	.byte	FINE

@*********************** Track 06 ***********************@

song_course_smk_donut_5:
	.byte	KEYSH , song_course_smk_donut_key+0
	.byte		VOICE , 125
	.byte		VOL   , 77*song_course_smk_donut_mvl/mxv
	.byte		PAN   , c_v+0
	.byte	W48
	.byte		N48   , Gs3 , v056
	.byte	W54
	.byte		N04
	.byte	W06
	.byte		N04
	.byte	W06
	.byte		N04
	.byte	W06
	.byte		N10
	.byte	W12
	.byte		N04   , Ds3 
	.byte	W06
	.byte		N04
	.byte	W06
	.byte		N48   , Gs3 
	.byte	W96
	.byte	W12
	.byte		N10
	.byte	W12
	.byte		N10
	.byte	W12
	.byte		N04   , Ds3 
	.byte	W24
	.byte		N10   , Gs3 
	.byte	W12
	.byte		N10
	.byte	W12
	.byte		N04   , Ds3 
	.byte	W06
	.byte		N04
	.byte	W06
	.byte	W96
	.byte		N32   , Gs3 
	.byte	W36
	.byte		N04   , Ds3 
	.byte	W06
	.byte		N04
	.byte	W12
	.byte		        Gs3 
	.byte	W06
	.byte		N04
	.byte	W06
	.byte		N04
	.byte	W06
	.byte		N10
	.byte	W12
	.byte		N04   , Ds3 
	.byte	W06
	.byte		N04
	.byte	W06
	.byte		N48   , Gs3 
	.byte	W96
	.byte	W96
	.byte	W96
	.byte	W96
	.byte	W96
	.byte		N32
	.byte	W36
	.byte		N04   , Ds3 
	.byte	W06
	.byte		N04
	.byte	W12
	.byte		N10   , Gs3 
	.byte	W12
	.byte		N04
	.byte	W06
	.byte		N10
	.byte	W12
	.byte		N10
	.byte	W12
	.byte	W06
	.byte		N10
	.byte	W12
	.byte		N04
	.byte	W06
	.byte		N10
	.byte	W12
	.byte		N04
	.byte	W06
	.byte		N04
	.byte	W06
	.byte		N32   , Ds3 
	.byte	W48
	.byte	W96
	.byte		N15   , Gs3 
	.byte	W18
	.byte		N04
	.byte	W06
	.byte		N10
	.byte	W18
	.byte		N04
	.byte	W12
	.byte		N04
	.byte	W12
	.byte		N04
	.byte	W06
	.byte		N24
	.byte	W24
	.byte	W96
	.byte		N32
	.byte	W36
	.byte		N04   , Ds3 
	.byte	W06
	.byte		N04
	.byte	W06
	.byte		N36
	.byte	W48
	.byte		N48   , Gs3 
	.byte	W96
	.byte	W96
	.byte	GOTO
	 .word	song_course_smk_donut_5 + 0x9
	.byte	FINE

@*********************** Track 07 ***********************@

song_course_smk_donut_6:
	.byte	KEYSH , song_course_smk_donut_key+0
	.byte		VOICE , 127
	.byte		VOL   , 90*song_course_smk_donut_mvl/mxv
	.byte		PAN   , c_v+0
	.byte	W48
	.byte		N06   , Cs3 , v096
	.byte	W06
	.byte		        Cn3 , v108
	.byte	W06
	.byte		        Cn3 , v116
	.byte	W24
	.byte		        Cs3 , v108
	.byte	W06
	.byte		N06
	.byte	W12
	.byte		        Cn3 , v096
	.byte	W06
	.byte		        Cn3 , v108
	.byte	W06
	.byte		        Cn3 , v116
	.byte	W06
	.byte		N06
	.byte	W12
	.byte		        Cs3 , v108
	.byte	W06
	.byte		N06
	.byte	W06
	.byte	PEND
	.byte	PATT
	 .word	song_course_smk_donut_6 + 0x9
	.byte	PATT
	 .word	song_course_smk_donut_6 + 0x9
	.byte		N06   , Cs3 , v096
	.byte	W06
	.byte		        Cn3 , v108
	.byte	W06
	.byte		        Cn3 , v116
	.byte	W24
	.byte		        Cs3 , v108
	.byte	W06
	.byte		N06
	.byte	W12
	.byte		        Cn3 , v096
	.byte	W06
	.byte		        Cn3 , v108
	.byte	W06
	.byte		        Cn3 , v116
	.byte	W06
	.byte		N06
	.byte	W12
	.byte		N06
	.byte	W12
	.byte	PEND
	.byte	PATT
	 .word	song_course_smk_donut_6 + 0x9
	.byte	PATT
	 .word	song_course_smk_donut_6 + 0x9
	.byte	PATT
	 .word	song_course_smk_donut_6 + 0x9
	.byte	PATT
	 .word	song_course_smk_donut_6 + 0x9
	.byte	PATT
	 .word	song_course_smk_donut_6 + 0x9
	.byte		N06   , Cs3 , v096
	.byte	W06
	.byte		N12   , Fn3 , v108
	.byte	W12
	.byte		N06
	.byte	W06
	.byte		        Fn3 , v088
	.byte	W06
	.byte		        Fn3 , v096
	.byte	W06
	.byte		N12   , Fn3 , v108
	.byte	W18
	.byte		N06
	.byte	W06
	.byte		        Fn3 , v088
	.byte	W06
	.byte		        Fn3 , v108
	.byte	W06
	.byte		        Fn3 , v088
	.byte	W06
	.byte		        Fn3 , v096
	.byte	W06
	.byte		        Fn3 , v108
	.byte	W06
	.byte		        Fn3 , v116
	.byte	W06
	.byte	PATT
	 .word	song_course_smk_donut_6 + 0x9
	.byte	PATT
	 .word	song_course_smk_donut_6 + 0x9
	.byte	PATT
	 .word	song_course_smk_donut_6 + 0x9
	.byte	PATT
	 .word	song_course_smk_donut_6 + 0x33
	.byte	PATT
	 .word	song_course_smk_donut_6 + 0x9
	.byte	PATT
	 .word	song_course_smk_donut_6 + 0x9
	.byte	PATT
	 .word	song_course_smk_donut_6 + 0x9
	.byte	W06
	.byte		N06   , Cn3 , v108
	.byte		N12   , Fn3 , v100
	.byte	W12
	.byte		N06   , Cn3 , v108
	.byte		N06   , Fn3 , v100
	.byte	W06
	.byte		        Cn3 , v088
	.byte		N06   , Fn3 , v080
	.byte	W06
	.byte		        Cn3 , v096
	.byte		N06   , Fn3 , v092
	.byte	W06
	.byte		        Cn3 , v108
	.byte		N12   , Fn3 , v100
	.byte	W18
	.byte		N06   , Cn3 , v108
	.byte		N06   , Fn3 , v100
	.byte	W06
	.byte		        Cn3 , v088
	.byte		N06   , Fn3 , v080
	.byte	W06
	.byte		        Cn3 , v108
	.byte		N06   , Fn3 , v100
	.byte	W06
	.byte		        Cn3 , v088
	.byte		N06   , Fn3 , v080
	.byte	W06
	.byte		        Cn3 , v096
	.byte		N06   , Fn3 , v092
	.byte	W06
	.byte		        Cn3 , v108
	.byte		N06   , Fn3 , v100
	.byte	W06
	.byte		        Cn3 , v116
	.byte		N06   , Fn3 , v108
	.byte	W06
	.byte	GOTO
	 .word	song_course_smk_donut_6 + 0x9
	.byte	FINE

@******************************************************@

	.align	2

song_course_smk_donut:
	.byte	7	@ NumTrks
	.byte	0	@ NumBlks
	.byte	song_course_smk_donut_pri	@ Priority
	.byte	song_course_smk_donut_rev	@ Reverb

	.word	song_course_smk_donut_grp

	.word	song_course_smk_donut_0
	.word	song_course_smk_donut_1
	.word	song_course_smk_donut_2
	.word	song_course_smk_donut_3
	.word	song_course_smk_donut_4
	.word	song_course_smk_donut_5
	.word	song_course_smk_donut_6

	.end
