@ File generated by m4a2s Song-Module
	.include "MPlayDef.s"

	.equ	song_course_smk_ghost_grp, bank_course_smk_ghost
	.equ	song_course_smk_ghost_pri, 0
	.equ	song_course_smk_ghost_rev, 178
	.equ	song_course_smk_ghost_mvl, 127
	.equ	song_course_smk_ghost_key, 0

	.section .rodata
	.global	song_course_smk_ghost
	.align	2

@*********************** Track 01 ***********************@

song_course_smk_ghost_0:
	.byte	KEYSH , song_course_smk_ghost_key+0
	.byte	TEMPO , 114/2
	.byte		VOICE , 30
	.byte		VOL   , 110*song_course_smk_ghost_mvl/mxv
	.byte		BENDR , 5
	.byte		PAN   , c_v+0
	.byte		BEND  , c_v+0
	.byte	W12
	.byte		TIE   , Gn3 , v060
	.byte	W06
	.byte		BEND  , c_v+0
	.byte	W06
	.byte		        c_v+0
	.byte	W02
	.byte		        c_v-1
	.byte	W03
	.byte		        c_v-2
	.byte	W03
	.byte		        c_v-4
	.byte	W03
	.byte		        c_v-6
	.byte	W03
	.byte		        c_v-9
	.byte	W03
	.byte		        c_v-13
	.byte	W03
	.byte		        c_v-17
	.byte	W03
	.byte		        c_v-22
	.byte	W03
	.byte		        c_v-28
	.byte	W03
	.byte		        c_v-34
	.byte	W02
	.byte		        c_v-41
	.byte	W03
	.byte		        c_v-49
	.byte	W03
	.byte		        c_v-58
	.byte	W03
	.byte		        c_v-64
	.byte	W13
	.byte		VOL   , 108*song_course_smk_ghost_mvl/mxv
	.byte	W06
	.byte		        105*song_course_smk_ghost_mvl/mxv
	.byte	W06
	.byte		        100*song_course_smk_ghost_mvl/mxv
	.byte	W06
	.byte		        92*song_course_smk_ghost_mvl/mxv
	.byte	W01
	.byte	W05
	.byte		        83*song_course_smk_ghost_mvl/mxv
	.byte	W06
	.byte		        71*song_course_smk_ghost_mvl/mxv
	.byte	W05
	.byte		        58*song_course_smk_ghost_mvl/mxv
	.byte	W06
	.byte		        43*song_course_smk_ghost_mvl/mxv
	.byte	W06
	.byte		        25*song_course_smk_ghost_mvl/mxv
	.byte	W06
	.byte		        6*song_course_smk_ghost_mvl/mxv
	.byte	W02
	.byte		EOT
	.byte		VOICE , 12
	.byte		BEND  , c_v+0
	.byte	W06
	.byte		VOL   , 25*song_course_smk_ghost_mvl/mxv
	.byte		N06   , Bn5 , v032
	.byte	W06
	.byte		N06   , Cs6 , v032
	.byte	W06
	.byte		        An5 
	.byte	W06
	.byte		        Cs6 , v036
	.byte	W06
	.byte		        Bn5 , v040
	.byte	W06
	.byte		        Cs6 , v044
	.byte	W06
	.byte		        An5 , v048
	.byte	W06
	.byte		        Cs6 , v056
	.byte	W06
	.byte		        Bn5 , v064
	.byte	W06
	.byte		        Cs6 , v072
	.byte	W06
	.byte		        An5 , v080
	.byte	W06
	.byte		        Cs6 , v092
	.byte	W06
	.byte		        Bn5 , v096
	.byte	W06
	.byte		        Cs6 , v100
	.byte	W06
	.byte		        An5 
	.byte	W06
	.byte		        Cs6 
	.byte	W06
	.byte		        Bn5 
	.byte	W06
	.byte		        Cs6 
	.byte	W06
	.byte		        An5 
	.byte	W06
	.byte		        Cs6 
	.byte	W06
	.byte		        Bn5 
	.byte	W06
	.byte		        Cs6 
	.byte	W06
	.byte		        An5 , v096
	.byte	W06
	.byte		        Cs6 , v092
	.byte	W06
	.byte		        Bn5 , v080
	.byte	W06
	.byte		        Cs6 , v072
	.byte	W06
	.byte		        An5 , v060
	.byte	W06
	.byte		        Cs6 , v052
	.byte	W06
	.byte		        Bn5 , v048
	.byte	W06
	.byte		        Cs6 , v040
	.byte	W06
	.byte		        An5 , v036
	.byte	W06
	.byte		        Cs6 , v032
	.byte	W12
	.byte		        Cn6 
	.byte	W06
	.byte		        Gs5 
	.byte	W06
	.byte		        Cn6 
	.byte	W06
	.byte		        As5 , v036
	.byte	W06
	.byte		        Cn6 , v040
	.byte	W06
	.byte		        Gs5 , v048
	.byte	W06
	.byte		        Cn6 , v052
	.byte	W06
	.byte		        As5 , v060
	.byte	W06
	.byte		N06   , Cn6 , v072
	.byte	W06
	.byte		        Gs5 , v080
	.byte	W06
	.byte		        Cn6 , v092
	.byte	W06
	.byte		        As5 , v096
	.byte	W06
	.byte		        Cn6 , v100
	.byte	W06
	.byte		        Gs5 
	.byte	W06
	.byte		        Cn6 
	.byte	W06
	.byte		        As5 
	.byte	W06
	.byte		        Cn6 
	.byte	W06
	.byte		        Gs5 
	.byte	W06
	.byte		        Cn6 
	.byte	W06
	.byte		        As5 
	.byte	W06
	.byte		        Cn6 
	.byte	W06
	.byte		        Gs5 , v096
	.byte	W06
	.byte		        Cn6 , v092
	.byte	W06
	.byte		        As5 , v080
	.byte	W06
	.byte	PEND
	.byte		N06   , Cn6 , v072
	.byte	W06
	.byte		        Gs5 , v060
	.byte	W06
	.byte		        Cn6 , v052
	.byte	W06
	.byte		        As5 , v048
	.byte	W06
	.byte		        Cn6 , v040
	.byte	W06
	.byte		        Gs5 , v036
	.byte	W06
	.byte		        Cn6 , v032
	.byte	W06
	.byte		N06
	.byte	W06
	.byte		N06
	.byte	W06
	.byte		        Dn6 
	.byte	W06
	.byte		        As5 
	.byte	W06
	.byte		        Dn6 , v036
	.byte	W06
	.byte		        Cn6 , v040
	.byte	W06
	.byte		        Dn6 , v048
	.byte	W06
	.byte		        As5 , v052
	.byte	W06
	.byte		        Dn6 , v060
	.byte	W06
	.byte	PEND
	.byte		        Cn6 , v072
	.byte	W06
	.byte		        Dn6 , v080
	.byte	W06
	.byte		        As5 , v092
	.byte	W06
	.byte		        Dn6 , v096
	.byte	W06
	.byte		        Cn6 , v100
	.byte	W06
	.byte		        Dn6 
	.byte	W06
	.byte		        As5 
	.byte	W06
	.byte		        Dn6 
	.byte	W06
	.byte		        Cn6 
	.byte	W06
	.byte		        Dn6 
	.byte	W06
	.byte		        As5 
	.byte	W06
	.byte		        Dn6 
	.byte	W06
	.byte		        Cn6 
	.byte	W06
	.byte		        Dn6 , v096
	.byte	W06
	.byte		        As5 , v092
	.byte	W06
	.byte		        Dn6 , v084
	.byte	W06
	.byte		N06   , Cn6 , v072
	.byte	W06
	.byte		        Dn6 , v060
	.byte	W06
	.byte		        As5 , v052
	.byte	W06
	.byte		        Dn6 , v048
	.byte	W06
	.byte		        Cn6 , v040
	.byte	W06
	.byte		        Dn6 , v036
	.byte	W06
	.byte		        As5 , v032
	.byte	W06
	.byte		        Dn6 
	.byte	W06
	.byte		N06
	.byte	W06
	.byte		        En6 
	.byte	W06
	.byte		        Cn6 
	.byte	W06
	.byte		        En6 , v036
	.byte	W06
	.byte		        Dn6 , v040
	.byte	W06
	.byte		        En6 , v048
	.byte	W06
	.byte		        Cn6 , v052
	.byte	W06
	.byte		        En6 , v060
	.byte	W06
	.byte	PEND
	.byte		N06   , Dn6 , v072
	.byte	W06
	.byte		        En6 , v080
	.byte	W06
	.byte		        Cn6 , v092
	.byte	W06
	.byte		        En6 , v096
	.byte	W06
	.byte		        Dn6 , v100
	.byte	W06
	.byte		        En6 
	.byte	W06
	.byte		        Cn6 
	.byte	W06
	.byte		        En6 
	.byte	W06
	.byte		        Dn6 
	.byte	W06
	.byte		        En6 
	.byte	W06
	.byte		        Cn6 
	.byte	W06
	.byte		        En6 
	.byte	W06
	.byte		        Dn6 
	.byte	W06
	.byte		        En6 , v096
	.byte	W06
	.byte		        Cn6 , v092
	.byte	W06
	.byte		        En6 , v080
	.byte	W06
	.byte	PEND
	.byte		        Dn6 , v072
	.byte	W06
	.byte		        En6 , v060
	.byte	W06
	.byte		        Cn6 , v052
	.byte	W06
	.byte		        En6 , v048
	.byte	W06
	.byte		        Dn6 , v040
	.byte	W06
	.byte		        En6 , v036
	.byte	W06
	.byte		        Cn6 , v032
	.byte	W06
	.byte		        En6 
	.byte	W06
	.byte		        Cn6 
	.byte	W06
	.byte		        Gs5 
	.byte	W06
	.byte		        Cn6 
	.byte	W06
	.byte		        As5 , v036
	.byte	W06
	.byte		        Cn6 , v040
	.byte	W06
	.byte		        Gs5 , v048
	.byte	W06
	.byte		        Cn6 , v052
	.byte	W06
	.byte		        As5 , v060
	.byte	W06
	.byte	PATT
	 .word	song_course_smk_ghost_0 + 0xC0
	.byte	PATT
	 .word	song_course_smk_ghost_0 + 0xEA
	.byte		N06   , Cn6 , v072
	.byte	W06
	.byte		        Dn6 , v084
	.byte	W06
	.byte		        As5 , v092
	.byte	W06
	.byte		        Dn6 , v096
	.byte	W06
	.byte		        Cn6 , v100
	.byte	W06
	.byte		        Dn6 
	.byte	W06
	.byte		        As5 
	.byte	W06
	.byte		        Dn6 
	.byte	W06
	.byte		        Cn6 
	.byte	W06
	.byte		        Dn6 
	.byte	W06
	.byte		        As5 
	.byte	W06
	.byte		        Dn6 
	.byte	W06
	.byte		        Cn6 
	.byte	W06
	.byte		        Dn6 , v096
	.byte	W06
	.byte		        As5 , v092
	.byte	W06
	.byte		        Dn6 , v080
	.byte	W06
	.byte	PATT
	 .word	song_course_smk_ghost_0 + 0x140
	.byte	PATT
	 .word	song_course_smk_ghost_0 + 0x16E
	.byte		N06   , Dn6 , v072
	.byte	W06
	.byte		        En6 , v060
	.byte	W06
	.byte		        Cn6 , v052
	.byte	W06
	.byte		        En6 , v048
	.byte	W06
	.byte		        Dn6 , v040
	.byte	W06
	.byte		        En6 , v036
	.byte	W06
	.byte		        Cn6 , v032
	.byte	W06
	.byte		        En6 
	.byte	W06
	.byte		N06
	.byte	W06
	.byte		        Fs6 
	.byte	W06
	.byte		        Dn6 
	.byte	W06
	.byte		        Fs6 , v036
	.byte	W06
	.byte		        En6 , v040
	.byte	W06
	.byte		        Fs6 , v048
	.byte	W06
	.byte		        Dn6 , v052
	.byte	W06
	.byte		        Fs6 , v060
	.byte	W06
	.byte		        En6 , v072
	.byte	W06
	.byte		        Fs6 , v080
	.byte	W06
	.byte		        Dn6 , v092
	.byte	W06
	.byte		        Fs6 , v096
	.byte	W06
	.byte		        En6 , v100
	.byte	W06
	.byte		        Fs6 
	.byte	W06
	.byte		        Dn6 
	.byte	W06
	.byte		        Fs6 
	.byte	W06
	.byte		        En6 
	.byte	W06
	.byte		        Fs6 
	.byte	W06
	.byte		        Dn6 
	.byte	W06
	.byte		        Fs6 
	.byte	W06
	.byte		        En6 
	.byte	W06
	.byte		        Fs6 , v096
	.byte	W06
	.byte		        Dn6 , v092
	.byte	W06
	.byte		        Fs6 , v080
	.byte	W06
	.byte		        En6 , v072
	.byte	W06
	.byte		        Fs6 , v060
	.byte	W06
	.byte		        Dn6 , v052
	.byte	W06
	.byte		        Fs6 , v048
	.byte	W06
	.byte		        En6 , v040
	.byte	W06
	.byte		        Fs6 , v036
	.byte	W06
	.byte		        Dn6 , v032
	.byte	W06
	.byte		        Fs6 
	.byte	W06
	.byte	GOTO
	 .word	song_course_smk_ghost_0 + 0x56
	.byte	FINE

@*********************** Track 02 ***********************@

song_course_smk_ghost_1:
	.byte	KEYSH , song_course_smk_ghost_key+0
	.byte		VOICE , 30
	.byte		VOL   , 110*song_course_smk_ghost_mvl/mxv
	.byte		BENDR , 5
	.byte		PAN   , c_v-64
	.byte		BEND  , c_v+0
	.byte	W12
	.byte		TIE   , An1 , v060
	.byte	W06
	.byte		BEND  , c_v+0
	.byte	W06
	.byte		        c_v+0
	.byte	W02
	.byte		        c_v-1
	.byte	W03
	.byte		        c_v-2
	.byte	W03
	.byte		        c_v-4
	.byte	W03
	.byte		        c_v-6
	.byte	W03
	.byte		        c_v-9
	.byte	W03
	.byte		        c_v-13
	.byte	W03
	.byte		        c_v-17
	.byte	W03
	.byte		        c_v-22
	.byte	W03
	.byte		        c_v-28
	.byte	W03
	.byte		        c_v-34
	.byte	W02
	.byte		        c_v-41
	.byte	W03
	.byte		        c_v-49
	.byte	W03
	.byte		        c_v-58
	.byte	W03
	.byte		        c_v-64
	.byte	W13
	.byte		VOL   , 108*song_course_smk_ghost_mvl/mxv
	.byte	W06
	.byte		        105*song_course_smk_ghost_mvl/mxv
	.byte	W06
	.byte		        100*song_course_smk_ghost_mvl/mxv
	.byte	W06
	.byte		        92*song_course_smk_ghost_mvl/mxv
	.byte	W01
	.byte	W05
	.byte		        83*song_course_smk_ghost_mvl/mxv
	.byte	W06
	.byte		        71*song_course_smk_ghost_mvl/mxv
	.byte	W05
	.byte		        58*song_course_smk_ghost_mvl/mxv
	.byte	W06
	.byte		        43*song_course_smk_ghost_mvl/mxv
	.byte	W06
	.byte		        25*song_course_smk_ghost_mvl/mxv
	.byte	W06
	.byte		        6*song_course_smk_ghost_mvl/mxv
	.byte	W02
	.byte		EOT
	.byte		VOICE , 112
	.byte		BEND  , c_v+0
	.byte	W06
	.byte		VOL   , 34*song_course_smk_ghost_mvl/mxv
	.byte		N06   , Bn4 , v040
	.byte	W06
	.byte		PAN   , c_v-64
	.byte		N06   , Cs5 , v040
	.byte	W06
	.byte		        An4 
	.byte	W06
	.byte		        Cs5 , v044
	.byte	W06
	.byte		        Bn4 
	.byte	W06
	.byte		        Cs5 , v048
	.byte	W06
	.byte		        An4 
	.byte	W06
	.byte		        Cs5 , v052
	.byte	W06
	.byte		        Bn4 , v056
	.byte	W06
	.byte		        Cs5 , v060
	.byte	W06
	.byte		        An4 , v072
	.byte	W06
	.byte		        Cs5 , v084
	.byte	W06
	.byte		        Bn4 , v092
	.byte	W06
	.byte		        Cs5 , v100
	.byte	W06
	.byte		        An4 , v104
	.byte	W06
	.byte		        Cs5 , v108
	.byte	W06
	.byte		        Bn4 , v112
	.byte	W06
	.byte		        Cs5 
	.byte	W06
	.byte		        An4 
	.byte	W06
	.byte		        Cs5 , v108
	.byte	W06
	.byte		        Bn4 , v104
	.byte	W06
	.byte		        Cs5 , v100
	.byte	W06
	.byte		        An4 , v092
	.byte	W06
	.byte		        Cs5 , v084
	.byte	W06
	.byte		        Bn4 , v072
	.byte	W06
	.byte		        Cs5 , v060
	.byte	W06
	.byte		        An4 , v056
	.byte	W06
	.byte		        Cs5 , v052
	.byte	W06
	.byte		        Bn4 , v048
	.byte	W06
	.byte		        Cs5 
	.byte	W06
	.byte		        An4 , v044
	.byte	W06
	.byte		        Cs5 
	.byte	W12
	.byte		PAN   , c_v+63
	.byte		N06   , Cn5 , v040
	.byte	W06
	.byte		        Gs4 
	.byte	W06
	.byte		        Cn5 , v044
	.byte	W06
	.byte		        As4 
	.byte	W06
	.byte		        Cn5 , v048
	.byte	W06
	.byte		        Gs4 
	.byte	W06
	.byte		        Cn5 , v052
	.byte	W06
	.byte		        As4 , v056
	.byte	W06
	.byte		        Cn5 , v060
	.byte	W06
	.byte		        Gs4 , v072
	.byte	W06
	.byte		        Cn5 , v084
	.byte	W06
	.byte		        As4 , v092
	.byte	W06
	.byte		        Cn5 , v100
	.byte	W06
	.byte		        Gs4 , v104
	.byte	W06
	.byte		        Cn5 , v108
	.byte	W06
	.byte		        As4 , v112
	.byte	W06
	.byte		        Cn5 
	.byte	W06
	.byte		        Gs4 
	.byte	W06
	.byte		        Cn5 , v108
	.byte	W06
	.byte		        As4 , v104
	.byte	W06
	.byte		        Cn5 , v100
	.byte	W06
	.byte		        Gs4 , v092
	.byte	W06
	.byte		        Cn5 , v084
	.byte	W06
	.byte		        As4 , v072
	.byte	W06
	.byte		        Cn5 , v060
	.byte	W06
	.byte		        Gs4 , v056
	.byte	W06
	.byte		        Cn5 , v052
	.byte	W06
	.byte		        As4 , v048
	.byte	W06
	.byte		        Cn5 
	.byte	W06
	.byte		        Gs4 , v044
	.byte	W06
	.byte		        Cn5 
	.byte	W06
	.byte		        Cn5 , v040
	.byte	W06
	.byte		PAN   , c_v-64
	.byte		N06
	.byte	W06
	.byte		        Dn5 
	.byte	W06
	.byte		        As4 , v044
	.byte	W06
	.byte		        Dn5 
	.byte	W06
	.byte		        Cn5 , v048
	.byte	W06
	.byte		        Dn5 
	.byte	W06
	.byte		        As4 , v052
	.byte	W06
	.byte		        Dn5 , v056
	.byte	W06
	.byte		N06   , Cn5 , v060
	.byte	W06
	.byte		        Dn5 , v072
	.byte	W06
	.byte		        As4 , v084
	.byte	W06
	.byte		        Dn5 , v092
	.byte	W06
	.byte		        Cn5 , v100
	.byte	W06
	.byte		        Dn5 , v104
	.byte	W06
	.byte		        As4 , v108
	.byte	W06
	.byte		        Dn5 , v112
	.byte	W06
	.byte		        Cn5 
	.byte	W06
	.byte		        Dn5 
	.byte	W06
	.byte		        As4 , v108
	.byte	W06
	.byte		        Dn5 , v104
	.byte	W06
	.byte		        Cn5 , v100
	.byte	W06
	.byte		        Dn5 , v092
	.byte	W06
	.byte		        As4 , v084
	.byte	W06
	.byte		        Dn5 , v072
	.byte	W06
	.byte	PEND
	.byte		        Cn5 , v060
	.byte	W06
	.byte		        Dn5 , v056
	.byte	W06
	.byte		        As4 , v052
	.byte	W06
	.byte		        Dn5 , v048
	.byte	W06
	.byte		        Cn5 
	.byte	W06
	.byte		        Dn5 , v044
	.byte	W06
	.byte		        As4 
	.byte	W06
	.byte		        Dn5 , v040
	.byte	W06
	.byte		PAN   , c_v+63
	.byte		N06
	.byte	W06
	.byte		        En5 
	.byte	W06
	.byte		        Cn5 , v044
	.byte	W06
	.byte		        En5 
	.byte	W06
	.byte		        Dn5 , v048
	.byte	W06
	.byte		        En5 
	.byte	W06
	.byte		        Cn5 , v052
	.byte	W06
	.byte		        En5 , v056
	.byte	W06
	.byte		        Dn5 , v060
	.byte	W06
	.byte		        En5 , v072
	.byte	W06
	.byte		        Cn5 , v084
	.byte	W06
	.byte		        En5 , v092
	.byte	W06
	.byte		        Dn5 , v100
	.byte	W06
	.byte		        En5 , v104
	.byte	W06
	.byte		        Cn5 , v108
	.byte	W06
	.byte		        En5 , v112
	.byte	W06
	.byte		        Dn5 
	.byte	W06
	.byte		        En5 
	.byte	W06
	.byte		        Cn5 , v108
	.byte	W06
	.byte		        En5 , v104
	.byte	W06
	.byte		        Dn5 , v100
	.byte	W06
	.byte		        En5 , v092
	.byte	W06
	.byte		        Cn5 , v084
	.byte	W06
	.byte		        En5 , v076
	.byte	W06
	.byte		        Dn5 , v060
	.byte	W06
	.byte		        En5 , v056
	.byte	W06
	.byte		        Cn5 , v052
	.byte	W06
	.byte		        En5 , v048
	.byte	W06
	.byte		        Dn5 
	.byte	W06
	.byte		        En5 , v044
	.byte	W06
	.byte		        Cn5 
	.byte	W06
	.byte		        En5 , v040
	.byte	W06
	.byte		PAN   , c_v-64
	.byte		N06   , Cn5 
	.byte	W06
	.byte		        Gs4 
	.byte	W06
	.byte		        Cn5 , v044
	.byte	W06
	.byte		        As4 
	.byte	W06
	.byte		        Cn5 , v048
	.byte	W06
	.byte		        Gs4 
	.byte	W06
	.byte		        Cn5 , v052
	.byte	W06
	.byte		        As4 , v056
	.byte	W06
	.byte		VOICE , 111
	.byte		N06   , Cn5 , v060
	.byte	W06
	.byte		        Gs4 , v072
	.byte	W06
	.byte		        Cn5 , v084
	.byte	W06
	.byte		        As4 , v092
	.byte	W06
	.byte		        Cn5 , v100
	.byte	W06
	.byte		        Gs4 , v104
	.byte	W06
	.byte		        Cn5 , v108
	.byte	W06
	.byte		        As4 , v112
	.byte	W06
	.byte		        Cn5 
	.byte	W06
	.byte		        Gs4 
	.byte	W06
	.byte		        Cn5 , v108
	.byte	W06
	.byte		        As4 , v104
	.byte	W06
	.byte		        Cn5 , v100
	.byte	W06
	.byte		        Gs4 , v092
	.byte	W06
	.byte		        Cn5 , v084
	.byte	W06
	.byte		        As4 , v072
	.byte	W06
	.byte		        Cn5 , v060
	.byte	W06
	.byte		        Gs4 , v056
	.byte	W06
	.byte		        Cn5 , v052
	.byte	W06
	.byte		        As4 , v048
	.byte	W06
	.byte		        Cn5 
	.byte	W06
	.byte		        Gs4 , v044
	.byte	W06
	.byte		        Cn5 
	.byte	W06
	.byte		        Cn5 , v040
	.byte	W06
	.byte		PAN   , c_v+63
	.byte		N06
	.byte	W06
	.byte		        Dn5 
	.byte	W06
	.byte		        As4 , v044
	.byte	W06
	.byte		        Dn5 
	.byte	W06
	.byte		        Cn5 , v048
	.byte	W06
	.byte		        Dn5 
	.byte	W06
	.byte		        As4 , v052
	.byte	W06
	.byte		        Dn5 , v056
	.byte	W06
	.byte	PATT
	 .word	song_course_smk_ghost_1 + 0x11F
	.byte		N06   , Cn5 , v060
	.byte	W06
	.byte		        Dn5 , v056
	.byte	W06
	.byte		        As4 , v052
	.byte	W06
	.byte		        Dn5 , v048
	.byte	W06
	.byte		        Cn5 
	.byte	W06
	.byte		        Dn5 , v044
	.byte	W06
	.byte		        As4 
	.byte	W06
	.byte		        Dn5 , v040
	.byte	W06
	.byte		PAN   , c_v-64
	.byte		N06
	.byte	W06
	.byte		        En5 
	.byte	W06
	.byte		        Cn5 , v044
	.byte	W06
	.byte		        En5 
	.byte	W06
	.byte		        Dn5 , v048
	.byte	W06
	.byte		        En5 
	.byte	W06
	.byte		        Cn5 , v052
	.byte	W06
	.byte		        En5 , v056
	.byte	W06
	.byte		        Dn5 , v060
	.byte	W06
	.byte		        En5 , v072
	.byte	W06
	.byte		        Cn5 , v084
	.byte	W06
	.byte		        En5 , v092
	.byte	W06
	.byte		        Dn5 , v100
	.byte	W06
	.byte		        En5 , v104
	.byte	W06
	.byte		        Cn5 , v108
	.byte	W06
	.byte		        En5 , v112
	.byte	W06
	.byte		        Dn5 
	.byte	W06
	.byte		        En5 
	.byte	W06
	.byte		        Cn5 , v108
	.byte	W06
	.byte		        En5 , v104
	.byte	W06
	.byte		        Dn5 , v100
	.byte	W06
	.byte		        En5 , v092
	.byte	W06
	.byte		        Cn5 , v084
	.byte	W06
	.byte		        En5 , v072
	.byte	W06
	.byte		        Dn5 , v060
	.byte	W06
	.byte		        En5 , v056
	.byte	W06
	.byte		        Cn5 , v052
	.byte	W06
	.byte		        En5 , v048
	.byte	W06
	.byte		        Dn5 
	.byte	W06
	.byte		        En5 , v044
	.byte	W06
	.byte		        Cn5 
	.byte	W06
	.byte		        En5 , v040
	.byte	W06
	.byte		PAN   , c_v+63
	.byte		N06
	.byte	W06
	.byte		        Fs5 
	.byte	W06
	.byte		        Dn5 , v044
	.byte	W06
	.byte		        Fs5 
	.byte	W06
	.byte		        En5 , v048
	.byte	W06
	.byte		        Fs5 
	.byte	W06
	.byte		        Dn5 , v052
	.byte	W06
	.byte		        Fs5 , v056
	.byte	W06
	.byte		        En5 , v060
	.byte	W06
	.byte		        Fs5 , v072
	.byte	W06
	.byte		        Dn5 , v084
	.byte	W06
	.byte		        Fs5 , v092
	.byte	W06
	.byte		        En5 , v100
	.byte	W06
	.byte		        Fs5 , v104
	.byte	W06
	.byte		        Dn5 , v108
	.byte	W06
	.byte		        Fs5 , v112
	.byte	W06
	.byte		        En5 
	.byte	W06
	.byte		        Fs5 
	.byte	W06
	.byte		        Dn5 , v108
	.byte	W06
	.byte		        Fs5 , v104
	.byte	W06
	.byte		        En5 , v100
	.byte	W06
	.byte		        Fs5 , v092
	.byte	W06
	.byte		        Dn5 , v084
	.byte	W06
	.byte		        Fs5 , v072
	.byte	W06
	.byte		        En5 , v060
	.byte	W06
	.byte		        Fs5 , v056
	.byte	W06
	.byte		        Dn5 , v052
	.byte	W06
	.byte		        Fs5 , v048
	.byte	W06
	.byte		        En5 
	.byte	W06
	.byte		        Fs5 , v044
	.byte	W06
	.byte		        Dn5 
	.byte	W06
	.byte		        Fs5 , v040
	.byte	W06
	.byte	GOTO
	 .word	song_course_smk_ghost_1 + 0x54
	.byte	FINE

@*********************** Track 03 ***********************@

song_course_smk_ghost_2:
	.byte	KEYSH , song_course_smk_ghost_key+0
	.byte		VOICE , 102
	.byte		VOL   , 110*song_course_smk_ghost_mvl/mxv
	.byte		BENDR , 5
	.byte		PAN   , c_v+63
	.byte		LFOS  , 0
	.byte		BEND  , c_v+0
	.byte	W12
	.byte		TIE   , Gn2 , v064
	.byte	W06
	.byte		BEND  , c_v+0
	.byte	W06
	.byte		        c_v+0
	.byte	W02
	.byte		        c_v-1
	.byte	W03
	.byte		        c_v-2
	.byte	W03
	.byte		        c_v-4
	.byte	W03
	.byte		        c_v-6
	.byte	W03
	.byte		        c_v-9
	.byte	W03
	.byte		        c_v-13
	.byte	W03
	.byte		        c_v-17
	.byte	W03
	.byte		        c_v-22
	.byte	W03
	.byte		        c_v-28
	.byte	W03
	.byte		        c_v-34
	.byte	W02
	.byte		        c_v-41
	.byte	W03
	.byte		        c_v-49
	.byte	W03
	.byte		        c_v-58
	.byte	W03
	.byte		        c_v-64
	.byte	W13
	.byte		VOL   , 108*song_course_smk_ghost_mvl/mxv
	.byte	W06
	.byte		        105*song_course_smk_ghost_mvl/mxv
	.byte	W06
	.byte		        100*song_course_smk_ghost_mvl/mxv
	.byte	W06
	.byte		        92*song_course_smk_ghost_mvl/mxv
	.byte	W01
	.byte	W05
	.byte		        83*song_course_smk_ghost_mvl/mxv
	.byte	W06
	.byte		        71*song_course_smk_ghost_mvl/mxv
	.byte	W05
	.byte		        58*song_course_smk_ghost_mvl/mxv
	.byte	W06
	.byte		        43*song_course_smk_ghost_mvl/mxv
	.byte	W06
	.byte		        25*song_course_smk_ghost_mvl/mxv
	.byte	W06
	.byte		        6*song_course_smk_ghost_mvl/mxv
	.byte	W02
	.byte		EOT
	.byte		VOL   , 0*song_course_smk_ghost_mvl/mxv
	.byte	W06
	.byte		VOICE , 54
	.byte	W06
	.byte		PAN   , c_v+0
	.byte	W48
	.byte	W72
	.byte		VOL   , 0*song_course_smk_ghost_mvl/mxv
	.byte	W15
	.byte		        0*song_course_smk_ghost_mvl/mxv
	.byte	W09
	.byte		MOD   , 5
	.byte		LFOS  , 30
	.byte		BEND  , c_v+0
	.byte	W48
	.byte		VOL   , 43*song_course_smk_ghost_mvl/mxv
	.byte		TIE   , En3 , v112
	.byte	W11
	.byte		VOL   , 45*song_course_smk_ghost_mvl/mxv
	.byte	W06
	.byte		        49*song_course_smk_ghost_mvl/mxv
	.byte	W06
	.byte		        53*song_course_smk_ghost_mvl/mxv
	.byte	W06
	.byte		        59*song_course_smk_ghost_mvl/mxv
	.byte	W07
	.byte		        69*song_course_smk_ghost_mvl/mxv
	.byte	W05
	.byte		        80*song_course_smk_ghost_mvl/mxv
	.byte	W06
	.byte		        90*song_course_smk_ghost_mvl/mxv
	.byte	W01
	.byte	W05
	.byte		VOL   , 98*song_course_smk_ghost_mvl/mxv
	.byte	W06
	.byte		        104*song_course_smk_ghost_mvl/mxv
	.byte	W06
	.byte		        108*song_course_smk_ghost_mvl/mxv
	.byte	W07
	.byte		        110*song_course_smk_ghost_mvl/mxv
	.byte	W24
	.byte		BEND  , c_v+0
	.byte	W05
	.byte		        c_v-1
	.byte	W06
	.byte		        c_v-1
	.byte	W06
	.byte		        c_v-2
	.byte	W06
	.byte		        c_v-2
	.byte	W01
	.byte		VOL   , 110*song_course_smk_ghost_mvl/mxv
	.byte	W05
	.byte		        108*song_course_smk_ghost_mvl/mxv
	.byte		BEND  , c_v-3
	.byte	W06
	.byte		VOL   , 105*song_course_smk_ghost_mvl/mxv
	.byte		BEND  , c_v-5
	.byte	W05
	.byte		        c_v-6
	.byte	W01
	.byte		VOL   , 99*song_course_smk_ghost_mvl/mxv
	.byte	W05
	.byte		BEND  , c_v-8
	.byte	W01
	.byte		VOL   , 92*song_course_smk_ghost_mvl/mxv
	.byte	W01
	.byte	PEND
	.byte	W04
	.byte		BEND  , c_v-10
	.byte	W01
	.byte		VOL   , 83*song_course_smk_ghost_mvl/mxv
	.byte	W05
	.byte		BEND  , c_v-12
	.byte	W02
	.byte		VOL   , 71*song_course_smk_ghost_mvl/mxv
	.byte	W04
	.byte		BEND  , c_v-15
	.byte	W01
	.byte		VOL   , 62*song_course_smk_ghost_mvl/mxv
	.byte	W05
	.byte		BEND  , c_v-18
	.byte	W01
	.byte		VOL   , 55*song_course_smk_ghost_mvl/mxv
	.byte	W04
	.byte		BEND  , c_v-20
	.byte	W02
	.byte		VOL   , 50*song_course_smk_ghost_mvl/mxv
	.byte	W04
	.byte		BEND  , c_v-24
	.byte	W02
	.byte		VOL   , 45*song_course_smk_ghost_mvl/mxv
	.byte	W04
	.byte		BEND  , c_v-27
	.byte	W02
	.byte		VOL   , 44*song_course_smk_ghost_mvl/mxv
	.byte	W04
	.byte		BEND  , c_v-31
	.byte	W02
	.byte	PEND
	.byte		EOT   , En3 
	.byte	W01
	.byte		BEND  , c_v+0
	.byte		TIE   , Fs3 , v112
	.byte	W11
	.byte		VOL   , 45*song_course_smk_ghost_mvl/mxv
	.byte	W06
	.byte		        49*song_course_smk_ghost_mvl/mxv
	.byte	W06
	.byte		        53*song_course_smk_ghost_mvl/mxv
	.byte	W06
	.byte		        59*song_course_smk_ghost_mvl/mxv
	.byte	W07
	.byte		        69*song_course_smk_ghost_mvl/mxv
	.byte	W05
	.byte		        80*song_course_smk_ghost_mvl/mxv
	.byte	W06
	.byte		        90*song_course_smk_ghost_mvl/mxv
	.byte	W01
	.byte	PATT
	 .word	song_course_smk_ghost_2 + 0x76
	.byte	PATT
	 .word	song_course_smk_ghost_2 + 0xA3
	.byte		EOT   , Fs3 
	.byte	W01
	.byte		BEND  , c_v+0
	.byte		TIE   , Gs3 , v112
	.byte	W11
	.byte		VOL   , 45*song_course_smk_ghost_mvl/mxv
	.byte	W06
	.byte		        49*song_course_smk_ghost_mvl/mxv
	.byte	W06
	.byte		        53*song_course_smk_ghost_mvl/mxv
	.byte	W06
	.byte		        59*song_course_smk_ghost_mvl/mxv
	.byte	W07
	.byte		        69*song_course_smk_ghost_mvl/mxv
	.byte	W05
	.byte		        80*song_course_smk_ghost_mvl/mxv
	.byte	W06
	.byte		        90*song_course_smk_ghost_mvl/mxv
	.byte	W01
	.byte	PATT
	 .word	song_course_smk_ghost_2 + 0x76
	.byte	PATT
	 .word	song_course_smk_ghost_2 + 0xA3
	.byte		EOT   , Gs3 
	.byte	W01
	.byte		BEND  , c_v+0
	.byte		TIE   , En3 , v112
	.byte	W11
	.byte		VOL   , 45*song_course_smk_ghost_mvl/mxv
	.byte	W06
	.byte		        49*song_course_smk_ghost_mvl/mxv
	.byte	W06
	.byte		        53*song_course_smk_ghost_mvl/mxv
	.byte	W06
	.byte		        59*song_course_smk_ghost_mvl/mxv
	.byte	W07
	.byte		        69*song_course_smk_ghost_mvl/mxv
	.byte	W05
	.byte		        80*song_course_smk_ghost_mvl/mxv
	.byte	W06
	.byte		        90*song_course_smk_ghost_mvl/mxv
	.byte	W01
	.byte	PATT
	 .word	song_course_smk_ghost_2 + 0x76
	.byte	PATT
	 .word	song_course_smk_ghost_2 + 0xA3
	.byte		EOT   , En3 
	.byte	W01
	.byte		BEND  , c_v+0
	.byte		TIE   , Fs3 , v112
	.byte	W11
	.byte		VOL   , 45*song_course_smk_ghost_mvl/mxv
	.byte	W06
	.byte		        49*song_course_smk_ghost_mvl/mxv
	.byte	W06
	.byte		        53*song_course_smk_ghost_mvl/mxv
	.byte	W06
	.byte		        59*song_course_smk_ghost_mvl/mxv
	.byte	W07
	.byte		        69*song_course_smk_ghost_mvl/mxv
	.byte	W05
	.byte		        80*song_course_smk_ghost_mvl/mxv
	.byte	W06
	.byte		        90*song_course_smk_ghost_mvl/mxv
	.byte	W01
	.byte	PATT
	 .word	song_course_smk_ghost_2 + 0x76
	.byte	PATT
	 .word	song_course_smk_ghost_2 + 0xA3
	.byte		EOT   , Fs3 
	.byte	W01
	.byte		BEND  , c_v+0
	.byte		TIE   , Gs3 , v112
	.byte	W11
	.byte		VOL   , 45*song_course_smk_ghost_mvl/mxv
	.byte	W06
	.byte		        49*song_course_smk_ghost_mvl/mxv
	.byte	W06
	.byte		        53*song_course_smk_ghost_mvl/mxv
	.byte	W06
	.byte		        59*song_course_smk_ghost_mvl/mxv
	.byte	W07
	.byte		        69*song_course_smk_ghost_mvl/mxv
	.byte	W05
	.byte		        80*song_course_smk_ghost_mvl/mxv
	.byte	W06
	.byte		        90*song_course_smk_ghost_mvl/mxv
	.byte	W01
	.byte	PATT
	 .word	song_course_smk_ghost_2 + 0x76
	.byte	PATT
	 .word	song_course_smk_ghost_2 + 0xA3
	.byte		EOT   , Gs3 
	.byte	W01
	.byte		BEND  , c_v+0
	.byte		TIE   , As3 , v112
	.byte	W11
	.byte		VOL   , 45*song_course_smk_ghost_mvl/mxv
	.byte	W06
	.byte		        49*song_course_smk_ghost_mvl/mxv
	.byte	W06
	.byte		        53*song_course_smk_ghost_mvl/mxv
	.byte	W06
	.byte		        59*song_course_smk_ghost_mvl/mxv
	.byte	W07
	.byte		        69*song_course_smk_ghost_mvl/mxv
	.byte	W05
	.byte		        80*song_course_smk_ghost_mvl/mxv
	.byte	W06
	.byte		        90*song_course_smk_ghost_mvl/mxv
	.byte	W01
	.byte	PATT
	 .word	song_course_smk_ghost_2 + 0x76
	.byte	PATT
	 .word	song_course_smk_ghost_2 + 0xA3
	.byte		EOT   , As3 
	.byte	W01
	.byte	GOTO
	 .word	song_course_smk_ghost_2 + 0x51
	.byte		BEND  , c_v+0
	.byte	FINE

@*********************** Track 04 ***********************@

song_course_smk_ghost_3:
	.byte	KEYSH , song_course_smk_ghost_key+0
	.byte		BENDR , 5
	.byte		PAN   , c_v+0
	.byte	W96
	.byte	W42
	.byte		VOICE , 54
	.byte	W06
	.byte	W48
	.byte	W72
	.byte		VOL   , 0*song_course_smk_ghost_mvl/mxv
	.byte	W15
	.byte		        0*song_course_smk_ghost_mvl/mxv
	.byte	W09
	.byte		MOD   , 5
	.byte		LFOS  , 30
	.byte	W48
	.byte		VOL   , 43*song_course_smk_ghost_mvl/mxv
	.byte		BEND  , c_v+0
	.byte		TIE   , As2 , v112
	.byte	W11
	.byte		VOL   , 45*song_course_smk_ghost_mvl/mxv
	.byte	W06
	.byte		        49*song_course_smk_ghost_mvl/mxv
	.byte	W06
	.byte		        53*song_course_smk_ghost_mvl/mxv
	.byte	W06
	.byte		        59*song_course_smk_ghost_mvl/mxv
	.byte	W07
	.byte		        69*song_course_smk_ghost_mvl/mxv
	.byte	W05
	.byte		        80*song_course_smk_ghost_mvl/mxv
	.byte	W06
	.byte		        90*song_course_smk_ghost_mvl/mxv
	.byte	W01
	.byte	W05
	.byte		VOL   , 98*song_course_smk_ghost_mvl/mxv
	.byte	W06
	.byte		        104*song_course_smk_ghost_mvl/mxv
	.byte	W06
	.byte		        108*song_course_smk_ghost_mvl/mxv
	.byte	W07
	.byte		        110*song_course_smk_ghost_mvl/mxv
	.byte	W24
	.byte		BEND  , c_v+0
	.byte	W05
	.byte		        c_v-1
	.byte	W06
	.byte		        c_v-1
	.byte	W06
	.byte		        c_v-2
	.byte	W06
	.byte		        c_v-2
	.byte	W01
	.byte		VOL   , 110*song_course_smk_ghost_mvl/mxv
	.byte	W05
	.byte		        108*song_course_smk_ghost_mvl/mxv
	.byte		BEND  , c_v-3
	.byte	W06
	.byte		VOL   , 105*song_course_smk_ghost_mvl/mxv
	.byte		BEND  , c_v-5
	.byte	W05
	.byte		        c_v-6
	.byte	W01
	.byte		VOL   , 99*song_course_smk_ghost_mvl/mxv
	.byte	W05
	.byte		BEND  , c_v-8
	.byte	W01
	.byte		VOL   , 92*song_course_smk_ghost_mvl/mxv
	.byte	W01
	.byte	PEND
	.byte	W04
	.byte		BEND  , c_v-10
	.byte	W01
	.byte		VOL   , 83*song_course_smk_ghost_mvl/mxv
	.byte	W05
	.byte		BEND  , c_v-12
	.byte	W02
	.byte		VOL   , 71*song_course_smk_ghost_mvl/mxv
	.byte	W04
	.byte		BEND  , c_v-15
	.byte	W01
	.byte		VOL   , 62*song_course_smk_ghost_mvl/mxv
	.byte	W05
	.byte		BEND  , c_v-18
	.byte	W01
	.byte		VOL   , 55*song_course_smk_ghost_mvl/mxv
	.byte	W04
	.byte		BEND  , c_v-20
	.byte	W02
	.byte		VOL   , 50*song_course_smk_ghost_mvl/mxv
	.byte	W04
	.byte		BEND  , c_v-24
	.byte	W02
	.byte		VOL   , 45*song_course_smk_ghost_mvl/mxv
	.byte	W04
	.byte		BEND  , c_v-27
	.byte	W02
	.byte		VOL   , 44*song_course_smk_ghost_mvl/mxv
	.byte	W04
	.byte		BEND  , c_v-31
	.byte	W02
	.byte	PEND
	.byte		EOT   , As2 
	.byte	W01
	.byte		BEND  , c_v+0
	.byte		TIE   , Cn3 , v112
	.byte	W11
	.byte		VOL   , 45*song_course_smk_ghost_mvl/mxv
	.byte	W06
	.byte		        49*song_course_smk_ghost_mvl/mxv
	.byte	W06
	.byte		        53*song_course_smk_ghost_mvl/mxv
	.byte	W06
	.byte		        59*song_course_smk_ghost_mvl/mxv
	.byte	W07
	.byte		        69*song_course_smk_ghost_mvl/mxv
	.byte	W05
	.byte		        80*song_course_smk_ghost_mvl/mxv
	.byte	W06
	.byte		        90*song_course_smk_ghost_mvl/mxv
	.byte	W01
	.byte	PATT
	 .word	song_course_smk_ghost_3 + 0x2E
	.byte	PATT
	 .word	song_course_smk_ghost_3 + 0x5B
	.byte		EOT   , Cn3 
	.byte	W01
	.byte		BEND  , c_v+0
	.byte		TIE   , Dn3 , v112
	.byte	W11
	.byte		VOL   , 45*song_course_smk_ghost_mvl/mxv
	.byte	W06
	.byte		        49*song_course_smk_ghost_mvl/mxv
	.byte	W06
	.byte		        53*song_course_smk_ghost_mvl/mxv
	.byte	W06
	.byte		        59*song_course_smk_ghost_mvl/mxv
	.byte	W07
	.byte		        69*song_course_smk_ghost_mvl/mxv
	.byte	W05
	.byte		        80*song_course_smk_ghost_mvl/mxv
	.byte	W06
	.byte		        90*song_course_smk_ghost_mvl/mxv
	.byte	W01
	.byte	PATT
	 .word	song_course_smk_ghost_3 + 0x2E
	.byte	PATT
	 .word	song_course_smk_ghost_3 + 0x5B
	.byte		EOT   , Dn3 
	.byte	W01
	.byte		BEND  , c_v+0
	.byte		TIE   , As2 , v112
	.byte	W11
	.byte		VOL   , 45*song_course_smk_ghost_mvl/mxv
	.byte	W06
	.byte		        49*song_course_smk_ghost_mvl/mxv
	.byte	W06
	.byte		        53*song_course_smk_ghost_mvl/mxv
	.byte	W06
	.byte		        59*song_course_smk_ghost_mvl/mxv
	.byte	W07
	.byte		        69*song_course_smk_ghost_mvl/mxv
	.byte	W05
	.byte		        80*song_course_smk_ghost_mvl/mxv
	.byte	W06
	.byte		        90*song_course_smk_ghost_mvl/mxv
	.byte	W01
	.byte	PATT
	 .word	song_course_smk_ghost_3 + 0x2E
	.byte	PATT
	 .word	song_course_smk_ghost_3 + 0x5B
	.byte		EOT   , As2 
	.byte	W01
	.byte		BEND  , c_v+0
	.byte		TIE   , Cn3 , v112
	.byte	W11
	.byte		VOL   , 45*song_course_smk_ghost_mvl/mxv
	.byte	W06
	.byte		        49*song_course_smk_ghost_mvl/mxv
	.byte	W06
	.byte		        53*song_course_smk_ghost_mvl/mxv
	.byte	W06
	.byte		        59*song_course_smk_ghost_mvl/mxv
	.byte	W07
	.byte		        69*song_course_smk_ghost_mvl/mxv
	.byte	W05
	.byte		        80*song_course_smk_ghost_mvl/mxv
	.byte	W06
	.byte		        90*song_course_smk_ghost_mvl/mxv
	.byte	W01
	.byte	PATT
	 .word	song_course_smk_ghost_3 + 0x2E
	.byte	PATT
	 .word	song_course_smk_ghost_3 + 0x5B
	.byte		EOT   , Cn3 
	.byte	W01
	.byte		BEND  , c_v+0
	.byte		TIE   , Dn3 , v112
	.byte	W11
	.byte		VOL   , 45*song_course_smk_ghost_mvl/mxv
	.byte	W06
	.byte		        49*song_course_smk_ghost_mvl/mxv
	.byte	W06
	.byte		        53*song_course_smk_ghost_mvl/mxv
	.byte	W06
	.byte		        59*song_course_smk_ghost_mvl/mxv
	.byte	W07
	.byte		        69*song_course_smk_ghost_mvl/mxv
	.byte	W05
	.byte		        80*song_course_smk_ghost_mvl/mxv
	.byte	W06
	.byte		        90*song_course_smk_ghost_mvl/mxv
	.byte	W01
	.byte	PATT
	 .word	song_course_smk_ghost_3 + 0x2E
	.byte	PATT
	 .word	song_course_smk_ghost_3 + 0x5B
	.byte		EOT   , Dn3 
	.byte	W01
	.byte		BEND  , c_v+0
	.byte		TIE   , En3 , v112
	.byte	W11
	.byte		VOL   , 45*song_course_smk_ghost_mvl/mxv
	.byte	W06
	.byte		        49*song_course_smk_ghost_mvl/mxv
	.byte	W06
	.byte		        53*song_course_smk_ghost_mvl/mxv
	.byte	W06
	.byte		        59*song_course_smk_ghost_mvl/mxv
	.byte	W07
	.byte		        69*song_course_smk_ghost_mvl/mxv
	.byte	W05
	.byte		        80*song_course_smk_ghost_mvl/mxv
	.byte	W06
	.byte		        90*song_course_smk_ghost_mvl/mxv
	.byte	W01
	.byte	PATT
	 .word	song_course_smk_ghost_3 + 0x2E
	.byte	PATT
	 .word	song_course_smk_ghost_3 + 0x5B
	.byte		EOT   , En3 
	.byte	W01
	.byte	GOTO
	 .word	song_course_smk_ghost_3 + 0xB
	.byte		BEND  , c_v+0
	.byte	FINE

@*********************** Track 05 ***********************@

song_course_smk_ghost_4:
	.byte	KEYSH , song_course_smk_ghost_key+0
	.byte		VOICE , 123
	.byte		PAN   , c_v-64
	.byte		BENDR , 5
	.byte		VOL   , 110*song_course_smk_ghost_mvl/mxv
	.byte		BEND  , c_v+0
	.byte	W12
	.byte		TIE   , An1 , v064
	.byte	W06
	.byte		BEND  , c_v+0
	.byte	W06
	.byte		        c_v+0
	.byte	W02
	.byte		        c_v-1
	.byte	W03
	.byte		        c_v-2
	.byte	W03
	.byte		        c_v-4
	.byte	W03
	.byte		        c_v-6
	.byte	W03
	.byte		        c_v-9
	.byte	W03
	.byte		        c_v-13
	.byte	W03
	.byte		        c_v-17
	.byte	W03
	.byte		        c_v-22
	.byte	W03
	.byte		        c_v-28
	.byte	W03
	.byte		        c_v-34
	.byte	W02
	.byte		        c_v-41
	.byte	W03
	.byte		        c_v-49
	.byte	W03
	.byte		        c_v-58
	.byte	W03
	.byte		        c_v-64
	.byte	W32
	.byte	W18
	.byte		VOL   , 69*song_course_smk_ghost_mvl/mxv
	.byte	W16
	.byte		EOT
	.byte	W02
	.byte		BEND  , c_v+0
	.byte	W12
	.byte		PAN   , c_v+0
	.byte	W48
	.byte	W96
	.byte	W96
	.byte	W96
	.byte	W96
	.byte	W96
	.byte	W96
	.byte	W96
	.byte	W96
	.byte		VOICE , 5
	.byte		VOL   , 110*song_course_smk_ghost_mvl/mxv
	.byte	W12
	.byte		N11   , Ds2 , v112
	.byte	W12
	.byte		        En2 
	.byte	W12
	.byte		        Fn2 
	.byte	W12
	.byte		N48   , Fs2 
	.byte	W05
	.byte		MOD   , 6
	.byte	W42
	.byte	W01
	.byte		        0
	.byte		N48   , Bn2 
	.byte	W06
	.byte		MOD   , 6
	.byte	W42
	.byte		        0
	.byte		N36   , As2 
	.byte	W06
	.byte		MOD   , 6
	.byte	W30
	.byte		        0
	.byte		N11   , En2 
	.byte	W12
	.byte		TIE
	.byte	W06
	.byte		MOD   , 6
	.byte	W90
	.byte	W48
	.byte		EOT
	.byte		MOD   , 0
	.byte	W48
	.byte	W12
	.byte		N11   , Dn2 
	.byte	W12
	.byte		        Ds2 
	.byte	W12
	.byte		        En2 
	.byte	W12
	.byte		N48   , Fn2 
	.byte	W05
	.byte		MOD   , 6
	.byte	W42
	.byte	W01
	.byte		        0
	.byte		N48   , As2 
	.byte	W06
	.byte		MOD   , 6
	.byte	W42
	.byte		        0
	.byte		N36   , An2 
	.byte	W06
	.byte		MOD   , 6
	.byte	W30
	.byte		        0
	.byte		N11   , Ds2 
	.byte	W12
	.byte		N60
	.byte	W06
	.byte		MOD   , 6
	.byte	W54
	.byte		        0
	.byte		N11   , Dn2 
	.byte	W12
	.byte		        Cs2 
	.byte	W12
	.byte		        Cn2 
	.byte	W12
	.byte		N48   , Bn1 
	.byte	W06
	.byte		MOD   , 6
	.byte	W42
	.byte	GOTO
	 .word	song_course_smk_ghost_4 + 0x3B
	.byte		MOD   , 0
	.byte	FINE

@*********************** Track 06 ***********************@

song_course_smk_ghost_5:
	.byte	KEYSH , song_course_smk_ghost_key+0
	.byte		VOICE , 123
	.byte		PAN   , c_v+63
	.byte	W96
	.byte	W48
	.byte	W48
	.byte	W96
	.byte	W96
	.byte	W96
	.byte	W96
	.byte	W96
	.byte	W96
	.byte	W96
	.byte	W96
	.byte		VOL   , 110*song_course_smk_ghost_mvl/mxv
	.byte		LFOS  , 30
	.byte	W12
	.byte		N12   , Ds2 , v072
	.byte	W12
	.byte		        En2 
	.byte	W12
	.byte		        Fn2 
	.byte	W12
	.byte		N48   , Fs2 
	.byte	W05
	.byte		MOD   , 10
	.byte	W42
	.byte	W01
	.byte		        0
	.byte		N48   , Bn2 
	.byte	W06
	.byte		MOD   , 10
	.byte	W42
	.byte		        0
	.byte		N36   , As2 
	.byte	W06
	.byte		MOD   , 10
	.byte	W30
	.byte		        0
	.byte		N12   , En2 
	.byte	W12
	.byte		TIE
	.byte	W06
	.byte		MOD   , 10
	.byte	W90
	.byte	W05
	.byte		VOL   , 108*song_course_smk_ghost_mvl/mxv
	.byte	W06
	.byte		        103*song_course_smk_ghost_mvl/mxv
	.byte	W06
	.byte		        95*song_course_smk_ghost_mvl/mxv
	.byte	W06
	.byte		        83*song_course_smk_ghost_mvl/mxv
	.byte	W06
	.byte		        69*song_course_smk_ghost_mvl/mxv
	.byte	W06
	.byte		        51*song_course_smk_ghost_mvl/mxv
	.byte	W05
	.byte		        29*song_course_smk_ghost_mvl/mxv
	.byte	W06
	.byte		        5*song_course_smk_ghost_mvl/mxv
	.byte	W02
	.byte		EOT
	.byte		VOL   , 0*song_course_smk_ghost_mvl/mxv
	.byte		MOD   , 0
	.byte	W48
	.byte		VOL   , 110*song_course_smk_ghost_mvl/mxv
	.byte	W12
	.byte		N12   , Dn2 
	.byte	W12
	.byte		        Ds2 
	.byte	W12
	.byte		        En2 
	.byte	W12
	.byte		N48   , Fn2 
	.byte	W05
	.byte		MOD   , 10
	.byte	W42
	.byte	W01
	.byte		        0
	.byte		N48   , As2 
	.byte	W06
	.byte		MOD   , 10
	.byte	W42
	.byte		        0
	.byte		N36   , An2 
	.byte	W06
	.byte		MOD   , 10
	.byte	W30
	.byte		        0
	.byte		N12   , Ds2 
	.byte	W12
	.byte		N60
	.byte	W06
	.byte		MOD   , 10
	.byte	W54
	.byte		        0
	.byte		N12   , Dn2 
	.byte	W12
	.byte		        Cs2 
	.byte	W12
	.byte		        Cn2 
	.byte	W12
	.byte		N48   , Bn1 
	.byte	W06
	.byte		MOD   , 10
	.byte	W32
	.byte	W02
	.byte		VOL   , 96*song_course_smk_ghost_mvl/mxv
	.byte	W04
	.byte		        56*song_course_smk_ghost_mvl/mxv
	.byte	W04
	.byte	GOTO
	 .word	song_course_smk_ghost_5 + 0x8
	.byte		VOL   , 0*song_course_smk_ghost_mvl/mxv
	.byte		MOD   , 0
	.byte	FINE

@*********************** Track 07 ***********************@

song_course_smk_ghost_6:
	.byte	KEYSH , song_course_smk_ghost_key+0
	.byte		VOICE , 113
	.byte		PAN   , c_v-64
	.byte	W96
	.byte	W48
	.byte	W48
	.byte	W96
	.byte	W96
	.byte	W96
	.byte	W96
	.byte	W96
	.byte	W96
	.byte	W96
	.byte	W96
	.byte		VOL   , 110*song_course_smk_ghost_mvl/mxv
	.byte		LFOS  , 30
	.byte	W12
	.byte		N12   , An1 , v064
	.byte	W12
	.byte		        As1 
	.byte	W12
	.byte		        Bn1 
	.byte	W12
	.byte		N48   , Cn2 
	.byte	W05
	.byte		MOD   , 10
	.byte	W42
	.byte	W01
	.byte		        0
	.byte		N48   , Fn2 
	.byte	W06
	.byte		MOD   , 10
	.byte	W42
	.byte		        0
	.byte		N36   , En2 
	.byte	W06
	.byte		MOD   , 10
	.byte	W30
	.byte		        0
	.byte		N12   , As1 
	.byte	W12
	.byte		TIE
	.byte	W06
	.byte		MOD   , 10
	.byte	W90
	.byte	W05
	.byte		VOL   , 108*song_course_smk_ghost_mvl/mxv
	.byte	W06
	.byte		        103*song_course_smk_ghost_mvl/mxv
	.byte	W06
	.byte		        94*song_course_smk_ghost_mvl/mxv
	.byte	W06
	.byte		        82*song_course_smk_ghost_mvl/mxv
	.byte	W06
	.byte		        67*song_course_smk_ghost_mvl/mxv
	.byte	W06
	.byte		        48*song_course_smk_ghost_mvl/mxv
	.byte	W05
	.byte		        25*song_course_smk_ghost_mvl/mxv
	.byte	W06
	.byte		        0*song_course_smk_ghost_mvl/mxv
	.byte	W01
	.byte		        0*song_course_smk_ghost_mvl/mxv
	.byte	W01
	.byte		EOT
	.byte		VOL   , 0*song_course_smk_ghost_mvl/mxv
	.byte		MOD   , 0
	.byte	W48
	.byte		VOL   , 110*song_course_smk_ghost_mvl/mxv
	.byte	W12
	.byte		N12   , Gs1 
	.byte	W12
	.byte		        An1 
	.byte	W12
	.byte		        As1 
	.byte	W12
	.byte		N48   , Bn1 
	.byte	W05
	.byte		MOD   , 10
	.byte	W42
	.byte	W01
	.byte		        0
	.byte		N48   , En2 
	.byte	W06
	.byte		MOD   , 10
	.byte	W42
	.byte		        0
	.byte		N36   , Ds2 
	.byte	W06
	.byte		MOD   , 10
	.byte	W30
	.byte		        0
	.byte		N12   , An1 
	.byte	W12
	.byte		N60
	.byte	W06
	.byte		MOD   , 10
	.byte	W54
	.byte		        0
	.byte		N12   , Gs1 
	.byte	W12
	.byte		        Gn1 
	.byte	W12
	.byte		        Fs1 
	.byte	W12
	.byte		N48   , Fn1 
	.byte	W06
	.byte		MOD   , 10
	.byte	W32
	.byte	W02
	.byte		VOL   , 96*song_course_smk_ghost_mvl/mxv
	.byte	W04
	.byte		        56*song_course_smk_ghost_mvl/mxv
	.byte	W04
	.byte	GOTO
	 .word	song_course_smk_ghost_6 + 0x8
	.byte		VOL   , 0*song_course_smk_ghost_mvl/mxv
	.byte		MOD   , 0
	.byte	FINE

@******************************************************@

	.align	2

song_course_smk_ghost:
	.byte	7	@ NumTrks
	.byte	0	@ NumBlks
	.byte	song_course_smk_ghost_pri	@ Priority
	.byte	song_course_smk_ghost_rev	@ Reverb

	.word	song_course_smk_ghost_grp

	.word	song_course_smk_ghost_0
	.word	song_course_smk_ghost_1
	.word	song_course_smk_ghost_2
	.word	song_course_smk_ghost_3
	.word	song_course_smk_ghost_4
	.word	song_course_smk_ghost_5
	.word	song_course_smk_ghost_6

	.end
