@ File generated by m4a2s Song-Module
	.include "MPlayDef.s"

	.equ	song_course_beach_grp, bank_course_beach
	.equ	song_course_beach_pri, 0
	.equ	song_course_beach_rev, 148
	.equ	song_course_beach_mvl, 127
	.equ	song_course_beach_key, 0

	.section .rodata
	.global	song_course_beach
	.align	2

@*********************** Track 01 ***********************@

song_course_beach_0:
	.byte	KEYSH , song_course_beach_key+0
	.byte	TEMPO , 120/2
	.byte		VOICE , 123
	.byte		VOL   , 57*song_course_beach_mvl/mxv
	.byte		PAN   , c_v+0
	.byte	PRIO  , 6
	.byte	W08
	.byte		N06   , Cn4 , v127
	.byte	W08
	.byte		N06
	.byte	W08
	.byte		N06
	.byte	W08
	.byte		N08
	.byte	W40
	.byte		MOD   , 3
	.byte		LFOS  , 10
	.byte		MODT  , mod_vib
	.byte		LFODL , 25
	.byte	W24
	.byte		VOICE , 54
	.byte		VOL   , 82*song_course_beach_mvl/mxv
	.byte		PAN   , c_v+0
	.byte		N72   , Cn4 , v112
	.byte	W96
	.byte	W24
	.byte		N12   , Gn3 , v112
	.byte	W12
	.byte		        As3 
	.byte	W12
	.byte		N16   , Dn4 
	.byte	W16
	.byte		        Fn4 
	.byte	W16
	.byte		        En4 
	.byte	W16
	.byte	PEND
	.byte		N72   , Cn4 
	.byte	W96
	.byte	W24
	.byte		N12   , Gn3 , v112
	.byte	W12
	.byte		        As3 
	.byte	W12
	.byte		N16   , Dn4 
	.byte	W16
	.byte		N20   , Fn4 
	.byte	W20
	.byte		N10   , En4 
	.byte	W12
	.byte	PEND
	.byte		N24   , An4 , v080
	.byte	W24
	.byte		        En4 , v112
	.byte	W24
	.byte		N16   , Dn4 
	.byte	W36
	.byte		N12   , Fn4 
	.byte	W12
	.byte		N24   , As4 , v080
	.byte	W24
	.byte		        Cs4 , v112
	.byte	W24
	.byte		        Ds4 
	.byte	W24
	.byte		        Cs4 
	.byte	W24
	.byte		N48   , Cn4 
	.byte	W96
	.byte	W96
	.byte		N72
	.byte	W96
	.byte	PATT
	 .word	song_course_beach_0 + 0x2A
	.byte		N72   , Cn4 , v112
	.byte	W96
	.byte	PATT
	 .word	song_course_beach_0 + 0x3C
	.byte		N24   , An4 , v080
	.byte	W24
	.byte		        En4 , v092
	.byte	W24
	.byte		N16   , Dn4 
	.byte	W36
	.byte		N12   , Fn4 
	.byte	W12
	.byte		N24   , As4 , v072
	.byte	W24
	.byte		        Cs5 , v060
	.byte	W24
	.byte		        Cn5 
	.byte	W24
	.byte		        En4 , v080
	.byte	W24
	.byte		N16   , Gn4 , v100
	.byte	W16
	.byte		N36   , Fn4 
	.byte	W80
	.byte		VOICE , 54
	.byte	W24
	.byte		N12   , Fn3 , v112
	.byte	W12
	.byte		        Gn3 
	.byte	W12
	.byte		        An3 , v116
	.byte	W12
	.byte		        Cn4 , v100
	.byte	W12
	.byte		        Dn4 
	.byte	W12
	.byte		        Fn4 
	.byte	W12
	.byte		N08   , Gn4 , v112
	.byte	W24
	.byte		N18   , Dn4 
	.byte	W18
	.byte		N06   , Fn4 
	.byte	W54
	.byte	PEND
	.byte		N08   , Gn4 , v112
	.byte	W24
	.byte		N18   , Cs4 
	.byte	W18
	.byte		N06   , Fn4 
	.byte	W24
	.byte		N06
	.byte	W06
	.byte		        Ds4 
	.byte	W12
	.byte		        Cs4 
	.byte	W12
	.byte	PEND
	.byte		N08   , Cn4 , v127
	.byte	W24
	.byte		N18   , An3 
	.byte	W18
	.byte		N06   , Dn4 
	.byte	W24
	.byte		N03   , An3 
	.byte	W06
	.byte		N12
	.byte	W12
	.byte		        As3 
	.byte	W12
	.byte		N06   , Cn4 
	.byte	W24
	.byte		N15   , Fn4 , v112
	.byte	W24
	.byte		N15
	.byte	W24
	.byte		N15
	.byte	W24
	.byte	PATT
	 .word	song_course_beach_0 + 0xAC
	.byte	PATT
	 .word	song_course_beach_0 + 0xB7
	.byte		N12   , Cn4 , v112
	.byte	W12
	.byte		N06   , Cn5 
	.byte	W24
	.byte		N12   , Cn4 
	.byte	W12
	.byte		N06   , Cn5 
	.byte	W24
	.byte		N12   , Cn4 
	.byte	W12
	.byte		N06   , Cn5 
	.byte	W12
	.byte	W12
	.byte		N36   , Cn3 
	.byte	W36
	.byte		N12   , En3 
	.byte	W24
	.byte		N12
	.byte	W24
	.byte		N18   , Gn3 
	.byte	W18
	.byte		N24   , Fn3 
	.byte	W24
	.byte		VOICE , 12
	.byte		MOD   , 0
	.byte		VOL   , 105*song_course_beach_mvl/mxv
	.byte		PAN   , c_v+0
	.byte		N24   , Gn3 
	.byte	W24
	.byte		N06   , Fn3 
	.byte	W06
	.byte		N24
	.byte	W24
	.byte		N18   , An3 , v120
	.byte	W18
	.byte		N24   , Gn3 
	.byte	W24
	.byte		        An3 , v112
	.byte	W24
	.byte		N06   , Gn3 
	.byte	W06
	.byte		N12
	.byte	W12
	.byte		N06   , Gn3 , v100
	.byte	W12
	.byte	PEND
	.byte		N18   , Gn3 , v120
	.byte	W18
	.byte		N24   , Fn3 
	.byte	W24
	.byte		        Gn3 , v112
	.byte	W24
	.byte		N06   , Fn3 
	.byte	W06
	.byte		N12
	.byte	W12
	.byte		N12
	.byte	W12
	.byte	PEND
	.byte		N18   , An3 , v127
	.byte	W18
	.byte		N24   , Gn3 
	.byte	W24
	.byte		N06   , Cn4 
	.byte	W12
	.byte		VOL   , 82*song_course_beach_mvl/mxv
	.byte	W02
	.byte		N08   , Cn5 
	.byte	W08
	.byte		N08
	.byte	W08
	.byte		N08
	.byte	W18
	.byte		VOL   , 105*song_course_beach_mvl/mxv
	.byte	W06
	.byte		N18   , Gn3 , v120
	.byte	W18
	.byte		N24   , Fn3 
	.byte	W24
	.byte		        Gn3 , v112
	.byte	W24
	.byte		N06   , Fn3 
	.byte	W06
	.byte		N24
	.byte	W24
	.byte	PATT
	 .word	song_course_beach_0 + 0x120
	.byte	PATT
	 .word	song_course_beach_0 + 0x134
	.byte	W08
	.byte		VOICE , 123
	.byte		VOL   , 57*song_course_beach_mvl/mxv
	.byte		N06   , Cn5 , v127
	.byte	W08
	.byte		N06
	.byte	W08
	.byte		N06
	.byte	W08
	.byte		N08
	.byte	W64
	.byte	GOTO
	 .word	song_course_beach_0 + 0x20
	.byte		VOICE , 123
	.byte		VOL   , 57*song_course_beach_mvl/mxv
	.byte		PAN   , c_v+0
	.byte	PRIO  , 6
	.byte	FINE

@*********************** Track 02 ***********************@

song_course_beach_1:
	.byte	KEYSH , song_course_beach_key+0
	.byte		VOICE , 118
	.byte		VOL   , 41*song_course_beach_mvl/mxv
	.byte		PAN   , c_v+0
	.byte	W08
	.byte		N06   , Cn5 , v092
	.byte	W08
	.byte		N06
	.byte	W08
	.byte		N06
	.byte	W08
	.byte		N08
	.byte	W64
	.byte		VOICE , 5
	.byte		VOL   , 105*song_course_beach_mvl/mxv
	.byte		PAN   , c_v+0
	.byte		N04   , An3 , v072
	.byte	W12
	.byte		        An3 , v080
	.byte	W12
	.byte		N12   , An3 , v092
	.byte	W18
	.byte		N03   , An3 , v080
	.byte	W12
	.byte		N04   , An3 , v092
	.byte	W12
	.byte		N06   , An3 , v080
	.byte	W06
	.byte		        Dn3 , v092
	.byte	W06
	.byte		        Fn3 
	.byte	W06
	.byte		        An3 
	.byte	W12
	.byte		N08   , As3 , v100
	.byte	W72
	.byte		N24   , Gs3 , v092
	.byte	W24
	.byte		N04   , An3 , v092
	.byte	W12
	.byte		        An3 , v080
	.byte	W12
	.byte		N12   , An3 , v092
	.byte	W18
	.byte		N03   , An3 , v080
	.byte	W12
	.byte		N04   , An3 , v092
	.byte	W12
	.byte		N06   , An3 , v080
	.byte	W06
	.byte		        Dn3 , v092
	.byte	W06
	.byte		        Fn3 
	.byte	W06
	.byte		        An3 
	.byte	W12
	.byte	PEND
	.byte		N08   , As3 , v100
	.byte	W48
	.byte		N15
	.byte	W24
	.byte		N15
	.byte	W24
	.byte	PEND
	.byte		N04   , An3 , v092
	.byte	W12
	.byte		        An3 , v080
	.byte	W12
	.byte		N12   , An3 , v092
	.byte	W18
	.byte		N03   , An3 , v100
	.byte	W12
	.byte		N04
	.byte	W12
	.byte		N06   , Cn3 , v080
	.byte	W06
	.byte		        An3 , v092
	.byte	W06
	.byte		        Cn3 
	.byte	W06
	.byte		        An3 
	.byte	W12
	.byte		N12   , As3 
	.byte	W12
	.byte		N06   , Cs3 
	.byte	W42
	.byte		N12   , En3 , v100
	.byte	W12
	.byte		N06   , As2 
	.byte	W12
	.byte		        Cn3 , v092
	.byte	W06
	.byte		        En3 , v100
	.byte	W06
	.byte		        Gn3 
	.byte	W06
	.byte	W12
	.byte		N04   , Cn4 
	.byte	W18
	.byte		N12
	.byte	W18
	.byte		N08
	.byte	W18
	.byte		N04
	.byte	W18
	.byte		N04
	.byte	W12
	.byte		N06
	.byte	W36
	.byte		N04   , Ds3 
	.byte	W24
	.byte		N04
	.byte	W18
	.byte		N12   , Cs3 
	.byte	W18
	.byte	PATT
	 .word	song_course_beach_1 + 0x3F
	.byte		N08   , As3 , v100
	.byte	W48
	.byte		N24   , As3 , v092
	.byte	W24
	.byte		        Gs3 
	.byte	W24
	.byte	PATT
	 .word	song_course_beach_1 + 0x3F
	.byte	PATT
	 .word	song_course_beach_1 + 0x5E
	.byte		N04   , An3 , v092
	.byte	W12
	.byte		        An3 , v080
	.byte	W12
	.byte		N12   , An3 , v092
	.byte	W18
	.byte		N03   , An3 , v100
	.byte	W12
	.byte		N04
	.byte	W12
	.byte		N06   , Cn3 , v080
	.byte	W06
	.byte		        An3 , v092
	.byte	W06
	.byte		        Cn3 , v080
	.byte	W06
	.byte		        An3 
	.byte	W06
	.byte		        Cn3 
	.byte	W06
	.byte		N12   , As3 , v092
	.byte	W12
	.byte		N06   , Cs3 
	.byte	W18
	.byte		        As3 , v112
	.byte	W12
	.byte		        Gn2 , v092
	.byte	W12
	.byte		        As2 
	.byte	W06
	.byte		        Dn3 
	.byte	W06
	.byte		        Fn3 
	.byte	W12
	.byte		        As3 , v100
	.byte	W12
	.byte		        Cn3 , v092
	.byte	W06
	.byte		N04   , En4 , v108
	.byte	W12
	.byte		N04
	.byte	W12
	.byte		N12   , Dn4 , v096
	.byte	W18
	.byte		N03   , En4 , v108
	.byte	W12
	.byte		N04
	.byte	W12
	.byte		N06
	.byte	W06
	.byte		N04   , Dn4 
	.byte	W12
	.byte		        Dn4 , v096
	.byte	W12
	.byte		N06   , En4 , v116
	.byte	W24
	.byte		VOICE , 118
	.byte		VOL   , 37*song_course_beach_mvl/mxv
	.byte		PAN   , c_v+0
	.byte		N36   , Cn3 , v100
	.byte	W72
	.byte	W54
	.byte		N04   , As4 , v092
	.byte	W42
	.byte	W54
	.byte		        As4 , v080
	.byte	W12
	.byte		N04
	.byte	W30
	.byte		N48   , An3 , v072
	.byte	W48
	.byte		        As3 , v080
	.byte	W48
	.byte		N10   , Cn4 , v092
	.byte	W48
	.byte		N15   , Bn3 , v100
	.byte	W24
	.byte		N15
	.byte	W24
	.byte		N48   , As3 , v080
	.byte	W54
	.byte		N04   , As4 , v100
	.byte	W12
	.byte		N04
	.byte	W30
	.byte		N48   , As3 , v080
	.byte	W54
	.byte		N04   , As4 , v092
	.byte	W42
	.byte		N08   , Cn4 , v100
	.byte	W36
	.byte		N08
	.byte	W36
	.byte		N08
	.byte	W24
	.byte	W12
	.byte		N36   , Gn3 
	.byte	W36
	.byte		N08   , As2 
	.byte	W24
	.byte		N08
	.byte	W24
	.byte		N48   , An2 
	.byte	W48
	.byte		VOICE , 121
	.byte		VOL   , 41*song_course_beach_mvl/mxv
	.byte		PAN   , c_v+0
	.byte	W06
	.byte		N04   , En4 , v060
	.byte	W12
	.byte		N03
	.byte	W06
	.byte		N04   , Dn4 
	.byte	W12
	.byte		N04
	.byte	W12
	.byte		N03   , Fn4 , v060
	.byte	W12
	.byte		N03
	.byte	W12
	.byte		N12   , En4 
	.byte	W18
	.byte		N04   , Fn4 
	.byte	W12
	.byte		N04
	.byte	W12
	.byte		N03
	.byte	W06
	.byte		N04   , En4 
	.byte	W12
	.byte		N04
	.byte	W12
	.byte	PEND
	.byte		N03   , En4 , v060
	.byte	W12
	.byte		N03
	.byte	W12
	.byte		N12   , Dn4 
	.byte	W18
	.byte		N04   , En4 
	.byte	W12
	.byte		N04
	.byte	W12
	.byte		N03
	.byte	W06
	.byte		N04   , Dn4 
	.byte	W12
	.byte		N04
	.byte	W12
	.byte	PEND
	.byte		N03   , Fn4 
	.byte	W12
	.byte		N03
	.byte	W12
	.byte		N12   , En4 
	.byte	W18
	.byte		N03   , Fn4 
	.byte	W14
	.byte		N04   , Cn2 , v120
	.byte	W08
	.byte		N04
	.byte	W08
	.byte		N04
	.byte	W12
	.byte		        En4 , v060
	.byte	W12
	.byte	PATT
	 .word	song_course_beach_1 + 0x18F
	.byte	PATT
	 .word	song_course_beach_1 + 0x179
	.byte	PATT
	 .word	song_course_beach_1 + 0x18F
	.byte	W08
	.byte		VOICE , 118
	.byte		VOL   , 41*song_course_beach_mvl/mxv
	.byte		PAN   , c_v+0
	.byte		N06   , Cn5 , v084
	.byte	W08
	.byte		N06
	.byte	W08
	.byte		N06
	.byte	W08
	.byte		N08
	.byte	W64
	.byte	GOTO
	 .word	song_course_beach_1 + 0x13
	.byte	FINE

@*********************** Track 03 ***********************@

song_course_beach_2:
	.byte	KEYSH , song_course_beach_key+0
	.byte		VOICE , 61
	.byte		VOL   , 105*song_course_beach_mvl/mxv
	.byte		PAN   , c_v+0
	.byte	W08
	.byte		N06   , Cn4 , v127
	.byte	W08
	.byte		N06
	.byte	W08
	.byte		N06
	.byte	W08
	.byte		N08
	.byte	W64
	.byte		VOICE , 121
	.byte		VOL   , 41*song_course_beach_mvl/mxv
	.byte		PAN   , c_v+0
	.byte		N04   , Fn3 , v072
	.byte	W12
	.byte		        Fn3 , v060
	.byte	W12
	.byte		N12   , Fn3 , v072
	.byte	W18
	.byte		N03   , Fn3 , v060
	.byte	W12
	.byte		N04   , Fn3 , v072
	.byte	W12
	.byte		N06   , Fn3 , v060
	.byte	W18
	.byte		        Dn3 , v072
	.byte	W12
	.byte		N08   , Fn3 , v080
	.byte	W72
	.byte		N24   , Fn3 , v072
	.byte	W24
	.byte		N04   , Fn3 , v072
	.byte	W12
	.byte		        Fn3 , v060
	.byte	W12
	.byte		N12   , Fn3 , v072
	.byte	W18
	.byte		N03   , Fn3 , v060
	.byte	W12
	.byte		N04   , Fn3 , v072
	.byte	W12
	.byte		N06   , Fn3 , v060
	.byte	W18
	.byte		        Dn3 , v072
	.byte	W12
	.byte	PEND
	.byte		N08   , Fn3 , v080
	.byte	W48
	.byte		N15
	.byte	W24
	.byte		        Gn3 
	.byte	W24
	.byte	PEND
	.byte		N04   , En3 , v072
	.byte	W12
	.byte		        En3 , v060
	.byte	W12
	.byte		N12   , En3 , v072
	.byte	W18
	.byte		N03   , Fn3 , v080
	.byte	W12
	.byte		N04
	.byte	W18
	.byte		N06   , Fn3 , v072
	.byte	W12
	.byte		N06
	.byte	W12
	.byte		N12
	.byte	W96
	.byte	W12
	.byte		N04   , Gn3 , v080
	.byte	W18
	.byte		N12
	.byte	W18
	.byte		N08   , Fs3 
	.byte	W18
	.byte		N04
	.byte	W18
	.byte		N04
	.byte	W12
	.byte		N06   , Fn3 
	.byte	W36
	.byte		N04   , As2 
	.byte	W24
	.byte		N04
	.byte	W18
	.byte		N12
	.byte	W18
	.byte	PATT
	 .word	song_course_beach_2 + 0x3B
	.byte		N08   , Fn3 , v080
	.byte	W48
	.byte		N24   , Fn3 , v072
	.byte	W24
	.byte		N24
	.byte	W24
	.byte	PATT
	 .word	song_course_beach_2 + 0x3B
	.byte	PATT
	 .word	song_course_beach_2 + 0x56
	.byte		N04   , En3 , v072
	.byte	W12
	.byte		        En3 , v060
	.byte	W12
	.byte		N12   , En3 , v072
	.byte	W18
	.byte		N03   , Fn3 , v080
	.byte	W12
	.byte		N04
	.byte	W18
	.byte		N06   , Fn3 , v072
	.byte	W12
	.byte		        Fn3 , v060
	.byte	W12
	.byte		N12   , Fn3 , v072
	.byte	W30
	.byte		N06   , Fn3 , v092
	.byte	W48
	.byte		        Gn3 , v080
	.byte	W18
	.byte		N04   , Cn4 , v088
	.byte	W12
	.byte		N04
	.byte	W12
	.byte		N12   , Cn4 , v076
	.byte	W18
	.byte		N03   , Cn4 , v088
	.byte	W12
	.byte		N04
	.byte	W12
	.byte		N06
	.byte	W06
	.byte		N04
	.byte	W12
	.byte		        Cn4 , v076
	.byte	W12
	.byte		N06   , Cn4 , v112
	.byte	W24
	.byte		VOICE , 61
	.byte		VOL   , 105*song_course_beach_mvl/mxv
	.byte		PAN   , c_v+0
	.byte		N36   , An2 , v100
	.byte	W36
	.byte		N08   , Cn3 , v060
	.byte	W12
	.byte		        Dn3 
	.byte	W12
	.byte		        Fn3 
	.byte	W12
	.byte		        Gn3 
	.byte	W54
	.byte		N04   , As3 , v112
	.byte	W42
	.byte	W54
	.byte		        As3 , v100
	.byte	W12
	.byte		N04
	.byte	W30
	.byte		N48   , En3 , v052
	.byte	W48
	.byte		        Fn3 
	.byte	W48
	.byte		N10   , Gn3 
	.byte	W48
	.byte		N15   , Gs3 , v072
	.byte	W24
	.byte		N15
	.byte	W24
	.byte		N48   , Fn3 , v052
	.byte	W54
	.byte		N04   , As3 , v092
	.byte	W12
	.byte		N04
	.byte	W30
	.byte		N48   , Fn3 , v052
	.byte	W54
	.byte		N04   , As3 , v080
	.byte	W42
	.byte		N08   , Fn3 , v060
	.byte	W36
	.byte		N08
	.byte	W36
	.byte		N08
	.byte	W24
	.byte	W12
	.byte		N36   , Cn4 , v080
	.byte	W36
	.byte		N08   , En4 
	.byte	W24
	.byte		N08
	.byte	W24
	.byte		N18   , Gn4 
	.byte	W18
	.byte		N72   , Fn4 
	.byte	W36
	.byte		VOL   , 105*song_course_beach_mvl/mxv
	.byte	W02
	.byte		        100*song_course_beach_mvl/mxv
	.byte	W02
	.byte		        95*song_course_beach_mvl/mxv
	.byte	W03
	.byte		        91*song_course_beach_mvl/mxv
	.byte	W02
	.byte		        86*song_course_beach_mvl/mxv
	.byte	W03
	.byte		        81*song_course_beach_mvl/mxv
	.byte	W02
	.byte		        77*song_course_beach_mvl/mxv
	.byte	W02
	.byte		        72*song_course_beach_mvl/mxv
	.byte	W03
	.byte		        68*song_course_beach_mvl/mxv
	.byte	W02
	.byte		        63*song_course_beach_mvl/mxv
	.byte	W03
	.byte		        58*song_course_beach_mvl/mxv
	.byte	W02
	.byte		        54*song_course_beach_mvl/mxv
	.byte	W02
	.byte		        49*song_course_beach_mvl/mxv
	.byte	W03
	.byte		        45*song_course_beach_mvl/mxv
	.byte	W02
	.byte		        40*song_course_beach_mvl/mxv
	.byte	W03
	.byte		        35*song_course_beach_mvl/mxv
	.byte	W02
	.byte		        31*song_course_beach_mvl/mxv
	.byte	W02
	.byte		        26*song_course_beach_mvl/mxv
	.byte	W01
	.byte		        24*song_course_beach_mvl/mxv
	.byte	W01
	.byte		VOICE , 121
	.byte		VOL   , 41*song_course_beach_mvl/mxv
	.byte		PAN   , c_v+0
	.byte		N03   , As3 , v060
	.byte	W12
	.byte		N03
	.byte	W12
	.byte		N12
	.byte	W18
	.byte		N04
	.byte	W12
	.byte		N04
	.byte	W12
	.byte		N03
	.byte	W06
	.byte		N04
	.byte	W12
	.byte		N04
	.byte	W12
	.byte		N03   , An3 , v060
	.byte	W12
	.byte		N03
	.byte	W12
	.byte		N12
	.byte	W18
	.byte		N04
	.byte	W12
	.byte		N04
	.byte	W12
	.byte		N03
	.byte	W06
	.byte		N04
	.byte	W12
	.byte		N04
	.byte	W12
	.byte	PEND
	.byte		N03   , As3 
	.byte	W12
	.byte		N03
	.byte	W12
	.byte		N12
	.byte	W18
	.byte		N03
	.byte	W12
	.byte		VOL   , 82*song_course_beach_mvl/mxv
	.byte	W02
	.byte		VOICE , 12
	.byte		PAN   , c_v+0
	.byte		N08   , Cn4 , v120
	.byte	W08
	.byte		N08
	.byte	W08
	.byte		N08
	.byte	W12
	.byte		VOICE , 121
	.byte		VOL   , 41*song_course_beach_mvl/mxv
	.byte		PAN   , c_v+0
	.byte		N04   , As3 , v060
	.byte	W12
	.byte	PATT
	 .word	song_course_beach_2 + 0x17D
	.byte		N03   , As3 , v060
	.byte	W12
	.byte		N03
	.byte	W12
	.byte		N12
	.byte	W18
	.byte		N04
	.byte	W12
	.byte		N04
	.byte	W12
	.byte		N03
	.byte	W06
	.byte		N04
	.byte	W12
	.byte		N04
	.byte	W12
	.byte	PATT
	 .word	song_course_beach_2 + 0x17D
	.byte	W06
	.byte		VOL   , 90*song_course_beach_mvl/mxv
	.byte	W02
	.byte		VOICE , 61
	.byte		PAN   , c_v+0
	.byte		N06   , Cn4 , v127
	.byte	W08
	.byte		N06
	.byte	W08
	.byte		N06
	.byte	W08
	.byte		N08
	.byte	W64
	.byte	GOTO
	 .word	song_course_beach_2 + 0x13
	.byte	FINE

@*********************** Track 04 ***********************@

song_course_beach_3:
	.byte	KEYSH , song_course_beach_key+0
	.byte		VOICE , 119
	.byte		VOL   , 41*song_course_beach_mvl/mxv
	.byte		PAN   , c_v+0
	.byte	W08
	.byte		N06   , Cn4 , v092
	.byte	W08
	.byte		N06
	.byte	W08
	.byte		N06
	.byte	W08
	.byte		N08
	.byte	W64
	.byte		VOICE , 123
	.byte		VOL   , 90*song_course_beach_mvl/mxv
	.byte		PAN   , c_v+0
	.byte		N04   , En3 , v072
	.byte	W12
	.byte		        En3 , v060
	.byte	W12
	.byte		N12   , Dn3 , v072
	.byte	W18
	.byte		N03   , En3 , v060
	.byte	W12
	.byte		N04   , En3 , v072
	.byte	W12
	.byte		N06   , En3 , v060
	.byte	W30
	.byte		N08   , Dn3 , v080
	.byte	W72
	.byte		N24   , Cs3 , v072
	.byte	W24
	.byte		N04   , En3 , v072
	.byte	W12
	.byte		        En3 , v060
	.byte	W12
	.byte		N12   , Dn3 , v072
	.byte	W18
	.byte		N03   , En3 , v060
	.byte	W12
	.byte		N04   , En3 , v072
	.byte	W12
	.byte		N06   , En3 , v060
	.byte	W30
	.byte	PEND
	.byte		N08   , Dn3 , v080
	.byte	W48
	.byte		N15
	.byte	W24
	.byte		        Cs3 
	.byte	W24
	.byte	PEND
	.byte		N04   , Cn3 , v072
	.byte	W12
	.byte		        Cn3 , v060
	.byte	W12
	.byte		N12   , Cn3 , v072
	.byte	W72
	.byte	PEND
	.byte	W96
	.byte	W12
	.byte		N04   , Cn3 , v080
	.byte	W18
	.byte		N12
	.byte	W18
	.byte		N08
	.byte	W18
	.byte		N04
	.byte	W18
	.byte		N04
	.byte	W12
	.byte		N06
	.byte	W96
	.byte	PATT
	 .word	song_course_beach_3 + 0x38
	.byte		N08   , Dn3 , v080
	.byte	W48
	.byte		N24   , Dn3 , v072
	.byte	W24
	.byte		        Cs3 
	.byte	W24
	.byte	PATT
	 .word	song_course_beach_3 + 0x38
	.byte	PATT
	 .word	song_course_beach_3 + 0x50
	.byte	PATT
	 .word	song_course_beach_3 + 0x59
	.byte	W96
	.byte		N04   , An3 , v088
	.byte	W12
	.byte		N04
	.byte	W12
	.byte		N12   , An3 , v076
	.byte	W18
	.byte		N03   , An3 , v088
	.byte	W12
	.byte		N04
	.byte	W12
	.byte		N06
	.byte	W06
	.byte		N04
	.byte	W12
	.byte		        An3 , v076
	.byte	W12
	.byte		N06   , An3 , v096
	.byte	W96
	.byte	W96
	.byte	W96
	.byte		VOICE , 119
	.byte		VOL   , 37*song_course_beach_mvl/mxv
	.byte		PAN   , c_v+0
	.byte		N48   , An2 , v072
	.byte	W48
	.byte		        As2 , v080
	.byte	W48
	.byte		N10   , Cn3 , v092
	.byte	W48
	.byte		N15   , Dn3 , v100
	.byte	W24
	.byte		N15
	.byte	W24
	.byte		N48   , Dn3 , v080
	.byte	W96
	.byte		        Cs3 
	.byte	W96
	.byte		N08   , An2 , v100
	.byte	W36
	.byte		        Gs2 
	.byte	W36
	.byte		        Gn2 
	.byte	W24
	.byte	W12
	.byte		N36   , Cn3 
	.byte	W36
	.byte		N08   , Gn2 
	.byte	W24
	.byte		N08
	.byte	W24
	.byte		N48   , Cn3 
	.byte	W48
	.byte		VOICE , 123
	.byte		VOL   , 105*song_course_beach_mvl/mxv
	.byte		PAN   , c_v+0
	.byte	W06
	.byte		N03   , An3 , v072
	.byte	W06
	.byte		        Cn4 , v080
	.byte	W18
	.byte		        An3 , v072
	.byte	W06
	.byte		        Cn4 , v092
	.byte	W06
	.byte		        An3 , v072
	.byte	W06
	.byte	W06
	.byte		N06   , As3 , v072
	.byte	W06
	.byte		N03   , Dn4 , v080
	.byte	W18
	.byte		N06   , As3 , v072
	.byte	W06
	.byte		N03   , Dn4 
	.byte	W18
	.byte		        As3 
	.byte	W06
	.byte		        Dn4 
	.byte	W18
	.byte		        As3 
	.byte	W06
	.byte		        Dn4 , v080
	.byte	W06
	.byte		        As3 , v072
	.byte	W06
	.byte	PEND
	.byte	W06
	.byte		N06   , An3 , v072
	.byte	W06
	.byte		N03   , Cn4 , v080
	.byte	W18
	.byte		N06   , An3 , v072
	.byte	W06
	.byte		N03   , Cn4 
	.byte	W18
	.byte		        An3 
	.byte	W06
	.byte		        Cn4 , v080
	.byte	W18
	.byte		        An3 , v072
	.byte	W06
	.byte		        Cn4 , v092
	.byte	W06
	.byte		        An3 , v072
	.byte	W06
	.byte	PEND
	.byte	W06
	.byte		N06   , As3 
	.byte	W06
	.byte		N03   , Dn4 , v080
	.byte	W18
	.byte		        As3 , v072
	.byte	W06
	.byte		        Dn4 
	.byte	W20
	.byte		VOICE , 123
	.byte		VOL   , 105*song_course_beach_mvl/mxv
	.byte		PAN   , c_v+0
	.byte		N08   , Cn3 , v120
	.byte	W08
	.byte		N08
	.byte	W08
	.byte		N08
	.byte	W24
	.byte	W06
	.byte		VOICE , 123
	.byte		VOL   , 105*song_course_beach_mvl/mxv
	.byte		PAN   , c_v+0
	.byte		N06   , An3 , v072
	.byte	W06
	.byte		N03   , Cn4 , v080
	.byte	W18
	.byte		N06   , An3 , v072
	.byte	W06
	.byte		N03   , Cn4 
	.byte	W18
	.byte		        An3 
	.byte	W06
	.byte		        Cn4 , v080
	.byte	W18
	.byte		        An3 , v072
	.byte	W06
	.byte		        Cn4 , v092
	.byte	W06
	.byte		        An3 , v072
	.byte	W06
	.byte	PATT
	 .word	song_course_beach_3 + 0xF9
	.byte	PATT
	 .word	song_course_beach_3 + 0x116
	.byte	W08
	.byte		VOICE , 119
	.byte		VOL   , 41*song_course_beach_mvl/mxv
	.byte		PAN   , c_v+0
	.byte		N06   , Cn4 , v084
	.byte	W08
	.byte		N06
	.byte	W08
	.byte		N06
	.byte	W08
	.byte		N08
	.byte	W64
	.byte	GOTO
	 .word	song_course_beach_3 + 0x13
	.byte	FINE

@*********************** Track 05 ***********************@

song_course_beach_4:
	.byte	KEYSH , song_course_beach_key+0
	.byte		VOICE , 32
	.byte		VOL   , 105*song_course_beach_mvl/mxv
	.byte		PAN   , c_v+0
	.byte	PRIO  , 6
	.byte		N12   , Cn1 , v127
	.byte	W72
	.byte		N24
	.byte	W24
	.byte		N24   , Fn1 , v120
	.byte	W24
	.byte		        Cn1 
	.byte	W24
	.byte		        Fn1 
	.byte	W24
	.byte		        Cn1 
	.byte	W24
	.byte	PEND
	.byte		N08   , Gn1 , v092
	.byte	W72
	.byte		N24   , Fs1 , v100
	.byte	W24
	.byte	PATT
	 .word	song_course_beach_4 + 0x10
	.byte		N08   , Gn1 , v092
	.byte	W48
	.byte		N24   , Gn1 , v100
	.byte	W24
	.byte		        Cn1 , v120
	.byte	W24
	.byte		N20   , Fn1 
	.byte	W24
	.byte		        Cn1 
	.byte	W24
	.byte		        Dn1 
	.byte	W24
	.byte		        An0 
	.byte	W24
	.byte		        Gn0 
	.byte	W24
	.byte		        As0 
	.byte	W24
	.byte		        Cn1 
	.byte	W24
	.byte		        Gn1 , v100
	.byte	W24
	.byte		        An1 
	.byte	W24
	.byte		N20
	.byte	W24
	.byte		        Gs1 
	.byte	W24
	.byte		N20
	.byte	W24
	.byte		N08   , Gn1 
	.byte	W24
	.byte		N05   , Cn1 , v120
	.byte	W12
	.byte		N05
	.byte	W24
	.byte		N06
	.byte	W12
	.byte		N03
	.byte	W06
	.byte		N18
	.byte	W18
	.byte	PATT
	 .word	song_course_beach_4 + 0x10
	.byte		N08   , Gn1 , v092
	.byte	W48
	.byte		N24   , Gn1 , v100
	.byte	W24
	.byte		        Fs1 
	.byte	W24
	.byte	PATT
	 .word	song_course_beach_4 + 0x10
	.byte		N08   , Gn1 , v092
	.byte	W48
	.byte		N24
	.byte	W24
	.byte		        Cn1 , v120
	.byte	W24
	.byte		N20   , Fn1 
	.byte	W24
	.byte		        Cn1 
	.byte	W24
	.byte		        Dn1 
	.byte	W24
	.byte		        An1 , v100
	.byte	W24
	.byte		        Gn1 
	.byte	W24
	.byte		        As0 , v120
	.byte	W24
	.byte		        Cn1 
	.byte	W24
	.byte		        Gn1 , v100
	.byte	W24
	.byte		        Fn1 , v120
	.byte	W24
	.byte		        Cn1 
	.byte	W24
	.byte		        Fn1 
	.byte	W24
	.byte		        Cn1 
	.byte	W24
	.byte		N06   , Fn1 
	.byte	W24
	.byte		N30
	.byte	W72
	.byte		N15   , As0 
	.byte	W18
	.byte		N24   , Fn1 
	.byte	W24
	.byte		N21   , As0 
	.byte	W24
	.byte		N04   , Fn1 
	.byte	W06
	.byte		N12
	.byte	W12
	.byte		N10   , As0 
	.byte	W12
	.byte		N18   , As0 , v120
	.byte	W18
	.byte		N04   , Fn1 
	.byte	W06
	.byte		N18
	.byte	W18
	.byte		N04   , As0 
	.byte	W06
	.byte		N18
	.byte	W18
	.byte		N04   , Fn1 
	.byte	W06
	.byte		N12
	.byte	W12
	.byte		        As0 
	.byte	W12
	.byte	PEND
	.byte		N15   , Fn1 , v100
	.byte	W18
	.byte		N04   , Cn2 
	.byte	W06
	.byte		N18
	.byte	W18
	.byte		N04   , Gn1 
	.byte	W06
	.byte		N15
	.byte	W18
	.byte		N04   , Dn2 
	.byte	W06
	.byte		N12
	.byte	W12
	.byte		        Gn1 
	.byte	W12
	.byte		        An1 
	.byte	W48
	.byte		N20   , Bn0 , v120
	.byte	W24
	.byte		N20
	.byte	W24
	.byte	PATT
	 .word	song_course_beach_4 + 0xAC
	.byte		N18   , As0 , v120
	.byte	W18
	.byte		N04   , Fn1 
	.byte	W06
	.byte		N18
	.byte	W18
	.byte		N21   , As0 
	.byte	W24
	.byte		N04   , Fn1 
	.byte	W06
	.byte		N12
	.byte	W12
	.byte		        As0 
	.byte	W12
	.byte		N16   , An1 , v100
	.byte	W36
	.byte		        Gs1 
	.byte	W36
	.byte		        Gn1 
	.byte	W24
	.byte	W48
	.byte		N12   , Cn1 , v120
	.byte	W24
	.byte		N12
	.byte	W24
	.byte		N20   , Fn1 , v100
	.byte	W24
	.byte		        Cn1 
	.byte	W24
	.byte		        Fn1 
	.byte	W24
	.byte		        Cn1 
	.byte	W24
	.byte	PEND
	.byte		N20   , Gn1 , v100
	.byte	W24
	.byte		        Dn1 
	.byte	W24
	.byte		        Gn1 
	.byte	W24
	.byte		        Dn1 
	.byte	W24
	.byte	PEND
	.byte	PATT
	 .word	song_course_beach_4 + 0x106
	.byte		N20   , Gn1 , v100
	.byte	W24
	.byte		        Dn1 
	.byte	W24
	.byte		        Cn1 
	.byte	W24
	.byte		        Gn1 
	.byte	W06
	.byte		VOL   , 74*song_course_beach_mvl/mxv
	.byte	W06
	.byte		        49*song_course_beach_mvl/mxv
	.byte	W06
	.byte		        33*song_course_beach_mvl/mxv
	.byte	W06
	.byte		        105*song_course_beach_mvl/mxv
	.byte		N20   , Fn1 
	.byte	W24
	.byte		        Cn1 
	.byte	W24
	.byte		        Fn1 
	.byte	W24
	.byte		        Cn1 
	.byte	W24
	.byte	PATT
	 .word	song_course_beach_4 + 0x111
	.byte	PATT
	 .word	song_course_beach_4 + 0x106
	.byte	W08
	.byte		N06   , Cn2 , v127
	.byte	W08
	.byte		N06
	.byte	W08
	.byte		N06
	.byte	W08
	.byte		N12
	.byte	W40
	.byte		N24   , Cn1 
	.byte	W24
	.byte	GOTO
	 .word	song_course_beach_4 + 0x10
	.byte	FINE

@*********************** Track 06 ***********************@

song_course_beach_5:
	.byte	KEYSH , song_course_beach_key+0
	.byte		VOICE , 127
	.byte		VOL   , 105*song_course_beach_mvl/mxv
	.byte		PAN   , c_v+0
	.byte		N06   , As1 , v072
	.byte	W08
	.byte		N03   , Fn1 , v127
	.byte		N03   , As3 , v044
	.byte	W08
	.byte		        Fn1 , v108
	.byte		N03   , As3 , v032
	.byte	W08
	.byte		        Fn1 , v100
	.byte		N03   , As3 , v032
	.byte	W08
	.byte		        Fn1 , v127
	.byte		N03   , As3 , v048
	.byte	W22
	.byte		N06   , Ds3 , v100
	.byte		N11   , Fn3 , v108
	.byte	W06
	.byte		N06   , Ds3 , v112
	.byte	W06
	.byte		        Dn3 
	.byte		N06   , Fn3 , v064
	.byte	W06
	.byte		        Dn3 , v100
	.byte		N11   , Fs3 , v092
	.byte	W06
	.byte		N03   , Ds3 , v112
	.byte	W03
	.byte		        Ds3 , v100
	.byte	W03
	.byte		        Dn3 , v112
	.byte		N08   , Fn3 , v108
	.byte	W03
	.byte		N03   , Dn3 , v100
	.byte	W03
	.byte		N06   , En3 , v120
	.byte	W03
	.byte		N03   , Fn3 , v052
	.byte	W03
	.byte		N03   , Cs1 , v100
	.byte		N01   , As3 , v028
	.byte	W06
	.byte		N01
	.byte	W06
	.byte		        As3 , v048
	.byte	W06
	.byte		N03   , Cs1 , v076
	.byte		N01   , As3 , v028
	.byte	W06
	.byte		N03   , Cn1 , v100
	.byte		N02   , As3 , v048
	.byte	W06
	.byte		        As3 , v028
	.byte	W06
	.byte		N03   , Cs1 , v064
	.byte		N02   , As3 , v048
	.byte	W06
	.byte		N03   , Cn1 , v064
	.byte		N02   , As3 , v028
	.byte	W06
	.byte		N03   , Cn1 , v072
	.byte		N02   , As3 , v048
	.byte	W06
	.byte		        As3 , v024
	.byte	W06
	.byte		N03   , Cs1 , v072
	.byte		N02   , As3 , v048
	.byte	W06
	.byte		N03   , Cn1 , v064
	.byte		N02   , As3 , v024
	.byte	W06
	.byte		N03   , Cn1 , v092
	.byte		N02   , As3 , v048
	.byte	W06
	.byte		N03   , Cs1 , v060
	.byte		N02   , As3 , v032
	.byte	W06
	.byte		        As3 , v048
	.byte	W06
	.byte		N03   , Cn1 , v060
	.byte		N02   , As3 , v024
	.byte	W06
	.byte	PEND
	.byte		N03   , Cs1 , v100
	.byte		N01   , As3 , v028
	.byte	W06
	.byte		N01
	.byte	W06
	.byte		        As3 , v048
	.byte	W06
	.byte		N03   , Cs1 , v076
	.byte		N01   , As3 , v028
	.byte	W06
	.byte		N03   , Cn1 , v100
	.byte		N02   , As3 , v048
	.byte	W06
	.byte		        As3 , v028
	.byte	W06
	.byte		N03   , Cs1 , v064
	.byte		N02   , As3 , v048
	.byte	W06
	.byte		N03   , Cn1 , v064
	.byte		N02   , As3 , v028
	.byte	W06
	.byte		N03   , Cn1 , v072
	.byte		N02   , As3 , v048
	.byte	W06
	.byte		        As3 , v024
	.byte	W06
	.byte		N03   , Cs1 , v072
	.byte		N02   , As3 , v048
	.byte	W06
	.byte		N03   , Cn1 , v064
	.byte		N02   , As3 , v024
	.byte	W06
	.byte		N03   , Cn1 , v092
	.byte		N02   , As3 , v048
	.byte	W06
	.byte		N03   , Cs1 , v060
	.byte		N02   , As3 , v032
	.byte	W06
	.byte		        As3 , v048
	.byte	W06
	.byte		N06   , As1 , v072
	.byte		N02   , As3 , v024
	.byte	W06
	.byte	PEND
	.byte	PATT
	 .word	song_course_beach_5 + 0x54
	.byte	PATT
	 .word	song_course_beach_5 + 0xB0
	.byte	PATT
	 .word	song_course_beach_5 + 0x54
	.byte	PATT
	 .word	song_course_beach_5 + 0xB0
	.byte	PATT
	 .word	song_course_beach_5 + 0x54
	.byte	PATT
	 .word	song_course_beach_5 + 0xB0
	.byte	PATT
	 .word	song_course_beach_5 + 0x54
	.byte	PATT
	 .word	song_course_beach_5 + 0xB0
	.byte	PATT
	 .word	song_course_beach_5 + 0x54
	.byte	PATT
	 .word	song_course_beach_5 + 0xB0
	.byte	PATT
	 .word	song_course_beach_5 + 0x54
	.byte	PATT
	 .word	song_course_beach_5 + 0xB0
	.byte	PATT
	 .word	song_course_beach_5 + 0x54
	.byte		N03   , Cs1 , v100
	.byte		N01   , As3 , v028
	.byte	W06
	.byte		N01
	.byte	W06
	.byte		        As3 , v048
	.byte	W06
	.byte		N03   , Cs1 , v076
	.byte		N01   , As3 , v028
	.byte	W06
	.byte		N03   , Cn1 , v100
	.byte		N02   , As3 , v048
	.byte	W06
	.byte		        As3 , v028
	.byte	W06
	.byte		N03   , Cs1 , v064
	.byte		N02   , As3 , v048
	.byte	W06
	.byte		N03   , Cn1 , v064
	.byte		N02   , As3 , v028
	.byte	W06
	.byte		N06   , Ds3 , v084
	.byte	W06
	.byte		N03   , Ds3 , v100
	.byte		N11   , Fn3 , v108
	.byte	W03
	.byte		N03   , Ds3 , v112
	.byte	W03
	.byte		N06   , Dn3 , v116
	.byte	W06
	.byte		        Fn3 , v064
	.byte	W06
	.byte		        Dn3 , v108
	.byte		N11   , Fs3 , v060
	.byte	W06
	.byte		N06   , Ds3 , v116
	.byte	W06
	.byte		        Dn3 
	.byte		N12   , Fn3 , v108
	.byte	W06
	.byte		N06   , Dn3 , v104
	.byte	W06
	.byte	PATT
	 .word	song_course_beach_5 + 0x54
	.byte	PATT
	 .word	song_course_beach_5 + 0xB0
	.byte	PATT
	 .word	song_course_beach_5 + 0x54
	.byte	PATT
	 .word	song_course_beach_5 + 0xB0
	.byte	PATT
	 .word	song_course_beach_5 + 0x54
	.byte	PATT
	 .word	song_course_beach_5 + 0xB0
	.byte	PATT
	 .word	song_course_beach_5 + 0x54
	.byte	PATT
	 .word	song_course_beach_5 + 0xB0
	.byte	PATT
	 .word	song_course_beach_5 + 0x54
	.byte	PATT
	 .word	song_course_beach_5 + 0xB0
	.byte	PATT
	 .word	song_course_beach_5 + 0x54
	.byte	PATT
	 .word	song_course_beach_5 + 0xB0
	.byte	PATT
	 .word	song_course_beach_5 + 0x54
	.byte	PATT
	 .word	song_course_beach_5 + 0xB0
	.byte	PATT
	 .word	song_course_beach_5 + 0x54
	.byte		N06   , As1 , v072
	.byte	W08
	.byte		N03   , Fn1 , v127
	.byte		N03   , As3 , v044
	.byte	W08
	.byte		        Fn1 , v108
	.byte		N03   , As3 , v032
	.byte	W08
	.byte		        Fn1 , v100
	.byte		N03   , As3 , v032
	.byte	W08
	.byte		        Fn1 , v127
	.byte		N03   , As3 , v048
	.byte	W22
	.byte		N06   , Ds3 , v100
	.byte		N11   , Fn3 , v108
	.byte	W06
	.byte		N06   , Ds3 , v112
	.byte	W06
	.byte		        Dn3 
	.byte		N06   , Fn3 , v064
	.byte	W06
	.byte		        Dn3 , v100
	.byte		N11   , Fs3 , v092
	.byte	W06
	.byte		N03   , Ds3 , v112
	.byte	W03
	.byte		        Ds3 , v100
	.byte	W03
	.byte		        Dn3 , v112
	.byte		N08   , Fn3 , v108
	.byte	W03
	.byte		N03   , Dn3 , v100
	.byte	W03
	.byte		N06   , En3 , v120
	.byte	W03
	.byte		N03   , Fn3 , v052
	.byte	W03
	.byte	GOTO
	 .word	song_course_beach_5 + 0x54
	.byte	FINE

@******************************************************@

	.align	2

song_course_beach:
	.byte	6	@ NumTrks
	.byte	0	@ NumBlks
	.byte	song_course_beach_pri	@ Priority
	.byte	song_course_beach_rev	@ Reverb

	.word	song_course_beach_grp

	.word	song_course_beach_0
	.word	song_course_beach_1
	.word	song_course_beach_2
	.word	song_course_beach_3
	.word	song_course_beach_4
	.word	song_course_beach_5

	.end
