@ File generated by m4a2s Song-Module
	.include "MPlayDef.s"

	.equ	song_gp_intro_grp, bank_001
	.equ	song_gp_intro_pri, 0
	.equ	song_gp_intro_rev, 0
	.equ	song_gp_intro_mvl, 127
	.equ	song_gp_intro_key, 0

	.section .rodata
	.global	song_gp_intro
	.align	2

@*********************** Track 01 ***********************@

song_gp_intro_0:
	.byte	KEYSH , song_gp_intro_key+0
	.byte	TEMPO , 124/2
	.byte		VOICE , 61
	.byte		VOL   , 94*song_gp_intro_mvl/mxv
	.byte		PAN   , c_v-15
	.byte		N04   , As3 , v112
	.byte	W06
	.byte		N03   , Fs3 , v100
	.byte	W06
	.byte		        As3 , v112
	.byte	W06
	.byte		N09   , Cs4 , v100
	.byte	W12
	.byte		N02   , As3 , v112
	.byte	W06
	.byte		N04   , Cs4 
	.byte	W06
	.byte		N03   , As3 , v100
	.byte	W06
	.byte		        Cs4 , v112
	.byte	W06
	.byte		N15   , Fs4 , v108
	.byte	W18
	.byte		N04   , Bn3 , v112
	.byte	W06
	.byte		N03   , Gn3 , v100
	.byte	W06
	.byte		        Bn3 , v112
	.byte	W06
	.byte		N09   , Dn4 , v100
	.byte	W12
	.byte		N02   , Bn3 , v112
	.byte	W06
	.byte		N04   , Dn4 
	.byte	W06
	.byte		N03   , Bn3 , v100
	.byte	W06
	.byte		        Dn4 , v112
	.byte	W06
	.byte		N15   , Gn4 , v108
	.byte	W18
	.byte		VOICE , 111
	.byte		VOL   , 47*song_gp_intro_mvl/mxv
	.byte		PAN   , c_v+0
	.byte		N32   , Cn4 , v080
	.byte	W36
	.byte		        Fn4 
	.byte	W36
	.byte		VOICE , 61
	.byte		VOL   , 94*song_gp_intro_mvl/mxv
	.byte		PAN   , c_v-15
	.byte		N02   , Fs4 , v116
	.byte	W06
	.byte		N06   , Fs4 , v108
	.byte	W12
	.byte		N02   , Gn4 , v120
	.byte	W06
	.byte		N03   , Gs4 , v116
	.byte	W06
	.byte		        An4 , v120
	.byte	W06
	.byte		N36   , As4 , v124
	.byte	W01
	.byte		VOL   , 78*song_gp_intro_mvl/mxv
	.byte	W02
	.byte		        75*song_gp_intro_mvl/mxv
	.byte	W02
	.byte		        69*song_gp_intro_mvl/mxv
	.byte	W02
	.byte		        57*song_gp_intro_mvl/mxv
	.byte	W01
	.byte		        50*song_gp_intro_mvl/mxv
	.byte	W01
	.byte		        51*song_gp_intro_mvl/mxv
	.byte	W04
	.byte		        53*song_gp_intro_mvl/mxv
	.byte	W02
	.byte		        55*song_gp_intro_mvl/mxv
	.byte	W02
	.byte		        58*song_gp_intro_mvl/mxv
	.byte	W02
	.byte		        61*song_gp_intro_mvl/mxv
	.byte	W02
	.byte		        66*song_gp_intro_mvl/mxv
	.byte	W02
	.byte		        70*song_gp_intro_mvl/mxv
	.byte	W02
	.byte		        77*song_gp_intro_mvl/mxv
	.byte	W02
	.byte		        83*song_gp_intro_mvl/mxv
	.byte	W02
	.byte		        91*song_gp_intro_mvl/mxv
	.byte	W02
	.byte		        100*song_gp_intro_mvl/mxv
	.byte	W05
	.byte	FINE

@*********************** Track 02 ***********************@

song_gp_intro_1:
	.byte	KEYSH , song_gp_intro_key+0
	.byte		VOICE , 61
	.byte		VOL   , 94*song_gp_intro_mvl/mxv
	.byte		PAN   , c_v+15
	.byte		N04   , Fs3 , v112
	.byte	W06
	.byte		N03   , Cs3 , v100
	.byte	W06
	.byte		        Fs3 , v112
	.byte	W06
	.byte		N09   , As3 , v100
	.byte	W12
	.byte		N02   , Fs3 , v112
	.byte	W06
	.byte		N04   , As3 
	.byte	W06
	.byte		N03   , Fs3 , v100
	.byte	W06
	.byte		        As3 , v112
	.byte	W06
	.byte		N15   , Cs4 , v104
	.byte	W18
	.byte		N04   , Gn3 , v112
	.byte	W06
	.byte		N03   , Dn3 , v100
	.byte	W06
	.byte		        Gn3 , v112
	.byte	W06
	.byte		N09   , Bn3 , v100
	.byte	W12
	.byte		N02   , Gn3 , v112
	.byte	W06
	.byte		N04   , Bn3 
	.byte	W06
	.byte		N03   , Gn3 , v100
	.byte	W06
	.byte		        Bn3 , v112
	.byte	W06
	.byte		N15   , Dn4 , v104
	.byte	W18
	.byte		VOICE , 112
	.byte		VOL   , 47*song_gp_intro_mvl/mxv
	.byte		PAN   , c_v+0
	.byte		N32   , Gn3 , v080
	.byte	W36
	.byte		        Cs4 
	.byte	W36
	.byte		VOICE , 61
	.byte		VOL   , 94*song_gp_intro_mvl/mxv
	.byte		PAN   , c_v+15
	.byte		N02   , Dn4 , v116
	.byte	W06
	.byte		N06   , Dn4 , v108
	.byte	W12
	.byte		N02   , Ds4 , v120
	.byte	W06
	.byte		N03   , Fn4 , v116
	.byte	W06
	.byte		        Fs4 , v120
	.byte	W06
	.byte		N36   , Gn4 
	.byte	W01
	.byte		VOL   , 78*song_gp_intro_mvl/mxv
	.byte	W02
	.byte		        75*song_gp_intro_mvl/mxv
	.byte	W02
	.byte		        69*song_gp_intro_mvl/mxv
	.byte	W02
	.byte		        57*song_gp_intro_mvl/mxv
	.byte	W01
	.byte		        50*song_gp_intro_mvl/mxv
	.byte	W01
	.byte		        51*song_gp_intro_mvl/mxv
	.byte	W04
	.byte		        52*song_gp_intro_mvl/mxv
	.byte	W02
	.byte		        55*song_gp_intro_mvl/mxv
	.byte	W02
	.byte		        57*song_gp_intro_mvl/mxv
	.byte	W02
	.byte		        60*song_gp_intro_mvl/mxv
	.byte	W02
	.byte		        64*song_gp_intro_mvl/mxv
	.byte	W02
	.byte		        69*song_gp_intro_mvl/mxv
	.byte	W02
	.byte		        74*song_gp_intro_mvl/mxv
	.byte	W02
	.byte		        81*song_gp_intro_mvl/mxv
	.byte	W02
	.byte		        88*song_gp_intro_mvl/mxv
	.byte	W02
	.byte		        95*song_gp_intro_mvl/mxv
	.byte	W01
	.byte		        100*song_gp_intro_mvl/mxv
	.byte	W04
	.byte	FINE

@*********************** Track 03 ***********************@

song_gp_intro_2:
	.byte	KEYSH , song_gp_intro_key+0
	.byte		VOICE , 36
	.byte		VOL   , 100*song_gp_intro_mvl/mxv
	.byte		PAN   , c_v+0
	.byte		N48   , Fs1 , v124
	.byte	W54
	.byte		N03   , Fs1 , v127
	.byte	W06
	.byte		N04   , Cs2 , v124
	.byte	W06
	.byte		N05   , As1 , v116
	.byte	W06
	.byte		N48   , Gn1 , v127
	.byte	W54
	.byte		N03
	.byte	W06
	.byte		N04   , Dn2 , v124
	.byte	W06
	.byte		N05   , Bn1 , v120
	.byte	W06
	.byte		N04   , En2 , v127
	.byte	W06
	.byte		N03   , Cn2 , v112
	.byte	W06
	.byte		N05   , Gn1 , v116
	.byte	W06
	.byte		N04   , En2 , v127
	.byte	W06
	.byte		N03   , Cn2 , v116
	.byte	W06
	.byte		N05   , Gn1 , v120
	.byte	W06
	.byte		N18   , Cs2 , v127
	.byte	W18
	.byte		N17   , Gs1 , v124
	.byte	W18
	.byte		N02   , An1 , v127
	.byte	W06
	.byte		N07   , Dn2 , v124
	.byte	W12
	.byte		N02   , Ds2 , v127
	.byte	W06
	.byte		N03   , Fn2 , v124
	.byte	W06
	.byte		        En2 , v127
	.byte	W06
	.byte		N36   , Ds2 
	.byte	W36
	.byte	FINE

@*********************** Track 04 ***********************@

song_gp_intro_3:
	.byte	KEYSH , song_gp_intro_key+0
	.byte		VOICE , 101
	.byte		VOL   , 47*song_gp_intro_mvl/mxv
	.byte		PAN   , c_v+63
	.byte		N48   , Cs3 , v072
	.byte	W54
	.byte		N03   , Cs3 , v076
	.byte	W18
	.byte		N48   , Dn3 , v072
	.byte	W54
	.byte		N03   , Dn3 , v080
	.byte	W18
	.byte		VOICE , 48
	.byte		VOL   , 51*song_gp_intro_mvl/mxv
	.byte		PAN   , c_v+15
	.byte		N03   , Cn4 , v100
	.byte	W06
	.byte		        En4 , v112
	.byte	W06
	.byte		N04   , Gn4 , v100
	.byte	W06
	.byte		N03   , En4 , v112
	.byte	W06
	.byte		N04   , Gn4 , v100
	.byte	W06
	.byte		N03   , An4 , v112
	.byte	W06
	.byte		        Cs4 , v100
	.byte	W06
	.byte		        Fn4 , v112
	.byte	W06
	.byte		N04   , Gs4 , v100
	.byte	W06
	.byte		N03   , Cs5 , v112
	.byte	W06
	.byte		N04   , Gs4 , v100
	.byte	W06
	.byte		N03   , Fn4 , v112
	.byte	W06
	.byte		VOICE , 101
	.byte		VOL   , 78*song_gp_intro_mvl/mxv
	.byte		PAN   , c_v+63
	.byte		N03   , Fs4 , v060
	.byte	W06
	.byte		N06
	.byte	W30
	.byte		N36   , Ds4 
	.byte	W03
	.byte		VOL   , 75*song_gp_intro_mvl/mxv
	.byte	W02
	.byte		        69*song_gp_intro_mvl/mxv
	.byte	W02
	.byte		        57*song_gp_intro_mvl/mxv
	.byte	W01
	.byte		        50*song_gp_intro_mvl/mxv
	.byte	W01
	.byte		        51*song_gp_intro_mvl/mxv
	.byte	W04
	.byte		        53*song_gp_intro_mvl/mxv
	.byte	W02
	.byte		        55*song_gp_intro_mvl/mxv
	.byte	W02
	.byte		        58*song_gp_intro_mvl/mxv
	.byte	W02
	.byte		        61*song_gp_intro_mvl/mxv
	.byte	W02
	.byte		        66*song_gp_intro_mvl/mxv
	.byte	W02
	.byte		        70*song_gp_intro_mvl/mxv
	.byte	W02
	.byte		        77*song_gp_intro_mvl/mxv
	.byte	W02
	.byte		        83*song_gp_intro_mvl/mxv
	.byte	W02
	.byte		        91*song_gp_intro_mvl/mxv
	.byte	W02
	.byte		        100*song_gp_intro_mvl/mxv
	.byte	W05
	.byte	FINE

@*********************** Track 05 ***********************@

song_gp_intro_4:
	.byte	KEYSH , song_gp_intro_key+0
	.byte		VOICE , 102
	.byte		VOL   , 47*song_gp_intro_mvl/mxv
	.byte		PAN   , c_v-64
	.byte		N48   , As2 , v072
	.byte	W54
	.byte		N03   , As2 , v076
	.byte	W18
	.byte		N48   , Bn2 , v072
	.byte	W54
	.byte		N03   , Bn2 , v076
	.byte	W18
	.byte		VOICE , 48
	.byte		VOL   , 51*song_gp_intro_mvl/mxv
	.byte		PAN   , c_v-15
	.byte		N03   , Gn3 , v100
	.byte	W06
	.byte		        Cn4 , v112
	.byte	W06
	.byte		N04   , En4 , v100
	.byte	W06
	.byte		N03   , Cn4 , v112
	.byte	W06
	.byte		N04   , En4 , v100
	.byte	W06
	.byte		N03   , Fs4 , v112
	.byte	W06
	.byte		        Gs3 , v100
	.byte	W06
	.byte		        Cs4 , v112
	.byte	W06
	.byte		N04   , Fn4 , v100
	.byte	W06
	.byte		N03   , Gs4 , v112
	.byte	W06
	.byte		N04   , Fn4 , v100
	.byte	W06
	.byte		N03   , Cs4 , v112
	.byte	W06
	.byte		VOICE , 102
	.byte		VOL   , 78*song_gp_intro_mvl/mxv
	.byte		PAN   , c_v-64
	.byte		N03   , Dn4 , v060
	.byte	W06
	.byte		N06
	.byte	W30
	.byte		N36   , Gn4 
	.byte	W03
	.byte		VOL   , 75*song_gp_intro_mvl/mxv
	.byte	W02
	.byte		        69*song_gp_intro_mvl/mxv
	.byte	W02
	.byte		        57*song_gp_intro_mvl/mxv
	.byte	W01
	.byte		        50*song_gp_intro_mvl/mxv
	.byte	W01
	.byte		        51*song_gp_intro_mvl/mxv
	.byte	W04
	.byte		        52*song_gp_intro_mvl/mxv
	.byte	W02
	.byte		        55*song_gp_intro_mvl/mxv
	.byte	W02
	.byte		        57*song_gp_intro_mvl/mxv
	.byte	W02
	.byte		        60*song_gp_intro_mvl/mxv
	.byte	W02
	.byte		        64*song_gp_intro_mvl/mxv
	.byte	W02
	.byte		        69*song_gp_intro_mvl/mxv
	.byte	W02
	.byte		        74*song_gp_intro_mvl/mxv
	.byte	W02
	.byte		        81*song_gp_intro_mvl/mxv
	.byte	W02
	.byte		        88*song_gp_intro_mvl/mxv
	.byte	W02
	.byte		        95*song_gp_intro_mvl/mxv
	.byte	W01
	.byte		        100*song_gp_intro_mvl/mxv
	.byte	W04
	.byte	FINE

@*********************** Track 06 ***********************@

song_gp_intro_5:
	.byte	KEYSH , song_gp_intro_key+0
	.byte	W48
	.byte		VOICE , 55
	.byte		VOL   , 78*song_gp_intro_mvl/mxv
	.byte		PAN   , c_v+0
	.byte	W06
	.byte		        c_v+25
	.byte		N04   , Cs3 , v120
	.byte	W06
	.byte		N12   , Cs3 , v116
	.byte	W12
	.byte	W54
	.byte		PAN   , c_v-25
	.byte		N04   , Dn3 , v124
	.byte	W06
	.byte		N12   , Dn3 , v120
	.byte	W12
	.byte	W72
	.byte		VOICE , 61
	.byte		VOL   , 94*song_gp_intro_mvl/mxv
	.byte		PAN   , c_v+0
	.byte		        c_v+0
	.byte		N02   , An3 , v116
	.byte	W06
	.byte		N06   , An3 , v112
	.byte	W12
	.byte		N02   , Ds3 , v108
	.byte	W06
	.byte		N03   , Cn4 , v112
	.byte	W06
	.byte		        Bn3 , v116
	.byte	W06
	.byte		N36   , As3 , v124
	.byte	W03
	.byte		VOL   , 75*song_gp_intro_mvl/mxv
	.byte	W02
	.byte		        69*song_gp_intro_mvl/mxv
	.byte	W02
	.byte		        57*song_gp_intro_mvl/mxv
	.byte	W01
	.byte		        50*song_gp_intro_mvl/mxv
	.byte	W01
	.byte		        51*song_gp_intro_mvl/mxv
	.byte	W04
	.byte		        52*song_gp_intro_mvl/mxv
	.byte	W02
	.byte		        55*song_gp_intro_mvl/mxv
	.byte	W02
	.byte		        57*song_gp_intro_mvl/mxv
	.byte	W02
	.byte		        60*song_gp_intro_mvl/mxv
	.byte	W02
	.byte		        64*song_gp_intro_mvl/mxv
	.byte	W02
	.byte		        69*song_gp_intro_mvl/mxv
	.byte	W02
	.byte		        74*song_gp_intro_mvl/mxv
	.byte	W02
	.byte		        81*song_gp_intro_mvl/mxv
	.byte	W02
	.byte		        88*song_gp_intro_mvl/mxv
	.byte	W02
	.byte		        95*song_gp_intro_mvl/mxv
	.byte	W01
	.byte		        100*song_gp_intro_mvl/mxv
	.byte	W04
	.byte	FINE

@*********************** Track 07 ***********************@

song_gp_intro_6:
	.byte	KEYSH , song_gp_intro_key+0
	.byte		VOICE , 127
	.byte		VOL   , 100*song_gp_intro_mvl/mxv
	.byte		PAN   , c_v+0
	.byte	W54
	.byte		N06   , Cn0 , v100
	.byte	W06
	.byte		        Cn0 , v088
	.byte	W12
	.byte	W54
	.byte		        Cn0 , v108
	.byte	W06
	.byte		        Cn0 , v092
	.byte	W12
	.byte		N03   , Cn0 , v088
	.byte	W03
	.byte		N03
	.byte	W03
	.byte		        Cn0 , v104
	.byte	W03
	.byte		        Cn0 , v052
	.byte	W03
	.byte		        Cn0 , v040
	.byte	W03
	.byte		N03
	.byte	W03
	.byte		N03
	.byte	W03
	.byte		N03
	.byte	W03
	.byte		        Cn0 , v048
	.byte	W03
	.byte		        Cn0 , v044
	.byte	W03
	.byte		        Cn0 , v040
	.byte	W03
	.byte		N03
	.byte	W03
	.byte		        Cn0 , v044
	.byte	W03
	.byte		        Cn0 , v040
	.byte	W03
	.byte		N03
	.byte	W03
	.byte		N03
	.byte	W03
	.byte		        Cn0 , v044
	.byte	W03
	.byte		        Cn0 , v056
	.byte	W03
	.byte		        Cn0 , v076
	.byte	W03
	.byte		        Cn0 , v088
	.byte	W03
	.byte		        Cn0 , v096
	.byte	W03
	.byte		        Cn0 , v100
	.byte	W03
	.byte		        Cn0 , v104
	.byte	W03
	.byte		        Cn0 , v092
	.byte	W03
	.byte		N06   , Cn0 , v108
	.byte	W06
	.byte		        Cn0 , v092
	.byte	W12
	.byte		        Cn0 , v084
	.byte	W06
	.byte		        Cn0 , v112
	.byte	W06
	.byte		        Cn0 , v104
	.byte	W06
	.byte		N03   , Cn0 , v100
	.byte	W03
	.byte		        Cn0 , v092
	.byte	W03
	.byte		        Cn0 , v088
	.byte	W03
	.byte		N03
	.byte	W03
	.byte		        Cn0 , v080
	.byte	W03
	.byte		N03
	.byte	W03
	.byte		        Cn0 , v076
	.byte	W03
	.byte		N03
	.byte	W03
	.byte		        Cn0 , v072
	.byte	W03
	.byte		N03
	.byte	W03
	.byte		N03
	.byte	W03
	.byte		N03
	.byte	W03
	.byte	FINE

@******************************************************@

	.align	2

song_gp_intro:
	.byte	7	@ NumTrks
	.byte	0	@ NumBlks
	.byte	song_gp_intro_pri	@ Priority
	.byte	song_gp_intro_rev	@ Reverb

	.word	song_gp_intro_grp

	.word	song_gp_intro_0
	.word	song_gp_intro_1
	.word	song_gp_intro_2
	.word	song_gp_intro_3
	.word	song_gp_intro_4
	.word	song_gp_intro_5
	.word	song_gp_intro_6

	.end
