@ File generated by m4a2s Song-Module
	.include "MPlayDef.s"

	.equ	song_course_snow_grp, bank_course_snow
	.equ	song_course_snow_pri, 0
	.equ	song_course_snow_rev, 148
	.equ	song_course_snow_mvl, 127
	.equ	song_course_snow_key, 0

	.section .rodata
	.global	song_course_snow
	.align	2

@*********************** Track 01 ***********************@

song_course_snow_0:
	.byte	KEYSH , song_course_snow_key+0
	.byte	TEMPO , 150/2
	.byte		VOICE , 21
	.byte		VOL   , 110*song_course_snow_mvl/mxv
	.byte		PAN   , c_v+0
	.byte		MODT  , mod_vib
	.byte		LFODL , 36
	.byte		LFOS  , 20
	.byte		MOD   , 5
	.byte		BEND  , c_v+0
	.byte		N05   , Dn4 , v120
	.byte	W12
	.byte		N17   , Bn3 , v108
	.byte	W24
	.byte		N05   , Dn4 , v096
	.byte	W12
	.byte		N18   , An3 , v108
	.byte	W23
	.byte		N12   , Fs4 , v116
	.byte	W16
	.byte		N02   , Fs4 , v120
	.byte	W08
	.byte		N05   , En4 , v092
	.byte	W01
	.byte	W12
	.byte		N66   , Dn4 , v104
	.byte	W84
	.byte		N05   , Dn4 , v120
	.byte	W12
	.byte		N17   , Bn3 , v108
	.byte	W24
	.byte		N05   , Dn4 , v096
	.byte	W12
	.byte		N06   , An3 , v108
	.byte	W11
	.byte		N21   , Fs4 , v116
	.byte	W24
	.byte	W01
	.byte		N04   , En4 , v104
	.byte	W12
	.byte	PEND
	.byte		N02   , An4 , v104
	.byte	W11
	.byte		N60   , Dn4 , v112
	.byte	W72
	.byte		N04   , Dn4 , v108
	.byte	W13
	.byte	PEND
	.byte		N07   , En4 , v124
	.byte	W11
	.byte		N17   , Dn4 , v116
	.byte	W24
	.byte	W01
	.byte		N07   , Gn3 , v096
	.byte	W12
	.byte		        En4 , v116
	.byte	W36
	.byte		N05   , En4 , v096
	.byte	W11
	.byte		        Cs4 , v124
	.byte	W01
	.byte	W12
	.byte		N18   , Bn3 , v104
	.byte	W23
	.byte		N08   , An3 , v116
	.byte	W13
	.byte		N13   , Fs4 , v127
	.byte	W32
	.byte	W03
	.byte		N04   , Fs4 , v100
	.byte	W13
	.byte	PEND
	.byte		N07   , En4 , v120
	.byte	W12
	.byte		N16   , Dn4 , v112
	.byte	W23
	.byte		N05   , En4 
	.byte	W13
	.byte		N08   , An3 
	.byte	W10
	.byte		N20   , Bn3 , v108
	.byte	W24
	.byte	W02
	.byte		N06   , Cs4 , v116
	.byte	W12
	.byte		N68   , Dn4 , v112
	.byte	W72
	.byte	W01
	.byte		N06   , An3 , v116
	.byte	W23
	.byte		N05   , Dn4 , v120
	.byte	W12
	.byte		N17   , Bn3 , v108
	.byte	W24
	.byte		N05   , Dn4 , v096
	.byte	W12
	.byte		N18   , An3 , v108
	.byte	W23
	.byte		N12   , Fs4 , v116
	.byte	W16
	.byte		N02   , Fs4 , v120
	.byte	W08
	.byte		N05   , En4 , v092
	.byte	W01
	.byte	W12
	.byte		N66   , Dn4 , v104
	.byte	W84
	.byte	PATT
	 .word	song_course_snow_0 + 0x35
	.byte	PATT
	 .word	song_course_snow_0 + 0x4F
	.byte		N07   , En4 , v124
	.byte	W11
	.byte		N17   , Dn4 , v116
	.byte	W24
	.byte	W01
	.byte		N07   , Gn3 , v096
	.byte	W12
	.byte		        En4 , v116
	.byte	W36
	.byte		N05   , En4 , v084
	.byte	W11
	.byte		        Cs4 , v124
	.byte	W01
	.byte	PATT
	 .word	song_course_snow_0 + 0x73
	.byte		N07   , En4 , v120
	.byte	W12
	.byte		N16   , Dn4 , v112
	.byte	W23
	.byte		N05   , Bn3 
	.byte	W13
	.byte		N20   , An3 , v120
	.byte	W24
	.byte		        En4 , v100
	.byte	W24
	.byte		VOL   , 95*song_course_snow_mvl/mxv
	.byte		N48   , Dn4 , v127
	.byte	W03
	.byte		VOL   , 94*song_course_snow_mvl/mxv
	.byte	W03
	.byte		        93*song_course_snow_mvl/mxv
	.byte	W03
	.byte		        92*song_course_snow_mvl/mxv
	.byte	W03
	.byte		        91*song_course_snow_mvl/mxv
	.byte	W03
	.byte		        90*song_course_snow_mvl/mxv
	.byte	W03
	.byte		        90*song_course_snow_mvl/mxv
	.byte	W03
	.byte		        89*song_course_snow_mvl/mxv
	.byte	W03
	.byte		        88*song_course_snow_mvl/mxv
	.byte	W02
	.byte		        87*song_course_snow_mvl/mxv
	.byte	W02
	.byte		        85*song_course_snow_mvl/mxv
	.byte	W02
	.byte		        84*song_course_snow_mvl/mxv
	.byte	W02
	.byte		        82*song_course_snow_mvl/mxv
	.byte	W02
	.byte		        79*song_course_snow_mvl/mxv
	.byte	W02
	.byte		        74*song_course_snow_mvl/mxv
	.byte	W02
	.byte		        77*song_course_snow_mvl/mxv
	.byte	W02
	.byte		        80*song_course_snow_mvl/mxv
	.byte	W02
	.byte		        92*song_course_snow_mvl/mxv
	.byte	W02
	.byte		        101*song_course_snow_mvl/mxv
	.byte	W02
	.byte		        107*song_course_snow_mvl/mxv
	.byte	W02
	.byte		        110*song_course_snow_mvl/mxv
	.byte	W36
	.byte		VOICE , 123
	.byte		VOL   , 27*song_course_snow_mvl/mxv
	.byte		PAN   , c_v+63
	.byte	W12
	.byte		N08   , Fs5 
	.byte	W12
	.byte		N16   , En5 
	.byte	W24
	.byte		N05   , Fs5 
	.byte	W12
	.byte		N18   , Gn5 
	.byte	W24
	.byte		N11   , Fs5 
	.byte	W17
	.byte		N04   , En5 
	.byte	W07
	.byte		N54   , An5 
	.byte	W60
	.byte	W01
	.byte		N04   , Fs5 
	.byte	W12
	.byte		        Gn5 
	.byte	W12
	.byte		        An5 
	.byte	W11
	.byte		N05   , Bn5 
	.byte	W12
	.byte		N18   , An5 
	.byte	W24
	.byte		N03   , Bn5 
	.byte	W12
	.byte		N19   , Gn5 
	.byte	W22
	.byte		N17   , Fs5 
	.byte	W24
	.byte	W02
	.byte		N54   , En5 
	.byte	W60
	.byte	W01
	.byte		N05
	.byte	W11
	.byte		N08   , Fs5 
	.byte	W13
	.byte		N06   , En5 
	.byte	W11
	.byte		N32   , Dn5 
	.byte	W32
	.byte	W03
	.byte		N08   , En5 
	.byte	W12
	.byte		N22   , Fs5 
	.byte	W24
	.byte		N17   , An5 
	.byte	W24
	.byte		N08   , Gn5 
	.byte	W01
	.byte	W12
	.byte		N18   , Fs5 
	.byte	W23
	.byte		N05   , Gn5 
	.byte	W12
	.byte		N23   , Bn5 
	.byte	W24
	.byte	W01
	.byte		N18   , An5 
	.byte	W24
	.byte		N23   , Fs5 
	.byte	W24
	.byte		N20   , An5 
	.byte	W23
	.byte		N09   , Fs5 
	.byte	W12
	.byte		N17   , En5 
	.byte	W24
	.byte	W01
	.byte		N04   , Fs5 
	.byte	W12
	.byte		N68   , Dn5 
	.byte	W96
	.byte		VOICE , 21
	.byte		VOL   , 77*song_course_snow_mvl/mxv
	.byte		PAN   , c_v-10
	.byte		N78   , Dn3 , v112
	.byte	W84
	.byte		N05   , Dn3 , v096
	.byte	W12
	.byte		N04   , En3 , v108
	.byte	W12
	.byte		N68   , Dn3 , v088
	.byte	W84
	.byte		N76   , Dn3 , v100
	.byte	W84
	.byte		N07   , Dn3 , v088
	.byte	W12
	.byte		N04   , Fs3 , v104
	.byte	W12
	.byte		N32   , Dn3 , v096
	.byte	W36
	.byte		N06   , Dn3 , v104
	.byte	W48
	.byte	GOTO
	 .word	song_course_snow_0 + 0x2
	.byte	FINE

@*********************** Track 02 ***********************@

song_course_snow_1:
	.byte	KEYSH , song_course_snow_key+0
	.byte	W96
	.byte	W96
	.byte	W96
	.byte	W96
	.byte	W96
	.byte	W96
	.byte	W96
	.byte	W96
	.byte	W96
	.byte	W96
	.byte	W96
	.byte	W96
	.byte	W96
	.byte	W96
	.byte	W96
	.byte		VOICE , 78
	.byte		PAN   , c_v+0
	.byte	W72
	.byte	W01
	.byte		VOL   , 95*song_course_snow_mvl/mxv
	.byte		N18   , En5 , v076
	.byte	W01
	.byte		VOL   , 86*song_course_snow_mvl/mxv
	.byte	W01
	.byte		        79*song_course_snow_mvl/mxv
	.byte	W02
	.byte		        72*song_course_snow_mvl/mxv
	.byte	W01
	.byte		        65*song_course_snow_mvl/mxv
	.byte	W04
	.byte		        67*song_course_snow_mvl/mxv
	.byte	W02
	.byte		        70*song_course_snow_mvl/mxv
	.byte	W01
	.byte		        73*song_course_snow_mvl/mxv
	.byte	W02
	.byte		        77*song_course_snow_mvl/mxv
	.byte	W01
	.byte		        85*song_course_snow_mvl/mxv
	.byte	W01
	.byte		        91*song_course_snow_mvl/mxv
	.byte	W01
	.byte		        99*song_course_snow_mvl/mxv
	.byte	W06
	.byte		        86*song_course_snow_mvl/mxv
	.byte		PAN   , c_v+0
	.byte		N08   , Fs5 , v124
	.byte	W12
	.byte		N16   , En5 , v108
	.byte	W24
	.byte		N05   , Fs5 , v100
	.byte	W12
	.byte		N18   , Gn5 , v120
	.byte	W24
	.byte		N11   , Fs5 , v112
	.byte	W17
	.byte		N04   , En5 , v092
	.byte	W07
	.byte		N54   , An5 , v120
	.byte	W60
	.byte	W01
	.byte		N04   , Fs5 , v084
	.byte	W12
	.byte		        Gn5 , v096
	.byte	W12
	.byte		        An5 , v112
	.byte	W11
	.byte		N05   , Bn5 , v124
	.byte	W12
	.byte		N18   , An5 , v108
	.byte	W24
	.byte		N03   , Bn5 , v127
	.byte	W12
	.byte		N19   , Gn5 , v112
	.byte	W22
	.byte		N17   , Fs5 , v116
	.byte	W24
	.byte	W02
	.byte		N54   , En5 
	.byte	W60
	.byte	W01
	.byte		N05   , En5 , v120
	.byte	W11
	.byte		N08   , Fs5 , v104
	.byte	W13
	.byte		N06   , En5 , v096
	.byte	W11
	.byte		N32   , Dn5 , v116
	.byte	W32
	.byte	W03
	.byte		N08   , En5 , v104
	.byte	W12
	.byte		N22   , Fs5 , v116
	.byte	W24
	.byte		N17   , An5 , v112
	.byte	W24
	.byte		N08   , Gn5 , v108
	.byte	W01
	.byte	W12
	.byte		N18   , Fs5 , v116
	.byte	W23
	.byte		N05   , Gn5 , v104
	.byte	W12
	.byte		N23   , Bn5 , v112
	.byte	W24
	.byte	W01
	.byte		N18   , An5 , v100
	.byte	W24
	.byte		N23   , Fs5 , v108
	.byte	W24
	.byte		N20   , An5 , v100
	.byte	W23
	.byte		N09   , Fs5 , v112
	.byte	W12
	.byte		N17   , En5 , v100
	.byte	W24
	.byte	W01
	.byte		N04   , Fs5 , v124
	.byte	W12
	.byte		N68   , Dn5 , v108
	.byte	W96
	.byte	W96
	.byte	W96
	.byte	W96
	.byte	W96
	.byte	GOTO
	 .word	song_course_snow_1 + 0x2
	.byte	FINE

@*********************** Track 03 ***********************@

song_course_snow_2:
	.byte	KEYSH , song_course_snow_key+0
	.byte		VOICE , 35
	.byte		VOL   , 95*song_course_snow_mvl/mxv
	.byte		PAN   , c_v+0
	.byte		N15   , Dn1 , v112
	.byte	W24
	.byte		        An0 
	.byte	W24
	.byte		        Dn1 
	.byte	W24
	.byte		        An0 
	.byte	W24
	.byte		N15   , Dn1 , v112
	.byte	W24
	.byte		        An0 
	.byte	W24
	.byte		N06   , Dn1 
	.byte	W12
	.byte		N09   , An0 
	.byte	W12
	.byte		        Bn0 
	.byte	W12
	.byte		        Cs1 
	.byte	W12
	.byte	PEND
	.byte		N15   , Dn1 , v112
	.byte	W24
	.byte		        An0 
	.byte	W24
	.byte		        Dn1 
	.byte	W24
	.byte		        An0 
	.byte	W24
	.byte	PEND
	.byte	PATT
	 .word	song_course_snow_2 + 0x12
	.byte		N10   , Gn1 , v112
	.byte	W60
	.byte		N06   , En1 
	.byte	W12
	.byte		N06
	.byte	W12
	.byte		N06
	.byte	W12
	.byte	PEND
	.byte		N15   , An1 , v112
	.byte	W60
	.byte		N06   , Bn1 
	.byte	W12
	.byte		N06
	.byte	W12
	.byte		N06
	.byte	W12
	.byte	PEND
	.byte		N14   , An1 , v112
	.byte	W24
	.byte		        Gn1 
	.byte	W24
	.byte		        En1 
	.byte	W24
	.byte		        An0 
	.byte	W24
	.byte	PEND
	.byte		        Dn1 
	.byte	W24
	.byte		        An0 
	.byte	W24
	.byte		N06   , Dn1 
	.byte	W12
	.byte		N09   , An0 
	.byte	W12
	.byte		        Bn0 
	.byte	W12
	.byte		        Cs1 
	.byte	W12
	.byte	PATT
	 .word	song_course_snow_2 + 0x23
	.byte	PATT
	 .word	song_course_snow_2 + 0x12
	.byte	PATT
	 .word	song_course_snow_2 + 0x23
	.byte	PATT
	 .word	song_course_snow_2 + 0x12
	.byte	PATT
	 .word	song_course_snow_2 + 0x33
	.byte	PATT
	 .word	song_course_snow_2 + 0x3F
	.byte	PATT
	 .word	song_course_snow_2 + 0x4B
	.byte		N14   , Dn1 , v112
	.byte	W24
	.byte		        An0 , v116
	.byte	W24
	.byte		N07   , Dn1 , v124
	.byte	W24
	.byte		N09   , Gn0 , v112
	.byte	W24
	.byte		VOL   , 95*song_course_snow_mvl/mxv
	.byte		N14   , Dn1 , v127
	.byte	W24
	.byte		        An0 
	.byte	W24
	.byte		        Dn1 
	.byte	W24
	.byte		        Fs1 
	.byte	W24
	.byte		        An1 
	.byte	W24
	.byte		        En1 
	.byte	W24
	.byte		        An1 
	.byte	W24
	.byte		        En1 
	.byte	W24
	.byte		        Bn1 
	.byte	W24
	.byte		        An1 
	.byte	W24
	.byte		        Gn1 
	.byte	W24
	.byte		        Fs1 
	.byte	W24
	.byte		        En1 
	.byte	W24
	.byte		        Bn0 
	.byte	W24
	.byte		N06   , En1 
	.byte	W12
	.byte		N09   , An0 
	.byte	W12
	.byte		        Bn0 
	.byte	W12
	.byte		        Cs1 
	.byte	W12
	.byte		N14   , Dn1 
	.byte	W24
	.byte		        An0 
	.byte	W24
	.byte		        Dn1 
	.byte	W24
	.byte		        En1 
	.byte	W24
	.byte		        Gn1 
	.byte	W24
	.byte		        Dn1 
	.byte	W24
	.byte		        Gn1 
	.byte	W24
	.byte		        Bn1 
	.byte	W24
	.byte		        An1 
	.byte	W24
	.byte		        En1 
	.byte	W24
	.byte		        An0 
	.byte	W24
	.byte		        En1 
	.byte	W24
	.byte		        Dn1 
	.byte	W24
	.byte		        An0 
	.byte	W24
	.byte		N06   , Dn1 
	.byte	W12
	.byte		N09   , An0 
	.byte	W12
	.byte		        Bn0 
	.byte	W12
	.byte		        Cs1 
	.byte	W12
	.byte		N18   , Dn1 
	.byte	W24
	.byte		        An0 
	.byte	W24
	.byte		N06   , Bn0 
	.byte	W12
	.byte		N18   , Cs1 
	.byte	W24
	.byte		N04   , En1 
	.byte	W12
	.byte		N18   , Dn1 
	.byte	W24
	.byte		        An0 
	.byte	W24
	.byte		N09   , Bn0 
	.byte	W12
	.byte		N24   , Cs1 
	.byte	W24
	.byte		N04   , Bn0 
	.byte	W12
	.byte		N18   , Dn1 
	.byte	W24
	.byte		        An0 
	.byte	W24
	.byte		N06   , Bn0 
	.byte	W12
	.byte		N18   , Cs1 
	.byte	W24
	.byte		N06   , Fs1 
	.byte	W12
	.byte		N18   , Dn1 
	.byte	W24
	.byte		        An0 
	.byte	W24
	.byte		N06   , Bn0 
	.byte	W12
	.byte		N18   , Cs1 
	.byte	W24
	.byte		N06   , Bn0 
	.byte	W12
	.byte	GOTO
	 .word	song_course_snow_2 + 0x2
	.byte	FINE

@*********************** Track 04 ***********************@

song_course_snow_3:
	.byte	KEYSH , song_course_snow_key+0
	.byte	W06
	.byte		VOICE , 21
	.byte		VOL   , 95*song_course_snow_mvl/mxv
	.byte		PAN   , c_v+0
	.byte		BEND  , c_v+0
	.byte	W05
	.byte		N04   , Gn3 , v100
	.byte	W24
	.byte		N04
	.byte	W24
	.byte		        An3 
	.byte	W24
	.byte		N04
	.byte	W13
	.byte	W11
	.byte		N04   , Gn3 , v100
	.byte	W24
	.byte		N04
	.byte	W24
	.byte		        Fs3 , v088
	.byte	W24
	.byte		N04
	.byte	W13
	.byte	PEND
	.byte	W11
	.byte		N04   , Gn3 , v100
	.byte	W24
	.byte		N04
	.byte	W24
	.byte		        An3 
	.byte	W24
	.byte		N04
	.byte	W13
	.byte	PEND
	.byte	W11
	.byte		        Gn3 
	.byte	W24
	.byte		N04
	.byte	W24
	.byte		        Fs3 , v112
	.byte	W11
	.byte		        Fs3 , v096
	.byte	W12
	.byte		        Fs3 , v100
	.byte	W13
	.byte		N07   , Gn3 , v116
	.byte	W01
	.byte	W56
	.byte	W03
	.byte		N04   , Gn3 , v116
	.byte	W12
	.byte		        Gn3 , v108
	.byte	W12
	.byte		N05   , Gn3 , v104
	.byte	W12
	.byte		N10   , An3 , v116
	.byte	W01
	.byte	PEND
	.byte	W56
	.byte	W03
	.byte		N05   , An3 , v112
	.byte	W12
	.byte		N19   , An3 , v108
	.byte	W24
	.byte	W01
	.byte	PEND
	.byte	W11
	.byte		N04   , Bn3 , v100
	.byte	W24
	.byte		N04
	.byte	W24
	.byte		        An3 , v088
	.byte	W24
	.byte		N04
	.byte	W13
	.byte	W11
	.byte		        An3 , v100
	.byte	W24
	.byte		N04
	.byte	W24
	.byte		        An3 , v088
	.byte	W24
	.byte		N04
	.byte	W13
	.byte	PATT
	 .word	song_course_snow_3 + 0x23
	.byte	PATT
	 .word	song_course_snow_3 + 0x16
	.byte	PATT
	 .word	song_course_snow_3 + 0x23
	.byte	W11
	.byte		N04   , Gn3 , v100
	.byte	W24
	.byte		N04
	.byte	W24
	.byte		        Fs3 , v112
	.byte	W11
	.byte		        Fs3 , v096
	.byte	W12
	.byte		        Fs3 , v100
	.byte	W13
	.byte		N08   , Gn3 , v116
	.byte	W01
	.byte	PATT
	 .word	song_course_snow_3 + 0x41
	.byte	PATT
	 .word	song_course_snow_3 + 0x53
	.byte	W11
	.byte		N04   , An3 , v088
	.byte	W24
	.byte		N04
	.byte	W24
	.byte		N04
	.byte	W24
	.byte		N04
	.byte	W13
	.byte	W11
	.byte		N14   , Bn3 , v100
	.byte	W24
	.byte		N04
	.byte	W12
	.byte		N06   , An3 , v088
	.byte	W24
	.byte	W01
	.byte		VOICE , 21
	.byte		VOL   , 95*song_course_snow_mvl/mxv
	.byte		PAN   , c_v+0
	.byte		BEND  , c_v+0
	.byte	W24
	.byte		N84   , Fs3 , v100
	.byte	W96
	.byte		N52   , An3 
	.byte	W56
	.byte	W03
	.byte		VOICE , 21
	.byte	W01
	.byte		N09   , Fs3 
	.byte	W12
	.byte		N07   , Gn3 
	.byte	W12
	.byte		N06   , An3 
	.byte	W11
	.byte		VOICE , 21
	.byte	W01
	.byte		N44   , Bn3 
	.byte	W48
	.byte		N19   , Gn3 
	.byte	W24
	.byte		N20   , Fs3 
	.byte	W24
	.byte		N90   , En3 
	.byte	W96
	.byte		        Dn3 
	.byte	W96
	.byte		N92
	.byte	W96
	.byte		N48   , Fs3 
	.byte	W48
	.byte		N42   , En3 
	.byte	W48
	.byte		N80   , Dn3 
	.byte	W96
	.byte		VOICE , 108
	.byte		VOL   , 86*song_course_snow_mvl/mxv
	.byte		PAN   , c_v+63
	.byte		TIE   , Fs3 , v088
	.byte	W96
	.byte	W42
	.byte		EOT
	.byte	W06
	.byte		N03   , Fs3 , v096
	.byte	W12
	.byte		N32   , Fs3 , v088
	.byte	W36
	.byte		TIE
	.byte	W96
	.byte	W36
	.byte		EOT
	.byte	W12
	.byte		N03   , Fs3 , v096
	.byte	W12
	.byte		N20   , Fs3 , v088
	.byte	W24
	.byte		N06   , Fs3 , v096
	.byte	W12
	.byte	GOTO
	 .word	song_course_snow_3 + 0x2
	.byte	FINE

@*********************** Track 05 ***********************@

song_course_snow_4:
	.byte	KEYSH , song_course_snow_key+0
	.byte		VOICE , 21
	.byte		VOL   , 95*song_course_snow_mvl/mxv
	.byte		PAN   , c_v+0
	.byte		BEND  , c_v+0
	.byte	W11
	.byte		N04   , Bn2 , v088
	.byte	W24
	.byte		N04
	.byte	W24
	.byte		        Dn3 
	.byte	W24
	.byte		N04
	.byte	W13
	.byte	W11
	.byte		N04   , Bn2 , v088
	.byte	W24
	.byte		N04
	.byte	W24
	.byte		        An2 , v100
	.byte	W24
	.byte		N04
	.byte	W13
	.byte	PEND
	.byte	W11
	.byte		N04   , Bn2 , v088
	.byte	W24
	.byte		N04
	.byte	W24
	.byte		        Dn3 
	.byte	W24
	.byte		N04
	.byte	W13
	.byte	PEND
	.byte	W11
	.byte		        Bn2 
	.byte	W24
	.byte		N04
	.byte	W24
	.byte		        Dn3 , v112
	.byte	W11
	.byte		        Dn3 , v096
	.byte	W12
	.byte		        Dn3 , v100
	.byte	W13
	.byte		N05   , Bn2 
	.byte	W01
	.byte	W56
	.byte	W03
	.byte		N04   , An2 , v116
	.byte	W12
	.byte		        An2 , v108
	.byte	W12
	.byte		        An2 , v104
	.byte	W12
	.byte		N07   , Cs3 , v112
	.byte	W01
	.byte	PEND
	.byte	W56
	.byte	W03
	.byte		N05   , Cs3 , v112
	.byte	W12
	.byte		N19   , Cs3 , v108
	.byte	W24
	.byte	W01
	.byte	PEND
	.byte	W11
	.byte		N04   , Gn3 , v088
	.byte	W24
	.byte		N04
	.byte	W24
	.byte		        En3 , v100
	.byte	W24
	.byte		N04
	.byte	W13
	.byte	W11
	.byte		        Dn3 , v088
	.byte	W24
	.byte		N04
	.byte	W24
	.byte		        Dn3 , v100
	.byte	W24
	.byte		N04
	.byte	W13
	.byte	PATT
	 .word	song_course_snow_4 + 0x22
	.byte	PATT
	 .word	song_course_snow_4 + 0x15
	.byte	PATT
	 .word	song_course_snow_4 + 0x22
	.byte	W11
	.byte		N04   , Bn2 , v088
	.byte	W24
	.byte		N04
	.byte	W24
	.byte		        Dn3 , v112
	.byte	W11
	.byte		        Dn3 , v096
	.byte	W12
	.byte		        Dn3 , v100
	.byte	W13
	.byte		N07   , Bn2 
	.byte	W01
	.byte	PATT
	 .word	song_course_snow_4 + 0x3F
	.byte	PATT
	 .word	song_course_snow_4 + 0x50
	.byte	W11
	.byte		N04   , Dn3 , v100
	.byte	W24
	.byte		N04
	.byte	W24
	.byte		N04
	.byte	W24
	.byte		N04
	.byte	W13
	.byte	W11
	.byte		N14   , Gn3 , v088
	.byte	W24
	.byte		N04
	.byte	W12
	.byte		N06   , Dn3 , v100
	.byte	W48
	.byte	W01
	.byte		VOICE , 105
	.byte		VOL   , 47*song_course_snow_mvl/mxv
	.byte		PAN   , c_v+0
	.byte		BEND  , c_v+0
	.byte		N90
	.byte	W96
	.byte		N56   , En3 
	.byte	W56
	.byte	W03
	.byte		VOICE , 103
	.byte	W01
	.byte		N07   , Dn3 
	.byte	W12
	.byte		        En3 
	.byte	W12
	.byte		N07
	.byte	W09
	.byte		VOICE , 105
	.byte	W03
	.byte		N42   , Gn3 
	.byte	W48
	.byte		N22   , En3 
	.byte	W24
	.byte		N18   , Cs3 
	.byte	W23
	.byte		N88   , Bn2 
	.byte	W01
	.byte	W96
	.byte		N90   , An2 
	.byte	W96
	.byte		        Bn2 
	.byte	W96
	.byte		N44   , Cs3 
	.byte	W48
	.byte		N42
	.byte	W48
	.byte		N84   , An2 
	.byte	W96
	.byte		VOICE , 107
	.byte		VOL   , 86*song_course_snow_mvl/mxv
	.byte		PAN   , c_v-64
	.byte		TIE   , An2 , v076
	.byte	W96
	.byte	W42
	.byte		EOT
	.byte	W06
	.byte		N03   , An2 , v080
	.byte	W12
	.byte		N32   , An2 , v076
	.byte	W36
	.byte		TIE
	.byte	W96
	.byte	W36
	.byte		EOT
	.byte	W12
	.byte		N03   , An2 , v080
	.byte	W12
	.byte		N20   , An2 , v076
	.byte	W24
	.byte		N06   , An2 , v088
	.byte	W12
	.byte	GOTO
	 .word	song_course_snow_4 + 0x2
	.byte	FINE

@*********************** Track 06 ***********************@

song_course_snow_5:
	.byte	KEYSH , song_course_snow_key+0
	.byte		VOICE , 127
	.byte		VOL   , 86*song_course_snow_mvl/mxv
	.byte		BEND  , c_v+0
	.byte		N12   , Bn4 , v104
	.byte		N02   , Cn6 , v100
	.byte	W11
	.byte		        Cn6 , v096
	.byte	W12
	.byte		N03   , As3 
	.byte		N11   , Bn4 , v076
	.byte	W12
	.byte		N02   , Cn6 , v092
	.byte	W12
	.byte		N11   , Bn4 , v080
	.byte		N02   , Cn6 , v100
	.byte	W12
	.byte		        Cn6 , v096
	.byte	W12
	.byte		N03   , As3 
	.byte		N11   , Bn4 , v084
	.byte	W12
	.byte		N02   , Cn6 , v092
	.byte	W12
	.byte		        Cn6 , v100
	.byte	W01
	.byte		N11   , Bn4 , v096
	.byte	W11
	.byte		N02   , Cn6 
	.byte	W12
	.byte		N03   , As3 
	.byte	W01
	.byte		N11   , Bn4 , v092
	.byte	W11
	.byte		N02   , Cn6 
	.byte	W12
	.byte		N11   , Bn4 
	.byte		N02   , Cn6 , v100
	.byte	W12
	.byte		        Cn6 , v096
	.byte	W11
	.byte		N11   , Bn4 , v080
	.byte	W01
	.byte		N03   , As3 , v096
	.byte	W12
	.byte		N02   , Cs6 , v088
	.byte	W12
	.byte		N11   , Bn4 , v084
	.byte		N02   , Cn6 , v100
	.byte	W01
	.byte	W11
	.byte		N02   , Cn6 , v096
	.byte	W12
	.byte		N03   , As3 
	.byte	W01
	.byte		N12   , Bn4 , v076
	.byte	W11
	.byte		N02   , Cn6 , v092
	.byte	W12
	.byte		N11   , Bn4 , v076
	.byte		N02   , Cn6 , v100
	.byte	W12
	.byte		        Cn6 , v096
	.byte	W12
	.byte		N03   , As3 
	.byte	W01
	.byte		N11   , Bn4 , v084
	.byte	W11
	.byte		N02   , Cn6 , v092
	.byte	W12
	.byte		N11   , Bn4 , v080
	.byte		N02   , Cn6 , v100
	.byte	W01
	.byte	PEND
	.byte	W11
	.byte		N02   , Cn6 , v096
	.byte	W12
	.byte		N03   , As3 
	.byte		N12   , Bn4 , v084
	.byte	W12
	.byte		N02   , Cn6 , v092
	.byte	W12
	.byte		N12   , Bn4 , v096
	.byte		N02   , Cn6 , v100
	.byte	W12
	.byte		        Cn6 , v096
	.byte	W12
	.byte		N11   , Bn4 , v084
	.byte		N03   , Cs6 , v088
	.byte	W12
	.byte		N02   , Cn6 , v092
	.byte	W12
	.byte		        Cn6 , v100
	.byte	W01
	.byte	PEND
	.byte		N12   , Bn4 , v120
	.byte	W11
	.byte		N02   , Cn6 , v096
	.byte	W12
	.byte		N03   , As3 
	.byte		N11   , Bn4 , v076
	.byte	W12
	.byte		N02   , Cn6 , v092
	.byte	W12
	.byte		N11   , Bn4 , v080
	.byte		N02   , Cn6 , v100
	.byte	W12
	.byte		        Cn6 , v096
	.byte	W12
	.byte		N03   , As3 
	.byte		N11   , Bn4 , v084
	.byte	W12
	.byte		N02   , Cn6 , v092
	.byte	W12
	.byte		        Cn6 , v100
	.byte	W01
	.byte		N11   , Bn4 , v124
	.byte	W11
	.byte		N02   , Cn6 , v096
	.byte	W12
	.byte		N03   , As3 
	.byte	W01
	.byte		N11   , Bn4 , v076
	.byte	W11
	.byte		N02   , Cn6 , v092
	.byte	W12
	.byte		N11   , Bn4 
	.byte		N02   , Cn6 , v100
	.byte	W12
	.byte		        Cn6 , v096
	.byte	W11
	.byte		N11   , Bn4 , v080
	.byte	W01
	.byte		N03   , As3 , v096
	.byte	W12
	.byte		        Cs6 , v088
	.byte	W12
	.byte		N11   , Bn4 , v084
	.byte		N02   , Cn6 , v100
	.byte	W01
	.byte	PATT
	 .word	song_course_snow_5 + 0x60
	.byte	PATT
	 .word	song_course_snow_5 + 0x8D
	.byte		N12   , Bn4 , v084
	.byte	W11
	.byte		N02   , Cn6 , v096
	.byte	W12
	.byte		N03   , As3 
	.byte		N11   , Bn4 , v076
	.byte	W12
	.byte		N02   , Cn6 , v092
	.byte	W12
	.byte		N11   , Bn4 , v080
	.byte		N02   , Cn6 , v100
	.byte	W12
	.byte		        Cn6 , v096
	.byte	W12
	.byte		N03   , As3 
	.byte		N11   , Bn4 , v084
	.byte	W12
	.byte		N02   , Cn6 , v092
	.byte	W12
	.byte		        Cn6 , v100
	.byte	W01
	.byte	PEND
	.byte		N11   , Bn4 , v096
	.byte	W11
	.byte		N02   , Cn6 
	.byte	W12
	.byte		N03   , As3 
	.byte	W01
	.byte		N11   , Bn4 , v076
	.byte	W11
	.byte		N02   , Cn6 , v092
	.byte	W12
	.byte		N11   , Bn4 
	.byte		N02   , Cn6 , v100
	.byte	W12
	.byte		        Cn6 , v096
	.byte	W11
	.byte		N11   , Bn4 , v080
	.byte	W01
	.byte		N03   , As3 , v096
	.byte	W12
	.byte		        Cs6 , v088
	.byte	W12
	.byte		N11   , Bn4 , v084
	.byte		N02   , Cn6 , v100
	.byte	W01
	.byte	PEND
	.byte	PATT
	 .word	song_course_snow_5 + 0x60
	.byte	PATT
	 .word	song_course_snow_5 + 0x8D
	.byte	PATT
	 .word	song_course_snow_5 + 0x116
	.byte	PATT
	 .word	song_course_snow_5 + 0x140
	.byte	W11
	.byte		N02   , Cn6 , v096
	.byte	W12
	.byte		N03   , As3 
	.byte	W01
	.byte		N12   , Bn4 , v076
	.byte	W11
	.byte		N02   , Cn6 , v092
	.byte	W12
	.byte		N11   , Bn4 , v076
	.byte		N02   , Cn6 , v100
	.byte	W12
	.byte		        Cn6 , v096
	.byte	W12
	.byte		N03   , As3 
	.byte	W01
	.byte		N11   , Bn4 , v084
	.byte	W11
	.byte		N02   , Cn6 , v092
	.byte	W11
	.byte		N11   , Bn4 , v104
	.byte	W01
	.byte		N02   , Cn6 , v100
	.byte	W01
	.byte	W11
	.byte		N12   , Bn4 , v096
	.byte		N02   , Cn6 
	.byte	W12
	.byte		N03   , As3 
	.byte	W11
	.byte		N12   , Bn4 
	.byte	W01
	.byte		N02   , Cn6 , v092
	.byte	W12
	.byte		N12   , Bn4 , v127
	.byte		N02   , Cn6 , v100
	.byte	W12
	.byte		        Cn6 , v096
	.byte	W12
	.byte		N03   , Cs6 , v088
	.byte	W12
	.byte		N02   , Cn6 , v092
	.byte	W13
	.byte		VOL   , 86*song_course_snow_mvl/mxv
	.byte		N02   , Cn6 , v100
	.byte	W11
	.byte		        Cn6 , v096
	.byte	W06
	.byte		        Cn6 , v088
	.byte	W06
	.byte		N03   , As3 , v096
	.byte	W12
	.byte		N02   , Cn6 , v092
	.byte	W06
	.byte		        Cn6 , v080
	.byte	W06
	.byte		        Cn6 , v100
	.byte	W12
	.byte		        Cn6 , v096
	.byte	W06
	.byte		        Cn6 , v088
	.byte	W06
	.byte		N03   , As3 , v096
	.byte	W12
	.byte		N02   , Cn6 , v092
	.byte	W06
	.byte		        Cn6 , v080
	.byte	W06
	.byte		        Cn6 , v100
	.byte	W01
	.byte	W11
	.byte		N02   , Cn6 , v096
	.byte	W06
	.byte		        Cn6 , v088
	.byte	W06
	.byte		N03   , As3 , v096
	.byte	W12
	.byte		N02   , Cn6 , v092
	.byte	W06
	.byte		        Cn6 , v080
	.byte	W06
	.byte		        Cn6 , v100
	.byte	W12
	.byte		        Cn6 , v096
	.byte	W06
	.byte		        Cn6 , v088
	.byte	W06
	.byte		N03   , As3 , v104
	.byte	W12
	.byte		        Cs6 , v088
	.byte	W06
	.byte		N02   , Cn6 , v080
	.byte	W06
	.byte		        Cn6 , v100
	.byte	W01
	.byte	PEND
	.byte	W11
	.byte		N02   , Cn6 , v096
	.byte	W06
	.byte		        Cn6 , v088
	.byte	W06
	.byte		N03   , As3 , v096
	.byte	W12
	.byte		N02   , Cn6 , v092
	.byte	W06
	.byte		        Cn6 , v080
	.byte	W06
	.byte		        Cn6 , v100
	.byte	W12
	.byte		        Cn6 , v096
	.byte	W06
	.byte		        Cn6 , v088
	.byte	W06
	.byte		N03   , As3 , v096
	.byte	W12
	.byte		N02   , Cn6 , v092
	.byte	W06
	.byte		        Cn6 , v080
	.byte	W06
	.byte		        Cn6 , v100
	.byte	W01
	.byte	PEND
	.byte	W11
	.byte		        Cn6 , v096
	.byte	W06
	.byte		        Cn6 , v088
	.byte	W06
	.byte		N03   , As3 , v096
	.byte	W12
	.byte		N02   , Cn6 , v092
	.byte	W06
	.byte		        Cn6 , v080
	.byte	W06
	.byte		        Cn6 , v100
	.byte	W12
	.byte		        Cn6 , v096
	.byte	W06
	.byte		        Cn6 , v088
	.byte	W06
	.byte		N03   , Cs6 
	.byte	W12
	.byte		N02   , Cn6 , v092
	.byte	W06
	.byte		        Cn6 , v080
	.byte	W06
	.byte		        Cn6 , v100
	.byte	W01
	.byte	PATT
	 .word	song_course_snow_5 + 0x22B
	.byte	PATT
	 .word	song_course_snow_5 + 0x200
	.byte	PATT
	 .word	song_course_snow_5 + 0x22B
	.byte	W11
	.byte		N02   , Cn6 , v096
	.byte	W06
	.byte		        Cn6 , v088
	.byte	W06
	.byte		N03   , As3 , v096
	.byte	W12
	.byte		N02   , Cn6 , v092
	.byte	W06
	.byte		        Cn6 , v080
	.byte	W06
	.byte		        Cn6 , v100
	.byte	W12
	.byte		        Cn6 , v096
	.byte	W06
	.byte		        Cn6 , v088
	.byte	W06
	.byte		N03   , Cs6 
	.byte	W12
	.byte		N02   , Cn6 , v092
	.byte	W06
	.byte		        Cn6 , v080
	.byte	W07
	.byte		VOL   , 86*song_course_snow_mvl/mxv
	.byte		N02   , Cn6 , v100
	.byte	W11
	.byte		        Cn6 , v096
	.byte	W06
	.byte		        Cn6 , v088
	.byte	W06
	.byte		N03   , As3 , v096
	.byte	W12
	.byte		N02   , Cn6 , v092
	.byte	W06
	.byte		        Cn6 , v080
	.byte	W06
	.byte		N03   , Cs6 , v100
	.byte	W06
	.byte		        Cs6 , v080
	.byte	W06
	.byte		        Cs6 , v096
	.byte	W06
	.byte		        Cs6 , v080
	.byte	W06
	.byte		        As3 , v096
	.byte	W12
	.byte		N02   , Cn6 , v092
	.byte	W06
	.byte		        Cn6 , v080
	.byte	W06
	.byte		        Cn6 , v100
	.byte	W01
	.byte	PATT
	 .word	song_course_snow_5 + 0x200
	.byte	W11
	.byte		N02   , Cn6 , v096
	.byte	W06
	.byte		        Cn6 , v088
	.byte	W06
	.byte		N03   , As3 , v096
	.byte	W12
	.byte		N02   , Cn6 , v092
	.byte	W06
	.byte		        Cn6 , v080
	.byte	W06
	.byte		N03   , Cs6 , v100
	.byte	W06
	.byte		        Cs6 , v080
	.byte	W06
	.byte		        Cs6 , v096
	.byte	W06
	.byte		        Cs6 , v080
	.byte	W06
	.byte		        As3 , v096
	.byte	W12
	.byte		N02   , Cn6 , v092
	.byte	W06
	.byte		        Cn6 , v080
	.byte	W06
	.byte		        Cn6 , v100
	.byte	W01
	.byte	W11
	.byte		        Cn6 , v096
	.byte	W06
	.byte		        Cn6 , v088
	.byte	W06
	.byte		N03   , As3 , v096
	.byte	W12
	.byte		N02   , Cn6 , v092
	.byte	W06
	.byte		        Cn6 , v080
	.byte	W06
	.byte		        Cn6 , v100
	.byte	W12
	.byte		        Cn6 , v096
	.byte	W06
	.byte		        Cn6 , v088
	.byte	W06
	.byte		N03   , As3 , v104
	.byte	W12
	.byte		        Cs6 , v088
	.byte	W06
	.byte		N02   , Cn6 , v080
	.byte	W07
	.byte	GOTO
	 .word	song_course_snow_5 + 0x2
	.byte	FINE

@*********************** Track 07 ***********************@

song_course_snow_6:
	.byte	KEYSH , song_course_snow_key+0
	.byte	W96
	.byte	W96
	.byte	W96
	.byte	W96
	.byte	W96
	.byte	W96
	.byte	W96
	.byte	W96
	.byte	W96
	.byte	W96
	.byte	W96
	.byte	W96
	.byte	W96
	.byte	W96
	.byte	W96
	.byte	W96
	.byte	W96
	.byte	W96
	.byte	W96
	.byte	W96
	.byte	W96
	.byte	W96
	.byte	W96
	.byte	W96
	.byte		VOICE , 78
	.byte		VOL   , 77*song_course_snow_mvl/mxv
	.byte		PAN   , c_v+10
	.byte		N78   , Dn5 , v112
	.byte	W84
	.byte		N05   , Dn5 , v096
	.byte	W12
	.byte		N04   , En5 , v108
	.byte	W12
	.byte		N68   , Dn5 , v088
	.byte	W84
	.byte		N76   , Dn5 , v100
	.byte	W84
	.byte		N07   , Dn5 , v088
	.byte	W12
	.byte		N04   , Fs5 , v100
	.byte	W12
	.byte		N32   , Dn5 , v096
	.byte	W84
	.byte	GOTO
	 .word	song_course_snow_6 + 0x2
	.byte	FINE

@******************************************************@

	.align	2

song_course_snow:
	.byte	7	@ NumTrks
	.byte	0	@ NumBlks
	.byte	song_course_snow_pri	@ Priority
	.byte	song_course_snow_rev	@ Reverb

	.word	song_course_snow_grp

	.word	song_course_snow_0
	.word	song_course_snow_1
	.word	song_course_snow_2
	.word	song_course_snow_3
	.word	song_course_snow_4
	.word	song_course_snow_5
	.word	song_course_snow_6

	.end
