@ File generated by m4a2s Song-Module
	.include "MPlayDef.s"

	.equ	song_course_sky_grp, bank_course_sky
	.equ	song_course_sky_pri, 0
	.equ	song_course_sky_rev, 148
	.equ	song_course_sky_mvl, 127
	.equ	song_course_sky_key, 0

	.section .rodata
	.global	song_course_sky
	.align	2

@*********************** Track 01 ***********************@

song_course_sky_0:
	.byte	KEYSH , song_course_sky_key+0
	.byte	TEMPO , 150/2
	.byte		VOICE , 82
	.byte		VOL   , 86*song_course_sky_mvl/mxv
	.byte		PAN   , c_v+0
	.byte	W96
	.byte	W24
	.byte		N06   , Gs3 , v092
	.byte	W12
	.byte		N09   , Cs4 
	.byte	W12
	.byte		N06   , Ds4 
	.byte	W12
	.byte		VOICE , 83
	.byte		N18   , Cs4 
	.byte	W24
	.byte		VOICE , 82
	.byte		N04   , Fn4 
	.byte	W12
	.byte	PEND
	.byte		N18   , Fs4 , v092
	.byte	W24
	.byte		N06   , Fn4 
	.byte	W12
	.byte		VOICE , 83
	.byte		N13   , Ds4 
	.byte	W24
	.byte		VOICE , 82
	.byte		N06   , Fn4 
	.byte	W12
	.byte		VOICE , 83
	.byte		N24   , Cs4 
	.byte	W24
	.byte	PEND
	.byte	W24
	.byte		VOICE , 82
	.byte		N06   , Gs3 , v092
	.byte	W12
	.byte		N09   , Cs4 
	.byte	W12
	.byte		N06   , Ds4 
	.byte	W12
	.byte		VOICE , 83
	.byte		N18   , Cs4 
	.byte	W24
	.byte		VOICE , 82
	.byte		N04   , Fn4 
	.byte	W12
	.byte	PEND
	.byte		VOICE , 83
	.byte		N18   , Fs4 
	.byte	W24
	.byte		VOICE , 82
	.byte		N06   , Fn4 
	.byte	W12
	.byte		N09   , Ds4 
	.byte	W24
	.byte		VOICE , 83
	.byte		N24   , Fn4 
	.byte	W36
	.byte	PATT
	 .word	song_course_sky_0 + 0xB
	.byte	PATT
	 .word	song_course_sky_0 + 0x21
	.byte	PATT
	 .word	song_course_sky_0 + 0x38
	.byte		VOICE , 83
	.byte		N48   , Fs4 , v092
	.byte	W72
	.byte		N12   , En4 
	.byte	W24
	.byte	W24
	.byte		VOICE , 82
	.byte		VOL   , 82*song_course_sky_mvl/mxv
	.byte		N24   , Gs4 
	.byte	W24
	.byte		N06   , En4 
	.byte	W12
	.byte		N24   , Fs4 
	.byte	W24
	.byte		N06   , An4 
	.byte	W12
	.byte		VOICE , 83
	.byte		N96   , Gs4 
	.byte	W96
	.byte	W24
	.byte		N12
	.byte	W24
	.byte		VOICE , 82
	.byte		N06   , En4 
	.byte	W12
	.byte		N24   , Fs4 
	.byte	W24
	.byte		N06   , Bn4 
	.byte	W12
	.byte		N72   , Gs4 
	.byte	W72
	.byte		VOICE , 83
	.byte		N12   , Fs4 
	.byte	W24
	.byte	W24
	.byte		VOICE , 82
	.byte		N36   , Gs4 
	.byte	W36
	.byte		N06   , En4 
	.byte	W12
	.byte		N12   , Gs4 
	.byte	W12
	.byte		N06   , Bn4 
	.byte	W12
	.byte		N12   , Cs5 
	.byte	W16
	.byte		N16   , Bn4 
	.byte	W20
	.byte		N06   , An4 
	.byte	W12
	.byte		N12   , Gs4 
	.byte	W16
	.byte		N16   , An4 
	.byte	W20
	.byte		N06   , Fs4 
	.byte	W12
	.byte		N22   , En4 
	.byte	W24
	.byte		        Fs4 
	.byte	W24
	.byte		N13   , Gs4 
	.byte	W16
	.byte		N09   , An4 
	.byte	W20
	.byte		VOICE , 83
	.byte		N84   , Bn4 
	.byte	W12
	.byte	W96
	.byte		VOICE , 82
	.byte		VOL   , 82*song_course_sky_mvl/mxv
	.byte	W24
	.byte		N09   , Bn3 
	.byte	W12
	.byte		N24   , En4 
	.byte	W24
	.byte		N06   , Ds4 
	.byte	W12
	.byte		N21   , En4 
	.byte	W24
	.byte		N24   , Fs4 , v092
	.byte	W24
	.byte		N06   , Bn4 
	.byte	W12
	.byte		N21   , An4 
	.byte	W24
	.byte		N06   , Gs4 
	.byte	W12
	.byte		N12   , Fs4 
	.byte	W12
	.byte		N04   , En4 
	.byte	W06
	.byte		        Fs4 
	.byte	W06
	.byte	PEND
	.byte		N36   , Gs4 
	.byte	W36
	.byte		N06   , En4 
	.byte	W12
	.byte		N48   , Bn3 
	.byte	W48
	.byte	W96
	.byte	W24
	.byte		N09
	.byte	W12
	.byte		N24   , En4 
	.byte	W24
	.byte		N06   , Ds4 
	.byte	W12
	.byte		N21   , En4 
	.byte	W24
	.byte	PATT
	 .word	song_course_sky_0 + 0xE9
	.byte		N32   , Gs4 , v092
	.byte	W36
	.byte		N84   , Bn4 
	.byte	W36
	.byte		VOL   , 89*song_course_sky_mvl/mxv
	.byte	W02
	.byte		        81*song_course_sky_mvl/mxv
	.byte	W02
	.byte		        74*song_course_sky_mvl/mxv
	.byte	W02
	.byte		        68*song_course_sky_mvl/mxv
	.byte	W02
	.byte		        62*song_course_sky_mvl/mxv
	.byte	W02
	.byte		        55*song_course_sky_mvl/mxv
	.byte	W02
	.byte		        50*song_course_sky_mvl/mxv
	.byte	W02
	.byte		        44*song_course_sky_mvl/mxv
	.byte	W02
	.byte		        39*song_course_sky_mvl/mxv
	.byte	W02
	.byte		        34*song_course_sky_mvl/mxv
	.byte	W02
	.byte		        29*song_course_sky_mvl/mxv
	.byte	W02
	.byte		        25*song_course_sky_mvl/mxv
	.byte	W02
	.byte		        22*song_course_sky_mvl/mxv
	.byte	W02
	.byte		        18*song_course_sky_mvl/mxv
	.byte	W02
	.byte		        14*song_course_sky_mvl/mxv
	.byte	W02
	.byte		        12*song_course_sky_mvl/mxv
	.byte	W02
	.byte		        9*song_course_sky_mvl/mxv
	.byte	W02
	.byte		        7*song_course_sky_mvl/mxv
	.byte	W02
	.byte		        5*song_course_sky_mvl/mxv
	.byte	W02
	.byte		        3*song_course_sky_mvl/mxv
	.byte	W02
	.byte		        2*song_course_sky_mvl/mxv
	.byte	W02
	.byte		        0*song_course_sky_mvl/mxv
	.byte	W02
	.byte		        0*song_course_sky_mvl/mxv
	.byte	W76
	.byte		VOICE , 82
	.byte		VOL   , 86*song_course_sky_mvl/mxv
	.byte	W24
	.byte		N06   , Gs3 
	.byte	W12
	.byte		N09   , Cs4 
	.byte	W12
	.byte		N06   , Ds4 
	.byte	W12
	.byte		VOICE , 83
	.byte		N18   , Cs4 
	.byte	W24
	.byte		VOICE , 82
	.byte		N04   , Fn4 
	.byte	W12
	.byte	GOTO
	 .word	song_course_sky_0 + 0x21
	.byte	FINE

@*********************** Track 02 ***********************@

song_course_sky_1:
	.byte	KEYSH , song_course_sky_key+0
	.byte		VOICE , 39
	.byte		PAN   , c_v+0
	.byte		VOL   , 82*song_course_sky_mvl/mxv
	.byte		BENDR , 12
	.byte		N08   , Fn1 , v116
	.byte	W18
	.byte		N08
	.byte	W18
	.byte		N12
	.byte	W12
	.byte		N03   , Ds1 , v127
	.byte	W06
	.byte		N04   , Ds1 , v108
	.byte	W12
	.byte		N16   , Ds1 , v116
	.byte	W03
	.byte		BEND  , c_v+0
	.byte	W02
	.byte		        c_v+2
	.byte	W02
	.byte		        c_v+10
	.byte	W02
	.byte		        c_v+24
	.byte	W01
	.byte		        c_v+43
	.byte	W02
	.byte		        c_v+63
	.byte	W03
	.byte		        c_v+0
	.byte	W03
	.byte		N05   , Cs2 
	.byte	W12
	.byte		N07   , Cs1 , v116
	.byte	W12
	.byte		N07
	.byte	W12
	.byte		N07
	.byte	W12
	.byte		N07
	.byte	W12
	.byte		N07
	.byte	W12
	.byte		N07
	.byte	W12
	.byte		N07
	.byte	W12
	.byte		N07
	.byte	W12
	.byte	PEND
	.byte		N07   , Cs1 , v116
	.byte	W12
	.byte		N07
	.byte	W12
	.byte		N07
	.byte	W12
	.byte		N07
	.byte	W12
	.byte		N07
	.byte	W12
	.byte		N07
	.byte	W12
	.byte		N03   , Cs1 , v127
	.byte	W06
	.byte		N04   , Cs1 , v108
	.byte	W06
	.byte		N20   , Cs1 , v116
	.byte	W12
	.byte	W12
	.byte		N07   , Cs1 , v116
	.byte	W12
	.byte		N07
	.byte	W12
	.byte		N07
	.byte	W12
	.byte		N07
	.byte	W12
	.byte		N07
	.byte	W12
	.byte		N07
	.byte	W12
	.byte		N07
	.byte	W12
	.byte	PEND
	.byte		N07   , Cs1 , v116
	.byte	W12
	.byte		N07
	.byte	W12
	.byte		N07
	.byte	W12
	.byte		N07
	.byte	W12
	.byte		N07
	.byte	W12
	.byte		N07
	.byte	W12
	.byte		N03   , Cs1 , v127
	.byte	W06
	.byte		N04   , Cs1 , v108
	.byte	W06
	.byte		N20   , Cs1 , v127
	.byte	W12
	.byte	PEND
	.byte	PATT
	 .word	song_course_sky_1 + 0x5D
	.byte	PATT
	 .word	song_course_sky_1 + 0x6F
	.byte	W12
	.byte		N08   , Cs1 , v116
	.byte	W12
	.byte		N07
	.byte	W12
	.byte		N07
	.byte	W12
	.byte		N07
	.byte	W12
	.byte		N07
	.byte	W12
	.byte		N07
	.byte	W12
	.byte		N07
	.byte	W12
	.byte		N07
	.byte	W12
	.byte		N07
	.byte	W12
	.byte		N03   , Cs1 , v127
	.byte	W06
	.byte		N04   , Cs1 , v108
	.byte	W06
	.byte		N23   , Cs1 , v116
	.byte	W12
	.byte		BEND  , c_v+0
	.byte	W02
	.byte		        c_v+2
	.byte	W02
	.byte		        c_v+10
	.byte	W02
	.byte		        c_v+24
	.byte	W01
	.byte		        c_v+43
	.byte	W02
	.byte		        c_v+63
	.byte	W03
	.byte		        c_v+0
	.byte		N05   , Cs2 , v108
	.byte	W12
	.byte		N08   , Cs1 , v116
	.byte	W12
	.byte		N04   , Ds1 
	.byte	W12
	.byte		N08   , En1 
	.byte	W12
	.byte		N08
	.byte	W12
	.byte		N08
	.byte	W12
	.byte		N08
	.byte	W12
	.byte		N08
	.byte	W12
	.byte		N08
	.byte	W12
	.byte		N08
	.byte	W12
	.byte		N08
	.byte	W12
	.byte		        Bn0 
	.byte	W12
	.byte		N08
	.byte	W12
	.byte		N08
	.byte	W12
	.byte		N08
	.byte	W12
	.byte		N06
	.byte	W12
	.byte		N10
	.byte	W12
	.byte		N03   , Bn0 , v127
	.byte	W06
	.byte		N04   , Bn0 , v108
	.byte	W06
	.byte		N11   , Bn0 , v116
	.byte	W12
	.byte		N08   , Cs1 
	.byte	W12
	.byte		N08
	.byte	W12
	.byte		N08
	.byte	W12
	.byte		N08
	.byte	W12
	.byte		N08
	.byte	W12
	.byte		N08
	.byte	W12
	.byte		N08
	.byte	W12
	.byte		N08
	.byte	W12
	.byte		        An0 
	.byte	W12
	.byte		N08
	.byte	W12
	.byte		N08
	.byte	W12
	.byte		N08
	.byte	W12
	.byte		N06   , Bn0 
	.byte	W12
	.byte		N10
	.byte	W12
	.byte		N03   , Bn0 , v127
	.byte	W06
	.byte		N04   , Bn0 , v108
	.byte	W06
	.byte		N11   , Bn0 , v116
	.byte	W12
	.byte		N07   , En1 
	.byte	W12
	.byte		N07
	.byte	W12
	.byte		N07
	.byte	W12
	.byte		N07
	.byte	W12
	.byte		        Ds1 
	.byte	W12
	.byte		N07
	.byte	W12
	.byte		N07
	.byte	W12
	.byte		N07
	.byte	W12
	.byte		        Cs1 
	.byte	W12
	.byte		N07
	.byte	W12
	.byte		N07
	.byte	W12
	.byte		N07
	.byte	W12
	.byte		N05   , Bn0 
	.byte	W12
	.byte		N10
	.byte	W12
	.byte		N03   , Bn0 , v127
	.byte	W06
	.byte		N04   , Bn0 , v108
	.byte	W06
	.byte		N11   , Bn0 , v116
	.byte	W12
	.byte		N07   , An0 
	.byte	W12
	.byte		N07
	.byte	W12
	.byte		N07
	.byte	W12
	.byte		N07
	.byte	W12
	.byte		N07
	.byte	W12
	.byte		N07
	.byte	W12
	.byte		        Bn0 
	.byte	W12
	.byte		N19   , Fs0 
	.byte	W12
	.byte	W12
	.byte		N07
	.byte	W12
	.byte		N07
	.byte	W12
	.byte		N07
	.byte	W12
	.byte		N05
	.byte	W12
	.byte		N09
	.byte	W12
	.byte		N03   , Bn0 , v127
	.byte	W06
	.byte		N04   , Bn0 , v108
	.byte	W06
	.byte		N08   , Bn0 , v120
	.byte	W12
	.byte		N07   , En1 , v116
	.byte	W12
	.byte		N07
	.byte	W12
	.byte		N07
	.byte	W12
	.byte		N07
	.byte	W12
	.byte		N07
	.byte	W12
	.byte		N07
	.byte	W12
	.byte		N07
	.byte	W12
	.byte		N07
	.byte	W12
	.byte	PEND
	.byte		        Bn0 
	.byte	W12
	.byte		N07
	.byte	W12
	.byte		N07
	.byte	W12
	.byte		N07
	.byte	W12
	.byte		N05
	.byte	W12
	.byte		N09
	.byte	W12
	.byte		N03   , Bn0 , v127
	.byte	W06
	.byte		N04   , Bn0 , v108
	.byte	W06
	.byte		N11   , Bn0 , v116
	.byte	W12
	.byte	PATT
	 .word	song_course_sky_1 + 0x30
	.byte		N07   , An0 , v116
	.byte	W12
	.byte		N07
	.byte	W12
	.byte		N07
	.byte	W12
	.byte		N07
	.byte	W12
	.byte		N05   , Bn0 
	.byte	W12
	.byte		N06
	.byte	W12
	.byte		N03   , Bn0 , v127
	.byte	W06
	.byte		N04   , Bn0 , v108
	.byte	W06
	.byte		N11   , Bn0 , v116
	.byte	W12
	.byte	PATT
	 .word	song_course_sky_1 + 0x174
	.byte		N07   , Bn0 , v116
	.byte	W12
	.byte		N07
	.byte	W12
	.byte		N07
	.byte	W12
	.byte		N07
	.byte	W12
	.byte		N05
	.byte	W12
	.byte		N06
	.byte	W12
	.byte		N03   , Bn0 , v127
	.byte	W06
	.byte		N04   , Bn0 , v108
	.byte	W06
	.byte		N11   , Bn0 , v116
	.byte	W12
	.byte		N07   , Cs1 
	.byte	W12
	.byte		N07
	.byte	W12
	.byte		N07
	.byte	W12
	.byte		N19
	.byte	W24
	.byte		N07   , Cs1 , v127
	.byte	W12
	.byte		N05   , Cs1 , v116
	.byte	W12
	.byte		N11
	.byte	W12
	.byte		N08   , Fn1 
	.byte	W18
	.byte		N08
	.byte	W18
	.byte		N12
	.byte	W12
	.byte		N03   , Ds1 , v127
	.byte	W06
	.byte		N04   , Ds1 , v108
	.byte	W12
	.byte		N16   , Ds1 , v116
	.byte	W01
	.byte		BEND  , c_v+10
	.byte	W02
	.byte		        c_v+24
	.byte	W01
	.byte		        c_v+43
	.byte	W02
	.byte		        c_v+63
	.byte	W03
	.byte		        c_v+0
	.byte	W09
	.byte		N05   , Cs2 
	.byte	W12
	.byte		        Cs1 
	.byte	W12
	.byte		N07
	.byte	W12
	.byte		N07
	.byte	W12
	.byte		N07
	.byte	W12
	.byte		N07
	.byte	W12
	.byte		N07
	.byte	W12
	.byte		N07
	.byte	W12
	.byte		N07
	.byte	W12
	.byte	GOTO
	 .word	song_course_sky_1 + 0x43
	.byte	FINE

@*********************** Track 03 ***********************@

song_course_sky_2:
	.byte	KEYSH , song_course_sky_key+0
	.byte	W96
	.byte		VOICE , 102
	.byte		VOL   , 31*song_course_sky_mvl/mxv
	.byte		PAN   , c_v+0
	.byte		N02   , Cs3 , v127
	.byte	W06
	.byte		N02
	.byte	W06
	.byte		        Gs2 
	.byte	W06
	.byte		N02
	.byte	W06
	.byte		        Fn3 
	.byte	W06
	.byte		N02
	.byte	W06
	.byte		        Cs3 
	.byte	W06
	.byte		N02
	.byte	W06
	.byte		        Gs3 
	.byte	W06
	.byte		N02
	.byte	W06
	.byte		        Fn3 
	.byte	W06
	.byte		N02
	.byte	W06
	.byte		        Cs4 
	.byte	W06
	.byte		N02
	.byte	W06
	.byte		        Gs3 
	.byte	W06
	.byte		N02
	.byte	W06
	.byte		N02   , Fs4 , v127
	.byte	W06
	.byte		N02
	.byte	W06
	.byte		        As3 
	.byte	W06
	.byte		N02
	.byte	W06
	.byte		        As4 
	.byte	W06
	.byte		N02
	.byte	W06
	.byte		        Cs4 
	.byte	W06
	.byte		N02
	.byte	W06
	.byte		        Cs5 
	.byte	W06
	.byte		N02
	.byte	W06
	.byte		        Fs4 
	.byte	W06
	.byte		N02
	.byte	W06
	.byte		        As4 
	.byte	W06
	.byte		N02
	.byte	W06
	.byte		        Cs5 
	.byte	W06
	.byte		N02
	.byte	W06
	.byte	PEND
	.byte		N02   , Cs3 , v127
	.byte	W06
	.byte		N02
	.byte	W06
	.byte		        Gs2 
	.byte	W06
	.byte		N02
	.byte	W06
	.byte		        Fn3 
	.byte	W06
	.byte		N02
	.byte	W06
	.byte		        Cs3 
	.byte	W06
	.byte		N02
	.byte	W06
	.byte		        Gs3 
	.byte	W06
	.byte		N02
	.byte	W06
	.byte		        Fn3 
	.byte	W06
	.byte		N02
	.byte	W06
	.byte		        Cs4 
	.byte	W06
	.byte		N02
	.byte	W06
	.byte		        Gs3 
	.byte	W06
	.byte		N02
	.byte	W06
	.byte	PEND
	.byte		        Fs4 
	.byte	W06
	.byte		N02
	.byte	W06
	.byte		        As3 
	.byte	W06
	.byte		N02
	.byte	W06
	.byte		        As4 
	.byte	W06
	.byte		N02
	.byte	W06
	.byte		        Cs4 
	.byte	W06
	.byte		N02
	.byte	W06
	.byte		        Cs5 
	.byte	W06
	.byte		N02
	.byte	W06
	.byte		        Fn4 
	.byte	W06
	.byte		N02
	.byte	W06
	.byte		        Gs4 
	.byte	W06
	.byte		N02
	.byte	W06
	.byte		        Cs5 
	.byte	W06
	.byte		N02
	.byte	W06
	.byte	PATT
	 .word	song_course_sky_2 + 0x4E
	.byte	PATT
	 .word	song_course_sky_2 + 0x2B
	.byte	PATT
	 .word	song_course_sky_2 + 0x4E
	.byte		N02   , Fs4 , v127
	.byte	W06
	.byte		N02
	.byte	W06
	.byte		        As3 
	.byte	W06
	.byte		N02
	.byte	W06
	.byte		        As4 
	.byte	W06
	.byte		N02
	.byte	W06
	.byte		        Cs4 
	.byte	W06
	.byte		N02
	.byte	W06
	.byte		        Cs5 
	.byte	W06
	.byte		N02
	.byte	W06
	.byte		        Fs4 
	.byte	W06
	.byte		N02
	.byte	W06
	.byte		        Bn4 
	.byte	W06
	.byte		N02
	.byte	W06
	.byte		        En4 
	.byte	W06
	.byte		N02
	.byte	W06
	.byte		VOICE , 103
	.byte		VOL   , 28*song_course_sky_mvl/mxv
	.byte	W01
	.byte		N02   , En5 
	.byte	W06
	.byte		N02
	.byte	W06
	.byte		        Bn4 
	.byte	W06
	.byte		N02
	.byte	W06
	.byte		        Gs4 
	.byte	W06
	.byte		N02
	.byte	W06
	.byte		        En5 
	.byte	W06
	.byte		N02
	.byte	W06
	.byte		        Bn4 
	.byte	W06
	.byte		N02
	.byte	W06
	.byte		        Gs4 
	.byte	W06
	.byte		N02
	.byte	W06
	.byte		        En5 
	.byte	W06
	.byte		N02
	.byte	W06
	.byte		        Bn4 
	.byte	W06
	.byte		N02
	.byte	W05
	.byte	W01
	.byte		N02   , En5 , v127
	.byte	W06
	.byte		N02
	.byte	W06
	.byte		        Bn4 
	.byte	W06
	.byte		N02
	.byte	W06
	.byte		        Gs4 
	.byte	W06
	.byte		N02
	.byte	W06
	.byte		        En5 
	.byte	W06
	.byte		N02
	.byte	W06
	.byte		        Bn4 
	.byte	W06
	.byte		N02
	.byte	W06
	.byte		        Gs4 
	.byte	W06
	.byte		N02
	.byte	W06
	.byte		        En5 
	.byte	W06
	.byte		N02
	.byte	W06
	.byte		        Bn4 
	.byte	W06
	.byte		N02
	.byte	W05
	.byte	PEND
	.byte	W01
	.byte		N02   , En5 , v127
	.byte	W06
	.byte		N02
	.byte	W06
	.byte		        Cs5 
	.byte	W06
	.byte		N02
	.byte	W06
	.byte		        An4 
	.byte	W06
	.byte		N02
	.byte	W06
	.byte		        En5 
	.byte	W06
	.byte		N02
	.byte	W06
	.byte		        Cs5 
	.byte	W06
	.byte		N02
	.byte	W06
	.byte		        An4 
	.byte	W06
	.byte		N02
	.byte	W06
	.byte		        En5 
	.byte	W06
	.byte		N02
	.byte	W06
	.byte		        Cs5 
	.byte	W06
	.byte		N02
	.byte	W05
	.byte	PEND
	.byte	W01
	.byte		        Fs5 
	.byte	W06
	.byte		N02
	.byte	W06
	.byte		        Ds5 
	.byte	W06
	.byte		N02
	.byte	W06
	.byte		        Bn4 
	.byte	W06
	.byte		N02
	.byte	W06
	.byte		        Fs5 
	.byte	W06
	.byte		N02
	.byte	W06
	.byte		        Ds5 
	.byte	W06
	.byte		N02
	.byte	W06
	.byte		        Bn4 
	.byte	W06
	.byte		N02
	.byte	W06
	.byte		        Fs5 
	.byte	W06
	.byte		N02
	.byte	W06
	.byte		        Ds5 
	.byte	W06
	.byte		N02
	.byte	W05
	.byte	PATT
	 .word	song_course_sky_2 + 0xE8
	.byte	PATT
	 .word	song_course_sky_2 + 0x10C
	.byte	PATT
	 .word	song_course_sky_2 + 0x10C
	.byte	W01
	.byte		N02   , Ds5 , v127
	.byte	W06
	.byte		N02
	.byte	W06
	.byte		        Bn4 
	.byte	W06
	.byte		N02
	.byte	W06
	.byte		        Fs4 
	.byte	W06
	.byte		N02
	.byte	W06
	.byte		        Ds5 
	.byte	W06
	.byte		N02
	.byte	W06
	.byte		        Bn4 
	.byte	W06
	.byte		N02
	.byte	W06
	.byte		        Fs4 
	.byte	W06
	.byte		N02
	.byte	W06
	.byte		        Ds5 
	.byte	W06
	.byte		N02
	.byte	W06
	.byte		        Bn4 
	.byte	W06
	.byte		N02
	.byte	W05
	.byte		VOL   , 31*song_course_sky_mvl/mxv
	.byte		N02   , En3 
	.byte	W06
	.byte		N02
	.byte	W06
	.byte		        Bn2 
	.byte	W06
	.byte		N02
	.byte	W06
	.byte		        Gs3 
	.byte	W06
	.byte		N02
	.byte	W06
	.byte		        En3 
	.byte	W06
	.byte		N02
	.byte	W06
	.byte		        Bn3 
	.byte	W06
	.byte		N02
	.byte	W06
	.byte		        Gs3 
	.byte	W06
	.byte		N02
	.byte	W06
	.byte		        En4 
	.byte	W06
	.byte		N02
	.byte	W06
	.byte		        Bn3 
	.byte	W06
	.byte		N02
	.byte	W06
	.byte		N02   , Fs4 , v127
	.byte	W06
	.byte		N02
	.byte	W06
	.byte		        Bn3 
	.byte	W06
	.byte		N02
	.byte	W06
	.byte		        Bn4 
	.byte	W06
	.byte		N02
	.byte	W06
	.byte		        Ds4 
	.byte	W06
	.byte		N02
	.byte	W06
	.byte		        Gs4 
	.byte	W06
	.byte		N02
	.byte	W06
	.byte		        Bn3 
	.byte	W06
	.byte		N02
	.byte	W06
	.byte		        Fs4 
	.byte	W06
	.byte		N02
	.byte	W06
	.byte		        Ds4 
	.byte	W06
	.byte		N02
	.byte	W06
	.byte	PEND
	.byte		        Gs3 
	.byte	W06
	.byte		N02
	.byte	W06
	.byte		        En3 
	.byte	W06
	.byte		N02
	.byte	W06
	.byte		        Bn3 
	.byte	W06
	.byte		N02
	.byte	W06
	.byte		        Gs3 
	.byte	W06
	.byte		N02
	.byte	W06
	.byte		        Cs4 
	.byte	W06
	.byte		N02
	.byte	W06
	.byte		        Bn3 
	.byte	W06
	.byte		N02
	.byte	W06
	.byte		        En4 
	.byte	W06
	.byte		N02
	.byte	W06
	.byte		        Cs4 
	.byte	W06
	.byte		N02
	.byte	W06
	.byte		        An4 
	.byte	W06
	.byte		N02
	.byte	W06
	.byte		        Cs4 
	.byte	W06
	.byte		N02
	.byte	W06
	.byte		        Cs5 
	.byte	W06
	.byte		N02
	.byte	W06
	.byte		        En4 
	.byte	W06
	.byte		N02
	.byte	W06
	.byte		        Bn4 
	.byte	W06
	.byte		N02
	.byte	W06
	.byte		        Fs4 
	.byte	W06
	.byte		N02
	.byte	W06
	.byte		        Ds5 
	.byte	W06
	.byte		N02
	.byte	W06
	.byte		        Ds4 
	.byte	W06
	.byte		N02
	.byte	W06
	.byte		        En3 
	.byte	W06
	.byte		N02
	.byte	W06
	.byte		        Bn2 
	.byte	W06
	.byte		N02
	.byte	W06
	.byte		        Gs3 
	.byte	W06
	.byte		N02
	.byte	W06
	.byte		        En3 
	.byte	W06
	.byte		N02
	.byte	W06
	.byte		        Bn3 
	.byte	W06
	.byte		N02
	.byte	W06
	.byte		        Gs3 
	.byte	W06
	.byte		N02
	.byte	W06
	.byte		        En4 
	.byte	W06
	.byte		N02
	.byte	W06
	.byte		        Bn3 
	.byte	W06
	.byte		N02
	.byte	W06
	.byte	PATT
	 .word	song_course_sky_2 + 0x1A6
	.byte		N02   , Gs3 , v127
	.byte	W06
	.byte		        Gs3 , v124
	.byte	W06
	.byte		        En3 , v116
	.byte	W06
	.byte		        En3 , v112
	.byte	W06
	.byte		        Bn3 , v104
	.byte	W06
	.byte		        Bn3 , v100
	.byte	W06
	.byte		        Gs3 , v092
	.byte	W06
	.byte		        Gs3 , v088
	.byte	W06
	.byte		        Cs4 , v080
	.byte	W06
	.byte		        Cs4 , v076
	.byte	W06
	.byte		        Gs3 , v068
	.byte	W06
	.byte		        Gs3 , v064
	.byte	W06
	.byte		        Bn3 , v056
	.byte	W06
	.byte		        Bn3 , v052
	.byte	W06
	.byte		        En3 , v044
	.byte	W06
	.byte		        En3 , v040
	.byte	W06
	.byte	W96
	.byte		VOICE , 102
	.byte		VOL   , 31*song_course_sky_mvl/mxv
	.byte		PAN   , c_v+0
	.byte		N02   , Cs3 , v127
	.byte	W06
	.byte		N02
	.byte	W06
	.byte		        Gs2 
	.byte	W06
	.byte		N02
	.byte	W06
	.byte		        Fn3 
	.byte	W06
	.byte		N02
	.byte	W06
	.byte		        Cs3 
	.byte	W06
	.byte		N02
	.byte	W06
	.byte		        Gs3 
	.byte	W06
	.byte		N02
	.byte	W06
	.byte		        Fn3 
	.byte	W06
	.byte		N02
	.byte	W06
	.byte		        Cs4 
	.byte	W06
	.byte		N02
	.byte	W06
	.byte		        Gs3 
	.byte	W06
	.byte		N02
	.byte	W06
	.byte	GOTO
	 .word	song_course_sky_2 + 0x2B
	.byte	FINE

@*********************** Track 04 ***********************@

song_course_sky_3:
	.byte	KEYSH , song_course_sky_key+0
	.byte		VOICE , 61
	.byte		VOL   , 100*song_course_sky_mvl/mxv
	.byte		PAN   , c_v+0
	.byte		N07   , An3 , v120
	.byte		N07   , Fn4 
	.byte	W18
	.byte		N05   , An3 
	.byte		N05   , Fn4 
	.byte	W18
	.byte		N10   , An3 
	.byte		N10   , Fn4 
	.byte	W12
	.byte		N04   , As3 
	.byte		N04   , Fs4 
	.byte	W06
	.byte		        As3 
	.byte		N04   , Fs4 
	.byte	W12
	.byte		        As3 
	.byte		N04   , Fs4 
	.byte	W06
	.byte		        As3 
	.byte		N04   , Fs4 
	.byte	W12
	.byte		N06   , Cs4 
	.byte		N06   , Gs4 
	.byte	W12
	.byte	W96
	.byte		VOICE , 111
	.byte		VOL   , 39*song_course_sky_mvl/mxv
	.byte		PAN   , c_v+0
	.byte	W84
	.byte		N06   , Gs3 , v127
	.byte	W12
	.byte	W96
	.byte	W60
	.byte		N08
	.byte	W24
	.byte		N06   , Gs3 , v112
	.byte	W12
	.byte	W96
	.byte	W84
	.byte		        Gs3 , v064
	.byte	W12
	.byte		VOICE , 61
	.byte		VOL   , 100*song_course_sky_mvl/mxv
	.byte		PAN   , c_v+0
	.byte		N36   , As2 , v072
	.byte	W36
	.byte		N04   , Cn3 , v084
	.byte	W24
	.byte		N06   , Cs3 , v072
	.byte	W12
	.byte		N21   , Ds3 
	.byte	W24
	.byte		N36   , Fs3 
	.byte	W36
	.byte		N04   , Gs3 , v084
	.byte	W24
	.byte		N06   , As3 , v072
	.byte	W12
	.byte		N48   , Bn3 
	.byte	W24
	.byte		VOL   , 99*song_course_sky_mvl/mxv
	.byte	W02
	.byte		        98*song_course_sky_mvl/mxv
	.byte	W02
	.byte		        96*song_course_sky_mvl/mxv
	.byte	W02
	.byte		        94*song_course_sky_mvl/mxv
	.byte	W02
	.byte		        92*song_course_sky_mvl/mxv
	.byte	W02
	.byte		        88*song_course_sky_mvl/mxv
	.byte	W02
	.byte		        82*song_course_sky_mvl/mxv
	.byte	W02
	.byte		        77*song_course_sky_mvl/mxv
	.byte	W02
	.byte		        70*song_course_sky_mvl/mxv
	.byte	W02
	.byte		        62*song_course_sky_mvl/mxv
	.byte	W02
	.byte		        55*song_course_sky_mvl/mxv
	.byte	W02
	.byte		        45*song_course_sky_mvl/mxv
	.byte	W02
	.byte		        36*song_course_sky_mvl/mxv
	.byte	W72
	.byte		VOICE , 111
	.byte		VOL   , 39*song_course_sky_mvl/mxv
	.byte		PAN   , c_v+0
	.byte	W24
	.byte		N05   , En4 , v096
	.byte	W24
	.byte		N04
	.byte	W06
	.byte		N04
	.byte	W06
	.byte		N04
	.byte	W24
	.byte		N05
	.byte	W12
	.byte	W96
	.byte	W24
	.byte		N06
	.byte	W24
	.byte		N05
	.byte	W12
	.byte		N18   , Fs4 
	.byte	W24
	.byte		N05   , En4 
	.byte	W12
	.byte	W96
	.byte	W96
	.byte	W96
	.byte	W24
	.byte		N04   , Fs4 , v088
	.byte	W12
	.byte		N04
	.byte	W12
	.byte		N08
	.byte	W18
	.byte		N08
	.byte	W18
	.byte		N12
	.byte	W12
	.byte		VOICE , 111
	.byte		VOL   , 62*song_course_sky_mvl/mxv
	.byte		PAN   , c_v-64
	.byte	W24
	.byte		N04   , Gs3 , v096
	.byte	W12
	.byte		N04
	.byte	W12
	.byte		N08
	.byte	W18
	.byte		        Bn3 
	.byte	W18
	.byte		        En4 
	.byte	W12
	.byte	PEND
	.byte	W24
	.byte		N04   , Bn3 
	.byte	W12
	.byte		N04
	.byte	W12
	.byte		N08   , Ds4 
	.byte	W18
	.byte		        Bn3 
	.byte	W19
	.byte		        Cs4 
	.byte	W11
	.byte	W24
	.byte		N04   , Gs3 
	.byte	W12
	.byte		N04
	.byte	W12
	.byte		VOICE , 61
	.byte		VOL   , 90*song_course_sky_mvl/mxv
	.byte		PAN   , c_v+0
	.byte		N06   , Cs3 , v092
	.byte	W18
	.byte		        En3 
	.byte	W18
	.byte		        Gs3 
	.byte	W12
	.byte		N08   , En3 , v120
	.byte		N08   , An3 , v116
	.byte	W18
	.byte		N06
	.byte		N06   , Cs4 , v112
	.byte	W18
	.byte		N11   , Cs4 , v120
	.byte		N11   , En4 , v116
	.byte	W12
	.byte		N04   , Fs3 , v120
	.byte		N04   , Bn3 , v116
	.byte	W06
	.byte		        Fs3 , v120
	.byte		N04   , Bn3 , v116
	.byte	W12
	.byte		N06   , Bn3 , v120
	.byte		N06   , Ds4 
	.byte	W18
	.byte		N05
	.byte		N05   , Fs4 
	.byte	W12
	.byte	PATT
	 .word	song_course_sky_3 + 0xB4
	.byte	W24
	.byte		N04   , Bn3 , v096
	.byte	W12
	.byte		N04
	.byte	W12
	.byte		N08   , Ds4 
	.byte	W12
	.byte		VOICE , 61
	.byte		VOL   , 100*song_course_sky_mvl/mxv
	.byte		PAN   , c_v+0
	.byte		N06   , Ds3 , v080
	.byte	W12
	.byte		        Fs3 
	.byte	W12
	.byte		        Bn3 
	.byte	W12
	.byte		N32   , En4 , v072
	.byte	W36
	.byte		N42
	.byte	W48
	.byte		N05   , Bn3 , v100
	.byte		N05   , En4 , v112
	.byte	W12
	.byte		N07   , Cn4 
	.byte		N07   , Fn4 , v116
	.byte	W18
	.byte		N05   , Cn4 , v112
	.byte		N05   , Fn4 , v116
	.byte	W18
	.byte		N10   , Cn4 , v112
	.byte		N10   , Fn4 , v116
	.byte	W12
	.byte		N04   , Cs4 , v120
	.byte		N04   , Fs4 
	.byte	W06
	.byte		        Cs4 
	.byte		N04   , Fs4 
	.byte	W12
	.byte		        Cs4 
	.byte		N04   , Fs4 
	.byte	W06
	.byte		        Cs4 , v112
	.byte		N04   , Fs4 
	.byte	W12
	.byte		N06   , Fn4 , v120
	.byte		N06   , Gs4 
	.byte	W12
	.byte	W96
	.byte	GOTO
	 .word	song_course_sky_3 + 0x2F
	.byte	FINE

@*********************** Track 05 ***********************@

song_course_sky_4:
	.byte	KEYSH , song_course_sky_key+0
	.byte		VOICE , 104
	.byte		VOL   , 100*song_course_sky_mvl/mxv
	.byte		PAN   , c_v+0
	.byte		N07   , Cn4 , v064
	.byte	W18
	.byte		N05
	.byte	W18
	.byte		N10
	.byte	W12
	.byte		N04   , Cs4 
	.byte	W06
	.byte		N04
	.byte	W12
	.byte		N04
	.byte	W06
	.byte		N04
	.byte	W12
	.byte		N06   , Fn4 
	.byte	W12
	.byte	W96
	.byte		VOICE , 112
	.byte		VOL   , 50*song_course_sky_mvl/mxv
	.byte		PAN   , c_v+0
	.byte	W84
	.byte		N06   , Fn4 , v127
	.byte	W12
	.byte	W96
	.byte	W60
	.byte		N08
	.byte	W24
	.byte		N06
	.byte	W12
	.byte	W96
	.byte	W84
	.byte		N06
	.byte	W12
	.byte	W96
	.byte	W96
	.byte	W96
	.byte		VOICE , 112
	.byte		VOL   , 100*song_course_sky_mvl/mxv
	.byte		PAN   , c_v+0
	.byte	W24
	.byte		N05   , Bn3 , v064
	.byte	W24
	.byte		N04
	.byte	W06
	.byte		N04
	.byte	W06
	.byte		N04
	.byte	W24
	.byte		N05
	.byte	W12
	.byte	W96
	.byte	W24
	.byte		N06   , An3 
	.byte	W24
	.byte		N05   , Cs4 
	.byte	W12
	.byte		N20   , Ds4 
	.byte	W24
	.byte		N05   , Cs4 
	.byte	W12
	.byte	W96
	.byte	W96
	.byte	W96
	.byte	W24
	.byte		N04   , Ds4 , v056
	.byte	W12
	.byte		N04
	.byte	W12
	.byte		N08
	.byte	W18
	.byte		N08
	.byte	W18
	.byte		N12
	.byte	W12
	.byte		VOICE , 112
	.byte		VOL   , 75*song_course_sky_mvl/mxv
	.byte		PAN   , c_v+63
	.byte	W24
	.byte		N04   , En3 , v127
	.byte	W12
	.byte		N04
	.byte	W12
	.byte		N08
	.byte	W18
	.byte		        Gs3 
	.byte	W18
	.byte		        Bn3 
	.byte	W12
	.byte	W24
	.byte		N04   , Fs3 
	.byte	W12
	.byte		N04
	.byte	W12
	.byte		N08   , Bn3 
	.byte	W18
	.byte		        Fs3 
	.byte	W19
	.byte		        Gs3 
	.byte	W11
	.byte	W24
	.byte		N04   , En3 
	.byte	W12
	.byte		N04
	.byte	W60
	.byte	W96
	.byte	W24
	.byte		N04
	.byte	W12
	.byte		N04
	.byte	W12
	.byte		N08
	.byte	W18
	.byte		        Gs3 
	.byte	W18
	.byte		        Bn3 
	.byte	W12
	.byte	W24
	.byte		N04   , Fs3 
	.byte	W12
	.byte		N04
	.byte	W12
	.byte		N08   , Bn3 
	.byte	W48
	.byte		VOICE , 104
	.byte		VOL   , 100*song_course_sky_mvl/mxv
	.byte		PAN   , c_v+0
	.byte		N32   , Gs3 , v048
	.byte	W36
	.byte		N42
	.byte	W48
	.byte		N06   , Gs3 , v064
	.byte	W12
	.byte		PAN   , c_v+0
	.byte		N07   , An3 
	.byte	W18
	.byte		N05
	.byte	W18
	.byte		N10
	.byte	W12
	.byte		N04   , As3 
	.byte	W06
	.byte		N04
	.byte	W12
	.byte		N04
	.byte	W06
	.byte		N04
	.byte	W12
	.byte		N06   , Cs4 
	.byte	W12
	.byte	W96
	.byte	GOTO
	 .word	song_course_sky_4 + 0x1D
	.byte	FINE

@*********************** Track 06 ***********************@

song_course_sky_5:
	.byte	KEYSH , song_course_sky_key+0
	.byte	W96
	.byte	W96
	.byte	W96
	.byte	W96
	.byte	W96
	.byte	W96
	.byte	W96
	.byte	W96
	.byte	W96
	.byte	W96
	.byte		VOICE , 60
	.byte		VOL   , 94*song_course_sky_mvl/mxv
	.byte		PAN   , c_v+0
	.byte	W23
	.byte		N24   , Bn2 , v084
	.byte	W24
	.byte	W01
	.byte		N08   , En3 , v080
	.byte	W12
	.byte		N19   , Fs3 
	.byte	W23
	.byte		N09   , Bn3 , v092
	.byte	W13
	.byte		N72   , An3 , v080
	.byte	W80
	.byte	W03
	.byte		        Gs3 
	.byte	W13
	.byte	W72
	.byte	W01
	.byte		N12   , Fs3 , v076
	.byte	W23
	.byte		N44   , En3 
	.byte	W48
	.byte		        Gs3 , v084
	.byte	W48
	.byte		        Bn3 , v088
	.byte	W48
	.byte		        Cs4 , v080
	.byte	W48
	.byte		N72   , En3 , v084
	.byte	W84
	.byte		TIE   , Fs3 , v080
	.byte	W12
	.byte	W72
	.byte		VOL   , 92*song_course_sky_mvl/mxv
	.byte	W02
	.byte		        85*song_course_sky_mvl/mxv
	.byte	W02
	.byte		        77*song_course_sky_mvl/mxv
	.byte	W02
	.byte		        70*song_course_sky_mvl/mxv
	.byte	W02
	.byte		        64*song_course_sky_mvl/mxv
	.byte	W02
	.byte		        58*song_course_sky_mvl/mxv
	.byte	W02
	.byte		        51*song_course_sky_mvl/mxv
	.byte	W02
	.byte		        46*song_course_sky_mvl/mxv
	.byte	W02
	.byte		        40*song_course_sky_mvl/mxv
	.byte	W02
	.byte		        36*song_course_sky_mvl/mxv
	.byte	W02
	.byte		        31*song_course_sky_mvl/mxv
	.byte	W02
	.byte		        26*song_course_sky_mvl/mxv
	.byte	W02
	.byte		        22*song_course_sky_mvl/mxv
	.byte	W02
	.byte		        18*song_course_sky_mvl/mxv
	.byte	W02
	.byte		        15*song_course_sky_mvl/mxv
	.byte	W02
	.byte		        12*song_course_sky_mvl/mxv
	.byte	W02
	.byte		        10*song_course_sky_mvl/mxv
	.byte	W02
	.byte		        7*song_course_sky_mvl/mxv
	.byte	W02
	.byte		        5*song_course_sky_mvl/mxv
	.byte	W02
	.byte		        3*song_course_sky_mvl/mxv
	.byte	W02
	.byte		        2*song_course_sky_mvl/mxv
	.byte	W02
	.byte		        0*song_course_sky_mvl/mxv
	.byte	W02
	.byte		        0*song_course_sky_mvl/mxv
	.byte	W04
	.byte		EOT
	.byte	W72
	.byte	W96
	.byte	W96
	.byte	W96
	.byte	W96
	.byte	W96
	.byte	W96
	.byte	W96
	.byte	W96
	.byte	GOTO
	 .word	song_course_sky_5 + 0x4
	.byte	FINE

@*********************** Track 07 ***********************@

song_course_sky_6:
	.byte	KEYSH , song_course_sky_key+0
	.byte		VOICE , 127
	.byte		VOL   , 100*song_course_sky_mvl/mxv
	.byte		N01   , Fn6 , v056
	.byte	W24
	.byte		N01
	.byte	W24
	.byte		N12   , FnM1, v108
	.byte		N05   , Fn6 , v048
	.byte	W18
	.byte		N12   , FnM1, v120
	.byte		N05   , Fn6 , v048
	.byte	W18
	.byte		N12   , FnM1, v108
	.byte		N01   , En1 , v100
	.byte	W01
	.byte		N10   , En1 , v112
	.byte	W11
	.byte		N12   , FnM1, v116
	.byte		N01   , Fn6 , v056
	.byte	W12
	.byte		N01
	.byte	W12
	.byte		N12   , En1 , v100
	.byte		N01   , Fn6 , v056
	.byte	W12
	.byte		N01
	.byte	W12
	.byte		N12   , FnM1, v116
	.byte		N01   , Fn6 , v056
	.byte	W12
	.byte		N01
	.byte	W12
	.byte		N12   , En1 , v100
	.byte		N01   , Fn6 , v056
	.byte	W12
	.byte		N01
	.byte	W12
	.byte		N12   , FnM1, v116
	.byte		N01   , En6 , v072
	.byte	W06
	.byte		        Fs6 , v068
	.byte	W06
	.byte		        Fn6 , v056
	.byte	W12
	.byte		N12   , En1 , v100
	.byte		N01   , Fn6 , v056
	.byte	W12
	.byte		N01
	.byte	W12
	.byte		N12   , FnM1, v116
	.byte		N01   , Fn6 , v056
	.byte	W12
	.byte		N01
	.byte	W12
	.byte		N12   , En1 , v100
	.byte		N01   , Fn6 , v056
	.byte	W12
	.byte		N12   , FnM1, v120
	.byte		N05   , Fn6 , v048
	.byte	W12
	.byte	PEND
	.byte		N01   , Fn6 , v056
	.byte	W12
	.byte		N01
	.byte	W12
	.byte		N12   , En1 , v100
	.byte		N01   , Fn6 , v056
	.byte	W12
	.byte		N01
	.byte	W12
	.byte		N12   , FnM1, v116
	.byte		N01   , Fn6 , v056
	.byte	W12
	.byte		N01
	.byte	W12
	.byte		N12   , En1 , v100
	.byte		N01   , Fn6 , v056
	.byte	W12
	.byte		N01
	.byte	W12
	.byte	PEND
	.byte		N12   , FnM1, v116
	.byte		N01   , En6 , v072
	.byte	W06
	.byte		        Fs6 , v068
	.byte	W06
	.byte		        En6 , v056
	.byte	W06
	.byte		        Fs6 , v068
	.byte	W06
	.byte		N12   , En1 , v100
	.byte		N01   , Fn6 , v056
	.byte	W12
	.byte		N01
	.byte	W12
	.byte		N12   , FnM1, v116
	.byte		N01   , Fn6 , v056
	.byte	W12
	.byte		N12   , En1 , v100
	.byte		N12   , An2 , v056
	.byte		N01   , Fn6 
	.byte	W12
	.byte		N12   , FnM1, v108
	.byte		N01   , Fn6 , v056
	.byte	W12
	.byte		N12   , En1 , v112
	.byte		N05   , Fn6 , v048
	.byte	W12
	.byte	PATT
	 .word	song_course_sky_6 + 0x77
	.byte	PATT
	 .word	song_course_sky_6 + 0x49
	.byte	PATT
	 .word	song_course_sky_6 + 0x77
	.byte		N12   , FnM1, v116
	.byte		N01   , En6 , v072
	.byte		N06   , Gs7 
	.byte	W06
	.byte		N01   , Fs6 , v068
	.byte		N06   , Gs7 
	.byte	W06
	.byte		N01   , En6 , v056
	.byte		N06   , Gs7 , v068
	.byte	W06
	.byte		N01   , Fs6 
	.byte		N06   , Gs7 
	.byte	W06
	.byte		N12   , En1 , v100
	.byte		N01   , Fn6 , v056
	.byte	W12
	.byte		N01
	.byte		N06   , Gs7 , v072
	.byte	W06
	.byte		        Gs7 , v068
	.byte	W06
	.byte		N12   , FnM1, v127
	.byte		N01   , Fn6 , v056
	.byte		N06   , Gs7 , v068
	.byte	W06
	.byte		N06
	.byte	W06
	.byte		        FnM1, v127
	.byte		N01   , Fn6 , v056
	.byte	W06
	.byte		N06   , FnM1, v127
	.byte	W06
	.byte		N01   , En1 , v112
	.byte	W01
	.byte		N11   , En1 , v120
	.byte	W23
	.byte		N12   , FnM1, v116
	.byte		N24   , An2 , v056
	.byte		N01   , Fn6 
	.byte	W12
	.byte		N01
	.byte	W06
	.byte		N01
	.byte	W06
	.byte		N12   , En1 , v100
	.byte		N01   , Fn6 , v056
	.byte	W12
	.byte		N01
	.byte	W06
	.byte		N01
	.byte	W06
	.byte		N12   , FnM1, v116
	.byte		N01   , Fn6 , v056
	.byte	W12
	.byte		N01
	.byte	W06
	.byte		N01
	.byte	W06
	.byte		N12   , En1 , v100
	.byte		N01   , Fn6 , v056
	.byte	W12
	.byte		N01
	.byte	W06
	.byte		N01
	.byte	W06
	.byte		N12   , FnM1, v116
	.byte		N01   , Fn6 , v056
	.byte	W12
	.byte		N01
	.byte	W06
	.byte		N01
	.byte	W06
	.byte		N12   , En1 , v100
	.byte		N01   , Fn6 , v056
	.byte	W12
	.byte		N01
	.byte	W06
	.byte		N01
	.byte	W06
	.byte		N12   , FnM1, v116
	.byte		N01   , Fn6 , v056
	.byte	W12
	.byte		N01
	.byte	W06
	.byte		N01
	.byte	W06
	.byte		N12   , En1 , v100
	.byte		N01   , Fn6 , v056
	.byte	W12
	.byte		N01
	.byte	W06
	.byte		N01
	.byte	W06
	.byte	PEND
	.byte		N12   , FnM1, v116
	.byte		N01   , Fn6 , v056
	.byte	W12
	.byte		N01
	.byte	W06
	.byte		N01
	.byte	W06
	.byte		N12   , En1 , v100
	.byte		N01   , Fn6 , v056
	.byte	W12
	.byte		N01
	.byte	W06
	.byte		N01
	.byte	W06
	.byte		N12   , FnM1, v116
	.byte		N01   , Fn6 , v056
	.byte	W12
	.byte		N01
	.byte	W06
	.byte		N01
	.byte	W06
	.byte		N12   , En1 , v100
	.byte		N01   , Fn6 , v056
	.byte	W12
	.byte		N12   , FnM1, v116
	.byte		N05   , Fn6 , v048
	.byte	W12
	.byte		N01   , Fn6 , v056
	.byte	W12
	.byte		N12   , FnM1, v100
	.byte		N01   , Fn6 , v056
	.byte	W06
	.byte		N01
	.byte	W06
	.byte		N12   , En1 , v100
	.byte		N01   , Fn6 , v056
	.byte	W12
	.byte		N12   , FnM1, v116
	.byte		N05   , Fn6 , v048
	.byte	W12
	.byte		N01   , Fn6 , v056
	.byte	W12
	.byte		N12   , FnM1, v100
	.byte		N01   , Fn6 , v056
	.byte	W06
	.byte		N01
	.byte	W06
	.byte		N12   , En1 , v108
	.byte		N01   , Fn6 , v056
	.byte	W12
	.byte		N12   , En1 , v092
	.byte		N05   , Fn6 , v048
	.byte	W12
	.byte		N12   , FnM1, v116
	.byte		N22   , An2 , v068
	.byte		N01   , Fn6 , v056
	.byte	W12
	.byte		N01
	.byte	W06
	.byte		N01
	.byte	W06
	.byte		N12   , En1 , v100
	.byte		N01   , Fn6 , v056
	.byte	W12
	.byte		N01
	.byte	W06
	.byte		N01
	.byte	W06
	.byte		N12   , FnM1, v116
	.byte		N01   , Fn6 , v056
	.byte	W12
	.byte		N01
	.byte	W06
	.byte		N01
	.byte	W06
	.byte		N12   , En1 , v100
	.byte		N01   , Fn6 , v056
	.byte	W12
	.byte		N01
	.byte	W06
	.byte		N01
	.byte	W06
	.byte	PATT
	 .word	song_course_sky_6 + 0x155
	.byte		N12   , FnM1, v116
	.byte		N01   , Fn6 , v056
	.byte	W12
	.byte		N01
	.byte	W06
	.byte		N01
	.byte	W06
	.byte		N12   , En1 , v100
	.byte		N01   , Fn6 , v056
	.byte	W12
	.byte		N01
	.byte	W06
	.byte		N01
	.byte	W06
	.byte		N12   , FnM1, v116
	.byte		N01   , Fn6 , v056
	.byte	W12
	.byte		N01
	.byte	W06
	.byte		N01
	.byte	W06
	.byte		N12   , En1 , v100
	.byte		N01   , Fn6 , v056
	.byte	W12
	.byte		N12   , FnM1, v120
	.byte		N18   , An2 , v052
	.byte	W12
	.byte	W12
	.byte		N12   , En1 , v060
	.byte	W12
	.byte		        En1 , v072
	.byte	W12
	.byte		        En1 , v080
	.byte	W12
	.byte		        FnM1, v116
	.byte		N06   , En1 , v100
	.byte	W06
	.byte		        En1 , v080
	.byte	W06
	.byte		        En1 , v108
	.byte	W12
	.byte		N12   , FnM1, v116
	.byte		N12   , En1 , v112
	.byte	W12
	.byte		N06   , En1 , v100
	.byte	W06
	.byte		        En1 , v092
	.byte	W06
	.byte		N12   , FnM1, v116
	.byte		N22   , An2 , v068
	.byte		N01   , Fn6 , v056
	.byte	W12
	.byte		N01
	.byte	W12
	.byte		N12   , En1 , v100
	.byte		N01   , Fn6 , v056
	.byte	W12
	.byte		N01
	.byte	W06
	.byte		N01
	.byte	W06
	.byte		N12   , FnM1, v116
	.byte		N01   , En6 , v056
	.byte	W06
	.byte		        Fs6 
	.byte	W06
	.byte		        Fn6 
	.byte	W12
	.byte		N12   , En1 , v100
	.byte		N01   , Fn6 , v056
	.byte	W12
	.byte		N01
	.byte	W12
	.byte		N12   , FnM1, v120
	.byte		N01   , Fn6 , v056
	.byte	W12
	.byte		N01
	.byte	W12
	.byte		N12   , En1 , v100
	.byte		N01   , Fn6 , v056
	.byte	W12
	.byte		        En6 
	.byte	W06
	.byte		        Fs6 
	.byte	W06
	.byte		N12   , FnM1, v120
	.byte		N01   , En6 , v056
	.byte	W06
	.byte		        Fs6 
	.byte	W06
	.byte		        Fn6 
	.byte	W12
	.byte		N12   , En1 , v100
	.byte		N01   , Fn6 , v056
	.byte	W12
	.byte		N12   , En1 , v092
	.byte		N01   , Fn6 , v056
	.byte	W12
	.byte	PEND
	.byte		N12   , FnM1, v116
	.byte		N01   , Fn6 , v056
	.byte	W12
	.byte		N01
	.byte	W12
	.byte		N12   , En1 , v100
	.byte		N01   , Fn6 , v056
	.byte	W12
	.byte		N01
	.byte	W06
	.byte		N01
	.byte	W06
	.byte		N12   , FnM1, v116
	.byte		N01   , En6 , v056
	.byte	W06
	.byte		        Fs6 
	.byte	W06
	.byte		        Fn6 
	.byte	W12
	.byte		N12   , En1 , v100
	.byte		N01   , Fn6 , v056
	.byte	W12
	.byte		N01
	.byte	W12
	.byte		N12   , FnM1, v116
	.byte		N01   , Fn6 , v056
	.byte	W12
	.byte		N01
	.byte	W12
	.byte		N12   , En1 , v100
	.byte		N01   , Fn6 , v056
	.byte	W12
	.byte		        En6 
	.byte	W06
	.byte		        Fs6 
	.byte	W06
	.byte		N12   , FnM1, v116
	.byte		N01   , En6 , v056
	.byte	W06
	.byte		        Fs6 
	.byte	W06
	.byte		        Fn6 
	.byte	W12
	.byte		N12   , En1 , v100
	.byte		N01   , Fn6 , v056
	.byte	W12
	.byte		N06   , En1 , v100
	.byte	W06
	.byte		        En1 , v092
	.byte	W06
	.byte		N12   , FnM1, v116
	.byte		N22   , An2 , v064
	.byte		N01   , Fn6 , v056
	.byte	W12
	.byte		N01
	.byte	W12
	.byte		N12   , En1 , v100
	.byte		N01   , Fn6 , v056
	.byte	W12
	.byte		N01
	.byte	W06
	.byte		N01
	.byte	W06
	.byte		N12   , FnM1, v116
	.byte		N01   , En6 , v056
	.byte	W06
	.byte		        Fs6 
	.byte	W06
	.byte		        Fn6 
	.byte	W12
	.byte		N12   , En1 , v100
	.byte		N01   , Fn6 , v056
	.byte	W12
	.byte		N01
	.byte	W12
	.byte	PATT
	 .word	song_course_sky_6 + 0x29A
	.byte		N12   , FnM1, v120
	.byte		N01   , Fn6 , v056
	.byte	W12
	.byte		N01
	.byte	W12
	.byte		N12   , En1 , v112
	.byte		N01   , Fn6 , v052
	.byte	W12
	.byte		N12   , En1 , v092
	.byte	W12
	.byte		        FnM1, v116
	.byte		N01   , Fn6 , v056
	.byte	W12
	.byte		N12   , En1 , v092
	.byte	W12
	.byte		N06   , En1 , v108
	.byte		N01   , Fn6 , v052
	.byte	W06
	.byte		N06   , En1 , v088
	.byte	W06
	.byte		N12   , En1 , v112
	.byte	W12
	.byte		N01   , En1 , v076
	.byte		N01   , Fn6 , v056
	.byte	W01
	.byte		N06   , En1 , v108
	.byte	W11
	.byte		        FnM1, v127
	.byte	W06
	.byte		        En1 , v072
	.byte	W06
	.byte		        En1 , v096
	.byte		N01   , Fn6 , v052
	.byte	W06
	.byte		N06   , En1 , v088
	.byte	W06
	.byte		N12   , FnM1, v108
	.byte		N06   , En1 , v072
	.byte	W06
	.byte		        En1 , v092
	.byte	W06
	.byte		N12   , FnM1, v116
	.byte		N05   , Fn6 , v048
	.byte	W18
	.byte		N12   , FnM1, v120
	.byte		N05   , Fn6 , v048
	.byte	W18
	.byte		N01   , En1 , v092
	.byte	W01
	.byte		N11   , FnM1, v112
	.byte		N10   , En1 , v108
	.byte	W11
	.byte		N12   , FnM1, v116
	.byte		N22   , An2 , v060
	.byte		N01   , Fn6 , v056
	.byte	W12
	.byte		N01
	.byte	W12
	.byte		N12   , En1 , v100
	.byte		N01   , Fn6 , v056
	.byte	W12
	.byte		N01
	.byte	W12
	.byte		N12   , FnM1, v116
	.byte		N01   , Fn6 , v056
	.byte	W12
	.byte		N01
	.byte	W12
	.byte		N12   , En1 , v100
	.byte		N01   , Fn6 , v056
	.byte	W12
	.byte		N01
	.byte	W12
	.byte	GOTO
	 .word	song_course_sky_6 + 0x49
	.byte	FINE

@*********************** Track 08 ***********************@

song_course_sky_7:
	.byte	KEYSH , song_course_sky_key+0
	.byte	W96
	.byte	W03
	.byte		VOICE , 102
	.byte		VOL   , 31*song_course_sky_mvl/mxv
	.byte		PAN   , c_v+0
	.byte		N02   , Cs3 , v064
	.byte	W06
	.byte		N02
	.byte	W06
	.byte		        Gs2 
	.byte	W06
	.byte		N02
	.byte	W06
	.byte		        Fn3 
	.byte	W06
	.byte		N02
	.byte	W06
	.byte		        Cs3 
	.byte	W06
	.byte		N02
	.byte	W06
	.byte		        Gs3 
	.byte	W06
	.byte		N02
	.byte	W06
	.byte		        Fn3 
	.byte	W06
	.byte		N02
	.byte	W06
	.byte		        Cs4 
	.byte	W06
	.byte		N02
	.byte	W06
	.byte		        Gs3 
	.byte	W06
	.byte		N02
	.byte	W03
	.byte	W03
	.byte		N02   , Fs4 , v064
	.byte	W06
	.byte		N02
	.byte	W06
	.byte		        As3 
	.byte	W06
	.byte		N02
	.byte	W06
	.byte		        As4 
	.byte	W06
	.byte		N02
	.byte	W06
	.byte		        Cs4 
	.byte	W06
	.byte		N02
	.byte	W06
	.byte		        Cs5 
	.byte	W06
	.byte		N02
	.byte	W06
	.byte		        Fs4 
	.byte	W06
	.byte		N02
	.byte	W06
	.byte		        As4 
	.byte	W06
	.byte		N02
	.byte	W06
	.byte		        Cs5 
	.byte	W06
	.byte		N02
	.byte	W03
	.byte	PEND
	.byte	W03
	.byte		N02   , Cs3 , v064
	.byte	W06
	.byte		N02
	.byte	W06
	.byte		        Gs2 
	.byte	W06
	.byte		N02
	.byte	W06
	.byte		        Fn3 
	.byte	W06
	.byte		N02
	.byte	W06
	.byte		        Cs3 
	.byte	W06
	.byte		N02
	.byte	W06
	.byte		        Gs3 
	.byte	W06
	.byte		N02
	.byte	W06
	.byte		        Fn3 
	.byte	W06
	.byte		N02
	.byte	W06
	.byte		        Cs4 
	.byte	W06
	.byte		N02
	.byte	W06
	.byte		        Gs3 
	.byte	W06
	.byte		N02
	.byte	W03
	.byte	PEND
	.byte	W03
	.byte		        Fs4 
	.byte	W06
	.byte		N02
	.byte	W06
	.byte		        As3 
	.byte	W06
	.byte		N02
	.byte	W06
	.byte		        As4 
	.byte	W06
	.byte		N02
	.byte	W06
	.byte		        Cs4 
	.byte	W06
	.byte		N02
	.byte	W06
	.byte		        Cs5 
	.byte	W06
	.byte		N02
	.byte	W06
	.byte		        Fn4 
	.byte	W06
	.byte		N02
	.byte	W06
	.byte		        Gs4 
	.byte	W06
	.byte		N02
	.byte	W06
	.byte		        Cs5 
	.byte	W06
	.byte		N02
	.byte	W03
	.byte	PATT
	 .word	song_course_sky_7 + 0x50
	.byte	PATT
	 .word	song_course_sky_7 + 0x2C
	.byte	PATT
	 .word	song_course_sky_7 + 0x50
	.byte	W03
	.byte		N02   , Fs4 , v064
	.byte	W06
	.byte		N02
	.byte	W06
	.byte		        As3 
	.byte	W06
	.byte		N02
	.byte	W06
	.byte		        As4 
	.byte	W06
	.byte		N02
	.byte	W06
	.byte		        Cs4 
	.byte	W06
	.byte		N02
	.byte	W06
	.byte		        Cs5 
	.byte	W06
	.byte		N02
	.byte	W06
	.byte		        Fs4 
	.byte	W06
	.byte		N02
	.byte	W06
	.byte		        Bn4 
	.byte	W06
	.byte		N02
	.byte	W06
	.byte		        En4 
	.byte	W06
	.byte		N02
	.byte	W03
	.byte	W03
	.byte		VOICE , 103
	.byte		VOL   , 25*song_course_sky_mvl/mxv
	.byte	W01
	.byte		N02   , En5 
	.byte	W06
	.byte		N02
	.byte	W06
	.byte		        Bn4 
	.byte	W06
	.byte		N02
	.byte	W06
	.byte		        Gs4 
	.byte	W06
	.byte		N02
	.byte	W06
	.byte		        En5 
	.byte	W06
	.byte		N02
	.byte	W06
	.byte		        Bn4 
	.byte	W06
	.byte		N02
	.byte	W06
	.byte		        Gs4 
	.byte	W06
	.byte		N02
	.byte	W06
	.byte		        En5 
	.byte	W06
	.byte		N02
	.byte	W06
	.byte		        Bn4 
	.byte	W06
	.byte		N02
	.byte	W02
	.byte	W04
	.byte		N02   , En5 , v064
	.byte	W06
	.byte		N02
	.byte	W06
	.byte		        Bn4 
	.byte	W06
	.byte		N02
	.byte	W06
	.byte		        Gs4 
	.byte	W06
	.byte		N02
	.byte	W06
	.byte		        En5 
	.byte	W06
	.byte		N02
	.byte	W06
	.byte		        Bn4 
	.byte	W06
	.byte		N02
	.byte	W06
	.byte		        Gs4 
	.byte	W06
	.byte		N02
	.byte	W06
	.byte		        En5 
	.byte	W06
	.byte		N02
	.byte	W06
	.byte		        Bn4 
	.byte	W06
	.byte		N02
	.byte	W02
	.byte	PEND
	.byte	W04
	.byte		N02   , En5 , v064
	.byte	W06
	.byte		N02
	.byte	W06
	.byte		        Cs5 
	.byte	W06
	.byte		N02
	.byte	W06
	.byte		        An4 
	.byte	W06
	.byte		N02
	.byte	W06
	.byte		        En5 
	.byte	W06
	.byte		N02
	.byte	W06
	.byte		        Cs5 
	.byte	W06
	.byte		N02
	.byte	W06
	.byte		        An4 
	.byte	W06
	.byte		N02
	.byte	W06
	.byte		        En5 
	.byte	W06
	.byte		N02
	.byte	W06
	.byte		        Cs5 
	.byte	W06
	.byte		N02
	.byte	W02
	.byte	PEND
	.byte	W04
	.byte		        Fs5 
	.byte	W06
	.byte		N02
	.byte	W06
	.byte		        Ds5 
	.byte	W06
	.byte		N02
	.byte	W06
	.byte		        Bn4 
	.byte	W06
	.byte		N02
	.byte	W06
	.byte		        Fs5 
	.byte	W06
	.byte		N02
	.byte	W06
	.byte		        Ds5 
	.byte	W06
	.byte		N02
	.byte	W06
	.byte		        Bn4 
	.byte	W06
	.byte		N02
	.byte	W06
	.byte		        Fs5 
	.byte	W06
	.byte		N02
	.byte	W06
	.byte		        Ds5 
	.byte	W06
	.byte		N02
	.byte	W02
	.byte	PATT
	 .word	song_course_sky_7 + 0xEE
	.byte	PATT
	 .word	song_course_sky_7 + 0x112
	.byte	PATT
	 .word	song_course_sky_7 + 0x112
	.byte	W04
	.byte		N02   , Ds5 , v064
	.byte	W06
	.byte		N02
	.byte	W06
	.byte		        Bn4 
	.byte	W06
	.byte		N02
	.byte	W06
	.byte		        Fs4 
	.byte	W06
	.byte		N02
	.byte	W06
	.byte		        Ds5 
	.byte	W06
	.byte		N02
	.byte	W06
	.byte		        Bn4 
	.byte	W06
	.byte		N02
	.byte	W06
	.byte		        Fs4 
	.byte	W06
	.byte		N02
	.byte	W06
	.byte		        Ds5 
	.byte	W06
	.byte		N02
	.byte	W06
	.byte		        Bn4 
	.byte	W06
	.byte		N02
	.byte	W02
	.byte	W03
	.byte		VOL   , 31*song_course_sky_mvl/mxv
	.byte		PAN   , c_v-64
	.byte		N02   , En3 , v088
	.byte	W06
	.byte		N02
	.byte	W06
	.byte		        Bn2 
	.byte	W06
	.byte		N02
	.byte	W06
	.byte		        Gs3 
	.byte	W06
	.byte		N02
	.byte	W06
	.byte		        En3 
	.byte	W06
	.byte		N02
	.byte	W06
	.byte		PAN   , c_v+63
	.byte		N02   , Bn3 
	.byte	W06
	.byte		N02
	.byte	W06
	.byte		        Gs3 
	.byte	W06
	.byte		N02
	.byte	W06
	.byte		        En4 
	.byte	W06
	.byte		N02
	.byte	W06
	.byte		        Bn3 
	.byte	W06
	.byte		N02
	.byte	W03
	.byte	W03
	.byte		PAN   , c_v-64
	.byte		N02   , Fs4 , v088
	.byte	W06
	.byte		N02
	.byte	W06
	.byte		        Bn3 
	.byte	W06
	.byte		N02
	.byte	W06
	.byte		        Bn4 
	.byte	W06
	.byte		N02
	.byte	W06
	.byte		        Ds4 
	.byte	W06
	.byte		N02
	.byte	W06
	.byte		PAN   , c_v+63
	.byte		N02   , Gs4 
	.byte	W06
	.byte		N02
	.byte	W06
	.byte		        Bn3 
	.byte	W06
	.byte		N02
	.byte	W06
	.byte		        Fs4 
	.byte	W06
	.byte		N02
	.byte	W06
	.byte		        Ds4 
	.byte	W06
	.byte		N02
	.byte	W03
	.byte	PEND
	.byte	W03
	.byte		PAN   , c_v-64
	.byte		N02   , Gs3 
	.byte	W06
	.byte		N02
	.byte	W06
	.byte		        En3 
	.byte	W06
	.byte		N02
	.byte	W06
	.byte		        Bn3 
	.byte	W06
	.byte		N02
	.byte	W06
	.byte		        Gs3 
	.byte	W06
	.byte		N02
	.byte	W06
	.byte		PAN   , c_v+63
	.byte		N02   , Cs4 
	.byte	W06
	.byte		N02
	.byte	W06
	.byte		        Bn3 
	.byte	W06
	.byte		N02
	.byte	W06
	.byte		        En4 
	.byte	W06
	.byte		N02
	.byte	W06
	.byte		        Cs4 
	.byte	W06
	.byte		N02
	.byte	W03
	.byte	W03
	.byte		PAN   , c_v-64
	.byte		N02   , An4 
	.byte	W06
	.byte		N02
	.byte	W06
	.byte		        Cs4 
	.byte	W06
	.byte		N02
	.byte	W06
	.byte		        Cs5 
	.byte	W06
	.byte		N02
	.byte	W06
	.byte		        En4 
	.byte	W06
	.byte		N02
	.byte	W06
	.byte		PAN   , c_v+63
	.byte		N02   , Bn4 
	.byte	W06
	.byte		N02
	.byte	W06
	.byte		        Fs4 
	.byte	W06
	.byte		N02
	.byte	W06
	.byte		        Ds5 
	.byte	W06
	.byte		N02
	.byte	W06
	.byte		        Ds4 
	.byte	W06
	.byte		N02
	.byte	W03
	.byte	W03
	.byte		PAN   , c_v-64
	.byte		N02   , En3 
	.byte	W06
	.byte		N02
	.byte	W06
	.byte		        Bn2 
	.byte	W06
	.byte		N02
	.byte	W06
	.byte		        Gs3 
	.byte	W06
	.byte		N02
	.byte	W06
	.byte		        En3 
	.byte	W06
	.byte		N02
	.byte	W06
	.byte		PAN   , c_v+63
	.byte		N02   , Bn3 
	.byte	W06
	.byte		N02
	.byte	W06
	.byte		        Gs3 
	.byte	W06
	.byte		N02
	.byte	W06
	.byte		        En4 
	.byte	W06
	.byte		N02
	.byte	W06
	.byte		        Bn3 
	.byte	W06
	.byte		N02
	.byte	W03
	.byte	PATT
	 .word	song_course_sky_7 + 0x1B3
	.byte	W03
	.byte		PAN   , c_v-64
	.byte		N02   , Gs3 , v084
	.byte	W06
	.byte		        Gs3 , v080
	.byte	W06
	.byte		        En3 , v076
	.byte	W06
	.byte		        En3 , v072
	.byte	W06
	.byte		        Bn3 , v068
	.byte	W06
	.byte		        Bn3 , v064
	.byte	W06
	.byte		        Gs3 , v060
	.byte	W06
	.byte		        Gs3 , v056
	.byte	W06
	.byte		PAN   , c_v+63
	.byte		N02   , Cs4 , v052
	.byte	W06
	.byte		        Cs4 , v048
	.byte	W06
	.byte		        Gs3 , v044
	.byte	W06
	.byte		        Gs3 , v040
	.byte	W06
	.byte		        Bn3 , v036
	.byte	W06
	.byte		        Bn3 , v032
	.byte	W06
	.byte		        En3 , v028
	.byte	W06
	.byte		        En3 , v024
	.byte	W03
	.byte	W96
	.byte	W03
	.byte		VOICE , 102
	.byte		VOL   , 31*song_course_sky_mvl/mxv
	.byte		PAN   , c_v+0
	.byte		N02   , Cs3 , v064
	.byte	W06
	.byte		N02
	.byte	W06
	.byte		        Gs2 
	.byte	W06
	.byte		N02
	.byte	W06
	.byte		        Fn3 
	.byte	W06
	.byte		N02
	.byte	W06
	.byte		        Cs3 
	.byte	W06
	.byte		N02
	.byte	W06
	.byte		        Gs3 
	.byte	W06
	.byte		N02
	.byte	W06
	.byte		        Fn3 
	.byte	W06
	.byte		N02
	.byte	W06
	.byte		        Cs4 
	.byte	W06
	.byte		N02
	.byte	W06
	.byte		        Gs3 
	.byte	W06
	.byte		N02
	.byte	W03
	.byte	GOTO
	 .word	song_course_sky_7 + 0x2C
	.byte	FINE

@******************************************************@

	.align	2

song_course_sky:
	.byte	8	@ NumTrks
	.byte	0	@ NumBlks
	.byte	song_course_sky_pri	@ Priority
	.byte	song_course_sky_rev	@ Reverb

	.word	song_course_sky_grp

	.word	song_course_sky_0
	.word	song_course_sky_1
	.word	song_course_sky_2
	.word	song_course_sky_3
	.word	song_course_sky_4
	.word	song_course_sky_5
	.word	song_course_sky_6
	.word	song_course_sky_7

	.end
