@ File generated by m4a2s Song-Module
	.include "MPlayDef.s"

	.equ	song_course_rainbow_grp, bank_course_rainbow
	.equ	song_course_rainbow_pri, 0
	.equ	song_course_rainbow_rev, 148
	.equ	song_course_rainbow_mvl, 127
	.equ	song_course_rainbow_key, 0

	.section .rodata
	.global	song_course_rainbow
	.align	2

@*********************** Track 01 ***********************@

song_course_rainbow_0:
	.byte	KEYSH , song_course_rainbow_key+0
	.byte	TEMPO , 178/2
	.byte		VOICE , 61
	.byte		VOL   , 108*song_course_rainbow_mvl/mxv
	.byte		PAN   , c_v+0
	.byte		BEND  , c_v+0
	.byte		N04   , Cn4 , v112
	.byte	W06
	.byte		N06
	.byte	W18
	.byte		N24
	.byte	W36
	.byte		N36   , Cs4 
	.byte	W36
	.byte	W24
	.byte		VOICE , 80
	.byte		VOL   , 90*song_course_rainbow_mvl/mxv
	.byte		PAN   , c_v+0
	.byte		N08   , Fs3 , v100
	.byte	W72
	.byte		N12   , Gn3 , v072
	.byte	W12
	.byte		N06   , Fs3 
	.byte	W12
	.byte		N04   , Gn3 
	.byte	W12
	.byte		        An3 
	.byte	W12
	.byte		N18   , Fs3 
	.byte	W18
	.byte		N04   , Dn3 
	.byte	W18
	.byte		N06   , Fn3 
	.byte	W12
	.byte	W24
	.byte		N08   , Fn3 , v092
	.byte	W36
	.byte		N12   , En3 , v072
	.byte	W12
	.byte		N06   , Fn3 
	.byte	W12
	.byte		        Gn3 
	.byte	W12
	.byte		N18   , En3 , v072
	.byte	W18
	.byte		N06   , Dn4 
	.byte	W18
	.byte		        Cn4 
	.byte	W24
	.byte		        En3 
	.byte	W12
	.byte		N12   , Gn3 
	.byte	W12
	.byte		N06   , An3 
	.byte	W12
	.byte	PEND
	.byte	W24
	.byte		VOICE , 61
	.byte		VOL   , 90*song_course_rainbow_mvl/mxv
	.byte		PAN   , c_v+0
	.byte		N11   , Dn4 , v092
	.byte	W72
	.byte		VOICE , 80
	.byte		VOL   , 90*song_course_rainbow_mvl/mxv
	.byte		PAN   , c_v+0
	.byte		N12   , Gn3 , v072
	.byte	W12
	.byte		N06   , Fs3 
	.byte	W12
	.byte		N04   , Gn3 
	.byte	W12
	.byte		        An3 
	.byte	W12
	.byte		N18   , Fs3 
	.byte	W18
	.byte		N04   , An3 
	.byte	W18
	.byte		N06   , Bn3 
	.byte	W12
	.byte		N12   , Cn4 
	.byte	W12
	.byte		N04   , An3 
	.byte	W12
	.byte		        Gn3 
	.byte	W12
	.byte		        Fn3 
	.byte	W12
	.byte		N18   , En3 
	.byte	W18
	.byte		N06   , Cn3 
	.byte	W18
	.byte		        Dn3 
	.byte	W12
	.byte	W12
	.byte		VOICE , 61
	.byte		VOL   , 90*song_course_rainbow_mvl/mxv
	.byte		PAN   , c_v+0
	.byte		N08   , En4 , v100
	.byte	W24
	.byte		        Dn4 
	.byte	W24
	.byte		        En4 
	.byte	W24
	.byte		        Fn4 
	.byte	W12
	.byte	W24
	.byte		BEND  , c_v+0
	.byte		N14   , Fs4 
	.byte	W11
	.byte		BEND  , c_v-8
	.byte	W01
	.byte		        c_v-16
	.byte	W01
	.byte		        c_v-32
	.byte	W01
	.byte		        c_v-47
	.byte	W02
	.byte		        c_v+0
	.byte	W56
	.byte		VOICE , 80
	.byte		VOL   , 90*song_course_rainbow_mvl/mxv
	.byte		PAN   , c_v+0
	.byte		N12   , Gn3 , v072
	.byte	W12
	.byte		N06   , Fs3 
	.byte	W12
	.byte		N04   , Gn3 
	.byte	W12
	.byte		        An3 
	.byte	W12
	.byte		N18   , Fs3 
	.byte	W18
	.byte		N04   , Dn3 
	.byte	W18
	.byte		N06   , Fn3 
	.byte	W12
	.byte	W24
	.byte	W01
	.byte		N08   , Fn3 , v092
	.byte	W32
	.byte	W03
	.byte		N12   , En3 , v072
	.byte	W12
	.byte		N06   , Fn3 
	.byte	W12
	.byte		        Gn3 
	.byte	W12
	.byte	PATT
	 .word	song_course_rainbow_0 + 0x45
	.byte	W24
	.byte		N08   , Fs3 , v092
	.byte	W72
	.byte		N12   , Gn3 , v072
	.byte	W12
	.byte		N06   , Fs3 
	.byte	W12
	.byte		N04   , Gn3 
	.byte	W12
	.byte		        An3 
	.byte	W12
	.byte		N18   , Fs3 
	.byte	W18
	.byte		N06   , An3 
	.byte	W18
	.byte		        Bn3 
	.byte	W12
	.byte		N12   , Cn4 
	.byte	W12
	.byte		N06   , Dn4 
	.byte	W12
	.byte		        En4 
	.byte	W12
	.byte		        Dn4 
	.byte	W24
	.byte		N06
	.byte	W24
	.byte		N84
	.byte	W12
	.byte	W96
	.byte		N12   , Cn4 , v060
	.byte	W12
	.byte		        Dn4 
	.byte	W12
	.byte		        En4 
	.byte	W12
	.byte		N08   , Dn4 
	.byte	W24
	.byte		        En4 
	.byte	W24
	.byte		N12   , Fn4 
	.byte	W12
	.byte		N08   , Fs4 
	.byte	W12
	.byte		        Dn4 
	.byte	W12
	.byte		        Bn3 
	.byte	W12
	.byte		N36   , Dn4 
	.byte	W60
	.byte		N09   , En4 
	.byte	W24
	.byte		N12
	.byte	W12
	.byte		N08   , Dn4 
	.byte	W24
	.byte		        En4 
	.byte	W24
	.byte		N06   , Fn4 
	.byte	W12
	.byte		N48   , Fs4 
	.byte	W96
	.byte		VOICE , 81
	.byte		VOL   , 108*song_course_rainbow_mvl/mxv
	.byte		PAN   , c_v+0
	.byte		N12   , En4 , v052
	.byte	W12
	.byte		        Fs4 
	.byte	W12
	.byte		        Gn4 
	.byte	W12
	.byte		N08   , Fs4 
	.byte	W24
	.byte		        Gn4 
	.byte	W24
	.byte		N12   , Gs4 
	.byte	W12
	.byte		N08   , An4 
	.byte	W12
	.byte		        Fs4 
	.byte	W12
	.byte		        Dn4 
	.byte	W12
	.byte		N36   , An4 
	.byte	W60
	.byte		        Bn4 
	.byte	W36
	.byte		N08   , Cs5 
	.byte	W24
	.byte		        Dn5 
	.byte	W24
	.byte		        Ds5 
	.byte	W12
	.byte		N48   , En5 
	.byte	W96
	.byte	W60
	.byte		VOICE , 80
	.byte		VOL   , 90*song_course_rainbow_mvl/mxv
	.byte		PAN   , c_v+0
	.byte		N06   , An3 , v100
	.byte	W12
	.byte		N08
	.byte	W24
	.byte		N60   , Dn4 , v072
	.byte	W60
	.byte		N04   , An3 
	.byte	W12
	.byte		        Bn3 
	.byte	W12
	.byte		N72   , Cn4 
	.byte	W12
	.byte	W60
	.byte		N04   , Bn3 , v072
	.byte	W12
	.byte		        An3 
	.byte	W12
	.byte		        Gn3 
	.byte	W12
	.byte	PEND
	.byte		N12   , Fs3 
	.byte	W12
	.byte		N06   , Gn3 
	.byte	W12
	.byte		        An3 
	.byte	W12
	.byte		        Dn3 
	.byte	W24
	.byte		N10   , Dn4 
	.byte	W36
	.byte		N12   , Cn4 
	.byte	W12
	.byte		        Dn4 
	.byte	W12
	.byte		        En4 
	.byte	W12
	.byte		        Gn4 
	.byte	W12
	.byte		        Fs4 
	.byte	W12
	.byte		        En4 
	.byte	W12
	.byte		        Dn4 
	.byte	W12
	.byte		        En4 
	.byte	W12
	.byte	W24
	.byte		        Dn4 
	.byte	W07
	.byte		BEND  , c_v-1
	.byte	W01
	.byte		        c_v-2
	.byte	W01
	.byte		        c_v-4
	.byte	W01
	.byte		        c_v-7
	.byte	W01
	.byte		        c_v-13
	.byte	W01
	.byte		        c_v-25
	.byte	W01
	.byte		        c_v-50
	.byte	W01
	.byte		        c_v-63
	.byte	W09
	.byte		        c_v+0
	.byte	W01
	.byte		        c_v+0
	.byte		N14
	.byte	W12
	.byte		N06   , An3 
	.byte	W12
	.byte		        Bn3 
	.byte	W12
	.byte		N72   , Cn4 
	.byte	W12
	.byte	PATT
	 .word	song_course_rainbow_0 + 0x178
	.byte		N12   , Fs3 , v072
	.byte	W12
	.byte		        Gn3 
	.byte	W12
	.byte		        An3 
	.byte	W12
	.byte		        Dn3 
	.byte	W24
	.byte		        Dn2 
	.byte	W24
	.byte		N12
	.byte	W12
	.byte	W96
	.byte		N60   , Dn4 
	.byte	W72
	.byte		N06
	.byte	W12
	.byte		N60   , Cn4 
	.byte	W12
	.byte	W72
	.byte		N06   , Cn4 , v072
	.byte	W12
	.byte		N48   , Bn3 
	.byte	W12
	.byte	PEND
	.byte	W48
	.byte		N12   , Bn3 , v072
	.byte	W12
	.byte		N06   , Cn4 
	.byte	W12
	.byte		        Bn3 
	.byte	W12
	.byte		        An3 
	.byte	W12
	.byte	PEND
	.byte	W12
	.byte		PAN   , c_v+20
	.byte		N12   , Fs2 , v092
	.byte	W24
	.byte		        Gn2 
	.byte	W24
	.byte		        Gs2 
	.byte	W24
	.byte		N06   , An2 
	.byte	W12
	.byte	W24
	.byte		PAN   , c_v+0
	.byte		N12   , Dn4 , v072
	.byte	W48
	.byte		N06
	.byte	W12
	.byte		N60   , Cn4 
	.byte	W12
	.byte	PATT
	 .word	song_course_rainbow_0 + 0x1DD
	.byte	PATT
	 .word	song_course_rainbow_0 + 0x1E6
	.byte	W96
	.byte	W96
	.byte	W96
	.byte	W24
	.byte		VOICE , 80
	.byte		VOL   , 90*song_course_rainbow_mvl/mxv
	.byte		PAN   , c_v+0
	.byte		N06   , Fs3 , v072
	.byte	W24
	.byte		        An3 
	.byte	W24
	.byte		        Dn4 
	.byte	W24
	.byte		VOICE , 81
	.byte		VOL   , 108*song_course_rainbow_mvl/mxv
	.byte		PAN   , c_v+0
	.byte		N10   , An4 , v060
	.byte	W12
	.byte		        Fs4 
	.byte	W12
	.byte		        Dn4 
	.byte	W12
	.byte		        Dn5 
	.byte	W24
	.byte		N32
	.byte	W36
	.byte	PEND
	.byte	W24
	.byte		VOICE , 80
	.byte		VOL   , 90*song_course_rainbow_mvl/mxv
	.byte		PAN   , c_v+0
	.byte		N06   , Dn3 , v072
	.byte	W24
	.byte		        Fs3 
	.byte	W24
	.byte		        An3 
	.byte	W24
	.byte		VOICE , 81
	.byte		VOL   , 108*song_course_rainbow_mvl/mxv
	.byte		PAN   , c_v+0
	.byte		N10   , An4 , v060
	.byte	W12
	.byte		        Fs4 
	.byte	W12
	.byte		        Dn4 
	.byte	W12
	.byte		        En5 
	.byte	W24
	.byte		N32   , Dn5 
	.byte	W36
	.byte	W24
	.byte		VOICE , 80
	.byte		VOL   , 90*song_course_rainbow_mvl/mxv
	.byte		PAN   , c_v+0
	.byte		N06   , Dn3 , v072
	.byte	W24
	.byte		        Fs3 
	.byte	W24
	.byte		        Gn3 
	.byte	W24
	.byte	PEND
	.byte		VOICE , 81
	.byte		VOL   , 108*song_course_rainbow_mvl/mxv
	.byte		PAN   , c_v+0
	.byte		N10   , Dn5 , v060
	.byte	W12
	.byte		        Bn4 
	.byte	W12
	.byte		        Gn4 
	.byte	W12
	.byte		        Gn5 
	.byte	W24
	.byte		N24
	.byte	W36
	.byte	PATT
	 .word	song_course_rainbow_0 + 0x25E
	.byte		VOICE , 81
	.byte		VOL   , 108*song_course_rainbow_mvl/mxv
	.byte		PAN   , c_v+0
	.byte		N10   , As4 , v060
	.byte	W12
	.byte		        An4 
	.byte	W12
	.byte		        Gn4 
	.byte	W12
	.byte		        Dn5 
	.byte	W12
	.byte		        Fn5 
	.byte	W12
	.byte		        En5 
	.byte	W12
	.byte		        Dn5 
	.byte	W12
	.byte		        Dn4 
	.byte	W12
	.byte	W24
	.byte		VOICE , 80
	.byte		VOL   , 90*song_course_rainbow_mvl/mxv
	.byte		PAN   , c_v+0
	.byte		N08   , Fs3 , v072
	.byte	W24
	.byte		        An3 
	.byte	W24
	.byte		        Dn4 
	.byte	W24
	.byte	PATT
	 .word	song_course_rainbow_0 + 0x229
	.byte	W24
	.byte		VOICE , 80
	.byte		VOL   , 90*song_course_rainbow_mvl/mxv
	.byte		PAN   , c_v+0
	.byte		N08   , Dn3 , v072
	.byte	W24
	.byte		        Fs3 
	.byte	W24
	.byte		        An3 
	.byte	W24
	.byte		VOICE , 81
	.byte		VOL   , 108*song_course_rainbow_mvl/mxv
	.byte		PAN   , c_v+0
	.byte		N10   , An4 , v060
	.byte	W12
	.byte		        Fs4 
	.byte	W12
	.byte		        Dn4 
	.byte	W12
	.byte		        En5 
	.byte	W24
	.byte		N12   , Dn5 
	.byte	W24
	.byte		N06   , Dn4 , v072
	.byte	W12
	.byte		N10   , Bn4 
	.byte	W12
	.byte		        An4 
	.byte	W12
	.byte		        Gn4 
	.byte	W12
	.byte		        Dn4 
	.byte	W12
	.byte		        Bn3 
	.byte	W12
	.byte		        An3 
	.byte	W12
	.byte		        Gn3 
	.byte	W12
	.byte		        Dn3 
	.byte	W12
	.byte		        Bn2 
	.byte	W12
	.byte		        Gn2 
	.byte	W12
	.byte		        Bn2 
	.byte	W12
	.byte		        Dn3 
	.byte	W12
	.byte		        Fs3 
	.byte	W12
	.byte		N09   , Gn3 
	.byte	W12
	.byte		        Bn3 
	.byte	W12
	.byte		        Dn4 
	.byte	W12
	.byte		        As4 
	.byte	W12
	.byte		        An4 
	.byte	W12
	.byte		        Gn4 
	.byte	W12
	.byte		        Dn5 
	.byte	W12
	.byte		        Fn5 
	.byte	W12
	.byte		        En5 
	.byte	W12
	.byte		        Dn5 
	.byte	W12
	.byte		        Dn4 
	.byte	W12
	.byte	GOTO
	 .word	song_course_rainbow_0 + 0x2
	.byte	FINE

@*********************** Track 02 ***********************@

song_course_rainbow_1:
	.byte	KEYSH , song_course_rainbow_key+0
	.byte	W96
	.byte	W96
	.byte	W96
	.byte	W96
	.byte	W96
	.byte	W96
	.byte	W96
	.byte	W96
	.byte	W96
	.byte	W96
	.byte	W96
	.byte	W96
	.byte	W96
	.byte	W96
	.byte	W96
	.byte	W96
	.byte	W96
	.byte	W96
	.byte	W96
	.byte	W96
	.byte	W96
	.byte	W96
	.byte	W96
	.byte	W96
	.byte	W96
	.byte	W96
	.byte	W96
	.byte	W96
	.byte	W96
	.byte	W96
	.byte	W96
	.byte	W96
	.byte	W96
	.byte	W96
	.byte	W96
	.byte	W96
	.byte	W96
	.byte	W96
	.byte	W96
	.byte	W96
	.byte	W96
	.byte	W96
	.byte	W96
	.byte	W96
	.byte	W08
	.byte		VOICE , 80
	.byte		VOL   , 54*song_course_rainbow_mvl/mxv
	.byte		PAN   , c_v+20
	.byte	W24
	.byte		N08   , Fs3 , v072
	.byte	W08
	.byte		        Fs3 , v032
	.byte	W08
	.byte		        Fs3 , v008
	.byte	W08
	.byte		        An3 , v072
	.byte	W08
	.byte		        An3 , v032
	.byte	W08
	.byte		        An3 , v008
	.byte	W08
	.byte		        Dn4 , v072
	.byte	W08
	.byte		        Dn4 , v032
	.byte	W08
	.byte		        Dn4 , v008
	.byte	W96
	.byte	W32
	.byte		N08   , Dn3 , v072
	.byte	W08
	.byte		        Dn3 , v032
	.byte	W08
	.byte		        Dn3 , v008
	.byte	W08
	.byte		        Fs3 , v072
	.byte	W08
	.byte		        Fs3 , v032
	.byte	W08
	.byte		        Fs3 , v008
	.byte	W08
	.byte		        An3 , v072
	.byte	W08
	.byte		        An3 , v032
	.byte	W08
	.byte	PEND
	.byte		        An3 , v008
	.byte	W96
	.byte	W32
	.byte		N08   , Dn3 , v072
	.byte	W08
	.byte		        Dn3 , v032
	.byte	W08
	.byte		        Dn3 , v008
	.byte	W08
	.byte		        Fs3 , v072
	.byte	W08
	.byte		        Fs3 , v032
	.byte	W08
	.byte		        Fs3 , v008
	.byte	W08
	.byte		        Gn3 , v072
	.byte	W08
	.byte		        Gn3 , v032
	.byte	W08
	.byte	PEND
	.byte		        Gn3 , v008
	.byte	W96
	.byte	PATT
	 .word	song_course_rainbow_1 + 0x70
	.byte		N08   , Gn3 , v008
	.byte	W96
	.byte	W32
	.byte		        Fs3 , v072
	.byte	W08
	.byte		        Fs3 , v032
	.byte	W08
	.byte		        Fs3 , v008
	.byte	W08
	.byte		        An3 , v072
	.byte	W08
	.byte		        An3 , v032
	.byte	W08
	.byte		        An3 , v008
	.byte	W08
	.byte		        Dn4 , v072
	.byte	W08
	.byte		        Dn4 , v032
	.byte	W08
	.byte	W96
	.byte	PATT
	 .word	song_course_rainbow_1 + 0x52
	.byte	W96
	.byte	W96
	.byte	W96
	.byte	W96
	.byte	GOTO
	 .word	song_course_rainbow_1 + 0x2
	.byte	FINE

@*********************** Track 03 ***********************@

song_course_rainbow_2:
	.byte	KEYSH , song_course_rainbow_key+0
	.byte		VOICE , 33
	.byte		VOL   , 115*song_course_rainbow_mvl/mxv
	.byte		PAN   , c_v+0
	.byte		BENDR , 4
	.byte		BEND  , c_v+0
	.byte		N03   , An1 , v104
	.byte	W06
	.byte		N06
	.byte	W18
	.byte		N24
	.byte	W36
	.byte		N36   , Cs1 
	.byte	W36
	.byte		N06   , Dn1 , v084
	.byte	W24
	.byte		N12   , Dn2 , v076
	.byte	W12
	.byte		N06   , Dn1 , v084
	.byte	W24
	.byte		N06
	.byte	W12
	.byte		N12   , Dn2 , v076
	.byte	W12
	.byte		N06   , Dn1 , v084
	.byte	W12
	.byte	PEND
	.byte	PATT
	 .word	song_course_rainbow_2 + 0x17
	.byte		N06   , Cn1 , v084
	.byte	W24
	.byte		N12   , Cn2 , v076
	.byte	W12
	.byte		N06   , Cn1 , v084
	.byte	W24
	.byte		N06
	.byte	W12
	.byte		N12   , Cn2 , v076
	.byte	W12
	.byte		N06   , Cn1 , v084
	.byte	W12
	.byte	PEND
	.byte		N06
	.byte	W24
	.byte		N12   , Cn2 , v076
	.byte	W12
	.byte		N06   , Cn1 , v084
	.byte	W24
	.byte		        Cn1 , v096
	.byte	W12
	.byte		N12   , Cs1 
	.byte	W12
	.byte		N06   , Dn1 
	.byte	W12
	.byte	W24
	.byte		N12   , Dn2 , v076
	.byte	W12
	.byte		N08   , Dn1 , v084
	.byte	W24
	.byte		N06
	.byte	W12
	.byte		N12   , Dn2 , v076
	.byte	W12
	.byte		N06   , Dn1 , v084
	.byte	W12
	.byte	PEND
	.byte	PATT
	 .word	song_course_rainbow_2 + 0x17
	.byte	PATT
	 .word	song_course_rainbow_2 + 0x33
	.byte	W12
	.byte		N12   , En1 , v104
	.byte	W12
	.byte		        Fn1 
	.byte	W12
	.byte		        Fs1 
	.byte	W12
	.byte		        Gn1 
	.byte	W12
	.byte		        En1 
	.byte	W12
	.byte		        Cn1 
	.byte	W12
	.byte		        Dn1 
	.byte	W12
	.byte	W24
	.byte		        Dn2 , v076
	.byte	W12
	.byte		N08   , Dn1 , v084
	.byte	W24
	.byte		N12
	.byte	W12
	.byte		        Dn2 , v076
	.byte	W12
	.byte		N06   , Dn1 , v084
	.byte	W12
	.byte	PATT
	 .word	song_course_rainbow_2 + 0x17
	.byte	PATT
	 .word	song_course_rainbow_2 + 0x33
	.byte		N06   , Cn1 , v084
	.byte	W24
	.byte		N12   , Cn2 , v076
	.byte	W12
	.byte		N06   , Cn1 , v084
	.byte	W24
	.byte		N24   , Cn1 , v096
	.byte	W24
	.byte		N06   , Cs1 
	.byte	W12
	.byte	PATT
	 .word	song_course_rainbow_2 + 0x5D
	.byte	PATT
	 .word	song_course_rainbow_2 + 0x17
	.byte		N24   , Gn1 , v084
	.byte	W36
	.byte		N10
	.byte	W24
	.byte		N10
	.byte	W24
	.byte		N12   , Dn1 
	.byte	W12
	.byte	W12
	.byte		        Dn1 , v104
	.byte	W12
	.byte		        En1 
	.byte	W12
	.byte		        Fn1 
	.byte	W12
	.byte		        Fs1 
	.byte	W12
	.byte		        An1 
	.byte	W12
	.byte		        Bn1 
	.byte	W12
	.byte		        Dn2 
	.byte	W12
	.byte		N11   , Cn1 , v096
	.byte	W12
	.byte		N11
	.byte	W12
	.byte		N11
	.byte	W12
	.byte		N11
	.byte	W12
	.byte		N11
	.byte	W12
	.byte		N11
	.byte	W12
	.byte		N11
	.byte	W12
	.byte		N11
	.byte	W12
	.byte	PEND
	.byte		N11   , Dn1 , v096
	.byte	W12
	.byte		N11
	.byte	W12
	.byte		N11
	.byte	W12
	.byte		N11
	.byte	W12
	.byte		        Gn1 
	.byte	W12
	.byte		        Fs1 
	.byte	W12
	.byte		        En1 
	.byte	W12
	.byte		        Dn1 
	.byte	W12
	.byte	PEND
	.byte	PATT
	 .word	song_course_rainbow_2 + 0xDF
	.byte		N12   , Dn1 , v096
	.byte	W24
	.byte		N18   , Dn2 
	.byte	W18
	.byte		N05   , Dn1 
	.byte	W06
	.byte		N06   , An1 
	.byte	W06
	.byte		        Bn1 
	.byte	W06
	.byte		        Dn2 
	.byte	W12
	.byte		N12
	.byte	W12
	.byte		N20   , Cn1 
	.byte	W08
	.byte		BEND  , c_v-16
	.byte	W02
	.byte		        c_v-32
	.byte	W02
	.byte		        c_v+0
	.byte	W12
	.byte		N11
	.byte	W12
	.byte		N11
	.byte	W12
	.byte		N11
	.byte	W12
	.byte		N11
	.byte	W12
	.byte		N11
	.byte	W12
	.byte		N11
	.byte	W12
	.byte		N11
	.byte	W12
	.byte	PATT
	 .word	song_course_rainbow_2 + 0xF2
	.byte	PATT
	 .word	song_course_rainbow_2 + 0xDF
	.byte		N11   , An1 , v096
	.byte	W12
	.byte		N11
	.byte	W12
	.byte		N11
	.byte	W12
	.byte		N11
	.byte	W12
	.byte		N11
	.byte	W12
	.byte		N11
	.byte	W12
	.byte		N11
	.byte	W12
	.byte		N11
	.byte	W12
	.byte	W12
	.byte		N11
	.byte	W12
	.byte		        Bn1 
	.byte	W12
	.byte		        Cn2 
	.byte	W12
	.byte		        Cs2 
	.byte	W08
	.byte		BEND  , c_v-2
	.byte	W01
	.byte		        c_v-4
	.byte	W01
	.byte		        c_v-6
	.byte	W02
	.byte		        c_v+0
	.byte		N11   , En1 
	.byte	W12
	.byte		        An1 
	.byte	W12
	.byte		        An0 
	.byte	W12
	.byte		N07   , Dn1 , v084
	.byte	W24
	.byte		N11   , Dn2 , v088
	.byte	W12
	.byte		N10   , Dn1 , v084
	.byte	W24
	.byte		N06
	.byte	W12
	.byte		N21   , Dn1 , v104
	.byte	W12
	.byte		BEND  , c_v-1
	.byte	W01
	.byte		        c_v-2
	.byte	W01
	.byte		        c_v-4
	.byte	W01
	.byte		        c_v-7
	.byte	W01
	.byte		        c_v-13
	.byte	W01
	.byte		        c_v-25
	.byte	W01
	.byte		        c_v-50
	.byte	W01
	.byte		        c_v-63
	.byte	W04
	.byte		        c_v+0
	.byte	W01
	.byte	PEND
	.byte	PATT
	 .word	song_course_rainbow_2 + 0x169
	.byte		N07   , Dn1 , v084
	.byte	W24
	.byte		N11   , Dn2 , v088
	.byte	W12
	.byte		N10   , Dn1 , v084
	.byte	W24
	.byte		N10
	.byte	W12
	.byte		N11   , Dn2 , v088
	.byte	W12
	.byte		        Dn1 , v084
	.byte	W12
	.byte		        Cn1 
	.byte	W12
	.byte		        Dn1 
	.byte	W12
	.byte		        En1 
	.byte	W12
	.byte		        Gn1 
	.byte	W12
	.byte		        Fs1 
	.byte	W12
	.byte		        En1 
	.byte	W12
	.byte		        Dn1 
	.byte	W12
	.byte		        En1 
	.byte	W12
	.byte	PATT
	 .word	song_course_rainbow_2 + 0x169
	.byte	PATT
	 .word	song_course_rainbow_2 + 0x169
	.byte		N13   , Fs1 , v084
	.byte	W12
	.byte		N16   , Gn1 
	.byte	W12
	.byte		N17   , An1 
	.byte	W12
	.byte		N09   , Dn1 
	.byte	W24
	.byte		N10
	.byte	W24
	.byte		N10
	.byte	W12
	.byte	W96
	.byte		N11   , Dn1 , v084
	.byte	W12
	.byte		N11
	.byte	W12
	.byte		N11
	.byte	W12
	.byte		N11
	.byte	W12
	.byte		N11
	.byte	W12
	.byte		N11
	.byte	W12
	.byte		N11
	.byte	W12
	.byte		N11
	.byte	W12
	.byte	PEND
	.byte	PATT
	 .word	song_course_rainbow_2 + 0x1D5
	.byte	PATT
	 .word	song_course_rainbow_2 + 0x1D5
	.byte	W12
	.byte		N15   , Fs1 , v084
	.byte	W24
	.byte		        Gn1 
	.byte	W24
	.byte		N13   , Gs1 
	.byte	W24
	.byte		N10   , An1 
	.byte	W12
	.byte	PATT
	 .word	song_course_rainbow_2 + 0x1D5
	.byte	PATT
	 .word	song_course_rainbow_2 + 0x1D5
	.byte	PATT
	 .word	song_course_rainbow_2 + 0x1D5
	.byte	W12
	.byte		N11   , Cn2 , v084
	.byte	W12
	.byte		        Bn1 
	.byte	W12
	.byte		        An1 
	.byte	W12
	.byte		        Gn1 
	.byte	W12
	.byte		        An0 , v096
	.byte	W12
	.byte		        Bn0 
	.byte	W12
	.byte		N72   , Cn1 
	.byte	W12
	.byte	W24
	.byte		VOL   , 63*song_course_rainbow_mvl/mxv
	.byte	W24
	.byte		        36*song_course_rainbow_mvl/mxv
	.byte	W48
	.byte	W12
	.byte		        115*song_course_rainbow_mvl/mxv
	.byte		N12
	.byte	W24
	.byte		N22
	.byte	W24
	.byte		N06   , En1 , v084
	.byte	W12
	.byte		        An1 
	.byte	W12
	.byte		        Cn1 
	.byte	W12
	.byte		N24   , Dn1 , v096
	.byte	W96
	.byte		VOICE , 81
	.byte		VOL   , 99*song_course_rainbow_mvl/mxv
	.byte		PAN   , c_v-20
	.byte		N10   , Fs4 , v060
	.byte	W12
	.byte		        Dn4 
	.byte	W12
	.byte		        An3 
	.byte	W12
	.byte		        Fs4 
	.byte	W24
	.byte		N32
	.byte	W36
	.byte	W96
	.byte		N10
	.byte	W12
	.byte		        Dn4 
	.byte	W12
	.byte		        An3 
	.byte	W12
	.byte		        An4 
	.byte	W24
	.byte		N32   , Fs4 
	.byte	W36
	.byte	W96
	.byte		N10   , Bn4 
	.byte	W12
	.byte		        Gn4 
	.byte	W12
	.byte		        Dn4 
	.byte	W12
	.byte		        Dn5 
	.byte	W24
	.byte		N24
	.byte	W36
	.byte	W96
	.byte	W96
	.byte		VOICE , 33
	.byte		VOL   , 115*song_course_rainbow_mvl/mxv
	.byte		PAN   , c_v+0
	.byte		N11   , Dn1 , v104
	.byte	W12
	.byte		        Dn1 , v084
	.byte	W12
	.byte		N10   , Dn2 , v088
	.byte	W12
	.byte		N11   , Dn1 , v084
	.byte	W12
	.byte		        Dn1 , v092
	.byte	W12
	.byte		N10   , Dn2 , v088
	.byte	W12
	.byte		N11   , Dn1 , v084
	.byte	W12
	.byte		        Dn1 , v072
	.byte	W12
	.byte		        Dn1 , v104
	.byte	W12
	.byte		        Dn1 , v084
	.byte	W12
	.byte		N10   , Dn2 , v088
	.byte	W12
	.byte		N11   , Dn1 , v084
	.byte	W12
	.byte		        Dn1 , v092
	.byte	W12
	.byte		        Dn1 , v084
	.byte	W12
	.byte		N10   , Dn2 , v076
	.byte	W12
	.byte		N11   , Dn1 , v084
	.byte	W12
	.byte		        Cn1 , v104
	.byte	W12
	.byte		        Cn1 , v084
	.byte	W12
	.byte		N10   , Cn2 , v088
	.byte	W12
	.byte		N11   , Cn1 , v084
	.byte	W12
	.byte		        Cn1 , v092
	.byte	W12
	.byte		N10   , Cn2 , v088
	.byte	W12
	.byte		N11   , Cn1 , v084
	.byte	W12
	.byte		N11
	.byte	W12
	.byte		        Cn1 , v104
	.byte	W12
	.byte		        Cn1 , v084
	.byte	W12
	.byte		N10   , Cn2 , v088
	.byte	W12
	.byte		N11   , Cn1 , v084
	.byte	W12
	.byte		        Cn1 , v092
	.byte	W12
	.byte		        Cn1 , v084
	.byte	W12
	.byte		N11
	.byte	W12
	.byte		N11
	.byte	W12
	.byte		        Bn0 , v104
	.byte	W12
	.byte		        Bn0 , v084
	.byte	W12
	.byte		N10   , Bn1 , v092
	.byte	W12
	.byte		N11   , Bn0 , v084
	.byte	W12
	.byte		        Bn0 , v092
	.byte	W12
	.byte		N10   , Bn1 
	.byte	W12
	.byte		N11   , Bn0 , v084
	.byte	W12
	.byte		        Bn0 , v072
	.byte	W12
	.byte		        Bn0 , v104
	.byte	W12
	.byte		        Bn0 , v084
	.byte	W12
	.byte		N10   , Bn1 , v092
	.byte	W12
	.byte		N11   , Bn0 , v084
	.byte	W12
	.byte		        Bn0 , v092
	.byte	W12
	.byte		        Bn0 , v084
	.byte	W12
	.byte		N10   , Bn1 
	.byte	W12
	.byte		N11   , Bn0 
	.byte	W12
	.byte		        As0 , v104
	.byte	W12
	.byte		        As0 , v084
	.byte	W12
	.byte		N10   , As1 , v092
	.byte	W12
	.byte		N11   , As0 , v084
	.byte	W12
	.byte		        As0 , v092
	.byte	W12
	.byte		N10   , As1 
	.byte	W12
	.byte		N11   , As0 , v084
	.byte	W12
	.byte		N11
	.byte	W12
	.byte	GOTO
	 .word	song_course_rainbow_2 + 0x2
	.byte	FINE

@*********************** Track 04 ***********************@

song_course_rainbow_3:
	.byte	KEYSH , song_course_rainbow_key+0
	.byte		VOICE , 101
	.byte		VOL   , 81*song_course_rainbow_mvl/mxv
	.byte		PAN   , c_v+63
	.byte		BEND  , c_v+0
	.byte		N04   , Gn3 , v112
	.byte	W06
	.byte		N06
	.byte	W18
	.byte		N24
	.byte	W36
	.byte		N36   , Gs3 
	.byte	W36
	.byte	W24
	.byte		N11   , Dn4 
	.byte	W72
	.byte		VOICE , 121
	.byte		VOL   , 67*song_course_rainbow_mvl/mxv
	.byte		PAN   , c_v+0
	.byte		N18   , Dn3 , v072
	.byte	W24
	.byte		N04
	.byte	W24
	.byte		N15
	.byte	W18
	.byte		N04   , An2 
	.byte	W18
	.byte		N06   , Cn3 
	.byte	W12
	.byte	W24
	.byte		VOICE , 101
	.byte		VOL   , 67*song_course_rainbow_mvl/mxv
	.byte		PAN   , c_v+0
	.byte		N11   , Dn4 , v092
	.byte	W72
	.byte	W60
	.byte		N06   , En2 , v072
	.byte	W12
	.byte		N12   , Gn2 
	.byte	W12
	.byte		N06   , An2 
	.byte	W12
	.byte	W24
	.byte		N08   , Dn3 , v092
	.byte	W24
	.byte		VOICE , 110
	.byte		VOL   , 63*song_course_rainbow_mvl/mxv
	.byte		PAN   , c_v+63
	.byte		N96   , An4 , v048
	.byte	W48
	.byte	W48
	.byte		N36   , Dn5 
	.byte	W36
	.byte		TIE   , Cn5 
	.byte	W12
	.byte	W96
	.byte		EOT
	.byte		N48   , En5 , v076
	.byte	W48
	.byte		        Gn5 
	.byte	W30
	.byte		N24   , An5 
	.byte	W18
	.byte	W24
	.byte		VOICE , 121
	.byte		VOL   , 67*song_course_rainbow_mvl/mxv
	.byte		PAN   , c_v+0
	.byte		N08   , Fs3 , v100
	.byte	W72
	.byte		N18   , Dn3 , v072
	.byte	W24
	.byte		N04
	.byte	W24
	.byte		VOICE , 101
	.byte		VOL   , 67*song_course_rainbow_mvl/mxv
	.byte		PAN   , c_v+0
	.byte		N32   , Dn4 , v052
	.byte	W36
	.byte		TIE   , Cn4 
	.byte	W12
	.byte	W96
	.byte		EOT
	.byte		N48   , En4 
	.byte	W48
	.byte		N08   , Gn4 
	.byte	W12
	.byte		N06   , En4 , v072
	.byte	W12
	.byte		N12   , Gn4 
	.byte	W12
	.byte		BEND  , c_v+0
	.byte		N14   , An4 
	.byte	W11
	.byte		BEND  , c_v-8
	.byte	W01
	.byte		        c_v-16
	.byte	W01
	.byte		        c_v-32
	.byte	W01
	.byte		        c_v-47
	.byte	W12
	.byte		        c_v+0
	.byte	W10
	.byte		VOICE , 121
	.byte		VOL   , 67*song_course_rainbow_mvl/mxv
	.byte		PAN   , c_v+0
	.byte		N08   , Dn3 , v092
	.byte	W72
	.byte		N18   , Dn3 , v072
	.byte	W48
	.byte		VOICE , 101
	.byte		VOL   , 67*song_course_rainbow_mvl/mxv
	.byte		PAN   , c_v+0
	.byte		N18   , Fs2 
	.byte	W18
	.byte		N06   , An2 
	.byte	W18
	.byte		        Bn2 
	.byte	W12
	.byte		N36   , Gn3 
	.byte	W60
	.byte		N08
	.byte	W24
	.byte		N84   , An3 
	.byte	W12
	.byte	W96
	.byte		VOICE , 121
	.byte		VOL   , 67*song_course_rainbow_mvl/mxv
	.byte		PAN   , c_v+0
	.byte		N12   , En3 , v060
	.byte	W12
	.byte		        Gn3 
	.byte	W12
	.byte		        Cn4 
	.byte	W12
	.byte		N08   , Gn3 
	.byte	W24
	.byte		        Cn4 
	.byte	W24
	.byte		N12   , Cs4 
	.byte	W12
	.byte		N08   , Dn4 
	.byte	W12
	.byte		        An3 
	.byte	W12
	.byte		        Fs3 
	.byte	W12
	.byte		N36   , An3 
	.byte	W60
	.byte		N09   , Cn4 
	.byte	W24
	.byte		N12
	.byte	W12
	.byte		N08   , Gn3 
	.byte	W24
	.byte		        Cn4 
	.byte	W24
	.byte		N06   , Cs4 
	.byte	W12
	.byte		N48   , Dn4 
	.byte	W96
	.byte		N12   , Cn4 , v052
	.byte	W12
	.byte		        Dn4 
	.byte	W12
	.byte		        En4 
	.byte	W12
	.byte		N08   , Dn4 
	.byte	W24
	.byte		        En4 
	.byte	W24
	.byte		N12   , Fn4 
	.byte	W12
	.byte		N08   , Fs4 
	.byte	W12
	.byte		        Dn4 
	.byte	W12
	.byte		        An3 
	.byte	W12
	.byte		N36   , Dn4 
	.byte	W60
	.byte		        Gn4 
	.byte	W36
	.byte		N08   , An4 
	.byte	W24
	.byte		        Bn4 
	.byte	W24
	.byte		        Cn5 
	.byte	W12
	.byte		N48   , Cs5 
	.byte	W96
	.byte	W60
	.byte		VOICE , 101
	.byte		VOL   , 67*song_course_rainbow_mvl/mxv
	.byte		PAN   , c_v+0
	.byte		N06   , An4 , v100
	.byte	W12
	.byte		BEND  , c_v+0
	.byte		N14
	.byte	W11
	.byte		BEND  , c_v-8
	.byte	W01
	.byte		        c_v-16
	.byte	W01
	.byte		        c_v-32
	.byte	W01
	.byte		        c_v-47
	.byte	W03
	.byte		        c_v+0
	.byte	W07
	.byte		N60   , An3 , v072
	.byte	W60
	.byte		N04   , Fs3 , v056
	.byte	W12
	.byte		N04
	.byte	W12
	.byte		N72   , Gn3 , v072
	.byte	W12
	.byte	W60
	.byte		N04   , Gn3 , v064
	.byte	W36
	.byte	W96
	.byte		N12   , Cn3 , v076
	.byte	W12
	.byte		        Dn3 
	.byte	W12
	.byte		        En3 
	.byte	W12
	.byte		        Gn3 
	.byte	W12
	.byte		        Fs3 
	.byte	W12
	.byte		        En3 
	.byte	W12
	.byte		        Dn3 
	.byte	W12
	.byte		        En3 
	.byte	W12
	.byte	W24
	.byte		        An3 , v080
	.byte	W05
	.byte		BEND  , c_v-1
	.byte	W01
	.byte		        c_v-2
	.byte	W01
	.byte		        c_v-4
	.byte	W01
	.byte		        c_v-7
	.byte	W01
	.byte		        c_v-13
	.byte	W01
	.byte		        c_v-25
	.byte	W01
	.byte		        c_v-50
	.byte	W01
	.byte		        c_v-63
	.byte	W03
	.byte		        c_v+0
	.byte	W09
	.byte		        c_v+0
	.byte		N12
	.byte	W12
	.byte		N06   , Fs3 
	.byte	W12
	.byte		N06
	.byte	W12
	.byte		N72   , Gn3 
	.byte	W12
	.byte	W60
	.byte		N06
	.byte	W36
	.byte		N12   , Fs2 
	.byte	W12
	.byte		        Gn2 
	.byte	W12
	.byte		        An2 
	.byte	W12
	.byte		        Dn2 
	.byte	W24
	.byte		N12
	.byte	W24
	.byte		N12
	.byte	W12
	.byte	W96
	.byte		VOICE , 121
	.byte		VOL   , 54*song_course_rainbow_mvl/mxv
	.byte		PAN   , c_v+0
	.byte		N60   , An3 , v072
	.byte	W72
	.byte		N06
	.byte	W12
	.byte		N60   , Gn3 
	.byte	W12
	.byte	W72
	.byte		N06   , Gn3 , v072
	.byte	W12
	.byte		N48
	.byte	W12
	.byte	PEND
	.byte	W48
	.byte		N12
	.byte	W12
	.byte		N06   , An3 
	.byte	W12
	.byte		        Gn3 
	.byte	W12
	.byte		        Fs3 
	.byte	W12
	.byte	W96
	.byte	W24
	.byte		N12   , An3 
	.byte	W48
	.byte		N06
	.byte	W12
	.byte		N60   , Gn3 
	.byte	W12
	.byte	PATT
	 .word	song_course_rainbow_3 + 0x19E
	.byte	W48
	.byte		N18   , Gn3 , v072
	.byte	W24
	.byte		N06
	.byte	W12
	.byte		        Fs3 
	.byte	W12
	.byte	W96
	.byte	W96
	.byte	W96
	.byte	W96
	.byte	W96
	.byte		VOICE , 61
	.byte		VOL   , 90*song_course_rainbow_mvl/mxv
	.byte		PAN   , c_v+0
	.byte		TIE   , Cn3 , v060
	.byte	W96
	.byte	W44
	.byte	W02
	.byte		EOT
	.byte	W02
	.byte		N48
	.byte	W48
	.byte		TIE   , Bn2 
	.byte	W96
	.byte	W92
	.byte		EOT
	.byte	W04
	.byte		N92   , As2 
	.byte	W96
	.byte		N48   , Dn3 , v072
	.byte	W48
	.byte		        En3 
	.byte	W48
	.byte		VOICE , 101
	.byte		VOL   , 63*song_course_rainbow_mvl/mxv
	.byte		PAN   , c_v+0
	.byte		N96   , Fs3 
	.byte	W96
	.byte		N48   , An3 , v052
	.byte	W48
	.byte		        Fs3 
	.byte	W48
	.byte		N96   , Cn3 , v072
	.byte	W96
	.byte		N92   , Fs4 , v052
	.byte	W96
	.byte		VOICE , 121
	.byte		VOL   , 54*song_course_rainbow_mvl/mxv
	.byte		PAN   , c_v+0
	.byte		N06   , Gn2 , v060
	.byte	W12
	.byte		        Dn3 
	.byte	W12
	.byte		        Bn3 
	.byte	W12
	.byte		        Gn3 
	.byte	W12
	.byte		        Gn2 
	.byte	W12
	.byte		        Dn3 
	.byte	W12
	.byte		        Bn2 
	.byte	W12
	.byte		        Gn2 
	.byte	W12
	.byte	W60
	.byte		N09   , Dn3 , v072
	.byte	W12
	.byte		        Gn3 
	.byte	W12
	.byte		        Bn3 
	.byte	W12
	.byte		        Gn4 
	.byte	W12
	.byte		        Dn4 
	.byte	W12
	.byte		        As3 
	.byte	W12
	.byte		        Gn4 
	.byte	W12
	.byte		        Dn5 
	.byte	W12
	.byte		        Cn5 
	.byte	W12
	.byte		        As4 
	.byte	W12
	.byte		        As3 
	.byte	W12
	.byte	GOTO
	 .word	song_course_rainbow_3 + 0x2
	.byte	FINE

@*********************** Track 05 ***********************@

song_course_rainbow_4:
	.byte	KEYSH , song_course_rainbow_key+0
	.byte		VOICE , 102
	.byte		VOL   , 81*song_course_rainbow_mvl/mxv
	.byte		PAN   , c_v-64
	.byte		BEND  , c_v+0
	.byte		N04   , Dn3 , v112
	.byte	W06
	.byte		N06
	.byte	W18
	.byte		N24
	.byte	W36
	.byte		N36   , Ds3 
	.byte	W36
	.byte	W24
	.byte		N11   , An2 
	.byte	W72
	.byte		VOICE , 122
	.byte		VOL   , 67*song_course_rainbow_mvl/mxv
	.byte		PAN   , c_v+0
	.byte		N18   , An2 , v072
	.byte	W24
	.byte		N04
	.byte	W24
	.byte		N15
	.byte	W36
	.byte		N06   , Gn2 
	.byte	W12
	.byte	W24
	.byte		VOICE , 102
	.byte		VOL   , 67*song_course_rainbow_mvl/mxv
	.byte		PAN   , c_v+0
	.byte		N11   , Cn3 , v092
	.byte	W72
	.byte	W96
	.byte	W24
	.byte		        Fs3 
	.byte	W72
	.byte		VOICE , 122
	.byte		VOL   , 67*song_course_rainbow_mvl/mxv
	.byte		PAN   , c_v+0
	.byte		N18   , An2 , v072
	.byte	W48
	.byte		N18
	.byte	W48
	.byte	W96
	.byte	W12
	.byte		VOICE , 102
	.byte		VOL   , 67*song_course_rainbow_mvl/mxv
	.byte		PAN   , c_v+0
	.byte		N08   , Cn4 , v100
	.byte	W24
	.byte		        As3 
	.byte	W24
	.byte		        Cn4 
	.byte	W24
	.byte		        Cs4 
	.byte	W12
	.byte	W24
	.byte		BEND  , c_v+0
	.byte		N14   , Dn4 
	.byte	W11
	.byte		BEND  , c_v-8
	.byte	W01
	.byte		        c_v-16
	.byte	W01
	.byte		        c_v-32
	.byte	W01
	.byte		        c_v-47
	.byte	W02
	.byte		        c_v+0
	.byte	W56
	.byte	W48
	.byte		N32   , An3 , v052
	.byte	W36
	.byte		TIE   , Gn3 
	.byte	W12
	.byte	W96
	.byte		EOT
	.byte		N48   , Cn4 
	.byte	W48
	.byte		N08   , En4 
	.byte	W12
	.byte		N06   , En2 , v072
	.byte	W12
	.byte		N12   , Gn2 
	.byte	W12
	.byte		BEND  , c_v+0
	.byte		N14   , An2 
	.byte	W11
	.byte		BEND  , c_v-8
	.byte	W01
	.byte		        c_v-16
	.byte	W01
	.byte		        c_v-32
	.byte	W01
	.byte		        c_v-47
	.byte	W12
	.byte		        c_v+0
	.byte	W10
	.byte		VOICE , 122
	.byte		VOL   , 67*song_course_rainbow_mvl/mxv
	.byte		PAN   , c_v+0
	.byte		N08   , An2 , v092
	.byte	W72
	.byte		N18   , An2 , v072
	.byte	W48
	.byte		VOICE , 102
	.byte		VOL   , 67*song_course_rainbow_mvl/mxv
	.byte		PAN   , c_v+0
	.byte		N18   , Fs3 
	.byte	W18
	.byte		N06   , An3 
	.byte	W18
	.byte		        Bn3 
	.byte	W12
	.byte		N12   , Cn4 
	.byte	W12
	.byte		N06   , Dn4 
	.byte	W12
	.byte		        En4 
	.byte	W12
	.byte		        Dn4 
	.byte	W24
	.byte		N08
	.byte	W24
	.byte		N84
	.byte	W12
	.byte	W96
	.byte		VOICE , 106
	.byte		VOL   , 67*song_course_rainbow_mvl/mxv
	.byte		PAN   , c_v+63
	.byte		N12   , En3 , v056
	.byte	W12
	.byte		        En3 , v048
	.byte	W12
	.byte		        En3 , v060
	.byte	W12
	.byte		        En3 , v048
	.byte	W12
	.byte		        En3 , v052
	.byte	W12
	.byte		        En3 , v048
	.byte	W12
	.byte		        En3 , v060
	.byte	W12
	.byte		        En3 , v048
	.byte	W12
	.byte		        Dn3 , v056
	.byte	W12
	.byte		        Dn3 , v048
	.byte	W12
	.byte		        Dn3 , v060
	.byte	W12
	.byte		        Dn3 , v048
	.byte	W12
	.byte		        Dn3 , v052
	.byte	W12
	.byte		        Dn3 , v048
	.byte	W12
	.byte		        Dn3 , v060
	.byte	W12
	.byte		        Dn3 , v048
	.byte	W12
	.byte		N12   , En3 , v056
	.byte	W12
	.byte		        En3 , v048
	.byte	W12
	.byte		        En3 , v060
	.byte	W12
	.byte		        En3 , v048
	.byte	W12
	.byte		        En3 , v052
	.byte	W12
	.byte		        En3 , v048
	.byte	W12
	.byte		        En3 , v060
	.byte	W12
	.byte		        En3 , v048
	.byte	W12
	.byte	PEND
	.byte		        Dn3 , v056
	.byte	W12
	.byte		        Dn3 , v048
	.byte	W12
	.byte		        Dn3 , v060
	.byte	W12
	.byte		        Dn3 , v048
	.byte	W12
	.byte		        Dn3 , v052
	.byte	W12
	.byte		        Dn3 , v048
	.byte	W12
	.byte		N22   , Dn3 , v060
	.byte	W24
	.byte	PATT
	 .word	song_course_rainbow_4 + 0xF1
	.byte		N12   , An3 , v056
	.byte	W12
	.byte		        An3 , v048
	.byte	W12
	.byte		        An3 , v060
	.byte	W12
	.byte		        An3 , v048
	.byte	W12
	.byte		        An3 , v052
	.byte	W12
	.byte		        An3 , v048
	.byte	W12
	.byte		        An3 , v060
	.byte	W12
	.byte		        An3 , v048
	.byte	W12
	.byte	PATT
	 .word	song_course_rainbow_4 + 0xF1
	.byte		N12   , Cs3 , v056
	.byte	W12
	.byte		        Cs3 , v048
	.byte	W12
	.byte		        Cs3 , v060
	.byte	W12
	.byte		        Cs3 , v048
	.byte	W12
	.byte		        Cs3 , v052
	.byte	W12
	.byte		        Cs3 , v048
	.byte	W12
	.byte		        Cs3 , v060
	.byte	W12
	.byte		        Cs3 , v048
	.byte	W12
	.byte	W60
	.byte		VOICE , 102
	.byte		VOL   , 67*song_course_rainbow_mvl/mxv
	.byte		PAN   , c_v+0
	.byte		N06   , En4 , v100
	.byte	W12
	.byte		BEND  , c_v+0
	.byte		N14
	.byte	W11
	.byte		BEND  , c_v-8
	.byte	W01
	.byte		        c_v-16
	.byte	W01
	.byte		        c_v-32
	.byte	W01
	.byte		        c_v-47
	.byte	W03
	.byte		        c_v+0
	.byte	W07
	.byte		N60   , Fs3 , v072
	.byte	W60
	.byte		N04   , Dn3 , v056
	.byte	W12
	.byte		N04
	.byte	W12
	.byte		N72   , Dn3 , v072
	.byte	W12
	.byte	W60
	.byte		N04   , Dn3 , v064
	.byte	W36
	.byte	W96
	.byte	W96
	.byte	W24
	.byte		N12   , Fs3 , v080
	.byte	W05
	.byte		BEND  , c_v-1
	.byte	W01
	.byte		        c_v-2
	.byte	W01
	.byte		        c_v-4
	.byte	W01
	.byte		        c_v-7
	.byte	W01
	.byte		        c_v-13
	.byte	W01
	.byte		        c_v-25
	.byte	W01
	.byte		        c_v-50
	.byte	W01
	.byte		        c_v-63
	.byte	W03
	.byte		        c_v+0
	.byte	W09
	.byte		        c_v+0
	.byte		N12
	.byte	W12
	.byte		N06   , Dn3 
	.byte	W12
	.byte		N06
	.byte	W12
	.byte		N72
	.byte	W12
	.byte	W60
	.byte		N06
	.byte	W36
	.byte	W96
	.byte	W96
	.byte		VOICE , 122
	.byte		VOL   , 54*song_course_rainbow_mvl/mxv
	.byte		PAN   , c_v+0
	.byte		N60   , Dn3 , v072
	.byte	W72
	.byte		N06
	.byte	W12
	.byte		N60
	.byte	W12
	.byte	W72
	.byte		N06   , Dn3 , v072
	.byte	W12
	.byte		N48
	.byte	W12
	.byte	PEND
	.byte	W48
	.byte		N12
	.byte	W48
	.byte	W96
	.byte	W24
	.byte		        Fs3 
	.byte	W48
	.byte		N06   , Dn3 
	.byte	W12
	.byte		N60
	.byte	W12
	.byte	PATT
	 .word	song_course_rainbow_4 + 0x1C1
	.byte	W48
	.byte		N12   , Dn3 , v072
	.byte	W36
	.byte		N06
	.byte	W12
	.byte	W96
	.byte	W96
	.byte	W96
	.byte	W96
	.byte	W96
	.byte	W96
	.byte	W96
	.byte		VOICE , 102
	.byte		VOL   , 63*song_course_rainbow_mvl/mxv
	.byte		PAN   , c_v+0
	.byte		TIE   , Dn4 , v060
	.byte	W96
	.byte	PEND
	.byte	W92
	.byte		EOT
	.byte	W04
	.byte		N92
	.byte	W96
	.byte		N48   , As2 , v072
	.byte	W48
	.byte		        Cn3 
	.byte	W48
	.byte		N96   , Dn3 
	.byte	W96
	.byte		VOICE , 122
	.byte		VOL   , 54*song_course_rainbow_mvl/mxv
	.byte		PAN   , c_v+0
	.byte		N10   , Fs4 , v060
	.byte	W12
	.byte		        Dn4 
	.byte	W12
	.byte		        An3 
	.byte	W12
	.byte		        Fs4 
	.byte	W24
	.byte		N32
	.byte	W36
	.byte		VOICE , 102
	.byte		VOL   , 63*song_course_rainbow_mvl/mxv
	.byte		PAN   , c_v+0
	.byte		N96   , En4 , v052
	.byte	W96
	.byte	W12
	.byte		VOICE , 122
	.byte		VOL   , 54*song_course_rainbow_mvl/mxv
	.byte		PAN   , c_v+0
	.byte		N10   , Dn4 , v060
	.byte	W12
	.byte		        An3 
	.byte	W12
	.byte		        An4 
	.byte	W24
	.byte		N12   , Fs4 
	.byte	W36
	.byte	PATT
	 .word	song_course_rainbow_4 + 0x1E8
	.byte	W48
	.byte		EOT   , Dn4 
	.byte	W48
	.byte		N08   , Dn4 , v072
	.byte	W36
	.byte		N30   , Dn4 , v060
	.byte	W36
	.byte		N08   , Dn4 , v072
	.byte	W24
	.byte	GOTO
	 .word	song_course_rainbow_4 + 0x2
	.byte	FINE

@*********************** Track 06 ***********************@

song_course_rainbow_5:
	.byte	KEYSH , song_course_rainbow_key+0
	.byte	W96
	.byte	W24
	.byte		VOICE , 123
	.byte		VOL   , 67*song_course_rainbow_mvl/mxv
	.byte		PAN   , c_v+0
	.byte		N08   , Dn3 , v100
	.byte	W72
	.byte	W96
	.byte	W24
	.byte		VOICE , 124
	.byte		VOL   , 67*song_course_rainbow_mvl/mxv
	.byte		PAN   , c_v+0
	.byte		N11   , Gn3 , v092
	.byte	W72
	.byte	W96
	.byte	W24
	.byte		        An2 
	.byte	W72
	.byte		VOICE , 123
	.byte		VOL   , 67*song_course_rainbow_mvl/mxv
	.byte		PAN   , c_v+0
	.byte		N18   , Dn3 , v072
	.byte	W48
	.byte		N18
	.byte	W48
	.byte	W96
	.byte	W12
	.byte		VOICE , 101
	.byte		VOL   , 67*song_course_rainbow_mvl/mxv
	.byte		PAN   , c_v+0
	.byte		N08   , Gn3 , v100
	.byte	W24
	.byte		        Fn3 
	.byte	W24
	.byte		        Gn3 
	.byte	W24
	.byte		        Gs3 
	.byte	W12
	.byte	W24
	.byte		VOICE , 124
	.byte		VOL   , 67*song_course_rainbow_mvl/mxv
	.byte		PAN   , c_v+0
	.byte		BEND  , c_v+0
	.byte		N14   , An3 
	.byte	W11
	.byte		BEND  , c_v-8
	.byte	W01
	.byte		        c_v-16
	.byte	W01
	.byte		        c_v-32
	.byte	W01
	.byte		        c_v-47
	.byte	W02
	.byte		        c_v+0
	.byte	W56
	.byte	W48
	.byte		VOICE , 123
	.byte		VOL   , 67*song_course_rainbow_mvl/mxv
	.byte		PAN   , c_v+0
	.byte		N15   , Dn3 , v072
	.byte	W18
	.byte		N04   , An2 
	.byte	W18
	.byte		N06   , Cn3 
	.byte	W12
	.byte	W24
	.byte	W01
	.byte		N08   , Cn3 , v092
	.byte	W68
	.byte	W03
	.byte	W60
	.byte		N06   , En3 , v072
	.byte	W12
	.byte		N12   , Gn3 
	.byte	W12
	.byte		N06   , An3 
	.byte	W12
	.byte	W96
	.byte	W48
	.byte		N18   , An2 
	.byte	W48
	.byte		N12   , En3 
	.byte	W12
	.byte		N06   , Gn3 
	.byte	W12
	.byte		        Cn4 
	.byte	W12
	.byte		        Gn3 
	.byte	W24
	.byte		VOICE , 124
	.byte		VOL   , 67*song_course_rainbow_mvl/mxv
	.byte		PAN   , c_v+0
	.byte		N08   , Dn3 
	.byte	W24
	.byte		N84   , Fs3 
	.byte	W12
	.byte	W96
	.byte		VOICE , 124
	.byte		VOL   , 57*song_course_rainbow_mvl/mxv
	.byte		PAN   , c_v-64
	.byte		N11   , Gn2 , v064
	.byte	W12
	.byte		        Gn2 , v056
	.byte	W12
	.byte		        Gn2 , v068
	.byte	W12
	.byte		        Gn2 , v056
	.byte	W12
	.byte		        Gn2 , v060
	.byte	W12
	.byte		        Gn2 , v056
	.byte	W12
	.byte		        Gn2 , v068
	.byte	W12
	.byte		        Gn2 , v056
	.byte	W12
	.byte		N11   , An2 , v064
	.byte	W12
	.byte		        An2 , v056
	.byte	W12
	.byte		        An2 , v068
	.byte	W12
	.byte		        An2 , v056
	.byte	W12
	.byte		        An2 , v060
	.byte	W12
	.byte		        An2 , v056
	.byte	W12
	.byte		        An2 , v068
	.byte	W12
	.byte		        An2 , v056
	.byte	W12
	.byte	PEND
	.byte		N11   , Gn2 , v064
	.byte	W12
	.byte		        Gn2 , v056
	.byte	W12
	.byte		        Gn2 , v068
	.byte	W12
	.byte		        Gn2 , v056
	.byte	W12
	.byte		        Gn2 , v060
	.byte	W12
	.byte		        Gn2 , v056
	.byte	W12
	.byte		        Gn2 , v068
	.byte	W12
	.byte		        Gn2 , v056
	.byte	W12
	.byte	PEND
	.byte		        An2 , v064
	.byte	W12
	.byte		        An2 , v056
	.byte	W12
	.byte		        An2 , v068
	.byte	W12
	.byte		        An2 , v056
	.byte	W12
	.byte		        An2 , v060
	.byte	W12
	.byte		        An2 , v056
	.byte	W12
	.byte		N21   , An2 , v068
	.byte	W24
	.byte		N11   , Gn3 , v064
	.byte	W12
	.byte		        Gn3 , v056
	.byte	W12
	.byte		        Gn3 , v068
	.byte	W12
	.byte		        Gn3 , v056
	.byte	W12
	.byte		        Gn3 , v060
	.byte	W12
	.byte		        Gn3 , v056
	.byte	W12
	.byte		        Gn3 , v068
	.byte	W12
	.byte		        Gn3 , v056
	.byte	W12
	.byte		        Dn3 , v064
	.byte	W12
	.byte		        Dn3 , v056
	.byte	W12
	.byte		        Dn3 , v068
	.byte	W12
	.byte		        Dn3 , v056
	.byte	W12
	.byte		        Dn3 , v060
	.byte	W12
	.byte		        Dn3 , v056
	.byte	W12
	.byte		        Dn3 , v068
	.byte	W12
	.byte		        Dn3 , v056
	.byte	W12
	.byte	PATT
	 .word	song_course_rainbow_5 + 0xCB
	.byte	PATT
	 .word	song_course_rainbow_5 + 0xB1
	.byte	W96
	.byte		VOICE , 124
	.byte		VOL   , 90*song_course_rainbow_mvl/mxv
	.byte		PAN   , c_v+0
	.byte		N60   , Dn3 , v072
	.byte	W96
	.byte	W96
	.byte	W96
	.byte	W96
	.byte	W24
	.byte		N12   , Dn3 , v080
	.byte	W05
	.byte		BEND  , c_v-1
	.byte	W01
	.byte		        c_v-2
	.byte	W01
	.byte		        c_v-4
	.byte	W01
	.byte		        c_v-7
	.byte	W01
	.byte		        c_v-13
	.byte	W01
	.byte		        c_v-25
	.byte	W01
	.byte		        c_v-50
	.byte	W01
	.byte		        c_v-63
	.byte	W03
	.byte		        c_v+0
	.byte	W09
	.byte		        c_v+0
	.byte	W48
	.byte	W96
	.byte	W96
	.byte	W96
	.byte	W96
	.byte	W96
	.byte	W96
	.byte	W96
	.byte	W96
	.byte	W96
	.byte	W96
	.byte	W96
	.byte	W96
	.byte	W96
	.byte	W36
	.byte	W01
	.byte		VOICE , 121
	.byte		VOL   , 40*song_course_rainbow_mvl/mxv
	.byte		PAN   , c_v-64
	.byte		N08   , Fs3 , v072
	.byte	W08
	.byte		        Fs3 , v032
	.byte	W08
	.byte		        Fs3 , v008
	.byte	W08
	.byte		        An3 , v072
	.byte	W08
	.byte		        An3 , v032
	.byte	W08
	.byte		        An3 , v008
	.byte	W08
	.byte		        Dn4 , v072
	.byte	W08
	.byte		        Dn4 , v032
	.byte	W03
	.byte	W05
	.byte		        Dn4 , v008
	.byte	W90
	.byte	W01
	.byte	W36
	.byte	W01
	.byte		        Dn3 , v072
	.byte	W08
	.byte		        Dn3 , v032
	.byte	W08
	.byte		        Dn3 , v008
	.byte	W08
	.byte		        Fs3 , v072
	.byte	W08
	.byte		        Fs3 , v032
	.byte	W08
	.byte		        Fs3 , v008
	.byte	W08
	.byte		        An3 , v072
	.byte	W08
	.byte		        An3 , v032
	.byte	W03
	.byte	W05
	.byte		        An3 , v008
	.byte	W90
	.byte	W01
	.byte	W36
	.byte	W01
	.byte		N08   , Dn3 , v072
	.byte	W08
	.byte		        Dn3 , v032
	.byte	W08
	.byte		        Dn3 , v008
	.byte	W08
	.byte		        Fs3 , v072
	.byte	W08
	.byte		        Fs3 , v032
	.byte	W08
	.byte		        Fs3 , v008
	.byte	W08
	.byte		        Gn3 , v072
	.byte	W08
	.byte		        Gn3 , v032
	.byte	W03
	.byte	PEND
	.byte	W05
	.byte		N08   , Gn3 , v008
	.byte	W90
	.byte	W01
	.byte	PEND
	.byte	PATT
	 .word	song_course_rainbow_5 + 0x1B0
	.byte	PATT
	 .word	song_course_rainbow_5 + 0x1CC
	.byte	W96
	.byte		VOICE , 125
	.byte		VOL   , 115*song_course_rainbow_mvl/mxv
	.byte		PAN   , c_v-64
	.byte		N48   , Fs3 , v052
	.byte	W48
	.byte		        Dn3 
	.byte	W48
	.byte	W96
	.byte		N92   , An3 
	.byte	W96
	.byte		TIE   , Gn3 , v060
	.byte	W96
	.byte	W48
	.byte		EOT
	.byte	W48
	.byte		N08   , Fn3 
	.byte	W36
	.byte		N30
	.byte	W36
	.byte		N08
	.byte	W24
	.byte	GOTO
	 .word	song_course_rainbow_5 + 0x2
	.byte	FINE

@*********************** Track 07 ***********************@

song_course_rainbow_6:
	.byte	KEYSH , song_course_rainbow_key+0
	.byte		VOICE , 127
	.byte		VOL   , 90*song_course_rainbow_mvl/mxv
	.byte		PAN   , c_v+0
	.byte		N12   , Cn1 , v127
	.byte	W24
	.byte		        En1 , v100
	.byte	W24
	.byte		N06   , An1 
	.byte	W06
	.byte		N06
	.byte	W06
	.byte		N12   , An1 , v108
	.byte	W12
	.byte		        Fn1 , v100
	.byte	W12
	.byte		N12
	.byte	W12
	.byte		N12   , Cn1 , v120
	.byte	W12
	.byte		N02   , Cn6 , v060
	.byte	W12
	.byte		N12   , En1 , v112
	.byte		N02   , Cn6 , v072
	.byte	W12
	.byte		        Cn6 , v060
	.byte	W12
	.byte		N12   , Cn1 , v112
	.byte		N02   , Cn6 , v072
	.byte	W12
	.byte		N12   , Cn1 , v100
	.byte		N02   , Cn6 , v060
	.byte	W12
	.byte		N12   , En1 , v112
	.byte		N02   , Cn6 , v072
	.byte	W12
	.byte		        Cn6 , v060
	.byte	W12
	.byte	PEND
	.byte		N12   , Cn1 , v120
	.byte		N02   , Cn6 , v060
	.byte	W12
	.byte		N02
	.byte	W12
	.byte		N12   , En1 , v112
	.byte		N02   , Cn6 , v080
	.byte	W12
	.byte		        Cn6 , v060
	.byte	W12
	.byte		        Cn6 , v072
	.byte	W12
	.byte		N12   , Cn1 , v100
	.byte		N02   , Cn6 , v060
	.byte	W12
	.byte		N12   , En1 , v112
	.byte		N02   , Cn6 , v072
	.byte	W12
	.byte		N06   , As1 , v080
	.byte	W12
	.byte	PEND
	.byte		N12   , Cn1 , v100
	.byte	W12
	.byte		N02   , Cn6 , v060
	.byte	W12
	.byte		N12   , En1 , v112
	.byte		N02   , Cn6 , v072
	.byte	W12
	.byte		N12   , Cn1 , v112
	.byte		N02   , Cn6 , v060
	.byte	W12
	.byte		        Cn6 , v072
	.byte	W12
	.byte		N12   , Cn1 , v100
	.byte		N02   , Cn6 , v060
	.byte	W12
	.byte		N12   , En1 , v112
	.byte		N02   , Cn6 , v072
	.byte	W12
	.byte		N12   , Cn1 , v112
	.byte		N02   , Cn6 , v060
	.byte	W12
	.byte	PEND
	.byte		N02   , Cn6 , v060
	.byte	W12
	.byte		N12   , Cn1 , v120
	.byte		N02   , Cn6 , v060
	.byte	W12
	.byte		N12   , En1 , v112
	.byte		N02   , Cn6 , v080
	.byte	W12
	.byte		        Cn6 , v060
	.byte	W12
	.byte		        Cn6 , v072
	.byte	W12
	.byte		N12   , Cn1 , v100
	.byte		N02   , Cn6 , v060
	.byte	W12
	.byte		N12   , En1 , v112
	.byte		N02   , Cn6 , v072
	.byte	W12
	.byte		N06   , As1 , v080
	.byte	W12
	.byte	PEND
	.byte		N12   , Cn1 , v120
	.byte	W12
	.byte		N02   , Cn6 , v060
	.byte	W12
	.byte		N12   , En1 , v112
	.byte		N02   , Cn6 , v072
	.byte	W12
	.byte		N12   , Cn1 , v112
	.byte		N02   , Cn6 , v060
	.byte	W12
	.byte		        Cn6 , v072
	.byte	W12
	.byte		N12   , Cn1 , v100
	.byte		N02   , Cn6 , v060
	.byte	W12
	.byte		N12   , En1 , v112
	.byte		N02   , Cn6 , v072
	.byte	W12
	.byte		        Cn6 , v060
	.byte	W12
	.byte	PEND
	.byte	PATT
	 .word	song_course_rainbow_6 + 0x48
	.byte	PATT
	 .word	song_course_rainbow_6 + 0xA0
	.byte		N12   , Cn1 , v120
	.byte		N02   , Cn6 , v060
	.byte	W12
	.byte		N12   , Cn1 , v120
	.byte		N02   , Cn6 , v060
	.byte	W12
	.byte		N12   , En1 , v112
	.byte		N02   , Cn6 , v080
	.byte	W12
	.byte		        Cn6 , v060
	.byte	W12
	.byte		N06   , An1 , v116
	.byte		N02   , Cn6 , v072
	.byte	W06
	.byte		N06   , Fn1 , v100
	.byte	W06
	.byte		N12   , Fn1 , v120
	.byte		N02   , Cn6 , v060
	.byte	W12
	.byte		N12   , Cn1 , v120
	.byte		N02   , Cn6 , v072
	.byte	W12
	.byte		N12   , En1 , v112
	.byte		N02   , Cn6 , v060
	.byte	W12
	.byte	PEND
	.byte	PATT
	 .word	song_course_rainbow_6 + 0x1D
	.byte	PATT
	 .word	song_course_rainbow_6 + 0x48
	.byte	PATT
	 .word	song_course_rainbow_6 + 0x71
	.byte	PATT
	 .word	song_course_rainbow_6 + 0xA0
	.byte	PATT
	 .word	song_course_rainbow_6 + 0xCB
	.byte	PATT
	 .word	song_course_rainbow_6 + 0x48
	.byte		N12   , Cn1 , v120
	.byte		N02   , Cn6 , v060
	.byte	W12
	.byte		N02
	.byte	W12
	.byte		N12   , En1 , v112
	.byte		N02   , Cn6 , v080
	.byte	W12
	.byte		N12   , En1 , v112
	.byte		N02   , Cn6 , v060
	.byte	W12
	.byte		N12   , Cn1 , v100
	.byte		N02   , Cn6 , v072
	.byte	W12
	.byte		N12   , En1 , v112
	.byte		N02   , Cn6 , v060
	.byte	W12
	.byte		        Cn6 , v072
	.byte	W12
	.byte		N12   , En1 , v112
	.byte		N06   , As1 , v080
	.byte	W12
	.byte	PATT
	 .word	song_course_rainbow_6 + 0x100
	.byte		N12   , Cn1 , v127
	.byte	W12
	.byte		N02   , Cn6 , v060
	.byte	W12
	.byte		N12   , En1 , v127
	.byte		N02   , Cn6 , v100
	.byte	W12
	.byte		        Cn6 , v060
	.byte	W12
	.byte		N12   , Cn1 , v127
	.byte	W12
	.byte		N02   , Cn6 , v060
	.byte	W12
	.byte		N12   , En1 , v127
	.byte		N02   , Cn6 , v060
	.byte	W12
	.byte		N02
	.byte	W12
	.byte	PEND
	.byte	PATT
	 .word	song_course_rainbow_6 + 0x18B
	.byte	PATT
	 .word	song_course_rainbow_6 + 0x18B
	.byte	PATT
	 .word	song_course_rainbow_6 + 0x100
	.byte	PATT
	 .word	song_course_rainbow_6 + 0x18B
	.byte		N12   , Cn1 , v127
	.byte	W12
	.byte		N02   , Cn6 , v060
	.byte	W12
	.byte		N12   , En1 , v127
	.byte		N02   , Cn6 , v100
	.byte	W12
	.byte		        Cn6 , v060
	.byte	W12
	.byte		N12   , Cn1 , v127
	.byte	W12
	.byte		        En1 
	.byte	W12
	.byte		N02   , Cn6 , v060
	.byte	W12
	.byte		N12   , An1 , v116
	.byte	W12
	.byte		        Cn1 , v127
	.byte	W12
	.byte		N02   , Cn6 , v060
	.byte	W12
	.byte		N12   , En1 , v127
	.byte		N02   , Cn6 , v060
	.byte	W12
	.byte		N02
	.byte	W12
	.byte		N12   , Cn1 , v127
	.byte	W12
	.byte		N02   , Cn6 , v060
	.byte	W12
	.byte		N12   , En1 , v127
	.byte		N02   , Cn6 , v100
	.byte	W12
	.byte		N12   , Cn1 , v127
	.byte		N02   , Cn6 , v060
	.byte	W12
	.byte		N12   , Cn1 , v127
	.byte	W12
	.byte		        En1 
	.byte	W11
	.byte		N02   , Cn6 , v080
	.byte	W01
	.byte		N12   , Cn1 , v100
	.byte	W12
	.byte		N12
	.byte	W12
	.byte		        En1 , v127
	.byte		N02   , Cn6 , v068
	.byte	W12
	.byte		N12   , Cn1 , v100
	.byte	W12
	.byte		N12
	.byte		N02   , Cn6 , v072
	.byte	W12
	.byte		N12   , En1 , v127
	.byte	W12
	.byte		        Cn1 
	.byte		N02   , Cn6 , v100
	.byte	W12
	.byte		        Cn6 , v060
	.byte	W12
	.byte		N12   , En1 , v127
	.byte		N06   , An1 , v072
	.byte	W12
	.byte		N02   , Cn6 , v060
	.byte	W06
	.byte		N06   , An1 , v100
	.byte	W06
	.byte		N12   , Cn1 , v127
	.byte		N06   , An1 
	.byte		N02   , Cn6 , v100
	.byte	W12
	.byte		N06   , An1 
	.byte	W06
	.byte		        An1 , v127
	.byte	W06
	.byte		        En1 
	.byte		N06   , An1 
	.byte		N02   , Cn6 , v100
	.byte	W06
	.byte		N06   , Fn1 , v112
	.byte	W06
	.byte		N12
	.byte		N06   , As1 , v100
	.byte	W12
	.byte	PATT
	 .word	song_course_rainbow_6 + 0x1D
	.byte	PATT
	 .word	song_course_rainbow_6 + 0x48
	.byte	PATT
	 .word	song_course_rainbow_6 + 0x71
	.byte		N12   , Cn1 , v112
	.byte		N02   , Cn6 , v092
	.byte	W12
	.byte		        Cn6 , v060
	.byte	W12
	.byte		N12   , En1 , v112
	.byte		N02   , Cn6 , v088
	.byte	W12
	.byte		        Cn6 , v068
	.byte	W06
	.byte		N06   , Cn1 , v100
	.byte	W06
	.byte		        En1 , v112
	.byte	W06
	.byte		        An1 , v108
	.byte	W06
	.byte		N12   , An1 , v100
	.byte	W12
	.byte		        An1 , v116
	.byte	W12
	.byte		        En1 , v120
	.byte	W12
	.byte	PATT
	 .word	song_course_rainbow_6 + 0x1D
	.byte	PATT
	 .word	song_course_rainbow_6 + 0x48
	.byte		N12   , Cn1 , v100
	.byte	W12
	.byte		N02   , Cn6 , v060
	.byte	W12
	.byte		N12   , En1 , v112
	.byte		N02   , Cn6 , v072
	.byte	W12
	.byte		N12   , Cn1 , v112
	.byte		N02   , Cn6 , v060
	.byte	W24
	.byte		N12   , En1 , v104
	.byte	W24
	.byte		        En1 , v112
	.byte	W12
	.byte		N02   , Cn6 , v080
	.byte	W24
	.byte		N02
	.byte	W24
	.byte		N12   , Cn1 , v100
	.byte	W12
	.byte		        En1 , v120
	.byte	W12
	.byte		N23
	.byte	W12
	.byte		N12   , Cn1 , v112
	.byte	W12
	.byte	PATT
	 .word	song_course_rainbow_6 + 0x18B
	.byte		N12   , Cn1 , v127
	.byte	W12
	.byte		N02   , Cn6 , v060
	.byte	W12
	.byte		N12   , En1 , v127
	.byte		N02   , Cn6 , v060
	.byte	W12
	.byte		N02
	.byte	W12
	.byte		N12   , Cn1 , v127
	.byte	W12
	.byte		N02   , Cn6 , v060
	.byte	W12
	.byte		N12   , En1 , v127
	.byte		N02   , Cn6 , v060
	.byte	W12
	.byte		N02
	.byte	W12
	.byte		N12   , Cn1 , v127
	.byte	W12
	.byte		N02   , Cn6 , v060
	.byte	W12
	.byte		N12   , En1 , v127
	.byte		N02   , Cn6 , v060
	.byte	W12
	.byte		N02
	.byte	W12
	.byte		N12   , Cn1 , v127
	.byte	W12
	.byte		N02   , Cn6 , v060
	.byte	W12
	.byte		N12   , En1 , v127
	.byte		N02   , Cn6 , v100
	.byte	W12
	.byte		N12   , Cn1 , v127
	.byte	W12
	.byte		N02   , Cn6 , v092
	.byte	W12
	.byte		        Cn6 , v060
	.byte	W12
	.byte		N12   , En1 , v112
	.byte		N02   , Cn6 , v088
	.byte	W12
	.byte		        Cn6 , v068
	.byte	W06
	.byte		N06   , Cn1 , v100
	.byte	W06
	.byte		        En1 , v112
	.byte	W06
	.byte		        An1 , v108
	.byte	W06
	.byte		N12   , An1 , v100
	.byte	W12
	.byte		        An1 , v116
	.byte	W12
	.byte		        En1 , v120
	.byte	W12
	.byte	PATT
	 .word	song_course_rainbow_6 + 0x18B
	.byte	PATT
	 .word	song_course_rainbow_6 + 0x18B
	.byte		N12   , Cn1 , v127
	.byte	W12
	.byte		N02   , Cn6 , v060
	.byte	W12
	.byte		N12   , En1 , v127
	.byte		N02   , Cn6 , v060
	.byte	W12
	.byte		N02
	.byte	W12
	.byte		N12   , Cn1 , v127
	.byte	W12
	.byte		N02   , Cn6 , v060
	.byte	W12
	.byte		N12   , En1 , v127
	.byte		N02   , Cn6 , v060
	.byte	W12
	.byte		N12   , Cn1 , v127
	.byte		N02   , Cn6 , v060
	.byte	W12
	.byte		N12   , Cn1 , v127
	.byte	W12
	.byte		        En1 
	.byte	W11
	.byte		N02   , Cn6 , v080
	.byte	W01
	.byte		N12   , Cn1 , v100
	.byte	W12
	.byte		N12
	.byte	W12
	.byte		        En1 , v127
	.byte		N02   , Cn6 , v068
	.byte	W12
	.byte		N12   , Cn1 , v100
	.byte	W12
	.byte		N02   , Cn6 , v060
	.byte	W12
	.byte		N12   , En1 , v127
	.byte	W12
	.byte	W24
	.byte		N02   , Cn6 , v080
	.byte	W24
	.byte		N02
	.byte	W24
	.byte		N02
	.byte	W24
	.byte		N02
	.byte	W24
	.byte		N12   , En1 , v112
	.byte	W16
	.byte		N08   , En1 , v100
	.byte	W08
	.byte		N06   , An1 , v116
	.byte	W06
	.byte		        Fn1 , v100
	.byte	W06
	.byte		N12   , Fn1 , v120
	.byte		N02   , Cn6 , v060
	.byte	W12
	.byte		N12   , Cn1 , v120
	.byte	W12
	.byte		        En1 , v112
	.byte	W12
	.byte	W96
	.byte	W96
	.byte	W96
	.byte	W96
	.byte		N02   , Cn6 , v060
	.byte	W12
	.byte		N02
	.byte	W12
	.byte		N02
	.byte	W12
	.byte		N02
	.byte	W12
	.byte		N06   , As1 , v100
	.byte	W24
	.byte		N02   , Cn6 , v060
	.byte	W12
	.byte		N02
	.byte	W12
	.byte	PEND
	.byte		N02
	.byte	W12
	.byte		N02
	.byte	W12
	.byte		N06   , As1 , v100
	.byte	W24
	.byte		N02   , Cn6 , v060
	.byte	W12
	.byte		N02
	.byte	W12
	.byte		N02
	.byte	W12
	.byte		N02
	.byte	W12
	.byte	PATT
	 .word	song_course_rainbow_6 + 0x3C2
	.byte		N12   , Cn1 , v127
	.byte	W24
	.byte		        En1 , v100
	.byte	W24
	.byte		N06   , An1 
	.byte	W06
	.byte		N06
	.byte	W06
	.byte		N12   , An1 , v108
	.byte	W12
	.byte		        Fn1 , v100
	.byte	W12
	.byte		N12
	.byte	W12
	.byte	PATT
	 .word	song_course_rainbow_6 + 0x1D
	.byte	PATT
	 .word	song_course_rainbow_6 + 0x48
	.byte	PATT
	 .word	song_course_rainbow_6 + 0x71
	.byte	PATT
	 .word	song_course_rainbow_6 + 0xA0
	.byte	PATT
	 .word	song_course_rainbow_6 + 0xCB
	.byte	PATT
	 .word	song_course_rainbow_6 + 0x48
	.byte	PATT
	 .word	song_course_rainbow_6 + 0xA0
	.byte	GOTO
	 .word	song_course_rainbow_6 + 0x2
	.byte	FINE

@******************************************************@

	.align	2

song_course_rainbow:
	.byte	7	@ NumTrks
	.byte	0	@ NumBlks
	.byte	song_course_rainbow_pri	@ Priority
	.byte	song_course_rainbow_rev	@ Reverb

	.word	song_course_rainbow_grp

	.word	song_course_rainbow_0
	.word	song_course_rainbow_1
	.word	song_course_rainbow_2
	.word	song_course_rainbow_3
	.word	song_course_rainbow_4
	.word	song_course_rainbow_5
	.word	song_course_rainbow_6

	.end
