@ File generated by m4a2s Song-Module
	.include "MPlayDef.s"

	.equ	song_course_lake_grp, bank_course_lake_river
	.equ	song_course_lake_pri, 0
	.equ	song_course_lake_rev, 148
	.equ	song_course_lake_mvl, 127
	.equ	song_course_lake_key, 0

	.section .rodata
	.global	song_course_lake
	.align	2

@*********************** Track 01 ***********************@

song_course_lake_0:
	.byte	KEYSH , song_course_lake_key+0
	.byte	TEMPO , 136/2
	.byte		VOL   , 90*song_course_lake_mvl/mxv
	.byte		PAN   , c_v+30
	.byte		BENDR , 2
	.byte	W24
	.byte		VOICE , 108
	.byte		VOL   , 90*song_course_lake_mvl/mxv
	.byte	W24
	.byte		N12   , Cn4 , v100
	.byte	W18
	.byte		N12
	.byte	W12
	.byte		N18   , Gn3 
	.byte	W18
	.byte		N06   , As3 
	.byte	W12
	.byte		        Dn4 
	.byte	W12
	.byte		N12   , Cn4 
	.byte	W24
	.byte		N12
	.byte	W18
	.byte		N12
	.byte	W12
	.byte		N18   , Ds4 
	.byte	W18
	.byte		N09   , Dn4 
	.byte	W12
	.byte		        Cs4 
	.byte	W12
	.byte		N12   , Cn4 
	.byte	W36
	.byte		N06   , Gn4 
	.byte	W06
	.byte		N12   , Cn4 
	.byte	W54
	.byte	W96
	.byte		VOICE , 65
	.byte	W12
	.byte		N08   , Cn3 , v076
	.byte	W08
	.byte		N04   , Ds3 
	.byte	W04
	.byte		BEND  , c_v-24
	.byte		N08   , Gn3 
	.byte	W01
	.byte		BEND  , c_v-14
	.byte	W02
	.byte		        c_v-6
	.byte	W01
	.byte		        c_v-1
	.byte	W02
	.byte		        c_v+0
	.byte	W02
	.byte		N06   , Cn4 
	.byte	W12
	.byte		        As3 
	.byte	W12
	.byte		BEND  , c_v-24
	.byte		N12
	.byte	W01
	.byte		BEND  , c_v-14
	.byte	W02
	.byte		        c_v-6
	.byte	W01
	.byte		        c_v-1
	.byte	W02
	.byte		        c_v+0
	.byte	W06
	.byte		N04   , An3 
	.byte	W04
	.byte		N08   , As3 
	.byte	W08
	.byte		N04   , Bn3 
	.byte	W04
	.byte		N08   , Cn4 
	.byte	W12
	.byte	W12
	.byte		        Cn3 
	.byte	W08
	.byte		N04   , Ds3 
	.byte	W04
	.byte		BEND  , c_v-24
	.byte		N08   , Gn3 
	.byte	W01
	.byte		BEND  , c_v-14
	.byte	W02
	.byte		        c_v-6
	.byte	W01
	.byte		        c_v-1
	.byte	W02
	.byte		        c_v+0
	.byte	W02
	.byte		N06   , Cn4 
	.byte	W12
	.byte		        As3 
	.byte	W12
	.byte		N12
	.byte	W12
	.byte		N04   , An3 
	.byte	W04
	.byte		BEND  , c_v-24
	.byte		N08   , As3 
	.byte	W01
	.byte		BEND  , c_v-14
	.byte	W02
	.byte		        c_v-6
	.byte	W01
	.byte		        c_v-1
	.byte	W02
	.byte		        c_v+0
	.byte	W02
	.byte		N04   , An3 
	.byte	W04
	.byte		N08   , Gn3 
	.byte	W12
	.byte	W12
	.byte		        Cn3 
	.byte	W08
	.byte		N04   , Ds3 
	.byte	W04
	.byte		BEND  , c_v-24
	.byte		N08   , Gn3 
	.byte	W01
	.byte		BEND  , c_v-14
	.byte	W02
	.byte		        c_v-6
	.byte	W01
	.byte		        c_v-1
	.byte	W02
	.byte		        c_v+0
	.byte	W02
	.byte		N06   , Cn4 
	.byte	W12
	.byte		        As3 
	.byte	W12
	.byte		N12
	.byte	W12
	.byte		N04   , An3 
	.byte	W04
	.byte		BEND  , c_v-24
	.byte		N08   , As3 
	.byte	W01
	.byte		BEND  , c_v-14
	.byte	W02
	.byte		        c_v-6
	.byte	W01
	.byte		        c_v-1
	.byte	W02
	.byte		        c_v+0
	.byte	W02
	.byte		N04   , Bn3 
	.byte	W04
	.byte		N08   , Cn4 
	.byte	W12
	.byte		BEND  , c_v-24
	.byte		N10   , Ds4 , v076
	.byte	W01
	.byte		BEND  , c_v-14
	.byte	W02
	.byte		        c_v-6
	.byte	W01
	.byte		        c_v-1
	.byte	W02
	.byte		        c_v+0
	.byte	W06
	.byte		N06   , Cn4 
	.byte	W12
	.byte		N12   , As3 
	.byte	W12
	.byte		N08   , Cn4 
	.byte	W08
	.byte		N06   , Fs4 
	.byte	W12
	.byte		N12
	.byte	W12
	.byte		N04   , Fn4 
	.byte	W04
	.byte		BEND  , c_v-24
	.byte		N08   , Fs4 
	.byte	W01
	.byte		BEND  , c_v-14
	.byte	W02
	.byte		        c_v-6
	.byte	W01
	.byte		        c_v-1
	.byte	W02
	.byte		        c_v+0
	.byte	W02
	.byte		N04   , Fn4 
	.byte	W04
	.byte		N08   , Cn4 
	.byte	W08
	.byte		N04   , As3 
	.byte	W04
	.byte	PEND
	.byte		N12   , Cn4 
	.byte	W03
	.byte		BEND  , c_v+0
	.byte	W01
	.byte		        c_v-3
	.byte	W02
	.byte		        c_v-13
	.byte	W02
	.byte		        c_v-27
	.byte	W01
	.byte		        c_v-48
	.byte	W02
	.byte		        c_v-64
	.byte	W01
	.byte		        c_v+0
	.byte	W04
	.byte		VOICE , 73
	.byte	W02
	.byte		VOL   , 57*song_course_lake_mvl/mxv
	.byte		BEND  , c_v-10
	.byte		N60   , Gn4 , v060
	.byte	W02
	.byte		BEND  , c_v-22
	.byte	W02
	.byte		        c_v-23
	.byte	W02
	.byte		        c_v-13
	.byte	W03
	.byte		        c_v-4
	.byte	W02
	.byte		        c_v-2
	.byte	W02
	.byte		        c_v+0
	.byte	W48
	.byte	W01
	.byte		N04   , Cn5 
	.byte	W04
	.byte		        Gn4 , v056
	.byte	W04
	.byte		        Cn5 , v060
	.byte	W04
	.byte		        Gn4 , v052
	.byte	W04
	.byte		        Cn5 , v060
	.byte	W04
	.byte		        Gn4 , v052
	.byte	W04
	.byte		        Cn5 , v060
	.byte	W04
	.byte		TIE   , Gn4 , v056
	.byte	W54
	.byte		VOL   , 55*song_course_lake_mvl/mxv
	.byte	W07
	.byte		        53*song_course_lake_mvl/mxv
	.byte	W07
	.byte		        51*song_course_lake_mvl/mxv
	.byte	W07
	.byte		        48*song_course_lake_mvl/mxv
	.byte	W07
	.byte		        43*song_course_lake_mvl/mxv
	.byte	W02
	.byte	W05
	.byte		        38*song_course_lake_mvl/mxv
	.byte	W07
	.byte		        31*song_course_lake_mvl/mxv
	.byte	W04
	.byte		        26*song_course_lake_mvl/mxv
	.byte	W05
	.byte		        31*song_course_lake_mvl/mxv
	.byte	W04
	.byte		        36*song_course_lake_mvl/mxv
	.byte	W03
	.byte		        41*song_course_lake_mvl/mxv
	.byte	W04
	.byte		EOT
	.byte		VOL   , 55*song_course_lake_mvl/mxv
	.byte		N04   , Cn5 , v060
	.byte	W04
	.byte		        Gn4 , v052
	.byte	W04
	.byte		        Cn5 , v060
	.byte	W04
	.byte		        Gn4 , v056
	.byte	W04
	.byte		        Cn5 , v060
	.byte	W06
	.byte		TIE   , Gn4 , v052
	.byte	W42
	.byte	W36
	.byte	W01
	.byte		VOL   , 54*song_course_lake_mvl/mxv
	.byte	W07
	.byte		        51*song_course_lake_mvl/mxv
	.byte	W07
	.byte		        48*song_course_lake_mvl/mxv
	.byte	W07
	.byte		        44*song_course_lake_mvl/mxv
	.byte	W07
	.byte		        39*song_course_lake_mvl/mxv
	.byte	W07
	.byte		        34*song_course_lake_mvl/mxv
	.byte	W07
	.byte		        27*song_course_lake_mvl/mxv
	.byte	W07
	.byte		        20*song_course_lake_mvl/mxv
	.byte	W07
	.byte		        12*song_course_lake_mvl/mxv
	.byte	W03
	.byte		EOT
	.byte	W06
	.byte		VOICE , 65
	.byte		VOL   , 90*song_course_lake_mvl/mxv
	.byte	W06
	.byte		N08   , Cn3 , v076
	.byte	W08
	.byte		N04   , Ds3 
	.byte	W04
	.byte		BEND  , c_v-24
	.byte		N08   , Gn3 
	.byte	W01
	.byte		BEND  , c_v-14
	.byte	W02
	.byte		        c_v-6
	.byte	W01
	.byte		        c_v-1
	.byte	W02
	.byte		        c_v+0
	.byte	W02
	.byte		N06   , Cn4 
	.byte	W12
	.byte		        As3 
	.byte	W12
	.byte		BEND  , c_v-24
	.byte		N12
	.byte	W01
	.byte		BEND  , c_v-14
	.byte	W02
	.byte		        c_v-6
	.byte	W01
	.byte		        c_v-1
	.byte	W02
	.byte		        c_v+0
	.byte	W06
	.byte		N04   , An3 
	.byte	W04
	.byte		N08   , As3 
	.byte	W08
	.byte		N04   , Bn3 
	.byte	W04
	.byte		N06   , Cn4 
	.byte	W12
	.byte	PATT
	 .word	song_course_lake_0 + 0xD1
	.byte		BEND  , c_v-28
	.byte		N18   , Ds4 , v076
	.byte	W01
	.byte		BEND  , c_v-15
	.byte	W02
	.byte		        c_v-6
	.byte	W01
	.byte		        c_v-1
	.byte	W02
	.byte		        c_v+0
	.byte	W12
	.byte		N18   , Dn4 
	.byte	W18
	.byte		        Cs4 
	.byte	W18
	.byte		        Cn4 
	.byte	W18
	.byte		N24   , Bn3 
	.byte	W24
	.byte		BEND  , c_v-28
	.byte		N18   , As3 
	.byte	W01
	.byte		BEND  , c_v-15
	.byte	W02
	.byte		        c_v-6
	.byte	W01
	.byte		        c_v-1
	.byte	W02
	.byte		        c_v+0
	.byte	W12
	.byte		N18   , An3 
	.byte	W18
	.byte		        Gs3 
	.byte	W18
	.byte		        Gn3 
	.byte	W18
	.byte		N24   , Fs3 
	.byte	W24
	.byte		N96   , Fn3 
	.byte	W96
	.byte	W96
	.byte		VOICE , 108
	.byte		N12   , Fn4 , v100
	.byte	W24
	.byte		N12
	.byte	W18
	.byte		N12
	.byte	W12
	.byte		N18   , Cn4 
	.byte	W18
	.byte		N09   , Ds4 
	.byte	W12
	.byte		        Gn4 
	.byte	W12
	.byte		N12   , Fn4 
	.byte	W96
	.byte	W96
	.byte		VOICE , 73
	.byte	W48
	.byte		VOL   , 65*song_course_lake_mvl/mxv
	.byte	W42
	.byte		BEND  , c_v-10
	.byte		N60   , Gn4 , v048
	.byte	W02
	.byte		BEND  , c_v-22
	.byte	W02
	.byte		        c_v-23
	.byte	W02
	.byte		        c_v-13
	.byte	W03
	.byte		        c_v-4
	.byte	W02
	.byte		        c_v-2
	.byte	W02
	.byte		        c_v+0
	.byte	W48
	.byte	W01
	.byte		N04   , Cn5 
	.byte	W04
	.byte		        Gn4 , v044
	.byte	W04
	.byte		        Cn5 , v048
	.byte	W04
	.byte		        Gn4 , v040
	.byte	W04
	.byte		        Cn5 , v048
	.byte	W04
	.byte		N68   , Gn4 , v044
	.byte	W20
	.byte	W06
	.byte		VOL   , 62*song_course_lake_mvl/mxv
	.byte	W06
	.byte		        60*song_course_lake_mvl/mxv
	.byte	W07
	.byte		        55*song_course_lake_mvl/mxv
	.byte	W06
	.byte		        51*song_course_lake_mvl/mxv
	.byte	W07
	.byte		        43*song_course_lake_mvl/mxv
	.byte	W06
	.byte		        34*song_course_lake_mvl/mxv
	.byte	W07
	.byte		        24*song_course_lake_mvl/mxv
	.byte	W03
	.byte		        19*song_course_lake_mvl/mxv
	.byte	W06
	.byte		        65*song_course_lake_mvl/mxv
	.byte	W42
	.byte	W96
	.byte	W96
	.byte	W96
	.byte	W96
	.byte	W96
	.byte	W96
	.byte	W48
	.byte		BEND  , c_v-10
	.byte		N56   , Gn4 , v048
	.byte	W02
	.byte		BEND  , c_v-22
	.byte	W02
	.byte		        c_v-23
	.byte	W02
	.byte		        c_v-13
	.byte	W03
	.byte		        c_v-4
	.byte	W02
	.byte		        c_v-2
	.byte	W02
	.byte		        c_v+0
	.byte	W32
	.byte	W03
	.byte	W08
	.byte		N04   , Cn5 
	.byte	W04
	.byte		        Gn4 , v044
	.byte	W04
	.byte		        Cn5 , v048
	.byte	W04
	.byte		        Gn4 , v040
	.byte	W04
	.byte		        Cn5 , v048
	.byte	W04
	.byte		N68   , Gn4 , v044
	.byte	W24
	.byte	W02
	.byte		VOL   , 62*song_course_lake_mvl/mxv
	.byte	W06
	.byte		        60*song_course_lake_mvl/mxv
	.byte	W07
	.byte		        55*song_course_lake_mvl/mxv
	.byte	W06
	.byte		        51*song_course_lake_mvl/mxv
	.byte	W07
	.byte		        43*song_course_lake_mvl/mxv
	.byte	W06
	.byte		        34*song_course_lake_mvl/mxv
	.byte	W07
	.byte		        24*song_course_lake_mvl/mxv
	.byte	W03
	.byte	GOTO
	 .word	song_course_lake_0 + 0xB
	.byte	FINE

@*********************** Track 02 ***********************@

song_course_lake_1:
	.byte	KEYSH , song_course_lake_key+0
	.byte		VOICE , 38
	.byte		VOL   , 90*song_course_lake_mvl/mxv
	.byte		PAN   , c_v+0
	.byte		BEND  , c_v+0
	.byte		N24   , As1 , v127
	.byte	W01
	.byte		BEND  , c_v-1
	.byte	W02
	.byte		        c_v-2
	.byte	W01
	.byte		        c_v-3
	.byte	W02
	.byte		        c_v-5
	.byte	W02
	.byte		        c_v-8
	.byte	W01
	.byte		        c_v-12
	.byte	W02
	.byte		        c_v-16
	.byte	W01
	.byte		        c_v-20
	.byte	W02
	.byte		        c_v-25
	.byte	W01
	.byte		        c_v-31
	.byte	W02
	.byte		        c_v-38
	.byte	W02
	.byte		        c_v-45
	.byte	W01
	.byte		        c_v-53
	.byte	W02
	.byte		        c_v-61
	.byte	W02
	.byte		BEND  , c_v+0
	.byte		N06   , Cn1 , v127
	.byte	W12
	.byte		N06
	.byte	W12
	.byte		        Gn0 
	.byte	W12
	.byte		N06
	.byte	W06
	.byte		        As0 
	.byte	W12
	.byte		N06
	.byte	W06
	.byte		        Gn0 
	.byte	W12
	.byte		        As0 
	.byte	W12
	.byte		        Gn0 
	.byte	W12
	.byte		N06   , Cn1 , v127
	.byte	W12
	.byte		N06
	.byte	W12
	.byte		        Gn0 
	.byte	W12
	.byte		N06
	.byte	W06
	.byte		        As0 
	.byte	W12
	.byte		N06
	.byte	W12
	.byte		N06
	.byte	W12
	.byte		N06
	.byte	W12
	.byte		        Bn0 
	.byte	W06
	.byte	PEND
	.byte		N06   , Cn1 , v127
	.byte	W12
	.byte		N06
	.byte	W12
	.byte		        Gn0 
	.byte	W12
	.byte		N06
	.byte	W06
	.byte		        As0 
	.byte	W12
	.byte		N06
	.byte	W06
	.byte		        Gn0 
	.byte	W12
	.byte		        As0 
	.byte	W12
	.byte		        Dn1 
	.byte	W12
	.byte	PEND
	.byte		N06   , Cn1 , v127
	.byte	W12
	.byte		N06
	.byte	W12
	.byte		        Gn0 
	.byte	W12
	.byte		N06
	.byte	W06
	.byte		        As0 
	.byte	W12
	.byte		N06
	.byte	W12
	.byte		        Gn0 
	.byte	W12
	.byte		        As0 
	.byte	W12
	.byte		        Dn1 
	.byte	W06
	.byte	PEND
	.byte		N06   , Cn1 , v127
	.byte	W12
	.byte		N06
	.byte	W12
	.byte		        Gn0 
	.byte	W12
	.byte		N06
	.byte	W06
	.byte		        As0 
	.byte	W12
	.byte		N06
	.byte	W06
	.byte		        Gn0 
	.byte	W12
	.byte		        As0 
	.byte	W12
	.byte		        Gn0 
	.byte	W12
	.byte	PEND
	.byte	PATT
	 .word	song_course_lake_1 + 0x41
	.byte	PATT
	 .word	song_course_lake_1 + 0x56
	.byte	PATT
	 .word	song_course_lake_1 + 0x6B
	.byte	PATT
	 .word	song_course_lake_1 + 0x80
	.byte	PATT
	 .word	song_course_lake_1 + 0x41
	.byte	PATT
	 .word	song_course_lake_1 + 0x56
	.byte	PATT
	 .word	song_course_lake_1 + 0x6B
	.byte	PATT
	 .word	song_course_lake_1 + 0x80
	.byte	PATT
	 .word	song_course_lake_1 + 0x41
	.byte		N18   , As1 , v127
	.byte	W18
	.byte		        An1 
	.byte	W18
	.byte		        Gs1 
	.byte	W18
	.byte		        Gn1 
	.byte	W18
	.byte		N12   , Fs1 
	.byte	W12
	.byte		        As0 
	.byte	W12
	.byte		N18   , Fn1 
	.byte	W18
	.byte		        En1 
	.byte	W18
	.byte		        Ds1 
	.byte	W18
	.byte		        Dn1 
	.byte	W18
	.byte		N12   , Cs1 
	.byte	W12
	.byte		        Ds1 
	.byte	W12
	.byte		N06   , Fn1 
	.byte	W12
	.byte		N06
	.byte	W12
	.byte		        Cn1 
	.byte	W12
	.byte		N06
	.byte	W06
	.byte		        Ds1 
	.byte	W12
	.byte		N06
	.byte	W06
	.byte		        Cn1 
	.byte	W12
	.byte		        Ds1 
	.byte	W12
	.byte		        Cn1 
	.byte	W12
	.byte		        Fn1 
	.byte	W12
	.byte		N06
	.byte	W12
	.byte		        Cn1 
	.byte	W12
	.byte		N06
	.byte	W06
	.byte		        Ds1 
	.byte	W12
	.byte		N06
	.byte	W12
	.byte		N06
	.byte	W12
	.byte		N06
	.byte	W12
	.byte		        En1 
	.byte	W06
	.byte		        Fn1 
	.byte	W12
	.byte		N06
	.byte	W12
	.byte		        Cn1 
	.byte	W12
	.byte		N06
	.byte	W06
	.byte		        Ds1 
	.byte	W12
	.byte		N06
	.byte	W06
	.byte		        Cn1 
	.byte	W12
	.byte		        Ds1 
	.byte	W12
	.byte		        Gn1 
	.byte	W12
	.byte		        Fn1 
	.byte	W12
	.byte		N06
	.byte	W12
	.byte		        Cn1 
	.byte	W12
	.byte		N06
	.byte	W06
	.byte		        Ds1 
	.byte	W12
	.byte		N06
	.byte	W12
	.byte		        Cn1 
	.byte	W12
	.byte		        Ds1 
	.byte	W12
	.byte		        As0 
	.byte	W06
	.byte	PATT
	 .word	song_course_lake_1 + 0x80
	.byte	PATT
	 .word	song_course_lake_1 + 0x41
	.byte	PATT
	 .word	song_course_lake_1 + 0x56
	.byte		N06   , Cn1 , v127
	.byte	W12
	.byte		N06
	.byte	W12
	.byte		        Gn0 
	.byte	W12
	.byte		N06
	.byte	W06
	.byte		        As0 
	.byte	W12
	.byte		N06
	.byte	W12
	.byte		        Gn0 
	.byte	W06
	.byte		        As0 
	.byte	W06
	.byte		        Cn1 
	.byte	W06
	.byte		        Dn1 
	.byte	W06
	.byte		        Fn1 
	.byte	W06
	.byte		        Gn1 
	.byte	W06
	.byte		        Gn0 
	.byte	W30
	.byte		        Gn1 
	.byte	W06
	.byte		        Gn0 
	.byte	W30
	.byte		        Gn1 
	.byte	W06
	.byte		        Gn0 
	.byte	W18
	.byte	W06
	.byte		        Gn1 
	.byte	W12
	.byte		N06
	.byte	W06
	.byte		        Gn0 
	.byte	W06
	.byte		        Dn1 
	.byte	W12
	.byte		        Gn1 
	.byte	W12
	.byte		N06
	.byte	W06
	.byte		        Gn0 
	.byte	W12
	.byte		        Gn1 
	.byte	W06
	.byte		N06
	.byte	W06
	.byte		        Gn0 
	.byte	W12
	.byte		        Fn1 
	.byte	W06
	.byte		        Fn0 
	.byte	W30
	.byte		        Fn1 
	.byte	W06
	.byte		        Fn0 
	.byte	W30
	.byte		        Fn1 
	.byte	W06
	.byte		        Fn0 
	.byte	W18
	.byte	W06
	.byte		        Fn1 
	.byte	W12
	.byte		N06
	.byte	W06
	.byte		        Fn2 
	.byte	W06
	.byte		        Fn0 
	.byte	W06
	.byte		        Cn1 
	.byte	W06
	.byte		        Fn1 
	.byte	W12
	.byte		N06
	.byte	W12
	.byte		        Fn0 
	.byte	W06
	.byte		        Fn1 
	.byte	W06
	.byte		N06
	.byte	W06
	.byte		        Fn0 
	.byte	W06
	.byte		        Fn1 
	.byte	W06
	.byte		        Gn1 
	.byte	W06
	.byte		        Gn0 
	.byte	W30
	.byte		        Gn1 
	.byte	W06
	.byte		        Gn0 
	.byte	W30
	.byte		        Gn1 
	.byte	W06
	.byte		        Gn0 
	.byte	W06
	.byte		        Cn1 
	.byte	W06
	.byte		        Gn1 
	.byte	W06
	.byte		        Fn1 
	.byte	W06
	.byte		        Fn0 
	.byte	W30
	.byte		        Fn1 
	.byte	W06
	.byte		        Fn0 
	.byte	W30
	.byte		        Fn1 
	.byte	W06
	.byte		        Fn0 
	.byte	W06
	.byte		        Cn1 
	.byte	W06
	.byte		        Fn1 
	.byte	W06
	.byte		        Gn1 
	.byte	W96
	.byte	W72
	.byte		BEND  , c_v+0
	.byte		N24   , As1 
	.byte	W01
	.byte		BEND  , c_v-1
	.byte	W02
	.byte		        c_v-2
	.byte	W01
	.byte		        c_v-3
	.byte	W02
	.byte		        c_v-5
	.byte	W02
	.byte		        c_v-8
	.byte	W01
	.byte		        c_v-12
	.byte	W02
	.byte		        c_v-16
	.byte	W01
	.byte		        c_v-20
	.byte	W02
	.byte		        c_v-25
	.byte	W01
	.byte		        c_v-31
	.byte	W02
	.byte		        c_v-38
	.byte	W02
	.byte		        c_v-45
	.byte	W01
	.byte		        c_v-53
	.byte	W02
	.byte		        c_v-61
	.byte	W02
	.byte	GOTO
	 .word	song_course_lake_1 + 0x2B
	.byte	FINE

@*********************** Track 03 ***********************@

song_course_lake_2:
	.byte	KEYSH , song_course_lake_key+0
	.byte		VOICE , 61
	.byte		VOL   , 70*song_course_lake_mvl/mxv
	.byte		PAN   , c_v+0
	.byte		N24   , As3 , v112
	.byte	W24
	.byte		PAN   , c_v+0
	.byte		N08   , Cn4 , v116
	.byte	W08
	.byte		N02   , Gn3 , v096
	.byte	W02
	.byte		N01   , En3 , v088
	.byte	W01
	.byte		        Cn3 , v080
	.byte	W13
	.byte		VOICE , 122
	.byte		PAN   , c_v+63
	.byte		N12
	.byte	W18
	.byte		N12
	.byte	W12
	.byte		N18   , Gn2 
	.byte	W18
	.byte		N06   , As2 
	.byte	W12
	.byte		        Dn3 
	.byte	W12
	.byte		N12   , Cn3 
	.byte	W24
	.byte		N12
	.byte	W18
	.byte		N12
	.byte	W12
	.byte		N18   , Ds3 
	.byte	W18
	.byte		N09   , Dn3 
	.byte	W12
	.byte		        Cs3 
	.byte	W12
	.byte		        Cn3 
	.byte	W36
	.byte		N06   , Gn3 
	.byte	W06
	.byte		N09   , Cn3 
	.byte	W06
	.byte		VOICE , 61
	.byte	W06
	.byte		PAN   , c_v+0
	.byte	W06
	.byte		N06   , Cn4 , v112
	.byte	W18
	.byte		N18
	.byte	W18
	.byte		BEND  , c_v-16
	.byte		N18   , Ds4 
	.byte	W02
	.byte		BEND  , c_v+0
	.byte	W16
	.byte		N36   , Cn4 
	.byte	W42
	.byte		N06   , As3 
	.byte	W18
	.byte		N18   , Bn3 
	.byte	W18
	.byte		N09   , Cn4 
	.byte	W09
	.byte		N03   , Gn3 , v096
	.byte	W03
	.byte		N01   , En3 , v084
	.byte	W01
	.byte		        Cn3 , v076
	.byte	W32
	.byte	W03
	.byte		VOICE , 102
	.byte	W36
	.byte		N11   , Cn4 , v052
	.byte	W12
	.byte	W36
	.byte		N07
	.byte	W07
	.byte		        As3 
	.byte	W11
	.byte		N08
	.byte	W12
	.byte		N08
	.byte	W12
	.byte		N08
	.byte	W12
	.byte		N06
	.byte	W06
	.byte		N10   , Cn4 
	.byte	W36
	.byte		N09
	.byte	W36
	.byte		        As3 
	.byte	W12
	.byte		N11   , Cn4 
	.byte	W12
	.byte	W12
	.byte		N08
	.byte	W18
	.byte		N18
	.byte	W18
	.byte		N24   , As3 
	.byte	W24
	.byte		        Bn3 
	.byte	W24
	.byte		N09   , Cn4 
	.byte	W09
	.byte		N03   , Gn3 
	.byte	W03
	.byte		N01   , En3 , v044
	.byte	W01
	.byte		        Cn3 , v036
	.byte	W80
	.byte	W03
	.byte	W96
	.byte	W96
	.byte	W72
	.byte		VOICE , 61
	.byte	W24
	.byte		N09   , Cn4 , v112
	.byte	W09
	.byte		N03   , Gn3 , v092
	.byte	W03
	.byte		N01   , En3 , v080
	.byte	W01
	.byte		        Cn3 , v076
	.byte	W32
	.byte	W03
	.byte		VOICE , 102
	.byte	W36
	.byte		N09   , Cn4 , v044
	.byte	W12
	.byte	W36
	.byte		N07
	.byte	W07
	.byte		N06   , As3 
	.byte	W11
	.byte		N07
	.byte	W12
	.byte		N07
	.byte	W12
	.byte		N07
	.byte	W12
	.byte		N06
	.byte	W06
	.byte		N18
	.byte	W18
	.byte		        An3 
	.byte	W18
	.byte		        Gs3 
	.byte	W18
	.byte		        Gn3 
	.byte	W18
	.byte		N24   , Fs3 
	.byte	W24
	.byte		N18   , Fn3 
	.byte	W18
	.byte		        En3 
	.byte	W18
	.byte		        Ds3 
	.byte	W18
	.byte		        Dn3 
	.byte	W18
	.byte		N24   , Cs3 
	.byte	W24
	.byte		N96   , Cn3 
	.byte	W96
	.byte	W06
	.byte		VOICE , 56
	.byte	W06
	.byte		N03   , Fn4 , v092
	.byte	W04
	.byte		        Fn4 , v100
	.byte	W04
	.byte		        Fn4 , v108
	.byte	W04
	.byte		N05   , Fn4 , v112
	.byte	W06
	.byte		        Fn4 , v116
	.byte	W06
	.byte		        Fn4 , v100
	.byte	W06
	.byte		        Fn4 , v120
	.byte	W12
	.byte		N06   , Fn4 , v100
	.byte	W12
	.byte		        Fn4 , v092
	.byte	W06
	.byte		        Gs4 , v116
	.byte	W06
	.byte		        Fn4 , v100
	.byte	W06
	.byte		        Gs4 , v116
	.byte	W06
	.byte		        Fn4 , v108
	.byte	W06
	.byte		VOICE , 122
	.byte		PAN   , c_v+63
	.byte		N08   , Cn3 , v092
	.byte	W24
	.byte		N08
	.byte	W18
	.byte		N08
	.byte	W12
	.byte		N18   , Gn2 
	.byte	W18
	.byte		N06   , As2 
	.byte	W12
	.byte		        Dn3 
	.byte	W12
	.byte		        Cn3 
	.byte	W06
	.byte		PAN   , c_v+0
	.byte	W06
	.byte		VOICE , 56
	.byte		N03   , Fn4 , v080
	.byte	W04
	.byte		        Gs4 , v092
	.byte	W04
	.byte		        An4 , v100
	.byte	W04
	.byte		N06   , As4 , v112
	.byte	W06
	.byte		        Bn4 , v104
	.byte	W12
	.byte		        Cn5 , v116
	.byte	W12
	.byte		        Cn5 , v108
	.byte	W12
	.byte		N06
	.byte	W06
	.byte		        Ds5 , v120
	.byte	W06
	.byte		        Cn5 , v108
	.byte	W06
	.byte		        As4 , v100
	.byte	W06
	.byte		N30   , Cn5 , v112
	.byte	W06
	.byte	W03
	.byte		VOL   , 69*song_course_lake_mvl/mxv
	.byte	W03
	.byte		        65*song_course_lake_mvl/mxv
	.byte	W04
	.byte		        59*song_course_lake_mvl/mxv
	.byte	W03
	.byte		        51*song_course_lake_mvl/mxv
	.byte	W04
	.byte		        41*song_course_lake_mvl/mxv
	.byte	W03
	.byte		        27*song_course_lake_mvl/mxv
	.byte	W04
	.byte		        70*song_course_lake_mvl/mxv
	.byte	W30
	.byte		N06   , Cn4 , v100
	.byte	W12
	.byte		        Cn4 , v080
	.byte	W06
	.byte		        Ds4 , v092
	.byte	W06
	.byte		        Cn4 , v096
	.byte	W06
	.byte		        As3 , v084
	.byte	W06
	.byte		N30   , Cn4 , v096
	.byte	W06
	.byte	W03
	.byte		VOL   , 69*song_course_lake_mvl/mxv
	.byte	W03
	.byte		        65*song_course_lake_mvl/mxv
	.byte	W04
	.byte		        59*song_course_lake_mvl/mxv
	.byte	W03
	.byte		        51*song_course_lake_mvl/mxv
	.byte	W04
	.byte		        41*song_course_lake_mvl/mxv
	.byte	W03
	.byte		        27*song_course_lake_mvl/mxv
	.byte	W04
	.byte		        70*song_course_lake_mvl/mxv
	.byte	W72
	.byte	W96
	.byte		VOICE , 102
	.byte	W72
	.byte		N04   , Gn3 , v060
	.byte	W04
	.byte		        As3 
	.byte	W04
	.byte		        Cn4 
	.byte	W04
	.byte		        Ds4 
	.byte	W04
	.byte		        Fn4 
	.byte	W04
	.byte		        Fs4 
	.byte	W04
	.byte	PEND
	.byte		VOICE , 61
	.byte		N05   , Gn4 , v112
	.byte	W06
	.byte		N05
	.byte	W30
	.byte		N05
	.byte	W06
	.byte		N05
	.byte	W30
	.byte		N05
	.byte	W06
	.byte		N05
	.byte	W18
	.byte	PEND
	.byte	W96
	.byte		N05   , Fn4 , v112
	.byte	W06
	.byte		N05
	.byte	W30
	.byte		N05
	.byte	W06
	.byte		N05
	.byte	W30
	.byte		N05
	.byte	W06
	.byte		N05
	.byte	W18
	.byte	PEND
	.byte	PATT
	 .word	song_course_lake_2 + 0x18F
	.byte	PATT
	 .word	song_course_lake_2 + 0x1A1
	.byte	PATT
	 .word	song_course_lake_2 + 0x1B3
	.byte		N08   , Gn4 , v112
	.byte	W96
	.byte	W72
	.byte		N24   , As3 
	.byte	W24
	.byte	GOTO
	 .word	song_course_lake_2 + 0xC
	.byte	FINE

@*********************** Track 04 ***********************@

song_course_lake_3:
	.byte	KEYSH , song_course_lake_key+0
	.byte		VOICE , 101
	.byte		VOL   , 70*song_course_lake_mvl/mxv
	.byte		PAN   , c_v+0
	.byte		N24   , Gn3 , v052
	.byte	W24
	.byte		N08   , Gn3 , v052
	.byte	W08
	.byte		N02   , Dn3 , v040
	.byte	W02
	.byte		N01   , Bn2 , v036
	.byte	W01
	.byte		        Gn2 , v032
	.byte	W13
	.byte		VOICE , 121
	.byte		PAN   , c_v-64
	.byte		N12   , Gn2 , v080
	.byte	W18
	.byte		N12
	.byte	W12
	.byte		N18   , Dn2 
	.byte	W18
	.byte		N06   , Fn2 
	.byte	W12
	.byte		        An2 
	.byte	W12
	.byte		N12   , Gn2 
	.byte	W24
	.byte		N12
	.byte	W18
	.byte		N12
	.byte	W12
	.byte		N18   , As2 
	.byte	W18
	.byte		N09   , An2 
	.byte	W12
	.byte		        Gs2 
	.byte	W12
	.byte		        Gn2 
	.byte	W36
	.byte		N06   , Cn3 
	.byte	W06
	.byte		N09   , Gn2 
	.byte	W12
	.byte		PAN   , c_v+0
	.byte	W06
	.byte		VOICE , 101
	.byte		N06   , Gn3 , v040
	.byte	W18
	.byte		N18
	.byte	W18
	.byte		BEND  , c_v-16
	.byte		N18   , Cn4 
	.byte	W02
	.byte		BEND  , c_v+0
	.byte	W16
	.byte		N36   , Gn3 
	.byte	W42
	.byte		N06
	.byte	W18
	.byte		N18
	.byte	W18
	.byte		N09
	.byte	W09
	.byte		N03   , Dn3 , v032
	.byte	W03
	.byte		N01   , Bn2 , v024
	.byte	W01
	.byte		        Gn2 , v020
	.byte	W68
	.byte	W03
	.byte		N09   , Gn3 , v040
	.byte	W12
	.byte	W36
	.byte		N07
	.byte	W07
	.byte		N05
	.byte	W11
	.byte		N06
	.byte	W12
	.byte		N06
	.byte	W12
	.byte		N06
	.byte	W12
	.byte		N06
	.byte	W06
	.byte		N08
	.byte	W36
	.byte		N07
	.byte	W36
	.byte		N07
	.byte	W12
	.byte		N09
	.byte	W12
	.byte	W12
	.byte		N06
	.byte	W18
	.byte		N18
	.byte	W18
	.byte		N24
	.byte	W24
	.byte		N24
	.byte	W24
	.byte		N09
	.byte	W09
	.byte		N03   , Dn3 , v032
	.byte	W03
	.byte		N01   , Bn2 , v028
	.byte	W01
	.byte		        Gn2 , v020
	.byte	W80
	.byte	W03
	.byte	W96
	.byte	W96
	.byte	W96
	.byte		N09   , Gn3 , v040
	.byte	W09
	.byte		N03   , Dn3 , v032
	.byte	W03
	.byte		N01   , Bn2 , v028
	.byte	W01
	.byte		        Gn2 , v024
	.byte	W68
	.byte	W03
	.byte		N09   , Gn3 , v040
	.byte	W12
	.byte	W36
	.byte		N07   , Gn3 , v032
	.byte	W07
	.byte		N05
	.byte	W11
	.byte		N06
	.byte	W12
	.byte		N06
	.byte	W12
	.byte		N06
	.byte	W12
	.byte		N06
	.byte	W06
	.byte		N18   , Fs3 
	.byte	W18
	.byte		        Fn3 
	.byte	W18
	.byte		        En3 
	.byte	W18
	.byte		        Ds3 
	.byte	W18
	.byte		N24   , Dn3 
	.byte	W24
	.byte		N18   , Cs3 
	.byte	W18
	.byte		        Cn3 
	.byte	W18
	.byte		        Bn2 
	.byte	W18
	.byte		        As2 
	.byte	W18
	.byte		N24   , An2 
	.byte	W24
	.byte		N96   , Gs2 
	.byte	W96
	.byte	W72
	.byte		VOICE , 121
	.byte	W24
	.byte		PAN   , c_v-64
	.byte		N12   , Fn2 , v092
	.byte	W24
	.byte		N12
	.byte	W18
	.byte		N12
	.byte	W12
	.byte		N18   , Cn2 
	.byte	W18
	.byte		N09   , Ds2 
	.byte	W12
	.byte		        Gn2 
	.byte	W12
	.byte		N12   , Fn2 
	.byte	W24
	.byte		PAN   , c_v+0
	.byte	W72
	.byte	W96
	.byte	W96
	.byte	W96
	.byte		VOICE , 101
	.byte	W72
	.byte		N04   , Dn3 , v040
	.byte	W04
	.byte		        Fn3 
	.byte	W04
	.byte		        Gn3 
	.byte	W04
	.byte		        As3 
	.byte	W04
	.byte		        Cn4 
	.byte	W04
	.byte		        Cs4 
	.byte	W04
	.byte		N05   , Dn4 , v040
	.byte	W06
	.byte		N05
	.byte	W30
	.byte		N05
	.byte	W06
	.byte		N05
	.byte	W30
	.byte		N05
	.byte	W06
	.byte		N05
	.byte	W18
	.byte	PEND
	.byte	W96
	.byte		N05   , Cn4 , v040
	.byte	W06
	.byte		N05
	.byte	W30
	.byte		N05
	.byte	W06
	.byte		N05
	.byte	W30
	.byte		N05
	.byte	W06
	.byte		N05
	.byte	W18
	.byte	PEND
	.byte	W72
	.byte		N04   , Dn3 
	.byte	W04
	.byte		        Fn3 
	.byte	W04
	.byte		        Gn3 
	.byte	W04
	.byte		        As3 
	.byte	W04
	.byte		        Cn4 
	.byte	W04
	.byte		        Cs4 
	.byte	W04
	.byte	PATT
	 .word	song_course_lake_3 + 0x10D
	.byte	PATT
	 .word	song_course_lake_3 + 0x11D
	.byte		N08   , Dn4 , v040
	.byte	W96
	.byte	W72
	.byte		N24   , Gn3 
	.byte	W24
	.byte	GOTO
	 .word	song_course_lake_3 + 0xC
	.byte	FINE

@*********************** Track 05 ***********************@

song_course_lake_4:
	.byte	KEYSH , song_course_lake_key+0
	.byte		VOICE , 123
	.byte		VOL   , 70*song_course_lake_mvl/mxv
	.byte	W24
	.byte		N04   , Cn5 , v100
	.byte	W06
	.byte		        Fn5 
	.byte	W06
	.byte		        Ds5 
	.byte	W06
	.byte		        Cn5 
	.byte	W06
	.byte		        Fn5 
	.byte	W06
	.byte		        Ds5 
	.byte	W06
	.byte		        Cn5 
	.byte	W06
	.byte		        Fn5 
	.byte	W06
	.byte		        Ds5 
	.byte	W06
	.byte		        Cn5 
	.byte	W06
	.byte		        Fn5 
	.byte	W06
	.byte		        Ds5 
	.byte	W06
	.byte		        Cn5 
	.byte	W06
	.byte		        Fn5 
	.byte	W06
	.byte		        Ds5 
	.byte	W06
	.byte		        Cn5 
	.byte	W06
	.byte	PEND
	.byte		N04   , Fn5 , v100
	.byte	W06
	.byte		        Ds5 
	.byte	W06
	.byte		        Cn5 
	.byte	W06
	.byte		        Fn5 
	.byte	W06
	.byte		        Ds5 
	.byte	W06
	.byte		        Cn5 
	.byte	W06
	.byte		        Fn5 
	.byte	W06
	.byte		        Ds5 
	.byte	W06
	.byte		        Cn5 
	.byte	W06
	.byte		        Fn5 
	.byte	W06
	.byte		        Ds5 
	.byte	W06
	.byte		        Cn5 
	.byte	W06
	.byte		        Fn5 
	.byte	W06
	.byte		        Ds5 
	.byte	W06
	.byte		        Cn5 
	.byte	W06
	.byte		        Fn5 
	.byte	W06
	.byte	PEND
	.byte		N04   , Ds5 , v100
	.byte	W06
	.byte		        Cn5 
	.byte	W06
	.byte		        Fn5 
	.byte	W06
	.byte		        Ds5 
	.byte	W06
	.byte		        Cn5 
	.byte	W06
	.byte		        Fn5 
	.byte	W06
	.byte		        Ds5 
	.byte	W06
	.byte		        Cn5 
	.byte	W06
	.byte		        Fn5 
	.byte	W06
	.byte		        Ds5 
	.byte	W06
	.byte		        Cn5 
	.byte	W06
	.byte		        Fn5 
	.byte	W06
	.byte		        Ds5 
	.byte	W06
	.byte		        Cn5 
	.byte	W06
	.byte		        Fn5 
	.byte	W06
	.byte		        Ds5 
	.byte	W06
	.byte	PEND
	.byte	PATT
	 .word	song_course_lake_4 + 0x7
	.byte	PATT
	 .word	song_course_lake_4 + 0x2A
	.byte	PATT
	 .word	song_course_lake_4 + 0x4D
	.byte	PATT
	 .word	song_course_lake_4 + 0x7
	.byte	PATT
	 .word	song_course_lake_4 + 0x2A
	.byte	PATT
	 .word	song_course_lake_4 + 0x4D
	.byte	PATT
	 .word	song_course_lake_4 + 0x7
	.byte	PATT
	 .word	song_course_lake_4 + 0x2A
	.byte	PATT
	 .word	song_course_lake_4 + 0x4D
	.byte	PATT
	 .word	song_course_lake_4 + 0x7
	.byte	PATT
	 .word	song_course_lake_4 + 0x2A
	.byte	PATT
	 .word	song_course_lake_4 + 0x4D
	.byte	PATT
	 .word	song_course_lake_4 + 0x7
	.byte	PATT
	 .word	song_course_lake_4 + 0x2A
	.byte	PATT
	 .word	song_course_lake_4 + 0x4D
	.byte	PATT
	 .word	song_course_lake_4 + 0x7
	.byte	PATT
	 .word	song_course_lake_4 + 0x2A
	.byte	PATT
	 .word	song_course_lake_4 + 0x4D
	.byte	PATT
	 .word	song_course_lake_4 + 0x7
	.byte	PATT
	 .word	song_course_lake_4 + 0x2A
	.byte	PATT
	 .word	song_course_lake_4 + 0x4D
	.byte		N04   , Gn5 , v100
	.byte	W06
	.byte		        Fn5 
	.byte	W06
	.byte		        Cn5 
	.byte	W06
	.byte		        Gn5 
	.byte	W06
	.byte		        Fn5 
	.byte	W06
	.byte		        Cn5 
	.byte	W06
	.byte		        Gn5 
	.byte	W06
	.byte		        Fn5 
	.byte	W06
	.byte		        Cn5 
	.byte	W06
	.byte		        Gn5 
	.byte	W06
	.byte		        Fn5 
	.byte	W06
	.byte		        Cn5 
	.byte	W06
	.byte		        Gn5 
	.byte	W06
	.byte		        Fn5 
	.byte	W06
	.byte		        Cn5 
	.byte	W06
	.byte		        Gn5 
	.byte	W06
	.byte	PEND
	.byte		        Fn5 
	.byte	W06
	.byte		        Cn5 
	.byte	W06
	.byte		        Gn5 
	.byte	W06
	.byte		        Fn5 
	.byte	W06
	.byte		        Cn5 
	.byte	W06
	.byte		        Gn5 
	.byte	W06
	.byte		        Fn5 
	.byte	W06
	.byte		        Cn5 
	.byte	W06
	.byte		        Gn5 
	.byte	W06
	.byte		        Fn5 
	.byte	W06
	.byte		        Cn5 
	.byte	W06
	.byte		        Gn5 
	.byte	W06
	.byte		        Fn5 
	.byte	W06
	.byte		        Cn5 
	.byte	W06
	.byte		        Gn5 
	.byte	W06
	.byte		        Fn5 
	.byte	W06
	.byte	PATT
	 .word	song_course_lake_4 + 0x7
	.byte	PATT
	 .word	song_course_lake_4 + 0x2A
	.byte	PATT
	 .word	song_course_lake_4 + 0xD9
	.byte	PATT
	 .word	song_course_lake_4 + 0x4D
	.byte		N04   , Gn5 , v100
	.byte	W06
	.byte		        Fn5 
	.byte	W06
	.byte		        Ds5 
	.byte	W06
	.byte		        Cn5 
	.byte	W06
	.byte		        Fn5 
	.byte	W06
	.byte		        Ds5 
	.byte	W06
	.byte		        Cn5 
	.byte	W06
	.byte		        As4 
	.byte	W06
	.byte		        Ds5 
	.byte	W06
	.byte		        Cn5 
	.byte	W06
	.byte		        Fn5 
	.byte	W06
	.byte		        Ds5 
	.byte	W06
	.byte		        Cn5 
	.byte	W06
	.byte		        Fn5 
	.byte	W06
	.byte		        Ds5 
	.byte	W06
	.byte		        Cn5 
	.byte	W06
	.byte		        Ds5 
	.byte	W06
	.byte		        Cn5 
	.byte	W06
	.byte		        As4 
	.byte	W06
	.byte		        Ds5 
	.byte	W06
	.byte		        Cn5 
	.byte	W06
	.byte		        As4 
	.byte	W06
	.byte		        Ds5 
	.byte	W06
	.byte		        Cn5 
	.byte	W06
	.byte		        Fn5 
	.byte	W06
	.byte		        Ds5 
	.byte	W06
	.byte		        Cn5 
	.byte	W06
	.byte		        Fn5 
	.byte	W06
	.byte		        Ds5 
	.byte	W06
	.byte		        Cn5 
	.byte	W06
	.byte		        As4 
	.byte	W06
	.byte		        Ds5 
	.byte	W06
	.byte	GOTO
	 .word	song_course_lake_4 + 0x7
	.byte	FINE

@*********************** Track 06 ***********************@

song_course_lake_5:
	.byte	KEYSH , song_course_lake_key+0
	.byte		VOICE , 127
	.byte		PAN   , c_v+0
	.byte		VOL   , 77*song_course_lake_mvl/mxv
	.byte		N01   , As3 , v044
	.byte		N04   , Gn6 , v127
	.byte	W04
	.byte		N01   , As3 , v040
	.byte		N04   , Gn6 , v124
	.byte	W04
	.byte		N01   , As3 , v032
	.byte		N04   , Gn6 , v108
	.byte	W04
	.byte		N01   , As3 , v036
	.byte		N06   , Gn6 , v112
	.byte	W06
	.byte		N01   , As3 , v040
	.byte		N06   , Gn6 , v127
	.byte	W06
	.byte		N06   , As0 , v100
	.byte		N01   , As3 , v040
	.byte		N06   , Bn6 , v127
	.byte	W06
	.byte		        En3 , v116
	.byte		N01   , As3 , v028
	.byte	W06
	.byte		        As3 , v040
	.byte		N06   , Gn6 , v104
	.byte	W06
	.byte		N01   , As3 , v040
	.byte		N06   , Cn7 , v127
	.byte	W06
	.byte		N01   , As3 , v032
	.byte		N06   , Bn6 , v127
	.byte	W06
	.byte		        En3 , v108
	.byte		N01   , As3 , v024
	.byte	W06
	.byte		N06   , En3 , v127
	.byte		N01   , As3 , v040
	.byte	W06
	.byte		N01
	.byte		N06   , Gn6 , v104
	.byte	W06
	.byte		        As0 , v100
	.byte		N01   , As3 , v024
	.byte		N06   , Bn6 , v127
	.byte	W06
	.byte		N01   , As3 , v040
	.byte		N06   , Gn6 , v092
	.byte	W06
	.byte		N01   , As3 , v028
	.byte		N06   , Gn6 , v104
	.byte	W06
	.byte		N01   , As3 , v040
	.byte		N06   , Cn7 , v127
	.byte	W06
	.byte		N01   , As3 , v040
	.byte		N06   , Gn6 , v120
	.byte	W06
	.byte		N01   , As3 , v028
	.byte		N06   , Gn6 , v088
	.byte	W06
	.byte		N01   , As3 , v036
	.byte		N06   , Cn7 , v127
	.byte	W06
	.byte		        As0 , v100
	.byte		N06   , En3 , v127
	.byte		N01   , As3 , v040
	.byte	W06
	.byte	PEND
	.byte		N06   , As0 , v100
	.byte		N01   , As3 , v040
	.byte		N06   , Bn6 , v127
	.byte	W06
	.byte		        En3 , v116
	.byte		N01   , As3 , v028
	.byte	W06
	.byte		        As3 , v040
	.byte		N06   , Gn6 , v104
	.byte	W06
	.byte		N01   , As3 , v040
	.byte		N06   , Cn7 , v127
	.byte	W06
	.byte		N01   , As3 , v032
	.byte		N06   , Bn6 , v127
	.byte	W06
	.byte		        En3 , v108
	.byte		N01   , As3 , v024
	.byte	W06
	.byte		N06   , En3 , v127
	.byte		N01   , As3 , v040
	.byte	W06
	.byte		N06   , As0 , v100
	.byte		N01   , As3 , v040
	.byte		N06   , Bn6 , v127
	.byte	W06
	.byte		N01   , As3 , v024
	.byte		N06   , Bn6 , v127
	.byte	W06
	.byte		        En3 , v116
	.byte		N01   , As3 , v040
	.byte	W06
	.byte		        As3 , v028
	.byte		N06   , Gn6 , v104
	.byte	W06
	.byte		N01   , As3 , v040
	.byte		N06   , Cn7 , v127
	.byte	W06
	.byte		N01   , As3 , v040
	.byte		N06   , Gn6 , v120
	.byte	W06
	.byte		N01   , As3 , v028
	.byte		N06   , Cn7 , v127
	.byte	W06
	.byte		        As0 , v100
	.byte		N06   , En3 , v127
	.byte		N01   , As3 , v036
	.byte	W06
	.byte		        As3 , v040
	.byte		N06   , Cn7 , v127
	.byte	W06
	.byte	PEND
	.byte		N06   , As0 , v100
	.byte		N01   , As3 , v040
	.byte		N06   , Bn6 , v127
	.byte	W06
	.byte		        En3 , v116
	.byte		N01   , As3 , v028
	.byte	W06
	.byte		        As3 , v040
	.byte		N06   , Gn6 , v104
	.byte	W06
	.byte		N01   , As3 , v032
	.byte		N06   , Cn7 , v127
	.byte	W06
	.byte		N01   , As3 , v032
	.byte		N06   , Bn6 , v127
	.byte	W06
	.byte		        En3 , v108
	.byte		N01   , As3 , v024
	.byte	W06
	.byte		N06   , En3 , v127
	.byte		N01   , As3 , v040
	.byte	W06
	.byte		N01
	.byte		N06   , Gn6 , v072
	.byte	W06
	.byte		        As0 , v100
	.byte		N01   , As3 , v024
	.byte		N06   , Bn6 , v127
	.byte	W06
	.byte		N01   , As3 , v040
	.byte		N06   , Gn6 , v092
	.byte	W06
	.byte		N01   , As3 , v028
	.byte		N06   , Gn6 , v104
	.byte	W06
	.byte		N01   , As3 , v040
	.byte		N06   , Cn7 , v127
	.byte	W06
	.byte		N01   , As3 , v040
	.byte		N06   , Gn6 , v120
	.byte	W06
	.byte		N01   , As3 , v028
	.byte		N06   , Gn6 , v088
	.byte	W06
	.byte		N01   , As3 , v036
	.byte		N06   , Cn7 , v127
	.byte	W06
	.byte		        As0 , v100
	.byte		N06   , En3 , v127
	.byte		N01   , As3 , v040
	.byte	W06
	.byte	PEND
	.byte		N06   , As0 , v100
	.byte		N01   , As3 , v040
	.byte		N06   , Bn6 , v127
	.byte	W06
	.byte		        En3 , v116
	.byte		N01   , As3 , v028
	.byte	W06
	.byte		        As3 , v040
	.byte		N06   , Gn6 , v104
	.byte	W06
	.byte		N01   , As3 , v040
	.byte		N06   , Cn7 , v127
	.byte	W06
	.byte		N01   , As3 , v032
	.byte		N06   , Bn6 , v127
	.byte	W06
	.byte		        En3 , v108
	.byte		N01   , As3 , v024
	.byte	W06
	.byte		N06   , En3 , v127
	.byte		N01   , As3 , v040
	.byte	W06
	.byte		N06   , As0 , v100
	.byte		N01   , As3 , v040
	.byte		N06   , Bn6 , v127
	.byte	W06
	.byte		N01   , As3 , v024
	.byte		N06   , Bn6 , v127
	.byte	W06
	.byte		N01   , As3 , v040
	.byte		N06   , Gn6 , v092
	.byte	W06
	.byte		        As0 , v100
	.byte		N06   , En3 , v127
	.byte		N01   , As3 , v028
	.byte	W06
	.byte		        As3 , v040
	.byte		N06   , Cn7 , v127
	.byte	W06
	.byte		N01   , As3 , v040
	.byte		N06   , Gn6 , v120
	.byte	W06
	.byte		        As0 , v100
	.byte		N01   , As3 , v028
	.byte		N06   , Bn6 , v127
	.byte	W06
	.byte		N01   , As3 , v036
	.byte		N06   , Cn7 , v127
	.byte	W06
	.byte		N01   , As3 , v040
	.byte		N06   , Cn7 , v127
	.byte	W06
	.byte	PATT
	 .word	song_course_lake_5 + 0x2B
	.byte	PATT
	 .word	song_course_lake_5 + 0x9E
	.byte	PATT
	 .word	song_course_lake_5 + 0x111
	.byte		N06   , As0 , v100
	.byte		N01   , As3 , v040
	.byte		N06   , Bn6 , v127
	.byte	W06
	.byte		N01   , As3 , v028
	.byte	W06
	.byte		        As3 , v040
	.byte		N06   , Gn6 , v104
	.byte	W06
	.byte		N01   , As3 , v040
	.byte		N06   , Cn7 , v127
	.byte	W06
	.byte		N01   , As3 , v032
	.byte		N06   , Bn6 , v127
	.byte	W06
	.byte		        En3 , v108
	.byte		N01   , As3 , v024
	.byte	W06
	.byte		N06   , En3 , v127
	.byte		N01   , As3 , v040
	.byte	W06
	.byte		N06   , As0 , v100
	.byte		N01   , As3 , v040
	.byte		N06   , Bn6 , v127
	.byte	W06
	.byte		N01   , As3 , v024
	.byte		N06   , Bn6 , v127
	.byte	W06
	.byte		N01   , As3 , v040
	.byte		N06   , Gn6 , v092
	.byte	W06
	.byte		        As0 , v100
	.byte		N06   , En3 , v127
	.byte		N01   , As3 , v028
	.byte	W06
	.byte		        As3 , v040
	.byte		N06   , Cn7 , v127
	.byte	W06
	.byte		N01   , As3 , v040
	.byte		N06   , Gn6 , v120
	.byte	W06
	.byte		        As0 , v100
	.byte		N01   , As3 , v028
	.byte		N06   , Bn6 , v127
	.byte	W06
	.byte		N01   , As3 , v036
	.byte		N06   , Cn7 , v127
	.byte	W06
	.byte		N01   , As3 , v040
	.byte		N06   , Cn7 , v127
	.byte	W06
	.byte	PEND
	.byte		        As0 , v100
	.byte		N01   , As3 , v040
	.byte		N06   , Bn6 , v127
	.byte	W06
	.byte		        En3 , v116
	.byte		N01   , As3 , v028
	.byte	W06
	.byte		        As3 , v040
	.byte		N06   , Gn6 , v104
	.byte	W06
	.byte		N01   , As3 , v040
	.byte		N06   , Cn7 , v127
	.byte	W06
	.byte		N01   , As3 , v032
	.byte		N06   , Bn6 , v127
	.byte	W06
	.byte		        En3 , v108
	.byte		N01   , As3 , v024
	.byte	W06
	.byte		N06   , En3 , v127
	.byte		N01   , As3 , v040
	.byte	W06
	.byte		N01
	.byte		N06   , Gn6 , v104
	.byte	W06
	.byte		        As0 , v100
	.byte		N01   , As3 , v024
	.byte		N06   , Bn6 , v127
	.byte	W06
	.byte		N03   , Fn3 , v096
	.byte		N01   , As3 , v040
	.byte		N06   , Gn6 , v092
	.byte	W03
	.byte		N03   , Fn3 , v096
	.byte	W03
	.byte		N06
	.byte		N01   , As3 , v028
	.byte		N06   , Gn6 , v104
	.byte	W06
	.byte		        Fn3 , v060
	.byte		N01   , As3 , v040
	.byte		N06   , Cn7 , v127
	.byte	W06
	.byte		        Fn3 , v096
	.byte		N01   , As3 , v040
	.byte		N06   , Gn6 , v120
	.byte	W06
	.byte		N12   , Fn3 , v068
	.byte		N01   , As3 , v028
	.byte		N06   , Gn6 , v088
	.byte	W06
	.byte		N01   , As3 , v036
	.byte		N06   , Cn7 , v127
	.byte	W06
	.byte		        As0 , v100
	.byte		N06   , En3 , v127
	.byte		N12   , Fn3 , v108
	.byte		N01   , As3 , v040
	.byte	W06
	.byte		N06   , As0 , v100
	.byte		N01   , As3 , v040
	.byte		N06   , Bn6 , v127
	.byte	W06
	.byte		        En3 , v116
	.byte		N01   , As3 , v028
	.byte	W06
	.byte		        As3 , v040
	.byte		N06   , Gn6 , v104
	.byte	W06
	.byte		N01   , As3 , v040
	.byte		N06   , Cn7 , v127
	.byte	W06
	.byte		N01   , As3 , v032
	.byte		N06   , Bn6 , v127
	.byte	W06
	.byte		        En3 , v108
	.byte		N01   , As3 , v024
	.byte	W06
	.byte		N06   , En3 , v127
	.byte		N01   , As3 , v040
	.byte	W06
	.byte		N06   , As0 , v100
	.byte		N01   , As3 , v040
	.byte		N06   , Bn6 , v127
	.byte	W06
	.byte		N01   , As3 , v024
	.byte		N06   , Bn6 , v127
	.byte	W06
	.byte		        En3 , v116
	.byte		N03   , Fn3 , v096
	.byte		N01   , As3 , v040
	.byte	W03
	.byte		N09   , Fn3 , v096
	.byte	W03
	.byte		N01   , As3 , v028
	.byte		N06   , Gn6 , v104
	.byte	W06
	.byte		N12   , Fn3 , v068
	.byte		N01   , As3 , v040
	.byte		N06   , Cn7 , v127
	.byte	W06
	.byte		N01   , As3 , v040
	.byte		N06   , Gn6 , v120
	.byte	W06
	.byte		N12   , Fn3 , v096
	.byte		N01   , As3 , v028
	.byte		N06   , Cn7 , v127
	.byte	W06
	.byte		        As0 , v100
	.byte		N06   , En3 , v127
	.byte		N01   , As3 , v036
	.byte	W06
	.byte		N12   , Fn3 , v108
	.byte		N01   , As3 , v040
	.byte		N06   , Cn7 , v127
	.byte	W06
	.byte	PATT
	 .word	song_course_lake_5 + 0x111
	.byte		N06   , As0 , v100
	.byte		N01   , As3 , v040
	.byte		N06   , Bn6 , v127
	.byte	W06
	.byte		N01   , As3 , v028
	.byte	W06
	.byte		N12   , Fn3 , v108
	.byte		N01   , As3 , v040
	.byte		N06   , Gn6 , v104
	.byte	W06
	.byte		N01   , As3 , v040
	.byte		N06   , Cn7 , v127
	.byte	W06
	.byte		N01   , As3 , v032
	.byte		N06   , Bn6 , v127
	.byte	W06
	.byte		        En3 , v108
	.byte		N12   , Fn3 
	.byte		N01   , As3 , v024
	.byte	W06
	.byte		N06   , En3 , v127
	.byte		N01   , As3 , v040
	.byte	W06
	.byte		N06   , As0 , v100
	.byte		N12   , Fn3 , v108
	.byte		N01   , As3 , v040
	.byte		N06   , Bn6 , v127
	.byte	W06
	.byte		N01   , As3 , v024
	.byte		N06   , Bn6 , v127
	.byte	W06
	.byte		N03   , Fn3 , v096
	.byte		N01   , As3 , v040
	.byte		N06   , Gn6 , v092
	.byte	W03
	.byte		N03   , Fn3 , v096
	.byte	W03
	.byte		N06   , As0 , v100
	.byte		N06   , En3 , v127
	.byte		N06   , Fn3 , v096
	.byte		N01   , As3 , v028
	.byte	W06
	.byte		N06   , Fn3 , v060
	.byte		N01   , As3 , v040
	.byte		N06   , Cn7 , v127
	.byte	W06
	.byte		        Fn3 , v096
	.byte		N01   , As3 , v040
	.byte		N06   , Gn6 , v120
	.byte	W06
	.byte		        As0 , v100
	.byte		N06   , Fn3 , v068
	.byte		N01   , As3 , v028
	.byte		N06   , Bn6 , v127
	.byte	W06
	.byte		        Fn3 , v060
	.byte		N01   , As3 , v036
	.byte		N06   , Cn7 , v127
	.byte	W06
	.byte		        Fn3 , v108
	.byte		N01   , As3 , v040
	.byte		N06   , Cn7 , v127
	.byte	W06
	.byte	PATT
	 .word	song_course_lake_5 + 0x2B
	.byte	PATT
	 .word	song_course_lake_5 + 0x9E
	.byte	PATT
	 .word	song_course_lake_5 + 0x111
	.byte	PATT
	 .word	song_course_lake_5 + 0x209
	.byte	PATT
	 .word	song_course_lake_5 + 0x2B
	.byte	PATT
	 .word	song_course_lake_5 + 0x9E
	.byte	PATT
	 .word	song_course_lake_5 + 0x111
	.byte	PATT
	 .word	song_course_lake_5 + 0x209
	.byte	PATT
	 .word	song_course_lake_5 + 0x2B
	.byte	PATT
	 .word	song_course_lake_5 + 0x9E
	.byte	PATT
	 .word	song_course_lake_5 + 0x111
	.byte		N06   , As0 , v100
	.byte		N01   , As3 , v040
	.byte		N06   , Bn6 , v127
	.byte	W06
	.byte		        En3 , v116
	.byte		N01   , As3 , v028
	.byte	W06
	.byte		        As3 , v040
	.byte		N06   , Gn6 , v104
	.byte	W06
	.byte		N01   , As3 , v040
	.byte		N06   , Cn7 , v127
	.byte	W06
	.byte		N01   , As3 , v032
	.byte		N06   , Bn6 , v127
	.byte	W06
	.byte		        En3 , v108
	.byte		N01   , As3 , v024
	.byte	W06
	.byte		N06   , En3 , v127
	.byte		N01   , As3 , v040
	.byte	W06
	.byte		N06   , As0 , v100
	.byte		N01   , As3 , v040
	.byte		N06   , Bn6 , v127
	.byte	W06
	.byte		N01   , As3 , v024
	.byte		N06   , Bn6 , v127
	.byte	W06
	.byte		N12   , Fn3 , v096
	.byte		N01   , As3 , v040
	.byte		N06   , Gn6 , v092
	.byte	W06
	.byte		        As0 , v100
	.byte		N06   , En3 , v127
	.byte		N01   , As3 , v028
	.byte	W06
	.byte		N06   , Fn3 , v060
	.byte		N01   , As3 , v040
	.byte		N06   , Cn7 , v127
	.byte	W06
	.byte		N03   , Fn3 , v096
	.byte		N01   , As3 , v040
	.byte		N06   , Gn6 , v120
	.byte	W03
	.byte		N03   , Fn3 , v096
	.byte	W03
	.byte		N06   , As0 , v100
	.byte		N06   , Fn3 , v096
	.byte		N01   , As3 , v028
	.byte		N06   , Bn6 , v127
	.byte	W06
	.byte		        Fn3 , v060
	.byte		N01   , As3 , v036
	.byte		N06   , Cn7 , v127
	.byte	W06
	.byte		        Fn3 , v096
	.byte		N01   , As3 , v040
	.byte		N06   , Cn7 , v127
	.byte	W06
	.byte		N06   , As0 , v100
	.byte		N01   , As3 , v040
	.byte		N06   , Bn6 , v127
	.byte	W06
	.byte		        As0 , v100
	.byte		N06   , En3 , v127
	.byte		N01   , As3 , v028
	.byte	W06
	.byte		        As3 , v040
	.byte		N06   , Gn6 , v104
	.byte	W06
	.byte		        En3 , v096
	.byte		N01   , As3 , v040
	.byte	W06
	.byte		        As3 , v032
	.byte		N06   , Cn7 , v127
	.byte	W06
	.byte		        En3 , v108
	.byte		N01   , As3 , v024
	.byte	W06
	.byte		N06   , As0 , v100
	.byte		N01   , As3 , v040
	.byte		N06   , Bn6 , v127
	.byte	W06
	.byte		        As0 , v100
	.byte		N06   , En3 , v127
	.byte		N01   , As3 , v040
	.byte	W06
	.byte		N06   , En3 , v127
	.byte		N01   , As3 , v024
	.byte	W06
	.byte		        As3 , v040
	.byte		N06   , Gn6 , v092
	.byte	W06
	.byte		N01   , As3 , v028
	.byte		N06   , Cn7 , v127
	.byte	W06
	.byte		        En3 , v096
	.byte		N01   , As3 , v040
	.byte	W06
	.byte		N06   , As0 , v100
	.byte		N01   , As3 , v040
	.byte		N06   , Bn6 , v127
	.byte	W06
	.byte		        As0 , v100
	.byte		N06   , En3 , v127
	.byte		N01   , As3 , v028
	.byte	W06
	.byte		        As3 , v036
	.byte		N06   , Cn7 , v127
	.byte	W06
	.byte		N01   , As3 , v040
	.byte		N06   , Gn6 , v076
	.byte	W06
	.byte	PEND
	.byte		        As0 , v100
	.byte		N01   , As3 , v040
	.byte		N06   , Bn6 , v127
	.byte	W06
	.byte		        En3 , v116
	.byte		N01   , As3 , v028
	.byte	W06
	.byte		N12   , Fn3 , v108
	.byte		N01   , As3 , v040
	.byte		N06   , Gn6 , v104
	.byte	W06
	.byte		N01   , As3 , v040
	.byte		N06   , Cn7 , v127
	.byte	W06
	.byte		        Fn3 , v080
	.byte		N01   , As3 , v032
	.byte		N06   , Bn6 , v127
	.byte	W06
	.byte		        En3 , v108
	.byte		N12   , Fn3 
	.byte		N01   , As3 , v024
	.byte	W06
	.byte		N06   , En3 , v127
	.byte		N01   , As3 , v040
	.byte	W06
	.byte		N06   , As0 , v100
	.byte		N12   , Fn3 , v108
	.byte		N01   , As3 , v040
	.byte		N06   , Bn6 , v127
	.byte	W06
	.byte		N01   , As3 , v024
	.byte		N06   , Bn6 , v127
	.byte	W06
	.byte		        En3 , v116
	.byte		N12   , Fn3 , v096
	.byte		N01   , As3 , v040
	.byte	W06
	.byte		        As3 , v028
	.byte		N06   , Gn6 , v104
	.byte	W06
	.byte		        Fn3 , v060
	.byte		N01   , As3 , v040
	.byte		N06   , Cn7 , v127
	.byte	W06
	.byte		N03   , Fn3 , v096
	.byte		N01   , As3 , v040
	.byte		N06   , Gn6 , v120
	.byte	W03
	.byte		N03   , Fn3 , v084
	.byte	W03
	.byte		N06   , Fn3 , v096
	.byte		N01   , As3 , v028
	.byte		N06   , Cn7 , v127
	.byte	W06
	.byte		        As0 , v100
	.byte		N06   , En3 , v127
	.byte		N06   , Fn3 , v096
	.byte		N01   , As3 , v036
	.byte	W06
	.byte		N06   , Fn3 , v096
	.byte		N01   , As3 , v040
	.byte		N06   , Cn7 , v127
	.byte	W06
	.byte	PATT
	 .word	song_course_lake_5 + 0x4E2
	.byte		N06   , As0 , v100
	.byte		N01   , As3 , v040
	.byte		N06   , Bn6 , v127
	.byte	W06
	.byte		        En3 , v116
	.byte		N12   , Fn3 , v096
	.byte		N01   , As3 , v028
	.byte	W06
	.byte		        As3 , v040
	.byte		N06   , Gn6 , v104
	.byte	W06
	.byte		        Fn3 , v096
	.byte		N01   , As3 , v040
	.byte		N06   , Cn7 , v127
	.byte	W06
	.byte		N03   , Fn3 , v096
	.byte		N01   , As3 , v032
	.byte		N06   , Bn6 , v127
	.byte	W03
	.byte		N09   , Fn3 , v084
	.byte	W03
	.byte		N06   , En3 , v108
	.byte		N01   , As3 , v024
	.byte	W06
	.byte		N06   , En3 , v127
	.byte		N12   , Fn3 , v096
	.byte		N01   , As3 , v040
	.byte	W06
	.byte		N06   , As0 , v100
	.byte		N01   , As3 , v040
	.byte		N06   , Bn6 , v127
	.byte	W06
	.byte		N01   , As3 , v024
	.byte		N06   , Bn6 , v127
	.byte	W06
	.byte		N12   , Fn3 , v096
	.byte		N01   , As3 , v040
	.byte		N06   , Gn6 , v092
	.byte	W06
	.byte		        As0 , v100
	.byte		N06   , En3 , v127
	.byte		N01   , As3 , v028
	.byte	W06
	.byte		N12   , Fn3 , v096
	.byte		N01   , As3 , v040
	.byte		N06   , Cn7 , v127
	.byte	W06
	.byte		N01   , As3 , v040
	.byte		N06   , Gn6 , v120
	.byte	W06
	.byte		        As0 , v100
	.byte		N12   , Fn3 , v096
	.byte		N01   , As3 , v028
	.byte		N06   , Bn6 , v127
	.byte	W06
	.byte		N01   , As3 , v036
	.byte		N06   , Cn7 , v127
	.byte	W06
	.byte		        Fn3 , v096
	.byte		N01   , As3 , v040
	.byte		N06   , Cn7 , v127
	.byte	W06
	.byte	PATT
	 .word	song_course_lake_5 + 0x4E2
	.byte	PATT
	 .word	song_course_lake_5 + 0x4E2
	.byte		N06   , As0 , v100
	.byte		N01   , As3 , v040
	.byte		N06   , Bn6 , v127
	.byte	W06
	.byte		N01   , As3 , v028
	.byte	W06
	.byte		        As3 , v040
	.byte	W06
	.byte		N01
	.byte	W06
	.byte		        As3 , v032
	.byte	W06
	.byte		        As3 , v024
	.byte	W06
	.byte		        As3 , v040
	.byte	W06
	.byte		N01
	.byte	W06
	.byte		        As3 , v024
	.byte	W06
	.byte		        As3 , v040
	.byte	W06
	.byte		        As3 , v028
	.byte	W06
	.byte		        As3 , v040
	.byte	W06
	.byte		N01
	.byte	W06
	.byte		        As3 , v028
	.byte	W06
	.byte		        As3 , v036
	.byte	W06
	.byte		        As3 , v040
	.byte	W06
	.byte		N01
	.byte	W06
	.byte		        As3 , v028
	.byte	W06
	.byte		        As3 , v040
	.byte	W06
	.byte		N01
	.byte	W06
	.byte		        As3 , v032
	.byte	W06
	.byte		        As3 , v024
	.byte	W06
	.byte		        As3 , v040
	.byte	W06
	.byte		N01
	.byte	W06
	.byte		        As3 , v024
	.byte	W06
	.byte		        As3 , v040
	.byte	W06
	.byte		        As3 , v028
	.byte	W06
	.byte		        As3 , v040
	.byte	W06
	.byte		N01
	.byte	W06
	.byte		        As3 , v028
	.byte	W06
	.byte		        As3 , v036
	.byte	W06
	.byte		        As3 , v040
	.byte	W06
	.byte	GOTO
	 .word	song_course_lake_5 + 0x2B
	.byte	FINE

@*********************** Track 07 ***********************@

song_course_lake_6:
	.byte	KEYSH , song_course_lake_key+0
	.byte		VOICE , 127
	.byte		VOL   , 90*song_course_lake_mvl/mxv
	.byte	W24
	.byte	W24
	.byte		N06   , Bn0 , v100
	.byte	W30
	.byte		N06
	.byte	W18
	.byte		N06
	.byte	W24
	.byte	PEND
	.byte	W24
	.byte		N06   , Bn0 , v100
	.byte	W30
	.byte		N06
	.byte	W12
	.byte		N06
	.byte	W12
	.byte		N06
	.byte	W12
	.byte		N06
	.byte	W06
	.byte	PEND
	.byte	PATT
	 .word	song_course_lake_6 + 0x7
	.byte	W24
	.byte		N06   , Bn0 , v100
	.byte	W30
	.byte		N06
	.byte	W18
	.byte		N06
	.byte	W12
	.byte		N06
	.byte	W06
	.byte		N06
	.byte	W06
	.byte	PEND
	.byte	PATT
	 .word	song_course_lake_6 + 0x7
	.byte	PATT
	 .word	song_course_lake_6 + 0x11
	.byte	PATT
	 .word	song_course_lake_6 + 0x7
	.byte	PATT
	 .word	song_course_lake_6 + 0x24
	.byte	PATT
	 .word	song_course_lake_6 + 0x7
	.byte	PATT
	 .word	song_course_lake_6 + 0x11
	.byte	PATT
	 .word	song_course_lake_6 + 0x7
	.byte	PATT
	 .word	song_course_lake_6 + 0x24
	.byte	PATT
	 .word	song_course_lake_6 + 0x7
	.byte	PATT
	 .word	song_course_lake_6 + 0x11
	.byte	PATT
	 .word	song_course_lake_6 + 0x7
	.byte	PATT
	 .word	song_course_lake_6 + 0x24
	.byte	PATT
	 .word	song_course_lake_6 + 0x7
	.byte	PATT
	 .word	song_course_lake_6 + 0x11
	.byte	PATT
	 .word	song_course_lake_6 + 0x7
	.byte	PATT
	 .word	song_course_lake_6 + 0x24
	.byte	PATT
	 .word	song_course_lake_6 + 0x7
	.byte	PATT
	 .word	song_course_lake_6 + 0x11
	.byte	PATT
	 .word	song_course_lake_6 + 0x7
	.byte	PATT
	 .word	song_course_lake_6 + 0x24
	.byte		N06   , Bn0 , v100
	.byte	W06
	.byte		N06
	.byte	W30
	.byte		N06
	.byte	W06
	.byte		N06
	.byte	W30
	.byte		N06
	.byte	W06
	.byte		N06
	.byte	W18
	.byte	PEND
	.byte	PATT
	 .word	song_course_lake_6 + 0x11
	.byte	PATT
	 .word	song_course_lake_6 + 0x96
	.byte	PATT
	 .word	song_course_lake_6 + 0x24
	.byte	PATT
	 .word	song_course_lake_6 + 0x96
	.byte	PATT
	 .word	song_course_lake_6 + 0x96
	.byte		N06   , Bn0 , v100
	.byte	W96
	.byte	W72
	.byte		N06
	.byte	W24
	.byte	GOTO
	 .word	song_course_lake_6 + 0x7
	.byte	FINE

@******************************************************@

	.align	2

song_course_lake:
	.byte	7	@ NumTrks
	.byte	0	@ NumBlks
	.byte	song_course_lake_pri	@ Priority
	.byte	song_course_lake_rev	@ Reverb

	.word	song_course_lake_grp

	.word	song_course_lake_0
	.word	song_course_lake_1
	.word	song_course_lake_2
	.word	song_course_lake_3
	.word	song_course_lake_4
	.word	song_course_lake_5
	.word	song_course_lake_6

	.end
