@ File generated by m4a2s Song-Module
	.include "MPlayDef.s"

	.equ	song_course_smk_vanilla_grp, bank_course_smk_vanilla
	.equ	song_course_smk_vanilla_pri, 0
	.equ	song_course_smk_vanilla_rev, 148
	.equ	song_course_smk_vanilla_mvl, 127
	.equ	song_course_smk_vanilla_key, 0

	.section .rodata
	.global	song_course_smk_vanilla
	.align	2

@*********************** Track 01 ***********************@

song_course_smk_vanilla_0:
	.byte	KEYSH , song_course_smk_vanilla_key+0
	.byte	TEMPO , 114/2
	.byte		VOICE , 12
	.byte		VOL   , 49*song_course_smk_vanilla_mvl/mxv
	.byte		PAN   , c_v+0
	.byte	W12
	.byte		N06   , Gs5 , v112
	.byte	W12
	.byte		        Bn4 
	.byte	W06
	.byte		        Cn5 
	.byte	W12
	.byte		        Cs5 
	.byte	W18
	.byte		        En5 
	.byte	W12
	.byte		        Ds5 
	.byte	W06
	.byte		        En5 
	.byte	W06
	.byte		        Fs5 
	.byte	W12
	.byte		N06   , Bn4 , v112
	.byte	W18
	.byte		N06
	.byte	W06
	.byte		N06
	.byte	W18
	.byte		N06
	.byte	W12
	.byte		N06
	.byte	W12
	.byte		N06
	.byte	W06
	.byte		N06
	.byte	W12
	.byte		N06
	.byte	W12
	.byte	PEND
	.byte	W12
	.byte		        Gs5 
	.byte	W12
	.byte		        Bn4 
	.byte	W06
	.byte		        Cn5 
	.byte	W12
	.byte		        Cs5 
	.byte	W12
	.byte		VOL   , 35*song_course_smk_vanilla_mvl/mxv
	.byte		N06   , Cs6 
	.byte	W12
	.byte		N06
	.byte	W06
	.byte		N06
	.byte	W06
	.byte		        Ds6 
	.byte	W12
	.byte		        Cs6 
	.byte	W06
	.byte		        Bn5 
	.byte	W18
	.byte		N06
	.byte	W06
	.byte		N06
	.byte	W18
	.byte		N06
	.byte	W12
	.byte		N06
	.byte	W12
	.byte		N06
	.byte	W06
	.byte		N06
	.byte	W24
	.byte		VOL   , 49*song_course_smk_vanilla_mvl/mxv
	.byte	W12
	.byte		N06   , An5 
	.byte	W12
	.byte		        Cs5 
	.byte	W06
	.byte		        Dn5 
	.byte	W12
	.byte		        Ds5 
	.byte	W18
	.byte		VOICE , 123
	.byte		VOL   , 70*song_course_smk_vanilla_mvl/mxv
	.byte		N12   , An4 , v072
	.byte	W12
	.byte		N06   , Cs4 
	.byte	W06
	.byte		        Dn4 
	.byte	W12
	.byte		N18   , Ds4 
	.byte	W06
	.byte	W09
	.byte		VOL   , 35*song_course_smk_vanilla_mvl/mxv
	.byte	W03
	.byte		VOICE , 12
	.byte		VOL   , 49*song_course_smk_vanilla_mvl/mxv
	.byte		N06   , Bn5 , v112
	.byte	W12
	.byte		        Ds5 
	.byte	W06
	.byte		        En5 
	.byte	W12
	.byte		        Fn5 
	.byte	W18
	.byte		VOICE , 123
	.byte		VOL   , 70*song_course_smk_vanilla_mvl/mxv
	.byte		N12   , Bn4 , v072
	.byte	W12
	.byte		N06   , Ds4 
	.byte	W06
	.byte		        En4 
	.byte	W12
	.byte		N18   , Fn4 
	.byte	W06
	.byte	W09
	.byte		VOL   , 35*song_course_smk_vanilla_mvl/mxv
	.byte	W03
	.byte		VOICE , 12
	.byte		VOL   , 49*song_course_smk_vanilla_mvl/mxv
	.byte		N06   , Gs5 , v112
	.byte	W12
	.byte		        Fs5 
	.byte	W12
	.byte		        En5 
	.byte	W12
	.byte		VOL   , 35*song_course_smk_vanilla_mvl/mxv
	.byte		N06   , Cs6 
	.byte	W12
	.byte		        As5 
	.byte	W12
	.byte		        Bn5 
	.byte	W12
	.byte		        Cs6 
	.byte	W12
	.byte		N06
	.byte	W48
	.byte		        Bn5 
	.byte	W48
	.byte		VOL   , 49*song_course_smk_vanilla_mvl/mxv
	.byte	W12
	.byte		N06   , Gs5 
	.byte	W12
	.byte		        Bn4 
	.byte	W06
	.byte		        Cn5 
	.byte	W12
	.byte		        Cs5 
	.byte	W18
	.byte		        En5 
	.byte	W12
	.byte		        Ds5 
	.byte	W06
	.byte		        En5 
	.byte	W06
	.byte		        Fs5 
	.byte	W12
	.byte	PATT
	 .word	song_course_smk_vanilla_0 + 0x1D
	.byte	W12
	.byte		N06   , Gs5 , v112
	.byte	W12
	.byte		        Bn4 
	.byte	W06
	.byte		        Cn5 
	.byte	W12
	.byte		        Cs5 
	.byte	W12
	.byte		VOL   , 36*song_course_smk_vanilla_mvl/mxv
	.byte		N06   , Cs6 
	.byte	W12
	.byte		N06
	.byte	W06
	.byte		N06
	.byte	W06
	.byte		        Ds6 
	.byte	W12
	.byte		        Cs6 
	.byte	W06
	.byte		        Ds6 
	.byte	W18
	.byte		N06
	.byte	W06
	.byte		N06
	.byte	W18
	.byte		        En6 
	.byte	W12
	.byte		N06
	.byte	W12
	.byte		N06
	.byte	W06
	.byte		        Fs6 , v108
	.byte	W12
	.byte		        Gs6 , v100
	.byte	W12
	.byte	W12
	.byte		        An6 , v096
	.byte	W12
	.byte		        Gs6 , v100
	.byte	W06
	.byte		        An6 , v096
	.byte	W12
	.byte		        Cs6 , v112
	.byte	W06
	.byte		        En6 , v108
	.byte	W24
	.byte		        Ds6 , v112
	.byte	W24
	.byte		        En6 
	.byte	W18
	.byte		        Ds6 
	.byte	W12
	.byte		        Cs6 
	.byte	W12
	.byte		        Bn5 
	.byte	W54
	.byte	GOTO
	 .word	song_course_smk_vanilla_0 + 0x2
	.byte	FINE

@*********************** Track 02 ***********************@

song_course_smk_vanilla_1:
	.byte	KEYSH , song_course_smk_vanilla_key+0
	.byte		VOICE , 34
	.byte		VOL   , 90*song_course_smk_vanilla_mvl/mxv
	.byte		PAN   , c_v+0
	.byte		N18   , En1 , v127
	.byte	W18
	.byte		N06
	.byte	W06
	.byte		N18   , Bn0 
	.byte	W18
	.byte		N06   , Cs1 
	.byte	W12
	.byte		N06
	.byte	W12
	.byte		N06
	.byte	W06
	.byte		        Bn0 
	.byte	W06
	.byte		        Cn1 
	.byte	W06
	.byte		        Cs1 
	.byte	W06
	.byte		        Ds1 
	.byte	W06
	.byte		N18   , En1 , v127
	.byte	W18
	.byte		N06
	.byte	W06
	.byte		N18   , Bn0 
	.byte	W18
	.byte		N06   , Cs1 
	.byte	W12
	.byte		N06
	.byte	W12
	.byte		N06
	.byte	W06
	.byte		        Bn0 
	.byte	W06
	.byte		        Cn1 
	.byte	W06
	.byte		        Cs1 
	.byte	W06
	.byte		        Ds1 
	.byte	W06
	.byte	PEND
	.byte		N18   , En1 , v127
	.byte	W18
	.byte		N06
	.byte	W06
	.byte		N18   , Bn0 
	.byte	W18
	.byte		N06   , Cs1 
	.byte	W12
	.byte		N06
	.byte	W12
	.byte		N06
	.byte	W06
	.byte		N12   , As0 
	.byte	W12
	.byte		        An0 
	.byte	W12
	.byte	PEND
	.byte		N18   , Gs0 
	.byte	W18
	.byte		N06
	.byte	W06
	.byte		N18
	.byte	W18
	.byte		N06   , Cs1 
	.byte	W12
	.byte		N06
	.byte	W12
	.byte		N06
	.byte	W06
	.byte		N06
	.byte	W06
	.byte		N06
	.byte	W06
	.byte		        Ds1 
	.byte	W06
	.byte		        En1 
	.byte	W06
	.byte		N18   , Fs1 
	.byte	W18
	.byte		N06
	.byte	W06
	.byte		N18
	.byte	W18
	.byte		N06   , Bn0 
	.byte	W12
	.byte		N06
	.byte	W12
	.byte		N06
	.byte	W06
	.byte		N12   , An0 
	.byte	W12
	.byte		N12
	.byte	W12
	.byte		N18   , Gs0 
	.byte	W18
	.byte		N06
	.byte	W06
	.byte		N18
	.byte	W18
	.byte		N06   , Cs1 
	.byte	W12
	.byte		N06
	.byte	W12
	.byte		N06
	.byte	W06
	.byte		N12   , Bn0 
	.byte	W12
	.byte		N12
	.byte	W12
	.byte		N18   , As0 
	.byte	W18
	.byte		N06
	.byte	W06
	.byte		N18
	.byte	W18
	.byte		N06   , Fs0 
	.byte	W12
	.byte		N06
	.byte	W12
	.byte		N06
	.byte	W06
	.byte		N12   , Fn0 
	.byte	W12
	.byte		        En0 
	.byte	W12
	.byte		N18   , An0 
	.byte	W18
	.byte		N06
	.byte	W06
	.byte		N18
	.byte	W18
	.byte		N06
	.byte	W06
	.byte		N18   , Bn0 
	.byte	W18
	.byte		N06
	.byte	W06
	.byte		N06
	.byte	W06
	.byte		N06
	.byte	W06
	.byte		        Cs1 
	.byte	W06
	.byte		        Ds1 
	.byte	W06
	.byte	PATT
	 .word	song_course_smk_vanilla_1 + 0x20
	.byte	PATT
	 .word	song_course_smk_vanilla_1 + 0x20
	.byte	PATT
	 .word	song_course_smk_vanilla_1 + 0x39
	.byte		N18   , Gs0 , v127
	.byte	W18
	.byte		N06
	.byte	W06
	.byte		N18
	.byte	W18
	.byte		N06   , Cs1 
	.byte	W12
	.byte		N06
	.byte	W12
	.byte		N06
	.byte	W06
	.byte		N12   , Ds1 
	.byte	W12
	.byte		        En1 
	.byte	W12
	.byte		        Fs1 
	.byte	W12
	.byte		N06   , Gs1 
	.byte	W06
	.byte		        An1 
	.byte	W12
	.byte		N18   , As1 
	.byte	W18
	.byte		N24   , Bn1 
	.byte	W24
	.byte		N24
	.byte	W24
	.byte		N18   , An1 
	.byte	W18
	.byte		N06   , Gs1 
	.byte	W12
	.byte		        Fs1 
	.byte	W12
	.byte		N54   , En1 
	.byte	W54
	.byte	GOTO
	 .word	song_course_smk_vanilla_1 + 0x2
	.byte	FINE

@*********************** Track 03 ***********************@

song_course_smk_vanilla_2:
	.byte	KEYSH , song_course_smk_vanilla_key+0
	.byte		VOICE , 124
	.byte		VOL   , 45*song_course_smk_vanilla_mvl/mxv
	.byte		PAN   , c_v+0
	.byte	W12
	.byte		N06   , En5 , v112
	.byte	W12
	.byte		        Gs4 
	.byte	W06
	.byte		        An4 
	.byte	W12
	.byte		N06
	.byte	W18
	.byte		        Cs5 
	.byte	W12
	.byte		        Bn4 
	.byte	W06
	.byte		        Cs5 
	.byte	W06
	.byte		        Ds5 
	.byte	W12
	.byte		        Gs4 
	.byte	W18
	.byte		N06
	.byte	W06
	.byte		N06
	.byte	W18
	.byte		        An4 
	.byte	W12
	.byte		N06
	.byte	W12
	.byte		N06
	.byte	W06
	.byte		N06
	.byte	W12
	.byte		N06
	.byte	W12
	.byte	W12
	.byte		        En5 
	.byte	W12
	.byte		        Gs4 
	.byte	W06
	.byte		        An4 
	.byte	W12
	.byte		N06
	.byte	W12
	.byte		        An5 
	.byte	W12
	.byte		N06
	.byte	W06
	.byte		N06
	.byte	W06
	.byte		        Bn5 
	.byte	W12
	.byte		        An5 
	.byte	W06
	.byte		        Fs5 
	.byte	W18
	.byte		N06
	.byte	W06
	.byte		N06
	.byte	W18
	.byte		        En5 
	.byte	W12
	.byte		N06
	.byte	W12
	.byte		        Fs5 
	.byte	W06
	.byte		        Gs5 
	.byte	W24
	.byte	W12
	.byte		        Fs5 
	.byte	W12
	.byte		        An4 
	.byte	W06
	.byte		N06
	.byte	W12
	.byte		        Bn4 
	.byte	W54
	.byte	W12
	.byte		        Gs5 
	.byte	W12
	.byte		        Bn4 
	.byte	W06
	.byte		N06
	.byte	W12
	.byte		        Cs5 
	.byte	W30
	.byte		VOICE , 12
	.byte		N06   , Fs5 
	.byte	W12
	.byte		        Gs5 
	.byte	W12
	.byte		VOICE , 124
	.byte	W12
	.byte		N06   , Cs5 
	.byte	W12
	.byte		N06
	.byte	W12
	.byte		N06
	.byte	W12
	.byte		        As5 
	.byte	W12
	.byte		        Fs5 
	.byte	W12
	.byte		        Gs5 
	.byte	W12
	.byte		        As5 
	.byte	W12
	.byte		        En5 
	.byte	W48
	.byte		        Ds5 
	.byte	W48
	.byte	W12
	.byte		        En5 
	.byte	W12
	.byte		        Gs4 
	.byte	W06
	.byte		        An4 
	.byte	W12
	.byte		N06
	.byte	W18
	.byte		        Cs5 
	.byte	W12
	.byte		        Bn4 
	.byte	W06
	.byte		        Cs5 
	.byte	W06
	.byte		        Ds5 
	.byte	W12
	.byte		        Gs4 
	.byte	W12
	.byte		VOICE , 123
	.byte		VOL   , 70*song_course_smk_vanilla_mvl/mxv
	.byte		N12   , En5 , v072
	.byte	W12
	.byte		N06   , Ds5 
	.byte	W06
	.byte		        En5 
	.byte	W06
	.byte		N12   , Fs5 
	.byte	W12
	.byte		MOD   , 3
	.byte		LFOS  , 30
	.byte		LFODL , 18
	.byte		N48   , Bn4 
	.byte	W48
	.byte		VOL   , 45*song_course_smk_vanilla_mvl/mxv
	.byte	W12
	.byte		VOICE , 124
	.byte		MOD   , 0
	.byte		N06   , En5 , v112
	.byte	W12
	.byte		        Gs4 
	.byte	W06
	.byte		        An4 
	.byte	W12
	.byte		N06
	.byte	W12
	.byte		        An5 
	.byte	W12
	.byte		N06
	.byte	W06
	.byte		N06
	.byte	W06
	.byte		        Bn5 
	.byte	W12
	.byte		        An5 
	.byte	W06
	.byte		        Gs5 
	.byte	W18
	.byte		N06
	.byte	W06
	.byte		N06
	.byte	W18
	.byte		        Cs6 
	.byte	W12
	.byte		N06
	.byte	W12
	.byte		N06
	.byte	W06
	.byte		        Ds6 
	.byte	W12
	.byte		        En6 
	.byte	W12
	.byte	W12
	.byte		        Fs6 
	.byte	W12
	.byte		        En6 
	.byte	W06
	.byte		        Fs6 
	.byte	W12
	.byte		        Gs5 
	.byte	W06
	.byte		        An5 
	.byte	W24
	.byte		N06
	.byte	W24
	.byte		        Cs6 
	.byte	W18
	.byte		        Bn5 
	.byte	W12
	.byte		        An5 
	.byte	W12
	.byte		        Gs5 
	.byte	W54
	.byte	GOTO
	 .word	song_course_smk_vanilla_2 + 0x2
	.byte	FINE

@*********************** Track 04 ***********************@

song_course_smk_vanilla_3:
	.byte	KEYSH , song_course_smk_vanilla_key+0
	.byte		VOICE , 122
	.byte		PAN   , c_v+63
	.byte		VOL   , 56*song_course_smk_vanilla_mvl/mxv
	.byte		N06   , Bn2 , v100
	.byte	W12
	.byte		        Gs3 
	.byte	W06
	.byte		        Bn2 
	.byte	W06
	.byte		N06
	.byte	W06
	.byte		        Gs3 
	.byte	W06
	.byte		        Bn2 
	.byte	W06
	.byte		        Cs3 
	.byte	W12
	.byte		        An3 
	.byte	W12
	.byte		        Cs3 
	.byte	W06
	.byte		N12   , An3 
	.byte	W12
	.byte		N12
	.byte	W12
	.byte		N06   , Bn2 , v100
	.byte	W12
	.byte		        Gs3 
	.byte	W06
	.byte		        Bn2 
	.byte	W06
	.byte		N06
	.byte	W06
	.byte		        Gs3 
	.byte	W06
	.byte		        Bn2 
	.byte	W06
	.byte		        Cs3 
	.byte	W12
	.byte		        An3 
	.byte	W12
	.byte		        Cs3 
	.byte	W06
	.byte		N12   , An3 
	.byte	W12
	.byte		N12
	.byte	W12
	.byte	PEND
	.byte	PATT
	 .word	song_course_smk_vanilla_3 + 0x21
	.byte		N06   , Ds3 , v100
	.byte	W12
	.byte		        Bn3 
	.byte	W06
	.byte		        Ds3 
	.byte	W06
	.byte		N06
	.byte	W06
	.byte		        Bn3 
	.byte	W06
	.byte		        Ds3 
	.byte	W06
	.byte		        En3 
	.byte	W12
	.byte		        Bn3 
	.byte	W12
	.byte		        En3 
	.byte	W06
	.byte		N12
	.byte	W12
	.byte		        Bn3 
	.byte	W12
	.byte		N06   , Cs3 
	.byte	W12
	.byte		        An3 
	.byte	W06
	.byte		        Cs3 
	.byte	W06
	.byte		N06
	.byte	W06
	.byte		        An3 
	.byte	W06
	.byte		        Cs3 
	.byte	W06
	.byte		        Bn2 
	.byte	W12
	.byte		        An3 
	.byte	W12
	.byte		        Bn2 
	.byte	W06
	.byte		N12   , An3 
	.byte	W12
	.byte		N12
	.byte	W12
	.byte		N06   , Ds3 
	.byte	W12
	.byte		        Bn3 
	.byte	W06
	.byte		        Ds3 
	.byte	W06
	.byte		N06
	.byte	W06
	.byte		        Bn3 
	.byte	W06
	.byte		        Ds3 
	.byte	W06
	.byte		        Cs3 
	.byte	W12
	.byte		        Bn3 
	.byte	W12
	.byte		        Cs3 
	.byte	W06
	.byte		N12   , Bn3 
	.byte	W12
	.byte		N12
	.byte	W12
	.byte		N06   , As2 
	.byte	W12
	.byte		        Gs3 
	.byte	W06
	.byte		        As2 
	.byte	W06
	.byte		N06
	.byte	W06
	.byte		        Gs3 
	.byte	W06
	.byte		        As2 
	.byte	W06
	.byte		N06
	.byte	W12
	.byte		        Gs3 
	.byte	W12
	.byte		N06
	.byte	W06
	.byte		N12   , Fs3 
	.byte	W12
	.byte		        En3 
	.byte	W12
	.byte		N06   , An2 
	.byte	W12
	.byte		        En3 
	.byte	W06
	.byte		        An2 
	.byte	W06
	.byte		N06
	.byte	W06
	.byte		        En3 
	.byte	W06
	.byte		        An2 
	.byte	W06
	.byte		N06
	.byte	W12
	.byte		        Ds3 
	.byte	W12
	.byte		        An2 
	.byte	W06
	.byte		N12
	.byte	W12
	.byte		        Ds3 
	.byte	W12
	.byte	PATT
	 .word	song_course_smk_vanilla_3 + 0x21
	.byte	PATT
	 .word	song_course_smk_vanilla_3 + 0x21
	.byte	PATT
	 .word	song_course_smk_vanilla_3 + 0x21
	.byte		N06   , Ds3 , v100
	.byte	W12
	.byte		        Bn3 
	.byte	W06
	.byte		        Ds3 
	.byte	W06
	.byte		N06
	.byte	W06
	.byte		        Bn3 
	.byte	W06
	.byte		        Ds3 
	.byte	W06
	.byte		        Bn3 
	.byte	W12
	.byte		N06
	.byte	W12
	.byte		        En3 
	.byte	W06
	.byte		N12   , Bn3 
	.byte	W12
	.byte		        En3 
	.byte	W12
	.byte	W12
	.byte		        Cs3 
	.byte	W12
	.byte		N06
	.byte	W06
	.byte		N06
	.byte	W12
	.byte		N06
	.byte	W06
	.byte		N24
	.byte	W24
	.byte		        Bn2 
	.byte	W24
	.byte	W96
	.byte	GOTO
	 .word	song_course_smk_vanilla_3 + 0x2
	.byte	FINE

@*********************** Track 05 ***********************@

song_course_smk_vanilla_4:
	.byte	KEYSH , song_course_smk_vanilla_key+0
	.byte		VOICE , 121
	.byte		PAN   , c_v-64
	.byte		VOL   , 56*song_course_smk_vanilla_mvl/mxv
	.byte		N06   , Gs2 , v100
	.byte	W12
	.byte		        Fs3 
	.byte	W06
	.byte		        Gs2 
	.byte	W06
	.byte		N06
	.byte	W06
	.byte		        En3 
	.byte	W06
	.byte		        An2 
	.byte	W06
	.byte		N06
	.byte	W12
	.byte		        Fs3 
	.byte	W12
	.byte		N06
	.byte	W06
	.byte		N12   , En3 
	.byte	W12
	.byte		        Ds3 
	.byte	W12
	.byte		N06   , Gs2 , v100
	.byte	W12
	.byte		        Fs3 
	.byte	W06
	.byte		        Gs2 
	.byte	W06
	.byte		N06
	.byte	W06
	.byte		        En3 
	.byte	W06
	.byte		        An2 
	.byte	W06
	.byte		N06
	.byte	W12
	.byte		        Fs3 
	.byte	W12
	.byte		        Cs3 
	.byte	W06
	.byte		N12   , En3 
	.byte	W12
	.byte		        Ds3 
	.byte	W12
	.byte	PEND
	.byte	PATT
	 .word	song_course_smk_vanilla_4 + 0x21
	.byte		N06   , Bn2 , v100
	.byte	W12
	.byte		        Gs3 
	.byte	W06
	.byte		        Bn2 
	.byte	W06
	.byte		N06
	.byte	W06
	.byte		        Gs3 
	.byte	W06
	.byte		        Cn3 
	.byte	W06
	.byte		        Cs3 
	.byte	W12
	.byte		        Gs3 
	.byte	W12
	.byte		        Bn2 
	.byte	W06
	.byte		N12   , Cs3 
	.byte	W12
	.byte		        Gs3 
	.byte	W12
	.byte		N06   , An2 
	.byte	W12
	.byte		        En3 
	.byte	W06
	.byte		        An2 
	.byte	W06
	.byte		N06
	.byte	W06
	.byte		        En3 
	.byte	W06
	.byte		        As2 
	.byte	W06
	.byte		        Ds3 
	.byte	W12
	.byte		        Fs3 
	.byte	W12
	.byte		        Ds3 
	.byte	W06
	.byte		N12   , Fs3 
	.byte	W12
	.byte		        En3 
	.byte	W12
	.byte		N06   , Bn2 
	.byte	W12
	.byte		        Gs3 
	.byte	W06
	.byte		        Bn2 
	.byte	W06
	.byte		N06
	.byte	W06
	.byte		        Gs3 
	.byte	W06
	.byte		        Cn3 
	.byte	W06
	.byte		        En3 
	.byte	W12
	.byte		        Gs3 
	.byte	W12
	.byte		        En3 
	.byte	W06
	.byte		N12   , Gs3 
	.byte	W12
	.byte		        En3 
	.byte	W12
	.byte		N06   , Gs2 
	.byte	W12
	.byte		        En3 
	.byte	W06
	.byte		        Gs2 
	.byte	W06
	.byte		N06
	.byte	W06
	.byte		        En3 
	.byte	W06
	.byte		        Fs2 
	.byte	W06
	.byte		        Gs2 
	.byte	W12
	.byte		        En3 
	.byte	W12
	.byte		N06
	.byte	W06
	.byte		N12   , Ds3 
	.byte	W12
	.byte		        Cs3 
	.byte	W12
	.byte		N06   , En2 
	.byte	W12
	.byte		        Cs3 
	.byte	W06
	.byte		        En2 
	.byte	W06
	.byte		N06
	.byte	W06
	.byte		        Cs3 
	.byte	W06
	.byte		        Ds2 
	.byte	W06
	.byte		        En2 
	.byte	W12
	.byte		        Bn2 
	.byte	W12
	.byte		        En2 
	.byte	W06
	.byte		N12   , Ds2 
	.byte	W12
	.byte		        Bn2 
	.byte	W12
	.byte		N06   , Gs2 
	.byte	W12
	.byte		        Fs3 
	.byte	W06
	.byte		        Gs2 
	.byte	W06
	.byte		N06
	.byte	W06
	.byte		        En3 
	.byte	W06
	.byte		        An2 
	.byte	W06
	.byte		N06
	.byte	W12
	.byte		        Fs3 
	.byte	W12
	.byte		N06
	.byte	W06
	.byte		N12   , En3 
	.byte	W12
	.byte		        Ds3 
	.byte	W12
	.byte	PATT
	 .word	song_course_smk_vanilla_4 + 0x21
	.byte	PATT
	 .word	song_course_smk_vanilla_4 + 0x21
	.byte		N06   , Gs2 , v100
	.byte	W12
	.byte		        Ds3 
	.byte	W06
	.byte		        Gs2 
	.byte	W06
	.byte		N06
	.byte	W06
	.byte		        Ds3 
	.byte	W06
	.byte		        Bn2 
	.byte	W06
	.byte		        Cs3 
	.byte	W12
	.byte		        En3 
	.byte	W12
	.byte		        Gs2 
	.byte	W06
	.byte		N12   , En3 
	.byte	W12
	.byte		        Cs3 
	.byte	W12
	.byte	W12
	.byte		        An2 
	.byte	W12
	.byte		N06
	.byte	W06
	.byte		N06
	.byte	W12
	.byte		N06
	.byte	W06
	.byte		N24
	.byte	W24
	.byte		        Gs2 
	.byte	W24
	.byte	W96
	.byte	GOTO
	 .word	song_course_smk_vanilla_4 + 0x2
	.byte	FINE

@*********************** Track 06 ***********************@

song_course_smk_vanilla_5:
	.byte	KEYSH , song_course_smk_vanilla_key+0
	.byte		VOICE , 127
	.byte		VOL   , 90*song_course_smk_vanilla_mvl/mxv
	.byte		PAN   , c_v+0
	.byte		N06   , Cs3 , v100
	.byte		N02   , As3 , v048
	.byte	W06
	.byte		N06   , Cs3 , v100
	.byte	W06
	.byte		        Cn3 , v120
	.byte		N02   , As3 , v048
	.byte	W06
	.byte		N06   , Cs3 , v100
	.byte		N02   , As3 , v048
	.byte	W06
	.byte		N06   , Cs3 , v100
	.byte		N02   , As3 , v048
	.byte	W06
	.byte		N06   , Cs3 , v100
	.byte	W06
	.byte		        Cn3 , v120
	.byte		N02   , As3 , v048
	.byte	W06
	.byte		N06   , Cn3 , v120
	.byte		N02   , As3 , v048
	.byte	W06
	.byte		N06   , Gs2 , v116
	.byte	W06
	.byte		        Cs3 , v100
	.byte	W06
	.byte		        Cn3 , v120
	.byte		N02   , As3 , v048
	.byte	W06
	.byte		N06   , Cs3 , v100
	.byte		N02   , As3 , v048
	.byte	W06
	.byte		N06   , Cs3 , v100
	.byte	W06
	.byte		N06
	.byte		N02   , As3 , v048
	.byte	W06
	.byte		N06   , Cn3 , v120
	.byte		N02   , As3 , v048
	.byte	W06
	.byte		N06   , Cn3 , v120
	.byte		N02   , As3 , v048
	.byte	W06
	.byte		N06   , Cs3 , v100
	.byte		N02   , As3 , v048
	.byte	W06
	.byte		N06   , Cs3 , v100
	.byte	W06
	.byte		        Cn3 , v120
	.byte		N02   , As3 , v048
	.byte	W06
	.byte		N06   , Cs3 , v100
	.byte		N02   , As3 , v048
	.byte	W06
	.byte		N06   , Cs3 , v100
	.byte		N02   , As3 , v048
	.byte	W06
	.byte		N06   , Cs3 , v100
	.byte	W06
	.byte		        Cn3 , v120
	.byte		N02   , As3 , v048
	.byte	W06
	.byte		N06   , Cn3 , v120
	.byte		N02   , As3 , v048
	.byte	W06
	.byte		N06   , Gs2 , v116
	.byte	W06
	.byte		        Cs3 , v100
	.byte	W06
	.byte		        Cn3 , v120
	.byte		N02   , As3 , v048
	.byte	W06
	.byte		N06   , Cs3 , v100
	.byte		N02   , As3 , v048
	.byte	W06
	.byte		N06   , Cs3 , v100
	.byte		N02   , As3 , v048
	.byte	W06
	.byte		N06   , Cs3 , v100
	.byte		N02   , As3 , v048
	.byte	W06
	.byte		N06   , Cn3 , v120
	.byte		N02   , As3 , v048
	.byte	W06
	.byte		N06   , Cn3 , v120
	.byte	W06
	.byte	PEND
	.byte		N06   , Cs3 , v100
	.byte		N02   , As3 , v048
	.byte	W06
	.byte		N06   , Cs3 , v100
	.byte	W06
	.byte		        Cn3 , v120
	.byte		N02   , As3 , v048
	.byte	W06
	.byte		N06   , Cs3 , v100
	.byte		N02   , As3 , v048
	.byte	W06
	.byte		N06   , Cs3 , v100
	.byte		N02   , As3 , v048
	.byte	W06
	.byte		N06   , Cs3 , v100
	.byte	W06
	.byte		        Cn3 , v120
	.byte		N02   , As3 , v048
	.byte	W06
	.byte		N06   , Cn3 , v120
	.byte		N02   , As3 , v048
	.byte	W06
	.byte		N06   , Gs2 , v116
	.byte	W06
	.byte		        Cs3 , v100
	.byte	W06
	.byte		        Cn3 , v120
	.byte		N02   , As3 , v048
	.byte	W06
	.byte		N06   , Cs3 , v100
	.byte		N02   , As3 , v048
	.byte	W06
	.byte		N06   , Cs3 , v100
	.byte	W06
	.byte		N06
	.byte		N02   , As3 , v048
	.byte	W06
	.byte		N06   , Cn3 , v120
	.byte		N02   , As3 , v048
	.byte	W06
	.byte		N06   , Cn3 , v120
	.byte		N02   , As3 , v048
	.byte	W06
	.byte	PEND
	.byte	PATT
	 .word	song_course_smk_vanilla_5 + 0xC1
	.byte	PATT
	 .word	song_course_smk_vanilla_5 + 0x63
	.byte	PATT
	 .word	song_course_smk_vanilla_5 + 0xC1
	.byte	PATT
	 .word	song_course_smk_vanilla_5 + 0x63
	.byte		N06   , Cs3 , v100
	.byte		N02   , As3 , v048
	.byte	W06
	.byte		N06   , Cs3 , v100
	.byte	W06
	.byte		        Cn3 , v120
	.byte		N02   , As3 , v048
	.byte	W06
	.byte		N06   , Cs3 , v100
	.byte		N02   , As3 , v048
	.byte	W06
	.byte		N06   , Cs3 , v100
	.byte		N02   , As3 , v048
	.byte	W06
	.byte		N06   , Cs3 , v100
	.byte		N02   , As3 , v048
	.byte	W06
	.byte		N06   , Cn3 , v120
	.byte		N02   , As3 , v048
	.byte	W06
	.byte		N06   , Cn3 , v120
	.byte		N02   , As3 , v048
	.byte	W06
	.byte		N06   , Gs2 , v116
	.byte	W06
	.byte		        Cs3 , v100
	.byte	W06
	.byte		        Cn3 , v120
	.byte		N02   , As3 , v048
	.byte	W06
	.byte		N06   , Cs3 , v100
	.byte		N02   , As3 , v048
	.byte	W06
	.byte		N06   , Cs3 , v100
	.byte		N02   , As3 , v048
	.byte	W06
	.byte		N06   , Cs3 , v100
	.byte	W06
	.byte		        Cn3 , v120
	.byte		N02   , As3 , v048
	.byte	W06
	.byte		N06   , Cn3 , v120
	.byte		N02   , As3 , v048
	.byte	W06
	.byte	PATT
	 .word	song_course_smk_vanilla_5 + 0xC1
	.byte	PATT
	 .word	song_course_smk_vanilla_5 + 0x63
	.byte	PATT
	 .word	song_course_smk_vanilla_5 + 0xC1
	.byte	PATT
	 .word	song_course_smk_vanilla_5 + 0xC1
	.byte		N06   , Gs2 , v116
	.byte	W12
	.byte		N06
	.byte	W12
	.byte		N06
	.byte	W06
	.byte		N06
	.byte	W12
	.byte		N06
	.byte	W06
	.byte		N06
	.byte	W06
	.byte		        Cs3 , v100
	.byte	W06
	.byte		        Gs2 , v116
	.byte	W06
	.byte		N06
	.byte	W06
	.byte		N06
	.byte	W06
	.byte		N06
	.byte	W06
	.byte		N06
	.byte	W06
	.byte		        Cn3 , v120
	.byte	W06
	.byte		        Gs2 , v116
	.byte	W06
	.byte		        Cs3 , v100
	.byte	W06
	.byte		        Cn3 , v120
	.byte	W06
	.byte		        Gs2 , v116
	.byte	W06
	.byte		        Cs3 , v100
	.byte	W06
	.byte		        Gs2 , v116
	.byte	W06
	.byte		        Cn3 , v120
	.byte	W06
	.byte		        Gs2 , v116
	.byte	W06
	.byte		N06
	.byte	W06
	.byte		        Cs3 , v100
	.byte	W06
	.byte		        Cn3 , v120
	.byte		N02   , As3 , v048
	.byte	W06
	.byte		N06   , Cs3 , v100
	.byte		N02   , As3 , v048
	.byte	W06
	.byte		N06   , Cs3 , v100
	.byte	W06
	.byte		N06
	.byte		N02   , As3 , v048
	.byte	W06
	.byte		N06   , Cn3 , v120
	.byte		N02   , As3 , v048
	.byte	W06
	.byte		N06   , Cn3 , v120
	.byte		N02   , As3 , v048
	.byte	W06
	.byte	GOTO
	 .word	song_course_smk_vanilla_5 + 0x2
	.byte	FINE

@******************************************************@

	.align	2

song_course_smk_vanilla:
	.byte	6	@ NumTrks
	.byte	0	@ NumBlks
	.byte	song_course_smk_vanilla_pri	@ Priority
	.byte	song_course_smk_vanilla_rev	@ Reverb

	.word	song_course_smk_vanilla_grp

	.word	song_course_smk_vanilla_0
	.word	song_course_smk_vanilla_1
	.word	song_course_smk_vanilla_2
	.word	song_course_smk_vanilla_3
	.word	song_course_smk_vanilla_4
	.word	song_course_smk_vanilla_5

	.end
