@ File generated by m4a2s Song-Module
	.include "MPlayDef.s"

	.equ	song_course_smk_beach_grp, bank_course_smk_beach
	.equ	song_course_smk_beach_pri, 0
	.equ	song_course_smk_beach_rev, 148
	.equ	song_course_smk_beach_mvl, 127
	.equ	song_course_smk_beach_key, 0

	.section .rodata
	.global	song_course_smk_beach
	.align	2

@*********************** Track 01 ***********************@

song_course_smk_beach_0:
	.byte	KEYSH , song_course_smk_beach_key+0
	.byte	TEMPO , 120/2
	.byte		VOICE , 4
	.byte		VOL   , 90*song_course_smk_beach_mvl/mxv
	.byte		PAN   , c_v+0
	.byte	W24
	.byte		N12   , En3 , v127
	.byte	W12
	.byte		        Fn3 
	.byte	W12
	.byte		        Gn3 
	.byte	W12
	.byte		        Dn4 
	.byte	W24
	.byte		N06   , Cn4 
	.byte	W06
	.byte		        Gn3 
	.byte	W06
	.byte		TIE   , Fn3 , v127
	.byte	W84
	.byte	W03
	.byte		VOL   , 88*song_course_smk_beach_mvl/mxv
	.byte	W03
	.byte		        85*song_course_smk_beach_mvl/mxv
	.byte	W03
	.byte		        78*song_course_smk_beach_mvl/mxv
	.byte	W03
	.byte	PEND
	.byte		VOL   , 70*song_course_smk_beach_mvl/mxv
	.byte	W03
	.byte		        58*song_course_smk_beach_mvl/mxv
	.byte	W03
	.byte		        45*song_course_smk_beach_mvl/mxv
	.byte	W03
	.byte		        29*song_course_smk_beach_mvl/mxv
	.byte	W03
	.byte	PEND
	.byte		EOT   , Fn3 
	.byte		VOL   , 14*song_course_smk_beach_mvl/mxv
	.byte	W12
	.byte		        90*song_course_smk_beach_mvl/mxv
	.byte		N12   , Dn3 , v127
	.byte	W12
	.byte		        En3 
	.byte	W12
	.byte		        Fn3 
	.byte	W12
	.byte		N24   , Cn4 
	.byte	W24
	.byte		N06   , Bn3 
	.byte	W06
	.byte		        Gn3 
	.byte	W06
	.byte		N36   , An3 , v127
	.byte	W24
	.byte	W03
	.byte		VOL   , 84*song_course_smk_beach_mvl/mxv
	.byte	W03
	.byte		        70*song_course_smk_beach_mvl/mxv
	.byte	W03
	.byte		        44*song_course_smk_beach_mvl/mxv
	.byte	W03
	.byte		        90*song_course_smk_beach_mvl/mxv
	.byte		N06   , Gn3 
	.byte	W06
	.byte		        Fn3 
	.byte	W06
	.byte		N68   , En3 
	.byte	W48
	.byte	PEND
	.byte	W03
	.byte		VOL   , 88*song_course_smk_beach_mvl/mxv
	.byte	W03
	.byte		        85*song_course_smk_beach_mvl/mxv
	.byte	W03
	.byte		        78*song_course_smk_beach_mvl/mxv
	.byte	W03
	.byte		        70*song_course_smk_beach_mvl/mxv
	.byte	W03
	.byte		        58*song_course_smk_beach_mvl/mxv
	.byte	W03
	.byte		        45*song_course_smk_beach_mvl/mxv
	.byte	W03
	.byte		        29*song_course_smk_beach_mvl/mxv
	.byte	W03
	.byte		        90*song_course_smk_beach_mvl/mxv
	.byte		N12
	.byte	W12
	.byte		        Fn3 
	.byte	W12
	.byte		        Gn3 
	.byte	W12
	.byte		N24   , As3 
	.byte	W24
	.byte		N06   , An3 
	.byte	W06
	.byte		        En3 
	.byte	W06
	.byte		N36   , Gn3 
	.byte	W24
	.byte	W03
	.byte		VOL   , 84*song_course_smk_beach_mvl/mxv
	.byte	W03
	.byte		        70*song_course_smk_beach_mvl/mxv
	.byte	W03
	.byte		        44*song_course_smk_beach_mvl/mxv
	.byte	W03
	.byte		        90*song_course_smk_beach_mvl/mxv
	.byte		N06   , Fn3 
	.byte	W06
	.byte		        En3 
	.byte	W06
	.byte		N68   , Fn3 
	.byte	W48
	.byte	W03
	.byte		VOL   , 88*song_course_smk_beach_mvl/mxv
	.byte	W03
	.byte		        85*song_course_smk_beach_mvl/mxv
	.byte	W03
	.byte		        79*song_course_smk_beach_mvl/mxv
	.byte	W03
	.byte		        71*song_course_smk_beach_mvl/mxv
	.byte	W03
	.byte		        61*song_course_smk_beach_mvl/mxv
	.byte	W03
	.byte		        49*song_course_smk_beach_mvl/mxv
	.byte	W03
	.byte		        34*song_course_smk_beach_mvl/mxv
	.byte	W03
	.byte		        90*song_course_smk_beach_mvl/mxv
	.byte		N12   , Fs3 
	.byte	W12
	.byte		        Gn3 
	.byte	W12
	.byte		        An3 
	.byte	W12
	.byte		N24   , Bn3 
	.byte	W24
	.byte		N12   , Cn4 
	.byte	W12
	.byte		N24   , En4 
	.byte	W24
	.byte		        Dn4 
	.byte	W24
	.byte		        Bn3 
	.byte	W24
	.byte		N12   , An3 
	.byte	W12
	.byte		        Gn3 
	.byte	W12
	.byte		N18
	.byte	W09
	.byte		VOL   , 83*song_course_smk_beach_mvl/mxv
	.byte	W03
	.byte		        65*song_course_smk_beach_mvl/mxv
	.byte	W03
	.byte		        36*song_course_smk_beach_mvl/mxv
	.byte	W03
	.byte		        0*song_course_smk_beach_mvl/mxv
	.byte	W06
	.byte		        90*song_course_smk_beach_mvl/mxv
	.byte		N12   , En3 
	.byte	W12
	.byte		        Fn3 
	.byte	W12
	.byte		        Gn3 
	.byte	W12
	.byte		N24   , Dn4 
	.byte	W24
	.byte		N06   , Cn4 
	.byte	W06
	.byte		        Gn3 
	.byte	W06
	.byte	PATT
	 .word	song_course_smk_beach_0 + 0x1A
	.byte	PATT
	 .word	song_course_smk_beach_0 + 0x27
	.byte		EOT   , Fn3 
	.byte		VOL   , 14*song_course_smk_beach_mvl/mxv
	.byte	W12
	.byte		        90*song_course_smk_beach_mvl/mxv
	.byte		N12   , Dn3 , v127
	.byte	W12
	.byte		        En3 
	.byte	W12
	.byte		        Fn3 
	.byte	W12
	.byte		N24   , Cn4 
	.byte	W24
	.byte		N06   , Bn3 
	.byte	W06
	.byte		        Gn3 
	.byte	W06
	.byte	PATT
	 .word	song_course_smk_beach_0 + 0x47
	.byte	W03
	.byte		VOL   , 88*song_course_smk_beach_mvl/mxv
	.byte	W03
	.byte		        85*song_course_smk_beach_mvl/mxv
	.byte	W03
	.byte		        78*song_course_smk_beach_mvl/mxv
	.byte	W03
	.byte		        70*song_course_smk_beach_mvl/mxv
	.byte	W03
	.byte		        58*song_course_smk_beach_mvl/mxv
	.byte	W03
	.byte		        45*song_course_smk_beach_mvl/mxv
	.byte	W03
	.byte		        29*song_course_smk_beach_mvl/mxv
	.byte	W03
	.byte		        90*song_course_smk_beach_mvl/mxv
	.byte		N24   , Gn3 , v127
	.byte	W24
	.byte		        Fn3 
	.byte	W24
	.byte		        En3 
	.byte	W24
	.byte		N24
	.byte	W24
	.byte		        Dn3 
	.byte	W24
	.byte		N12   , Cs3 
	.byte	W12
	.byte		        Dn3 
	.byte	W24
	.byte		        Gn3 
	.byte	W12
	.byte	W12
	.byte		N12
	.byte	W12
	.byte		N24   , Fn3 
	.byte	W24
	.byte		        En3 
	.byte	W24
	.byte		        Dn3 
	.byte	W24
	.byte		        Fn3 
	.byte	W24
	.byte		        En3 
	.byte	W24
	.byte		        Ds3 
	.byte	W24
	.byte		N12   , En3 
	.byte	W12
	.byte		        Bn3 
	.byte	W12
	.byte	W24
	.byte		        Gs2 
	.byte	W12
	.byte		        An2 
	.byte	W12
	.byte		        As2 
	.byte	W12
	.byte		N24   , Fn3 
	.byte	W24
	.byte		N06   , En3 
	.byte	W06
	.byte		        Cs3 
	.byte	W06
	.byte		N36   , En3 
	.byte	W21
	.byte		VOL   , 87*song_course_smk_beach_mvl/mxv
	.byte	W03
	.byte		        80*song_course_smk_beach_mvl/mxv
	.byte	W03
	.byte		        69*song_course_smk_beach_mvl/mxv
	.byte	W03
	.byte		        54*song_course_smk_beach_mvl/mxv
	.byte	W03
	.byte		        34*song_course_smk_beach_mvl/mxv
	.byte	W03
	.byte		        90*song_course_smk_beach_mvl/mxv
	.byte		N12   , Dn3 
	.byte	W12
	.byte		N36
	.byte	W21
	.byte		VOL   , 87*song_course_smk_beach_mvl/mxv
	.byte	W03
	.byte		        80*song_course_smk_beach_mvl/mxv
	.byte	W03
	.byte		        69*song_course_smk_beach_mvl/mxv
	.byte	W03
	.byte		        54*song_course_smk_beach_mvl/mxv
	.byte	W03
	.byte		        34*song_course_smk_beach_mvl/mxv
	.byte	W03
	.byte		        90*song_course_smk_beach_mvl/mxv
	.byte		N12   , Cn3 
	.byte	W12
	.byte		N24
	.byte	W24
	.byte		        Bn2 
	.byte	W24
	.byte		        An2 
	.byte	W24
	.byte		        Bn2 
	.byte	W24
	.byte		N36   , Cn3 
	.byte	W36
	.byte		N12
	.byte	W12
	.byte		N36
	.byte	W36
	.byte		N12
	.byte	W12
	.byte		N24
	.byte	W15
	.byte		VOL   , 84*song_course_smk_beach_mvl/mxv
	.byte	W03
	.byte		        70*song_course_smk_beach_mvl/mxv
	.byte	W03
	.byte		        44*song_course_smk_beach_mvl/mxv
	.byte	W03
	.byte		        90*song_course_smk_beach_mvl/mxv
	.byte		N12   , En3 
	.byte	W12
	.byte		        Fn3 
	.byte	W12
	.byte		        Gn3 
	.byte	W12
	.byte		N24   , Dn4 
	.byte	W24
	.byte		N06   , Cn4 
	.byte	W06
	.byte		        Gn3 
	.byte	W06
	.byte	GOTO
	 .word	song_course_smk_beach_0 + 0x1A
	.byte	FINE

@*********************** Track 02 ***********************@

song_course_smk_beach_1:
	.byte	KEYSH , song_course_smk_beach_key+0
	.byte		VOICE , 34
	.byte		VOL   , 90*song_course_smk_beach_mvl/mxv
	.byte		PAN   , c_v+0
	.byte	W96
	.byte		N15   , Dn2 , v127
	.byte	W18
	.byte		N06   , An1 
	.byte	W06
	.byte		N15
	.byte	W18
	.byte		N06   , Dn2 
	.byte	W06
	.byte		N15
	.byte	W18
	.byte		N06   , An1 
	.byte	W06
	.byte		N10
	.byte	W12
	.byte		        Gs1 
	.byte	W12
	.byte	PEND
	.byte		N15   , Gn1 
	.byte	W18
	.byte		N06   , Dn2 
	.byte	W06
	.byte		N15
	.byte	W18
	.byte		N06   , Gn1 
	.byte	W06
	.byte		N21
	.byte	W24
	.byte		        Bn1 
	.byte	W24
	.byte		N15   , Cn2 
	.byte	W18
	.byte		N06   , Gn1 
	.byte	W06
	.byte		N18
	.byte	W24
	.byte		N10   , Cn2 
	.byte	W12
	.byte		N10
	.byte	W12
	.byte		        Bn1 
	.byte	W12
	.byte		N10
	.byte	W12
	.byte		N15   , An1 , v127
	.byte	W18
	.byte		N06
	.byte	W06
	.byte		N21
	.byte	W24
	.byte		        Bn1 
	.byte	W24
	.byte		        Cs2 
	.byte	W24
	.byte	PEND
	.byte		N15   , Dn2 
	.byte	W18
	.byte		N06   , An1 
	.byte	W06
	.byte		N15
	.byte	W18
	.byte		N06   , Dn2 
	.byte	W06
	.byte		N15
	.byte	W18
	.byte		N06   , An1 
	.byte	W06
	.byte		N15
	.byte	W18
	.byte		N06   , Dn2 
	.byte	W06
	.byte		N15   , Dn1 
	.byte	W18
	.byte		N06
	.byte	W06
	.byte		N21
	.byte	W24
	.byte		        En1 
	.byte	W24
	.byte		        Fs1 
	.byte	W24
	.byte		N18   , Gn1 
	.byte	W96
	.byte	W72
	.byte		N21
	.byte	W24
	.byte	PATT
	 .word	song_course_smk_beach_1 + 0x9
	.byte		N15   , Gn1 , v127
	.byte	W18
	.byte		N06   , Dn2 
	.byte	W06
	.byte		N15
	.byte	W18
	.byte		N06   , Gn1 
	.byte	W06
	.byte		N18
	.byte	W24
	.byte		N21   , An1 
	.byte	W24
	.byte		N15   , As1 
	.byte	W18
	.byte		N06
	.byte	W06
	.byte		N21
	.byte	W24
	.byte		N15
	.byte	W18
	.byte		N06
	.byte	W06
	.byte		N21
	.byte	W24
	.byte	PATT
	 .word	song_course_smk_beach_1 + 0x3F
	.byte		N15   , Dn2 , v127
	.byte	W18
	.byte		N06   , An1 
	.byte	W06
	.byte		N15
	.byte	W18
	.byte		N06   , Dn2 
	.byte	W06
	.byte		N15
	.byte	W18
	.byte		N06   , Dn1 
	.byte	W06
	.byte		N15
	.byte	W18
	.byte		N06   , En1 
	.byte	W06
	.byte		N15   , Fn1 
	.byte	W18
	.byte		N06
	.byte	W06
	.byte		N15
	.byte	W18
	.byte		N06
	.byte	W06
	.byte		N21
	.byte	W24
	.byte		N21
	.byte	W24
	.byte		N15   , En1 
	.byte	W18
	.byte		N06
	.byte	W06
	.byte		N21
	.byte	W24
	.byte		N15
	.byte	W18
	.byte		N06
	.byte	W06
	.byte		N21
	.byte	W24
	.byte		        An1 
	.byte	W96
	.byte		N15   , Dn1 
	.byte	W18
	.byte		N06
	.byte	W06
	.byte		N21
	.byte	W24
	.byte		        En1 
	.byte	W24
	.byte		        Fn1 
	.byte	W24
	.byte		N15   , Gn1 
	.byte	W18
	.byte		N06
	.byte	W06
	.byte		N21
	.byte	W24
	.byte		N15
	.byte	W18
	.byte		N06
	.byte	W06
	.byte		N21
	.byte	W24
	.byte		N15   , An1 
	.byte	W18
	.byte		N06
	.byte	W06
	.byte		N21
	.byte	W24
	.byte		N15   , Dn1 
	.byte	W18
	.byte		N06
	.byte	W06
	.byte		N21
	.byte	W24
	.byte		N15   , Gn1 
	.byte	W96
	.byte	GOTO
	 .word	song_course_smk_beach_1 + 0x9
	.byte	FINE

@*********************** Track 03 ***********************@

song_course_smk_beach_2:
	.byte	KEYSH , song_course_smk_beach_key+0
	.byte		VOICE , 123
	.byte		PAN   , c_v+0
	.byte		VOL   , 77*song_course_smk_beach_mvl/mxv
	.byte	W24
	.byte		N12   , En2 , v080
	.byte	W12
	.byte		        Fn2 
	.byte	W12
	.byte		        Gn2 
	.byte	W12
	.byte		        Dn3 
	.byte	W24
	.byte		N06   , Cn3 
	.byte	W06
	.byte		        Gn2 
	.byte	W06
	.byte		N66   , Fn2 , v080
	.byte	W96
	.byte	W24
	.byte		N12   , Dn2 , v080
	.byte	W12
	.byte		        En2 
	.byte	W12
	.byte		        Fn2 
	.byte	W12
	.byte		N24   , Cn3 
	.byte	W24
	.byte		N06   , Bn2 
	.byte	W06
	.byte		        Gn2 
	.byte	W06
	.byte	PEND
	.byte		N36   , An2 , v080
	.byte	W36
	.byte		N06   , Gn2 
	.byte	W06
	.byte		        Fn2 
	.byte	W06
	.byte		N54   , En2 
	.byte	W48
	.byte	PEND
	.byte	W24
	.byte		N12
	.byte	W12
	.byte		        Fn2 
	.byte	W12
	.byte		        Gn2 
	.byte	W12
	.byte		N24   , As2 
	.byte	W24
	.byte		N06   , An2 
	.byte	W06
	.byte		        En2 
	.byte	W06
	.byte		N36   , Gn2 
	.byte	W36
	.byte		N06   , Fn2 
	.byte	W06
	.byte		        En2 
	.byte	W06
	.byte		N54   , Fn2 
	.byte	W48
	.byte	W24
	.byte		N12   , Fs2 
	.byte	W12
	.byte		        Gn2 
	.byte	W12
	.byte		        An2 
	.byte	W12
	.byte		N24   , Bn2 
	.byte	W24
	.byte		N12   , Cn3 
	.byte	W12
	.byte		N24   , En3 
	.byte	W24
	.byte		        Dn3 
	.byte	W24
	.byte		        Bn2 
	.byte	W24
	.byte		N12   , An2 
	.byte	W12
	.byte		        Gn2 
	.byte	W12
	.byte		N18
	.byte	W24
	.byte		N12   , En2 
	.byte	W12
	.byte		        Fn2 
	.byte	W12
	.byte		        Gn2 
	.byte	W12
	.byte		N24   , Dn3 
	.byte	W24
	.byte		N06   , Cn3 
	.byte	W06
	.byte		        Gn2 
	.byte	W06
	.byte		N90   , Fn2 
	.byte	W96
	.byte	PATT
	 .word	song_course_smk_beach_2 + 0x1C
	.byte	PATT
	 .word	song_course_smk_beach_2 + 0x2E
	.byte	W24
	.byte		N24   , Gn2 , v080
	.byte	W24
	.byte		        Fn2 
	.byte	W24
	.byte		        En2 
	.byte	W24
	.byte		N24
	.byte	W24
	.byte		        Dn2 
	.byte	W24
	.byte		N12   , Cs2 
	.byte	W12
	.byte		        Dn2 
	.byte	W24
	.byte		        Gn2 
	.byte	W12
	.byte	W12
	.byte		N12
	.byte	W12
	.byte		N24   , Fn2 
	.byte	W24
	.byte		        En2 
	.byte	W24
	.byte		        Dn2 
	.byte	W24
	.byte		        Fn2 
	.byte	W24
	.byte		        En2 
	.byte	W24
	.byte		        Ds2 
	.byte	W24
	.byte		N12   , En2 
	.byte	W12
	.byte		        Bn2 
	.byte	W12
	.byte	W24
	.byte		        Gs1 
	.byte	W12
	.byte		        An1 
	.byte	W12
	.byte		        As1 
	.byte	W12
	.byte		N24   , Fn2 
	.byte	W24
	.byte		N06   , En2 
	.byte	W06
	.byte		        Cs2 
	.byte	W06
	.byte		N36   , En2 
	.byte	W36
	.byte		N12   , Dn2 
	.byte	W12
	.byte		N36
	.byte	W36
	.byte		N12   , Cn2 
	.byte	W12
	.byte		N24
	.byte	W24
	.byte		        Bn1 
	.byte	W24
	.byte		        An1 
	.byte	W24
	.byte		        Bn1 
	.byte	W24
	.byte		N32   , Cn2 
	.byte	W36
	.byte		N11
	.byte	W12
	.byte		N32
	.byte	W36
	.byte		N11
	.byte	W12
	.byte		N24
	.byte	W24
	.byte		N12   , En2 
	.byte	W12
	.byte		        Fn2 
	.byte	W12
	.byte		        Gn2 
	.byte	W12
	.byte		N24   , Dn3 
	.byte	W24
	.byte		N06   , Cn3 
	.byte	W06
	.byte		        Gn2 
	.byte	W06
	.byte	GOTO
	 .word	song_course_smk_beach_2 + 0x18
	.byte	FINE

@*********************** Track 04 ***********************@

song_course_smk_beach_3:
	.byte	KEYSH , song_course_smk_beach_key+0
	.byte		VOICE , 122
	.byte		PAN   , c_v+63
	.byte		VOL   , 90*song_course_smk_beach_mvl/mxv
	.byte	W96
	.byte		N04   , An4 , v072
	.byte	W12
	.byte		        Cn4 , v060
	.byte	W06
	.byte		        An4 , v072
	.byte	W12
	.byte		        Cn4 , v060
	.byte	W06
	.byte		        An4 , v072
	.byte	W12
	.byte		        Cn4 , v060
	.byte	W06
	.byte		        An4 , v072
	.byte	W12
	.byte		        Cn4 , v060
	.byte	W06
	.byte		        An4 , v072
	.byte	W12
	.byte		        Cn4 , v060
	.byte	W12
	.byte	PEND
	.byte		N04   , An4 , v072
	.byte	W12
	.byte		        Bn3 , v060
	.byte	W06
	.byte		        An4 , v072
	.byte	W12
	.byte		        Bn3 , v060
	.byte	W06
	.byte		        An4 , v072
	.byte	W12
	.byte		        Bn3 , v060
	.byte	W06
	.byte		        An4 , v072
	.byte	W12
	.byte		        Bn3 , v060
	.byte	W06
	.byte		        An4 , v072
	.byte	W12
	.byte		        Bn3 , v060
	.byte	W12
	.byte	PEND
	.byte		        Gn4 , v072
	.byte	W12
	.byte		        Bn3 , v060
	.byte	W06
	.byte		        Gn4 , v072
	.byte	W12
	.byte		        Bn3 , v060
	.byte	W06
	.byte		        Gn4 , v072
	.byte	W12
	.byte		        Bn3 , v060
	.byte	W06
	.byte		        Gn4 , v072
	.byte	W12
	.byte		        Bn3 , v060
	.byte	W06
	.byte		        Gn4 , v072
	.byte	W12
	.byte		        Bn3 , v060
	.byte	W12
	.byte		        Gn4 , v072
	.byte	W12
	.byte		        As3 , v060
	.byte	W06
	.byte		        Gn4 , v072
	.byte	W12
	.byte		        As3 , v060
	.byte	W06
	.byte		        Gn4 , v072
	.byte	W12
	.byte		        As3 , v060
	.byte	W06
	.byte		        Gn4 , v072
	.byte	W12
	.byte		        As3 , v060
	.byte	W06
	.byte		        Gn4 , v072
	.byte	W12
	.byte		        As3 , v060
	.byte	W12
	.byte		N04   , Fn4 , v072
	.byte	W12
	.byte		        An3 , v060
	.byte	W06
	.byte		        Fn4 , v072
	.byte	W12
	.byte		        An3 , v060
	.byte	W06
	.byte		        Fn4 , v072
	.byte	W12
	.byte		        An3 , v060
	.byte	W06
	.byte		        Fn4 , v072
	.byte	W12
	.byte		        An3 , v060
	.byte	W06
	.byte		        Fn4 , v072
	.byte	W12
	.byte		        An3 , v060
	.byte	W12
	.byte	PEND
	.byte		        Fs4 , v072
	.byte	W12
	.byte		        Cn4 , v060
	.byte	W06
	.byte		        Fs4 , v072
	.byte	W12
	.byte		        Cn4 , v060
	.byte	W06
	.byte		        Fs4 , v072
	.byte	W12
	.byte		        Cn4 , v060
	.byte	W06
	.byte		        Fs4 , v072
	.byte	W12
	.byte		        Cn4 , v060
	.byte	W06
	.byte		        Fs4 , v072
	.byte	W12
	.byte		        Cn4 , v060
	.byte	W12
	.byte		        Gn4 , v072
	.byte	W96
	.byte	W96
	.byte	PATT
	 .word	song_course_smk_beach_3 + 0x9
	.byte	PATT
	 .word	song_course_smk_beach_3 + 0x29
	.byte		N04   , Gn4 , v072
	.byte	W12
	.byte		        Dn4 , v060
	.byte	W06
	.byte		        Gn4 , v072
	.byte	W12
	.byte		        Dn4 , v060
	.byte	W06
	.byte		        Gn4 , v072
	.byte	W12
	.byte		        Dn4 , v060
	.byte	W06
	.byte		        Gn4 , v072
	.byte	W12
	.byte		        Dn4 , v060
	.byte	W06
	.byte		        Gn4 , v072
	.byte	W12
	.byte		        Dn4 , v060
	.byte	W12
	.byte		        Gn4 , v072
	.byte	W12
	.byte		        Cs4 , v060
	.byte	W06
	.byte		        Gn4 , v072
	.byte	W12
	.byte		        Cs4 , v060
	.byte	W06
	.byte		        Gn4 , v072
	.byte	W12
	.byte		        Cs4 , v060
	.byte	W06
	.byte		        Gn4 , v072
	.byte	W12
	.byte		        Cs4 , v060
	.byte	W06
	.byte		        Gn4 , v072
	.byte	W12
	.byte		        Cs4 , v060
	.byte	W12
	.byte	PATT
	 .word	song_course_smk_beach_3 + 0x85
	.byte		N04   , Gs4 , v072
	.byte	W12
	.byte		        Cn4 , v060
	.byte	W06
	.byte		        Gs4 , v072
	.byte	W12
	.byte		        Cn4 , v060
	.byte	W06
	.byte		        Gs4 , v072
	.byte	W12
	.byte		        Cn4 , v060
	.byte	W06
	.byte		        Gs4 , v072
	.byte	W12
	.byte		        Cn4 , v060
	.byte	W06
	.byte		        Gs4 , v072
	.byte	W12
	.byte		        Bn3 , v060
	.byte	W12
	.byte		        Gn4 , v072
	.byte	W12
	.byte		        Bn3 , v060
	.byte	W06
	.byte		        Gn4 , v072
	.byte	W12
	.byte		        Bn3 , v060
	.byte	W06
	.byte		        Gn4 , v072
	.byte	W12
	.byte		        Bn3 , v060
	.byte	W06
	.byte		        Gn4 , v072
	.byte	W12
	.byte		        Bn3 , v060
	.byte	W06
	.byte		        Gn4 , v072
	.byte	W12
	.byte		        Cn4 , v068
	.byte	W12
	.byte		        Cs4 , v072
	.byte	W96
	.byte		N04   , En4 , v072
	.byte	W12
	.byte		        An3 , v060
	.byte	W06
	.byte		        En4 , v072
	.byte	W12
	.byte		        An3 , v060
	.byte	W06
	.byte		        En4 , v072
	.byte	W12
	.byte		        An3 , v060
	.byte	W06
	.byte		        En4 , v072
	.byte	W12
	.byte		        An3 , v060
	.byte	W06
	.byte		        En4 , v072
	.byte	W12
	.byte		        An3 , v060
	.byte	W12
	.byte	PEND
	.byte	PATT
	 .word	song_course_smk_beach_3 + 0x153
	.byte		N04   , Cn4 , v072
	.byte	W12
	.byte		        Gn3 , v060
	.byte	W06
	.byte		        Cn4 , v072
	.byte	W12
	.byte		        Gn3 , v060
	.byte	W06
	.byte		        Cn4 , v072
	.byte	W12
	.byte		        Fs3 , v060
	.byte	W06
	.byte		        Cn4 , v072
	.byte	W12
	.byte		        Fs3 , v060
	.byte	W06
	.byte		        Cn4 , v072
	.byte	W12
	.byte		        Fs3 , v060
	.byte	W12
	.byte		        Cn4 , v072
	.byte	W96
	.byte	GOTO
	 .word	song_course_smk_beach_3 + 0x9
	.byte	FINE

@*********************** Track 05 ***********************@

song_course_smk_beach_4:
	.byte	KEYSH , song_course_smk_beach_key+0
	.byte		VOICE , 121
	.byte		VOL   , 90*song_course_smk_beach_mvl/mxv
	.byte		PAN   , c_v-64
	.byte	W96
	.byte		N04   , Fn4 , v072
	.byte	W12
	.byte		        An3 , v060
	.byte	W06
	.byte		        Fn4 , v072
	.byte	W12
	.byte		        An3 , v060
	.byte	W06
	.byte		        Fn4 , v072
	.byte	W12
	.byte		        An3 , v060
	.byte	W06
	.byte		        Fn4 , v072
	.byte	W12
	.byte		        An3 , v060
	.byte	W06
	.byte		        Fn4 , v072
	.byte	W12
	.byte		        An3 , v060
	.byte	W12
	.byte	PEND
	.byte		N04   , Fn4 , v072
	.byte	W12
	.byte		        Gn3 , v060
	.byte	W06
	.byte		        Fn4 , v072
	.byte	W12
	.byte		        Gn3 , v060
	.byte	W06
	.byte		        Fn4 , v072
	.byte	W12
	.byte		        Gn3 , v060
	.byte	W06
	.byte		        Fn4 , v072
	.byte	W12
	.byte		        Gn3 , v060
	.byte	W06
	.byte		        Fn4 , v072
	.byte	W12
	.byte		        Gn3 , v060
	.byte	W12
	.byte	PEND
	.byte		        En4 , v072
	.byte	W12
	.byte		        Gn3 , v060
	.byte	W06
	.byte		        En4 , v072
	.byte	W12
	.byte		        Gn3 , v060
	.byte	W06
	.byte		        En4 , v072
	.byte	W12
	.byte		        Gn3 , v060
	.byte	W06
	.byte		        En4 , v072
	.byte	W12
	.byte		        Gn3 , v060
	.byte	W06
	.byte		        En4 , v072
	.byte	W12
	.byte		        Gn3 , v060
	.byte	W12
	.byte		        Cs4 , v072
	.byte	W12
	.byte		        Gn3 , v060
	.byte	W06
	.byte		        Cs4 , v072
	.byte	W12
	.byte		        Gn3 , v060
	.byte	W06
	.byte		        Cs4 , v072
	.byte	W12
	.byte		        Gn3 , v060
	.byte	W06
	.byte		        Cs4 , v072
	.byte	W12
	.byte		        Gn3 , v060
	.byte	W06
	.byte		        Cs4 , v072
	.byte	W12
	.byte		        Gn3 , v060
	.byte	W12
	.byte		N04   , Cn4 , v072
	.byte	W12
	.byte		        Fn3 , v060
	.byte	W06
	.byte		        Cn4 , v072
	.byte	W12
	.byte		        Fn3 , v060
	.byte	W06
	.byte		        Cn4 , v072
	.byte	W12
	.byte		        Fn3 , v060
	.byte	W06
	.byte		        Cn4 , v072
	.byte	W12
	.byte		        Fn3 , v060
	.byte	W06
	.byte		        Cn4 , v072
	.byte	W12
	.byte		        Fn3 , v060
	.byte	W12
	.byte	PEND
	.byte		        Dn4 , v072
	.byte	W12
	.byte		        An3 , v060
	.byte	W06
	.byte		        Dn4 , v072
	.byte	W12
	.byte		        An3 , v060
	.byte	W06
	.byte		        Dn4 , v072
	.byte	W12
	.byte		        An3 , v060
	.byte	W06
	.byte		        Dn4 , v072
	.byte	W12
	.byte		        An3 , v060
	.byte	W06
	.byte		        Dn4 , v072
	.byte	W12
	.byte		        An3 , v060
	.byte	W12
	.byte		        En4 , v072
	.byte	W96
	.byte	W96
	.byte	PATT
	 .word	song_course_smk_beach_4 + 0x9
	.byte	PATT
	 .word	song_course_smk_beach_4 + 0x29
	.byte		N04   , Dn4 , v072
	.byte	W12
	.byte		        Gn3 , v060
	.byte	W06
	.byte		        Dn4 , v072
	.byte	W12
	.byte		        Gn3 , v060
	.byte	W06
	.byte		        Dn4 , v072
	.byte	W12
	.byte		        Gn3 , v060
	.byte	W06
	.byte		        Dn4 , v072
	.byte	W12
	.byte		        Gn3 , v060
	.byte	W06
	.byte		        Dn4 , v072
	.byte	W12
	.byte		        Gn3 , v060
	.byte	W12
	.byte		        Cs4 , v072
	.byte	W12
	.byte		        An3 , v060
	.byte	W06
	.byte		        Cs4 , v072
	.byte	W12
	.byte		        An3 , v060
	.byte	W06
	.byte		        Cs4 , v072
	.byte	W12
	.byte		        An3 , v060
	.byte	W06
	.byte		        Dn4 , v072
	.byte	W12
	.byte		        An3 , v060
	.byte	W06
	.byte		        Dn4 , v072
	.byte	W12
	.byte		        An3 , v060
	.byte	W12
	.byte		        Dn4 , v072
	.byte	W12
	.byte		        Fn3 , v060
	.byte	W06
	.byte		        Dn4 , v072
	.byte	W12
	.byte		        Fn3 , v060
	.byte	W06
	.byte		        Dn4 , v072
	.byte	W12
	.byte		        Fn3 , v060
	.byte	W06
	.byte		        Dn4 , v072
	.byte	W12
	.byte		        Fn3 , v060
	.byte	W06
	.byte		        Dn4 , v072
	.byte	W12
	.byte		        Gn3 , v060
	.byte	W12
	.byte		        Fn4 , v072
	.byte	W12
	.byte		        Gs3 , v060
	.byte	W06
	.byte		        Fn4 , v072
	.byte	W12
	.byte		        Gs3 , v060
	.byte	W06
	.byte		        Fn4 , v072
	.byte	W12
	.byte		        Gs3 , v060
	.byte	W06
	.byte		        Fn4 , v072
	.byte	W12
	.byte		        Gs3 , v060
	.byte	W06
	.byte		        Fn4 , v072
	.byte	W12
	.byte		        Gs3 , v060
	.byte	W12
	.byte		        Bn3 , v072
	.byte	W12
	.byte		        Gn3 , v060
	.byte	W06
	.byte		        Bn3 , v072
	.byte	W12
	.byte		        Gn3 , v060
	.byte	W06
	.byte		        Bn3 , v072
	.byte	W12
	.byte		        Gn3 , v060
	.byte	W06
	.byte		        Bn3 , v072
	.byte	W12
	.byte		        Gn3 , v060
	.byte	W06
	.byte		        Bn3 , v072
	.byte	W12
	.byte		        Gs3 , v060
	.byte	W12
	.byte		        An3 
	.byte	W96
	.byte	PATT
	 .word	song_course_smk_beach_4 + 0x85
	.byte	PATT
	 .word	song_course_smk_beach_4 + 0x85
	.byte		N04   , An3 , v072
	.byte	W12
	.byte		        En3 , v060
	.byte	W06
	.byte		        An3 , v072
	.byte	W12
	.byte		        En3 , v060
	.byte	W06
	.byte		        An3 , v072
	.byte	W12
	.byte		        Dn3 , v060
	.byte	W06
	.byte		        An3 , v072
	.byte	W12
	.byte		        Dn3 , v060
	.byte	W06
	.byte		        An3 , v072
	.byte	W12
	.byte		        Dn3 , v060
	.byte	W12
	.byte		        Gn3 , v072
	.byte	W96
	.byte	GOTO
	 .word	song_course_smk_beach_4 + 0x9
	.byte	FINE

@*********************** Track 06 ***********************@

song_course_smk_beach_5:
	.byte	KEYSH , song_course_smk_beach_key+0
	.byte		VOICE , 101
	.byte		PAN   , c_v-64
	.byte	W96
	.byte		VOL   , 90*song_course_smk_beach_mvl/mxv
	.byte	W96
	.byte	W96
	.byte	W96
	.byte	W96
	.byte	W96
	.byte	W96
	.byte	W96
	.byte	W96
	.byte		N96   , Cn4 , v088
	.byte	W96
	.byte		        Bn3 
	.byte	W96
	.byte		        Dn4 , v080
	.byte	W96
	.byte		N48   , Cs4 
	.byte	W48
	.byte		N24   , Dn4 
	.byte	W24
	.byte		        En4 
	.byte	W24
	.byte		        Gn4 , v068
	.byte	W24
	.byte		        Fn4 , v072
	.byte	W24
	.byte		N12   , En4 
	.byte	W12
	.byte		        Fn4 
	.byte	W24
	.byte		        As4 , v052
	.byte	W12
	.byte	W12
	.byte		N12
	.byte	W12
	.byte		N24   , Gs4 , v068
	.byte	W24
	.byte		        Gn4 , v072
	.byte	W24
	.byte		        Fn4 , v076
	.byte	W24
	.byte		VOL   , 63*song_course_smk_beach_mvl/mxv
	.byte		N96   , En4 , v088
	.byte	W96
	.byte		N84   , Cs4 , v080
	.byte	W06
	.byte		VOL   , 63*song_course_smk_beach_mvl/mxv
	.byte	W06
	.byte		        60*song_course_smk_beach_mvl/mxv
	.byte	W06
	.byte		        58*song_course_smk_beach_mvl/mxv
	.byte	W06
	.byte		        53*song_course_smk_beach_mvl/mxv
	.byte	W06
	.byte		        48*song_course_smk_beach_mvl/mxv
	.byte	W06
	.byte		        42*song_course_smk_beach_mvl/mxv
	.byte	W07
	.byte		        34*song_course_smk_beach_mvl/mxv
	.byte	W05
	.byte		        28*song_course_smk_beach_mvl/mxv
	.byte	W06
	.byte		        19*song_course_smk_beach_mvl/mxv
	.byte	W06
	.byte		        12*song_course_smk_beach_mvl/mxv
	.byte	W06
	.byte		        6*song_course_smk_beach_mvl/mxv
	.byte	W06
	.byte		        2*song_course_smk_beach_mvl/mxv
	.byte	W06
	.byte		        0*song_course_smk_beach_mvl/mxv
	.byte	W18
	.byte	W96
	.byte	W96
	.byte	W96
	.byte	W96
	.byte	GOTO
	 .word	song_course_smk_beach_5 + 0x7
	.byte	FINE

@*********************** Track 07 ***********************@

song_course_smk_beach_6:
	.byte	KEYSH , song_course_smk_beach_key+0
	.byte		VOICE , 127
	.byte		VOL   , 77*song_course_smk_beach_mvl/mxv
	.byte		PAN   , c_v+0
	.byte	W96
	.byte		N06   , Cn3 , v127
	.byte		N02   , As3 , v056
	.byte	W06
	.byte		N06   , Cs3 , v104
	.byte	W06
	.byte		        Cs3 , v124
	.byte		N02   , As3 , v052
	.byte	W06
	.byte		N06   , Cn3 , v108
	.byte		N02   , As3 , v048
	.byte	W06
	.byte		N06   , Cn3 , v127
	.byte		N02   , As3 , v056
	.byte	W06
	.byte		N06   , Cs3 , v096
	.byte	W06
	.byte		        Cs3 , v120
	.byte		N02   , As3 , v048
	.byte	W06
	.byte		N06   , Cs3 , v100
	.byte		N02   , As3 , v044
	.byte	W06
	.byte		N06   , Cs3 , v096
	.byte		N02   , As3 , v056
	.byte	W06
	.byte		N06   , Cn3 , v127
	.byte	W06
	.byte		        Cs3 , v116
	.byte		N02   , As3 , v048
	.byte	W06
	.byte		N06   , Cs3 , v104
	.byte		N02   , As3 , v044
	.byte	W06
	.byte		N06   , Cn3 , v127
	.byte		N02   , An3 , v052
	.byte	W06
	.byte		N06   , Cs3 , v108
	.byte	W06
	.byte		        Cs3 , v124
	.byte	W06
	.byte		        Cn3 , v116
	.byte	W06
	.byte	PEND
	.byte	PATT
	 .word	song_course_smk_beach_6 + 0x9
	.byte	PATT
	 .word	song_course_smk_beach_6 + 0x9
	.byte	PATT
	 .word	song_course_smk_beach_6 + 0x9
	.byte	PATT
	 .word	song_course_smk_beach_6 + 0x9
	.byte	PATT
	 .word	song_course_smk_beach_6 + 0x9
	.byte		N06   , Cn3 , v127
	.byte	W96
	.byte	W48
	.byte		        Cs3 , v120
	.byte	W06
	.byte		N02   , An3 , v052
	.byte	W06
	.byte		N06   , Cs3 , v112
	.byte		N02   , An3 , v044
	.byte	W12
	.byte		N04   , Cs3 , v116
	.byte		N02   , An3 , v052
	.byte	W04
	.byte		N04   , Cs3 , v088
	.byte	W04
	.byte		        Cs3 , v100
	.byte	W04
	.byte		        Cs3 , v088
	.byte		N02   , An3 , v044
	.byte	W04
	.byte		N04   , Cs3 , v120
	.byte	W02
	.byte		N02   , An3 , v052
	.byte	W02
	.byte		N04   , Cs3 , v096
	.byte	W04
	.byte		N06   , Cn3 , v112
	.byte		N02   , As3 , v056
	.byte	W06
	.byte		N06   , Cs3 , v084
	.byte	W06
	.byte		        Cs3 , v100
	.byte		N02   , As3 , v044
	.byte	W06
	.byte		N06   , Cn3 , v088
	.byte		N02   , As3 , v040
	.byte	W06
	.byte		N06   , Cn3 , v116
	.byte		N02   , As3 , v056
	.byte	W06
	.byte		N06   , Cs3 , v080
	.byte	W06
	.byte		        Cs3 , v096
	.byte		N02   , As3 , v040
	.byte	W06
	.byte		N06   , Cs3 , v080
	.byte		N02   , As3 , v028
	.byte	W06
	.byte		N06   , Cs3 , v080
	.byte		N02   , As3 , v056
	.byte	W06
	.byte		N06   , Cn3 , v112
	.byte	W06
	.byte		        Cs3 , v096
	.byte		N02   , As3 , v036
	.byte	W06
	.byte		N06   , Cs3 , v084
	.byte		N02   , As3 , v028
	.byte	W06
	.byte		N06   , Cn3 , v116
	.byte		N02   , An3 , v052
	.byte	W06
	.byte		N06   , Cs3 , v088
	.byte	W06
	.byte		        Cs3 , v100
	.byte	W06
	.byte		        Cn3 , v092
	.byte	W06
	.byte	PEND
	.byte	PATT
	 .word	song_course_smk_beach_6 + 0xAF
	.byte	PATT
	 .word	song_course_smk_beach_6 + 0xAF
	.byte	PATT
	 .word	song_course_smk_beach_6 + 0xAF
	.byte	PATT
	 .word	song_course_smk_beach_6 + 0xAF
	.byte	PATT
	 .word	song_course_smk_beach_6 + 0xAF
	.byte	PATT
	 .word	song_course_smk_beach_6 + 0xAF
	.byte		N06   , Cs3 , v112
	.byte		N02   , As3 , v056
	.byte	W12
	.byte		        As3 , v044
	.byte	W06
	.byte		        As3 , v040
	.byte	W06
	.byte		        As3 , v056
	.byte	W12
	.byte		        As3 , v040
	.byte	W06
	.byte		        As3 , v028
	.byte	W12
	.byte		        An3 , v052
	.byte	W06
	.byte		        An3 , v040
	.byte	W12
	.byte		N03   , Cs3 , v112
	.byte		N02   , An3 , v052
	.byte	W03
	.byte		N03   , Cs3 , v096
	.byte	W03
	.byte		        Cs3 , v104
	.byte	W03
	.byte		        Cs3 , v088
	.byte	W03
	.byte		        Cs3 , v100
	.byte		N02   , An3 , v040
	.byte	W03
	.byte		N03   , Cs3 , v092
	.byte	W03
	.byte		        Cs3 , v100
	.byte		N02   , An3 , v052
	.byte	W03
	.byte		N03   , Cs3 , v096
	.byte	W03
	.byte		N06   , Cn3 , v112
	.byte		N02   , As3 , v056
	.byte	W06
	.byte		N06   , Cs3 , v084
	.byte	W06
	.byte		        Cs3 , v100
	.byte		N02   , As3 , v044
	.byte	W06
	.byte		N06   , Cn3 , v088
	.byte		N02   , As3 , v040
	.byte	W06
	.byte		N06   , Cn3 , v116
	.byte		N02   , An3 , v052
	.byte	W06
	.byte		N06   , Cs3 , v080
	.byte	W06
	.byte		        Cs3 , v096
	.byte		N02   , As3 , v040
	.byte	W06
	.byte		N06   , Cs3 , v080
	.byte		N02   , As3 , v028
	.byte	W06
	.byte		N06   , Cs3 , v080
	.byte		N02   , As3 , v056
	.byte	W06
	.byte		N06   , Cn3 , v112
	.byte	W06
	.byte		        Cs3 , v096
	.byte		N02   , As3 , v044
	.byte	W06
	.byte		N06   , Cs3 , v084
	.byte		N02   , As3 , v040
	.byte	W06
	.byte		N06   , Cn3 , v116
	.byte		N02   , An3 , v052
	.byte	W06
	.byte		N06   , Cs3 , v088
	.byte	W06
	.byte		        Cs3 , v100
	.byte	W06
	.byte		        Cn3 , v092
	.byte	W06
	.byte	PEND
	.byte	PATT
	 .word	song_course_smk_beach_6 + 0x168
	.byte		N06   , Cn3 , v112
	.byte		N02   , As3 , v056
	.byte	W06
	.byte		N06   , Cs3 , v084
	.byte	W06
	.byte		        Cs3 , v100
	.byte		N02   , As3 , v044
	.byte	W06
	.byte		N06   , Cn3 , v088
	.byte		N02   , As3 , v040
	.byte	W06
	.byte		N06   , Cn3 , v116
	.byte		N02   , An3 , v052
	.byte	W06
	.byte		N06   , Cs3 , v080
	.byte	W06
	.byte		        Cs3 , v096
	.byte		N02   , As3 , v040
	.byte	W06
	.byte		N06   , Cs3 , v080
	.byte		N02   , As3 , v028
	.byte	W06
	.byte		N06   , Cs3 , v080
	.byte		N02   , As3 , v056
	.byte	W06
	.byte		N06   , Cn3 , v112
	.byte	W06
	.byte		        Cs3 , v096
	.byte		N02   , As3 , v044
	.byte	W06
	.byte		N06   , Cs3 , v084
	.byte		N02   , As3 , v040
	.byte	W06
	.byte		N06   , Cn3 , v116
	.byte		N02   , An3 , v052
	.byte	W06
	.byte		N06   , Cs3 , v088
	.byte	W06
	.byte		        Cs3 , v100
	.byte		N02   , As3 , v040
	.byte	W06
	.byte		N06   , Cn3 , v092
	.byte		N02   , As3 , v028
	.byte	W06
	.byte		N06   , Cs3 , v112
	.byte		N02   , An3 , v052
	.byte	W12
	.byte		        As3 , v044
	.byte	W06
	.byte		        As3 , v040
	.byte	W06
	.byte		        As3 , v056
	.byte	W12
	.byte		        As3 , v040
	.byte	W06
	.byte		        As3 , v028
	.byte	W06
	.byte		N06   , Cs3 , v120
	.byte	W06
	.byte		N02   , An3 , v052
	.byte	W06
	.byte		N06   , Cs3 , v112
	.byte	W06
	.byte		N02   , An3 , v048
	.byte	W06
	.byte		N04   , Cs3 , v116
	.byte		N02   , An3 , v052
	.byte	W04
	.byte		N04   , Cs3 , v088
	.byte	W02
	.byte		N02   , An3 , v044
	.byte	W02
	.byte		N04   , Cs3 , v100
	.byte	W04
	.byte		        Cs3 , v088
	.byte		N02   , An3 , v052
	.byte	W04
	.byte		N04   , Cs3 , v120
	.byte	W04
	.byte		        Cs3 , v096
	.byte	W04
	.byte	GOTO
	 .word	song_course_smk_beach_6 + 0x9
	.byte	FINE

@******************************************************@

	.align	2

song_course_smk_beach:
	.byte	7	@ NumTrks
	.byte	0	@ NumBlks
	.byte	song_course_smk_beach_pri	@ Priority
	.byte	song_course_smk_beach_rev	@ Reverb

	.word	song_course_smk_beach_grp

	.word	song_course_smk_beach_0
	.word	song_course_smk_beach_1
	.word	song_course_smk_beach_2
	.word	song_course_smk_beach_3
	.word	song_course_smk_beach_4
	.word	song_course_smk_beach_5
	.word	song_course_smk_beach_6

	.end
