@ File generated by m4a2s Song-Module
	.include "MPlayDef.s"

	.equ	song_title_intro_grp, bank_title
	.equ	song_title_intro_pri, 0
	.equ	song_title_intro_rev, 148
	.equ	song_title_intro_mvl, 127
	.equ	song_title_intro_key, 0

	.section .rodata
	.global	song_title_intro
	.align	2

@*********************** Track 01 ***********************@

song_title_intro_0:
	.byte	KEYSH , song_title_intro_key+0
	.byte	TEMPO , 90/2
	.byte		VOICE , 30
	.byte		VOL   , 62*song_title_intro_mvl/mxv
	.byte		BENDR , 8
	.byte		PAN   , c_v+0
	.byte	MEMACC, 0, 0, 0
	.byte		N12   , Cs3 , v108
	.byte	W06
	.byte		BEND  , c_v+0
	.byte	W01
	.byte		        c_v-2
	.byte	W01
	.byte		        c_v-32
	.byte	W10
	.byte		        c_v-16
	.byte		N06   , Cs3 , v084
	.byte	W01
	.byte		BEND  , c_v+0
	.byte	W11
	.byte		N06   , En3 , v096
	.byte	W12
	.byte		BEND  , c_v-22
	.byte		N18   , Ds3 , v092
	.byte	W01
	.byte		BEND  , c_v-11
	.byte	W01
	.byte		        c_v-4
	.byte	W01
	.byte		        c_v-1
	.byte	W01
	.byte		        c_v+0
	.byte	W14
	.byte		N06   , Bn2 
	.byte	W12
	.byte		BEND  , c_v-16
	.byte		N06   , Ds3 , v104
	.byte	W01
	.byte		BEND  , c_v-3
	.byte	W01
	.byte		        c_v+0
	.byte	W04
	.byte		N18   , Fs3 , v100
	.byte	W03
	.byte		BEND  , c_v+0
	.byte	W01
	.byte		        c_v+4
	.byte	W02
	.byte		        c_v+0
	.byte	W01
	.byte		        c_v-2
	.byte	W01
	.byte		        c_v-1
	.byte	W02
	.byte		        c_v+0
	.byte	W02
	.byte		        c_v-4
	.byte	W02
	.byte		        c_v+2
	.byte	W02
	.byte		        c_v+0
	.byte	W02
	.byte		N12   , En3 
	.byte	W07
	.byte		BEND  , c_v-4
	.byte	W01
	.byte		        c_v-32
	.byte	W10
	.byte		        c_v+0
	.byte		N06   , En3 , v080
	.byte	W12
	.byte		        Gn3 , v092
	.byte	W12
	.byte		BEND  , c_v-16
	.byte		N18   , Fs3 , v104
	.byte	W01
	.byte		BEND  , c_v-10
	.byte	W01
	.byte		        c_v-5
	.byte	W01
	.byte		        c_v-1
	.byte	W01
	.byte		        c_v+0
	.byte	W14
	.byte		N06   , Dn3 , v092
	.byte	W12
	.byte		        Fs3 , v096
	.byte	W12
	.byte		        An3 , v100
	.byte	W12
	.byte		BEND  , c_v-12
	.byte		TIE   , Gs3 , v104
	.byte	W01
	.byte		BEND  , c_v-9
	.byte	W01
	.byte		        c_v-6
	.byte	W01
	.byte		        c_v-3
	.byte	W01
	.byte		        c_v-2
	.byte	W01
	.byte		        c_v-1
	.byte	W02
	.byte		        c_v+0
	.byte	W30
	.byte	W01
	.byte		        c_v-2
	.byte	W07
	.byte		        c_v-4
	.byte	W08
	.byte		        c_v-6
	.byte	W12
	.byte		        c_v-4
	.byte	W10
	.byte		        c_v-2
	.byte	W01
	.byte		VOL   , 60*song_title_intro_mvl/mxv
	.byte	W09
	.byte		        59*song_title_intro_mvl/mxv
	.byte	W05
	.byte		        56*song_title_intro_mvl/mxv
	.byte	W04
	.byte		BEND  , c_v+0
	.byte	W01
	.byte		VOL   , 55*song_title_intro_mvl/mxv
	.byte	W01
	.byte	W03
	.byte		        51*song_title_intro_mvl/mxv
	.byte	W05
	.byte		        48*song_title_intro_mvl/mxv
	.byte	W04
	.byte		        44*song_title_intro_mvl/mxv
	.byte	W05
	.byte		        40*song_title_intro_mvl/mxv
	.byte	W05
	.byte		        35*song_title_intro_mvl/mxv
	.byte	W04
	.byte		        30*song_title_intro_mvl/mxv
	.byte	W05
	.byte		        24*song_title_intro_mvl/mxv
	.byte	W05
	.byte		EOT
	.byte	TEMPO , 88/2
	.byte		VOICE , 29
	.byte		VOL   , 78*song_title_intro_mvl/mxv
	.byte		N03   , Gs3 , v076
	.byte	W03
	.byte		        Bn3 
	.byte	W03
	.byte		        Dn4 
	.byte	W03
	.byte	MEMACC, 0, 0, 1
	.byte		        Fs4 
	.byte	W03
	.byte		        Gs4 , v068
	.byte	W03
	.byte		        Gs4 , v064
	.byte	W03
	.byte		N08   , Gs4 , v068
	.byte	W03
	.byte		VOL   , 75*song_title_intro_mvl/mxv
	.byte	W01
	.byte		        67*song_title_intro_mvl/mxv
	.byte	W01
	.byte		        55*song_title_intro_mvl/mxv
	.byte	W01
	.byte		        39*song_title_intro_mvl/mxv
	.byte	W01
	.byte		        12*song_title_intro_mvl/mxv
	.byte	W01
	.byte		        0*song_title_intro_mvl/mxv
	.byte	W01
	.byte	MEMACC, 0, 0, 2
	.byte	W03
	.byte		        78*song_title_intro_mvl/mxv
	.byte		N03
	.byte	W03
	.byte		        Gs4 , v060
	.byte	W03
	.byte		N08   , Gs4 , v068
	.byte	W03
	.byte		VOL   , 75*song_title_intro_mvl/mxv
	.byte	W01
	.byte		        67*song_title_intro_mvl/mxv
	.byte	W01
	.byte		        55*song_title_intro_mvl/mxv
	.byte	W01
	.byte		        39*song_title_intro_mvl/mxv
	.byte	W01
	.byte		        12*song_title_intro_mvl/mxv
	.byte	W01
	.byte		        0*song_title_intro_mvl/mxv
	.byte	W01
	.byte	MEMACC, 0, 0, 3
	.byte	W03
	.byte		        78*song_title_intro_mvl/mxv
	.byte		N03
	.byte	W03
	.byte		        Gs4 , v060
	.byte	W03
	.byte		N06   , Gs4 , v068
	.byte	W01
	.byte		VOL   , 75*song_title_intro_mvl/mxv
	.byte	W01
	.byte		        67*song_title_intro_mvl/mxv
	.byte	W01
	.byte		        55*song_title_intro_mvl/mxv
	.byte	W01
	.byte		        39*song_title_intro_mvl/mxv
	.byte	W01
	.byte		        12*song_title_intro_mvl/mxv
	.byte	W01
	.byte	FINE

@*********************** Track 02 ***********************@

song_title_intro_1:
	.byte	KEYSH , song_title_intro_key+0
	.byte		VOICE , 31
	.byte		BENDR , 12
	.byte		VOL   , 86*song_title_intro_mvl/mxv
	.byte		N10   , An1 , v080
	.byte	W30
	.byte		BEND  , c_v-16
	.byte		N06   , Cs2 
	.byte	W01
	.byte		BEND  , c_v-6
	.byte	W01
	.byte		        c_v-1
	.byte	W01
	.byte		        c_v+0
	.byte	W03
	.byte		N06   , An1 
	.byte	W06
	.byte		N12   , Bn1 
	.byte	W12
	.byte		N06   , Ds2 
	.byte	W06
	.byte		N12   , Fs2 
	.byte	W06
	.byte		BEND  , c_v-6
	.byte	W01
	.byte		        c_v-18
	.byte	W05
	.byte		        c_v+0
	.byte		N06
	.byte	W06
	.byte		N18   , Bn2 
	.byte	W05
	.byte		BEND  , c_v+0
	.byte	W01
	.byte		        c_v+3
	.byte	W01
	.byte		        c_v+2
	.byte	W01
	.byte		        c_v-2
	.byte	W01
	.byte		        c_v-4
	.byte	W01
	.byte		        c_v+3
	.byte	W02
	.byte		        c_v+0
	.byte	W01
	.byte		        c_v-2
	.byte	W02
	.byte		        c_v+2
	.byte	W01
	.byte		        c_v+0
	.byte	W02
	.byte		N10   , Cn2 
	.byte	W30
	.byte		BEND  , c_v-16
	.byte		N06   , En2 
	.byte	W01
	.byte		BEND  , c_v-6
	.byte	W01
	.byte		        c_v-1
	.byte	W01
	.byte		        c_v+0
	.byte	W03
	.byte		N06   , Cn2 
	.byte	W06
	.byte		N12   , Dn2 
	.byte	W12
	.byte		N06   , Fs2 
	.byte	W06
	.byte		N12   , An2 
	.byte	W06
	.byte		BEND  , c_v-6
	.byte	W01
	.byte		        c_v-15
	.byte	W05
	.byte		        c_v+0
	.byte		N06
	.byte	W06
	.byte		N18   , Dn3 
	.byte	W05
	.byte		BEND  , c_v+0
	.byte	W01
	.byte		        c_v+3
	.byte	W01
	.byte		        c_v+2
	.byte	W01
	.byte		        c_v-2
	.byte	W01
	.byte		        c_v-4
	.byte	W01
	.byte		        c_v+3
	.byte	W02
	.byte		        c_v+0
	.byte	W01
	.byte		        c_v-2
	.byte	W02
	.byte		        c_v+2
	.byte	W01
	.byte		        c_v+0
	.byte	W02
	.byte		N84   , En2 
	.byte	W84
	.byte		BEND  , c_v-2
	.byte		N12   , Gs2 
	.byte	W01
	.byte		BEND  , c_v-4
	.byte	W01
	.byte		        c_v-6
	.byte	W01
	.byte		        c_v-10
	.byte	W01
	.byte		        c_v-14
	.byte	W01
	.byte		        c_v-20
	.byte	W01
	.byte		        c_v-26
	.byte	W01
	.byte		        c_v-34
	.byte	W01
	.byte		        c_v-42
	.byte	W01
	.byte		        c_v-50
	.byte	W01
	.byte		        c_v-58
	.byte	W01
	.byte		        c_v-64
	.byte	W01
	.byte		        c_v+0
	.byte		N36   , En1 
	.byte	W36
	.byte		BEND  , c_v-2
	.byte		N12   , Bn1 , v088
	.byte	W01
	.byte		BEND  , c_v-4
	.byte	W01
	.byte		        c_v-6
	.byte	W01
	.byte		        c_v-10
	.byte	W01
	.byte		        c_v-14
	.byte	W01
	.byte		        c_v-20
	.byte	W01
	.byte		        c_v-26
	.byte	W01
	.byte		        c_v-34
	.byte	W01
	.byte		        c_v-42
	.byte	W01
	.byte		        c_v-50
	.byte	W01
	.byte		        c_v-58
	.byte	W01
	.byte		        c_v-64
	.byte	W01
	.byte		VOL   , 78*song_title_intro_mvl/mxv
	.byte		BEND  , c_v+0
	.byte		N02   , En2 , v060
	.byte		N02   , Bn2 
	.byte	W03
	.byte		        En2 
	.byte		N02   , Bn2 
	.byte	W03
	.byte		N08   , En2 
	.byte		N08   , Bn2 
	.byte	W03
	.byte		VOL   , 75*song_title_intro_mvl/mxv
	.byte	W01
	.byte		        67*song_title_intro_mvl/mxv
	.byte	W01
	.byte		        55*song_title_intro_mvl/mxv
	.byte	W01
	.byte		        39*song_title_intro_mvl/mxv
	.byte	W01
	.byte		        12*song_title_intro_mvl/mxv
	.byte	W01
	.byte		        0*song_title_intro_mvl/mxv
	.byte	W04
	.byte		        78*song_title_intro_mvl/mxv
	.byte		N02   , En2 
	.byte		N02   , Bn2 
	.byte	W03
	.byte		        En2 
	.byte		N02   , Bn2 
	.byte	W03
	.byte		N08   , En2 
	.byte		N08   , Bn2 
	.byte	W03
	.byte		VOL   , 75*song_title_intro_mvl/mxv
	.byte	W01
	.byte		        67*song_title_intro_mvl/mxv
	.byte	W01
	.byte		        55*song_title_intro_mvl/mxv
	.byte	W01
	.byte		        39*song_title_intro_mvl/mxv
	.byte	W01
	.byte		        12*song_title_intro_mvl/mxv
	.byte	W01
	.byte		        0*song_title_intro_mvl/mxv
	.byte	W04
	.byte		        86*song_title_intro_mvl/mxv
	.byte		N04   , En3 , v092
	.byte	W04
	.byte		        Bn2 , v088
	.byte	W04
	.byte		        Gs2 , v080
	.byte	W02
	.byte		BEND  , c_v+0
	.byte	W02
	.byte	FINE

@*********************** Track 03 ***********************@

song_title_intro_2:
	.byte	KEYSH , song_title_intro_key+0
	.byte		VOICE , 30
	.byte		VOL   , 44*song_title_intro_mvl/mxv
	.byte	W02
	.byte		PAN   , c_v+0
	.byte		BENDR , 8
	.byte		N14   , Cs3 , v052
	.byte	W06
	.byte		BEND  , c_v+1
	.byte	W01
	.byte		        c_v-1
	.byte	W01
	.byte		        c_v-31
	.byte	W10
	.byte		        c_v-15
	.byte		N08   , Cs3 , v036
	.byte	W01
	.byte		BEND  , c_v+1
	.byte	W11
	.byte		N08   , En3 , v044
	.byte	W12
	.byte		BEND  , c_v-21
	.byte		N20   , Ds3 , v040
	.byte	W01
	.byte		BEND  , c_v-10
	.byte	W01
	.byte		        c_v-3
	.byte	W01
	.byte		        c_v+0
	.byte	W01
	.byte		        c_v+1
	.byte	W14
	.byte		N08   , Bn2 
	.byte	W12
	.byte		BEND  , c_v-15
	.byte		N06   , Ds3 , v052
	.byte	W01
	.byte		BEND  , c_v-2
	.byte	W01
	.byte		        c_v+1
	.byte	W04
	.byte		N18   , Fs3 , v048
	.byte	W03
	.byte		BEND  , c_v+1
	.byte	W01
	.byte		        c_v+5
	.byte	W02
	.byte		        c_v+1
	.byte	W01
	.byte		        c_v-1
	.byte	W01
	.byte		        c_v+0
	.byte	W02
	.byte		        c_v+1
	.byte	W02
	.byte		        c_v-3
	.byte	W02
	.byte		        c_v+3
	.byte	W02
	.byte		        c_v+1
	.byte	W02
	.byte		N14   , En3 
	.byte	W07
	.byte		BEND  , c_v-3
	.byte	W01
	.byte		        c_v-31
	.byte	W10
	.byte		        c_v+1
	.byte		N08   , En3 , v032
	.byte	W12
	.byte		        Gn3 , v040
	.byte	W12
	.byte		BEND  , c_v-15
	.byte		N18   , Fs3 , v052
	.byte	W01
	.byte		BEND  , c_v-9
	.byte	W01
	.byte		        c_v-4
	.byte	W01
	.byte		        c_v+0
	.byte	W01
	.byte		        c_v+1
	.byte	W14
	.byte		N09   , Dn3 , v040
	.byte	W12
	.byte		        Fs3 , v044
	.byte	W12
	.byte		        An3 , v048
	.byte	W10
	.byte	W02
	.byte		BEND  , c_v-11
	.byte		TIE   , Gs3 , v036
	.byte	W01
	.byte		BEND  , c_v-8
	.byte	W01
	.byte		        c_v-5
	.byte	W01
	.byte		        c_v-2
	.byte	W01
	.byte		        c_v-1
	.byte	W01
	.byte		        c_v+0
	.byte	W02
	.byte		        c_v+1
	.byte	W30
	.byte	W01
	.byte		        c_v-2
	.byte	W07
	.byte		        c_v-4
	.byte	W08
	.byte		        c_v-6
	.byte	W12
	.byte		        c_v-4
	.byte	W10
	.byte		        c_v-2
	.byte	W10
	.byte		VOL   , 42*song_title_intro_mvl/mxv
	.byte	W05
	.byte		        40*song_title_intro_mvl/mxv
	.byte	W04
	.byte		BEND  , c_v+0
	.byte	W01
	.byte		VOL   , 40*song_title_intro_mvl/mxv
	.byte	W04
	.byte		        37*song_title_intro_mvl/mxv
	.byte	W05
	.byte		        34*song_title_intro_mvl/mxv
	.byte	W04
	.byte		        32*song_title_intro_mvl/mxv
	.byte	W05
	.byte		        29*song_title_intro_mvl/mxv
	.byte	W05
	.byte		        25*song_title_intro_mvl/mxv
	.byte	W04
	.byte		        22*song_title_intro_mvl/mxv
	.byte	W05
	.byte		        17*song_title_intro_mvl/mxv
	.byte	W03
	.byte		EOT
	.byte		VOICE , 61
	.byte		VOL   , 86*song_title_intro_mvl/mxv
	.byte		N03   , En3 , v104
	.byte	W03
	.byte		        Gs3 
	.byte	W03
	.byte		        Bn3 
	.byte	W03
	.byte		        Dn4 
	.byte	W03
	.byte		        En4 
	.byte	W03
	.byte		        En4 , v100
	.byte	W03
	.byte		N08   , En4 , v104
	.byte	W03
	.byte		VOL   , 82*song_title_intro_mvl/mxv
	.byte	W01
	.byte		        74*song_title_intro_mvl/mxv
	.byte	W01
	.byte		        60*song_title_intro_mvl/mxv
	.byte	W01
	.byte		        43*song_title_intro_mvl/mxv
	.byte	W01
	.byte		        13*song_title_intro_mvl/mxv
	.byte	W01
	.byte		        0*song_title_intro_mvl/mxv
	.byte	W04
	.byte		        86*song_title_intro_mvl/mxv
	.byte		N03
	.byte	W03
	.byte		        En4 , v096
	.byte	W03
	.byte		N08   , En4 , v104
	.byte	W03
	.byte		VOL   , 82*song_title_intro_mvl/mxv
	.byte	W01
	.byte		        74*song_title_intro_mvl/mxv
	.byte	W01
	.byte		        60*song_title_intro_mvl/mxv
	.byte	W01
	.byte		        43*song_title_intro_mvl/mxv
	.byte	W01
	.byte		        13*song_title_intro_mvl/mxv
	.byte	W01
	.byte		        0*song_title_intro_mvl/mxv
	.byte	W04
	.byte		        86*song_title_intro_mvl/mxv
	.byte		N03
	.byte	W03
	.byte		        En4 , v092
	.byte	W03
	.byte		N06   , En4 , v104
	.byte	W01
	.byte		VOL   , 82*song_title_intro_mvl/mxv
	.byte	W01
	.byte		        74*song_title_intro_mvl/mxv
	.byte	W01
	.byte		        60*song_title_intro_mvl/mxv
	.byte	W01
	.byte		        43*song_title_intro_mvl/mxv
	.byte	W01
	.byte		        13*song_title_intro_mvl/mxv
	.byte	W01
	.byte	FINE

@*********************** Track 04 ***********************@

song_title_intro_3:
	.byte	KEYSH , song_title_intro_key+0
	.byte		VOICE , 102
	.byte		VOL   , 62*song_title_intro_mvl/mxv
	.byte		PAN   , c_v+0
	.byte	W96
	.byte	W96
	.byte	W96
	.byte	W36
	.byte		N03   , Bn2 , v064
	.byte	W03
	.byte		        Dn3 
	.byte	W03
	.byte		        Fs3 
	.byte	W03
	.byte		        An3 
	.byte	W03
	.byte		N02   , Bn3 
	.byte	W03
	.byte		        Bn3 , v056
	.byte	W03
	.byte		N08   , Bn3 , v064
	.byte	W03
	.byte		VOL   , 59*song_title_intro_mvl/mxv
	.byte	W01
	.byte		        53*song_title_intro_mvl/mxv
	.byte	W01
	.byte		        44*song_title_intro_mvl/mxv
	.byte	W01
	.byte		        31*song_title_intro_mvl/mxv
	.byte	W01
	.byte		        9*song_title_intro_mvl/mxv
	.byte	W01
	.byte		        0*song_title_intro_mvl/mxv
	.byte	W04
	.byte		        62*song_title_intro_mvl/mxv
	.byte		N02
	.byte	W03
	.byte		        Bn3 , v056
	.byte	W03
	.byte		N08   , Bn3 , v064
	.byte	W03
	.byte		VOL   , 59*song_title_intro_mvl/mxv
	.byte	W01
	.byte		        53*song_title_intro_mvl/mxv
	.byte	W01
	.byte		        44*song_title_intro_mvl/mxv
	.byte	W01
	.byte		        31*song_title_intro_mvl/mxv
	.byte	W01
	.byte		        9*song_title_intro_mvl/mxv
	.byte	W01
	.byte		        0*song_title_intro_mvl/mxv
	.byte	W04
	.byte		        62*song_title_intro_mvl/mxv
	.byte		N02
	.byte	W03
	.byte		        Bn3 , v052
	.byte	W03
	.byte		N06   , Bn3 , v064
	.byte	W01
	.byte		VOL   , 59*song_title_intro_mvl/mxv
	.byte	W01
	.byte		        53*song_title_intro_mvl/mxv
	.byte	W01
	.byte		        44*song_title_intro_mvl/mxv
	.byte	W01
	.byte		        31*song_title_intro_mvl/mxv
	.byte	W01
	.byte		        9*song_title_intro_mvl/mxv
	.byte	W01
	.byte	FINE

@*********************** Track 05 ***********************@

song_title_intro_4:
	.byte	KEYSH , song_title_intro_key+0
	.byte		VOICE , 34
	.byte		VOL   , 100*song_title_intro_mvl/mxv
	.byte		BENDR , 12
	.byte		N08   , En0 , v127
	.byte	W30
	.byte		N06   , An0 
	.byte	W06
	.byte		        En0 
	.byte	W06
	.byte		N12   , Fs0 
	.byte	W12
	.byte		N06
	.byte	W06
	.byte		N05   , Bn0 
	.byte	W06
	.byte		N12   , Fs0 
	.byte	W12
	.byte		N06
	.byte	W06
	.byte		        Bn0 
	.byte	W06
	.byte		        Fs0 
	.byte	W06
	.byte		N08   , Gn0 
	.byte	W30
	.byte		N06   , Bn0 
	.byte	W06
	.byte		        Gn0 
	.byte	W06
	.byte		N12   , An0 
	.byte	W12
	.byte		N06
	.byte	W06
	.byte		        Dn1 
	.byte	W06
	.byte		N12   , An0 
	.byte	W12
	.byte		N06
	.byte	W06
	.byte		        Dn1 
	.byte	W06
	.byte		        An0 
	.byte	W06
	.byte		TIE   , Bn0 
	.byte	W80
	.byte	W01
	.byte		VOL   , 97*song_title_intro_mvl/mxv
	.byte	W04
	.byte		        96*song_title_intro_mvl/mxv
	.byte	W05
	.byte		        92*song_title_intro_mvl/mxv
	.byte	W05
	.byte		        89*song_title_intro_mvl/mxv
	.byte	W01
	.byte	W03
	.byte		        85*song_title_intro_mvl/mxv
	.byte	W05
	.byte		        79*song_title_intro_mvl/mxv
	.byte	W04
	.byte		        74*song_title_intro_mvl/mxv
	.byte	W05
	.byte		        66*song_title_intro_mvl/mxv
	.byte	W05
	.byte		        59*song_title_intro_mvl/mxv
	.byte	W04
	.byte		        50*song_title_intro_mvl/mxv
	.byte	W05
	.byte		        41*song_title_intro_mvl/mxv
	.byte	W05
	.byte		EOT
	.byte		VOL   , 100*song_title_intro_mvl/mxv
	.byte		BEND  , c_v-2
	.byte		N12   , Gs0 
	.byte	W01
	.byte		BEND  , c_v-4
	.byte	W01
	.byte		        c_v-6
	.byte	W01
	.byte		        c_v-10
	.byte	W01
	.byte		        c_v-14
	.byte	W01
	.byte		        c_v-20
	.byte	W01
	.byte		        c_v-26
	.byte	W01
	.byte		        c_v-34
	.byte	W01
	.byte		        c_v-42
	.byte	W01
	.byte		        c_v-50
	.byte	W01
	.byte		        c_v-58
	.byte	W01
	.byte		        c_v-64
	.byte	W01
	.byte		        c_v+0
	.byte		N03   , Bn0 
	.byte	W03
	.byte		N03
	.byte	W03
	.byte		N04
	.byte	W12
	.byte		N03
	.byte	W03
	.byte		N03
	.byte	W03
	.byte		N04
	.byte	W12
	.byte		BEND  , c_v-2
	.byte		N12
	.byte	W01
	.byte		BEND  , c_v-4
	.byte	W01
	.byte		        c_v-6
	.byte	W01
	.byte		        c_v-10
	.byte	W01
	.byte		        c_v-14
	.byte	W01
	.byte		        c_v-20
	.byte	W01
	.byte		        c_v-26
	.byte	W01
	.byte		        c_v-34
	.byte	W01
	.byte		        c_v-42
	.byte	W01
	.byte		        c_v-50
	.byte	W01
	.byte		        c_v-58
	.byte	W01
	.byte		        c_v-64
	.byte	W01
	.byte	FINE

@*********************** Track 06 ***********************@

song_title_intro_5:
	.byte	KEYSH , song_title_intro_key+0
	.byte		VOICE , 127
	.byte		VOL   , 100*song_title_intro_mvl/mxv
	.byte		N06   , FnM1, v127
	.byte		N30   , An2 
	.byte	W12
	.byte		N06   , Cs1 
	.byte	W12
	.byte		N06
	.byte	W06
	.byte		        FnM1
	.byte	W06
	.byte		        FsM1
	.byte	W06
	.byte		        FnM1
	.byte		N30   , Cs2 
	.byte	W18
	.byte		N06   , FsM1
	.byte	W06
	.byte		        FnM1
	.byte	W12
	.byte		N01   , An1 , v116
	.byte	W01
	.byte		N05   , An1 , v127
	.byte	W05
	.byte		N03   , FsM1
	.byte	W03
	.byte		N03
	.byte	W03
	.byte		N06   , Fn1 
	.byte	W06
	.byte		        FnM1
	.byte		N30   , An2 
	.byte	W12
	.byte		N06   , Cs1 
	.byte	W12
	.byte		N06
	.byte	W06
	.byte		N01   , FsM1, v116
	.byte	W01
	.byte		N05   , FsM1, v127
	.byte	W05
	.byte		N06   , Fn1 
	.byte	W06
	.byte		        FnM1
	.byte		N30   , Cs2 
	.byte	W18
	.byte		N06   , FsM1
	.byte	W12
	.byte		N01   , Fn1 , v108
	.byte	W01
	.byte		N05   , Fn1 , v127
	.byte	W11
	.byte		N01   , FsM1, v112
	.byte	W01
	.byte		N05   , FsM1, v127
	.byte	W11
	.byte		N06   , FnM1
	.byte		N30   , An2 
	.byte	W12
	.byte		N06   , FsM1
	.byte	W12
	.byte		        FnM1
	.byte	W06
	.byte		N06
	.byte	W06
	.byte		        FsM1
	.byte	W12
	.byte		        FnM1
	.byte	W12
	.byte		        FsM1
	.byte	W06
	.byte		        FnM1
	.byte	W12
	.byte		N06
	.byte	W06
	.byte		        FsM1
	.byte	W06
	.byte		        FnM1
	.byte	W06
	.byte		N06
	.byte	W12
	.byte		        FsM1
	.byte	W12
	.byte		        FnM1
	.byte	W06
	.byte		N06
	.byte	W06
	.byte		N03   , FsM1
	.byte	W03
	.byte		        An1 
	.byte	W03
	.byte		N03
	.byte	W03
	.byte		        Fn1 
	.byte	W03
	.byte		        FsM1, v120
	.byte	W03
	.byte		N03
	.byte	W03
	.byte		N06
	.byte	W12
	.byte		N03
	.byte	W03
	.byte		N03
	.byte	W03
	.byte		N06
	.byte	W12
	.byte		N03
	.byte		N12   , Cs2 , v127
	.byte	W03
	.byte		N03   , FsM1, v120
	.byte	W03
	.byte		N06
	.byte	W06
	.byte	FINE

@******************************************************@

	.align	2

song_title_intro:
	.byte	6	@ NumTrks
	.byte	0	@ NumBlks
	.byte	song_title_intro_pri	@ Priority
	.byte	song_title_intro_rev	@ Reverb

	.word	song_title_intro_grp

	.word	song_title_intro_0
	.word	song_title_intro_1
	.word	song_title_intro_2
	.word	song_title_intro_3
	.word	song_title_intro_4
	.word	song_title_intro_5

	.end
