@ File generated by m4a2s Song-Module
	.include "MPlayDef.s"

	.equ	song_course_rainbow_intro_grp, bank_course_rainbow
	.equ	song_course_rainbow_intro_pri, 0
	.equ	song_course_rainbow_intro_rev, 148
	.equ	song_course_rainbow_intro_mvl, 127
	.equ	song_course_rainbow_intro_key, 0

	.section .rodata
	.global	song_course_rainbow_intro
	.align	2

@*********************** Track 01 ***********************@

song_course_rainbow_intro_0:
	.byte	KEYSH , song_course_rainbow_intro_key+0
	.byte	TEMPO , 154/2
	.byte	W24
	.byte		VOICE , 81
	.byte		VOL   , 108*song_course_rainbow_intro_mvl/mxv
	.byte		PAN   , c_v+0
	.byte		N12   , An3 , v080
	.byte	W24
	.byte		        Dn4 
	.byte	W24
	.byte		        An4 
	.byte	W24
	.byte		        Gs4 
	.byte	W48
	.byte		        En4 
	.byte	W24
	.byte		        Gs4 
	.byte	W24
	.byte		        An4 
	.byte	W96
	.byte	W01
	.byte		N12
	.byte	W92
	.byte	W03
	.byte	W05
	.byte		TIE   , An4 , v100
	.byte	W09
	.byte		VOL   , 72*song_course_rainbow_intro_mvl/mxv
	.byte	W08
	.byte		        54*song_course_rainbow_intro_mvl/mxv
	.byte	W72
	.byte	W02
	.byte	W24
	.byte	W01
	.byte		        72*song_course_rainbow_intro_mvl/mxv
	.byte	W23
	.byte	TEMPO , 178/2
	.byte	W01
	.byte		        108*song_course_rainbow_intro_mvl/mxv
	.byte	W36
	.byte		EOT
	.byte	W11
	.byte		VOICE , 81
	.byte		VOL   , 108*song_course_rainbow_intro_mvl/mxv
	.byte		PAN   , c_v+0
	.byte		BEND  , c_v+0
	.byte		N03   , Bn4 
	.byte	W06
	.byte		BEND  , c_v-16
	.byte		N03   , Bn4 , v092
	.byte	W06
	.byte		BEND  , c_v+0
	.byte		N03   , As4 , v064
	.byte	W06
	.byte		BEND  , c_v-16
	.byte		N03   , As4 , v056
	.byte	W06
	.byte		BEND  , c_v+0
	.byte		N03   , An4 , v048
	.byte	W06
	.byte		BEND  , c_v-16
	.byte		N03   , An4 , v044
	.byte	W06
	.byte		BEND  , c_v+0
	.byte		N03   , Gs4 
	.byte	W06
	.byte		BEND  , c_v-16
	.byte		N03   , Gs4 , v040
	.byte	W06
	.byte		BEND  , c_v+0
	.byte		N03   , Gn4 , v036
	.byte	W06
	.byte		BEND  , c_v-16
	.byte		N03   , Gn4 , v032
	.byte	W06
	.byte		BEND  , c_v+0
	.byte		N03   , Fs4 
	.byte	W06
	.byte		BEND  , c_v-16
	.byte		N03   , Fs4 , v028
	.byte	W06
	.byte		BEND  , c_v+0
	.byte		N03   , Fn4 , v024
	.byte	W06
	.byte		BEND  , c_v-16
	.byte		N03
	.byte	W06
	.byte		BEND  , c_v+0
	.byte		N03   , En4 , v020
	.byte	W06
	.byte		BEND  , c_v-16
	.byte		N03
	.byte	W05
	.byte	MEMACC, 0, 2, 1
	.byte		BEND  , c_v+0
	.byte	W01
	.byte	FINE

@*********************** Track 02 ***********************@

song_course_rainbow_intro_1:
	.byte	KEYSH , song_course_rainbow_intro_key+0
	.byte		VOICE , 33
	.byte		VOL   , 115*song_course_rainbow_intro_mvl/mxv
	.byte		PAN   , c_v+0
	.byte		N84   , Dn1 , v120
	.byte	W96
	.byte		N84
	.byte	W96
	.byte		N60   , Fn1 
	.byte	W72
	.byte		N12
	.byte	W24
	.byte	W01
	.byte		N60   , Gn1 
	.byte	W72
	.byte	W02
	.byte		N12
	.byte	W21
	.byte	W05
	.byte		TIE   , An1 
	.byte	W90
	.byte	W01
	.byte	W84
	.byte	W01
	.byte		EOT
	.byte	W11
	.byte		VOICE , 80
	.byte		VOL   , 108*song_course_rainbow_intro_mvl/mxv
	.byte		PAN   , c_v+0
	.byte	W03
	.byte		BEND  , c_v+0
	.byte		N03   , Bn5 , v096
	.byte	W03
	.byte		BEND  , c_v-16
	.byte	W03
	.byte		N03   , Bn5 , v088
	.byte	W03
	.byte		BEND  , c_v+0
	.byte	W03
	.byte		N03   , As5 , v060
	.byte	W03
	.byte		BEND  , c_v-16
	.byte	W03
	.byte		N03   , As5 , v052
	.byte	W03
	.byte		BEND  , c_v+0
	.byte	W03
	.byte		N03   , An5 , v048
	.byte	W03
	.byte		BEND  , c_v-16
	.byte	W03
	.byte		N03   , An5 , v044
	.byte	W03
	.byte		BEND  , c_v+0
	.byte	W03
	.byte		N03   , Gs5 , v040
	.byte	W03
	.byte		BEND  , c_v-16
	.byte	W03
	.byte		N03
	.byte	W03
	.byte		BEND  , c_v+0
	.byte	W03
	.byte		N03   , Gn5 , v036
	.byte	W03
	.byte		BEND  , c_v-16
	.byte	W03
	.byte		N03   , Gn5 , v032
	.byte	W03
	.byte		BEND  , c_v+0
	.byte	W03
	.byte		N03   , Fs5 
	.byte	W03
	.byte		BEND  , c_v-16
	.byte	W03
	.byte		N03   , Fs5 , v028
	.byte	W03
	.byte		BEND  , c_v+0
	.byte	W03
	.byte		N03   , Fn5 , v024
	.byte	W03
	.byte		BEND  , c_v-16
	.byte	W03
	.byte		N03
	.byte	W03
	.byte		BEND  , c_v+0
	.byte	W03
	.byte		N03   , En5 , v020
	.byte	W03
	.byte		BEND  , c_v-16
	.byte	W03
	.byte		N02   , En5 , v016
	.byte	W02
	.byte		BEND  , c_v+0
	.byte	W01
	.byte	FINE

@*********************** Track 03 ***********************@

song_course_rainbow_intro_2:
	.byte	KEYSH , song_course_rainbow_intro_key+0
	.byte	W40
	.byte	W01
	.byte		VOICE , 81
	.byte		VOL   , 108*song_course_rainbow_intro_mvl/mxv
	.byte		PAN   , c_v+0
	.byte		BEND  , c_v+3
	.byte		N24   , An3 , v052
	.byte	W24
	.byte		        Dn4 
	.byte	W24
	.byte		        An4 
	.byte	W07
	.byte	W17
	.byte		N48   , Gs4 
	.byte	W48
	.byte		N24   , En4 
	.byte	W24
	.byte		        Gs4 
	.byte	W07
	.byte	W17
	.byte		N66   , An4 
	.byte	W78
	.byte	W01
	.byte	W18
	.byte		N66
	.byte	W78
	.byte	W05
	.byte		BEND  , c_v+0
	.byte		TIE   , Dn4 , v072
	.byte	W09
	.byte		VOL   , 72*song_course_rainbow_intro_mvl/mxv
	.byte	W08
	.byte		        54*song_course_rainbow_intro_mvl/mxv
	.byte	W72
	.byte	W02
	.byte	W24
	.byte	W01
	.byte		        72*song_course_rainbow_intro_mvl/mxv
	.byte	W24
	.byte		        108*song_course_rainbow_intro_mvl/mxv
	.byte	W36
	.byte		EOT
	.byte	W11
	.byte	W96
	.byte	FINE

@*********************** Track 04 ***********************@

song_course_rainbow_intro_3:
	.byte	KEYSH , song_course_rainbow_intro_key+0
	.byte	W48
	.byte		VOICE , 121
	.byte		VOL   , 63*song_course_rainbow_intro_mvl/mxv
	.byte		PAN   , c_v+0
	.byte		N20   , An2 , v052
	.byte	W24
	.byte		N20
	.byte	W24
	.byte		N44   , En3 
	.byte	W48
	.byte		N20   , Bn2 
	.byte	W24
	.byte		        En3 
	.byte	W24
	.byte		N84   , Fn3 
	.byte	W96
	.byte	W01
	.byte		N44   , Gn3 
	.byte	W92
	.byte	W03
	.byte	W05
	.byte		VOICE , 122
	.byte		VOL   , 54*song_course_rainbow_intro_mvl/mxv
	.byte		PAN   , c_v+0
	.byte		TIE   , Gn3 , v072
	.byte	W90
	.byte	W01
	.byte	W84
	.byte	W01
	.byte		EOT
	.byte	W11
	.byte	W96
	.byte	FINE

@*********************** Track 05 ***********************@

song_course_rainbow_intro_4:
	.byte	KEYSH , song_course_rainbow_intro_key+0
	.byte	W48
	.byte		VOICE , 61
	.byte		VOL   , 108*song_course_rainbow_intro_mvl/mxv
	.byte		PAN   , c_v+0
	.byte	W24
	.byte		N20   , Dn3 , v072
	.byte	W24
	.byte		N44   , Bn2 
	.byte	W48
	.byte		N20   , Gs2 
	.byte	W24
	.byte		        Bn2 
	.byte	W24
	.byte	W24
	.byte		        Cn3 , v080
	.byte	W24
	.byte		        Fn3 
	.byte	W24
	.byte		        Cn4 
	.byte	W24
	.byte	W01
	.byte		N44   , Dn4 
	.byte	W48
	.byte		N20   , En4 
	.byte	W24
	.byte	W02
	.byte		        Fn4 
	.byte	W21
	.byte	W05
	.byte		VOICE , 121
	.byte		VOL   , 54*song_course_rainbow_intro_mvl/mxv
	.byte		PAN   , c_v+0
	.byte		TIE   , En3 
	.byte	W90
	.byte	W01
	.byte	W84
	.byte	W01
	.byte		EOT
	.byte	W11
	.byte	W96
	.byte	FINE

@*********************** Track 06 ***********************@

song_course_rainbow_intro_5:
	.byte	KEYSH , song_course_rainbow_intro_key+0
	.byte		VOICE , 127
	.byte		VOL   , 90*song_course_rainbow_intro_mvl/mxv
	.byte		PAN   , c_v+0
	.byte		N06   , An1 , v100
	.byte	W06
	.byte		        Fn1 
	.byte	W06
	.byte		N12   , Fn1 , v108
	.byte	W72
	.byte		N12
	.byte	W12
	.byte		        Fn1 , v100
	.byte	W84
	.byte		N06   , An1 
	.byte	W06
	.byte		        Fn1 
	.byte	W06
	.byte		        Fn1 , v108
	.byte	W72
	.byte		N12
	.byte	W24
	.byte	W01
	.byte		        Fn1 , v100
	.byte	W48
	.byte		        An1 
	.byte	W24
	.byte	W02
	.byte		N12
	.byte	W21
	.byte	W05
	.byte		        Fn1 
	.byte	W90
	.byte	W01
	.byte	W96
	.byte	W96
	.byte	FINE

@******************************************************@

	.align	2

song_course_rainbow_intro:
	.byte	6	@ NumTrks
	.byte	0	@ NumBlks
	.byte	song_course_rainbow_intro_pri	@ Priority
	.byte	song_course_rainbow_intro_rev	@ Reverb

	.word	song_course_rainbow_intro_grp

	.word	song_course_rainbow_intro_0
	.word	song_course_rainbow_intro_1
	.word	song_course_rainbow_intro_2
	.word	song_course_rainbow_intro_3
	.word	song_course_rainbow_intro_4
	.word	song_course_rainbow_intro_5

	.end
