@ File generated by m4a2s Song-Module
	.include "MPlayDef.s"

	.equ	song_course_river_grp, bank_course_lake_river
	.equ	song_course_river_pri, 0
	.equ	song_course_river_rev, 148
	.equ	song_course_river_mvl, 127
	.equ	song_course_river_key, 0

	.section .rodata
	.global	song_course_river
	.align	2

@*********************** Track 01 ***********************@

song_course_river_0:
	.byte	KEYSH , song_course_river_key+0
	.byte	TEMPO , 126/2
	.byte		VOICE , 108
	.byte		VOL   , 77*song_course_river_mvl/mxv
	.byte		PAN   , c_v+0
	.byte	W96
	.byte	W96
	.byte	W12
	.byte		N01   , Cn4 , v068
	.byte	W01
	.byte		N05   , Cn4 , v100
	.byte	W05
	.byte		N01   , Cn3 , v068
	.byte	W01
	.byte		N05   , Cn3 , v100
	.byte	W11
	.byte		N01   , Ds4 , v068
	.byte	W01
	.byte		N05   , Ds4 , v100
	.byte	W11
	.byte		N01   , Gn4 , v068
	.byte	W01
	.byte		N05   , Gn4 , v100
	.byte	W05
	.byte		N01   , Fn4 , v068
	.byte	W01
	.byte		N05   , Fn4 , v100
	.byte	W11
	.byte		N01   , Ds4 , v068
	.byte	W01
	.byte		N05   , Ds4 , v100
	.byte	W05
	.byte		N01   , Cn4 , v068
	.byte	W01
	.byte		N05   , Cn4 , v100
	.byte	W11
	.byte		N01   , Ds4 , v068
	.byte	W01
	.byte		N05   , Ds4 , v100
	.byte	W05
	.byte		N01   , Gn4 , v068
	.byte	W01
	.byte		N11   , Gn4 , v100
	.byte	W11
	.byte	W12
	.byte		N01   , Cn4 , v068
	.byte	W01
	.byte		N05   , Cn4 , v100
	.byte	W05
	.byte		N01   , Cn3 , v068
	.byte	W01
	.byte		N05   , Cn3 , v100
	.byte	W11
	.byte		N01   , Ds4 , v068
	.byte	W01
	.byte		N05   , Ds4 , v100
	.byte	W11
	.byte		N01   , Gn4 , v068
	.byte	W01
	.byte		N05   , Gn4 , v100
	.byte	W05
	.byte		N01   , Fn4 , v068
	.byte	W01
	.byte		N05   , Fn4 , v100
	.byte	W11
	.byte		N01   , Ds4 , v068
	.byte	W01
	.byte		N05   , Ds4 , v100
	.byte	W05
	.byte		N01   , Cn4 , v068
	.byte	W01
	.byte		N05   , Cn4 , v100
	.byte	W11
	.byte		N01   , As3 , v068
	.byte	W01
	.byte		N05   , As3 , v100
	.byte	W05
	.byte		N01   , Cn4 , v068
	.byte	W01
	.byte		N11   , Cn4 , v100
	.byte	W11
	.byte	W96
	.byte	W96
	.byte	W12
	.byte		N01   , As3 , v068
	.byte	W01
	.byte		N05   , As3 , v100
	.byte	W05
	.byte		N01   , Cn3 , v068
	.byte	W01
	.byte		N05   , Cn3 , v100
	.byte	W11
	.byte		N01   , Cn4 , v068
	.byte	W01
	.byte		N05   , Cn4 , v100
	.byte	W11
	.byte		N01   , Ds4 , v068
	.byte	W01
	.byte		N05   , Ds4 , v100
	.byte	W05
	.byte		N01   , Cn4 , v068
	.byte	W01
	.byte		N05   , Cn4 , v100
	.byte	W11
	.byte		N01   , As3 , v068
	.byte	W01
	.byte		N05   , As3 , v100
	.byte	W05
	.byte		N01   , Cn4 , v068
	.byte	W01
	.byte		N05   , Cn4 , v100
	.byte	W11
	.byte		N01   , As3 , v068
	.byte	W01
	.byte		N05   , As3 , v100
	.byte	W05
	.byte		N01   , Gn3 , v068
	.byte	W01
	.byte		N11   , Gn3 , v100
	.byte	W11
	.byte	W12
	.byte		N01   , As3 , v068
	.byte	W01
	.byte		N05   , As3 , v100
	.byte	W05
	.byte		N01   , Cn3 , v068
	.byte	W01
	.byte		N05   , Cn3 , v100
	.byte	W11
	.byte		N01   , Cn4 , v068
	.byte	W01
	.byte		N05   , Cn4 , v100
	.byte	W11
	.byte		N01   , As3 , v068
	.byte	W01
	.byte		N05   , As3 , v100
	.byte	W05
	.byte		N01   , Cn4 , v068
	.byte	W01
	.byte		N05   , Cn4 , v100
	.byte	W11
	.byte		N01   , Ds4 , v068
	.byte	W01
	.byte		N05   , Ds4 , v100
	.byte	W05
	.byte		N01   , Cn4 , v068
	.byte	W01
	.byte		N05   , Cn4 , v100
	.byte	W11
	.byte		N01   , As3 , v068
	.byte	W01
	.byte		N05   , As3 , v100
	.byte	W05
	.byte		N01   , Gn3 , v068
	.byte	W01
	.byte		N05   , Gn3 , v100
	.byte	W05
	.byte		N01   , As3 , v068
	.byte	W01
	.byte		N05   , As3 , v100
	.byte	W05
	.byte		N01   , Cn4 , v068
	.byte	W01
	.byte		N05   , Cn4 , v100
	.byte	W05
	.byte		N01   , Ds4 , v068
	.byte	W01
	.byte		N05   , Ds4 , v100
	.byte	W05
	.byte		N01   , Cn4 , v068
	.byte	W01
	.byte		N11   , Cn4 , v100
	.byte	W80
	.byte	W03
	.byte	W96
	.byte	W96
	.byte		VOICE , 122
	.byte		BENDR , 6
	.byte		PAN   , c_v-64
	.byte	W96
	.byte		N12   , Gn3 , v060
	.byte	W24
	.byte		N12
	.byte	W18
	.byte		N12
	.byte	W12
	.byte		N18   , Dn3 
	.byte	W18
	.byte		N07   , Fn3 
	.byte	W12
	.byte		        An3 
	.byte	W12
	.byte		N12   , Gn3 
	.byte	W24
	.byte		N12
	.byte	W18
	.byte		N12
	.byte	W12
	.byte		N18   , As3 
	.byte	W18
	.byte		N08   , An3 
	.byte	W12
	.byte		        Gs3 
	.byte	W12
	.byte		N12   , Gn3 , v048
	.byte	W24
	.byte		N12
	.byte	W18
	.byte		N12
	.byte	W12
	.byte		N18   , Dn3 
	.byte	W18
	.byte		N07   , Fn3 
	.byte	W12
	.byte		        An3 
	.byte	W12
	.byte		N12   , Gn3 
	.byte	W24
	.byte		N12
	.byte	W18
	.byte		N12
	.byte	W12
	.byte		N18   , As3 
	.byte	W18
	.byte		N08   , An3 
	.byte	W12
	.byte		        Gs3 
	.byte	W12
	.byte		        Gn3 
	.byte	W14
	.byte		        Cn4 , v052
	.byte	W08
	.byte		N04   , Ds4 
	.byte	W04
	.byte		N08   , Fn4 
	.byte	W08
	.byte		N06   , Gn4 
	.byte	W08
	.byte		BEND  , c_v-30
	.byte	W02
	.byte		        c_v-18
	.byte		N14   , Cn4 
	.byte	W02
	.byte		BEND  , c_v-9
	.byte	W02
	.byte		        c_v-3
	.byte	W02
	.byte		        c_v-1
	.byte	W01
	.byte		        c_v+0
	.byte	W07
	.byte		N04   , Gn4 
	.byte	W04
	.byte		N08   , Fn4 
	.byte	W08
	.byte		N06   , Ds4 
	.byte	W12
	.byte		N04   , Cn4 
	.byte	W04
	.byte		N08   , Ds4 
	.byte	W08
	.byte		N04   , Fn4 
	.byte	W02
	.byte	W02
	.byte		N12   , Gn4 
	.byte	W12
	.byte		N08   , Fn4 
	.byte	W08
	.byte		N04   , Ds4 
	.byte	W04
	.byte		N08   , Fn4 
	.byte	W08
	.byte		N04   , Ds4 
	.byte	W12
	.byte		N10   , Cn4 
	.byte	W12
	.byte		N06   , Gn3 
	.byte	W12
	.byte		N04
	.byte	W02
	.byte		BEND  , c_v-22
	.byte	W02
	.byte		        c_v-10
	.byte		N08   , As3 
	.byte	W02
	.byte		BEND  , c_v-2
	.byte	W02
	.byte		        c_v+0
	.byte	W04
	.byte		N04   , Gn3 
	.byte	W04
	.byte		N08   , As3 
	.byte	W08
	.byte		N10   , Cn4 
	.byte	W02
	.byte	W96
	.byte	W96
	.byte	W14
	.byte		N08   , Fn4 
	.byte	W08
	.byte		N04   , Ds4 
	.byte	W04
	.byte		N08   , Cn4 
	.byte	W08
	.byte		N04   , Fn4 
	.byte	W04
	.byte		N08   , Ds4 
	.byte	W08
	.byte		N04   , Cn4 
	.byte	W02
	.byte		BEND  , c_v-32
	.byte	W02
	.byte		        c_v-22
	.byte		N20   , Gn4 
	.byte	W02
	.byte		BEND  , c_v-14
	.byte	W02
	.byte		        c_v-8
	.byte	W02
	.byte		        c_v-3
	.byte	W02
	.byte		        c_v-1
	.byte	W02
	.byte		        c_v+0
	.byte	W10
	.byte		N09   , Fn4 
	.byte	W12
	.byte		N04   , Cn4 
	.byte	W04
	.byte		N08   , Ds4 
	.byte	W08
	.byte		N06   , Fn4 
	.byte	W02
	.byte	W14
	.byte		N08
	.byte	W08
	.byte		N04   , Ds4 
	.byte	W04
	.byte		N08   , Cn4 
	.byte	W08
	.byte		N04   , Gn4 
	.byte	W04
	.byte		N08   , Fn4 
	.byte	W08
	.byte		N04   , Ds4 
	.byte	W02
	.byte		BEND  , c_v-32
	.byte	W02
	.byte		        c_v-22
	.byte		N20   , As4 
	.byte	W02
	.byte		BEND  , c_v-14
	.byte	W02
	.byte		        c_v-8
	.byte	W02
	.byte		        c_v-3
	.byte	W02
	.byte		        c_v-1
	.byte	W02
	.byte		        c_v+0
	.byte	W10
	.byte		N09   , Gn4 
	.byte	W12
	.byte		N04   , As3 
	.byte	W04
	.byte		N08   , Bn3 
	.byte	W08
	.byte		N10   , Cn4 
	.byte	W02
	.byte	W96
	.byte	W96
	.byte	W10
	.byte		N04   , Gn3 
	.byte	W12
	.byte		N04
	.byte	W04
	.byte		N08   , As3 
	.byte	W08
	.byte		N04   , Gn3 
	.byte	W04
	.byte		N08   , Cn4 
	.byte	W08
	.byte		N04   , Gn3 
	.byte	W02
	.byte		BEND  , c_v-30
	.byte	W02
	.byte		        c_v-21
	.byte		N20   , As3 
	.byte	W02
	.byte		BEND  , c_v-13
	.byte	W02
	.byte		        c_v-7
	.byte	W02
	.byte		        c_v-3
	.byte	W02
	.byte		        c_v-1
	.byte	W02
	.byte		        c_v+0
	.byte	W10
	.byte		N10   , Gn3 
	.byte	W24
	.byte	W02
	.byte	W10
	.byte		N04   , An3 
	.byte	W12
	.byte		        Cn4 
	.byte	W04
	.byte		N08   , Ds4 
	.byte	W08
	.byte		N04   , Dn4 
	.byte	W10
	.byte		N11   , Cn4 
	.byte	W10
	.byte		BEND  , c_v-28
	.byte	W02
	.byte		        c_v-21
	.byte		N14   , Gn4 
	.byte	W02
	.byte		BEND  , c_v-14
	.byte	W02
	.byte		        c_v-9
	.byte	W02
	.byte		        c_v-5
	.byte	W02
	.byte		        c_v-2
	.byte	W02
	.byte		        c_v-1
	.byte	W02
	.byte		        c_v+0
	.byte	W02
	.byte		N06   , Fn4 
	.byte	W12
	.byte		N04   , As3 
	.byte	W04
	.byte		N08   , Bn3 
	.byte	W08
	.byte		N11   , Cn4 
	.byte	W02
	.byte	W08
	.byte		BEND  , c_v-30
	.byte	W02
	.byte		        c_v-23
	.byte		N76   , Gn4 
	.byte	W02
	.byte		BEND  , c_v-17
	.byte	W02
	.byte		        c_v-11
	.byte	W02
	.byte		        c_v-7
	.byte	W02
	.byte		        c_v-4
	.byte	W02
	.byte		        c_v-2
	.byte	W03
	.byte		        c_v-1
	.byte	W01
	.byte		        c_v+0
	.byte	W21
	.byte		        c_v-2
	.byte	W11
	.byte		        c_v+0
	.byte	W30
	.byte		N08   , As4 
	.byte	W08
	.byte		N16   , Cn5 
	.byte	W02
	.byte	W96
	.byte	GOTO
	 .word	song_course_river_0 + 0x2
	.byte	FINE

@*********************** Track 02 ***********************@

song_course_river_1:
	.byte	KEYSH , song_course_river_key+0
	.byte		VOICE , 34
	.byte		VOL   , 90*song_course_river_mvl/mxv
	.byte		PAN   , c_v+0
	.byte	W96
	.byte	W96
	.byte	W96
	.byte	W96
	.byte	W96
	.byte	W96
	.byte	W96
	.byte	W96
	.byte	W96
	.byte	W96
	.byte		N06   , Cn1 , v127
	.byte	W24
	.byte		N06
	.byte	W18
	.byte		N06
	.byte	W12
	.byte		BEND  , c_v-48
	.byte		N18   , Gn0 
	.byte	W02
	.byte		BEND  , c_v-33
	.byte	W02
	.byte		        c_v-20
	.byte	W02
	.byte		        c_v-11
	.byte	W02
	.byte		        c_v-4
	.byte	W02
	.byte		        c_v-1
	.byte	W02
	.byte		        c_v+0
	.byte	W06
	.byte		N06   , As0 
	.byte	W12
	.byte		        Dn1 
	.byte	W12
	.byte	PEND
	.byte		        Cn1 
	.byte	W24
	.byte		N06
	.byte	W18
	.byte		N06
	.byte	W11
	.byte		BEND  , c_v-58
	.byte	W01
	.byte		        c_v-64
	.byte		N18   , Ds1 
	.byte	W02
	.byte		BEND  , c_v-50
	.byte	W02
	.byte		        c_v-38
	.byte	W02
	.byte		        c_v-27
	.byte	W02
	.byte		        c_v-18
	.byte	W02
	.byte		        c_v-11
	.byte	W02
	.byte		        c_v-6
	.byte	W03
	.byte		        c_v-2
	.byte	W02
	.byte		        c_v-1
	.byte	W01
	.byte		        c_v+0
	.byte		N06   , Dn1 
	.byte	W12
	.byte		        Cs1 
	.byte	W12
	.byte	PATT
	 .word	song_course_river_1 + 0x12
	.byte		N06   , Cn1 , v127
	.byte	W24
	.byte		N06
	.byte	W18
	.byte		N06
	.byte	W11
	.byte		BEND  , c_v-58
	.byte	W01
	.byte		        c_v-64
	.byte		N18   , Ds1 
	.byte	W02
	.byte		BEND  , c_v-50
	.byte	W02
	.byte		        c_v-38
	.byte	W02
	.byte		        c_v-27
	.byte	W02
	.byte		        c_v-18
	.byte	W02
	.byte		        c_v-11
	.byte	W02
	.byte		        c_v-6
	.byte	W03
	.byte		        c_v-2
	.byte	W02
	.byte		        c_v-1
	.byte	W01
	.byte		        c_v+0
	.byte		N06   , Dn1 
	.byte	W12
	.byte		        Cs1 
	.byte	W12
	.byte	PEND
	.byte		N06   , Cn1 , v127
	.byte	W24
	.byte		N06
	.byte	W18
	.byte		N06
	.byte	W12
	.byte		BEND  , c_v-48
	.byte		N18   , Gn0 
	.byte	W02
	.byte		BEND  , c_v-33
	.byte	W02
	.byte		        c_v-20
	.byte	W02
	.byte		        c_v-11
	.byte	W02
	.byte		        c_v-5
	.byte	W02
	.byte		        c_v-1
	.byte	W02
	.byte		        c_v+0
	.byte	W06
	.byte		N06   , As0 
	.byte	W12
	.byte		        Dn1 
	.byte	W12
	.byte	PEND
	.byte	PATT
	 .word	song_course_river_1 + 0x5B
	.byte	PATT
	 .word	song_course_river_1 + 0x82
	.byte		N06   , Cn1 , v127
	.byte	W24
	.byte		N06
	.byte	W18
	.byte		N06
	.byte	W11
	.byte		BEND  , c_v-58
	.byte	W01
	.byte		        c_v-64
	.byte		N18   , Ds1 
	.byte	W02
	.byte		BEND  , c_v-50
	.byte	W02
	.byte		        c_v-38
	.byte	W02
	.byte		        c_v-27
	.byte	W02
	.byte		        c_v-18
	.byte	W02
	.byte		        c_v-11
	.byte	W02
	.byte		        c_v-6
	.byte	W03
	.byte		        c_v-2
	.byte	W02
	.byte		        c_v-1
	.byte	W01
	.byte		        c_v+0
	.byte		N06   , Dn1 
	.byte	W12
	.byte		        Cs1 
	.byte	W12
	.byte	PATT
	 .word	song_course_river_1 + 0x82
	.byte		N06   , Cn1 , v127
	.byte	W24
	.byte		N06
	.byte	W18
	.byte		N06
	.byte	W11
	.byte		BEND  , c_v-58
	.byte	W01
	.byte		        c_v-64
	.byte		N18
	.byte	W02
	.byte		BEND  , c_v-50
	.byte	W02
	.byte		        c_v-38
	.byte	W02
	.byte		        c_v-27
	.byte	W02
	.byte		        c_v-18
	.byte	W02
	.byte		        c_v-11
	.byte	W02
	.byte		        c_v-6
	.byte	W03
	.byte		        c_v-2
	.byte	W02
	.byte		        c_v-1
	.byte	W01
	.byte		        c_v+0
	.byte		N06   , Ds1 
	.byte	W12
	.byte		        En1 
	.byte	W12
	.byte		        Fn1 
	.byte	W24
	.byte		N06
	.byte	W18
	.byte		N06
	.byte	W12
	.byte		BEND  , c_v-48
	.byte		N18   , Cn1 
	.byte	W02
	.byte		BEND  , c_v-33
	.byte	W02
	.byte		        c_v-20
	.byte	W02
	.byte		        c_v-11
	.byte	W02
	.byte		        c_v-5
	.byte	W02
	.byte		        c_v-1
	.byte	W02
	.byte		        c_v+0
	.byte	W06
	.byte		N06   , Ds1 
	.byte	W12
	.byte		        Gn1 
	.byte	W12
	.byte		        Fn1 
	.byte	W24
	.byte		N06
	.byte	W18
	.byte		N06
	.byte	W11
	.byte		BEND  , c_v-58
	.byte	W01
	.byte		        c_v-64
	.byte		N18   , Gs1 
	.byte	W02
	.byte		BEND  , c_v-50
	.byte	W02
	.byte		        c_v-38
	.byte	W02
	.byte		        c_v-27
	.byte	W02
	.byte		        c_v-18
	.byte	W02
	.byte		        c_v-11
	.byte	W02
	.byte		        c_v-6
	.byte	W03
	.byte		        c_v-2
	.byte	W02
	.byte		        c_v-1
	.byte	W01
	.byte		        c_v+0
	.byte		N06   , Gn1 
	.byte	W12
	.byte		        Fn1 
	.byte	W12
	.byte		        Cn1 
	.byte	W24
	.byte		N06
	.byte	W18
	.byte		N06
	.byte	W12
	.byte		BEND  , c_v-48
	.byte		N18   , Gn0 
	.byte	W02
	.byte		BEND  , c_v-33
	.byte	W02
	.byte		        c_v-20
	.byte	W02
	.byte		        c_v-11
	.byte	W02
	.byte		        c_v-5
	.byte	W02
	.byte		        c_v-1
	.byte	W02
	.byte		        c_v+0
	.byte	W06
	.byte		N06   , As0 
	.byte	W12
	.byte		        Dn1 
	.byte	W12
	.byte		        Cn1 
	.byte	W24
	.byte		N06
	.byte	W18
	.byte		N06
	.byte	W11
	.byte		BEND  , c_v-58
	.byte	W01
	.byte		        c_v-64
	.byte		N18   , Dn1 
	.byte	W02
	.byte		BEND  , c_v-50
	.byte	W02
	.byte		        c_v-38
	.byte	W02
	.byte		        c_v-27
	.byte	W02
	.byte		        c_v-18
	.byte	W02
	.byte		        c_v-11
	.byte	W02
	.byte		        c_v-6
	.byte	W03
	.byte		        c_v-2
	.byte	W02
	.byte		        c_v-1
	.byte	W01
	.byte		        c_v+0
	.byte		N06   , En1 
	.byte	W12
	.byte		        Fn1 
	.byte	W12
	.byte		        Gn1 
	.byte	W78
	.byte		BEND  , c_v-48
	.byte		N18
	.byte	W02
	.byte		BEND  , c_v-33
	.byte	W02
	.byte		        c_v-21
	.byte	W02
	.byte		        c_v-11
	.byte	W02
	.byte		        c_v-5
	.byte	W02
	.byte		        c_v-1
	.byte	W02
	.byte		        c_v+0
	.byte	W06
	.byte		N06   , Fn1 
	.byte	W96
	.byte		        Cn1 
	.byte	W24
	.byte		N06
	.byte	W18
	.byte		N06
	.byte	W12
	.byte		BEND  , c_v-48
	.byte		N18   , Gn0 
	.byte	W02
	.byte		BEND  , c_v-33
	.byte	W02
	.byte		        c_v-21
	.byte	W02
	.byte		        c_v-11
	.byte	W02
	.byte		        c_v-5
	.byte	W02
	.byte		        c_v-1
	.byte	W02
	.byte		        c_v+0
	.byte	W06
	.byte		N06   , As0 
	.byte	W12
	.byte		        Dn1 
	.byte	W12
	.byte		        Cn1 
	.byte	W96
	.byte	GOTO
	 .word	song_course_river_1 + 0x2
	.byte	FINE

@*********************** Track 03 ***********************@

song_course_river_2:
	.byte	KEYSH , song_course_river_key+0
	.byte		VOICE , 73
	.byte		BENDR , 6
	.byte		VOL   , 49*song_course_river_mvl/mxv
	.byte		PAN   , c_v+0
	.byte	W96
	.byte	W10
	.byte		N17   , Cn5 , v052
	.byte	W18
	.byte		N04   , Gn5 
	.byte	W04
	.byte		N03   , Cn5 
	.byte	W04
	.byte		N04   , Gn5 
	.byte	W04
	.byte		N03   , Cn5 
	.byte	W04
	.byte		N04   , Gn5 
	.byte	W04
	.byte		N03   , Cn5 
	.byte	W04
	.byte		N04   , Gn5 
	.byte	W04
	.byte		N52   , Cn5 
	.byte	W16
	.byte		BEND  , c_v-2
	.byte	W04
	.byte		        c_v-4
	.byte	W08
	.byte		        c_v-2
	.byte	W06
	.byte		        c_v+0
	.byte	W03
	.byte		VOL   , 48*song_course_river_mvl/mxv
	.byte	W03
	.byte		        44*song_course_river_mvl/mxv
	.byte	W03
	.byte		        38*song_course_river_mvl/mxv
	.byte	W03
	.byte		        31*song_course_river_mvl/mxv
	.byte	W04
	.byte		        21*song_course_river_mvl/mxv
	.byte	W02
	.byte		        14*song_course_river_mvl/mxv
	.byte	W84
	.byte	W96
	.byte		VOL   , 49*song_course_river_mvl/mxv
	.byte	W84
	.byte		N05   , Cn5 , v052
	.byte	W05
	.byte		        Gn5 
	.byte	W05
	.byte		TIE   , Cn5 
	.byte	W02
	.byte	PEND
	.byte	W24
	.byte		BEND  , c_v-2
	.byte	W04
	.byte		        c_v-4
	.byte	W08
	.byte		        c_v-2
	.byte	W06
	.byte		        c_v+0
	.byte	W44
	.byte	W01
	.byte		VOL   , 48*song_course_river_mvl/mxv
	.byte	W03
	.byte		        46*song_course_river_mvl/mxv
	.byte	W03
	.byte		        43*song_course_river_mvl/mxv
	.byte	W03
	.byte		VOL   , 38*song_course_river_mvl/mxv
	.byte	W04
	.byte		        33*song_course_river_mvl/mxv
	.byte	W03
	.byte		        26*song_course_river_mvl/mxv
	.byte	W03
	.byte		        17*song_course_river_mvl/mxv
	.byte	W02
	.byte	PEND
	.byte		EOT   , Cn5 
	.byte		VOL   , 14*song_course_river_mvl/mxv
	.byte	W84
	.byte	W96
	.byte	PATT
	 .word	song_course_river_2 + 0x3F
	.byte	W24
	.byte		BEND  , c_v-2
	.byte	W04
	.byte		        c_v-4
	.byte	W08
	.byte		        c_v-2
	.byte	W06
	.byte		        c_v+0
	.byte	W32
	.byte	W01
	.byte		VOL   , 48*song_course_river_mvl/mxv
	.byte	W03
	.byte		        46*song_course_river_mvl/mxv
	.byte	W03
	.byte		        43*song_course_river_mvl/mxv
	.byte	W03
	.byte		        38*song_course_river_mvl/mxv
	.byte	W04
	.byte		        33*song_course_river_mvl/mxv
	.byte	W03
	.byte		        26*song_course_river_mvl/mxv
	.byte	W03
	.byte		        17*song_course_river_mvl/mxv
	.byte	W02
	.byte		EOT   , Cn5 
	.byte		VOL   , 14*song_course_river_mvl/mxv
	.byte	W96
	.byte		VOICE , 108
	.byte		VOL   , 90*song_course_river_mvl/mxv
	.byte	W96
	.byte		N12   , Cn4 , v127
	.byte	W24
	.byte		N12
	.byte	W18
	.byte		N12
	.byte	W12
	.byte		N18   , Gn3 
	.byte	W18
	.byte		N07   , As3 
	.byte	W12
	.byte		        Dn4 
	.byte	W12
	.byte		N12   , Cn4 
	.byte	W24
	.byte		N12
	.byte	W18
	.byte		N12
	.byte	W12
	.byte		N18   , Ds4 
	.byte	W18
	.byte		N08   , Dn4 
	.byte	W12
	.byte		        Cs4 
	.byte	W12
	.byte		PAN   , c_v+0
	.byte		N08   , Cn4 
	.byte	W10
	.byte		VOICE , 73
	.byte		VOL   , 49*song_course_river_mvl/mxv
	.byte		N17   , Cn5 , v052
	.byte	W18
	.byte		N03   , Fs5 
	.byte	W04
	.byte		        Cn5 
	.byte	W04
	.byte		        Gn5 
	.byte	W04
	.byte		        Cn5 
	.byte	W04
	.byte		        Fs5 
	.byte	W04
	.byte		        Cn5 
	.byte	W04
	.byte		N04   , Gn5 
	.byte	W04
	.byte		N23   , Cn5 
	.byte	W24
	.byte		N03   , Fs5 
	.byte	W04
	.byte		        Cn5 
	.byte	W04
	.byte		        Gn5 
	.byte	W04
	.byte		        Cn5 
	.byte	W04
	.byte		N04   , Fs5 
	.byte	W04
	.byte		N92   , Cn5 
	.byte	W24
	.byte	W02
	.byte		BEND  , c_v-2
	.byte	W04
	.byte		        c_v-4
	.byte	W08
	.byte		        c_v-2
	.byte	W06
	.byte		        c_v+0
	.byte	W24
	.byte	W03
	.byte		VOL   , 48*song_course_river_mvl/mxv
	.byte	W03
	.byte		        47*song_course_river_mvl/mxv
	.byte	W03
	.byte		        44*song_course_river_mvl/mxv
	.byte	W03
	.byte		        41*song_course_river_mvl/mxv
	.byte	W04
	.byte		        36*song_course_river_mvl/mxv
	.byte	W03
	.byte		        31*song_course_river_mvl/mxv
	.byte	W03
	.byte		        24*song_course_river_mvl/mxv
	.byte	W02
	.byte	W01
	.byte		        17*song_course_river_mvl/mxv
	.byte	W05
	.byte		VOICE , 65
	.byte		VOL   , 77*song_course_river_mvl/mxv
	.byte	W06
	.byte		BEND  , c_v-24
	.byte		N08   , Cn4 , v088
	.byte	W02
	.byte		BEND  , c_v-11
	.byte	W02
	.byte		        c_v-2
	.byte	W02
	.byte		        c_v+0
	.byte	W02
	.byte		N04   , Ds4 
	.byte	W04
	.byte		N08   , Fn4 
	.byte	W08
	.byte		N06   , Gn4 
	.byte	W10
	.byte		BEND  , c_v-30
	.byte		N14   , Cn4 
	.byte	W02
	.byte		BEND  , c_v-18
	.byte	W02
	.byte		        c_v-9
	.byte	W02
	.byte		        c_v-3
	.byte	W02
	.byte		        c_v-1
	.byte	W01
	.byte		        c_v+0
	.byte	W05
	.byte		N04   , Gn4 
	.byte	W04
	.byte		N08   , Fn4 
	.byte	W08
	.byte		N06   , Ds4 
	.byte	W12
	.byte		N04   , Cn4 
	.byte	W04
	.byte		N08   , Ds4 
	.byte	W08
	.byte		N04   , Fn4 
	.byte	W04
	.byte		BEND  , c_v-20
	.byte		N12   , Gn4 
	.byte	W02
	.byte		BEND  , c_v-9
	.byte	W02
	.byte		        c_v-2
	.byte	W02
	.byte		        c_v+0
	.byte	W06
	.byte		N08   , Fn4 
	.byte	W08
	.byte		N04   , Ds4 
	.byte	W04
	.byte		N08   , Fn4 
	.byte	W08
	.byte		N04   , Ds4 
	.byte	W12
	.byte		N10   , Cn4 
	.byte	W02
	.byte		VOL   , 74*song_course_river_mvl/mxv
	.byte	W02
	.byte		        64*song_course_river_mvl/mxv
	.byte	W02
	.byte		        48*song_course_river_mvl/mxv
	.byte	W02
	.byte		        26*song_course_river_mvl/mxv
	.byte	W04
	.byte		        77*song_course_river_mvl/mxv
	.byte		N06   , Gn3 
	.byte	W12
	.byte		N04
	.byte	W04
	.byte		BEND  , c_v-22
	.byte		N08   , As3 
	.byte	W02
	.byte		BEND  , c_v-10
	.byte	W02
	.byte		        c_v-2
	.byte	W02
	.byte		        c_v+0
	.byte	W02
	.byte		N04   , Gn3 
	.byte	W04
	.byte		N08   , As3 
	.byte	W08
	.byte		N16   , Cn4 
	.byte	W02
	.byte		VOL   , 76*song_course_river_mvl/mxv
	.byte	W02
	.byte		        70*song_course_river_mvl/mxv
	.byte	W02
	.byte		        65*song_course_river_mvl/mxv
	.byte	W02
	.byte		        57*song_course_river_mvl/mxv
	.byte	W02
	.byte		        46*song_course_river_mvl/mxv
	.byte	W02
	.byte		        31*song_course_river_mvl/mxv
	.byte	W04
	.byte		VOICE , 73
	.byte		VOL   , 49*song_course_river_mvl/mxv
	.byte		N05   , Cn5 , v052
	.byte	W05
	.byte		        Gn5 
	.byte	W05
	.byte		N72   , Cn5 
	.byte	W14
	.byte		BEND  , c_v-2
	.byte	W04
	.byte		        c_v-4
	.byte	W08
	.byte		        c_v-2
	.byte	W06
	.byte		        c_v+0
	.byte	W42
	.byte		N05
	.byte	W05
	.byte		        Gn5 
	.byte	W05
	.byte		TIE   , Cn5 
	.byte	W14
	.byte		BEND  , c_v-2
	.byte	W04
	.byte		        c_v-4
	.byte	W08
	.byte		        c_v-2
	.byte	W06
	.byte		        c_v+0
	.byte	W44
	.byte	W01
	.byte		VOL   , 48*song_course_river_mvl/mxv
	.byte	W03
	.byte		        46*song_course_river_mvl/mxv
	.byte	W03
	.byte		        43*song_course_river_mvl/mxv
	.byte	W03
	.byte	PATT
	 .word	song_course_river_2 + 0x5E
	.byte		EOT   , Cn5 
	.byte		VOICE , 65
	.byte		VOL   , 77*song_course_river_mvl/mxv
	.byte		BEND  , c_v-28
	.byte		N08   , Fn4 , v088
	.byte	W02
	.byte		BEND  , c_v-12
	.byte	W02
	.byte		        c_v-3
	.byte	W02
	.byte		        c_v+0
	.byte	W02
	.byte		N04   , Ds4 
	.byte	W04
	.byte		N08   , Cn4 
	.byte	W08
	.byte		N04   , Fn4 
	.byte	W04
	.byte		N08   , Ds4 
	.byte	W08
	.byte		N04   , Cn4 
	.byte	W04
	.byte		BEND  , c_v-32
	.byte		N20   , Gn4 
	.byte	W02
	.byte		BEND  , c_v-22
	.byte	W02
	.byte		        c_v-14
	.byte	W02
	.byte		        c_v-8
	.byte	W02
	.byte		        c_v-3
	.byte	W02
	.byte		        c_v-1
	.byte	W02
	.byte		        c_v+0
	.byte	W08
	.byte		N09   , Fn4 
	.byte	W02
	.byte		VOL   , 74*song_course_river_mvl/mxv
	.byte	W02
	.byte		        64*song_course_river_mvl/mxv
	.byte	W02
	.byte		        48*song_course_river_mvl/mxv
	.byte	W02
	.byte		        26*song_course_river_mvl/mxv
	.byte	W04
	.byte		        77*song_course_river_mvl/mxv
	.byte		N04   , Cn4 
	.byte	W04
	.byte		N08   , Ds4 
	.byte	W08
	.byte		N06   , Fn4 
	.byte	W04
	.byte	W12
	.byte		BEND  , c_v-28
	.byte		N08
	.byte	W02
	.byte		BEND  , c_v-12
	.byte	W02
	.byte		        c_v-3
	.byte	W02
	.byte		        c_v+0
	.byte	W02
	.byte		N04   , Ds4 
	.byte	W04
	.byte		N08   , Cn4 
	.byte	W08
	.byte		N04   , Gn4 
	.byte	W04
	.byte		N08   , Fn4 
	.byte	W08
	.byte		N04   , Ds4 
	.byte	W04
	.byte		BEND  , c_v-32
	.byte		N20   , As4 
	.byte	W02
	.byte		BEND  , c_v-22
	.byte	W02
	.byte		        c_v-14
	.byte	W02
	.byte		        c_v-8
	.byte	W02
	.byte		        c_v-3
	.byte	W02
	.byte		        c_v-1
	.byte	W02
	.byte		        c_v+0
	.byte	W08
	.byte		N09   , Gn4 
	.byte	W02
	.byte		VOL   , 74*song_course_river_mvl/mxv
	.byte	W02
	.byte		        64*song_course_river_mvl/mxv
	.byte	W02
	.byte		        48*song_course_river_mvl/mxv
	.byte	W02
	.byte		        26*song_course_river_mvl/mxv
	.byte	W04
	.byte		        77*song_course_river_mvl/mxv
	.byte		N04   , As3 
	.byte	W04
	.byte		N08   , Bn3 
	.byte	W08
	.byte		N14   , Cn4 
	.byte	W02
	.byte		VOL   , 75*song_course_river_mvl/mxv
	.byte	W02
	.byte		        70*song_course_river_mvl/mxv
	.byte	W02
	.byte		        62*song_course_river_mvl/mxv
	.byte	W02
	.byte		        51*song_course_river_mvl/mxv
	.byte	W02
	.byte		        36*song_course_river_mvl/mxv
	.byte	W02
	.byte		        17*song_course_river_mvl/mxv
	.byte	W02
	.byte		VOICE , 73
	.byte		VOL   , 49*song_course_river_mvl/mxv
	.byte	W01
	.byte		N17   , Cn5 , v052
	.byte	W17
	.byte		N03   , Fs5 
	.byte	W04
	.byte		        Cn5 
	.byte	W04
	.byte		        Gn5 
	.byte	W04
	.byte		        Cn5 
	.byte	W04
	.byte		        Fs5 
	.byte	W04
	.byte		        Cn5 
	.byte	W04
	.byte		N04   , Gn5 
	.byte	W04
	.byte		N23   , Cn5 
	.byte	W24
	.byte		N03   , Fs5 
	.byte	W04
	.byte		        Cn5 
	.byte	W04
	.byte		        Gn5 
	.byte	W04
	.byte		        Cn5 
	.byte	W04
	.byte		N04   , Fs5 
	.byte	W04
	.byte		N92   , Cn5 
	.byte	W24
	.byte	W02
	.byte		BEND  , c_v-2
	.byte	W04
	.byte		        c_v-4
	.byte	W08
	.byte		        c_v-2
	.byte	W06
	.byte		        c_v+0
	.byte	W24
	.byte	W03
	.byte		VOL   , 48*song_course_river_mvl/mxv
	.byte	W03
	.byte		        46*song_course_river_mvl/mxv
	.byte	W03
	.byte		        43*song_course_river_mvl/mxv
	.byte	W03
	.byte		        38*song_course_river_mvl/mxv
	.byte	W04
	.byte		        33*song_course_river_mvl/mxv
	.byte	W03
	.byte		        26*song_course_river_mvl/mxv
	.byte	W03
	.byte		        17*song_course_river_mvl/mxv
	.byte	W02
	.byte		        77*song_course_river_mvl/mxv
	.byte	W06
	.byte		VOICE , 65
	.byte	W02
	.byte		N04   , Gn3 , v088
	.byte	W12
	.byte		N04
	.byte	W04
	.byte		N08   , As3 
	.byte	W08
	.byte		N04   , Gn3 
	.byte	W04
	.byte		N08   , Cn4 
	.byte	W08
	.byte		N04   , Gn3 
	.byte	W04
	.byte		BEND  , c_v-30
	.byte		N20   , As3 
	.byte	W02
	.byte		BEND  , c_v-21
	.byte	W02
	.byte		        c_v-13
	.byte	W02
	.byte		        c_v-7
	.byte	W02
	.byte		        c_v-3
	.byte	W02
	.byte		        c_v-1
	.byte	W02
	.byte		        c_v+0
	.byte	W08
	.byte		N14   , Gn3 
	.byte	W06
	.byte		VOL   , 74*song_course_river_mvl/mxv
	.byte	W02
	.byte		        64*song_course_river_mvl/mxv
	.byte	W02
	.byte		        48*song_course_river_mvl/mxv
	.byte	W02
	.byte		        25*song_course_river_mvl/mxv
	.byte	W16
	.byte		        77*song_course_river_mvl/mxv
	.byte	W08
	.byte		N04   , An3 
	.byte	W12
	.byte		        Cn4 
	.byte	W04
	.byte		BEND  , c_v-24
	.byte		N08   , Ds4 
	.byte	W02
	.byte		BEND  , c_v-11
	.byte	W02
	.byte		        c_v-3
	.byte	W02
	.byte		        c_v+0
	.byte	W02
	.byte		N04   , Dn4 
	.byte	W10
	.byte		N11   , Cn4 
	.byte	W02
	.byte		VOL   , 74*song_course_river_mvl/mxv
	.byte	W02
	.byte		        64*song_course_river_mvl/mxv
	.byte	W02
	.byte		        48*song_course_river_mvl/mxv
	.byte	W02
	.byte		        26*song_course_river_mvl/mxv
	.byte	W04
	.byte		        77*song_course_river_mvl/mxv
	.byte		BEND  , c_v-28
	.byte		N14   , Gn4 
	.byte	W02
	.byte		BEND  , c_v-21
	.byte	W02
	.byte		        c_v-14
	.byte	W02
	.byte		        c_v-9
	.byte	W02
	.byte		        c_v-5
	.byte	W02
	.byte		        c_v-2
	.byte	W02
	.byte		        c_v-1
	.byte	W02
	.byte		        c_v+0
	.byte		N06   , Fn4 
	.byte	W12
	.byte		N04   , As3 
	.byte	W04
	.byte		N08   , Bn3 
	.byte	W08
	.byte		N11   , Cn4 
	.byte	W02
	.byte		VOL   , 75*song_course_river_mvl/mxv
	.byte	W02
	.byte		        68*song_course_river_mvl/mxv
	.byte	W02
	.byte		        56*song_course_river_mvl/mxv
	.byte	W02
	.byte		        41*song_course_river_mvl/mxv
	.byte	W02
	.byte		        21*song_course_river_mvl/mxv
	.byte	W02
	.byte		        77*song_course_river_mvl/mxv
	.byte		BEND  , c_v-30
	.byte		N76   , Gn4 
	.byte	W02
	.byte		BEND  , c_v-23
	.byte	W02
	.byte		        c_v-17
	.byte	W02
	.byte		        c_v-11
	.byte	W02
	.byte		        c_v-7
	.byte	W02
	.byte		        c_v-4
	.byte	W02
	.byte		        c_v-2
	.byte	W03
	.byte		        c_v-1
	.byte	W01
	.byte		        c_v+0
	.byte	W21
	.byte		        c_v-2
	.byte	W11
	.byte		        c_v+0
	.byte	W28
	.byte		N08   , As4 
	.byte	W08
	.byte		N16   , Cn5 
	.byte	W02
	.byte		VOL   , 76*song_course_river_mvl/mxv
	.byte	W02
	.byte		        72*song_course_river_mvl/mxv
	.byte	W02
	.byte		        65*song_course_river_mvl/mxv
	.byte	W02
	.byte		        57*song_course_river_mvl/mxv
	.byte	W02
	.byte		        46*song_course_river_mvl/mxv
	.byte	W02
	.byte		        31*song_course_river_mvl/mxv
	.byte	W03
	.byte		        14*song_course_river_mvl/mxv
	.byte	W84
	.byte	W01
	.byte	GOTO
	 .word	song_course_river_2 + 0x2
	.byte	FINE

@*********************** Track 04 ***********************@

song_course_river_3:
	.byte	KEYSH , song_course_river_key+0
	.byte		VOL   , 90*song_course_river_mvl/mxv
	.byte		PAN   , c_v+0
	.byte		N05   , Cn5 , v032
	.byte	W02
	.byte		VOICE , 123
	.byte	W04
	.byte		N05   , Fn5 
	.byte	W06
	.byte		        Ds5 
	.byte	W06
	.byte		        Cn5 
	.byte	W06
	.byte		        Fn5 
	.byte	W06
	.byte		        Ds5 
	.byte	W06
	.byte		        Cn5 
	.byte	W06
	.byte		        Fn5 
	.byte	W06
	.byte		        Ds5 
	.byte	W06
	.byte		        Cn5 
	.byte	W06
	.byte		        Fn5 
	.byte	W06
	.byte		        Ds5 
	.byte	W06
	.byte		        Cn5 
	.byte	W06
	.byte		        Fn5 
	.byte	W06
	.byte		        Ds5 
	.byte	W06
	.byte		        Cn5 
	.byte	W06
	.byte		N05   , Fn5 , v032
	.byte	W06
	.byte		        Ds5 
	.byte	W06
	.byte		        Cn5 
	.byte	W06
	.byte		        Fn5 
	.byte	W06
	.byte		        Ds5 
	.byte	W06
	.byte		        Cn5 
	.byte	W06
	.byte		        Fn5 
	.byte	W06
	.byte		        Ds5 
	.byte	W06
	.byte		        Cn5 
	.byte	W06
	.byte		        Fn5 
	.byte	W06
	.byte		        Ds5 
	.byte	W06
	.byte		        Cn5 
	.byte	W06
	.byte		        Fn5 
	.byte	W06
	.byte		        Ds5 
	.byte	W06
	.byte		        Cn5 
	.byte	W06
	.byte		        Fn5 
	.byte	W06
	.byte	PEND
	.byte		N05   , Ds5 , v032
	.byte	W06
	.byte		        Cn5 
	.byte	W06
	.byte		        Fn5 
	.byte	W06
	.byte		        Ds5 
	.byte	W06
	.byte		        Cn5 
	.byte	W06
	.byte		        Fn5 
	.byte	W06
	.byte		        Ds5 
	.byte	W06
	.byte		        Cn5 
	.byte	W06
	.byte		        Fn5 
	.byte	W06
	.byte		        Ds5 
	.byte	W06
	.byte		        Cn5 
	.byte	W06
	.byte		        Fn5 
	.byte	W06
	.byte		        Ds5 
	.byte	W06
	.byte		        Cn5 
	.byte	W06
	.byte		        Fn5 
	.byte	W06
	.byte		        Ds5 
	.byte	W06
	.byte	PEND
	.byte		N05   , Cn5 , v032
	.byte	W06
	.byte		        Fn5 
	.byte	W06
	.byte		        Ds5 
	.byte	W06
	.byte		        Cn5 
	.byte	W06
	.byte		        Fn5 
	.byte	W06
	.byte		        Ds5 
	.byte	W06
	.byte		        Cn5 
	.byte	W06
	.byte		        Fn5 
	.byte	W06
	.byte		        Ds5 
	.byte	W06
	.byte		        Cn5 
	.byte	W06
	.byte		        Fn5 
	.byte	W06
	.byte		        Ds5 
	.byte	W06
	.byte		        Cn5 
	.byte	W06
	.byte		        Fn5 
	.byte	W06
	.byte		        Ds5 
	.byte	W06
	.byte		        Cn5 
	.byte	W06
	.byte	PEND
	.byte	PATT
	 .word	song_course_river_3 + 0x2C
	.byte	PATT
	 .word	song_course_river_3 + 0x4F
	.byte	PATT
	 .word	song_course_river_3 + 0x72
	.byte	PATT
	 .word	song_course_river_3 + 0x2C
	.byte	PATT
	 .word	song_course_river_3 + 0x4F
	.byte	PATT
	 .word	song_course_river_3 + 0x72
	.byte	PATT
	 .word	song_course_river_3 + 0x2C
	.byte	PATT
	 .word	song_course_river_3 + 0x4F
	.byte	PATT
	 .word	song_course_river_3 + 0x72
	.byte	PATT
	 .word	song_course_river_3 + 0x2C
	.byte	PATT
	 .word	song_course_river_3 + 0x4F
	.byte	PATT
	 .word	song_course_river_3 + 0x72
	.byte	PATT
	 .word	song_course_river_3 + 0x2C
	.byte	PATT
	 .word	song_course_river_3 + 0x4F
	.byte	PATT
	 .word	song_course_river_3 + 0x72
	.byte	PATT
	 .word	song_course_river_3 + 0x2C
	.byte	PATT
	 .word	song_course_river_3 + 0x4F
	.byte	PATT
	 .word	song_course_river_3 + 0x72
	.byte	PATT
	 .word	song_course_river_3 + 0x2C
	.byte	PATT
	 .word	song_course_river_3 + 0x4F
	.byte		N05   , Cn5 , v032
	.byte	W06
	.byte		        Gn5 
	.byte	W06
	.byte		        Ds5 
	.byte	W06
	.byte		        Cn5 
	.byte	W06
	.byte		        Gn5 
	.byte	W06
	.byte		        Ds5 
	.byte	W06
	.byte		        Cn5 
	.byte	W06
	.byte		        Gn5 
	.byte	W06
	.byte		        Ds5 
	.byte	W06
	.byte		        Cn5 
	.byte	W06
	.byte		        Gn5 
	.byte	W06
	.byte		        Ds5 
	.byte	W06
	.byte		        Cn5 
	.byte	W06
	.byte		        Gn5 
	.byte	W06
	.byte		        Ds5 
	.byte	W06
	.byte		        Cn5 
	.byte	W06
	.byte	PATT
	 .word	song_course_river_3 + 0x2C
	.byte	PATT
	 .word	song_course_river_3 + 0x4F
	.byte	W96
	.byte	GOTO
	 .word	song_course_river_3 + 0x2
	.byte	FINE

@*********************** Track 05 ***********************@

song_course_river_4:
	.byte	KEYSH , song_course_river_key+0
	.byte		VOICE , 102
	.byte		VOL   , 42*song_course_river_mvl/mxv
	.byte		PAN   , c_v+0
	.byte	W96
	.byte	W96
	.byte	W96
	.byte	W96
	.byte	W96
	.byte	W96
	.byte	W96
	.byte	W96
	.byte	W96
	.byte	W96
	.byte	W96
	.byte	W96
	.byte	W96
	.byte	W96
	.byte	W96
	.byte	W96
	.byte	W96
	.byte	W96
	.byte	W08
	.byte		N05   , Gn4 , v080
	.byte	W16
	.byte		N05
	.byte	W24
	.byte		N05
	.byte	W20
	.byte		N14
	.byte	W04
	.byte		VOL   , 39*song_course_river_mvl/mxv
	.byte	W01
	.byte		        27*song_course_river_mvl/mxv
	.byte	W02
	.byte		        18*song_course_river_mvl/mxv
	.byte	W01
	.byte		        10*song_course_river_mvl/mxv
	.byte	W02
	.byte		        4*song_course_river_mvl/mxv
	.byte	W02
	.byte		        1*song_course_river_mvl/mxv
	.byte	W01
	.byte		        0*song_course_river_mvl/mxv
	.byte	W15
	.byte		        42*song_course_river_mvl/mxv
	.byte	W12
	.byte		N05
	.byte	W12
	.byte		N05
	.byte	W24
	.byte		N05
	.byte	W20
	.byte		N14
	.byte	W04
	.byte		VOL   , 39*song_course_river_mvl/mxv
	.byte	W01
	.byte		        27*song_course_river_mvl/mxv
	.byte	W02
	.byte		        18*song_course_river_mvl/mxv
	.byte	W01
	.byte		        10*song_course_river_mvl/mxv
	.byte	W02
	.byte		        4*song_course_river_mvl/mxv
	.byte	W02
	.byte		        1*song_course_river_mvl/mxv
	.byte	W01
	.byte		        0*song_course_river_mvl/mxv
	.byte	W15
	.byte	W96
	.byte	W96
	.byte		        42*song_course_river_mvl/mxv
	.byte	W08
	.byte		N05
	.byte	W16
	.byte		N05
	.byte	W24
	.byte		N05
	.byte	W20
	.byte		N14
	.byte	W04
	.byte		VOL   , 39*song_course_river_mvl/mxv
	.byte	W01
	.byte		        27*song_course_river_mvl/mxv
	.byte	W02
	.byte		        18*song_course_river_mvl/mxv
	.byte	W01
	.byte		        10*song_course_river_mvl/mxv
	.byte	W02
	.byte		        4*song_course_river_mvl/mxv
	.byte	W02
	.byte		        1*song_course_river_mvl/mxv
	.byte	W01
	.byte		        0*song_course_river_mvl/mxv
	.byte	W15
	.byte		        42*song_course_river_mvl/mxv
	.byte	W12
	.byte		N05
	.byte	W12
	.byte		N05
	.byte	W24
	.byte		N05
	.byte	W08
	.byte		BEND  , c_v-38
	.byte		N16   , Dn4 
	.byte	W01
	.byte		BEND  , c_v-32
	.byte	W01
	.byte		        c_v-22
	.byte	W01
	.byte		        c_v-18
	.byte	W01
	.byte		        c_v-14
	.byte	W01
	.byte		        c_v-10
	.byte	W01
	.byte		        c_v-8
	.byte	W01
	.byte		        c_v-2
	.byte	W02
	.byte		        c_v+0
	.byte	W07
	.byte		N06   , En4 
	.byte	W12
	.byte		        Fn4 
	.byte	W12
	.byte		N18   , Gn4 
	.byte	W03
	.byte		VOL   , 38*song_course_river_mvl/mxv
	.byte	W01
	.byte		        34*song_course_river_mvl/mxv
	.byte	W02
	.byte		        29*song_course_river_mvl/mxv
	.byte	W02
	.byte		        25*song_course_river_mvl/mxv
	.byte	W01
	.byte		        21*song_course_river_mvl/mxv
	.byte	W02
	.byte		        17*song_course_river_mvl/mxv
	.byte	W02
	.byte		        12*song_course_river_mvl/mxv
	.byte	W01
	.byte		        8*song_course_river_mvl/mxv
	.byte	W02
	.byte		        4*song_course_river_mvl/mxv
	.byte	W02
	.byte		        0*song_course_river_mvl/mxv
	.byte	W54
	.byte		        42*song_course_river_mvl/mxv
	.byte	W08
	.byte		BEND  , c_v-34
	.byte		N16
	.byte	W01
	.byte		BEND  , c_v-26
	.byte	W01
	.byte		        c_v-18
	.byte	W01
	.byte		        c_v-12
	.byte	W01
	.byte		        c_v-10
	.byte	W01
	.byte		        c_v-6
	.byte	W01
	.byte		        c_v-4
	.byte	W01
	.byte		        c_v+0
	.byte	W09
	.byte		N15   , Fn4 
	.byte	W04
	.byte		VOL   , 39*song_course_river_mvl/mxv
	.byte	W01
	.byte		        29*song_course_river_mvl/mxv
	.byte	W02
	.byte		        19*song_course_river_mvl/mxv
	.byte	W01
	.byte		        12*song_course_river_mvl/mxv
	.byte	W02
	.byte		        6*song_course_river_mvl/mxv
	.byte	W02
	.byte		        2*song_course_river_mvl/mxv
	.byte	W01
	.byte		        0*song_course_river_mvl/mxv
	.byte	W02
	.byte		        0*song_course_river_mvl/mxv
	.byte	W80
	.byte	W01
	.byte	W96
	.byte	W96
	.byte	GOTO
	 .word	song_course_river_4 + 0x2
	.byte	FINE

@*********************** Track 06 ***********************@

song_course_river_5:
	.byte	KEYSH , song_course_river_key+0
	.byte		VOICE , 121
	.byte		VOL   , 42*song_course_river_mvl/mxv
	.byte		PAN   , c_v+63
	.byte	W96
	.byte	W96
	.byte	W96
	.byte	W96
	.byte	W96
	.byte	W96
	.byte	W96
	.byte	W96
	.byte	W96
	.byte	W96
	.byte	W96
	.byte	W96
	.byte		N12   , Cn4 , v100
	.byte	W24
	.byte		N12
	.byte	W18
	.byte		N12
	.byte	W12
	.byte		N18   , Gn3 
	.byte	W18
	.byte		N07   , As3 
	.byte	W12
	.byte		        Dn4 
	.byte	W12
	.byte		N12   , Cn4 
	.byte	W24
	.byte		N12
	.byte	W18
	.byte		N12
	.byte	W12
	.byte		N18   , Ds4 
	.byte	W18
	.byte		N08   , Dn4 
	.byte	W12
	.byte		        Cs4 
	.byte	W12
	.byte		N12   , Cn4 , v080
	.byte	W24
	.byte		N12
	.byte	W18
	.byte		N12
	.byte	W12
	.byte		N18   , Gn3 
	.byte	W18
	.byte		N07   , As3 
	.byte	W12
	.byte		        Dn4 
	.byte	W12
	.byte		N12   , Cn4 
	.byte	W24
	.byte		N12
	.byte	W18
	.byte		N12
	.byte	W12
	.byte		N18   , Ds4 
	.byte	W18
	.byte		N08   , Dn4 
	.byte	W12
	.byte		        Cs4 
	.byte	W12
	.byte		        Cn4 
	.byte	W96
	.byte		VOICE , 101
	.byte	W96
	.byte	W08
	.byte		N05   , Ds4 , v092
	.byte	W16
	.byte		N05
	.byte	W24
	.byte		N05
	.byte	W20
	.byte		N14
	.byte	W04
	.byte		VOL   , 39*song_course_river_mvl/mxv
	.byte	W01
	.byte		        27*song_course_river_mvl/mxv
	.byte	W02
	.byte		        18*song_course_river_mvl/mxv
	.byte	W01
	.byte		        10*song_course_river_mvl/mxv
	.byte	W02
	.byte		        4*song_course_river_mvl/mxv
	.byte	W02
	.byte		        1*song_course_river_mvl/mxv
	.byte	W01
	.byte		        0*song_course_river_mvl/mxv
	.byte	W15
	.byte		        42*song_course_river_mvl/mxv
	.byte	W12
	.byte		N05
	.byte	W12
	.byte		N05
	.byte	W24
	.byte		N05
	.byte	W20
	.byte		N14
	.byte	W04
	.byte		VOL   , 39*song_course_river_mvl/mxv
	.byte	W01
	.byte		        27*song_course_river_mvl/mxv
	.byte	W02
	.byte		        18*song_course_river_mvl/mxv
	.byte	W01
	.byte		        10*song_course_river_mvl/mxv
	.byte	W02
	.byte		        4*song_course_river_mvl/mxv
	.byte	W02
	.byte		        1*song_course_river_mvl/mxv
	.byte	W01
	.byte		        0*song_course_river_mvl/mxv
	.byte	W15
	.byte	W96
	.byte	W96
	.byte		        42*song_course_river_mvl/mxv
	.byte	W08
	.byte		N05
	.byte	W16
	.byte		N05
	.byte	W24
	.byte		N05
	.byte	W20
	.byte		N14
	.byte	W04
	.byte		VOL   , 39*song_course_river_mvl/mxv
	.byte	W01
	.byte		        27*song_course_river_mvl/mxv
	.byte	W02
	.byte		        18*song_course_river_mvl/mxv
	.byte	W01
	.byte		        10*song_course_river_mvl/mxv
	.byte	W02
	.byte		        4*song_course_river_mvl/mxv
	.byte	W02
	.byte		        1*song_course_river_mvl/mxv
	.byte	W01
	.byte		        0*song_course_river_mvl/mxv
	.byte	W15
	.byte		        42*song_course_river_mvl/mxv
	.byte	W12
	.byte		N05
	.byte	W12
	.byte		N05
	.byte	W24
	.byte		N05
	.byte	W08
	.byte		N16   , An3 
	.byte	W16
	.byte		N06   , Bn3 
	.byte	W12
	.byte		        Cn4 
	.byte	W12
	.byte		N18   , Dn4 
	.byte	W03
	.byte		VOL   , 38*song_course_river_mvl/mxv
	.byte	W01
	.byte		        34*song_course_river_mvl/mxv
	.byte	W02
	.byte		        29*song_course_river_mvl/mxv
	.byte	W02
	.byte		        25*song_course_river_mvl/mxv
	.byte	W01
	.byte		        21*song_course_river_mvl/mxv
	.byte	W02
	.byte		        17*song_course_river_mvl/mxv
	.byte	W02
	.byte		        12*song_course_river_mvl/mxv
	.byte	W01
	.byte		        8*song_course_river_mvl/mxv
	.byte	W02
	.byte		        4*song_course_river_mvl/mxv
	.byte	W02
	.byte		        0*song_course_river_mvl/mxv
	.byte	W54
	.byte		        42*song_course_river_mvl/mxv
	.byte	W08
	.byte		N16   , Ds4 
	.byte	W16
	.byte		N15   , Cn4 
	.byte	W04
	.byte		VOL   , 39*song_course_river_mvl/mxv
	.byte	W01
	.byte		        29*song_course_river_mvl/mxv
	.byte	W02
	.byte		        19*song_course_river_mvl/mxv
	.byte	W01
	.byte		        12*song_course_river_mvl/mxv
	.byte	W02
	.byte		        6*song_course_river_mvl/mxv
	.byte	W02
	.byte		        2*song_course_river_mvl/mxv
	.byte	W01
	.byte		        0*song_course_river_mvl/mxv
	.byte	W02
	.byte		        0*song_course_river_mvl/mxv
	.byte	W80
	.byte	W01
	.byte	W96
	.byte	W96
	.byte	GOTO
	 .word	song_course_river_5 + 0x2
	.byte	FINE

@*********************** Track 07 ***********************@

song_course_river_6:
	.byte	KEYSH , song_course_river_key+0
	.byte		VOICE , 127
	.byte		VOL   , 90*song_course_river_mvl/mxv
	.byte		PAN   , c_v+0
	.byte		N06   , As0 , v100
	.byte		N06   , Bn6 , v127
	.byte	W06
	.byte		        En3 , v104
	.byte	W06
	.byte		N03   , An3 , v040
	.byte		N06   , Bn6 , v116
	.byte	W06
	.byte		N03   , An3 , v040
	.byte		N06   , Cn7 , v092
	.byte	W06
	.byte		        Gn6 , v127
	.byte	W06
	.byte		        En3 , v100
	.byte	W06
	.byte		        En3 , v112
	.byte		N03   , An3 , v040
	.byte	W06
	.byte		N03
	.byte		N06   , Bn6 , v088
	.byte	W06
	.byte		        As0 , v100
	.byte		N06   , En3 , v127
	.byte	W06
	.byte		N03   , An3 , v040
	.byte		N06   , Bn6 , v104
	.byte	W06
	.byte		        En3 , v116
	.byte	W06
	.byte		N03   , An3 , v040
	.byte		N06   , Cn7 , v092
	.byte	W06
	.byte		        Gn6 , v127
	.byte	W06
	.byte		        En3 
	.byte	W06
	.byte		        As0 , v100
	.byte		N03   , An3 , v040
	.byte		N06   , Gn6 , v108
	.byte	W06
	.byte		        As0 , v100
	.byte		N03   , An3 , v040
	.byte		N06   , Gn6 , v076
	.byte	W06
	.byte		N06   , As0 , v100
	.byte		N06   , Bn6 , v127
	.byte	W06
	.byte		        En3 , v104
	.byte	W06
	.byte		N03   , An3 , v040
	.byte		N06   , Bn6 , v116
	.byte	W06
	.byte		N03   , An3 , v040
	.byte		N06   , Cn7 , v092
	.byte	W06
	.byte		        Gn6 , v127
	.byte	W06
	.byte		        En3 , v100
	.byte	W06
	.byte		        En3 , v112
	.byte		N03   , An3 , v040
	.byte	W06
	.byte		N03
	.byte		N06   , Bn6 , v088
	.byte	W06
	.byte		        As0 , v100
	.byte	W06
	.byte		N03   , An3 , v040
	.byte		N06   , Bn6 , v104
	.byte	W06
	.byte		        En3 , v116
	.byte	W06
	.byte		N03   , An3 , v040
	.byte		N06   , Cn7 , v092
	.byte	W06
	.byte		        Gn6 , v127
	.byte	W06
	.byte		        Gn6 , v092
	.byte	W06
	.byte		        As0 , v100
	.byte		N03   , An3 , v040
	.byte		N06   , Gn6 , v108
	.byte	W06
	.byte		        As0 , v100
	.byte		N03   , An3 , v040
	.byte		N06   , Gn6 , v076
	.byte	W06
	.byte	PEND
	.byte		N06   , As0 , v100
	.byte		N06   , Bn6 , v127
	.byte	W06
	.byte		        En3 , v104
	.byte	W06
	.byte		N03   , An3 , v040
	.byte		N06   , Bn6 , v116
	.byte	W06
	.byte		N03   , An3 , v040
	.byte		N06   , Cn7 , v092
	.byte	W06
	.byte		        Gn6 , v127
	.byte	W06
	.byte		        En3 , v100
	.byte	W06
	.byte		        En3 , v112
	.byte		N03   , An3 , v040
	.byte	W06
	.byte		N03
	.byte		N06   , Bn6 , v088
	.byte	W06
	.byte		        As0 , v100
	.byte		N06   , En3 , v127
	.byte	W06
	.byte		N03   , An3 , v040
	.byte		N06   , Bn6 , v104
	.byte	W06
	.byte		        En3 , v116
	.byte	W06
	.byte		N03   , An3 , v040
	.byte		N06   , Cn7 , v092
	.byte	W06
	.byte		        Gn6 , v127
	.byte	W06
	.byte		        En3 
	.byte	W06
	.byte		        As0 , v100
	.byte		N03   , An3 , v040
	.byte		N06   , Gn6 , v108
	.byte	W06
	.byte		        As0 , v100
	.byte		N03   , An3 , v040
	.byte		N06   , Gn6 , v076
	.byte	W06
	.byte	PEND
	.byte	PATT
	 .word	song_course_river_6 + 0x5F
	.byte		N06   , As0 , v100
	.byte		N08   , Gn4 , v092
	.byte	W06
	.byte		N06   , En3 , v104
	.byte	W06
	.byte		N03   , An3 , v040
	.byte		N06   , Bn6 , v116
	.byte	W06
	.byte		N03   , An3 , v040
	.byte		N06   , Cn7 , v092
	.byte	W06
	.byte		        Gn6 , v127
	.byte	W06
	.byte		        En3 , v100
	.byte	W06
	.byte		        En3 , v112
	.byte		N03   , An3 , v040
	.byte	W06
	.byte		N03
	.byte		N06   , Bn6 , v088
	.byte	W06
	.byte		        As0 , v100
	.byte		N01   , Gn4 , v092
	.byte	W01
	.byte		N07   , Fs4 
	.byte	W05
	.byte		N03   , An3 , v040
	.byte		N06   , Bn6 , v104
	.byte	W06
	.byte		N01   , Gn4 , v092
	.byte	W01
	.byte		N07   , Fs4 
	.byte	W05
	.byte		N03   , An3 , v040
	.byte		N06   , Cn7 , v092
	.byte	W06
	.byte		        Gn6 , v127
	.byte	W06
	.byte		        En3 
	.byte	W06
	.byte		        As0 , v100
	.byte		N03   , An3 , v040
	.byte		N06   , Gn6 , v108
	.byte	W06
	.byte		        As0 , v100
	.byte		N03   , An3 , v040
	.byte		N06   , Gn6 , v076
	.byte	W06
	.byte	PATT
	 .word	song_course_river_6 + 0x5F
	.byte	PATT
	 .word	song_course_river_6 + 0xB5
	.byte		N06   , As0 , v100
	.byte		N06   , Bn6 , v127
	.byte	W06
	.byte		        En3 , v104
	.byte	W06
	.byte		N03   , An3 , v040
	.byte		N06   , Bn6 , v116
	.byte	W06
	.byte		N03   , An3 , v040
	.byte		N06   , Cn7 , v092
	.byte	W06
	.byte		        Gn6 , v127
	.byte	W06
	.byte		        En3 , v100
	.byte	W06
	.byte		        En3 , v112
	.byte		N03   , An3 , v040
	.byte	W06
	.byte		N03
	.byte		N06   , Bn6 , v088
	.byte	W06
	.byte		        As0 , v100
	.byte	W06
	.byte		N03   , An3 , v040
	.byte		N06   , Bn6 , v104
	.byte	W06
	.byte		        En3 , v116
	.byte	W06
	.byte		N03   , An3 , v040
	.byte		N06   , Cn7 , v092
	.byte	W06
	.byte		        Gn6 , v127
	.byte	W06
	.byte		        En3 
	.byte	W06
	.byte		        As0 , v100
	.byte		N03   , An3 , v040
	.byte		N06   , Gn6 , v108
	.byte	W06
	.byte		        As0 , v100
	.byte		N03   , An3 , v040
	.byte		N06   , Gn6 , v076
	.byte	W06
	.byte		        As0 , v100
	.byte		N06   , Bn6 , v127
	.byte	W06
	.byte		        En3 , v104
	.byte	W06
	.byte		N03   , An3 , v040
	.byte		N06   , Bn6 , v116
	.byte	W06
	.byte		N03   , An3 , v040
	.byte		N06   , Cn7 , v092
	.byte	W06
	.byte		        Gn6 , v127
	.byte	W06
	.byte		        En3 , v100
	.byte	W06
	.byte		        En3 , v112
	.byte		N03   , An3 , v040
	.byte	W06
	.byte		N03
	.byte		N06   , Bn6 , v088
	.byte	W06
	.byte		        As0 , v100
	.byte		N01   , Gn4 , v092
	.byte	W01
	.byte		N07   , Fs4 
	.byte	W05
	.byte		N03   , An3 , v040
	.byte		N06   , Bn6 , v104
	.byte	W06
	.byte		N01   , Gn4 , v092
	.byte	W01
	.byte		N07   , Fs4 
	.byte	W05
	.byte		N03   , An3 , v040
	.byte		N06   , Cn7 , v092
	.byte	W06
	.byte		        Gn6 , v127
	.byte	W06
	.byte		        Gn6 , v092
	.byte	W06
	.byte		        As0 , v100
	.byte		N03   , An3 , v040
	.byte		N06   , Gn6 , v108
	.byte	W06
	.byte		        As0 , v100
	.byte		N03   , An3 , v040
	.byte		N06   , Gn6 , v076
	.byte	W06
	.byte		        As0 , v100
	.byte		N06   , Bn6 , v127
	.byte	W06
	.byte		        En3 , v104
	.byte	W06
	.byte		N03   , An3 , v040
	.byte		N06   , Bn6 , v116
	.byte	W06
	.byte		N03   , An3 , v040
	.byte		N06   , Cn7 , v092
	.byte	W06
	.byte		        Gn6 , v127
	.byte	W06
	.byte		        En3 , v100
	.byte	W06
	.byte		        En3 , v112
	.byte		N03   , An3 , v040
	.byte	W06
	.byte		N03
	.byte		N06   , Bn6 , v088
	.byte	W06
	.byte		        As0 , v100
	.byte	W06
	.byte		N03   , Fn3 , v072
	.byte		N03   , An3 , v040
	.byte		N06   , Bn6 , v104
	.byte	W03
	.byte		N03   , Fn3 , v080
	.byte	W03
	.byte		N06   , En3 , v116
	.byte		N06   , Fn3 , v100
	.byte	W06
	.byte		        Fn3 , v064
	.byte		N03   , An3 , v040
	.byte		N06   , Cn7 , v092
	.byte	W06
	.byte		        Fn3 , v100
	.byte		N06   , Gn6 , v127
	.byte	W06
	.byte		        En3 
	.byte		N06   , Fn3 , v072
	.byte	W06
	.byte		        As0 , v100
	.byte		N06   , Fn3 , v088
	.byte		N03   , An3 , v040
	.byte	W06
	.byte		N06   , As0 , v100
	.byte		N12   , Fn3 , v112
	.byte		N03   , An3 , v040
	.byte	W06
	.byte		N06   , As0 , v100
	.byte	W06
	.byte		        En3 , v104
	.byte		N03   , An3 , v016
	.byte	W06
	.byte		        An3 , v040
	.byte		N06   , Bn6 , v116
	.byte	W06
	.byte		N03   , An3 , v040
	.byte		N06   , Cn7 , v092
	.byte	W06
	.byte		        As0 , v100
	.byte		N03   , An3 , v032
	.byte		N06   , Gn6 , v127
	.byte	W06
	.byte		        En3 , v100
	.byte		N03   , An3 , v016
	.byte	W06
	.byte		N06   , En3 , v112
	.byte		N03   , An3 , v040
	.byte	W06
	.byte		N03
	.byte		N06   , Bn6 , v088
	.byte	W06
	.byte		        As0 , v100
	.byte		N06   , En3 , v127
	.byte		N03   , An3 , v016
	.byte	W06
	.byte		        An3 , v040
	.byte		N06   , Bn6 , v104
	.byte	W06
	.byte		        En3 , v116
	.byte		N03   , An3 , v016
	.byte	W06
	.byte		        An3 , v040
	.byte		N06   , Cn7 , v092
	.byte	W06
	.byte		        As0 , v100
	.byte		N03   , An3 , v040
	.byte		N06   , Gn6 , v127
	.byte	W06
	.byte		N03   , An3 , v016
	.byte		N06   , Gn6 , v092
	.byte	W06
	.byte		        As0 , v100
	.byte		N03   , An3 , v024
	.byte		N06   , Gn6 , v108
	.byte	W06
	.byte		        As0 , v100
	.byte		N03   , An3 , v040
	.byte		N06   , Gn6 , v076
	.byte	W06
	.byte		N06   , As0 , v100
	.byte		N03   , An3 , v040
	.byte		N06   , Bn6 , v127
	.byte	W06
	.byte		        En3 , v104
	.byte		N03   , An3 , v016
	.byte	W06
	.byte		        An3 , v040
	.byte		N06   , Bn6 , v116
	.byte	W06
	.byte		N03   , An3 , v040
	.byte		N06   , Cn7 , v092
	.byte	W06
	.byte		        As0 , v100
	.byte		N03   , An3 , v032
	.byte		N06   , Gn6 , v127
	.byte	W06
	.byte		        En3 , v100
	.byte		N03   , An3 , v016
	.byte	W06
	.byte		N06   , En3 , v112
	.byte		N03   , An3 , v040
	.byte	W06
	.byte		N03
	.byte		N06   , Bn6 , v088
	.byte	W06
	.byte		        As0 , v100
	.byte		N03   , An3 , v016
	.byte	W06
	.byte		        An3 , v040
	.byte		N06   , Bn6 , v104
	.byte	W06
	.byte		        En3 , v116
	.byte		N03   , An3 , v016
	.byte	W06
	.byte		        An3 , v040
	.byte		N06   , Cn7 , v092
	.byte	W06
	.byte		        As0 , v100
	.byte		N03   , An3 , v040
	.byte		N06   , Gn6 , v127
	.byte	W06
	.byte		        En3 
	.byte		N03   , An3 , v016
	.byte	W06
	.byte		N06   , As0 , v100
	.byte		N03   , An3 , v024
	.byte		N06   , Gn6 , v108
	.byte	W06
	.byte		        As0 , v100
	.byte		N03   , An3 , v040
	.byte		N06   , Gn6 , v076
	.byte	W06
	.byte	PEND
	.byte		N06   , As0 , v100
	.byte		N03   , An3 , v040
	.byte		N06   , Bn6 , v127
	.byte	W06
	.byte		        En3 , v104
	.byte		N03   , An3 , v016
	.byte	W06
	.byte		        An3 , v040
	.byte		N06   , Bn6 , v116
	.byte	W06
	.byte		N03   , An3 , v040
	.byte		N06   , Cn7 , v092
	.byte	W06
	.byte		        As0 , v100
	.byte		N03   , An3 , v032
	.byte		N06   , Gn6 , v127
	.byte	W06
	.byte		        En3 , v100
	.byte		N03   , An3 , v016
	.byte	W06
	.byte		N06   , En3 , v112
	.byte		N03   , An3 , v040
	.byte	W06
	.byte		N03
	.byte		N06   , Bn6 , v088
	.byte	W06
	.byte		        As0 , v100
	.byte		N06   , En3 , v127
	.byte		N03   , An3 , v016
	.byte	W06
	.byte		        An3 , v040
	.byte		N06   , Bn6 , v104
	.byte	W06
	.byte		        En3 , v116
	.byte		N03   , An3 , v016
	.byte	W06
	.byte		        An3 , v040
	.byte		N06   , Cn7 , v092
	.byte	W06
	.byte		        As0 , v100
	.byte		N03   , An3 , v040
	.byte		N06   , Gn6 , v127
	.byte	W06
	.byte		N03   , An3 , v016
	.byte		N06   , Gn6 , v092
	.byte	W06
	.byte		        As0 , v100
	.byte		N03   , An3 , v024
	.byte		N06   , Gn6 , v108
	.byte	W06
	.byte		        As0 , v100
	.byte		N03   , An3 , v040
	.byte		N06   , Gn6 , v076
	.byte	W06
	.byte	PEND
	.byte	PATT
	 .word	song_course_river_6 + 0x303
	.byte	PATT
	 .word	song_course_river_6 + 0x375
	.byte		N06   , As0 , v100
	.byte		N03   , An3 , v040
	.byte		N06   , Bn6 , v127
	.byte	W06
	.byte		        En3 , v104
	.byte		N03   , An3 , v016
	.byte	W06
	.byte		        An3 , v040
	.byte		N06   , Bn6 , v116
	.byte	W06
	.byte		N03   , An3 , v040
	.byte		N06   , Cn7 , v092
	.byte	W06
	.byte		        As0 , v100
	.byte		N03   , An3 , v032
	.byte		N06   , Gn6 , v127
	.byte	W06
	.byte		        En3 , v100
	.byte		N03   , An3 , v016
	.byte	W06
	.byte		N06   , En3 , v112
	.byte		N03   , An3 , v040
	.byte	W06
	.byte		N03
	.byte		N06   , Bn6 , v088
	.byte	W06
	.byte		        As0 , v100
	.byte		N03   , An3 , v016
	.byte	W06
	.byte		        An3 , v040
	.byte		N06   , Bn6 , v104
	.byte	W06
	.byte		        En3 , v116
	.byte		N03   , An3 , v016
	.byte	W06
	.byte		        An3 , v040
	.byte		N06   , Cn7 , v092
	.byte	W06
	.byte		        As0 , v100
	.byte		N03   , An3 , v040
	.byte		N04   , Gn6 , v127
	.byte	W04
	.byte		        Gn6 , v076
	.byte	W02
	.byte		N06   , En3 , v127
	.byte		N03   , An3 , v016
	.byte	W02
	.byte		N04   , Gn6 , v127
	.byte	W04
	.byte		N06   , As0 , v100
	.byte		N03   , An3 , v024
	.byte		N06   , Gn6 , v108
	.byte	W06
	.byte		        As0 , v100
	.byte		N03   , An3 , v040
	.byte		N06   , Gn6 , v076
	.byte	W06
	.byte	PEND
	.byte	PATT
	 .word	song_course_river_6 + 0x375
	.byte	PATT
	 .word	song_course_river_6 + 0x303
	.byte	PATT
	 .word	song_course_river_6 + 0x375
	.byte	PATT
	 .word	song_course_river_6 + 0x303
	.byte	PATT
	 .word	song_course_river_6 + 0x375
	.byte	PATT
	 .word	song_course_river_6 + 0x303
	.byte	PATT
	 .word	song_course_river_6 + 0x375
	.byte	PATT
	 .word	song_course_river_6 + 0x3F5
	.byte		N06   , As0 , v100
	.byte		N03   , An3 , v040
	.byte		N06   , Bn6 , v127
	.byte	W06
	.byte		        En3 , v104
	.byte		N03   , An3 , v016
	.byte	W06
	.byte		        An3 , v040
	.byte		N06   , Bn6 , v116
	.byte	W06
	.byte		N03   , An3 , v040
	.byte		N06   , Cn7 , v092
	.byte	W06
	.byte		        As0 , v100
	.byte		N03   , An3 , v032
	.byte		N06   , Gn6 , v127
	.byte	W06
	.byte		        En3 , v100
	.byte		N03   , An3 , v016
	.byte	W06
	.byte		N06   , En3 , v112
	.byte		N03   , An3 , v040
	.byte	W06
	.byte		N03
	.byte		N06   , Bn6 , v088
	.byte	W06
	.byte		        As0 , v100
	.byte		N06   , En3 , v127
	.byte		N03   , An3 , v016
	.byte	W06
	.byte		        An3 , v040
	.byte		N06   , Bn6 , v104
	.byte	W06
	.byte		        En3 , v116
	.byte		N03   , An3 , v016
	.byte	W06
	.byte		        An3 , v040
	.byte		N06   , Cn7 , v092
	.byte	W06
	.byte		        As0 , v100
	.byte		N03   , An3 , v040
	.byte		N06   , Gn6 , v127
	.byte	W06
	.byte		        En3 
	.byte		N03   , An3 , v016
	.byte	W06
	.byte		N06   , As0 , v100
	.byte		N03   , An3 , v024
	.byte		N06   , Gn6 , v108
	.byte	W06
	.byte		        As0 , v100
	.byte		N03   , An3 , v040
	.byte		N06   , Gn6 , v076
	.byte	W06
	.byte		        As0 , v100
	.byte		N03   , An3 , v040
	.byte		N06   , Bn6 , v127
	.byte	W06
	.byte		        En3 , v104
	.byte		N03   , An3 , v016
	.byte	W06
	.byte		        An3 , v040
	.byte		N06   , Bn6 , v116
	.byte	W06
	.byte		N03   , An3 , v040
	.byte		N06   , Cn7 , v092
	.byte	W06
	.byte		        As0 , v100
	.byte		N03   , An3 , v032
	.byte		N06   , Gn6 , v127
	.byte	W06
	.byte		        En3 , v100
	.byte		N03   , An3 , v016
	.byte	W06
	.byte		N06   , En3 , v112
	.byte		N03   , An3 , v040
	.byte	W06
	.byte		N03
	.byte		N06   , Bn6 , v088
	.byte	W06
	.byte		        As0 , v100
	.byte		N03   , An3 , v016
	.byte	W06
	.byte		        An3 , v040
	.byte		N06   , Bn6 , v104
	.byte	W06
	.byte		        En3 , v116
	.byte		N03   , An3 , v016
	.byte	W06
	.byte		        An3 , v040
	.byte		N06   , Cn7 , v092
	.byte	W06
	.byte		        As0 , v100
	.byte		N03   , An3 , v040
	.byte		N06   , Gn6 , v127
	.byte	W06
	.byte		N03   , An3 , v016
	.byte		N06   , Gn6 , v092
	.byte	W06
	.byte		        As0 , v100
	.byte		N03   , An3 , v024
	.byte		N06   , Gn6 , v108
	.byte	W06
	.byte		        As0 , v100
	.byte		N03   , An3 , v040
	.byte		N06   , Gn6 , v076
	.byte	W06
	.byte		        As0 , v100
	.byte		N03   , An3 , v040
	.byte		N06   , Bn6 , v127
	.byte	W06
	.byte		        En3 , v104
	.byte		N03   , An3 , v016
	.byte	W06
	.byte		        An3 , v040
	.byte		N06   , Bn6 , v116
	.byte	W06
	.byte		N03   , An3 , v040
	.byte		N06   , Cn7 , v092
	.byte	W06
	.byte		        As0 , v100
	.byte		N03   , An3 , v032
	.byte		N06   , Gn6 , v127
	.byte	W06
	.byte		        En3 , v100
	.byte		N03   , An3 , v016
	.byte	W06
	.byte		N06   , En3 , v112
	.byte		N03   , An3 , v040
	.byte	W06
	.byte		N03
	.byte		N06   , Bn6 , v088
	.byte	W06
	.byte		        As0 , v100
	.byte		N06   , En3 , v127
	.byte		N03   , An3 , v016
	.byte	W06
	.byte		        An3 , v040
	.byte		N06   , Bn6 , v104
	.byte	W06
	.byte		        En3 , v116
	.byte		N03   , An3 , v016
	.byte	W06
	.byte		        An3 , v040
	.byte		N06   , Cn7 , v092
	.byte	W06
	.byte		        As0 , v100
	.byte		N03   , An3 , v040
	.byte		N04   , Gn6 , v127
	.byte	W04
	.byte		        Gn6 , v076
	.byte	W02
	.byte		N03   , An3 , v016
	.byte	W02
	.byte		N04   , Gn6 , v127
	.byte	W04
	.byte		N06   , As0 , v100
	.byte		N03   , An3 , v024
	.byte		N06   , Gn6 , v108
	.byte	W06
	.byte		        As0 , v100
	.byte		N03   , An3 , v040
	.byte		N06   , Gn6 , v076
	.byte	W06
	.byte		N08   , As0 , v100
	.byte		N03   , An3 , v040
	.byte		N08   , Gn6 , v127
	.byte		N08   , Cn7 
	.byte	W08
	.byte		        As0 , v100
	.byte		N03   , An3 , v040
	.byte		N08   , Gn6 , v112
	.byte		N08   , Cn7 
	.byte	W08
	.byte		        As0 , v100
	.byte		N03   , An3 , v040
	.byte		N08   , Gn6 , v112
	.byte		N08   , Cn7 
	.byte	W08
	.byte		        As0 , v100
	.byte		N03   , An3 , v040
	.byte		N08   , Gn6 , v127
	.byte		N08   , Cn7 
	.byte	W08
	.byte		        As0 , v100
	.byte		N03   , An3 , v040
	.byte		N08   , Gn6 , v100
	.byte		N08   , Cn7 
	.byte	W08
	.byte		        As0 
	.byte		N03   , An3 , v040
	.byte		N08   , Gn6 , v112
	.byte		N08   , Cn7 
	.byte	W08
	.byte		N12   , As0 , v100
	.byte		N03   , An3 , v040
	.byte		N15   , Gn6 , v127
	.byte		N15   , Cn7 
	.byte	W18
	.byte		N03   , Gn6 , v096
	.byte	W03
	.byte		        Gn6 , v104
	.byte	W03
	.byte		N06   , Gn6 , v127
	.byte	W06
	.byte		        Gn6 , v104
	.byte	W06
	.byte		        En3 , v088
	.byte	W06
	.byte		        En3 , v112
	.byte	W06
	.byte	GOTO
	 .word	song_course_river_6 + 0x2
	.byte	FINE

@******************************************************@

	.align	2

song_course_river:
	.byte	7	@ NumTrks
	.byte	0	@ NumBlks
	.byte	song_course_river_pri	@ Priority
	.byte	song_course_river_rev	@ Reverb

	.word	song_course_river_grp

	.word	song_course_river_0
	.word	song_course_river_1
	.word	song_course_river_2
	.word	song_course_river_3
	.word	song_course_river_4
	.word	song_course_river_5
	.word	song_course_river_6

	.end
