@ File generated by m4a2s Song-Module
	.include "MPlayDef.s"

	.equ	song_title_intro_night_grp, bank_title
	.equ	song_title_intro_night_pri, 0
	.equ	song_title_intro_night_rev, 148
	.equ	song_title_intro_night_mvl, 127
	.equ	song_title_intro_night_key, 0

	.section .rodata
	.global	song_title_intro_night
	.align	2

@*********************** Track 01 ***********************@

song_title_intro_night_0:
	.byte	KEYSH , song_title_intro_night_key+0
	.byte	TEMPO , 180/2
	.byte		VOICE , 48
	.byte		MOD   , 0
	.byte		VOL   , 78*song_title_intro_night_mvl/mxv
	.byte		PAN   , c_v+0
	.byte	MEMACC, 0, 0, 0
	.byte		BENDR , 2
	.byte		BEND  , c_v+0
	.byte		N96   , Cs3 , v116
	.byte		N96   , En3 , v100
	.byte		N12   , Cs4 , v112
	.byte	W12
	.byte		        An3 
	.byte	W24
	.byte		        Cs4 
	.byte	W24
	.byte		        En4 
	.byte	W24
	.byte		N36   , Ds4 
	.byte	W12
	.byte		N96   , Fs2 , v120
	.byte		N96   , Ds3 , v100
	.byte	W24
	.byte		N12   , Bn3 , v112
	.byte	W24
	.byte		        Ds4 
	.byte	W12
	.byte		N36   , Fs4 , v100
	.byte	W36
	.byte		N96   , Gn2 , v120
	.byte		N96   , En3 , v100
	.byte		N12   , En4 , v108
	.byte	W12
	.byte		        Cn4 , v112
	.byte	W24
	.byte		        En4 , v108
	.byte	W24
	.byte		        Gn4 , v100
	.byte	W24
	.byte		N36   , Fs4 
	.byte	W12
	.byte		N96   , An2 , v120
	.byte		N96   , Fs3 , v100
	.byte	W24
	.byte		N12   , Dn4 , v112
	.byte	W24
	.byte		        Fs4 , v100
	.byte	W24
	.byte		        An4 
	.byte	W24
	.byte		TIE   , Gs2 , v120
	.byte		TIE   , En3 , v100
	.byte		TIE   , Gs4 , v092
	.byte	W96
	.byte	W48
	.byte		VOL   , 73*song_title_intro_night_mvl/mxv
	.byte	W06
	.byte		        70*song_title_intro_night_mvl/mxv
	.byte	W06
	.byte		        67*song_title_intro_night_mvl/mxv
	.byte	W06
	.byte		        61*song_title_intro_night_mvl/mxv
	.byte	W06
	.byte		        51*song_title_intro_night_mvl/mxv
	.byte	W06
	.byte		        39*song_title_intro_night_mvl/mxv
	.byte	W06
	.byte		        24*song_title_intro_night_mvl/mxv
	.byte	W06
	.byte		        7*song_title_intro_night_mvl/mxv
	.byte	W06
	.byte		EOT   , Gs2 
	.byte		        En3 
	.byte		        Gs4 
	.byte		VOL   , 78*song_title_intro_night_mvl/mxv
	.byte	W48
	.byte		VOICE , 61
	.byte	W24
	.byte		N06   , En3 , v112
	.byte	W06
	.byte		        Gs3 
	.byte	W06
	.byte		        Bn3 
	.byte	W06
	.byte		        Dn4 
	.byte	W03
	.byte	MEMACC, 0, 0, 1
	.byte	W03
	.byte		        En4 , v108
	.byte	W06
	.byte		        En4 , v096
	.byte	W06
	.byte		N18   , En4 , v108
	.byte	W06
	.byte		VOL   , 62*song_title_intro_night_mvl/mxv
	.byte	W03
	.byte		        55*song_title_intro_night_mvl/mxv
	.byte	W03
	.byte		        39*song_title_intro_night_mvl/mxv
	.byte	W03
	.byte		        15*song_title_intro_night_mvl/mxv
	.byte	W03
	.byte		        78*song_title_intro_night_mvl/mxv
	.byte	W03
	.byte	MEMACC, 0, 0, 2
	.byte	W03
	.byte		N06
	.byte	W06
	.byte		        En4 , v096
	.byte	W06
	.byte		N18   , En4 , v108
	.byte	W06
	.byte		VOL   , 62*song_title_intro_night_mvl/mxv
	.byte	W03
	.byte		        55*song_title_intro_night_mvl/mxv
	.byte	W03
	.byte		        39*song_title_intro_night_mvl/mxv
	.byte	W03
	.byte		        15*song_title_intro_night_mvl/mxv
	.byte	W01
	.byte	MEMACC, 0, 0, 3
	.byte	W02
	.byte		        78*song_title_intro_night_mvl/mxv
	.byte	W06
	.byte		N06
	.byte	W06
	.byte		        En4 , v096
	.byte	W06
	.byte		N12   , En4 , v108
	.byte	W06
	.byte		VOL   , 62*song_title_intro_night_mvl/mxv
	.byte	W03
	.byte		        23*song_title_intro_night_mvl/mxv
	.byte	W03
	.byte	FINE

@*********************** Track 02 ***********************@

song_title_intro_night_1:
	.byte	KEYSH , song_title_intro_night_key+0
	.byte		VOICE , 34
	.byte		MOD   , 0
	.byte		VOL   , 100*song_title_intro_night_mvl/mxv
	.byte		PAN   , c_v+0
	.byte		BENDR , 12
	.byte		BEND  , c_v+0
	.byte		N96   , An0 , v127
	.byte	W96
	.byte		N72   , Bn0 
	.byte	W72
	.byte		N24   , Fs0 
	.byte	W24
	.byte		N96   , Cn1 
	.byte	W96
	.byte		N48   , Dn1 
	.byte	W48
	.byte		        An0 
	.byte	W48
	.byte		TIE   , Bn0 
	.byte	W96
	.byte	W48
	.byte		VOL   , 97*song_title_intro_night_mvl/mxv
	.byte	W06
	.byte		        96*song_title_intro_night_mvl/mxv
	.byte	W06
	.byte		        94*song_title_intro_night_mvl/mxv
	.byte	W06
	.byte		        93*song_title_intro_night_mvl/mxv
	.byte	W06
	.byte		        93*song_title_intro_night_mvl/mxv
	.byte	W06
	.byte		        89*song_title_intro_night_mvl/mxv
	.byte	W06
	.byte		        85*song_title_intro_night_mvl/mxv
	.byte	W06
	.byte		        87*song_title_intro_night_mvl/mxv
	.byte	W06
	.byte		EOT
	.byte		VOL   , 92*song_title_intro_night_mvl/mxv
	.byte		N96   , Gs0 
	.byte	W06
	.byte		VOL   , 100*song_title_intro_night_mvl/mxv
	.byte	W90
	.byte		N06   , Bn0 
	.byte	W06
	.byte		N06
	.byte	W06
	.byte		N09
	.byte	W24
	.byte		N06
	.byte	W06
	.byte		N06
	.byte	W06
	.byte		N09
	.byte	W24
	.byte		N24
	.byte	W06
	.byte		BEND  , c_v-6
	.byte	W03
	.byte		        c_v-9
	.byte	W03
	.byte		        c_v-16
	.byte	W03
	.byte		        c_v-32
	.byte	W03
	.byte		        c_v-50
	.byte	W03
	.byte		        c_v-64
	.byte	W03
	.byte	FINE

@*********************** Track 03 ***********************@

song_title_intro_night_2:
	.byte	KEYSH , song_title_intro_night_key+0
	.byte		VOICE , 30
	.byte		MOD   , 0
	.byte		VOL   , 78*song_title_intro_night_mvl/mxv
	.byte		PAN   , c_v+0
	.byte		BENDR , 12
	.byte		BEND  , c_v+0
	.byte	W96
	.byte	W12
	.byte		        c_v-8
	.byte		N12   , Fs1 , v080
	.byte		N12   , Bn1 , v092
	.byte	W03
	.byte		BEND  , c_v+0
	.byte	W09
	.byte		N24   , Fs1 , v080
	.byte		N24   , Bn1 , v092
	.byte	W09
	.byte		VOL   , 70*song_title_intro_night_mvl/mxv
	.byte	W03
	.byte		        60*song_title_intro_night_mvl/mxv
	.byte	W03
	.byte		        51*song_title_intro_night_mvl/mxv
	.byte	W03
	.byte		        33*song_title_intro_night_mvl/mxv
	.byte	W03
	.byte		        12*song_title_intro_night_mvl/mxv
	.byte	W03
	.byte		        78*song_title_intro_night_mvl/mxv
	.byte		BEND  , c_v-8
	.byte		N12   , Ds2 
	.byte	W03
	.byte		BEND  , c_v-4
	.byte	W03
	.byte		        c_v+0
	.byte	W06
	.byte		N12   , Bn1 
	.byte	W12
	.byte		        Dn2 , v080
	.byte		N12   , Fs2 , v092
	.byte	W12
	.byte		TIE   , Cn2 , v080
	.byte		TIE   , En2 , v092
	.byte	W12
	.byte	W24
	.byte		VOL   , 72*song_title_intro_night_mvl/mxv
	.byte	W06
	.byte		        72*song_title_intro_night_mvl/mxv
	.byte	W06
	.byte		        71*song_title_intro_night_mvl/mxv
	.byte	W06
	.byte		        67*song_title_intro_night_mvl/mxv
	.byte	W06
	.byte		        66*song_title_intro_night_mvl/mxv
	.byte	W06
	.byte		        59*song_title_intro_night_mvl/mxv
	.byte	W06
	.byte		        51*song_title_intro_night_mvl/mxv
	.byte	W06
	.byte		        42*song_title_intro_night_mvl/mxv
	.byte	W06
	.byte		        35*song_title_intro_night_mvl/mxv
	.byte	W06
	.byte		        23*song_title_intro_night_mvl/mxv
	.byte	W06
	.byte		        13*song_title_intro_night_mvl/mxv
	.byte	W06
	.byte		        5*song_title_intro_night_mvl/mxv
	.byte	W06
	.byte		EOT   , Cn2 
	.byte		        En2 
	.byte		VOL   , 78*song_title_intro_night_mvl/mxv
	.byte	W12
	.byte		BEND  , c_v-8
	.byte		N12   , Dn2 , v080
	.byte		N12   , An2 , v092
	.byte	W03
	.byte		BEND  , c_v+0
	.byte	W09
	.byte		N24   , Dn2 , v080
	.byte		N24   , An2 , v092
	.byte	W09
	.byte		VOL   , 70*song_title_intro_night_mvl/mxv
	.byte	W03
	.byte		        60*song_title_intro_night_mvl/mxv
	.byte	W03
	.byte		        51*song_title_intro_night_mvl/mxv
	.byte	W03
	.byte		        33*song_title_intro_night_mvl/mxv
	.byte	W03
	.byte		        12*song_title_intro_night_mvl/mxv
	.byte	W03
	.byte		        78*song_title_intro_night_mvl/mxv
	.byte		BEND  , c_v-8
	.byte		N12   , Fs2 
	.byte	W03
	.byte		BEND  , c_v-4
	.byte	W03
	.byte		        c_v+0
	.byte	W06
	.byte		N12   , Dn2 
	.byte	W12
	.byte		        An2 , v080
	.byte		N12   , Dn3 , v088
	.byte	W12
	.byte		TIE   , En2 , v080
	.byte		TIE   , Bn2 , v076
	.byte	W12
	.byte	W96
	.byte	W24
	.byte		EOT   , En2 
	.byte	W48
	.byte		BEND  , c_v-5
	.byte	W03
	.byte		        c_v-9
	.byte	W03
	.byte		        c_v-13
	.byte	W03
	.byte		        c_v-23
	.byte	W03
	.byte		        c_v-29
	.byte	W03
	.byte		        c_v-40
	.byte	W03
	.byte		        c_v-49
	.byte	W03
	.byte		        c_v-58
	.byte	W03
	.byte		EOT   , Bn2 
	.byte		BEND  , c_v+0
	.byte		N96   , En1 , v088
	.byte	W72
	.byte		N06   , Gs3 , v080
	.byte	W06
	.byte		        Bn3 
	.byte	W06
	.byte		        Dn4 
	.byte	W06
	.byte		        Fs4 
	.byte	W06
	.byte		        Gs4 , v072
	.byte	W06
	.byte		        Gs4 , v060
	.byte	W06
	.byte		N18   , Gs4 , v072
	.byte	W06
	.byte		VOL   , 62*song_title_intro_night_mvl/mxv
	.byte	W03
	.byte		        55*song_title_intro_night_mvl/mxv
	.byte	W03
	.byte		        39*song_title_intro_night_mvl/mxv
	.byte	W03
	.byte		        15*song_title_intro_night_mvl/mxv
	.byte	W03
	.byte		        78*song_title_intro_night_mvl/mxv
	.byte	W06
	.byte		N06
	.byte	W06
	.byte		        Gs4 , v060
	.byte	W06
	.byte		N18   , Gs4 , v072
	.byte	W06
	.byte		VOL   , 62*song_title_intro_night_mvl/mxv
	.byte	W03
	.byte		        55*song_title_intro_night_mvl/mxv
	.byte	W03
	.byte		        39*song_title_intro_night_mvl/mxv
	.byte	W03
	.byte		        15*song_title_intro_night_mvl/mxv
	.byte	W03
	.byte		        78*song_title_intro_night_mvl/mxv
	.byte	W06
	.byte		N06
	.byte	W06
	.byte		        Gs4 , v060
	.byte	W06
	.byte		N12   , Gs4 , v072
	.byte	W06
	.byte		VOL   , 62*song_title_intro_night_mvl/mxv
	.byte	W03
	.byte		        23*song_title_intro_night_mvl/mxv
	.byte	W03
	.byte	FINE

@*********************** Track 04 ***********************@

song_title_intro_night_3:
	.byte	KEYSH , song_title_intro_night_key+0
	.byte		VOICE , 60
	.byte		MOD   , 0
	.byte		BENDR , 2
	.byte		VOL   , 78*song_title_intro_night_mvl/mxv
	.byte		PAN   , c_v+0
	.byte		BEND  , c_v+0
	.byte	W96
	.byte	W96
	.byte	W96
	.byte	W96
	.byte	W96
	.byte	W24
	.byte		N24   , En3 , v127
	.byte	W24
	.byte		N36   , Cs4 
	.byte	W36
	.byte		N06   , Bn3 
	.byte	W06
	.byte		        An3 
	.byte	W06
	.byte		N72   , Gs3 , v108
	.byte		N72   , Bn3 , v096
	.byte	W48
	.byte		VOL   , 72*song_title_intro_night_mvl/mxv
	.byte	W06
	.byte		        66*song_title_intro_night_mvl/mxv
	.byte	W06
	.byte		        55*song_title_intro_night_mvl/mxv
	.byte	W06
	.byte		        31*song_title_intro_night_mvl/mxv
	.byte	W06
	.byte		VOICE , 102
	.byte		VOL   , 78*song_title_intro_night_mvl/mxv
	.byte		N06   , Bn2 , v040
	.byte	W06
	.byte		        Dn3 
	.byte	W06
	.byte		        Fs3 
	.byte	W06
	.byte		        An3 
	.byte	W06
	.byte		N05   , Bn3 
	.byte	W06
	.byte		N05
	.byte	W06
	.byte		N18
	.byte	W06
	.byte		VOL   , 62*song_title_intro_night_mvl/mxv
	.byte	W03
	.byte		        55*song_title_intro_night_mvl/mxv
	.byte	W03
	.byte		        39*song_title_intro_night_mvl/mxv
	.byte	W03
	.byte		        15*song_title_intro_night_mvl/mxv
	.byte	W03
	.byte		        78*song_title_intro_night_mvl/mxv
	.byte	W06
	.byte		N05
	.byte	W06
	.byte		N05
	.byte	W06
	.byte		N18
	.byte	W06
	.byte		VOL   , 62*song_title_intro_night_mvl/mxv
	.byte	W03
	.byte		        55*song_title_intro_night_mvl/mxv
	.byte	W03
	.byte		        39*song_title_intro_night_mvl/mxv
	.byte	W03
	.byte		        15*song_title_intro_night_mvl/mxv
	.byte	W03
	.byte		        78*song_title_intro_night_mvl/mxv
	.byte	W06
	.byte		N05
	.byte	W06
	.byte		N05
	.byte	W06
	.byte		N12
	.byte	W06
	.byte		VOL   , 62*song_title_intro_night_mvl/mxv
	.byte	W03
	.byte		        23*song_title_intro_night_mvl/mxv
	.byte	W03
	.byte	FINE

@*********************** Track 05 ***********************@

song_title_intro_night_4:
	.byte	KEYSH , song_title_intro_night_key+0
	.byte		VOICE , 121
	.byte		MOD   , 0
	.byte		VOL   , 78*song_title_intro_night_mvl/mxv
	.byte		PAN   , c_v-64
	.byte		BENDR , 2
	.byte		BEND  , c_v+0
	.byte		N09   , En5 , v052
	.byte	W12
	.byte		        An4 
	.byte	W12
	.byte		        En4 
	.byte	W12
	.byte		        En5 
	.byte	W12
	.byte		        An4 
	.byte	W12
	.byte		        En4 
	.byte	W12
	.byte		        En5 
	.byte	W12
	.byte		        An4 
	.byte	W12
	.byte		        Fs4 
	.byte	W12
	.byte		        Fs5 
	.byte	W12
	.byte		        Bn4 
	.byte	W12
	.byte		        Fs4 
	.byte	W12
	.byte		        Fs5 
	.byte	W12
	.byte		        Bn4 
	.byte	W12
	.byte		        Fs4 
	.byte	W12
	.byte		        Fs5 
	.byte	W12
	.byte		        Gn5 
	.byte	W12
	.byte		        Cn5 
	.byte	W12
	.byte		        Gn4 
	.byte	W12
	.byte		        Gn5 
	.byte	W12
	.byte		        Cn5 
	.byte	W12
	.byte		        Gn4 
	.byte	W12
	.byte		        Gn5 
	.byte	W12
	.byte		        Cn5 
	.byte	W12
	.byte		        An4 
	.byte	W12
	.byte		        An5 
	.byte	W12
	.byte		        Dn5 
	.byte	W12
	.byte		        An4 
	.byte	W12
	.byte		        An5 
	.byte	W12
	.byte		        Dn5 
	.byte	W12
	.byte		        An4 
	.byte	W12
	.byte		        An5 
	.byte	W12
	.byte		N09   , Gs5 , v052
	.byte	W12
	.byte		        En4 
	.byte	W12
	.byte		        Bn4 
	.byte	W12
	.byte		        Bn3 
	.byte	W12
	.byte		        En5 
	.byte	W12
	.byte		        En4 
	.byte	W12
	.byte		        Gs4 
	.byte	W12
	.byte		        Gs3 
	.byte	W12
	.byte	PEND
	.byte		        Bn4 
	.byte	W12
	.byte		        Bn3 
	.byte	W12
	.byte		        En4 
	.byte	W12
	.byte		        En3 
	.byte	W12
	.byte		        Gs4 
	.byte	W12
	.byte		        Gs3 
	.byte	W12
	.byte		        Bn3 
	.byte	W12
	.byte		        Bn2 
	.byte	W12
	.byte	PATT
	 .word	song_title_intro_night_4 + 0x50
	.byte	W24
	.byte		PAN   , c_v+0
	.byte	W24
	.byte	W02
	.byte		N03   , Gs4 , v036
	.byte	W06
	.byte		N03
	.byte	W06
	.byte		        Gn4 
	.byte	W06
	.byte		N03
	.byte	W06
	.byte		        Fs4 , v020
	.byte	W06
	.byte		N03
	.byte	W06
	.byte		        En4 
	.byte	W06
	.byte		N03
	.byte	W03
	.byte	FINE

@*********************** Track 06 ***********************@

song_title_intro_night_5:
	.byte	KEYSH , song_title_intro_night_key+0
	.byte		VOICE , 122
	.byte		MOD   , 0
	.byte		BENDR , 2
	.byte		VOL   , 78*song_title_intro_night_mvl/mxv
	.byte		PAN   , c_v+63
	.byte		BEND  , c_v+0
	.byte	W06
	.byte		N09   , En5 , v052
	.byte	W12
	.byte		        An4 
	.byte	W12
	.byte		        En4 
	.byte	W12
	.byte		        En5 
	.byte	W06
	.byte		        An4 
	.byte	W18
	.byte		        En4 
	.byte	W12
	.byte		        En5 
	.byte	W12
	.byte		        An4 
	.byte	W06
	.byte	W06
	.byte		        Fs4 
	.byte	W12
	.byte		        Fs5 
	.byte	W12
	.byte		        Bn4 
	.byte	W12
	.byte		        Fs4 
	.byte	W12
	.byte		        Fs5 
	.byte	W12
	.byte		        Bn4 
	.byte	W12
	.byte		        Fs4 
	.byte	W12
	.byte		        Fs5 
	.byte	W06
	.byte	W06
	.byte		        Gn5 
	.byte	W12
	.byte		        Cn5 
	.byte	W12
	.byte		        Gn4 
	.byte	W12
	.byte		        Gn5 
	.byte	W12
	.byte		        Cn5 
	.byte	W12
	.byte		        Gn4 
	.byte	W12
	.byte		        Gn5 
	.byte	W12
	.byte		        Cn5 
	.byte	W06
	.byte	W06
	.byte		        An4 
	.byte	W12
	.byte		        An5 
	.byte	W12
	.byte		        Dn5 
	.byte	W12
	.byte		        An4 
	.byte	W12
	.byte		        An5 
	.byte	W12
	.byte		        Dn5 
	.byte	W12
	.byte		        An4 
	.byte	W12
	.byte		        An5 
	.byte	W06
	.byte	W06
	.byte		N09   , Gs5 , v052
	.byte	W12
	.byte		        En4 
	.byte	W12
	.byte		        Bn4 
	.byte	W12
	.byte		        Bn3 
	.byte	W12
	.byte		        En5 
	.byte	W12
	.byte		        En4 
	.byte	W12
	.byte		        Gs4 
	.byte	W12
	.byte		        Gs3 
	.byte	W06
	.byte	PEND
	.byte	W06
	.byte		        Bn4 
	.byte	W12
	.byte		        Bn3 
	.byte	W12
	.byte		        En4 
	.byte	W12
	.byte		        En3 
	.byte	W12
	.byte		        Gs4 
	.byte	W12
	.byte		        Gs3 
	.byte	W12
	.byte		        Bn3 
	.byte	W12
	.byte		        Bn2 
	.byte	W06
	.byte	PATT
	 .word	song_title_intro_night_5 + 0x54
	.byte	W24
	.byte		VOICE , 123
	.byte		PAN   , c_v+0
	.byte	W24
	.byte		N03   , Bn6 , v088
	.byte	W06
	.byte		N03
	.byte	W06
	.byte		        As6 
	.byte	W06
	.byte		N03
	.byte	W06
	.byte		        An6 , v068
	.byte	W06
	.byte		N03
	.byte	W06
	.byte		        Gs6 
	.byte	W06
	.byte		N03
	.byte	W03
	.byte	FINE

@*********************** Track 07 ***********************@

song_title_intro_night_6:
	.byte	KEYSH , song_title_intro_night_key+0
	.byte		VOICE , 31
	.byte		MOD   , 0
	.byte		BENDR , 2
	.byte		VOL   , 78*song_title_intro_night_mvl/mxv
	.byte		PAN   , c_v+63
	.byte		BEND  , c_v+0
	.byte	W96
	.byte	W96
	.byte	W96
	.byte	W96
	.byte	W96
	.byte	W96
	.byte	W96
	.byte		N05   , Bn2 , v072
	.byte	W06
	.byte		N05
	.byte	W06
	.byte		N18
	.byte	W06
	.byte		VOL   , 62*song_title_intro_night_mvl/mxv
	.byte	W03
	.byte		        55*song_title_intro_night_mvl/mxv
	.byte	W03
	.byte		        39*song_title_intro_night_mvl/mxv
	.byte	W03
	.byte		        15*song_title_intro_night_mvl/mxv
	.byte	W03
	.byte		        78*song_title_intro_night_mvl/mxv
	.byte	W06
	.byte		N05
	.byte	W06
	.byte		N05
	.byte	W06
	.byte		N18
	.byte	W06
	.byte		VOL   , 62*song_title_intro_night_mvl/mxv
	.byte	W03
	.byte		        55*song_title_intro_night_mvl/mxv
	.byte	W03
	.byte		        39*song_title_intro_night_mvl/mxv
	.byte	W03
	.byte		        15*song_title_intro_night_mvl/mxv
	.byte	W03
	.byte		        78*song_title_intro_night_mvl/mxv
	.byte	W06
	.byte		N08   , En3 , v080
	.byte	W08
	.byte		        Bn2 
	.byte	W08
	.byte		        Gs2 
	.byte	W08
	.byte	FINE

@*********************** Track 08 ***********************@

song_title_intro_night_7:
	.byte	KEYSH , song_title_intro_night_key+0
	.byte		VOICE , 127
	.byte		MOD   , 0
	.byte		VOL   , 100*song_title_intro_night_mvl/mxv
	.byte		PAN   , c_v+0
	.byte		BENDR , 2
	.byte		BEND  , c_v+0
	.byte		N72   , An2 , v120
	.byte	W96
	.byte	W96
	.byte		N72
	.byte	W96
	.byte	W96
	.byte		N72
	.byte	W96
	.byte	W96
	.byte		N12   , FnM1, v084
	.byte		N12   , An1 , v060
	.byte	W12
	.byte		        FnM1, v092
	.byte		N12   , An1 , v068
	.byte	W12
	.byte		        FnM1, v104
	.byte		N12   , An1 , v076
	.byte	W12
	.byte		        FnM1, v112
	.byte		N12   , An1 , v088
	.byte	W12
	.byte		        FnM1, v124
	.byte		N12   , An1 , v096
	.byte	W12
	.byte		        FnM1, v127
	.byte		N12   , An1 , v112
	.byte	W12
	.byte		N06   , FsM1, v127
	.byte	W06
	.byte		        Cn2 
	.byte	W06
	.byte		        An1 
	.byte	W06
	.byte		        Fn1 
	.byte	W06
	.byte		        FsM1, v120
	.byte		N36   , An2 , v112
	.byte	W06
	.byte		N06   , FsM1, v120
	.byte	W06
	.byte		N12
	.byte	W24
	.byte		N06
	.byte		N36   , Cs2 , v112
	.byte	W06
	.byte		N06   , FsM1, v120
	.byte	W06
	.byte		N12
	.byte	W24
	.byte		N06
	.byte		N36   , An2 , v112
	.byte	W06
	.byte		N06   , FsM1, v120
	.byte	W06
	.byte		N12
	.byte	W12
	.byte	W12
	.byte	FINE

@******************************************************@

	.align	2

song_title_intro_night:
	.byte	8	@ NumTrks
	.byte	0	@ NumBlks
	.byte	song_title_intro_night_pri	@ Priority
	.byte	song_title_intro_night_rev	@ Reverb

	.word	song_title_intro_night_grp

	.word	song_title_intro_night_0
	.word	song_title_intro_night_1
	.word	song_title_intro_night_2
	.word	song_title_intro_night_3
	.word	song_title_intro_night_4
	.word	song_title_intro_night_5
	.word	song_title_intro_night_6
	.word	song_title_intro_night_7

	.end
